<?xml version="1.0" encoding="utf-8"?>
<!-- Generator: Adobe Illustrator 21.0.2, SVG Export Plug-In . SVG Version: 6.00 Build 0)  -->
<svg version="1.1" id="Layer_1" xmlns="http://www.w3.org/2000/svg" xmlns:xlink="http://www.w3.org/1999/xlink" x="0px" y="0px"
	 viewBox="0 0 423.4 163.5" style="enable-background:new 0 0 423.4 163.5;" xml:space="preserve">
<style type="text/css">
	.st0{fill:#FFFFFF;}
	.st1{font-family:'Nunito-SemiBoldItalic';}
	.st2{font-size:31.0964px;}
</style>
<title>Prima-logo</title>
<path class="st0" d="M113.3,105.7c-8,7.5-18.8,11.3-32.4,11.3c-7,0-13.3-1-18.8-3c-5.5-2-10.1-4.9-14-8.8c-3.8-3.8-6.7-8.5-8.8-14
	c-2-5.5-3-11.7-3-18.7c0-6.9,1-13.2,3-18.7c2-5.5,5-10.2,8.8-14C52,36,56.7,33,62.2,31c5.5-2,11.7-3,18.8-3
	c11.7,0,21.3,2.8,28.8,8.5l-4.9,6.5c-6.2-4.6-14.2-6.9-24-6.9c-11.8,0-20.9,3.1-27.1,9.3c-6.2,6.3-9.3,15.2-9.3,27
	c0,11.8,3.1,20.9,9.3,27.1c6.2,6.2,15.2,9.3,27.1,9.3c5.6,0,10.7-0.8,15.2-2.3c4.5-1.6,8.3-3.9,11.5-6.9L113.3,105.7z"/>
<rect x="132.8" y="25.3" class="st0" width="8.2" height="91"/>
<path class="st0" d="M215.2,86.5h-23.8c-5.2,0-9.4,0.1-12.6,0.4c-3.2,0.3-5.6,0.8-7.3,1.7c-1.7,0.9-2.7,2.1-3.2,3.7
	c-0.5,1.6-0.7,3.8-0.7,6.5c0,1.8,0.7,3.3,2.1,4.6c1.4,1.2,3.3,2.3,5.5,3.1c2.3,0.8,4.8,1.3,7.7,1.7c2.9,0.3,5.7,0.5,8.6,0.5
	c2.9,0,5.7-0.2,8.6-0.5c2.8-0.3,5.4-0.9,7.6-1.7c2.3-0.8,4.1-1.8,5.5-3.1c1.4-1.2,2.1-2.8,2.1-4.6V86.5z M191.3,52.9
	c10.1,0,18,2.8,23.6,8.5c5.6,5.6,8.4,13.5,8.4,23.5v14c0,1.3-0.3,3-0.9,5.1c-0.6,2.1-2,4.1-4.2,6c-2.2,1.9-5.4,3.5-9.7,4.9
	c-4.2,1.4-9.9,2-17.2,2c-7.2,0-13-0.7-17.2-2c-4.2-1.4-7.4-3-9.6-4.9c-2.2-1.9-3.6-3.9-4.3-6c-0.6-2.1-0.9-3.8-0.9-5.1
	c0-4.7,0.7-8.5,2.2-11.2c1.5-2.7,3.5-4.8,6-6.1c2.5-1.4,5.4-2.3,8.8-2.6c3.4-0.4,7-0.6,10.9-0.6h27.4c-1.1-5.6-3.6-9.9-7.5-12.8
	c-3.9-3-9.2-4.5-15.8-4.5c-6.7,0-12.1,1.6-16.3,4.8l-5-6.4C175.6,55,182.7,52.9,191.3,52.9"/>
<path class="st0" d="M250.7,61.4c5.2-5.6,12.5-8.4,21.8-8.4v8.2c-7,0-12.4,2.1-16,6.2c-3.7,4.1-5.5,10-5.5,17.7v31.3h-8.2V85
	C242.9,75,245.5,67.1,250.7,61.4"/>
<rect x="291.5" y="54.1" class="st0" width="8.2" height="62.1"/>
<path class="st0" d="M295.6,43.4c-8.3,0-15-6.8-15-15.3c0-8.4,6.7-15.2,15-15.2c8.3,0,15,6.8,15,15.2
	C310.6,36.6,303.9,43.4,295.6,43.4 M295.6,7.2c-11.4,0-20.7,9.4-20.7,21c0,11.6,9.2,21,20.7,21c11.4,0,20.6-9.4,20.6-21
	C316.2,16.6,307,7.2,295.6,7.2"/>
<path class="st0" d="M283.8,28.2c-0.5-1.6-0.5-3.3,0-4.9c0.4-1.6,1.4-3.2,2.5-4.4c1.2-1.2,2.7-2.2,4.4-2.6c1.6-0.5,3.4-0.5,5,0
	c-3.1,1-5.5,2.4-7.5,4.4C286.1,22.6,284.8,25.1,283.8,28.2"/>
<path class="st0" d="M373.3,86.5h-23.8c-5.2,0-9.4,0.1-12.6,0.4c-3.1,0.3-5.6,0.8-7.2,1.7c-1.7,0.9-2.8,2.1-3.3,3.7
	c-0.5,1.6-0.8,3.8-0.8,6.5c0,1.8,0.7,3.3,2.1,4.6c1.4,1.2,3.2,2.3,5.5,3.1c2.2,0.8,4.8,1.3,7.6,1.7c2.9,0.3,5.7,0.5,8.6,0.5
	c2.9,0,5.8-0.2,8.6-0.5c2.8-0.3,5.4-0.9,7.7-1.7c2.2-0.8,4-1.8,5.5-3.1c1.4-1.2,2.1-2.8,2.1-4.6V86.5z M349.4,52.9
	c10.2,0,18,2.8,23.6,8.5c5.6,5.6,8.4,13.5,8.4,23.5v14c0,1.3-0.3,3-0.9,5.1c-0.6,2.1-2.1,4.1-4.3,6c-2.2,1.9-5.5,3.5-9.6,4.9
	c-4.2,1.4-9.9,2-17.2,2c-7.2,0-12.9-0.7-17.1-2c-4.2-1.4-7.4-3-9.7-4.9c-2.2-1.9-3.6-3.9-4.3-6c-0.6-2.1-0.9-3.8-0.9-5.1
	c0-4.7,0.7-8.5,2.2-11.2c1.5-2.7,3.5-4.8,6-6.1c2.5-1.4,5.4-2.3,8.8-2.6c3.4-0.4,7-0.6,10.9-0.6h27.3c-1.1-5.6-3.6-9.9-7.5-12.8
	c-3.9-3-9.1-4.5-15.8-4.5c-6.7,0-12.1,1.6-16.2,4.8l-5.1-6.4C333.7,55,340.8,52.9,349.4,52.9"/>
<text transform="matrix(1 0 0 1 36.3184 152.5277)"><tspan x="0" y="0" class="st0 st1 st2">a </tspan><tspan x="25.7" y="0" class="st0 st1 st2">n</tspan></text>
<text transform="matrix(1 0 0 1 80.2891 152.5277)" class="st0 st1 st2">e</text>
<text transform="matrix(1 0 0 1 96.9263 152.5277)"><tspan x="0" y="0" class="st0 st1 st2">w l</tspan><tspan x="43.3" y="0" class="st0 st1 st2">i</tspan></text>
<text transform="matrix(1 0 0 1 148.1738 152.5277)" class="st0 st1 st2">f</text>
<text transform="matrix(1 0 0 1 159.0254 152.5277)"><tspan x="0" y="0" class="st0 st1 st2">e.</tspan><tspan x="24.7" y="0" class="st0 st1 st2"> </tspan></text>
<text transform="matrix(1 0 0 1 192.2983 152.5277)" class="st0 st1 st2">w</text>
<text transform="matrix(1 0 0 1 218.8564 152.5277)"><tspan x="0" y="0" class="st0 st1 st2">ell planne</tspan><tspan x="138.6" y="0" class="st0 st1 st2">d</tspan></text>
<text transform="matrix(1 0 0 1 376.2021 152.5277)" class="st0 st1 st2">.</text>
</svg>
