<?xml version="1.0" encoding="utf-8"?>
<!-- Generator: Adobe Illustrator 21.0.2, SVG Export Plug-In . SVG Version: 6.00 Build 0)  -->
<svg version="1.1" id="Layer_1" xmlns="http://www.w3.org/2000/svg" xmlns:xlink="http://www.w3.org/1999/xlink" x="0px" y="0px"
	 viewBox="0 0 423.4 163.5" style="enable-background:new 0 0 423.4 163.5;" xml:space="preserve">
<style type="text/css">
	.st0{fill:#FFFFFF;}
	.st1{enable-background:new    ;}
</style>
<title>Prima-logo</title>
<path class="st0" d="M113.3,105.7c-8,7.5-18.8,11.3-32.4,11.3c-7,0-13.3-1-18.8-3s-10.1-4.9-14-8.8c-3.8-3.8-6.7-8.5-8.8-14
	c-2-5.5-3-11.7-3-18.7c0-6.9,1-13.2,3-18.7s5-10.2,8.8-14C52,36,56.7,33,62.2,31s11.7-3,18.8-3c11.7,0,21.3,2.8,28.8,8.5l-4.9,6.5
	c-6.2-4.6-14.2-6.9-24-6.9c-11.8,0-20.9,3.1-27.1,9.3c-6.2,6.3-9.3,15.2-9.3,27s3.1,20.9,9.3,27.1s15.2,9.3,27.1,9.3
	c5.6,0,10.7-0.8,15.2-2.3c4.5-1.6,8.3-3.9,11.5-6.9L113.3,105.7z"/>
<rect x="132.8" y="25.3" class="st0" width="8.2" height="91"/>
<path class="st0" d="M215.2,86.5h-23.8c-5.2,0-9.4,0.1-12.6,0.4c-3.2,0.3-5.6,0.8-7.3,1.7c-1.7,0.9-2.7,2.1-3.2,3.7
	s-0.7,3.8-0.7,6.5c0,1.8,0.7,3.3,2.1,4.6c1.4,1.2,3.3,2.3,5.5,3.1c2.3,0.8,4.8,1.3,7.7,1.7c2.9,0.3,5.7,0.5,8.6,0.5
	c2.9,0,5.7-0.2,8.6-0.5c2.8-0.3,5.4-0.9,7.6-1.7c2.3-0.8,4.1-1.8,5.5-3.1c1.4-1.2,2.1-2.8,2.1-4.6V86.5H215.2z M191.3,52.9
	c10.1,0,18,2.8,23.6,8.5c5.6,5.6,8.4,13.5,8.4,23.5v14c0,1.3-0.3,3-0.9,5.1c-0.6,2.1-2,4.1-4.2,6s-5.4,3.5-9.7,4.9
	c-4.2,1.4-9.9,2-17.2,2c-7.2,0-13-0.7-17.2-2c-4.2-1.4-7.4-3-9.6-4.9c-2.2-1.9-3.6-3.9-4.3-6c-0.6-2.1-0.9-3.8-0.9-5.1
	c0-4.7,0.7-8.5,2.2-11.2s3.5-4.8,6-6.1c2.5-1.4,5.4-2.3,8.8-2.6c3.4-0.4,7-0.6,10.9-0.6h27.4c-1.1-5.6-3.6-9.9-7.5-12.8
	c-3.9-3-9.2-4.5-15.8-4.5c-6.7,0-12.1,1.6-16.3,4.8l-5-6.4C175.6,55,182.7,52.9,191.3,52.9"/>
<path class="st0" d="M250.7,61.4c5.2-5.6,12.5-8.4,21.8-8.4v8.2c-7,0-12.4,2.1-16,6.2c-3.7,4.1-5.5,10-5.5,17.7v31.3h-8.2V85
	C242.9,75,245.5,67.1,250.7,61.4"/>
<rect x="291.5" y="54.1" class="st0" width="8.2" height="62.1"/>
<path class="st0" d="M295.6,43.4c-8.3,0-15-6.8-15-15.3c0-8.4,6.7-15.2,15-15.2s15,6.8,15,15.2C310.6,36.6,303.9,43.4,295.6,43.4
	 M295.6,7.2c-11.4,0-20.7,9.4-20.7,21s9.2,21,20.7,21c11.4,0,20.6-9.4,20.6-21S307,7.2,295.6,7.2"/>
<path class="st0" d="M283.8,28.2c-0.5-1.6-0.5-3.3,0-4.9c0.4-1.6,1.4-3.2,2.5-4.4c1.2-1.2,2.7-2.2,4.4-2.6c1.6-0.5,3.4-0.5,5,0
	c-3.1,1-5.5,2.4-7.5,4.4C286.1,22.6,284.8,25.1,283.8,28.2"/>
<path class="st0" d="M373.3,86.5h-23.8c-5.2,0-9.4,0.1-12.6,0.4c-3.1,0.3-5.6,0.8-7.2,1.7c-1.7,0.9-2.8,2.1-3.3,3.7
	s-0.8,3.8-0.8,6.5c0,1.8,0.7,3.3,2.1,4.6c1.4,1.2,3.2,2.3,5.5,3.1c2.2,0.8,4.8,1.3,7.6,1.7c2.9,0.3,5.7,0.5,8.6,0.5s5.8-0.2,8.6-0.5
	c2.8-0.3,5.4-0.9,7.7-1.7c2.2-0.8,4-1.8,5.5-3.1c1.4-1.2,2.1-2.8,2.1-4.6L373.3,86.5L373.3,86.5z M349.4,52.9
	c10.2,0,18,2.8,23.6,8.5c5.6,5.6,8.4,13.5,8.4,23.5v14c0,1.3-0.3,3-0.9,5.1s-2.1,4.1-4.3,6c-2.2,1.9-5.5,3.5-9.6,4.9
	c-4.2,1.4-9.9,2-17.2,2c-7.2,0-12.9-0.7-17.1-2c-4.2-1.4-7.4-3-9.7-4.9c-2.2-1.9-3.6-3.9-4.3-6c-0.6-2.1-0.9-3.8-0.9-5.1
	c0-4.7,0.7-8.5,2.2-11.2s3.5-4.8,6-6.1c2.5-1.4,5.4-2.3,8.8-2.6c3.4-0.4,7-0.6,10.9-0.6h27.3c-1.1-5.6-3.6-9.9-7.5-12.8
	c-3.9-3-9.1-4.5-15.8-4.5c-6.7,0-12.1,1.6-16.2,4.8l-5.1-6.4C333.7,55,340.8,52.9,349.4,52.9"/>
<g class="st1">
	<path class="st0" d="M51,142.3c0,0.4,0,0.7,0,0.9l-0.6,8c0,0.5-0.2,0.8-0.5,1.1s-0.6,0.4-1.1,0.4c-0.5,0-0.8-0.1-1.1-0.4
		c-0.3-0.3-0.4-0.6-0.3-1.1l0.1-1.1c-0.4,0.9-1,1.5-1.8,1.9c-0.8,0.4-1.7,0.7-2.7,0.7c-1.5,0-2.8-0.4-3.7-1.2
		c-1-0.8-1.5-1.9-1.5-3.2c0-1.2,0.3-2.1,0.9-2.8c0.6-0.7,1.6-1.2,2.9-1.5c1.3-0.3,3.1-0.5,5.3-0.5h1.1l0.1-0.8
		c0.1-1.2-0.1-2-0.6-2.6c-0.5-0.5-1.3-0.8-2.4-0.8c-1.4,0-2.9,0.5-4.5,1.4c-0.2,0.1-0.4,0.2-0.6,0.2c-0.3,0-0.6-0.1-0.8-0.3
		c-0.2-0.2-0.3-0.5-0.3-0.8c0-0.5,0.3-0.9,0.8-1.2c0.7-0.5,1.6-0.9,2.7-1.2c1-0.3,2.1-0.4,3.1-0.4C49.1,137,51,138.8,51,142.3z
		 M46.4,149.3c0.7-0.8,1.2-1.8,1.3-3l0.1-0.9h-0.9c-1.5,0-2.7,0.1-3.6,0.2c-0.9,0.2-1.5,0.4-1.9,0.8c-0.4,0.4-0.6,0.9-0.6,1.6
		c0,0.7,0.3,1.3,0.8,1.7s1.2,0.6,2.1,0.6C44.8,150.4,45.7,150,46.4,149.3z"/>
</g>
<g class="st1">
	<path class="st0" d="M76.6,138.3c0.9,0.9,1.3,2.2,1.3,3.9c0,0.4,0,0.7,0,0.9l-0.6,8c0,0.5-0.2,0.8-0.5,1.1
		c-0.3,0.3-0.7,0.4-1.2,0.4c-0.5,0-0.9-0.1-1.1-0.4c-0.3-0.3-0.4-0.6-0.3-1.1l0.6-7.8c0-0.1,0-0.4,0-0.7c0-2.1-1-3.2-3-3.2
		c-1.3,0-2.3,0.4-3.1,1.2c-0.8,0.8-1.2,1.8-1.3,3.2l-0.6,7.3c0,0.5-0.2,0.8-0.5,1.1c-0.3,0.3-0.7,0.4-1.2,0.4
		c-0.5,0-0.8-0.1-1.1-0.4s-0.4-0.6-0.4-1.1l1-12.7c0-0.4,0.2-0.8,0.5-1c0.3-0.3,0.7-0.4,1.2-0.4c0.4,0,0.8,0.1,1,0.4
		c0.2,0.2,0.4,0.6,0.3,1l-0.1,1.1c0.5-0.8,1.2-1.4,2.1-1.9c0.9-0.4,1.9-0.7,3-0.7C74.5,137,75.8,137.4,76.6,138.3z"/>
</g>
<g class="st1">
	<path class="st0" d="M95.3,145.1c-0.2,0.2-0.5,0.3-0.9,0.3h-9.7c0,1.5,0.4,2.7,1.2,3.6c0.8,0.8,1.9,1.3,3.3,1.3
		c1.5,0,2.8-0.4,4-1.2c0.2-0.1,0.5-0.2,0.7-0.2c0.3,0,0.5,0.1,0.7,0.3c0.2,0.2,0.3,0.5,0.3,0.8c0,0.5-0.2,0.9-0.6,1.2
		c-0.6,0.5-1.3,0.8-2.3,1.1c-1,0.3-2,0.4-3,0.4c-1.5,0-2.8-0.3-3.9-0.9c-1.1-0.6-2-1.5-2.6-2.6c-0.6-1.1-0.9-2.4-0.9-3.9
		c0-1.6,0.3-3.1,0.9-4.4c0.6-1.3,1.5-2.3,2.7-3c1.1-0.7,2.5-1.1,3.9-1.1c2.1,0,3.7,0.6,4.8,1.8c1.1,1.2,1.7,3,1.7,5.4
		C95.6,144.6,95.5,144.9,95.3,145.1z M86.3,140.4c-0.7,0.7-1.2,1.8-1.4,3.3h8c0-1.4-0.3-2.5-0.9-3.3c-0.6-0.7-1.5-1.1-2.7-1.1
		C88,139.3,87,139.7,86.3,140.4z"/>
</g>
<g class="st1">
	<path class="st0" d="M120.5,137.4c0.2-0.2,0.5-0.2,0.8-0.2c0.4,0,0.7,0.1,1,0.4c0.3,0.3,0.5,0.6,0.5,0.9c0,0.2-0.1,0.5-0.2,0.7
		l-5.8,12.4c-0.2,0.4-0.4,0.6-0.7,0.8c-0.3,0.2-0.7,0.3-1.1,0.3c-0.4,0-0.8-0.1-1.1-0.3c-0.3-0.2-0.5-0.5-0.7-0.9l-2.9-9.8l-4.4,9.9
		c-0.1,0.3-0.4,0.6-0.7,0.8c-0.3,0.2-0.7,0.3-1.1,0.3c-0.4,0-0.8-0.1-1.1-0.3c-0.3-0.2-0.5-0.5-0.7-0.8l-3.8-12.4
		c-0.1-0.2-0.1-0.4-0.1-0.5c0-0.4,0.2-0.8,0.5-1.1c0.3-0.3,0.7-0.4,1.2-0.4c0.3,0,0.6,0.1,0.8,0.2c0.2,0.2,0.4,0.4,0.5,0.7l3,10.7
		l4.7-10.5c0.2-0.4,0.4-0.7,0.7-0.9c0.3-0.2,0.6-0.3,0.9-0.3s0.6,0.1,0.9,0.3c0.3,0.2,0.5,0.5,0.6,0.8l3,10.5l4.8-10.7
		C120,137.7,120.2,137.5,120.5,137.4z"/>
	<path class="st0" d="M133.5,152.3c-0.3-0.2-0.4-0.6-0.4-1.1l1.6-19.3c0-0.5,0.2-0.9,0.5-1.1c0.3-0.2,0.7-0.4,1.2-0.4
		c0.4,0,0.8,0.1,1.1,0.4c0.3,0.2,0.4,0.6,0.4,1.1l-1.6,19.3c0,0.5-0.2,0.9-0.5,1.1c-0.3,0.2-0.7,0.4-1.2,0.4
		S133.8,152.6,133.5,152.3z"/>
</g>
<g class="st1">
	<path class="st0" d="M142.3,152.3c-0.3-0.2-0.4-0.6-0.4-1.1l1-12.7c0-0.5,0.2-0.8,0.5-1.1c0.3-0.2,0.7-0.4,1.2-0.4
		c0.5,0,0.8,0.1,1.1,0.4c0.3,0.2,0.4,0.6,0.4,1.1l-1,12.7c0,0.5-0.2,0.9-0.5,1.1c-0.3,0.2-0.7,0.4-1.2,0.4S142.5,152.6,142.3,152.3z
		 M143.6,133.5c-0.4-0.3-0.5-0.8-0.5-1.3s0.2-1,0.5-1.3c0.4-0.3,0.8-0.5,1.4-0.5c0.6,0,1.1,0.2,1.4,0.5c0.4,0.3,0.5,0.8,0.5,1.3
		s-0.2,1-0.5,1.3c-0.4,0.3-0.8,0.5-1.4,0.5C144.4,134,143.9,133.8,143.6,133.5z"/>
</g>
<g class="st1">
	<path class="st0" d="M156.1,134c-0.5,0.6-0.8,1.4-0.9,2.6l-0.1,0.8h3.1c0.4,0,0.7,0.1,0.9,0.3c0.2,0.2,0.3,0.5,0.3,0.8
		c0,0.9-0.5,1.3-1.4,1.3h-3.1l-0.9,11.4c0,0.5-0.2,0.9-0.5,1.1c-0.3,0.2-0.7,0.4-1.1,0.4c-0.4,0-0.8-0.1-1.1-0.4
		c-0.3-0.2-0.4-0.6-0.4-1.1l0.9-11.4h-1.8c-0.4,0-0.7-0.1-1-0.3c-0.2-0.2-0.3-0.5-0.3-0.8c0-0.4,0.1-0.7,0.4-0.9
		c0.2-0.2,0.6-0.3,1.1-0.3h1.9l0-0.4c0.3-4,2.5-6.1,6.4-6.3l0.7,0c1.1-0.1,1.6,0.3,1.6,1.1c0,0.4-0.1,0.7-0.3,0.9
		c-0.2,0.2-0.6,0.3-1,0.4l-0.8,0.1C157.4,133.1,156.6,133.4,156.1,134z"/>
</g>
<g class="st1">
	<path class="st0" d="M174,145.1c-0.2,0.2-0.5,0.3-0.9,0.3h-9.7c0,1.5,0.4,2.7,1.2,3.6c0.8,0.8,1.9,1.3,3.3,1.3c1.5,0,2.8-0.4,4-1.2
		c0.2-0.1,0.5-0.2,0.7-0.2c0.3,0,0.5,0.1,0.7,0.3c0.2,0.2,0.3,0.5,0.3,0.8c0,0.5-0.2,0.9-0.6,1.2c-0.6,0.5-1.3,0.8-2.3,1.1
		c-1,0.3-2,0.4-3,0.4c-1.5,0-2.8-0.3-3.9-0.9c-1.1-0.6-2-1.5-2.6-2.6c-0.6-1.1-0.9-2.4-0.9-3.9c0-1.6,0.3-3.1,0.9-4.4
		c0.6-1.3,1.5-2.3,2.7-3c1.1-0.7,2.5-1.1,3.9-1.1c2.1,0,3.7,0.6,4.8,1.8c1.1,1.2,1.7,3,1.7,5.4C174.3,144.6,174.2,144.9,174,145.1z
		 M165,140.4c-0.7,0.7-1.2,1.8-1.4,3.3h8c0-1.4-0.3-2.5-0.9-3.3c-0.6-0.7-1.5-1.1-2.7-1.1C166.7,139.3,165.7,139.7,165,140.4z"/>
	<path class="st0" d="M177.3,152.1c-0.4-0.4-0.6-0.8-0.6-1.4c0-0.6,0.2-1.1,0.6-1.4c0.4-0.4,0.9-0.6,1.4-0.6c0.6,0,1,0.2,1.4,0.6
		s0.6,0.9,0.6,1.4c0,0.6-0.2,1.1-0.6,1.4s-0.8,0.6-1.4,0.6C178.2,152.7,177.7,152.5,177.3,152.1z"/>
</g>
<g class="st1">
	<path class="st0" d="M215.8,137.4c0.2-0.2,0.5-0.2,0.8-0.2c0.4,0,0.7,0.1,1,0.4c0.3,0.3,0.5,0.6,0.5,0.9c0,0.2-0.1,0.5-0.2,0.7
		l-5.8,12.4c-0.2,0.4-0.4,0.6-0.7,0.8c-0.3,0.2-0.7,0.3-1.1,0.3c-0.4,0-0.8-0.1-1.1-0.3c-0.3-0.2-0.5-0.5-0.7-0.9l-2.9-9.8l-4.4,9.9
		c-0.1,0.3-0.4,0.6-0.7,0.8c-0.3,0.2-0.7,0.3-1.1,0.3c-0.4,0-0.8-0.1-1.1-0.3c-0.3-0.2-0.5-0.5-0.7-0.8l-3.8-12.4
		c-0.1-0.2-0.1-0.4-0.1-0.5c0-0.4,0.2-0.8,0.5-1.1c0.3-0.3,0.7-0.4,1.2-0.4c0.3,0,0.6,0.1,0.8,0.2c0.2,0.2,0.4,0.4,0.5,0.7l3,10.7
		l4.7-10.5c0.2-0.4,0.4-0.7,0.7-0.9c0.3-0.2,0.6-0.3,0.9-0.3s0.6,0.1,0.9,0.3c0.3,0.2,0.5,0.5,0.6,0.8l3,10.5l4.8-10.7
		C215.4,137.7,215.6,137.5,215.8,137.4z"/>
</g>
<g class="st1">
	<path class="st0" d="M233.8,145.1c-0.2,0.2-0.5,0.3-0.9,0.3h-9.7c0,1.5,0.4,2.7,1.2,3.6c0.8,0.8,1.9,1.3,3.3,1.3
		c1.5,0,2.8-0.4,4-1.2c0.2-0.1,0.5-0.2,0.7-0.2c0.3,0,0.5,0.1,0.7,0.3c0.2,0.2,0.3,0.5,0.3,0.8c0,0.5-0.2,0.9-0.6,1.2
		c-0.6,0.5-1.3,0.8-2.3,1.1c-1,0.3-2,0.4-3,0.4c-1.5,0-2.8-0.3-3.9-0.9c-1.1-0.6-2-1.5-2.6-2.6c-0.6-1.1-0.9-2.4-0.9-3.9
		c0-1.6,0.3-3.1,0.9-4.4c0.6-1.3,1.5-2.3,2.7-3c1.1-0.7,2.5-1.1,3.9-1.1c2.1,0,3.7,0.6,4.8,1.8c1.1,1.2,1.7,3,1.7,5.4
		C234.2,144.6,234,144.9,233.8,145.1z M224.8,140.4c-0.7,0.7-1.2,1.8-1.4,3.3h8c0-1.4-0.3-2.5-0.9-3.3c-0.6-0.7-1.5-1.1-2.7-1.1
		C226.6,139.3,225.6,139.7,224.8,140.4z"/>
	<path class="st0" d="M237.3,152.3c-0.3-0.2-0.4-0.6-0.4-1.1l1.6-19.3c0-0.5,0.2-0.9,0.5-1.1s0.7-0.4,1.2-0.4c0.4,0,0.8,0.1,1.1,0.4
		s0.4,0.6,0.4,1.1l-1.6,19.3c0,0.5-0.2,0.9-0.5,1.1c-0.3,0.2-0.7,0.4-1.2,0.4S237.6,152.6,237.3,152.3z"/>
	<path class="st0" d="M244.9,152.3c-0.3-0.2-0.4-0.6-0.4-1.1l1.6-19.3c0-0.5,0.2-0.9,0.5-1.1c0.3-0.2,0.7-0.4,1.2-0.4
		s0.8,0.1,1.1,0.4c0.3,0.2,0.4,0.6,0.4,1.1l-1.6,19.3c0,0.5-0.2,0.9-0.5,1.1s-0.7,0.4-1.2,0.4S245.1,152.6,244.9,152.3z"/>
	<path class="st0" d="M272.5,137.9c1,0.6,1.7,1.5,2.3,2.5c0.5,1.1,0.8,2.4,0.8,3.9c0,1.7-0.3,3.2-0.9,4.4c-0.6,1.3-1.4,2.3-2.5,3
		c-1.1,0.7-2.3,1.1-3.7,1.1c-1.1,0-2.1-0.2-3-0.7c-0.9-0.5-1.5-1.2-2-2l-0.5,6.9c0,0.4-0.2,0.7-0.5,1c-0.3,0.2-0.7,0.4-1.2,0.4
		c-0.5,0-0.9-0.1-1.1-0.4c-0.3-0.3-0.4-0.6-0.4-1l1.5-18.3c0-0.5,0.2-0.9,0.5-1.1c0.3-0.3,0.7-0.4,1.2-0.4c0.5,0,0.8,0.1,1.1,0.4
		c0.3,0.3,0.4,0.6,0.3,1.1l-0.1,0.9c0.5-0.8,1.2-1.4,2-1.9c0.9-0.4,1.8-0.7,2.9-0.7C270.4,137,271.6,137.3,272.5,137.9z
		 M271.3,148.7c0.8-1,1.2-2.5,1.2-4.3c0-1.6-0.4-2.8-1.1-3.7c-0.7-0.9-1.8-1.3-3.1-1.3c-1.4,0-2.4,0.5-3.2,1.6s-1.2,2.5-1.2,4.3
		c0,1.6,0.4,2.8,1.1,3.7c0.7,0.8,1.8,1.3,3.1,1.3C269.4,150.3,270.5,149.7,271.3,148.7z"/>
	<path class="st0" d="M279,152.3c-0.3-0.2-0.4-0.6-0.4-1.1l1.6-19.3c0-0.5,0.2-0.9,0.5-1.1s0.7-0.4,1.2-0.4c0.4,0,0.8,0.1,1.1,0.4
		s0.4,0.6,0.4,1.1l-1.6,19.3c0,0.5-0.2,0.9-0.5,1.1c-0.3,0.2-0.7,0.4-1.2,0.4S279.3,152.6,279,152.3z"/>
	<path class="st0" d="M299.1,142.3c0,0.4,0,0.7,0,0.9l-0.6,8c0,0.5-0.2,0.8-0.5,1.1c-0.3,0.2-0.6,0.4-1.1,0.4
		c-0.5,0-0.8-0.1-1.1-0.4c-0.3-0.3-0.4-0.6-0.3-1.1l0.1-1.1c-0.4,0.9-1,1.5-1.8,1.9c-0.8,0.4-1.7,0.7-2.7,0.7
		c-1.5,0-2.8-0.4-3.7-1.2c-1-0.8-1.5-1.9-1.5-3.2c0-1.2,0.3-2.1,0.9-2.8s1.6-1.2,2.9-1.5c1.3-0.3,3.1-0.5,5.3-0.5h1.1l0.1-0.8
		c0.1-1.2-0.1-2-0.6-2.6c-0.5-0.5-1.3-0.8-2.4-0.8c-1.4,0-2.9,0.5-4.5,1.4c-0.2,0.1-0.4,0.2-0.6,0.2c-0.3,0-0.6-0.1-0.8-0.3
		c-0.2-0.2-0.3-0.5-0.3-0.8c0-0.5,0.3-0.9,0.8-1.2c0.7-0.5,1.6-0.9,2.7-1.2c1-0.3,2.1-0.4,3.1-0.4
		C297.2,137,299.1,138.8,299.1,142.3z M294.6,149.3c0.7-0.8,1.2-1.8,1.3-3l0.1-0.9H295c-1.5,0-2.7,0.1-3.6,0.2
		c-0.9,0.2-1.5,0.4-1.9,0.8c-0.4,0.4-0.6,0.9-0.6,1.6c0,0.7,0.3,1.3,0.8,1.7s1.2,0.6,2.1,0.6C292.9,150.4,293.8,150,294.6,149.3z"/>
	<path class="st0" d="M315.7,138.3c0.9,0.9,1.3,2.2,1.3,3.9c0,0.4,0,0.7,0,0.9l-0.6,8c0,0.5-0.2,0.8-0.5,1.1s-0.7,0.4-1.2,0.4
		s-0.8-0.1-1.1-0.4s-0.4-0.6-0.3-1.1l0.6-7.8c0-0.1,0-0.4,0-0.7c0-2.1-1-3.2-3-3.2c-1.3,0-2.3,0.4-3.1,1.2c-0.8,0.8-1.2,1.8-1.3,3.2
		l-0.6,7.3c0,0.5-0.2,0.8-0.5,1.1s-0.7,0.4-1.2,0.4s-0.8-0.1-1.1-0.4c-0.3-0.3-0.4-0.6-0.4-1.1l1-12.7c0-0.4,0.2-0.8,0.5-1
		c0.3-0.3,0.7-0.4,1.2-0.4c0.4,0,0.8,0.1,1,0.4c0.2,0.2,0.4,0.6,0.3,1l-0.1,1.1c0.5-0.8,1.2-1.4,2.1-1.9c0.9-0.4,1.9-0.7,3-0.7
		C313.6,137,314.9,137.4,315.7,138.3z"/>
	<path class="st0" d="M333.6,138.3c0.9,0.9,1.3,2.2,1.3,3.9c0,0.4,0,0.7,0,0.9l-0.6,8c0,0.5-0.2,0.8-0.5,1.1s-0.7,0.4-1.2,0.4
		s-0.8-0.1-1.1-0.4s-0.4-0.6-0.3-1.1l0.6-7.8c0-0.1,0-0.4,0-0.7c0-2.1-1-3.2-3-3.2c-1.3,0-2.3,0.4-3.1,1.2c-0.8,0.8-1.2,1.8-1.3,3.2
		l-0.6,7.3c0,0.5-0.2,0.8-0.5,1.1s-0.7,0.4-1.2,0.4s-0.8-0.1-1.1-0.4c-0.3-0.3-0.4-0.6-0.4-1.1l1-12.7c0-0.4,0.2-0.8,0.5-1
		c0.3-0.3,0.7-0.4,1.2-0.4c0.4,0,0.8,0.1,1,0.4c0.2,0.2,0.4,0.6,0.3,1l-0.1,1.1c0.5-0.8,1.2-1.4,2.1-1.9c0.9-0.4,1.9-0.7,3-0.7
		C331.5,137,332.8,137.4,333.6,138.3z"/>
	<path class="st0" d="M351.9,145.1c-0.2,0.2-0.5,0.3-0.9,0.3h-9.7c0,1.5,0.4,2.7,1.2,3.6c0.8,0.8,1.9,1.3,3.3,1.3s2.8-0.4,4-1.2
		c0.2-0.1,0.5-0.2,0.7-0.2c0.3,0,0.5,0.1,0.7,0.3c0.2,0.2,0.3,0.5,0.3,0.8c0,0.5-0.2,0.9-0.6,1.2c-0.6,0.5-1.3,0.8-2.3,1.1
		s-2,0.4-3,0.4c-1.5,0-2.8-0.3-3.9-0.9c-1.1-0.6-2-1.5-2.6-2.6c-0.6-1.1-0.9-2.4-0.9-3.9c0-1.6,0.3-3.1,0.9-4.4
		c0.6-1.3,1.5-2.3,2.7-3c1.1-0.7,2.5-1.1,3.9-1.1c2.1,0,3.7,0.6,4.8,1.8c1.1,1.2,1.7,3,1.7,5.4C352.2,144.6,352.1,144.9,351.9,145.1
		z M342.9,140.4c-0.7,0.7-1.2,1.8-1.4,3.3h8c0-1.4-0.3-2.5-0.9-3.3c-0.6-0.7-1.5-1.1-2.7-1.1C344.6,139.3,343.6,139.7,342.9,140.4z"
		/>
</g>
<g class="st1">
	<path class="st0" d="M370.3,130.8c0.3,0.3,0.4,0.6,0.4,1.1l-1.5,19.3c0,0.5-0.2,0.8-0.5,1.1c-0.3,0.3-0.7,0.4-1.2,0.4
		s-0.8-0.1-1.1-0.4c-0.3-0.3-0.4-0.6-0.3-1.1l0.1-1c-0.5,0.8-1.2,1.4-2,1.8c-0.9,0.4-1.8,0.7-2.9,0.7c-1.3,0-2.4-0.3-3.4-0.9
		c-1-0.6-1.7-1.4-2.3-2.5c-0.5-1.1-0.8-2.4-0.8-3.9c0-1.7,0.3-3.2,0.9-4.4c0.6-1.3,1.4-2.3,2.5-3c1.1-0.7,2.3-1.1,3.7-1.1
		c1.1,0,2.1,0.2,3,0.7c0.9,0.5,1.5,1.1,2,2l0.6-7.9c0-0.4,0.2-0.8,0.5-1c0.3-0.2,0.7-0.4,1.2-0.4C369.6,130.4,370,130.6,370.3,130.8
		z M365.4,148.7c0.8-1,1.2-2.5,1.2-4.3c0-1.6-0.4-2.8-1.1-3.7c-0.7-0.8-1.8-1.3-3.1-1.3c-1.4,0-2.5,0.5-3.3,1.6
		c-0.8,1-1.2,2.5-1.2,4.3c0,1.6,0.4,2.8,1.1,3.7c0.7,0.9,1.8,1.3,3.1,1.3C363.5,150.3,364.6,149.7,365.4,148.7z"/>
</g>
<g class="st1">
	<path class="st0" d="M373,152.1c-0.4-0.4-0.6-0.8-0.6-1.4c0-0.6,0.2-1.1,0.6-1.4c0.4-0.4,0.9-0.6,1.4-0.6c0.6,0,1,0.2,1.4,0.6
		s0.6,0.9,0.6,1.4c0,0.6-0.2,1.1-0.6,1.4s-0.8,0.6-1.4,0.6C373.9,152.7,373.4,152.5,373,152.1z"/>
</g>
</svg>
