<?xml version="1.0" encoding="utf-8"?>
<!-- Generator: Adobe Illustrator 21.0.0, SVG Export Plug-In . SVG Version: 6.00 Build 0)  -->
<svg version="1.1" id="Layer_1" xmlns="http://www.w3.org/2000/svg" xmlns:xlink="http://www.w3.org/1999/xlink" x="0px" y="0px"
	 width="169.8px" height="39.7px" viewBox="0 0 169.8 39.7" style="enable-background:new 0 0 169.8 39.7;" xml:space="preserve">
<style type="text/css">
	.st0{fill:#FFFFFF;}
	.st1{clip-path:url(#SVGID_2_);fill:#FFFFFF;}
	.st2{clip-path:url(#SVGID_4_);fill:#FFFFFF;}
</style>
<path class="st0" d="M19.8,14.8l5.8,11.7H14L19.8,14.8z M19.8,0L0,39.7h7.4l3.4-6.6H29l3.3,6.6h7.4L19.8,0z"/>
<g>
	<defs>
		<rect id="SVGID_1_" y="0" width="169.8" height="39.7"/>
	</defs>
	<clipPath id="SVGID_2_">
		<use xlink:href="#SVGID_1_"  style="overflow:visible;"/>
	</clipPath>
	<path class="st1" d="M60,0c2.7,0,5.3,0.5,7.7,1.5c2.4,1,4.5,2.5,6.3,4.3l-4.7,4.7c-2.6-2.6-5.7-3.9-9.3-3.9c-3.7,0-6.8,1.3-9.4,3.9
		c-2.6,2.6-3.9,5.7-3.9,9.3c0,3.6,1.3,6.7,3.9,9.4c2.6,2.6,5.7,3.8,9.4,3.8c3.6,0,6.7-1.3,9.3-3.8l4.7,4.6c-1.8,1.8-3.9,3.3-6.3,4.3
		c-2.4,1-4.9,1.5-7.7,1.5c-5.5,0-10.2-1.9-14.1-5.8c-3.9-3.8-5.8-8.5-5.8-14c0-5.4,1.9-10.1,5.8-14C49.8,1.9,54.5,0,60,0"/>
</g>
<polygon class="st0" points="78.8,0 78.8,6.6 92.1,6.6 92.1,39.7 98.7,39.7 98.7,6.6 111.9,6.6 111.9,0 "/>
<rect x="116.6" y="0" class="st0" width="6.6" height="39.7"/>
<path class="st0" d="M150,14.8l5.8,11.7h-11.7L150,14.8z M150,0l-19.8,39.7h7.4l3.4-6.6h18.2l3.3,6.6h7.4L150,0z"/>
<g>
	<defs>
		<rect id="SVGID_3_" y="0" width="169.8" height="39.7"/>
	</defs>
	<clipPath id="SVGID_4_">
		<use xlink:href="#SVGID_3_"  style="overflow:visible;"/>
	</clipPath>
	<path class="st2" d="M66.4,23.7c-1.3,2.3-3.8,3.8-6.7,3.8c-4.2,0-7.7-3.4-7.7-7.7c0-4.2,3.4-7.7,7.7-7.7c2.8,0,5.3,1.5,6.6,3.8
		l2.2-1.3c-1.8-3.1-5.1-5.1-8.9-5.1c-5.7,0-10.3,4.6-10.3,10.3c0,5.7,4.6,10.3,10.3,10.3c3.7,0,7-2,8.8-5L66.4,23.7z"/>
</g>
</svg>
