<svg xmlns="http://www.w3.org/2000/svg" width="83" height="97" viewBox="0 0 83 97">
  <defs>
    <style>
      .cls-1 {
        fill: #fff;
        fill-rule: evenodd;
      }
    </style>
  </defs>
  <path id="Forma_1" data-name="Forma 1" class="cls-1" d="M69.611,43.663l-0.448-.105,0.313-.338a3.185,3.185,0,0,0-.151-4.457L68.3,37.8a3.1,3.1,0,0,0-4.409.153l-3.1,3.361A25.615,25.615,0,0,0,53.05,34.07a9.343,9.343,0,0,0,3.064-.976h7a5.144,5.144,0,0,0,0-10.288H55.487a8.112,8.112,0,0,0-3.515-.679,0.636,0.636,0,0,1-.589-0.445,18.476,18.476,0,0,0-.7-1.77l1.171-1.185a5.115,5.115,0,1,0-7.2-7.272l-1.372,1.387a9.194,9.194,0,0,0-7.669,1.176,0.52,0.52,0,0,1-.674-0.171,7.28,7.28,0,0,0-2.385-2.284c-1.5-.769-3.728-0.05-4.832.708-1.009.694-1.029,2.2-.749,4.239a14.067,14.067,0,0,0,.575,2.246c0.145,0.461.359,1.142,0.445,1.595L28,20.641c0,0.085,0,.133,0,0.144a1.2,1.2,0,0,1-.109.118,1.171,1.171,0,0,1-.127.127c-0.048.041-.111,0.077-0.168,0.116s-0.118.083-.19,0.123-0.144.071-.217,0.105-0.148.075-.23,0.109-0.181.067-.274,0.1-0.156.061-.242,0.086c-0.108.033-.224,0.062-0.337,0.091-0.075.019-.148,0.042-0.224,0.06-0.132.03-.266,0.051-0.4,0.073-0.061.01-.122,0.025-0.184,0.034-0.15.02-.3,0.032-0.455,0.042-0.042,0-.085.01-0.126,0.012a4.9,4.9,0,0,1-.565-0.006c-0.291-.018-0.571-0.028-0.842-0.026l-6.032-6.1a3.173,3.173,0,0,0-4.411,0l-0.988,1a3.181,3.181,0,0,0,0,4.459l6.141,6.207c-0.008.132-.014,0.267-0.018,0.406-0.093,4.022-.188,8.182-1.514,11.7-0.243.645-.471,1.309-0.689,1.993-0.186.57-.35,1.136-0.508,1.7-0.018.065-.038,0.122-0.056,0.187l-0.111.4c-0.048.183-.107,0.368-0.153,0.55L14.653,45.62l0.07-.017c-2.278,10.47.289,19.826,7.708,27.874C30.8,82.556,41.724,87,55.716,87q2.423,0,4.971-.177C65.3,86.5,68.108,83.5,68.194,78.8a74.562,74.562,0,0,0-.668-10.952v0c-0.2-1.538-.373-3.091-0.544-4.647a84.036,84.036,0,0,0-2.073-12.722l2.97,0.7a3.066,3.066,0,0,0,2.354-.393,3.141,3.141,0,0,0,1.389-1.963l0.317-1.373A3.156,3.156,0,0,0,69.611,43.663ZM54.215,25.38h4.523a5.028,5.028,0,0,0,0,5.143H54.215A2.572,2.572,0,0,1,54.215,25.38Zm11.448,2.571a2.544,2.544,0,1,1-2.544-2.571A2.561,2.561,0,0,1,65.663,27.951ZM13.68,19.49a0.565,0.565,0,0,1-.131-0.213,0.583,0.583,0,0,1-.038-0.2h0a0.59,0.59,0,0,1,.038-0.2,0.572,0.572,0,0,1,.131-0.211l0.988-1a0.568,0.568,0,0,1,.81,0l6.829,6.9,0.574-.038a8.02,8.02,0,0,1,1.113.006c0.215,0.013.448,0.015,0.693,0.007,0.146,0,.3-0.02.458-0.033,0.106-.01.206-0.015,0.316-0.028,0.159-.019.321-0.047,0.483-0.075,0.116-.02.229-0.037,0.346-0.061,0.154-.031.305-0.073,0.459-0.112,0.13-.034.259-0.066,0.388-0.106s0.281-.093.421-0.144,0.275-.1.41-0.16,0.251-.113.374-0.173c0.139-.068.272-0.141,0.4-0.219q0.166-.1.32-0.206c0.127-.088.245-0.181,0.361-0.279,0.093-.078.182-0.155,0.266-0.24,0.038-.039.085-0.071,0.122-0.11,2.136,1.753,3.937,4.288,2.844,7.5-1.238,3.637-7.824,9.39-14.266,11.8,0.155-.453.3-0.9,0.474-1.366,1.481-3.934,1.586-8.514,1.68-12.559,0.006-.3.031-0.567,0.056-0.834l0.055-.6Zm50.776,44c0.173,1.573.346,3.144,0.551,4.7a71.632,71.632,0,0,1,.646,10.568c-0.061,3.321-1.885,5.277-5.138,5.5-15.6,1.09-27.439-3.013-36.222-12.535C17.1,63.916,14.85,55.1,17.483,44.9c7.282-2.082,15.83-8.806,17.583-13.954C36.442,26.9,34.809,23,30.479,19.9a14.6,14.6,0,0,0-.506-1.923,12.5,12.5,0,0,1-.48-1.817,8.368,8.368,0,0,1-.114-1.9,3.13,3.13,0,0,1,2.024-.4,5.241,5.241,0,0,1,1.5,1.534,3.054,3.054,0,0,0,4.06.807,6.617,6.617,0,0,1,6.191-.683l0.776,0.309,2.521-2.55a2.526,2.526,0,0,1,3.6,0,2.6,2.6,0,0,1,0,3.636l-2.483,2.511,0.443,0.839a15.711,15.711,0,0,1,.965,2.256,3.236,3.236,0,0,0,1.595,1.848c-0.111.114-.2,0.248-0.3,0.373s-0.2.234-.291,0.364a4.687,4.687,0,0,0-.261.486c-0.066.128-.145,0.248-0.2,0.382a5.189,5.189,0,0,0-.19.614c-0.032.116-.08,0.223-0.1,0.342a5.031,5.031,0,0,0,.024,2.137c0.025,0.116.07,0.225,0.1,0.337a5,5,0,0,0,.244.69c0.057,0.125.126,0.239,0.192,0.358a5.338,5.338,0,0,0,.351.56c0.084,0.114.174,0.219,0.267,0.327a5.068,5.068,0,0,0,.45.456c0.06,0.053.106,0.12,0.168,0.17a2.229,2.229,0,0,0-1.046,1.533,2.262,2.262,0,0,0,1.1,2.385,23.431,23.431,0,0,1,7.7,6.983l0.331,0.518c0.036,0.053.067,0.11,0.1,0.164a25.514,25.514,0,0,1,2.637,5.591l0.229,0.675,0.006,0A72.641,72.641,0,0,1,64.456,63.487Zm5.008-16.622-0.317,1.373a0.575,0.575,0,0,1-.689.435l-4.438-1.045a0.178,0.178,0,0,1-.006-0.017A28.661,28.661,0,0,0,62.2,43.559L65.76,39.71a0.57,0.57,0,0,1,.4-0.185,0.609,0.609,0,0,1,.412.156l1.02,0.961a0.588,0.588,0,0,1,.027.822L64.3,45.054l4.73,1.113A0.585,0.585,0,0,1,69.464,46.865ZM58.6,66.746l-3.184,2.146a46.62,46.62,0,0,1-5.831-3.649h4.631a1.286,1.286,0,0,0,0-2.572H46.582c-0.028,0-.051.015-0.079,0.016a21.285,21.285,0,0,1-6.38-10.241,17.68,17.68,0,0,1-.494-5.416c0.015-.01.034-0.011,0.05-0.021,2.235-1.58,4.842-1.575,7.758.006a17.2,17.2,0,0,1,3.1,2.213,1.289,1.289,0,0,0-.141.582v5.144a1.272,1.272,0,1,0,2.544,0V51.661A31.422,31.422,0,0,1,55.074,54.4a1.261,1.261,0,0,0,1.77.32,1.3,1.3,0,0,0,.316-1.792,33.293,33.293,0,0,0-2.817-3.541l3.179-2.41a1.292,1.292,0,0,0,.254-1.8A1.26,1.26,0,0,0,56,44.923l-3.485,2.642a20.229,20.229,0,0,0-3.873-2.82c-3.035-1.646-5.955-1.91-8.567-.841a20.467,20.467,0,0,1,2.475-6.23,1.3,1.3,0,0,0-.336-1.786,1.262,1.262,0,0,0-1.766.334,22.47,22.47,0,0,0-2.92,16.212,1.238,1.238,0,0,0-.551.275c-5.629,5.106-5.833,14.228-.547,20.552l-0.02,3.544A1.278,1.278,0,0,0,37.671,78.1h0.008a1.278,1.278,0,0,0,1.272-1.278l0.014-2.579h2.53a1.286,1.286,0,0,0,0-2.573H38.441c-4.328-5.107-4.381-12.373-.172-16.637a25,25,0,0,0,7.04,10.032v6.605a1.272,1.272,0,1,0,2.544,0V67.152a48.916,48.916,0,0,0,6.36,4.013v3.077a1.272,1.272,0,1,0,2.544,0V71.073l3.25-2.191A1.293,1.293,0,0,0,60.36,67.1,1.262,1.262,0,0,0,58.6,66.746Z"/>
</svg>
