<?xml version="1.0" encoding="utf-8"?>
<!-- Generator: Adobe Illustrator 21.0.0, SVG Export Plug-In . SVG Version: 6.00 Build 0)  -->
<svg version="1.1" id="Layer_1" xmlns="http://www.w3.org/2000/svg" xmlns:xlink="http://www.w3.org/1999/xlink" x="0px" y="0px"
	 width="120px" height="49px" viewBox="0 0 120 49" style="enable-background:new 0 0 120 49;" xml:space="preserve">
<style type="text/css">
	.st0{fill:#231F20;}
</style>
<g>
	<g>
		<path class="st0" d="M26.7,39.7c-2.8,2.6-6.5,3.9-11.3,3.9c-2.4,0-4.6-0.4-6.5-1.1c-1.9-0.7-3.5-1.7-4.9-3c-1.3-1.3-2.3-2.9-3-4.9
			C0.4,32.7,0,30.5,0,28.1c0-2.4,0.4-4.6,1.1-6.5c0.7-1.9,1.7-3.5,3-4.9c1.3-1.3,3-2.3,4.9-3.1c1.9-0.7,4.1-1,6.5-1
			c4.1,0,7.4,1,10,3l-1.7,2.3c-2.1-1.6-4.9-2.4-8.3-2.4c-4.1,0-7.3,1.1-9.4,3.2c-2.2,2.2-3.2,5.3-3.2,9.4c0,4.1,1.1,7.3,3.2,9.4
			c2.1,2.2,5.3,3.2,9.4,3.2c2,0,3.7-0.3,5.3-0.8c1.6-0.5,2.9-1.4,4-2.4L26.7,39.7"/>
		<rect x="33.5" y="11.7" class="st0" width="2.8" height="31.6"/>
		<path class="st0" d="M53.9,21.3c3.5,0,6.3,1,8.2,2.9c2,2,2.9,4.7,2.9,8.2v4.9c0,0.5-0.1,1-0.3,1.8c-0.2,0.7-0.7,1.4-1.5,2.1
			c-0.8,0.7-1.9,1.2-3.4,1.7c-1.5,0.5-3.4,0.7-6,0.7s-4.5-0.2-6-0.7c-1.5-0.5-2.6-1-3.4-1.7c-0.8-0.7-1.3-1.4-1.5-2.1
			c-0.2-0.7-0.3-1.3-0.3-1.8c0-1.6,0.3-3,0.8-3.9c0.5-1,1.2-1.7,2.1-2.1c0.9-0.5,1.9-0.8,3.1-0.9c1.2-0.1,2.4-0.2,3.8-0.2H62
			c-0.4-2-1.3-3.4-2.6-4.5c-1.4-1-3.2-1.6-5.5-1.6c-2.3,0-4.2,0.6-5.7,1.7l-1.7-2.2C48.4,22,50.9,21.3,53.9,21.3 M62.2,33h-8.3
			c-1.8,0-3.3,0-4.4,0.1c-1.1,0.1-1.9,0.3-2.5,0.6c-0.6,0.3-1,0.7-1.1,1.3c-0.2,0.6-0.3,1.3-0.3,2.3c0,0.6,0.2,1.2,0.7,1.6
			c0.5,0.4,1.1,0.8,1.9,1.1c0.8,0.3,1.7,0.5,2.7,0.6c1,0.1,2,0.2,3,0.2c1,0,2-0.1,3-0.2c1-0.1,1.9-0.3,2.7-0.6
			c0.8-0.3,1.4-0.6,1.9-1.1c0.5-0.4,0.7-1,0.7-1.6V33z"/>
		<path class="st0" d="M74.5,24.3c1.8-2,4.3-2.9,7.6-2.9v2.8c-2.4,0-4.3,0.7-5.6,2.1c-1.3,1.4-1.9,3.5-1.9,6.2v10.9h-2.8V32.5
			C71.8,29,72.7,26.2,74.5,24.3"/>
		<rect x="88.7" y="21.7" class="st0" width="2.8" height="21.6"/>
		<path class="st0" d="M90.1,5.4c-4,0-7.2,3.3-7.2,7.3c0,4,3.2,7.3,7.2,7.3c4,0,7.2-3.3,7.2-7.3C97.3,8.7,94.1,5.4,90.1,5.4
			 M90.1,18c-2.9,0-5.2-2.4-5.2-5.3c0-2.9,2.3-5.3,5.2-5.3c2.9,0,5.2,2.4,5.2,5.3C95.4,15.6,93,18,90.1,18"/>
		<path class="st0" d="M86,12.7c-0.2-0.5-0.2-1.2,0-1.7c0.1-0.6,0.5-1.1,0.9-1.5c0.4-0.4,0.9-0.8,1.5-0.9c0.6-0.2,1.2-0.2,1.7,0
			c-1.1,0.4-1.9,0.8-2.6,1.5C86.8,10.8,86.4,11.6,86,12.7"/>
		<path class="st0" d="M108.9,21.3c3.5,0,6.3,1,8.2,2.9c1.9,2,2.9,4.7,2.9,8.2v4.9c0,0.5-0.1,1-0.3,1.8c-0.2,0.7-0.7,1.4-1.5,2.1
			c-0.8,0.7-1.9,1.2-3.4,1.7c-1.5,0.5-3.5,0.7-6,0.7c-2.5,0-4.5-0.2-6-0.7c-1.5-0.5-2.6-1-3.4-1.7c-0.8-0.7-1.3-1.4-1.5-2.1
			c-0.2-0.7-0.3-1.3-0.3-1.8c0-1.6,0.3-3,0.8-3.9c0.5-1,1.2-1.7,2.1-2.1c0.9-0.5,1.9-0.8,3.1-0.9c1.2-0.1,2.4-0.2,3.8-0.2h9.5
			c-0.4-2-1.2-3.4-2.6-4.5c-1.3-1-3.2-1.6-5.5-1.6c-2.3,0-4.2,0.6-5.6,1.7l-1.8-2.2C103.4,22,105.9,21.3,108.9,21.3 M117.2,33h-8.3
			c-1.8,0-3.3,0-4.4,0.1c-1.1,0.1-1.9,0.3-2.5,0.6c-0.6,0.3-1,0.7-1.1,1.3c-0.2,0.6-0.3,1.3-0.3,2.3c0,0.6,0.2,1.2,0.7,1.6
			c0.5,0.4,1.1,0.8,1.9,1.1c0.8,0.3,1.7,0.5,2.7,0.6c1,0.1,2,0.2,3,0.2c1,0,2-0.1,3-0.2c1-0.1,1.9-0.3,2.7-0.6
			c0.8-0.3,1.4-0.6,1.9-1.1c0.5-0.4,0.7-1,0.7-1.6V33z"/>
	</g>
</g>
</svg>
