<svg id="noun_1759579_cc" xmlns="http://www.w3.org/2000/svg" viewBox="0 0 31.28 21.385">
  <g id="Group_48" data-name="Group 48" transform="translate(0)">
    <path id="Path_37" data-name="Path 37" d="M14,1010.008v7.129c0,.339.414.648.869.648H44.411c.455,0,.869-.309.869-.648v-7.129c0-.339-.414-.648-.869-.648H39.216c-.459,0-.881.306-.881.648s.422.653.881.648h4.326v5.832h-27.8v-5.832h4.326c.459,0,.881-.305.881-.648s-.422-.653-.881-.648H14.869C14.394,1009.36,14,1009.7,14,1010.008Z" transform="translate(-14 -996.4)"/>
    <path id="Path_38" data-name="Path 38" d="M39.254,969.362a1.212,1.212,0,0,0-.6.183l-7.386,5.184a.541.541,0,0,0-.034.916,1.127,1.127,0,0,0,1.229.025l5.919-4.162v14.054c0,.358.389.648.869.648s.869-.29.869-.648V971.509l5.919,4.162a1.148,1.148,0,0,0,1.229-.025.541.541,0,0,0-.034-.916l-7.386-5.184a.925.925,0,0,0-.6-.183Z" transform="translate(-23.615 -969.362)"/>
  </g>
</svg>
