<svg xmlns="http://www.w3.org/2000/svg" xmlns:xlink="http://www.w3.org/1999/xlink" viewBox="0 0 22 27.5" version="1.1" x="0px" y="0px"><title>Edit 717</title><desc>Created with Sketch.</desc><g stroke="none" stroke-width="1" fill="none" fill-rule="evenodd"><g fill="#000000" fill-rule="nonzero"><path d="M20.9386429,10.12861 C20.4557809,10.12861 20.065654,10.5187369 20.065654,11.0015989 L20.065654,19.0407715 C20.065654,19.6067753 19.6051764,20.0672529 19.0391726,20.0672529 L2.96082741,20.0672529 C2.39482359,20.0672529 1.93434594,19.6067753 1.93434597,19.0407715 L1.93434597,2.95922853 C1.93434597,2.39322472 2.39482362,1.93274706 2.96082741,1.93274706 L8.05166384,1.93274706 C8.53452584,1.93274706 8.92465275,1.54262016 8.92465275,1.05975816 C8.92465275,0.576896156 8.53452584,0.18676925 8.05166384,0.18676925 L2.96082741,0.18676925 C1.43549512,0.18676925 0.191565875,1.42750075 0.191565906,2.95603078 L0.191565906,19.0343759 C0.191565906,20.5597082 1.43229741,21.8036375 2.96082741,21.8036375 L19.0391726,21.8036375 C20.5645049,21.8036375 21.8084341,20.562906 21.8084341,19.0343759 L21.8084341,10.9984011 C21.8084341,10.5187369 21.4183072,10.12861 20.9386429,10.12861 Z M7.17867494,10.4675727 C7.17227941,10.4739682 7.16908166,10.4803637 7.16268612,10.4867593 L6.67982412,10.9696212 L6.67023084,10.9792146 C6.61267112,11.0335765 6.56470472,11.0975317 6.52952934,11.1710802 C6.49115622,11.2478265 6.46557412,11.321375 6.44958528,11.3981213 L5.50624562,14.8549016 C5.36874187,15.3217747 5.48386128,15.7854502 5.82282403,16.1212152 C6.07224944,16.3738383 6.39522334,16.5049465 6.75337262,16.5049465 C6.86209653,16.5049465 6.97401819,16.4921555 7.09873087,16.4601779 L10.5299291,15.520036 C10.6610373,15.5008494 10.7921455,15.4496852 10.9072649,15.3729389 C10.945638,15.3473568 10.9808134,15.318577 11.012791,15.2865994 L20.3374638,5.96192666 C20.7435795,5.55581094 20.9610273,5.018587 20.9610273,4.41421006 C20.9610273,3.73308684 20.7116019,3.14150097 20.2223443,2.64904566 L19.3429599,1.75047466 C18.8505047,1.25801937 18.255721,1.00859397 17.5745978,1.00859397 C16.9670231,1.00859397 16.4266014,1.22923953 16.0044968,1.65134406 L7.1978615,10.4483861 L7.17867494,10.4675727 Z M6.89407416,15.0659538 L7.73188769,11.9993005 L9.97032078,14.2217448 L6.89407416,15.0659538 Z M15.1538923,4.46537425 L17.5106426,6.80933347 L11.0191866,13.3007894 L8.66243628,10.9568302 L15.1538923,4.46537425 Z M17.5745978,2.39322475 C17.8815829,2.39322475 18.1278105,2.49875087 18.3516538,2.72259419 L19.2278405,3.61796744 L19.234236,3.62436294 C19.4612771,3.851404 19.5668032,4.10082941 19.5668032,4.40781453 C19.5668032,4.64764666 19.4996502,4.82352353 19.3525532,4.97062056 L18.4987509,5.82442291 L16.1388028,3.48046369 L16.9894074,2.62985909 C17.1524932,2.46677325 17.3315679,2.39322475 17.5745978,2.39322475 Z"/></g></g><text x="0" y="37" fill="#000000" font-size="5px" font-weight="bold" font-family="'Helvetica Neue', Helvetica, Arial-Unicode, Arial, Sans-serif">Created by iconfun</text><text x="0" y="42" fill="#000000" font-size="5px" font-weight="bold" font-family="'Helvetica Neue', Helvetica, Arial-Unicode, Arial, Sans-serif">from the Noun Project</text></svg>