<svg id="_2013" data-name="2013" xmlns="http://www.w3.org/2000/svg" width="394" height="363" viewBox="0 0 394 363">
  <defs>
    <style>
      .cls-1 {
        fill: #8fe5ed;
      }

      .cls-2 {
        fill: #a2eeeb;
      }

      .cls-3 {
        fill: #9cf2de;
      }

      .cls-4 {
        fill: #555;
        fill-rule: evenodd;
      }
    </style>
  </defs>
  <rect id="Background" class="cls-1" y="234" width="165" height="129"/>
  <rect id="Background-2" data-name="Background" class="cls-2" y="121.031" width="165" height="48.125"/>
  <rect id="Background-3" data-name="Background" class="cls-2" y="176" width="165" height="51"/>
  <rect id="Background-4" data-name="Background" class="cls-2" y="62.031" width="165" height="50.094"/>
  <rect id="Background-5" data-name="Background" class="cls-3" y="38.25" width="165" height="16.063"/>
  <rect id="Background-6" data-name="Background" class="cls-3" y="9" width="165" height="3.188"/>
  <rect id="Background-7" data-name="Background" class="cls-3" y="18" width="165" height="14.313"/>
  <path id="TP53_STK11_CDH1_PTEN-_1_" data-name="TP53/STK11/CDH1/PTEN- 1%" class="cls-4" d="M177.915,0.488v1.3h3.72v10.16h1.552V1.792h3.7v-1.3h-8.976Zm13.712,7.176a5.756,5.756,0,0,0,1.832-.268,3.812,3.812,0,0,0,1.34-.748,3.153,3.153,0,0,0,.82-1.144,3.725,3.725,0,0,0,.28-1.464,3.95,3.95,0,0,0-.26-1.464,2.883,2.883,0,0,0-.788-1.12A3.635,3.635,0,0,0,193.519.74a6.352,6.352,0,0,0-1.892-.252h-3.384V11.952h1.544V7.664h1.84Zm-1.84-5.952h1.84a2.951,2.951,0,0,1,2.044.616,2.2,2.2,0,0,1,.676,1.712,2.59,2.59,0,0,1-.176.968,2.043,2.043,0,0,1-.52.756,2.4,2.4,0,0,1-.852.492,3.574,3.574,0,0,1-1.172.176h-1.84V1.712Zm14.728-1.224h-5.432l-0.928,5.36,0.9,0.264a6.28,6.28,0,0,1,.96-0.232,5.84,5.84,0,0,1,.9-0.072,3.294,3.294,0,0,1,1.1.168,2.166,2.166,0,0,1,.788.472,1.9,1.9,0,0,1,.472.736,2.836,2.836,0,0,1,.156.968,3.171,3.171,0,0,1-.184,1.112,2.448,2.448,0,0,1-.524.852,2.3,2.3,0,0,1-.82.548,2.886,2.886,0,0,1-1.08.192,3.05,3.05,0,0,1-.924-0.124,4.154,4.154,0,0,1-.676-0.276q-0.288-.152-0.492-0.276a0.715,0.715,0,0,0-.356-0.124,0.446,0.446,0,0,0-.384.208l-0.432.608a4.321,4.321,0,0,0,.608.456,5.1,5.1,0,0,0,.744.384,4.9,4.9,0,0,0,.864.268,4.807,4.807,0,0,0,2.592-.18,3.838,3.838,0,0,0,1.308-.8,3.767,3.767,0,0,0,.876-1.26,4.1,4.1,0,0,0,.32-1.648,3.911,3.911,0,0,0-.236-1.376,3.029,3.029,0,0,0-.7-1.1,3.254,3.254,0,0,0-1.148-.728,4.371,4.371,0,0,0-1.58-.264,7.937,7.937,0,0,0-1.656.192l0.528-3.008h3.6a0.884,0.884,0,0,0,.648-0.2,0.685,0.685,0,0,0,.192-0.5V0.488Zm4.764,0.084a3.466,3.466,0,0,0-1.128.62,3.3,3.3,0,0,0-.812,1.012,4.233,4.233,0,0,0-.432,1.388l0.744,0.126,0.1,0.012q0.043,0,.084,0a0.5,0.5,0,0,0,.328-0.1,0.641,0.641,0,0,0,.192-0.336,2.545,2.545,0,0,1,.288-0.683,2.074,2.074,0,0,1,.476-0.543,2.173,2.173,0,0,1,.652-0.356,2.42,2.42,0,0,1,.8-0.128,2.6,2.6,0,0,1,.8.12,1.788,1.788,0,0,1,.644.36,1.665,1.665,0,0,1,.428.608,2.2,2.2,0,0,1,.156.864,2.161,2.161,0,0,1-.148.816,1.542,1.542,0,0,1-.476.632,2.426,2.426,0,0,1-.844.416,4.444,4.444,0,0,1-1.244.152v1.04a5.582,5.582,0,0,1,1.468.16,2.311,2.311,0,0,1,.9.44,1.463,1.463,0,0,1,.448.664,2.739,2.739,0,0,1,.124.848,2.06,2.06,0,0,1-.152.76,2.122,2.122,0,0,1-.452.7,2.3,2.3,0,0,1-.752.508,2.622,2.622,0,0,1-1.052.2,2.515,2.515,0,0,1-1-.176,2.331,2.331,0,0,1-.676-0.432,2.233,2.233,0,0,1-.432-0.548c-0.107-.195-0.2-0.369-0.272-0.524-0.011-.027-0.021-0.052-0.032-0.076s-0.021-.047-0.032-0.068a0.433,0.433,0,0,0-.188-0.212A0.582,0.582,0,0,0,207.5,8.76a0.847,0.847,0,0,0-.336.072l-0.608.256a7.064,7.064,0,0,0,.488,1.188,3.336,3.336,0,0,0,.736.948,3.237,3.237,0,0,0,1.1.628,4.72,4.72,0,0,0,1.56.228,4.567,4.567,0,0,0,1.484-.236,3.673,3.673,0,0,0,1.212-.68,3.2,3.2,0,0,0,.82-1.076,3.28,3.28,0,0,0,.3-1.424,2.681,2.681,0,0,0-.564-1.744A3.11,3.11,0,0,0,212,5.928a3.492,3.492,0,0,0,.824-0.36,2.39,2.39,0,0,0,.628-0.548,2.362,2.362,0,0,0,.4-0.752A3.13,3.13,0,0,0,214,3.3a2.884,2.884,0,0,0-.248-1.208,2.678,2.678,0,0,0-.692-0.928A3.129,3.129,0,0,0,212,.568,4.181,4.181,0,0,0,210.651.36,4.314,4.314,0,0,0,209.279.572Zm11.476-.4h-0.6A0.769,0.769,0,0,0,219.7.3a0.861,0.861,0,0,0-.3.392L214.6,12.672h0.6a0.849,0.849,0,0,0,.452-0.136,0.833,0.833,0,0,0,.332-0.416Zm7.576,1.376a4.039,4.039,0,0,0-1.384-.88A4.853,4.853,0,0,0,225.2.36a4.057,4.057,0,0,0-1.516.264,3.32,3.32,0,0,0-1.108.7,3.056,3.056,0,0,0-.92,2.184,3.068,3.068,0,0,0,.236,1.276,2.568,2.568,0,0,0,.62.86,3.275,3.275,0,0,0,.876.56,10.144,10.144,0,0,0,1.008.38l1.008,0.32a4.339,4.339,0,0,1,.876.38,1.954,1.954,0,0,1,.62.556,1.439,1.439,0,0,1,.236.852,2.2,2.2,0,0,1-.16.856,1.858,1.858,0,0,1-.46.66,2.088,2.088,0,0,1-.732.428,2.954,2.954,0,0,1-.984.152,3.094,3.094,0,0,1-1.124-.18,4.115,4.115,0,0,1-.784-0.4,6.4,6.4,0,0,1-.54-0.4,0.637,0.637,0,0,0-.384-0.18,0.364,0.364,0,0,0-.2.06,0.6,0.6,0,0,0-.156.148l-0.448.736a4.75,4.75,0,0,0,1.564,1.092,4.972,4.972,0,0,0,2.028.4,4.441,4.441,0,0,0,1.628-.28,3.5,3.5,0,0,0,1.208-.768,3.259,3.259,0,0,0,.748-1.148,3.863,3.863,0,0,0,.256-1.412,2.747,2.747,0,0,0-.236-1.2,2.526,2.526,0,0,0-.624-0.824,3.554,3.554,0,0,0-.88-0.556q-0.492-.22-1.008-0.4t-1.008-.34a4.782,4.782,0,0,1-.88-0.388,2.023,2.023,0,0,1-.624-0.54,1.3,1.3,0,0,1-.236-0.8,1.784,1.784,0,0,1,.136-0.7,1.56,1.56,0,0,1,.4-0.564,1.957,1.957,0,0,1,.668-0.38,2.782,2.782,0,0,1,.92-0.14,2.859,2.859,0,0,1,.94.136,3.7,3.7,0,0,1,.664.3,5.052,5.052,0,0,1,.456.3,0.553,0.553,0,0,0,.316.136,0.338,0.338,0,0,0,.208-0.06,0.625,0.625,0,0,0,.152-0.18Zm1.584-1.056v1.3h3.72v10.16h1.552V1.792h3.7v-1.3h-8.976Zm11.872,0h-1.544V11.952h1.544V6.7h0.7a2.224,2.224,0,0,1,.324.02,0.822,0.822,0,0,1,.232.068,0.749,0.749,0,0,1,.176.116c0.051,0.045.1,0.1,0.164,0.164l3.96,4.552c0.043,0.048.085,0.093,0.128,0.136a0.574,0.574,0,0,0,.14.1,0.752,0.752,0,0,0,.18.064,1.159,1.159,0,0,0,.256.024H249.4l-4.56-5.432a3.281,3.281,0,0,0-.352-0.36,1.126,1.126,0,0,0-.392-0.216,1.41,1.41,0,0,0,.316-0.208,3.735,3.735,0,0,0,.316-0.312l4.368-4.936h-1.32a0.918,0.918,0,0,0-.42.084,1.208,1.208,0,0,0-.34.284L243.2,5.176a0.946,0.946,0,0,1-.34.26,1.266,1.266,0,0,1-.484.076h-0.584V0.488Zm10.2,11.464h6.144V10.864h-2.256V0.464h-1.16l-3.408,2.952,0.448,0.616a0.393,0.393,0,0,0,.144.124,0.445,0.445,0,0,0,.216.052,0.457,0.457,0,0,0,.152-0.028,0.546,0.546,0,0,0,.16-0.092l2.048-1.752q-0.024.36-.024,0.712v7.816h-2.464v1.088Zm9,0h6.144V10.864h-2.256V0.464h-1.16l-3.408,2.952,0.448,0.616a0.393,0.393,0,0,0,.144.124,0.445,0.445,0,0,0,.216.052,0.457,0.457,0,0,0,.152-0.028,0.546,0.546,0,0,0,.16-0.092l2.048-1.752q-0.024.36-.024,0.712v7.816h-2.464v1.088ZM273.755,0.168h-0.6A0.769,0.769,0,0,0,272.7.3a0.861,0.861,0,0,0-.3.392L267.6,12.672h0.6a0.849,0.849,0,0,0,.452-0.136,0.833,0.833,0,0,0,.332-0.416ZM282.483,9.7a5.083,5.083,0,0,1-.6.468,3.186,3.186,0,0,1-.648.324,3.774,3.774,0,0,1-.756.188,6.37,6.37,0,0,1-.92.06,4.024,4.024,0,0,1-1.568-.3,3.545,3.545,0,0,1-1.26-.884,4.21,4.21,0,0,1-.84-1.42,5.538,5.538,0,0,1-.308-1.912,5.438,5.438,0,0,1,.308-1.88,4.09,4.09,0,0,1,.86-1.424,3.776,3.776,0,0,1,1.316-.9,4.365,4.365,0,0,1,1.684-.316,4.792,4.792,0,0,1,.9.076,4.242,4.242,0,0,1,.688.188,3.325,3.325,0,0,1,.512.24q0.216,0.128.376,0.24T282.5,2.636a0.4,0.4,0,0,0,.22.076,0.351,0.351,0,0,0,.208-0.052,0.542,0.542,0,0,0,.128-0.132l0.5-.712A5.223,5.223,0,0,0,279.755.36a6.2,6.2,0,0,0-2.34.428,5.282,5.282,0,0,0-1.82,1.2,5.424,5.424,0,0,0-1.18,1.856A6.5,6.5,0,0,0,274,6.224a6.926,6.926,0,0,0,.392,2.376,5.413,5.413,0,0,0,1.1,1.852,4.926,4.926,0,0,0,1.72,1.2,5.7,5.7,0,0,0,2.248.428,5.823,5.823,0,0,0,2.42-.456,4.9,4.9,0,0,0,1.708-1.272l-0.608-.664a0.322,0.322,0,0,0-.232-0.1,0.408,0.408,0,0,0-.264.12h0ZM295.2,3.88a5.24,5.24,0,0,0-1.152-1.812A5.112,5.112,0,0,0,292.259.9a6.2,6.2,0,0,0-2.3-.412h-4.288V11.952h4.288a6.2,6.2,0,0,0,2.3-.412,5.137,5.137,0,0,0,1.784-1.164A5.2,5.2,0,0,0,295.2,8.568a6.455,6.455,0,0,0,.408-2.344A6.456,6.456,0,0,0,295.2,3.88Zm-1.472,4.232a3.936,3.936,0,0,1-.816,1.4,3.5,3.5,0,0,1-1.28.876,4.421,4.421,0,0,1-1.672.3h-2.728V1.744h2.728a4.424,4.424,0,0,1,1.672.3,3.484,3.484,0,0,1,1.28.88,3.979,3.979,0,0,1,.816,1.408,5.754,5.754,0,0,1,.288,1.888A5.754,5.754,0,0,1,293.723,8.112Zm13.24-7.624H305.4V5.6h-6.176V0.488h-1.56V11.952h1.56V6.736H305.4v5.216h1.56V0.488Zm3.608,11.464h6.144V10.864h-2.256V0.464H313.3l-3.408,2.952,0.448,0.616a0.393,0.393,0,0,0,.144.124,0.445,0.445,0,0,0,.216.052,0.457,0.457,0,0,0,.152-0.028,0.546,0.546,0,0,0,.16-0.092l2.048-1.752q-0.024.36-.024,0.712v7.816h-2.464v1.088ZM323.339,0.168h-0.6a0.769,0.769,0,0,0-.456.136,0.861,0.861,0,0,0-.3.392l-4.808,11.976h0.6a0.849,0.849,0,0,0,.452-0.136,0.833,0.833,0,0,0,.332-0.416Zm4.872,7.5a5.756,5.756,0,0,0,1.832-.268,3.812,3.812,0,0,0,1.34-.748A3.153,3.153,0,0,0,332.2,5.5a3.725,3.725,0,0,0,.28-1.464,3.95,3.95,0,0,0-.26-1.464,2.883,2.883,0,0,0-.788-1.12A3.635,3.635,0,0,0,330.1.74a6.352,6.352,0,0,0-1.892-.252h-3.384V11.952h1.544V7.664h1.84Zm-1.84-5.952h1.84a2.951,2.951,0,0,1,2.044.616,2.2,2.2,0,0,1,.676,1.712,2.59,2.59,0,0,1-.176.968,2.043,2.043,0,0,1-.52.756,2.4,2.4,0,0,1-.852.492,3.574,3.574,0,0,1-1.172.176h-1.84V1.712ZM333.5,0.488v1.3h3.72v10.16h1.552V1.792h3.7v-1.3H333.5Zm10.168,0V11.952h7.064V10.688h-5.5V6.776h4.456V5.56h-4.456V1.752h5.5V0.488h-7.064Zm9.8,0h-0.8V11.952h1.36V3.784c0-.107,0-0.224-0.008-0.352S354.006,3.174,354,3.04l6.632,8.632a0.772,0.772,0,0,0,.244.216,0.665,0.665,0,0,0,.308.064h0.784V0.488H360.6v8.12c0,0.123,0,.249.008,0.38s0.016,0.265.032,0.4L354,0.752A0.79,0.79,0,0,0,353.775.54a0.7,0.7,0,0,0-.308-0.052h0ZM364.075,7.76h3.952V6.552h-3.952V7.76Zm10.5,4.192h6.144V10.864h-2.256V0.464H377.3l-3.408,2.952,0.448,0.616a0.393,0.393,0,0,0,.144.124,0.445,0.445,0,0,0,.216.052,0.457,0.457,0,0,0,.152-0.028,0.546,0.546,0,0,0,.16-0.092l2.048-1.752q-0.024.36-.024,0.712v7.816h-2.464v1.088Zm12.164-9.92a2.66,2.66,0,0,0-.536-0.9,2.252,2.252,0,0,0-.808-0.56,2.62,2.62,0,0,0-1-.192,2.581,2.581,0,0,0-1,.192,2.3,2.3,0,0,0-.8.56,2.582,2.582,0,0,0-.536.9,3.618,3.618,0,0,0-.192,1.224,3.531,3.531,0,0,0,.192,1.2,2.544,2.544,0,0,0,.536.9,2.322,2.322,0,0,0,.8.556,2.581,2.581,0,0,0,1,.192,2.506,2.506,0,0,0,.968-0.192,2.362,2.362,0,0,0,.812-0.556,2.706,2.706,0,0,0,.556-0.9,3.278,3.278,0,0,0,.208-1.2A3.543,3.543,0,0,0,386.735,2.032ZM385.707,4.14a1.632,1.632,0,0,1-.308.592,1.138,1.138,0,0,1-.456.328,1.6,1.6,0,0,1-1.112,0,1.106,1.106,0,0,1-.452-0.328,1.625,1.625,0,0,1-.3-0.592,3.14,3.14,0,0,1-.108-0.884,3.218,3.218,0,0,1,.108-0.9,1.709,1.709,0,0,1,.3-0.6,1.114,1.114,0,0,1,.452-0.34,1.538,1.538,0,0,1,1.112,0,1.146,1.146,0,0,1,.456.34,1.717,1.717,0,0,1,.308.6,3.1,3.1,0,0,1,.112.9A3.023,3.023,0,0,1,385.707,4.14Zm-3.1,7.812h1.056a0.524,0.524,0,0,0,.264-0.064,0.633,0.633,0,0,0,.192-0.168l8.376-11.232h-1.024a0.554,0.554,0,0,0-.308.076,0.912,0.912,0,0,0-.22.212ZM393.075,8.02a2.576,2.576,0,0,0-.536-0.908,2.3,2.3,0,0,0-.808-0.56,2.711,2.711,0,0,0-2,0,2.3,2.3,0,0,0-.8.56,2.576,2.576,0,0,0-.536.908,3.653,3.653,0,0,0-.192,1.228,3.5,3.5,0,0,0,.192,1.2,2.55,2.55,0,0,0,.536.892,2.321,2.321,0,0,0,.8.556,2.581,2.581,0,0,0,1,.192A2.479,2.479,0,0,0,391.7,11.9a2.365,2.365,0,0,0,.808-0.556,2.715,2.715,0,0,0,.556-0.892,3.247,3.247,0,0,0,.208-1.2A3.653,3.653,0,0,0,393.075,8.02Zm-1.024,2.108a1.635,1.635,0,0,1-.308.588,1.138,1.138,0,0,1-.456.328,1.6,1.6,0,0,1-1.112,0,1.106,1.106,0,0,1-.452-0.328,1.627,1.627,0,0,1-.3-0.588,3.1,3.1,0,0,1-.108-0.88,3.261,3.261,0,0,1,.108-0.9,1.665,1.665,0,0,1,.3-0.6,1.127,1.127,0,0,1,.452-0.336,1.538,1.538,0,0,1,1.112,0,1.16,1.16,0,0,1,.456.336,1.672,1.672,0,0,1,.308.6,3.139,3.139,0,0,1,.112.9A2.981,2.981,0,0,1,392.051,10.128Z"/>
  <path id="CHEK2_ATM_BRIP_PLB-_6_" data-name="CHEK2/ATM/BRIP/PLB- 6%" class="cls-4" d="M186.9,29.7a5.081,5.081,0,0,1-.6.468,3.186,3.186,0,0,1-.648.324,3.774,3.774,0,0,1-.756.188,6.37,6.37,0,0,1-.92.06,4.024,4.024,0,0,1-1.568-.3,3.545,3.545,0,0,1-1.26-.884,4.21,4.21,0,0,1-.84-1.42A5.538,5.538,0,0,1,180,26.224a5.439,5.439,0,0,1,.308-1.88,4.09,4.09,0,0,1,.86-1.424,3.777,3.777,0,0,1,1.316-.9,4.366,4.366,0,0,1,1.684-.316,4.794,4.794,0,0,1,.9.076,4.25,4.25,0,0,1,.688.188,3.335,3.335,0,0,1,.512.24q0.216,0.128.376,0.24t0.276,0.188a0.4,0.4,0,0,0,.22.076,0.351,0.351,0,0,0,.208-0.052,0.541,0.541,0,0,0,.128-0.132l0.5-.712a5.223,5.223,0,0,0-3.808-1.456,6.2,6.2,0,0,0-2.34.428,5.283,5.283,0,0,0-1.82,1.2,5.425,5.425,0,0,0-1.18,1.856,6.5,6.5,0,0,0-.42,2.376A6.926,6.926,0,0,0,178.8,28.6a5.413,5.413,0,0,0,1.1,1.852,4.926,4.926,0,0,0,1.72,1.2,5.7,5.7,0,0,0,2.248.428,5.823,5.823,0,0,0,2.42-.456A4.9,4.9,0,0,0,188,30.352l-0.608-.664a0.322,0.322,0,0,0-.232-0.1,0.408,0.408,0,0,0-.264.12h0Zm12.48-9.216h-1.56V25.6h-6.176V20.488h-1.56V31.952h1.56V26.736h6.176v5.216h1.56V20.488Zm2.7,0V31.952h7.064V30.688h-5.5V26.776H208.1V25.56h-4.456V21.752h5.5V20.488h-7.064Zm10.7,0h-1.544V31.952h1.544V26.7h0.7a2.231,2.231,0,0,1,.324.02,0.823,0.823,0,0,1,.232.068,0.75,0.75,0,0,1,.176.116c0.051,0.045.1,0.1,0.164,0.164l3.96,4.552c0.043,0.048.085,0.093,0.128,0.136a0.574,0.574,0,0,0,.14.1,0.752,0.752,0,0,0,.18.064,1.159,1.159,0,0,0,.256.024H220.4l-4.56-5.432a3.281,3.281,0,0,0-.352-0.36,1.126,1.126,0,0,0-.392-0.216,1.407,1.407,0,0,0,.316-0.208,3.72,3.72,0,0,0,.316-0.312l4.368-4.936h-1.32a0.918,0.918,0,0,0-.42.084,1.208,1.208,0,0,0-.34.284l-3.816,4.32a0.945,0.945,0,0,1-.34.26,1.265,1.265,0,0,1-.484.076h-0.584V20.488Zm11.34,0.084a3.466,3.466,0,0,0-1.128.62,3.3,3.3,0,0,0-.812,1.012,4.234,4.234,0,0,0-.432,1.388L222.5,23.72l0.1,0.012c0.029,0,.057,0,0.084,0a0.515,0.515,0,0,0,.336-0.1,0.641,0.641,0,0,0,.192-0.336,2.092,2.092,0,0,1,.276-0.688,2.138,2.138,0,0,1,1.132-.9,2.422,2.422,0,0,1,.8-0.128,2.568,2.568,0,0,1,.808.124,1.855,1.855,0,0,1,.656.372,1.712,1.712,0,0,1,.44.628,2.258,2.258,0,0,1,.16.884,3.055,3.055,0,0,1-.144.948,3.991,3.991,0,0,1-.412.876,6.493,6.493,0,0,1-.644.86q-0.376.428-.832,0.892l-3.672,3.688a0.829,0.829,0,0,0-.2.3,0.887,0.887,0,0,0-.06.312v0.488h7.648V31.088a0.475,0.475,0,0,0-.136-0.352,0.5,0.5,0,0,0-.368-0.136h-3.84a4.045,4.045,0,0,0-.632.052,5.977,5.977,0,0,0-.648.14l3.016-3.088q0.48-.488.908-0.956a7.724,7.724,0,0,0,.756-0.968,4.808,4.808,0,0,0,.52-1.044,3.533,3.533,0,0,0,.192-1.184,3.268,3.268,0,0,0-.264-1.344,2.929,2.929,0,0,0-.724-1,3.141,3.141,0,0,0-1.092-.628,4.178,4.178,0,0,0-1.36-.216A4.315,4.315,0,0,0,224.127,20.572Zm11.628-.4h-0.6a0.769,0.769,0,0,0-.456.136,0.861,0.861,0,0,0-.3.392L229.6,32.672h0.6a0.849,0.849,0,0,0,.452-0.136,0.833,0.833,0,0,0,.332-0.416Zm5.088,0.32h-1.576l-4.584,11.464h1.2a0.512,0.512,0,0,0,.336-0.112,0.619,0.619,0,0,0,.192-0.256l1.072-2.768h5.144l1.072,2.768a0.644,0.644,0,0,0,.192.264,0.515,0.515,0,0,0,.336.1h1.2Zm-1.128,2.552q0.079-.208.164-0.484t0.172-.6a8.774,8.774,0,0,0,.344,1.08l1.8,4.664h-4.28Zm5.056-2.552v1.3h3.72v10.16h1.552V21.792h3.7v-1.3h-8.976Zm15.808,7.32-3.96-7.056a0.459,0.459,0,0,0-.216-0.224,1,1,0,0,0-.32-0.04h-1.144V31.952h1.36V23.528q0-.168-0.012-0.368t-0.036-.408l4.016,7.192a0.617,0.617,0,0,0,.56.36h0.224a0.617,0.617,0,0,0,.56-0.36l3.928-7.168q-0.016.2-.024,0.392c0,0.128-.008.248-0.008,0.36v8.424h1.36V20.488h-1.144a1,1,0,0,0-.32.04,0.459,0.459,0,0,0-.216.224l-3.88,7.048c-0.075.139-.141,0.276-0.2,0.412s-0.115.279-.168,0.428c-0.053-.144-0.108-0.287-0.164-0.428a2.945,2.945,0,0,0-.2-0.4h0Zm14.032-7.64h-0.6a0.769,0.769,0,0,0-.456.136,0.861,0.861,0,0,0-.3.392l-4.808,11.976h0.6a0.849,0.849,0,0,0,.452-0.136,0.833,0.833,0,0,0,.332-0.416ZM280,31.952a5.674,5.674,0,0,0,1.708-.236,3.652,3.652,0,0,0,1.264-.668,2.849,2.849,0,0,0,.784-1.032,3.214,3.214,0,0,0,.268-1.328,2.368,2.368,0,0,0-.64-1.728,3.539,3.539,0,0,0-1.9-.9,3.733,3.733,0,0,0,.948-0.432,2.841,2.841,0,0,0,.672-0.6,2.371,2.371,0,0,0,.4-0.728,2.539,2.539,0,0,0,.132-0.816,3.182,3.182,0,0,0-.236-1.252,2.333,2.333,0,0,0-.728-0.94,3.53,3.53,0,0,0-1.256-.592,6.991,6.991,0,0,0-1.82-.208h-3.656V31.952H280Zm-0.032-5.224a2.949,2.949,0,0,1,1.9.516,1.72,1.72,0,0,1,.628,1.4,2.341,2.341,0,0,1-.144.836,1.662,1.662,0,0,1-.452.656,2.124,2.124,0,0,1-.784.428,3.765,3.765,0,0,1-1.14.152h-2.48V26.728h2.472Zm-2.472-5.016h2.1a3.073,3.073,0,0,1,1.888.472,1.758,1.758,0,0,1,.608,1.48,2.051,2.051,0,0,1-.152.8,1.557,1.557,0,0,1-.468.62,2.3,2.3,0,0,1-.8.4,3.978,3.978,0,0,1-1.136.144h-2.048V21.712Zm11.328,5.456a1.069,1.069,0,0,1,.48.084,0.867,0.867,0,0,1,.3.276l2.976,4.1a0.678,0.678,0,0,0,.624.328h1.376L291.227,27.4a1.637,1.637,0,0,0-.512-0.488,4.381,4.381,0,0,0,1.188-.448,3.334,3.334,0,0,0,.888-0.716,2.994,2.994,0,0,0,.556-0.948,3.3,3.3,0,0,0,.192-1.136,3.362,3.362,0,0,0-.248-1.316,2.544,2.544,0,0,0-.764-1,3.592,3.592,0,0,0-1.308-.636,7.084,7.084,0,0,0-1.88-.22H286.1V31.952h1.544V27.168h1.176Zm-1.176-5.456h1.7a3.268,3.268,0,0,1,2.012.52,1.826,1.826,0,0,1,.676,1.544,2.344,2.344,0,0,1-.176.92,1.92,1.92,0,0,1-.524.716,2.431,2.431,0,0,1-.864.464,3.953,3.953,0,0,1-1.2.164h-1.624V21.712Zm10.136-1.224h-1.552V31.952h1.552V20.488Zm6.7,7.176a5.754,5.754,0,0,0,1.832-.268,3.811,3.811,0,0,0,1.34-.748,3.153,3.153,0,0,0,.82-1.144,3.724,3.724,0,0,0,.28-1.464,3.95,3.95,0,0,0-.26-1.464,2.884,2.884,0,0,0-.788-1.12,3.636,3.636,0,0,0-1.332-.716,6.352,6.352,0,0,0-1.892-.252H301.1V31.952h1.544V27.664h1.84Zm-1.84-5.952h1.84a2.951,2.951,0,0,1,2.044.616,2.2,2.2,0,0,1,.676,1.712,2.59,2.59,0,0,1-.176.968,2.042,2.042,0,0,1-.52.756,2.394,2.394,0,0,1-.852.492,3.574,3.574,0,0,1-1.172.176h-1.84v-4.72Zm11.864-1.544h-0.6a0.769,0.769,0,0,0-.456.136,0.868,0.868,0,0,0-.3.392l-4.808,11.976h0.6a0.846,0.846,0,0,0,.452-0.136,0.828,0.828,0,0,0,.332-0.416Zm4.872,7.5a5.754,5.754,0,0,0,1.832-.268,3.8,3.8,0,0,0,1.34-.748,3.141,3.141,0,0,0,.82-1.144,3.724,3.724,0,0,0,.28-1.464,3.93,3.93,0,0,0-.26-1.464,2.884,2.884,0,0,0-.788-1.12,3.636,3.636,0,0,0-1.332-.716,6.347,6.347,0,0,0-1.892-.252H316V31.952h1.544V27.664h1.84Zm-1.84-5.952h1.84a2.949,2.949,0,0,1,2.044.616,2.2,2.2,0,0,1,.676,1.712,2.57,2.57,0,0,1-.176.968,2.03,2.03,0,0,1-.52.756,2.394,2.394,0,0,1-.852.492,3.569,3.569,0,0,1-1.172.176h-1.84v-4.72Zm9.848-1.224h-1.552V31.952h6.512v-1.3h-4.96V20.488Zm10.5,11.464a5.669,5.669,0,0,0,1.708-.236,3.652,3.652,0,0,0,1.264-.668,2.838,2.838,0,0,0,.784-1.032,3.214,3.214,0,0,0,.268-1.328,2.368,2.368,0,0,0-.64-1.728,3.531,3.531,0,0,0-1.9-.9,3.733,3.733,0,0,0,.948-0.432,2.8,2.8,0,0,0,.672-0.6,2.371,2.371,0,0,0,.4-0.728,2.539,2.539,0,0,0,.132-0.816,3.164,3.164,0,0,0-.236-1.252,2.333,2.333,0,0,0-.728-0.94,3.521,3.521,0,0,0-1.256-.592,6.991,6.991,0,0,0-1.82-.208h-3.656V31.952h4.056Zm-0.032-5.224a2.947,2.947,0,0,1,1.9.516,1.72,1.72,0,0,1,.628,1.4,2.341,2.341,0,0,1-.144.836,1.652,1.652,0,0,1-.452.656,2.116,2.116,0,0,1-.784.428,3.765,3.765,0,0,1-1.14.152h-2.48V26.728h2.472Zm-2.472-5.016h2.1a3.071,3.071,0,0,1,1.888.472,1.755,1.755,0,0,1,.608,1.48,2.033,2.033,0,0,1-.152.8,1.557,1.557,0,0,1-.468.62,2.291,2.291,0,0,1-.8.4,3.973,3.973,0,0,1-1.136.144h-2.048V21.712Zm7.856,6.048H347.2V26.552h-3.952V27.76Zm12.328-2.676a3.39,3.39,0,0,0-.9.436l3.976-5.032h-1.264a1.011,1.011,0,0,0-.456.1,0.9,0.9,0,0,0-.312.244l-2.9,3.912a8.144,8.144,0,0,0-1.064,1.824,4.353,4.353,0,0,0-.336,1.6,4.654,4.654,0,0,0,.268,1.62,3.465,3.465,0,0,0,.764,1.232,3.388,3.388,0,0,0,1.2.784,4.233,4.233,0,0,0,1.564.276,4.309,4.309,0,0,0,1.6-.288A3.7,3.7,0,0,0,358.943,31a3.6,3.6,0,0,0,.8-1.184,3.735,3.735,0,0,0,.288-1.472,3.651,3.651,0,0,0-.272-1.452,3.1,3.1,0,0,0-1.816-1.736,3.722,3.722,0,0,0-1.3-.228A3.557,3.557,0,0,0,355.571,25.084Zm-1.716,2.424a2.3,2.3,0,0,1,.5-0.768,2.387,2.387,0,0,1,.788-0.528,2.652,2.652,0,0,1,1.04-.2,2.777,2.777,0,0,1,.984.168,2.111,2.111,0,0,1,1.264,1.252,2.756,2.756,0,0,1,.176,1.012,2.594,2.594,0,0,1-.18.976,2.252,2.252,0,0,1-.512.776,2.337,2.337,0,0,1-.8.512,2.8,2.8,0,0,1-1.04.184,2.678,2.678,0,0,1-1.012-.18,2.1,2.1,0,0,1-.752-0.508,2.2,2.2,0,0,1-.468-0.784,3.045,3.045,0,0,1-.16-1.008A2.467,2.467,0,0,1,353.855,27.508ZM365.9,22.032a2.645,2.645,0,0,0-.536-0.9,2.244,2.244,0,0,0-.808-0.56,2.617,2.617,0,0,0-1-.192,2.584,2.584,0,0,0-1,.192,2.318,2.318,0,0,0-.8.56,2.583,2.583,0,0,0-.536.9,3.618,3.618,0,0,0-.192,1.224,3.531,3.531,0,0,0,.192,1.2,2.543,2.543,0,0,0,.536.9,2.34,2.34,0,0,0,.8.556,2.584,2.584,0,0,0,1,.192,2.506,2.506,0,0,0,.968-0.192,2.352,2.352,0,0,0,.812-0.556,2.689,2.689,0,0,0,.556-0.9,3.278,3.278,0,0,0,.208-1.2A3.543,3.543,0,0,0,365.9,22.032Zm-1.028,2.108a1.617,1.617,0,0,1-.308.592,1.124,1.124,0,0,1-.456.328,1.6,1.6,0,0,1-1.112,0,1.106,1.106,0,0,1-.452-0.328,1.624,1.624,0,0,1-.3-0.592,3.139,3.139,0,0,1-.108-0.884,3.218,3.218,0,0,1,.108-0.9,1.71,1.71,0,0,1,.3-0.6,1.115,1.115,0,0,1,.452-0.34,1.538,1.538,0,0,1,1.112,0,1.133,1.133,0,0,1,.456.34,1.7,1.7,0,0,1,.308.6,3.1,3.1,0,0,1,.112.9A3.022,3.022,0,0,1,364.875,24.14Zm-3.1,7.812h1.056a0.518,0.518,0,0,0,.264-0.064,0.633,0.633,0,0,0,.192-0.168l8.376-11.232h-1.024a0.557,0.557,0,0,0-.308.076,0.932,0.932,0,0,0-.22.212Zm10.472-3.932a2.561,2.561,0,0,0-.536-0.908,2.288,2.288,0,0,0-.808-0.56,2.711,2.711,0,0,0-2,0,2.318,2.318,0,0,0-.8.56,2.576,2.576,0,0,0-.536.908,3.653,3.653,0,0,0-.192,1.228,3.5,3.5,0,0,0,.192,1.2,2.55,2.55,0,0,0,.536.892,2.34,2.34,0,0,0,.8.556,2.584,2.584,0,0,0,1,.192,2.476,2.476,0,0,0,.964-0.192,2.365,2.365,0,0,0,.808-0.556,2.7,2.7,0,0,0,.556-0.892,3.247,3.247,0,0,0,.208-1.2A3.653,3.653,0,0,0,372.243,28.02Zm-1.024,2.108a1.62,1.62,0,0,1-.308.588,1.124,1.124,0,0,1-.456.328,1.6,1.6,0,0,1-1.112,0,1.106,1.106,0,0,1-.452-0.328,1.627,1.627,0,0,1-.3-0.588,3.1,3.1,0,0,1-.108-0.88,3.261,3.261,0,0,1,.108-0.9,1.665,1.665,0,0,1,.3-0.6,1.128,1.128,0,0,1,.452-0.336,1.538,1.538,0,0,1,1.112,0,1.147,1.147,0,0,1,.456.336,1.657,1.657,0,0,1,.308.6,3.139,3.139,0,0,1,.112.9A2.982,2.982,0,0,1,371.219,30.128Z"/>
  <path id="ICOG_estimated-_9_" data-name="ICOG estimated- 9%" class="cls-4" d="M180.923,40.488h-1.552V51.952h1.552V40.488ZM191.9,49.7a5.081,5.081,0,0,1-.6.468,3.186,3.186,0,0,1-.648.324,3.774,3.774,0,0,1-.756.188,6.37,6.37,0,0,1-.92.06,4.024,4.024,0,0,1-1.568-.3,3.545,3.545,0,0,1-1.26-.884,4.21,4.21,0,0,1-.84-1.42A5.538,5.538,0,0,1,185,46.224a5.439,5.439,0,0,1,.308-1.88,4.09,4.09,0,0,1,.86-1.424,3.777,3.777,0,0,1,1.316-.9,4.366,4.366,0,0,1,1.684-.316,4.794,4.794,0,0,1,.9.076,4.25,4.25,0,0,1,.688.188,3.335,3.335,0,0,1,.512.24q0.216,0.128.376,0.24t0.276,0.188a0.4,0.4,0,0,0,.22.076,0.351,0.351,0,0,0,.208-0.052,0.541,0.541,0,0,0,.128-0.132l0.5-.712a5.223,5.223,0,0,0-3.808-1.456,6.2,6.2,0,0,0-2.34.428,5.283,5.283,0,0,0-1.82,1.2,5.425,5.425,0,0,0-1.18,1.856,6.5,6.5,0,0,0-.42,2.376A6.926,6.926,0,0,0,183.8,48.6a5.413,5.413,0,0,0,1.1,1.852,4.926,4.926,0,0,0,1.72,1.2,5.7,5.7,0,0,0,2.248.428,5.823,5.823,0,0,0,2.42-.456A4.9,4.9,0,0,0,193,50.352l-0.608-.664a0.322,0.322,0,0,0-.232-0.1,0.408,0.408,0,0,0-.264.12h0Zm13.424-5.844A5.458,5.458,0,0,0,204.171,42a5.168,5.168,0,0,0-1.788-1.212,6.371,6.371,0,0,0-4.612,0A5.18,5.18,0,0,0,195.987,42a5.458,5.458,0,0,0-1.152,1.856,7.053,7.053,0,0,0,0,4.728,5.412,5.412,0,0,0,1.152,1.852,5.158,5.158,0,0,0,1.784,1.2,6.426,6.426,0,0,0,4.612,0,5.146,5.146,0,0,0,1.788-1.2,5.412,5.412,0,0,0,1.152-1.852A7.053,7.053,0,0,0,205.323,43.86Zm-1.472,4.256a4.014,4.014,0,0,1-.816,1.416,3.5,3.5,0,0,1-1.28.888,4.714,4.714,0,0,1-3.352,0,3.539,3.539,0,0,1-1.284-.888,3.977,3.977,0,0,1-.82-1.416,6.372,6.372,0,0,1,0-3.788,3.974,3.974,0,0,1,.82-1.42,3.586,3.586,0,0,1,1.284-.892,4.658,4.658,0,0,1,3.352,0,3.545,3.545,0,0,1,1.28.892,4.011,4.011,0,0,1,.816,1.42A6.372,6.372,0,0,1,203.851,48.116Zm7.648,2.4a3.741,3.741,0,0,1-1.328-.9,4.1,4.1,0,0,1-.868-1.444,5.693,5.693,0,0,1-.308-1.94,5.6,5.6,0,0,1,.3-1.876,4,4,0,0,1,.848-1.424,3.7,3.7,0,0,1,1.336-.9,4.653,4.653,0,0,1,1.752-.316,5.539,5.539,0,0,1,1.148.1,4.857,4.857,0,0,1,.84.252,3.854,3.854,0,0,1,.6.308c0.165,0.107.315,0.2,0.448,0.272a0.566,0.566,0,0,0,.28.088,0.405,0.405,0,0,0,.352-0.216l0.44-.7a5.617,5.617,0,0,0-.792-0.6,5.08,5.08,0,0,0-.924-0.456,5.93,5.93,0,0,0-1.084-.288,7.506,7.506,0,0,0-1.264-.1,6.62,6.62,0,0,0-2.428.424,5.142,5.142,0,0,0-3.024,3.048,6.655,6.655,0,0,0-.412,2.392,6.5,6.5,0,0,0,.42,2.376A5.452,5.452,0,0,0,209,50.452a5.265,5.265,0,0,0,1.792,1.2,5.953,5.953,0,0,0,2.288.428A10.66,10.66,0,0,0,214.4,52a7.26,7.26,0,0,0,1.14-.232,6.106,6.106,0,0,0,1-.388,6.354,6.354,0,0,0,.9-0.544v-4.4h-3.52v0.88a0.288,0.288,0,0,0,.092.216,0.338,0.338,0,0,0,.244.088h1.776v2.528c-0.2.107-.405,0.2-0.608,0.284a4.989,4.989,0,0,1-.648.212,5.356,5.356,0,0,1-.732.132,7.588,7.588,0,0,1-.852.044A4.465,4.465,0,0,1,211.5,50.512Zm12.984-6.484a3.444,3.444,0,0,0-1.192.848,3.734,3.734,0,0,0-.748,1.276,4.732,4.732,0,0,0-.26,1.584,5.513,5.513,0,0,0,.288,1.856,3.814,3.814,0,0,0,.8,1.356,3.4,3.4,0,0,0,1.224.832,4.121,4.121,0,0,0,1.548.284,5.3,5.3,0,0,0,.888-0.076,4.985,4.985,0,0,0,.868-0.228,3.916,3.916,0,0,0,.788-0.388,2.707,2.707,0,0,0,.632-0.556l-0.4-.52a0.314,0.314,0,0,0-.272-0.136,0.619,0.619,0,0,0-.324.124,4.977,4.977,0,0,1-.468.268,4.389,4.389,0,0,1-.668.268,3.05,3.05,0,0,1-.924.124,2.745,2.745,0,0,1-1.04-.188,2.116,2.116,0,0,1-.8-0.568,2.729,2.729,0,0,1-.528-0.948,4.484,4.484,0,0,1-.208-1.336h5.392a0.3,0.3,0,0,0,.272-0.112,0.928,0.928,0,0,0,.072-0.448,4.389,4.389,0,0,0-.252-1.54,3.207,3.207,0,0,0-.7-1.136,3.02,3.02,0,0,0-1.064-.7,3.621,3.621,0,0,0-1.344-.244A3.913,3.913,0,0,0,224.483,44.028Zm2.484,0.9a1.794,1.794,0,0,1,.644.464,2.029,2.029,0,0,1,.4.712,2.875,2.875,0,0,1,.136.908h-4.408a2.8,2.8,0,0,1,.736-1.652A2.466,2.466,0,0,1,226.967,44.932Zm8.852-.268a3.4,3.4,0,0,0-1.1-.692,3.873,3.873,0,0,0-1.436-.252,3.615,3.615,0,0,0-1.224.192,2.758,2.758,0,0,0-.9.516,2.193,2.193,0,0,0-.56.752,2.157,2.157,0,0,0-.192.892,1.978,1.978,0,0,0,.18.884,1.868,1.868,0,0,0,.476.612,2.722,2.722,0,0,0,.676.412q0.379,0.164.776,0.292t0.776,0.244a3.884,3.884,0,0,1,.676.272,1.524,1.524,0,0,1,.476.376,0.849,0.849,0,0,1,.18.556,1.311,1.311,0,0,1-.1.512,1.156,1.156,0,0,1-.308.424,1.53,1.53,0,0,1-.52.292,2.227,2.227,0,0,1-.728.108,2.513,2.513,0,0,1-.812-0.112A2.972,2.972,0,0,1,231.6,50.7q-0.228-.136-0.388-0.248a0.537,0.537,0,0,0-.3-0.112,0.429,0.429,0,0,0-.232.056,0.49,0.49,0,0,0-.152.16l-0.336.544a3.888,3.888,0,0,0,1.168.708,4.1,4.1,0,0,0,1.536.276,3.946,3.946,0,0,0,1.312-.2,2.846,2.846,0,0,0,.96-0.548,2.26,2.26,0,0,0,.592-0.824,2.653,2.653,0,0,0,.2-1.036,1.8,1.8,0,0,0-.18-0.836,1.834,1.834,0,0,0-.476-0.588,2.793,2.793,0,0,0-.672-0.4q-0.377-.16-0.772-0.292t-0.772-.248a4.107,4.107,0,0,1-.672-0.268,1.564,1.564,0,0,1-.476-0.36,0.766,0.766,0,0,1-.18-0.52,1,1,0,0,1,.108-0.46,1.117,1.117,0,0,1,.312-0.372,1.559,1.559,0,0,1,.492-0.252,2.129,2.129,0,0,1,.648-0.092,2.508,2.508,0,0,1,.72.092,3.5,3.5,0,0,1,.524.2q0.22,0.108.372,0.2a0.555,0.555,0,0,0,.272.088,0.316,0.316,0,0,0,.3-0.176Zm5.568,7.22a2.644,2.644,0,0,0,.888-0.54l-0.416-.68a0.245,0.245,0,0,0-.2-0.136,0.266,0.266,0,0,0-.148.06q-0.084.06-.2,0.132a1.677,1.677,0,0,1-.284.132,1.13,1.13,0,0,1-.388.06,0.866,0.866,0,0,1-.64-0.248,1.036,1.036,0,0,1-.248-0.76V45.04h2.32V44.008h-2.32V41.216h-0.72a0.331,0.331,0,0,0-.224.076,0.3,0.3,0,0,0-.1.2l-0.328,2.5-1.328.168v0.568a0.294,0.294,0,0,0,.088.236,0.319,0.319,0,0,0,.216.076h0.976V50a2.139,2.139,0,0,0,.516,1.544,1.953,1.953,0,0,0,1.476.536A3.016,3.016,0,0,0,241.387,51.884Zm2.632-8.036v8.1h1.424v-8.1h-1.424Zm1.66-2.94a1.093,1.093,0,0,0-.224-0.328,1.036,1.036,0,0,0-.324-0.22,0.975,0.975,0,0,0-.392-0.08,0.945,0.945,0,0,0-.388.08,1.054,1.054,0,0,0-.32.22,1.03,1.03,0,0,0-.22.328,1.007,1.007,0,0,0-.08.4,0.949,0.949,0,0,0,.08.388,1.066,1.066,0,0,0,.54.54,0.942,0.942,0,0,0,.388.08,0.971,0.971,0,0,0,.392-0.08,1.03,1.03,0,0,0,.324-0.22,1.122,1.122,0,0,0,.224-0.32,0.906,0.906,0,0,0,.084-0.388A0.96,0.96,0,0,0,245.679,40.908Zm3.6,11.044v-6.04a3.222,3.222,0,0,1,.828-0.772,1.808,1.808,0,0,1,.98-0.284,1.391,1.391,0,0,1,1.144.48,2.273,2.273,0,0,1,.392,1.456v5.16h1.424v-5.16a2.35,2.35,0,0,1,.14-0.844,1.7,1.7,0,0,1,.38-0.6,1.608,1.608,0,0,1,.556-0.364,1.814,1.814,0,0,1,.668-0.124,1.493,1.493,0,0,1,1.208.492,2.186,2.186,0,0,1,.416,1.444v5.16h1.424v-5.16a4.259,4.259,0,0,0-.184-1.308,2.661,2.661,0,0,0-.532-0.964,2.261,2.261,0,0,0-.848-0.6,2.994,2.994,0,0,0-1.14-.2,3.269,3.269,0,0,0-.788.1,2.62,2.62,0,0,0-.732.3,2.592,2.592,0,0,0-.62.528,2.539,2.539,0,0,0-.444.76,2.561,2.561,0,0,0-.732-1.232,1.92,1.92,0,0,0-1.332-.456,2.364,2.364,0,0,0-1.292.352,4.16,4.16,0,0,0-1,.9l-0.1-.832a0.363,0.363,0,0,0-.384-0.3h-0.848v8.1h1.424Zm17.528-5.184a4.023,4.023,0,0,0-.184-1.248,2.649,2.649,0,0,0-.544-0.968,2.479,2.479,0,0,0-.888-0.624,3.072,3.072,0,0,0-1.208-.224,4.473,4.473,0,0,0-1.72.32,4.633,4.633,0,0,0-1.448.968l0.256,0.456a0.581,0.581,0,0,0,.172.188,0.426,0.426,0,0,0,.252.076,0.645,0.645,0,0,0,.372-0.132c0.125-.088.275-0.187,0.448-0.3a3.324,3.324,0,0,1,.616-0.3,2.533,2.533,0,0,1,.876-0.132,1.464,1.464,0,0,1,1.2.487,2.207,2.207,0,0,1,.4,1.437v0.636a10.488,10.488,0,0,0-2.328.221,5.536,5.536,0,0,0-1.54.566,2.323,2.323,0,0,0-.852.791,1.794,1.794,0,0,0-.264.927,2.349,2.349,0,0,0,.18.959,1.888,1.888,0,0,0,.484.67,2.014,2.014,0,0,0,.716.4,2.878,2.878,0,0,0,.884.132,4.109,4.109,0,0,0,.844-0.08,3.315,3.315,0,0,0,.716-0.236,3.583,3.583,0,0,0,.64-0.384q0.3-.228.624-0.516l0.16,0.752a0.355,0.355,0,0,0,.168.272,0.75,0.75,0,0,0,.336.064h0.632V46.768ZM262.6,51.012a1.1,1.1,0,0,1-.416-0.217,1.051,1.051,0,0,1-.28-0.382,1.362,1.362,0,0,1-.1-0.555,1.023,1.023,0,0,1,.2-0.611,1.563,1.563,0,0,1,.628-0.475,4.672,4.672,0,0,1,1.12-.326,9.557,9.557,0,0,1,1.672-.125v1.672a4.547,4.547,0,0,1-.492.456,3.1,3.1,0,0,1-.528.34A2.709,2.709,0,0,1,263.8,51a2.9,2.9,0,0,1-.688.076A1.889,1.889,0,0,1,262.6,51.012Zm9.792,0.872a2.644,2.644,0,0,0,.888-0.54l-0.416-.68a0.245,0.245,0,0,0-.2-0.136,0.266,0.266,0,0,0-.148.06q-0.084.06-.2,0.132a1.677,1.677,0,0,1-.284.132,1.13,1.13,0,0,1-.388.06,0.866,0.866,0,0,1-.64-0.248,1.036,1.036,0,0,1-.248-0.76V45.04h2.32V44.008h-2.32V41.216h-0.72a0.331,0.331,0,0,0-.224.076,0.3,0.3,0,0,0-.1.2l-0.328,2.5-1.328.168v0.568a0.294,0.294,0,0,0,.088.236,0.319,0.319,0,0,0,.216.076h0.976V50a2.139,2.139,0,0,0,.516,1.544,1.953,1.953,0,0,0,1.476.536A3.016,3.016,0,0,0,272.387,51.884Zm4.1-7.856a3.444,3.444,0,0,0-1.192.848,3.734,3.734,0,0,0-.748,1.276,4.732,4.732,0,0,0-.26,1.584,5.513,5.513,0,0,0,.288,1.856,3.814,3.814,0,0,0,.8,1.356,3.4,3.4,0,0,0,1.224.832,4.121,4.121,0,0,0,1.548.284,5.3,5.3,0,0,0,.888-0.076,4.985,4.985,0,0,0,.868-0.228,3.916,3.916,0,0,0,.788-0.388,2.707,2.707,0,0,0,.632-0.556l-0.4-.52a0.314,0.314,0,0,0-.272-0.136,0.619,0.619,0,0,0-.324.124,4.977,4.977,0,0,1-.468.268,4.389,4.389,0,0,1-.668.268,3.05,3.05,0,0,1-.924.124,2.745,2.745,0,0,1-1.04-.188,2.116,2.116,0,0,1-.8-0.568,2.729,2.729,0,0,1-.528-0.948,4.484,4.484,0,0,1-.208-1.336h5.392a0.3,0.3,0,0,0,.272-0.112,0.928,0.928,0,0,0,.072-0.448,4.389,4.389,0,0,0-.252-1.54,3.207,3.207,0,0,0-.7-1.136,3.02,3.02,0,0,0-1.064-.7,3.621,3.621,0,0,0-1.344-.244A3.913,3.913,0,0,0,276.483,44.028Zm2.484,0.9a1.794,1.794,0,0,1,.644.464,2.029,2.029,0,0,1,.4.712,2.875,2.875,0,0,1,.136.908h-4.408a2.8,2.8,0,0,1,.736-1.652A2.466,2.466,0,0,1,278.967,44.932Zm10.444,7.02V40.168h-1.424v4.5a3.046,3.046,0,0,0-.944-0.708,2.932,2.932,0,0,0-1.272-.252A3.174,3.174,0,0,0,283.2,44.92a4.074,4.074,0,0,0-.692,1.34,5.593,5.593,0,0,0-.24,1.668,6.672,6.672,0,0,0,.216,1.784,3.746,3.746,0,0,0,.616,1.3,2.619,2.619,0,0,0,.968.788,2.926,2.926,0,0,0,1.264.268,3.042,3.042,0,0,0,1.532-.38,4.272,4.272,0,0,0,1.188-1.012l0.128,0.984a0.363,0.363,0,0,0,.384.3h0.848Zm-4.488-1.208a1.571,1.571,0,0,1-.648-0.532,2.615,2.615,0,0,1-.4-0.928,5.84,5.84,0,0,1-.136-1.356,3.777,3.777,0,0,1,.608-2.3,2.051,2.051,0,0,1,1.744-.808,2.483,2.483,0,0,1,1.036.212,2.251,2.251,0,0,1,.86.74v3.92a3.514,3.514,0,0,1-.964.9,2.292,2.292,0,0,1-1.22.32A2.175,2.175,0,0,1,284.923,50.744Zm6.568-2.984h3.952V46.552h-3.952V47.76Zm13.76-.7a3.179,3.179,0,0,0,.992-0.536q-0.137.208-.288,0.416c-0.1.139-.211,0.285-0.328,0.44l-3.488,4.568h1.312a1.006,1.006,0,0,0,.44-0.092,0.727,0.727,0,0,0,.3-0.244l2.792-4.032q0.312-.448.556-0.868a6.988,6.988,0,0,0,.42-0.844A4.8,4.8,0,0,0,308.223,45a4.649,4.649,0,0,0,.092-0.94,4.188,4.188,0,0,0-.26-1.5,3.291,3.291,0,0,0-1.892-1.928,3.958,3.958,0,0,0-1.5-.272,4.058,4.058,0,0,0-1.528.28,3.68,3.68,0,0,0-1.2.768,3.48,3.48,0,0,0-.784,1.144,3.8,3.8,0,0,0-.02,2.812,3.059,3.059,0,0,0,.7,1.032,2.947,2.947,0,0,0,1.02.636,3.491,3.491,0,0,0,1.228.216A3.664,3.664,0,0,0,305.251,47.064Zm1.536-2.32a2.142,2.142,0,0,1-.464.72,2.26,2.26,0,0,1-.748.5,2.6,2.6,0,0,1-1.02.188,2.744,2.744,0,0,1-.94-0.152,1.885,1.885,0,0,1-.712-0.448,1.974,1.974,0,0,1-.448-0.724,2.825,2.825,0,0,1-.156-0.972,2.5,2.5,0,0,1,.168-0.928,2.1,2.1,0,0,1,.476-0.728,2.183,2.183,0,0,1,.744-0.476,2.608,2.608,0,0,1,.964-0.172,2.522,2.522,0,0,1,.924.164,2.085,2.085,0,0,1,.724.468,2.146,2.146,0,0,1,.476.74,2.623,2.623,0,0,1,.172.972A2.3,2.3,0,0,1,306.787,44.744Zm7.364-2.712a2.661,2.661,0,0,0-.536-0.9,2.253,2.253,0,0,0-.808-0.56,2.62,2.62,0,0,0-1-.192,2.581,2.581,0,0,0-1,.192,2.3,2.3,0,0,0-.8.56,2.583,2.583,0,0,0-.536.9,3.618,3.618,0,0,0-.192,1.224,3.531,3.531,0,0,0,.192,1.2,2.543,2.543,0,0,0,.536.9,2.321,2.321,0,0,0,.8.556,2.581,2.581,0,0,0,1,.192,2.506,2.506,0,0,0,.968-0.192,2.361,2.361,0,0,0,.812-0.556,2.705,2.705,0,0,0,.556-0.9,3.278,3.278,0,0,0,.208-1.2A3.543,3.543,0,0,0,314.151,42.032Zm-1.028,2.108a1.632,1.632,0,0,1-.308.592,1.138,1.138,0,0,1-.456.328,1.6,1.6,0,0,1-1.112,0,1.106,1.106,0,0,1-.452-0.328,1.624,1.624,0,0,1-.3-0.592,3.139,3.139,0,0,1-.108-0.884,3.218,3.218,0,0,1,.108-0.9,1.71,1.71,0,0,1,.3-0.6,1.115,1.115,0,0,1,.452-0.34,1.538,1.538,0,0,1,1.112,0,1.147,1.147,0,0,1,.456.34,1.718,1.718,0,0,1,.308.6,3.1,3.1,0,0,1,.112.9A3.022,3.022,0,0,1,313.123,44.14Zm-3.1,7.812h1.056a0.524,0.524,0,0,0,.264-0.064,0.633,0.633,0,0,0,.192-0.168l8.376-11.232h-1.024a0.554,0.554,0,0,0-.308.076,0.913,0.913,0,0,0-.22.212Zm10.472-3.932a2.576,2.576,0,0,0-.536-0.908,2.3,2.3,0,0,0-.808-0.56,2.711,2.711,0,0,0-2,0,2.3,2.3,0,0,0-.8.56,2.576,2.576,0,0,0-.536.908,3.653,3.653,0,0,0-.192,1.228,3.5,3.5,0,0,0,.192,1.2,2.55,2.55,0,0,0,.536.892,2.321,2.321,0,0,0,.8.556,2.581,2.581,0,0,0,1,.192,2.479,2.479,0,0,0,.964-0.192,2.365,2.365,0,0,0,.808-0.556,2.715,2.715,0,0,0,.556-0.892,3.247,3.247,0,0,0,.208-1.2A3.653,3.653,0,0,0,320.491,48.02Zm-1.024,2.108a1.635,1.635,0,0,1-.308.588,1.138,1.138,0,0,1-.456.328,1.6,1.6,0,0,1-1.112,0,1.106,1.106,0,0,1-.452-0.328,1.627,1.627,0,0,1-.3-0.588,3.1,3.1,0,0,1-.108-0.88,3.261,3.261,0,0,1,.108-0.9,1.665,1.665,0,0,1,.3-0.6,1.128,1.128,0,0,1,.452-0.336,1.538,1.538,0,0,1,1.112,0,1.161,1.161,0,0,1,.456.336,1.672,1.672,0,0,1,.308.6,3.139,3.139,0,0,1,.112.9A2.982,2.982,0,0,1,319.467,50.128Z"/>
  <path id="BRCA1-_9_" data-name="BRCA1- 9%" class="cls-4" d="M183.139,90.952a5.674,5.674,0,0,0,1.708-.236,3.652,3.652,0,0,0,1.264-.668,2.849,2.849,0,0,0,.784-1.032,3.214,3.214,0,0,0,.268-1.328,2.368,2.368,0,0,0-.64-1.728,3.539,3.539,0,0,0-1.9-.9,3.733,3.733,0,0,0,.948-0.432,2.841,2.841,0,0,0,.672-0.6,2.371,2.371,0,0,0,.4-0.728,2.539,2.539,0,0,0,.132-0.816,3.182,3.182,0,0,0-.236-1.252,2.333,2.333,0,0,0-.728-0.94,3.53,3.53,0,0,0-1.256-.592,6.991,6.991,0,0,0-1.82-.208h-3.656V90.952h4.056Zm-0.032-5.224a2.949,2.949,0,0,1,1.9.516,1.72,1.72,0,0,1,.628,1.4,2.341,2.341,0,0,1-.144.836,1.662,1.662,0,0,1-.452.656,2.124,2.124,0,0,1-.784.428,3.765,3.765,0,0,1-1.14.152h-2.48V85.728h2.472Zm-2.472-5.016h2.1a3.073,3.073,0,0,1,1.888.472,1.758,1.758,0,0,1,.608,1.48,2.051,2.051,0,0,1-.152.8,1.557,1.557,0,0,1-.468.62,2.3,2.3,0,0,1-.8.4,3.978,3.978,0,0,1-1.136.144h-2.048V80.712Zm11.328,5.456a1.069,1.069,0,0,1,.48.084,0.867,0.867,0,0,1,.3.276l2.976,4.1a0.678,0.678,0,0,0,.624.328h1.376L194.371,86.4a1.637,1.637,0,0,0-.512-0.488,4.381,4.381,0,0,0,1.188-.448,3.334,3.334,0,0,0,.888-0.716,2.994,2.994,0,0,0,.556-0.948,3.3,3.3,0,0,0,.192-1.136,3.362,3.362,0,0,0-.248-1.316,2.544,2.544,0,0,0-.764-1,3.592,3.592,0,0,0-1.308-.636,7.084,7.084,0,0,0-1.88-.22h-3.24V90.952h1.544V86.168h1.176Zm-1.176-5.456h1.7a3.268,3.268,0,0,1,2.012.52,1.826,1.826,0,0,1,.676,1.544,2.344,2.344,0,0,1-.176.92,1.92,1.92,0,0,1-.524.716,2.431,2.431,0,0,1-.864.464,3.953,3.953,0,0,1-1.2.164h-1.624V80.712ZM206.531,88.7a5.081,5.081,0,0,1-.6.468,3.186,3.186,0,0,1-.648.324,3.774,3.774,0,0,1-.756.188,6.37,6.37,0,0,1-.92.06,4.024,4.024,0,0,1-1.568-.3,3.545,3.545,0,0,1-1.26-.884,4.21,4.21,0,0,1-.84-1.42,5.538,5.538,0,0,1-.308-1.912,5.439,5.439,0,0,1,.308-1.88,4.09,4.09,0,0,1,.86-1.424,3.777,3.777,0,0,1,1.316-.9A4.366,4.366,0,0,1,203.8,80.7a4.794,4.794,0,0,1,.9.076,4.25,4.25,0,0,1,.688.188,3.335,3.335,0,0,1,.512.24q0.216,0.128.376,0.24t0.276,0.188a0.4,0.4,0,0,0,.22.076,0.351,0.351,0,0,0,.208-0.052,0.541,0.541,0,0,0,.128-0.132l0.5-.712A5.223,5.223,0,0,0,203.8,79.36a6.2,6.2,0,0,0-2.34.428,5.283,5.283,0,0,0-1.82,1.2,5.425,5.425,0,0,0-1.18,1.856,6.5,6.5,0,0,0-.42,2.376,6.926,6.926,0,0,0,.392,2.376,5.413,5.413,0,0,0,1.1,1.852,4.926,4.926,0,0,0,1.72,1.2,5.7,5.7,0,0,0,2.248.428,5.823,5.823,0,0,0,2.42-.456,4.9,4.9,0,0,0,1.708-1.272l-0.608-.664a0.322,0.322,0,0,0-.232-0.1,0.408,0.408,0,0,0-.264.12h0Zm8.032-9.216h-1.576L208.4,90.952h1.2a0.512,0.512,0,0,0,.336-0.112,0.619,0.619,0,0,0,.192-0.256l1.072-2.768h5.144l1.072,2.768a0.644,0.644,0,0,0,.192.264,0.515,0.515,0,0,0,.336.1h1.2Zm-1.128,2.552q0.079-.208.164-0.484t0.172-.6a8.774,8.774,0,0,0,.344,1.08l1.8,4.664h-4.28Zm8.184,8.912h6.144V89.864h-2.256v-10.4h-1.16l-3.408,2.952,0.448,0.616a0.392,0.392,0,0,0,.144.124,0.445,0.445,0,0,0,.216.052,0.455,0.455,0,0,0,.152-0.028,0.544,0.544,0,0,0,.16-0.092l2.048-1.752q-0.024.36-.024,0.712v7.816h-2.464v1.088Zm7.5-4.192h3.952V85.552h-3.952V86.76Zm13.76-.7a3.179,3.179,0,0,0,.992-0.536q-0.137.208-.288,0.416c-0.1.139-.211,0.285-0.328,0.44l-3.488,4.568h1.312a1.006,1.006,0,0,0,.44-0.092,0.727,0.727,0,0,0,.3-0.244l2.792-4.032q0.312-.448.556-0.868a6.988,6.988,0,0,0,.42-0.844A4.8,4.8,0,0,0,245.855,84a4.649,4.649,0,0,0,.092-0.94,4.188,4.188,0,0,0-.26-1.5,3.291,3.291,0,0,0-1.892-1.928,3.958,3.958,0,0,0-1.5-.272,4.058,4.058,0,0,0-1.528.28,3.68,3.68,0,0,0-1.2.768,3.48,3.48,0,0,0-.784,1.144,3.8,3.8,0,0,0-.02,2.812,3.059,3.059,0,0,0,.7,1.032,2.947,2.947,0,0,0,1.02.636,3.491,3.491,0,0,0,1.228.216A3.664,3.664,0,0,0,242.883,86.064Zm1.536-2.32a2.142,2.142,0,0,1-.464.72,2.26,2.26,0,0,1-.748.5,2.6,2.6,0,0,1-1.02.188,2.744,2.744,0,0,1-.94-0.152,1.885,1.885,0,0,1-.712-0.448,1.974,1.974,0,0,1-.448-0.724,2.825,2.825,0,0,1-.156-0.972,2.5,2.5,0,0,1,.168-0.928,2.1,2.1,0,0,1,.476-0.728,2.183,2.183,0,0,1,.744-0.476,2.608,2.608,0,0,1,.964-0.172,2.522,2.522,0,0,1,.924.164,2.085,2.085,0,0,1,.724.468,2.146,2.146,0,0,1,.476.74,2.623,2.623,0,0,1,.172.972A2.3,2.3,0,0,1,244.419,83.744Zm7.364-2.712a2.661,2.661,0,0,0-.536-0.9,2.253,2.253,0,0,0-.808-0.56,2.62,2.62,0,0,0-1-.192,2.581,2.581,0,0,0-1,.192,2.3,2.3,0,0,0-.8.56,2.583,2.583,0,0,0-.536.9,3.618,3.618,0,0,0-.192,1.224,3.531,3.531,0,0,0,.192,1.2,2.543,2.543,0,0,0,.536.9,2.321,2.321,0,0,0,.8.556,2.581,2.581,0,0,0,1,.192,2.506,2.506,0,0,0,.968-0.192,2.361,2.361,0,0,0,.812-0.556,2.705,2.705,0,0,0,.556-0.9,3.278,3.278,0,0,0,.208-1.2A3.543,3.543,0,0,0,251.783,81.032Zm-1.028,2.108a1.632,1.632,0,0,1-.308.592,1.138,1.138,0,0,1-.456.328,1.6,1.6,0,0,1-1.112,0,1.106,1.106,0,0,1-.452-0.328,1.624,1.624,0,0,1-.3-0.592,3.139,3.139,0,0,1-.108-0.884,3.218,3.218,0,0,1,.108-0.9,1.71,1.71,0,0,1,.3-0.6,1.115,1.115,0,0,1,.452-0.34,1.538,1.538,0,0,1,1.112,0,1.147,1.147,0,0,1,.456.34,1.718,1.718,0,0,1,.308.6,3.1,3.1,0,0,1,.112.9A3.022,3.022,0,0,1,250.755,83.14Zm-3.1,7.812h1.056a0.524,0.524,0,0,0,.264-0.064,0.633,0.633,0,0,0,.192-0.168l8.376-11.232h-1.024a0.554,0.554,0,0,0-.308.076,0.913,0.913,0,0,0-.22.212Zm10.472-3.932a2.576,2.576,0,0,0-.536-0.908,2.3,2.3,0,0,0-.808-0.56,2.711,2.711,0,0,0-2,0,2.3,2.3,0,0,0-.8.56,2.576,2.576,0,0,0-.536.908,3.653,3.653,0,0,0-.192,1.228,3.5,3.5,0,0,0,.192,1.2,2.55,2.55,0,0,0,.536.892,2.321,2.321,0,0,0,.8.556,2.581,2.581,0,0,0,1,.192,2.479,2.479,0,0,0,.964-0.192,2.365,2.365,0,0,0,.808-0.556,2.715,2.715,0,0,0,.556-0.892,3.247,3.247,0,0,0,.208-1.2A3.653,3.653,0,0,0,258.123,87.02ZM257.1,89.128a1.635,1.635,0,0,1-.308.588,1.138,1.138,0,0,1-.456.328,1.6,1.6,0,0,1-1.112,0,1.106,1.106,0,0,1-.452-0.328,1.627,1.627,0,0,1-.3-0.588,3.1,3.1,0,0,1-.108-0.88,3.261,3.261,0,0,1,.108-0.9,1.665,1.665,0,0,1,.3-0.6,1.128,1.128,0,0,1,.452-0.336,1.538,1.538,0,0,1,1.112,0,1.161,1.161,0,0,1,.456.336,1.672,1.672,0,0,1,.308.6,3.139,3.139,0,0,1,.112.9A2.982,2.982,0,0,1,257.1,89.128Z"/>
  <path id="BRCA2-_11_" data-name="BRCA2- 11%" class="cls-4" d="M183.139,151.952a5.655,5.655,0,0,0,1.708-.236,3.649,3.649,0,0,0,1.264-.668,2.849,2.849,0,0,0,.784-1.032,3.212,3.212,0,0,0,.268-1.328,2.37,2.37,0,0,0-.64-1.728,3.544,3.544,0,0,0-1.9-.9,3.733,3.733,0,0,0,.948-0.432,2.841,2.841,0,0,0,.672-0.6,2.364,2.364,0,0,0,.4-0.728,2.537,2.537,0,0,0,.132-0.816,3.183,3.183,0,0,0-.236-1.252,2.337,2.337,0,0,0-.728-0.94,3.533,3.533,0,0,0-1.256-.592,7.017,7.017,0,0,0-1.82-.208h-3.656v11.464h4.056Zm-0.032-5.224a2.949,2.949,0,0,1,1.9.516,1.72,1.72,0,0,1,.628,1.4,2.34,2.34,0,0,1-.144.836,1.658,1.658,0,0,1-.452.656,2.121,2.121,0,0,1-.784.428,3.747,3.747,0,0,1-1.14.152h-2.48v-3.992h2.472Zm-2.472-5.016h2.1a3.077,3.077,0,0,1,1.888.472,1.758,1.758,0,0,1,.608,1.48,2.049,2.049,0,0,1-.152.8,1.551,1.551,0,0,1-.468.62,2.3,2.3,0,0,1-.8.4,3.978,3.978,0,0,1-1.136.144h-2.048v-3.912Zm11.328,5.456a1.069,1.069,0,0,1,.48.084,0.867,0.867,0,0,1,.3.276l2.976,4.1a0.677,0.677,0,0,0,.624.328h1.376l-3.344-4.552a1.639,1.639,0,0,0-.512-0.488,4.355,4.355,0,0,0,1.188-.448,3.331,3.331,0,0,0,.888-0.716,2.994,2.994,0,0,0,.556-0.948,3.3,3.3,0,0,0,.192-1.136,3.363,3.363,0,0,0-.248-1.316,2.548,2.548,0,0,0-.764-1,3.6,3.6,0,0,0-1.308-.636,7.109,7.109,0,0,0-1.88-.22h-3.24v11.464h1.544v-4.784h1.176Zm-1.176-5.456h1.7a3.272,3.272,0,0,1,2.012.52,1.827,1.827,0,0,1,.676,1.544,2.343,2.343,0,0,1-.176.92,1.916,1.916,0,0,1-.524.716,2.428,2.428,0,0,1-.864.464,3.934,3.934,0,0,1-1.2.164h-1.624v-4.328Zm15.744,7.992a4.958,4.958,0,0,1-.6.468,3.165,3.165,0,0,1-.648.324,3.733,3.733,0,0,1-.756.188,6.37,6.37,0,0,1-.92.06,4.021,4.021,0,0,1-1.568-.3,3.535,3.535,0,0,1-1.26-.884,4.2,4.2,0,0,1-.84-1.42,5.537,5.537,0,0,1-.308-1.912,5.439,5.439,0,0,1,.308-1.88,4.1,4.1,0,0,1,.86-1.424,3.783,3.783,0,0,1,1.316-.9,4.377,4.377,0,0,1,1.684-.316,4.845,4.845,0,0,1,.9.076,4.334,4.334,0,0,1,.688.188,3.373,3.373,0,0,1,.512.24q0.216,0.129.376,0.24c0.107,0.075.2,0.138,0.276,0.188a0.4,0.4,0,0,0,.22.076,0.349,0.349,0,0,0,.208-0.052,0.52,0.52,0,0,0,.128-0.132l0.5-.712a5.223,5.223,0,0,0-3.808-1.456,6.2,6.2,0,0,0-2.34.428,5.3,5.3,0,0,0-1.82,1.2,5.43,5.43,0,0,0-1.18,1.856,6.5,6.5,0,0,0-.42,2.376,6.926,6.926,0,0,0,.392,2.376,5.408,5.408,0,0,0,1.1,1.852,4.921,4.921,0,0,0,1.72,1.2,5.684,5.684,0,0,0,2.248.428,5.823,5.823,0,0,0,2.42-.456,4.9,4.9,0,0,0,1.708-1.272l-0.608-.664a0.323,0.323,0,0,0-.232-0.1,0.408,0.408,0,0,0-.264.12h0Zm8.032-9.216h-1.576L208.4,151.952h1.2a0.511,0.511,0,0,0,.336-0.112,0.615,0.615,0,0,0,.192-0.256l1.072-2.768h5.144l1.072,2.768a0.641,0.641,0,0,0,.192.264,0.511,0.511,0,0,0,.336.1h1.2Zm-1.128,2.552c0.053-.138.108-0.3,0.164-0.484s0.113-.385.172-0.6a8.774,8.774,0,0,0,.344,1.08l1.8,4.664h-4.28Zm9.324-2.468a3.478,3.478,0,0,0-1.128.62,3.312,3.312,0,0,0-.812,1.012,4.24,4.24,0,0,0-.432,1.388l0.744,0.128c0.037,0.006.071,0.01,0.1,0.012a0.813,0.813,0,0,0,.084,0,0.511,0.511,0,0,0,.336-0.1,0.639,0.639,0,0,0,.192-0.336,2.1,2.1,0,0,1,.276-0.688,2.138,2.138,0,0,1,1.132-.9,2.427,2.427,0,0,1,.8-0.128,2.585,2.585,0,0,1,.808.124,1.861,1.861,0,0,1,.656.372,1.718,1.718,0,0,1,.44.628,2.26,2.26,0,0,1,.16.884,3.055,3.055,0,0,1-.144.948,3.991,3.991,0,0,1-.412.876,6.48,6.48,0,0,1-.644.86q-0.376.429-.832,0.892l-3.672,3.688a0.836,0.836,0,0,0-.2.3,0.888,0.888,0,0,0-.06.312v0.488H227.8v-0.864a0.476,0.476,0,0,0-.136-0.352,0.5,0.5,0,0,0-.368-0.136h-3.84a4.119,4.119,0,0,0-.632.052,6.173,6.173,0,0,0-.648.14L225.2,147.7q0.48-.488.908-0.956a7.681,7.681,0,0,0,.756-0.968,4.8,4.8,0,0,0,.52-1.044,3.53,3.53,0,0,0,.192-1.184,3.269,3.269,0,0,0-.264-1.344,2.937,2.937,0,0,0-.724-1,3.151,3.151,0,0,0-1.092-.628,4.178,4.178,0,0,0-1.36-.216A4.321,4.321,0,0,0,222.759,140.572Zm6.364,7.188h3.952v-1.208h-3.952v1.208Zm10.5,4.192h6.144v-1.088h-2.256v-10.4h-1.16l-3.408,2.952,0.448,0.616a0.387,0.387,0,0,0,.144.124,0.442,0.442,0,0,0,.216.052,0.45,0.45,0,0,0,.152-0.028,0.527,0.527,0,0,0,.16-0.092l2.048-1.752c-0.016.24-.024,0.478-0.024,0.712v7.816h-2.464v1.088Zm9,0h6.144v-1.088h-2.256v-10.4h-1.16l-3.408,2.952,0.448,0.616a0.387,0.387,0,0,0,.144.124,0.442,0.442,0,0,0,.216.052,0.45,0.45,0,0,0,.152-0.028,0.527,0.527,0,0,0,.16-0.092l2.048-1.752c-0.016.24-.024,0.478-0.024,0.712v7.816h-2.464v1.088Zm12.164-9.92a2.668,2.668,0,0,0-.536-0.9,2.255,2.255,0,0,0-.808-0.56,2.62,2.62,0,0,0-1-.192,2.581,2.581,0,0,0-1,.192,2.3,2.3,0,0,0-.8.56,2.59,2.59,0,0,0-.536.9,3.623,3.623,0,0,0-.192,1.224,3.529,3.529,0,0,0,.192,1.2,2.536,2.536,0,0,0,.536.9,2.318,2.318,0,0,0,.8.556,2.581,2.581,0,0,0,1,.192,2.506,2.506,0,0,0,.968-0.192,2.359,2.359,0,0,0,.812-0.556,2.7,2.7,0,0,0,.556-0.9,3.276,3.276,0,0,0,.208-1.2A3.548,3.548,0,0,0,260.783,142.032Zm-1.028,2.108a1.63,1.63,0,0,1-.308.592,1.132,1.132,0,0,1-.456.328,1.6,1.6,0,0,1-1.112,0,1.1,1.1,0,0,1-.452-0.328,1.623,1.623,0,0,1-.3-0.592,3.135,3.135,0,0,1-.108-0.884,3.221,3.221,0,0,1,.108-0.9,1.717,1.717,0,0,1,.3-0.6,1.122,1.122,0,0,1,.452-0.34,1.538,1.538,0,0,1,1.112,0,1.154,1.154,0,0,1,.456.34,1.725,1.725,0,0,1,.308.6,3.1,3.1,0,0,1,.112.9A3.019,3.019,0,0,1,259.755,144.14Zm-3.1,7.812h1.056a0.521,0.521,0,0,0,.264-0.064,0.617,0.617,0,0,0,.192-0.168l8.376-11.232h-1.024a0.559,0.559,0,0,0-.308.076,0.929,0.929,0,0,0-.22.212Zm10.472-3.932a2.581,2.581,0,0,0-.536-0.908,2.3,2.3,0,0,0-.808-0.56,2.711,2.711,0,0,0-2,0,2.3,2.3,0,0,0-.8.56,2.581,2.581,0,0,0-.536.908,3.655,3.655,0,0,0-.192,1.228,3.5,3.5,0,0,0,.192,1.2,2.545,2.545,0,0,0,.536.892,2.318,2.318,0,0,0,.8.556,2.581,2.581,0,0,0,1,.192,2.479,2.479,0,0,0,.964-0.192,2.362,2.362,0,0,0,.808-0.556,2.709,2.709,0,0,0,.556-0.892,3.247,3.247,0,0,0,.208-1.2A3.655,3.655,0,0,0,267.123,148.02Zm-1.024,2.108a1.635,1.635,0,0,1-.308.588,1.132,1.132,0,0,1-.456.328,1.6,1.6,0,0,1-1.112,0,1.1,1.1,0,0,1-.452-0.328,1.627,1.627,0,0,1-.3-0.588,3.1,3.1,0,0,1-.108-0.88,3.261,3.261,0,0,1,.108-0.9,1.667,1.667,0,0,1,.3-0.6,1.139,1.139,0,0,1,.452-0.336,1.538,1.538,0,0,1,1.112,0,1.173,1.173,0,0,1,.456.336,1.674,1.674,0,0,1,.308.6,3.139,3.139,0,0,1,.112.9A2.981,2.981,0,0,1,266.1,150.128Z"/>
  <path id="GWAS_SNPs-_14_" data-name="GWAS SNPs- 14%" class="cls-4" d="M182.5,203.512a3.739,3.739,0,0,1-1.328-.9,4.091,4.091,0,0,1-.868-1.444,5.69,5.69,0,0,1-.308-1.94,5.607,5.607,0,0,1,.3-1.876,4,4,0,0,1,.848-1.424,3.707,3.707,0,0,1,1.336-.9,4.664,4.664,0,0,1,1.752-.316,5.553,5.553,0,0,1,1.148.1,4.965,4.965,0,0,1,.84.252,3.924,3.924,0,0,1,.6.308c0.165,0.107.315,0.2,0.448,0.272a0.564,0.564,0,0,0,.28.088,0.405,0.405,0,0,0,.352-0.216l0.44-.7a5.633,5.633,0,0,0-.792-0.6,5.159,5.159,0,0,0-.924-0.456,5.963,5.963,0,0,0-1.084-.288,7.569,7.569,0,0,0-1.264-.1,6.633,6.633,0,0,0-2.428.424,5.142,5.142,0,0,0-3.024,3.048,6.658,6.658,0,0,0-.412,2.392,6.5,6.5,0,0,0,.42,2.376A5.447,5.447,0,0,0,180,203.452a5.259,5.259,0,0,0,1.792,1.2,5.942,5.942,0,0,0,2.288.428A10.6,10.6,0,0,0,185.4,205a7.3,7.3,0,0,0,1.14-.232,6.088,6.088,0,0,0,1-.388,6.3,6.3,0,0,0,.9-0.544v-4.4h-3.52v0.88a0.286,0.286,0,0,0,.092.216,0.337,0.337,0,0,0,.244.088h1.776v2.528a6.63,6.63,0,0,1-.608.284,4.87,4.87,0,0,1-.648.212,5.3,5.3,0,0,1-.732.132,7.449,7.449,0,0,1-.852.044A4.465,4.465,0,0,1,182.5,203.512Zm10.88,1.44h1.392l2.92-8.744c0.027-.08.052-0.169,0.076-0.268s0.049-.2.076-0.308a4.742,4.742,0,0,0,.16.576l2.9,8.744H202.3l3.576-11.464h-1.208a0.531,0.531,0,0,0-.34.112,0.505,0.505,0,0,0-.18.256l-2.376,7.968a3.469,3.469,0,0,0-.1.448c-0.027.16-.056,0.328-0.088,0.5a7.926,7.926,0,0,0-.256-0.952l-2.68-7.968a0.573,0.573,0,0,0-.188-0.264,0.534,0.534,0,0,0-.34-0.1h-0.448a0.517,0.517,0,0,0-.34.116,0.6,0.6,0,0,0-.188.252l-2.7,7.968a4.134,4.134,0,0,0-.128.46c-0.037.168-.075,0.343-0.112,0.524q-0.048-.271-0.1-0.52c-0.035-.165-0.073-0.32-0.116-0.464l-2.368-7.968a0.513,0.513,0,0,0-.184-0.264,0.552,0.552,0,0,0-.344-0.1H189.8Zm17.8-11.464H209.6l-4.584,11.464h1.2a0.511,0.511,0,0,0,.336-0.112,0.615,0.615,0,0,0,.192-0.256l1.072-2.768h5.144l1.072,2.768a0.641,0.641,0,0,0,.192.264,0.511,0.511,0,0,0,.336.1h1.2Zm-1.128,2.552c0.053-.138.108-0.3,0.164-0.484s0.113-.385.172-0.6a8.774,8.774,0,0,0,.344,1.08l1.8,4.664h-4.28Zm13.528-1.5a4.043,4.043,0,0,0-1.384-.88,4.867,4.867,0,0,0-1.752-.3,4.057,4.057,0,0,0-1.516.264,3.324,3.324,0,0,0-1.108.7,3.056,3.056,0,0,0-.92,2.184,3.067,3.067,0,0,0,.236,1.276,2.565,2.565,0,0,0,.62.86,3.26,3.26,0,0,0,.876.56,10.082,10.082,0,0,0,1.008.38l1.008,0.32a4.353,4.353,0,0,1,.876.38,1.965,1.965,0,0,1,.62.556,1.442,1.442,0,0,1,.236.852,2.2,2.2,0,0,1-.16.856,1.859,1.859,0,0,1-.46.66,2.085,2.085,0,0,1-.732.428,2.939,2.939,0,0,1-.984.152,3.094,3.094,0,0,1-1.124-.18,4.115,4.115,0,0,1-.784-0.4,6.4,6.4,0,0,1-.54-0.4,0.637,0.637,0,0,0-.384-0.18,0.364,0.364,0,0,0-.2.06,0.61,0.61,0,0,0-.156.148l-0.448.736a4.744,4.744,0,0,0,1.564,1.092,4.963,4.963,0,0,0,2.028.4,4.435,4.435,0,0,0,1.628-.28,3.483,3.483,0,0,0,1.208-.768,3.257,3.257,0,0,0,.748-1.148,3.861,3.861,0,0,0,.256-1.412,2.751,2.751,0,0,0-.236-1.2,2.529,2.529,0,0,0-.624-0.824,3.561,3.561,0,0,0-.88-0.556q-0.492-.219-1.008-0.4l-1.008-.34a4.724,4.724,0,0,1-.88-0.388,2.017,2.017,0,0,1-.624-0.54,1.294,1.294,0,0,1-.236-0.8,1.787,1.787,0,0,1,.136-0.7,1.56,1.56,0,0,1,.4-0.564,1.967,1.967,0,0,1,.668-0.38,2.788,2.788,0,0,1,.92-0.14,2.876,2.876,0,0,1,.94.136,3.737,3.737,0,0,1,.664.3,5.339,5.339,0,0,1,.456.3,0.551,0.551,0,0,0,.316.136,0.338,0.338,0,0,0,.208-0.06,0.625,0.625,0,0,0,.152-0.18Zm12,0a4.043,4.043,0,0,0-1.384-.88,4.867,4.867,0,0,0-1.752-.3,4.057,4.057,0,0,0-1.516.264,3.324,3.324,0,0,0-1.108.7,3.056,3.056,0,0,0-.92,2.184,3.067,3.067,0,0,0,.236,1.276,2.565,2.565,0,0,0,.62.86,3.26,3.26,0,0,0,.876.56,10.082,10.082,0,0,0,1.008.38l1.008,0.32a4.353,4.353,0,0,1,.876.38,1.965,1.965,0,0,1,.62.556,1.442,1.442,0,0,1,.236.852,2.2,2.2,0,0,1-.16.856,1.859,1.859,0,0,1-.46.66,2.085,2.085,0,0,1-.732.428,2.939,2.939,0,0,1-.984.152,3.094,3.094,0,0,1-1.124-.18,4.115,4.115,0,0,1-.784-0.4,6.4,6.4,0,0,1-.54-0.4,0.637,0.637,0,0,0-.384-0.18,0.364,0.364,0,0,0-.2.06,0.61,0.61,0,0,0-.156.148l-0.448.736a4.744,4.744,0,0,0,1.564,1.092,4.963,4.963,0,0,0,2.028.4,4.435,4.435,0,0,0,1.628-.28,3.483,3.483,0,0,0,1.208-.768,3.257,3.257,0,0,0,.748-1.148,3.861,3.861,0,0,0,.256-1.412,2.751,2.751,0,0,0-.236-1.2,2.529,2.529,0,0,0-.624-0.824,3.561,3.561,0,0,0-.88-0.556q-0.492-.219-1.008-0.4l-1.008-.34a4.724,4.724,0,0,1-.88-0.388,2.017,2.017,0,0,1-.624-0.54,1.294,1.294,0,0,1-.236-0.8,1.787,1.787,0,0,1,.136-0.7,1.56,1.56,0,0,1,.4-0.564,1.967,1.967,0,0,1,.668-0.38,2.788,2.788,0,0,1,.92-0.14,2.876,2.876,0,0,1,.94.136,3.737,3.737,0,0,1,.664.3,5.339,5.339,0,0,1,.456.3,0.551,0.551,0,0,0,.316.136,0.338,0.338,0,0,0,.208-0.06,0.625,0.625,0,0,0,.152-0.18Zm3.552-1.056h-0.8v11.464h1.36v-8.168c0-.106,0-0.224-0.008-0.352s-0.013-.258-0.024-0.392l6.632,8.632a0.758,0.758,0,0,0,.244.216,0.663,0.663,0,0,0,.308.064h0.784V193.488h-1.36v8.12c0,0.123,0,.25.008,0.38s0.016,0.266.032,0.4l-6.64-8.64a0.8,0.8,0,0,0-.228-0.212,0.706,0.706,0,0,0-.308-0.052h0Zm14.744,7.176a5.749,5.749,0,0,0,1.832-.268,3.8,3.8,0,0,0,1.34-.748,3.151,3.151,0,0,0,.82-1.144,3.72,3.72,0,0,0,.28-1.464,3.954,3.954,0,0,0-.26-1.464,2.889,2.889,0,0,0-.788-1.12,3.639,3.639,0,0,0-1.332-.716,6.352,6.352,0,0,0-1.892-.252h-3.384v11.464h1.544v-4.288h1.84Zm-1.84-5.952h1.84a2.954,2.954,0,0,1,2.044.616,2.2,2.2,0,0,1,.676,1.712,2.589,2.589,0,0,1-.176.968,2.032,2.032,0,0,1-.52.756,2.388,2.388,0,0,1-.852.492,3.558,3.558,0,0,1-1.172.176h-1.84v-4.72Zm13.032,2.952a3.4,3.4,0,0,0-1.1-.692,3.873,3.873,0,0,0-1.436-.252,3.615,3.615,0,0,0-1.224.192,2.758,2.758,0,0,0-.9.516,2.195,2.195,0,0,0-.56.752,2.159,2.159,0,0,0-.192.892,1.976,1.976,0,0,0,.18.884,1.864,1.864,0,0,0,.476.612,2.7,2.7,0,0,0,.676.412q0.379,0.165.776,0.292t0.776,0.244a3.932,3.932,0,0,1,.676.272,1.533,1.533,0,0,1,.476.376,0.85,0.85,0,0,1,.18.556,1.309,1.309,0,0,1-.1.512,1.151,1.151,0,0,1-.308.424,1.527,1.527,0,0,1-.52.292,2.227,2.227,0,0,1-.728.108,2.508,2.508,0,0,1-.812-0.112,2.921,2.921,0,0,1-.552-0.248q-0.228-.135-0.388-0.248a0.542,0.542,0,0,0-.3-0.112,0.431,0.431,0,0,0-.232.056,0.5,0.5,0,0,0-.152.16l-0.336.544a3.888,3.888,0,0,0,1.168.708,4.1,4.1,0,0,0,1.536.276,3.954,3.954,0,0,0,1.312-.2,2.843,2.843,0,0,0,.96-0.548,2.255,2.255,0,0,0,.592-0.824,2.65,2.65,0,0,0,.2-1.036,1.8,1.8,0,0,0-.18-0.836,1.834,1.834,0,0,0-.476-0.588,2.8,2.8,0,0,0-.672-0.4c-0.251-.106-0.508-0.2-0.772-0.292s-0.521-.17-0.772-0.248a4.037,4.037,0,0,1-.672-0.268,1.558,1.558,0,0,1-.476-0.36,0.765,0.765,0,0,1-.18-0.52,1,1,0,0,1,.108-0.46,1.121,1.121,0,0,1,.312-0.372,1.584,1.584,0,0,1,.492-0.252,2.135,2.135,0,0,1,.648-0.092,2.515,2.515,0,0,1,.72.092,3.568,3.568,0,0,1,.524.2c0.147,0.072.271,0.138,0.372,0.2a0.552,0.552,0,0,0,.272.088,0.315,0.315,0,0,0,.3-0.176Zm1.672,3.1h3.952v-1.208h-3.952v1.208Zm10.5,4.192h6.144v-1.088h-2.256v-10.4h-1.16l-3.408,2.952L277,197.032a0.387,0.387,0,0,0,.144.124,0.442,0.442,0,0,0,.216.052,0.45,0.45,0,0,0,.152-0.028,0.527,0.527,0,0,0,.16-0.092l2.048-1.752c-0.016.24-.024,0.478-0.024,0.712v7.816h-2.464v1.088Zm13.928-11.464h-1.328l-5.576,7.4,0.144,0.728a0.4,0.4,0,0,0,.148.228,0.426,0.426,0,0,0,.276.092h5.08v3.016h1.256v-3.016h1.424a0.294,0.294,0,0,0,.236-0.088,0.315,0.315,0,0,0,.076-0.216v-0.816h-1.736v-7.328Zm-1.256,7.328h-4.1l4.168-5.672a4.672,4.672,0,0,0-.052.5c-0.008.16-.012,0.31-0.012,0.448v4.728Zm8.492-5.784a2.668,2.668,0,0,0-.536-0.9,2.255,2.255,0,0,0-.808-0.56,2.62,2.62,0,0,0-1-.192,2.581,2.581,0,0,0-1,.192,2.3,2.3,0,0,0-.8.56,2.59,2.59,0,0,0-.536.9,3.623,3.623,0,0,0-.192,1.224,3.529,3.529,0,0,0,.192,1.2,2.536,2.536,0,0,0,.536.9,2.318,2.318,0,0,0,.8.556,2.581,2.581,0,0,0,1,.192,2.506,2.506,0,0,0,.968-0.192,2.359,2.359,0,0,0,.812-0.556,2.7,2.7,0,0,0,.556-0.9,3.276,3.276,0,0,0,.208-1.2A3.548,3.548,0,0,0,298.4,195.032Zm-1.028,2.108a1.63,1.63,0,0,1-.308.592,1.132,1.132,0,0,1-.456.328,1.6,1.6,0,0,1-1.112,0,1.1,1.1,0,0,1-.452-0.328,1.623,1.623,0,0,1-.3-0.592,3.135,3.135,0,0,1-.108-0.884,3.221,3.221,0,0,1,.108-0.9,1.717,1.717,0,0,1,.3-0.6,1.122,1.122,0,0,1,.452-0.34,1.538,1.538,0,0,1,1.112,0,1.154,1.154,0,0,1,.456.34,1.725,1.725,0,0,1,.308.6,3.1,3.1,0,0,1,.112.9A3.019,3.019,0,0,1,297.371,197.14Zm-3.1,7.812h1.056a0.521,0.521,0,0,0,.264-0.064,0.617,0.617,0,0,0,.192-0.168l8.376-11.232h-1.024a0.559,0.559,0,0,0-.308.076,0.929,0.929,0,0,0-.22.212Zm10.472-3.932a2.581,2.581,0,0,0-.536-0.908,2.3,2.3,0,0,0-.808-0.56,2.711,2.711,0,0,0-2,0,2.3,2.3,0,0,0-.8.56,2.581,2.581,0,0,0-.536.908,3.655,3.655,0,0,0-.192,1.228,3.5,3.5,0,0,0,.192,1.2,2.545,2.545,0,0,0,.536.892,2.318,2.318,0,0,0,.8.556,2.581,2.581,0,0,0,1,.192,2.479,2.479,0,0,0,.964-0.192,2.362,2.362,0,0,0,.808-0.556,2.709,2.709,0,0,0,.556-0.892,3.247,3.247,0,0,0,.208-1.2A3.655,3.655,0,0,0,304.739,201.02Zm-1.024,2.108a1.635,1.635,0,0,1-.308.588,1.132,1.132,0,0,1-.456.328,1.6,1.6,0,0,1-1.112,0,1.1,1.1,0,0,1-.452-0.328,1.627,1.627,0,0,1-.3-0.588,3.1,3.1,0,0,1-.108-0.88,3.261,3.261,0,0,1,.108-0.9,1.667,1.667,0,0,1,.3-0.6,1.139,1.139,0,0,1,.452-0.336,1.538,1.538,0,0,1,1.112,0,1.173,1.173,0,0,1,.456.336,1.674,1.674,0,0,1,.308.6,3.139,3.139,0,0,1,.112.9A2.981,2.981,0,0,1,303.715,203.128Z"/>
  <path id="Other-_50_" data-name="Other- 50%" class="cls-4" d="M189.323,289.86A5.46,5.46,0,0,0,188.171,288a5.168,5.168,0,0,0-1.788-1.212,6.371,6.371,0,0,0-4.612,0A5.18,5.18,0,0,0,179.987,288a5.46,5.46,0,0,0-1.152,1.856,7.053,7.053,0,0,0,0,4.728,5.4,5.4,0,0,0,1.152,1.852,5.147,5.147,0,0,0,1.784,1.2,6.426,6.426,0,0,0,4.612,0,5.135,5.135,0,0,0,1.788-1.2,5.4,5.4,0,0,0,1.152-1.852A7.053,7.053,0,0,0,189.323,289.86Zm-1.472,4.256a4,4,0,0,1-.816,1.416,3.494,3.494,0,0,1-1.28.888,4.714,4.714,0,0,1-3.352,0,3.534,3.534,0,0,1-1.284-.888,3.966,3.966,0,0,1-.82-1.416,6.372,6.372,0,0,1,0-3.788,3.976,3.976,0,0,1,.82-1.42,3.593,3.593,0,0,1,1.284-.892,4.658,4.658,0,0,1,3.352,0,3.552,3.552,0,0,1,1.28.892,4.013,4.013,0,0,1,.816,1.42A6.372,6.372,0,0,1,187.851,294.116Zm7.536,3.768a2.625,2.625,0,0,0,.888-0.54l-0.416-.68a0.247,0.247,0,0,0-.2-0.136,0.266,0.266,0,0,0-.148.06q-0.084.06-.2,0.132a1.677,1.677,0,0,1-.284.132,1.13,1.13,0,0,1-.388.06,0.864,0.864,0,0,1-.64-0.248,1.034,1.034,0,0,1-.248-0.76V291.04h2.32v-1.032h-2.32v-2.792h-0.72a0.334,0.334,0,0,0-.224.076,0.3,0.3,0,0,0-.1.2l-0.328,2.5-1.328.168v0.568a0.293,0.293,0,0,0,.088.236,0.318,0.318,0,0,0,.216.076h0.976V296a2.138,2.138,0,0,0,.516,1.544,1.951,1.951,0,0,0,1.476.536A3.009,3.009,0,0,0,195.387,297.884Zm3.9,0.068v-5.968a3.906,3.906,0,0,1,1.012-.824,2.4,2.4,0,0,1,1.18-.3,1.572,1.572,0,0,1,1.284.508,2.182,2.182,0,0,1,.42,1.428v5.16H204.6v-5.16a4.246,4.246,0,0,0-.176-1.256,2.757,2.757,0,0,0-.516-0.972,2.275,2.275,0,0,0-.848-0.624,2.938,2.938,0,0,0-1.172-.22,3.089,3.089,0,0,0-1.456.332,4.4,4.4,0,0,0-1.152.884v-4.768h-1.424v11.784h1.424Zm9.2-7.924a3.452,3.452,0,0,0-1.192.848,3.74,3.74,0,0,0-.748,1.276,4.733,4.733,0,0,0-.26,1.584,5.51,5.51,0,0,0,.288,1.856,3.811,3.811,0,0,0,.8,1.356,3.385,3.385,0,0,0,1.224.832,4.127,4.127,0,0,0,1.548.284,5.273,5.273,0,0,0,.888-0.076,4.881,4.881,0,0,0,.868-0.228,3.874,3.874,0,0,0,.788-0.388,2.689,2.689,0,0,0,.632-0.556l-0.4-.52a0.315,0.315,0,0,0-.272-0.136,0.624,0.624,0,0,0-.324.124,4.933,4.933,0,0,1-.468.268,4.328,4.328,0,0,1-.668.268,3.044,3.044,0,0,1-.924.124,2.733,2.733,0,0,1-1.04-.188,2.107,2.107,0,0,1-.8-0.568,2.726,2.726,0,0,1-.528-0.948,4.481,4.481,0,0,1-.208-1.336h5.392a0.3,0.3,0,0,0,.272-0.112,0.927,0.927,0,0,0,.072-0.448,4.39,4.39,0,0,0-.252-1.54,3.214,3.214,0,0,0-.7-1.136,3.03,3.03,0,0,0-1.064-.7,3.634,3.634,0,0,0-1.344-.244A3.916,3.916,0,0,0,208.483,290.028Zm2.484,0.9a1.8,1.8,0,0,1,.644.464,2.034,2.034,0,0,1,.4.712,2.878,2.878,0,0,1,.136.908h-4.408a2.805,2.805,0,0,1,.736-1.652A2.466,2.466,0,0,1,210.967,290.932Zm5.316,7.02v-5.16a3.249,3.249,0,0,1,.836-1.256,1.835,1.835,0,0,1,1.244-.432,2.195,2.195,0,0,1,.648.076,1.232,1.232,0,0,0,.344.076,0.24,0.24,0,0,0,.248-0.2l0.184-1.064a2.173,2.173,0,0,0-.5-0.212,2.422,2.422,0,0,0-2.044.4,3.712,3.712,0,0,0-1.028,1.324l-0.1-1.264a0.536,0.536,0,0,0-.12-0.3,0.454,0.454,0,0,0-.32-0.088h-0.816v8.1h1.424Zm4.208-4.192h3.952v-1.208h-3.952v1.208Zm16.024-7.272h-5.432l-0.928,5.36,0.9,0.264a6.354,6.354,0,0,1,.96-0.232,5.84,5.84,0,0,1,.9-0.072,3.294,3.294,0,0,1,1.1.168,2.175,2.175,0,0,1,.788.472,1.9,1.9,0,0,1,.472.736,2.837,2.837,0,0,1,.156.968,3.167,3.167,0,0,1-.184,1.112,2.445,2.445,0,0,1-.524.852,2.292,2.292,0,0,1-.82.548,2.886,2.886,0,0,1-1.08.192,3.044,3.044,0,0,1-.924-0.124,4.049,4.049,0,0,1-.676-0.276q-0.288-.151-0.492-0.276a0.721,0.721,0,0,0-.356-0.124,0.447,0.447,0,0,0-.384.208l-0.432.608a4.321,4.321,0,0,0,.608.456,5.1,5.1,0,0,0,.744.384,4.847,4.847,0,0,0,.864.268,4.559,4.559,0,0,0,.968.1,4.61,4.61,0,0,0,1.624-.28,3.82,3.82,0,0,0,1.308-.8,3.763,3.763,0,0,0,.876-1.26,4.1,4.1,0,0,0,.32-1.648,3.914,3.914,0,0,0-.236-1.376,3.036,3.036,0,0,0-.7-1.1,3.257,3.257,0,0,0-1.148-.728,4.371,4.371,0,0,0-1.58-.264,7.937,7.937,0,0,0-1.656.192l0.528-3.008h3.6a0.883,0.883,0,0,0,.648-0.2,0.683,0.683,0,0,0,.192-0.5v-0.624Zm9.652,3.128a5.493,5.493,0,0,0-.884-1.828,3.547,3.547,0,0,0-1.324-1.076,3.978,3.978,0,0,0-3.272,0,3.563,3.563,0,0,0-1.316,1.076,5.433,5.433,0,0,0-.88,1.828,10.771,10.771,0,0,0,0,5.212,5.38,5.38,0,0,0,.88,1.82,3.561,3.561,0,0,0,1.316,1.072,3.978,3.978,0,0,0,3.272,0,3.546,3.546,0,0,0,1.324-1.072,5.44,5.44,0,0,0,.884-1.82A10.642,10.642,0,0,0,246.167,289.616Zm-1.376,4.808a4.42,4.42,0,0,1-.592,1.432,2.232,2.232,0,0,1-.86.78,2.3,2.3,0,0,1-2.032,0,2.2,2.2,0,0,1-.856-0.78,4.489,4.489,0,0,1-.588-1.432,11.13,11.13,0,0,1,0-4.4,4.5,4.5,0,0,1,.588-1.436,2.217,2.217,0,0,1,.856-0.78,2.3,2.3,0,0,1,2.032,0,2.248,2.248,0,0,1,.86.78,4.436,4.436,0,0,1,.592,1.436A11.13,11.13,0,0,1,244.791,294.424Zm7.36-6.392a2.668,2.668,0,0,0-.536-0.9,2.255,2.255,0,0,0-.808-0.56,2.62,2.62,0,0,0-1-.192,2.581,2.581,0,0,0-1,.192,2.3,2.3,0,0,0-.8.56,2.59,2.59,0,0,0-.536.9,3.623,3.623,0,0,0-.192,1.224,3.529,3.529,0,0,0,.192,1.2,2.536,2.536,0,0,0,.536.9,2.318,2.318,0,0,0,.8.556,2.581,2.581,0,0,0,1,.192,2.506,2.506,0,0,0,.968-0.192,2.359,2.359,0,0,0,.812-0.556,2.7,2.7,0,0,0,.556-0.9,3.276,3.276,0,0,0,.208-1.2A3.548,3.548,0,0,0,252.151,288.032Zm-1.028,2.108a1.63,1.63,0,0,1-.308.592,1.132,1.132,0,0,1-.456.328,1.6,1.6,0,0,1-1.112,0,1.1,1.1,0,0,1-.452-0.328,1.623,1.623,0,0,1-.3-0.592,3.135,3.135,0,0,1-.108-0.884,3.221,3.221,0,0,1,.108-0.9,1.717,1.717,0,0,1,.3-0.6,1.122,1.122,0,0,1,.452-0.34,1.538,1.538,0,0,1,1.112,0,1.154,1.154,0,0,1,.456.34,1.725,1.725,0,0,1,.308.6,3.1,3.1,0,0,1,.112.9A3.019,3.019,0,0,1,251.123,290.14Zm-3.1,7.812h1.056a0.521,0.521,0,0,0,.264-0.064,0.617,0.617,0,0,0,.192-0.168l8.376-11.232h-1.024a0.559,0.559,0,0,0-.308.076,0.929,0.929,0,0,0-.22.212Zm10.472-3.932a2.581,2.581,0,0,0-.536-0.908,2.3,2.3,0,0,0-.808-0.56,2.711,2.711,0,0,0-2,0,2.3,2.3,0,0,0-.8.56,2.581,2.581,0,0,0-.536.908,3.655,3.655,0,0,0-.192,1.228,3.5,3.5,0,0,0,.192,1.2,2.545,2.545,0,0,0,.536.892,2.318,2.318,0,0,0,.8.556,2.581,2.581,0,0,0,1,.192,2.479,2.479,0,0,0,.964-0.192,2.362,2.362,0,0,0,.808-0.556,2.709,2.709,0,0,0,.556-0.892,3.247,3.247,0,0,0,.208-1.2A3.655,3.655,0,0,0,258.491,294.02Zm-1.024,2.108a1.635,1.635,0,0,1-.308.588,1.132,1.132,0,0,1-.456.328,1.6,1.6,0,0,1-1.112,0,1.1,1.1,0,0,1-.452-0.328,1.627,1.627,0,0,1-.3-0.588,3.1,3.1,0,0,1-.108-0.88,3.261,3.261,0,0,1,.108-0.9,1.667,1.667,0,0,1,.3-0.6,1.139,1.139,0,0,1,.452-0.336,1.538,1.538,0,0,1,1.112,0,1.173,1.173,0,0,1,.456.336,1.674,1.674,0,0,1,.308.6,3.139,3.139,0,0,1,.112.9A2.981,2.981,0,0,1,257.467,296.128Z"/>
</svg>
