<svg id="Advanced_testing_techniques_in_Prima" data-name="Advanced testing techniques in Prima" xmlns="http://www.w3.org/2000/svg" width="499" height="298" viewBox="0 0 499 298">
  <defs>
    <style>
      .cls-1 {
        fill: #9cf2de;
      }

      .cls-2 {
        fill: #7dd3da;
      }

      .cls-3 {
        fill: #8fe5ed;
      }

      .cls-4 {
        fill: #a2eeeb;
      }

      .cls-5 {
        fill: #555;
        fill-rule: evenodd;
      }
    </style>
  </defs>
  <rect id="Background" class="cls-1" width="244.875" height="298"/>
  <rect id="Background-2" data-name="Background" class="cls-2" x="253.75" y="265.188" width="245.25" height="32.812"/>
  <rect id="Background-3" data-name="Background" class="cls-3" x="253.75" y="227.406" width="245.25" height="32.782"/>
  <rect id="Background-4" data-name="Background" class="cls-4" x="253.75" y="188.813" width="245.25" height="32.781"/>
  <rect id="Background-5" data-name="Background" class="cls-1" x="253.75" y="151" width="245.25" height="32.813"/>
  <path id="Next_Generation_Sequencing_NGS_" data-name="Next Generation Sequencing (NGS)" class="cls-5" d="M59.5,24.529H58.6v12.9h1.53V28.237q0-.18-0.009-0.4T60.092,27.4l7.461,9.711a0.871,0.871,0,0,0,.275.243,0.749,0.749,0,0,0,.346.072h0.882v-12.9h-1.53v9.135q0,0.207.009,0.428t0.036,0.455l-7.47-9.72a0.9,0.9,0,0,0-.257-0.239,0.785,0.785,0,0,0-.346-0.058h0Zm14.679,3.983a3.874,3.874,0,0,0-1.341.954,4.2,4.2,0,0,0-.841,1.436,5.313,5.313,0,0,0-.293,1.782,6.2,6.2,0,0,0,.324,2.088,4.292,4.292,0,0,0,.9,1.526,3.82,3.82,0,0,0,1.377.936,4.636,4.636,0,0,0,1.741.32,5.966,5.966,0,0,0,1-.086,5.613,5.613,0,0,0,.977-0.257,4.416,4.416,0,0,0,.886-0.436,3.04,3.04,0,0,0,.711-0.626l-0.45-.585a0.353,0.353,0,0,0-.306-0.153,0.7,0.7,0,0,0-.365.139,5.709,5.709,0,0,1-.526.3,4.939,4.939,0,0,1-.751.3,3.43,3.43,0,0,1-1.04.139,3.088,3.088,0,0,1-1.17-.212,2.378,2.378,0,0,1-.9-0.639,3.071,3.071,0,0,1-.594-1.066,5.033,5.033,0,0,1-.234-1.5h6.066a0.336,0.336,0,0,0,.306-0.126,1.044,1.044,0,0,0,.081-0.5,4.938,4.938,0,0,0-.284-1.733,3.613,3.613,0,0,0-.788-1.278,3.4,3.4,0,0,0-1.2-.792,4.072,4.072,0,0,0-1.512-.274A4.4,4.4,0,0,0,74.177,28.512Zm2.795,1.017a2.016,2.016,0,0,1,.724.522,2.279,2.279,0,0,1,.45.8,3.245,3.245,0,0,1,.153,1.021H73.34a3.156,3.156,0,0,1,.828-1.858A2.774,2.774,0,0,1,76.971,29.529Zm2.777,7.9h1.431a0.383,0.383,0,0,0,.283-0.1,1.82,1.82,0,0,0,.194-0.23l2.124-3.1a1.632,1.632,0,0,0,.189-0.468l2.3,3.573a0.946,0.946,0,0,0,.184.23,0.44,0.44,0,0,0,.311.1H88.3l-3.2-4.761,3.069-4.356H86.7a0.336,0.336,0,0,0-.225.076,1.114,1.114,0,0,0-.18.2l-1.962,2.88a2.37,2.37,0,0,0-.234.5l-2.232-3.42a0.6,0.6,0,0,0-.162-0.18,0.513,0.513,0,0,0-.288-0.063H79.874l3.069,4.446Zm14.031-.076a2.983,2.983,0,0,0,1-.608l-0.468-.765a0.276,0.276,0,0,0-.225-0.153,0.3,0.3,0,0,0-.166.067q-0.094.068-.23,0.149a1.877,1.877,0,0,1-.319.148,1.272,1.272,0,0,1-.437.068,0.974,0.974,0,0,1-.72-0.279,1.163,1.163,0,0,1-.279-0.855V29.65h2.61V28.489h-2.61V25.348h-0.81a0.372,0.372,0,0,0-.252.085,0.34,0.34,0,0,0-.117.221l-0.369,2.817-1.494.189V29.3a0.332,0.332,0,0,0,.1.265,0.358,0.358,0,0,0,.243.085h1.1v5.58a2.406,2.406,0,0,0,.581,1.737,2.2,2.2,0,0,0,1.66.6A3.393,3.393,0,0,0,93.779,37.35ZM104.9,35.806a4.213,4.213,0,0,1-1.494-1.017,4.609,4.609,0,0,1-.977-1.624,6.4,6.4,0,0,1-.346-2.183,6.3,6.3,0,0,1,.333-2.11,4.5,4.5,0,0,1,.954-1.6,4.17,4.17,0,0,1,1.5-1.017,5.232,5.232,0,0,1,1.971-.356,6.223,6.223,0,0,1,1.291.117,5.489,5.489,0,0,1,.945.284,4.341,4.341,0,0,1,.68.347q0.279,0.18.5,0.306a0.637,0.637,0,0,0,.315.1,0.455,0.455,0,0,0,.4-0.243l0.5-.792a6.359,6.359,0,0,0-.891-0.68,5.7,5.7,0,0,0-1.04-.513,6.658,6.658,0,0,0-1.219-.324,8.447,8.447,0,0,0-1.422-.112,7.45,7.45,0,0,0-2.732.477,5.785,5.785,0,0,0-3.4,3.429,7.5,7.5,0,0,0-.463,2.691,7.315,7.315,0,0,0,.472,2.673,6.129,6.129,0,0,0,1.319,2.084,5.924,5.924,0,0,0,2.016,1.35,6.7,6.7,0,0,0,2.574.481,12.008,12.008,0,0,0,1.485-.085,8.14,8.14,0,0,0,1.282-.261,6.887,6.887,0,0,0,1.125-.436,7.151,7.151,0,0,0,1.013-.612v-4.95h-3.96v0.99a0.322,0.322,0,0,0,.1.243,0.381,0.381,0,0,0,.275.1h2V35.4q-0.342.18-.684,0.319a5.579,5.579,0,0,1-.729.239,6.069,6.069,0,0,1-.824.148,8.512,8.512,0,0,1-.958.05A5.024,5.024,0,0,1,104.9,35.806Zm10.728-7.294a3.875,3.875,0,0,0-1.341.954,4.2,4.2,0,0,0-.842,1.436,5.313,5.313,0,0,0-.292,1.782,6.2,6.2,0,0,0,.324,2.088,4.291,4.291,0,0,0,.9,1.526,3.82,3.82,0,0,0,1.377.936,4.638,4.638,0,0,0,1.742.32,5.964,5.964,0,0,0,1-.086,5.607,5.607,0,0,0,.976-0.257,4.42,4.42,0,0,0,.887-0.436,3.038,3.038,0,0,0,.711-0.626l-0.45-.585a0.353,0.353,0,0,0-.306-0.153,0.7,0.7,0,0,0-.365.139,5.694,5.694,0,0,1-.526.3,4.943,4.943,0,0,1-.752.3,3.426,3.426,0,0,1-1.039.139,3.089,3.089,0,0,1-1.17-.212,2.378,2.378,0,0,1-.9-0.639,3.071,3.071,0,0,1-.594-1.066,5.033,5.033,0,0,1-.234-1.5h6.066a0.336,0.336,0,0,0,.306-0.126,1.044,1.044,0,0,0,.081-0.5,4.938,4.938,0,0,0-.284-1.733,3.612,3.612,0,0,0-.787-1.278,3.4,3.4,0,0,0-1.2-.792,4.072,4.072,0,0,0-1.512-.274A4.4,4.4,0,0,0,115.631,28.512Zm2.794,1.017a2.017,2.017,0,0,1,.725.522,2.277,2.277,0,0,1,.45.8,3.245,3.245,0,0,1,.153,1.021h-4.959a3.156,3.156,0,0,1,.828-1.858A2.773,2.773,0,0,1,118.425,29.529Zm5.981,7.9V30.712a4.374,4.374,0,0,1,1.138-.927,2.7,2.7,0,0,1,1.328-.342,1.766,1.766,0,0,1,1.444.572,2.454,2.454,0,0,1,.473,1.606v5.805h1.6v-5.8a4.76,4.76,0,0,0-.2-1.413,3.1,3.1,0,0,0-.581-1.094,2.553,2.553,0,0,0-.954-0.7,3.291,3.291,0,0,0-1.318-.248,3.455,3.455,0,0,0-1.7.405,5.124,5.124,0,0,0-1.327,1.062l-0.126-.99a0.409,0.409,0,0,0-.432-0.333H122.8v9.117h1.6Zm10.224-8.914a3.875,3.875,0,0,0-1.341.954,4.2,4.2,0,0,0-.842,1.436,5.313,5.313,0,0,0-.292,1.782,6.2,6.2,0,0,0,.324,2.088,4.291,4.291,0,0,0,.9,1.526,3.82,3.82,0,0,0,1.377.936,4.638,4.638,0,0,0,1.742.32,5.964,5.964,0,0,0,1-.086,5.607,5.607,0,0,0,.976-0.257,4.42,4.42,0,0,0,.887-0.436,3.038,3.038,0,0,0,.711-0.626l-0.45-.585a0.353,0.353,0,0,0-.306-0.153,0.7,0.7,0,0,0-.365.139,5.694,5.694,0,0,1-.526.3,4.943,4.943,0,0,1-.752.3,3.426,3.426,0,0,1-1.039.139,3.089,3.089,0,0,1-1.17-.212,2.378,2.378,0,0,1-.9-0.639,3.071,3.071,0,0,1-.594-1.066,5.033,5.033,0,0,1-.234-1.5h6.066a0.336,0.336,0,0,0,.306-0.126,1.044,1.044,0,0,0,.081-0.5,4.938,4.938,0,0,0-.284-1.733,3.612,3.612,0,0,0-.787-1.278,3.4,3.4,0,0,0-1.2-.792,4.072,4.072,0,0,0-1.512-.274A4.4,4.4,0,0,0,134.63,28.512Zm2.794,1.017a2.017,2.017,0,0,1,.725.522,2.277,2.277,0,0,1,.45.8,3.245,3.245,0,0,1,.153,1.021h-4.959a3.156,3.156,0,0,1,.828-1.858A2.773,2.773,0,0,1,137.424,29.529Zm5.981,7.9v-5.8a3.648,3.648,0,0,1,.94-1.413,2.066,2.066,0,0,1,1.4-.486,2.444,2.444,0,0,1,.729.085,1.4,1.4,0,0,0,.387.085,0.27,0.27,0,0,0,.279-0.225l0.207-1.2a2.393,2.393,0,0,0-.567-0.238,2.726,2.726,0,0,0-2.3.45,4.171,4.171,0,0,0-1.156,1.489l-0.108-1.422a0.607,0.607,0,0,0-.135-0.342,0.507,0.507,0,0,0-.36-0.1H141.8v9.117h1.6Zm11.754-5.832a4.536,4.536,0,0,0-.207-1.4,2.975,2.975,0,0,0-.612-1.089,2.789,2.789,0,0,0-1-.7,3.454,3.454,0,0,0-1.359-.252,5.032,5.032,0,0,0-1.935.36,5.208,5.208,0,0,0-1.629,1.089l0.288,0.513a0.648,0.648,0,0,0,.193.211,0.481,0.481,0,0,0,.284.085,0.726,0.726,0,0,0,.418-0.148q0.212-.149.5-0.333a3.737,3.737,0,0,1,.693-0.333,2.855,2.855,0,0,1,.986-0.148,1.646,1.646,0,0,1,1.345.548,2.48,2.48,0,0,1,.455,1.616v0.715a11.793,11.793,0,0,0-2.619.248,6.239,6.239,0,0,0-1.733.637,2.612,2.612,0,0,0-.958.89,2.018,2.018,0,0,0-.3,1.043,2.643,2.643,0,0,0,.2,1.079,2.13,2.13,0,0,0,.545.754,2.262,2.262,0,0,0,.805.447,3.239,3.239,0,0,0,1,.149,4.615,4.615,0,0,0,.949-0.09,3.73,3.73,0,0,0,.806-0.266,4.018,4.018,0,0,0,.72-0.432q0.342-.257.7-0.581l0.18,0.846a0.4,0.4,0,0,0,.189.306,0.847,0.847,0,0,0,.378.072h0.711V31.594Zm-4.743,4.774a1.239,1.239,0,0,1-.468-0.244,1.182,1.182,0,0,1-.315-0.43,1.525,1.525,0,0,1-.117-0.625,1.153,1.153,0,0,1,.22-0.688,1.758,1.758,0,0,1,.707-0.534,5.264,5.264,0,0,1,1.26-.367,10.747,10.747,0,0,1,1.881-.14v1.881a5.13,5.13,0,0,1-.554.513,3.493,3.493,0,0,1-.594.383,3.04,3.04,0,0,1-.661.243,3.265,3.265,0,0,1-.774.085A2.123,2.123,0,0,1,150.416,36.368Zm11.016,0.981a2.981,2.981,0,0,0,1-.608l-0.468-.765a0.276,0.276,0,0,0-.225-0.153,0.3,0.3,0,0,0-.167.067c-0.063.045-.139,0.095-0.229,0.149a1.879,1.879,0,0,1-.32.148,1.268,1.268,0,0,1-.436.068,0.974,0.974,0,0,1-.72-0.279,1.164,1.164,0,0,1-.279-0.855V29.65h2.61V28.489h-2.61V25.348h-0.81a0.372,0.372,0,0,0-.252.085,0.341,0.341,0,0,0-.117.221l-0.369,2.817-1.494.189V29.3a0.332,0.332,0,0,0,.1.265,0.358,0.358,0,0,0,.243.085h1.1v5.58a2.406,2.406,0,0,0,.58,1.737,2.2,2.2,0,0,0,1.661.6A3.392,3.392,0,0,0,161.432,37.35Zm3.213-9.041v9.117h1.6V28.309h-1.6ZM166.512,25a1.223,1.223,0,0,0-.252-0.369,1.172,1.172,0,0,0-.364-0.247,1.1,1.1,0,0,0-.441-0.09,1.066,1.066,0,0,0-.437.09,1.19,1.19,0,0,0-.36.247,1.157,1.157,0,0,0-.247.369,1.127,1.127,0,0,0-.09.445,1.062,1.062,0,0,0,.09.437,1.2,1.2,0,0,0,.607.607,1.063,1.063,0,0,0,.437.09,1.092,1.092,0,0,0,.441-0.09,1.165,1.165,0,0,0,.364-0.247,1.255,1.255,0,0,0,.252-0.36,1.019,1.019,0,0,0,.095-0.437A1.081,1.081,0,0,0,166.512,25Zm4.842,3.5a3.849,3.849,0,0,0-1.372.945,4.2,4.2,0,0,0-.873,1.48,6.314,6.314,0,0,0,0,3.883,4.207,4.207,0,0,0,.873,1.476,3.8,3.8,0,0,0,1.372.941,5.12,5.12,0,0,0,3.609,0,3.755,3.755,0,0,0,1.368-.941,4.189,4.189,0,0,0,.864-1.476,6.393,6.393,0,0,0,0-3.883,4.185,4.185,0,0,0-.864-1.48,3.807,3.807,0,0,0-1.368-.945A5.056,5.056,0,0,0,171.354,28.5Zm0.617,7.569a2.241,2.241,0,0,1-.842-0.671,2.952,2.952,0,0,1-.5-1.075,6.427,6.427,0,0,1,0-2.9,3,3,0,0,1,.5-1.085,2.227,2.227,0,0,1,.842-0.675,2.8,2.8,0,0,1,1.188-.234,2.336,2.336,0,0,1,2.016.909,4.227,4.227,0,0,1,.666,2.538,4.188,4.188,0,0,1-.666,2.524,2.34,2.34,0,0,1-2.016.9A2.8,2.8,0,0,1,171.971,36.067Zm9.1,1.359V30.712a4.374,4.374,0,0,1,1.138-.927,2.7,2.7,0,0,1,1.328-.342,1.766,1.766,0,0,1,1.444.572,2.454,2.454,0,0,1,.473,1.606v5.805h1.6v-5.8a4.76,4.76,0,0,0-.2-1.413,3.1,3.1,0,0,0-.581-1.094,2.553,2.553,0,0,0-.954-0.7A3.291,3.291,0,0,0,184,28.165a3.455,3.455,0,0,0-1.7.405,5.124,5.124,0,0,0-1.327,1.062l-0.126-.99a0.409,0.409,0,0,0-.432-0.333h-0.954v9.117h1.6ZM60.686,47.317a4.54,4.54,0,0,0-1.557-.99,5.459,5.459,0,0,0-1.971-.342,4.566,4.566,0,0,0-1.706.3,3.729,3.729,0,0,0-1.246.792,3.438,3.438,0,0,0-1.035,2.457,3.446,3.446,0,0,0,.266,1.436,2.893,2.893,0,0,0,.7.967,3.686,3.686,0,0,0,.986.63,11.435,11.435,0,0,0,1.134.428l1.134,0.36a4.876,4.876,0,0,1,.986.428,2.2,2.2,0,0,1,.7.625,1.617,1.617,0,0,1,.266.959,2.481,2.481,0,0,1-.18.963,2.087,2.087,0,0,1-.518.742,2.351,2.351,0,0,1-.823.481,3.325,3.325,0,0,1-1.107.171,3.48,3.48,0,0,1-1.265-.2,4.637,4.637,0,0,1-.882-0.446,7.2,7.2,0,0,1-.608-0.446,0.716,0.716,0,0,0-.432-0.2,0.411,0.411,0,0,0-.23.068,0.663,0.663,0,0,0-.175.166l-0.5.828a5.351,5.351,0,0,0,1.76,1.228,5.593,5.593,0,0,0,2.282.455,5,5,0,0,0,1.831-.315,3.938,3.938,0,0,0,1.359-.864,3.663,3.663,0,0,0,.841-1.291,4.354,4.354,0,0,0,.288-1.589,3.087,3.087,0,0,0-.266-1.35,2.852,2.852,0,0,0-.7-0.927,3.99,3.99,0,0,0-.99-0.626q-0.553-.247-1.134-0.446t-1.134-.383a5.378,5.378,0,0,1-.99-0.436,2.285,2.285,0,0,1-.7-0.608,1.455,1.455,0,0,1-.265-0.9,2.012,2.012,0,0,1,.153-0.788,1.754,1.754,0,0,1,.455-0.635,2.2,2.2,0,0,1,.752-0.427,3.127,3.127,0,0,1,1.035-.158,3.215,3.215,0,0,1,1.057.153,4.163,4.163,0,0,1,.747.337,5.666,5.666,0,0,1,.513.337,0.623,0.623,0,0,0,.355.153,0.38,0.38,0,0,0,.234-0.067,0.7,0.7,0,0,0,.171-0.2Zm4.545,2.794a3.873,3.873,0,0,0-1.341.954,4.2,4.2,0,0,0-.841,1.435,5.312,5.312,0,0,0-.293,1.782,6.2,6.2,0,0,0,.324,2.088,4.294,4.294,0,0,0,.9,1.526,3.822,3.822,0,0,0,1.377.936,4.638,4.638,0,0,0,1.742.319,5.977,5.977,0,0,0,1-.086,5.631,5.631,0,0,0,.977-0.256,4.427,4.427,0,0,0,.886-0.437,3.045,3.045,0,0,0,.711-0.626l-0.45-.585a0.353,0.353,0,0,0-.306-0.153,0.7,0.7,0,0,0-.365.14,5.732,5.732,0,0,1-.526.3,4.95,4.95,0,0,1-.752.3,3.433,3.433,0,0,1-1.039.14,3.09,3.09,0,0,1-1.17-.212,2.38,2.38,0,0,1-.9-0.639,3.073,3.073,0,0,1-.594-1.066,5.033,5.033,0,0,1-.234-1.5h6.066a0.336,0.336,0,0,0,.306-0.126,1.045,1.045,0,0,0,.081-0.5,4.937,4.937,0,0,0-.283-1.733,3.611,3.611,0,0,0-.788-1.278,3.4,3.4,0,0,0-1.2-.792,4.07,4.07,0,0,0-1.512-.275A4.4,4.4,0,0,0,65.231,50.112Zm2.794,1.017a2.015,2.015,0,0,1,.725.522,2.278,2.278,0,0,1,.45.8,3.244,3.244,0,0,1,.153,1.021H64.394a3.155,3.155,0,0,1,.828-1.858A2.774,2.774,0,0,1,68.025,51.129Zm10.8-1.22a0.408,0.408,0,0,0-.432.333l-0.108.711a3.56,3.56,0,0,0-1.1-.891,3.263,3.263,0,0,0-1.5-.315,3.571,3.571,0,0,0-2.894,1.368,4.574,4.574,0,0,0-.778,1.508,6.291,6.291,0,0,0-.27,1.877,7.506,7.506,0,0,0,.243,2.007,4.221,4.221,0,0,0,.693,1.458,2.948,2.948,0,0,0,1.089.887,3.292,3.292,0,0,0,1.422.3,3.415,3.415,0,0,0,1.678-.405,4.779,4.779,0,0,0,1.31-1.071v4.437h1.6v-12.2H78.821Zm-4.095,7.758a1.768,1.768,0,0,1-.729-0.6,2.935,2.935,0,0,1-.45-1.044,6.585,6.585,0,0,1-.153-1.526,4.246,4.246,0,0,1,.684-2.592A2.307,2.307,0,0,1,76.04,51a2.736,2.736,0,0,1,1.17.248,2.588,2.588,0,0,1,.963.824v4.41A3.958,3.958,0,0,1,77.088,57.5a2.581,2.581,0,0,1-1.373.36A2.448,2.448,0,0,1,74.726,57.667Zm7.461-7.758v5.814a4.858,4.858,0,0,0,.194,1.413,2.962,2.962,0,0,0,.581,1.089,2.612,2.612,0,0,0,.959.7,3.293,3.293,0,0,0,1.319.248,3.492,3.492,0,0,0,1.692-.4,5.017,5.017,0,0,0,1.332-1.057l0.126,0.981a0.408,0.408,0,0,0,.432.333h0.954V49.909h-1.6v6.723a4.115,4.115,0,0,1-1.143.927,2.758,2.758,0,0,1-1.323.333,1.776,1.776,0,0,1-1.44-.567,2.419,2.419,0,0,1-.477-1.6V49.909h-1.6Zm12.042,0.2a3.872,3.872,0,0,0-1.341.954,4.2,4.2,0,0,0-.841,1.435,5.312,5.312,0,0,0-.293,1.782,6.2,6.2,0,0,0,.324,2.088,4.294,4.294,0,0,0,.9,1.526,3.822,3.822,0,0,0,1.377.936,4.638,4.638,0,0,0,1.742.319,5.977,5.977,0,0,0,1-.086,5.631,5.631,0,0,0,.977-0.256,4.43,4.43,0,0,0,.886-0.437,3.045,3.045,0,0,0,.711-0.626l-0.45-.585a0.353,0.353,0,0,0-.306-0.153,0.7,0.7,0,0,0-.364.14,5.732,5.732,0,0,1-.526.3,4.95,4.95,0,0,1-.752.3,3.433,3.433,0,0,1-1.04.14,3.09,3.09,0,0,1-1.17-.212,2.379,2.379,0,0,1-.9-0.639,3.073,3.073,0,0,1-.594-1.066,5.03,5.03,0,0,1-.234-1.5H99.4a0.336,0.336,0,0,0,.306-0.126,1.045,1.045,0,0,0,.081-0.5,4.937,4.937,0,0,0-.284-1.733,3.611,3.611,0,0,0-.787-1.278,3.4,3.4,0,0,0-1.2-.792,4.07,4.07,0,0,0-1.512-.275A4.4,4.4,0,0,0,94.229,50.112Zm2.794,1.017a2.015,2.015,0,0,1,.724.522,2.278,2.278,0,0,1,.45.8,3.247,3.247,0,0,1,.153,1.021H93.392a3.155,3.155,0,0,1,.828-1.858A2.774,2.774,0,0,1,97.023,51.129Zm5.981,7.9V52.312a4.37,4.37,0,0,1,1.138-.927,2.7,2.7,0,0,1,1.328-.342,1.765,1.765,0,0,1,1.444.572,2.454,2.454,0,0,1,.473,1.607v5.805h1.6v-5.8a4.759,4.759,0,0,0-.2-1.413,3.1,3.1,0,0,0-.581-1.093,2.551,2.551,0,0,0-.954-0.7,3.29,3.29,0,0,0-1.318-.248,3.455,3.455,0,0,0-1.7.405,5.122,5.122,0,0,0-1.327,1.062l-0.126-.99a0.408,0.408,0,0,0-.432-0.333H101.4v9.117H103Zm15.039-8.073a4.05,4.05,0,0,0-1.305-.878,4.331,4.331,0,0,0-1.692-.31,4.535,4.535,0,0,0-1.836.351,3.755,3.755,0,0,0-1.346.977,4.262,4.262,0,0,0-.828,1.489,6,6,0,0,0-.283,1.881,5.916,5.916,0,0,0,.31,1.989,4.335,4.335,0,0,0,.851,1.471,3.62,3.62,0,0,0,1.273.914,3.987,3.987,0,0,0,1.589.315,5.265,5.265,0,0,0,1.881-.337,3.464,3.464,0,0,0,1.485-1.067l-0.45-.585a0.339,0.339,0,0,0-.306-0.153,0.5,0.5,0,0,0-.324.14,4.617,4.617,0,0,1-.414.31,2.934,2.934,0,0,1-.63.31,2.818,2.818,0,0,1-.963.14,2.573,2.573,0,0,1-1.1-.23,2.264,2.264,0,0,1-.832-0.666,3.188,3.188,0,0,1-.531-1.08,5.228,5.228,0,0,1-.189-1.471,5.4,5.4,0,0,1,.175-1.431,3.116,3.116,0,0,1,.522-1.089,2.288,2.288,0,0,1,.86-0.688,3.126,3.126,0,0,1,2.029-.126,3.359,3.359,0,0,1,.59.247,4.248,4.248,0,0,1,.4.248,0.515,0.515,0,0,0,.293.112,0.34,0.34,0,0,0,.207-0.054,0.715,0.715,0,0,0,.144-0.153Zm1.539-1.044v9.117h1.6V49.909h-1.6Zm1.867-3.307a1.221,1.221,0,0,0-.252-0.369,1.169,1.169,0,0,0-.364-0.248,1.094,1.094,0,0,0-.441-0.09,1.065,1.065,0,0,0-.437.09,1.187,1.187,0,0,0-.36.248,1.155,1.155,0,0,0-.247.369,1.126,1.126,0,0,0-.09.445,1.062,1.062,0,0,0,.09.437,1.2,1.2,0,0,0,.607.608,1.065,1.065,0,0,0,.437.09,1.094,1.094,0,0,0,.441-0.09,1.169,1.169,0,0,0,.364-0.248,1.257,1.257,0,0,0,.252-0.36,1.02,1.02,0,0,0,.095-0.437A1.08,1.08,0,0,0,121.449,46.6Zm4.559,12.425V52.312a4.37,4.37,0,0,1,1.138-.927,2.7,2.7,0,0,1,1.328-.342,1.765,1.765,0,0,1,1.444.572,2.454,2.454,0,0,1,.473,1.607v5.805h1.6v-5.8a4.759,4.759,0,0,0-.2-1.413,3.1,3.1,0,0,0-.581-1.093,2.551,2.551,0,0,0-.954-0.7,3.29,3.29,0,0,0-1.318-.248,3.455,3.455,0,0,0-1.7.405,5.122,5.122,0,0,0-1.327,1.062l-0.126-.99a0.408,0.408,0,0,0-.432-0.333h-0.954v9.117h1.6Zm10.075-9.063a3.27,3.27,0,0,0-1.093.59,2.678,2.678,0,0,0-.716.927,2.8,2.8,0,0,0-.256,1.21,2.747,2.747,0,0,0,.382,1.463,2.839,2.839,0,0,0,1.058,1,2.376,2.376,0,0,0-.5.332,2.352,2.352,0,0,0-.365.4,1.606,1.606,0,0,0-.22.418,1.265,1.265,0,0,0-.072.409,1.294,1.294,0,0,0,.229.8,1.612,1.612,0,0,0,.617.481,2.933,2.933,0,0,0-1.175.752,1.651,1.651,0,0,0-.427,1.149,1.829,1.829,0,0,0,.247.915,2.32,2.32,0,0,0,.743.77,4.1,4.1,0,0,0,1.246.532,6.909,6.909,0,0,0,1.751.2,5.742,5.742,0,0,0,1.791-.26,4.324,4.324,0,0,0,1.341-.693,3.1,3.1,0,0,0,.841-0.989,2.436,2.436,0,0,0,.293-1.148,1.872,1.872,0,0,0-.261-1.038,1.831,1.831,0,0,0-.693-0.629,3.4,3.4,0,0,0-.981-0.328,6.234,6.234,0,0,0-1.121-.1h-1.12a5.82,5.82,0,0,1-.981-0.074,1.817,1.817,0,0,1-.693-0.247,0.569,0.569,0,0,1-.261-0.507,0.735,0.735,0,0,1,.148-0.419,1.536,1.536,0,0,1,.437-0.4,4.612,4.612,0,0,0,1.206.153,4.344,4.344,0,0,0,1.372-.207,3.191,3.191,0,0,0,1.08-.594,2.746,2.746,0,0,0,.711-0.931,2.805,2.805,0,0,0,.257-1.211,2.772,2.772,0,0,0-.306-1.3l1.035-.144A0.39,0.39,0,0,0,142,50.863V50.269h-2.475a3.5,3.5,0,0,0-.941-0.383,4.53,4.53,0,0,0-1.111-.13A4.465,4.465,0,0,0,136.083,49.963Zm4.046,10.2a1.654,1.654,0,0,1-.545.523,2.886,2.886,0,0,1-.868.34,5.146,5.146,0,0,1-1.161.119,5.229,5.229,0,0,1-1.157-.113,2.821,2.821,0,0,1-.814-0.306,1.346,1.346,0,0,1-.482-0.46,1.1,1.1,0,0,1-.157-0.572,1.2,1.2,0,0,1,.319-0.838,2.635,2.635,0,0,1,.833-0.595,3.475,3.475,0,0,0,.927.121h0.954a6.906,6.906,0,0,1,.891.055,3.66,3.66,0,0,1,.747.17,1.217,1.217,0,0,1,.513.326,0.807,0.807,0,0,1,.189.56A1.241,1.241,0,0,1,140.129,60.159Zm-3.5-5.723a1.744,1.744,0,0,1-.621-0.378,1.6,1.6,0,0,1-.383-0.581,2.042,2.042,0,0,1-.13-0.742A1.773,1.773,0,0,1,136,51.4a2.448,2.448,0,0,1,2.952,0,1.774,1.774,0,0,1,.509,1.332,2.108,2.108,0,0,1-.126.742,1.546,1.546,0,0,1-.378.581,1.74,1.74,0,0,1-.626.378,2.519,2.519,0,0,1-.859.135A2.454,2.454,0,0,1,136.628,54.436Zm12.55-4.815a14.389,14.389,0,0,1,1.436-3.456,0.671,0.671,0,0,0,.09-0.306,0.327,0.327,0,0,0-.063-0.207,0.633,0.633,0,0,0-.162-0.144l-0.711-.441a17,17,0,0,0-1.148,2.061,13.827,13.827,0,0,0-1.192,4.1,16.954,16.954,0,0,0,0,4.27,14.189,14.189,0,0,0,.427,2.066,13.876,13.876,0,0,0,.765,2.043,16.486,16.486,0,0,0,1.148,2.052l0.711-.432a0.634,0.634,0,0,0,.162-0.144,0.327,0.327,0,0,0,.063-0.207,0.591,0.591,0,0,0-.018-0.144,0.749,0.749,0,0,0-.072-0.171,14.94,14.94,0,0,1-1.431-3.46,14.137,14.137,0,0,1-.5-3.739A14.309,14.309,0,0,1,149.178,49.621Zm4.379-3.492h-0.9v12.9h1.53V49.837q0-.18-0.009-0.4T154.151,49l7.461,9.711a0.874,0.874,0,0,0,.274.243,0.752,0.752,0,0,0,.347.072h0.882v-12.9h-1.53v9.135q0,0.207.009,0.427t0.036,0.455l-7.47-9.72a0.9,0.9,0,0,0-.257-0.239,0.781,0.781,0,0,0-.346-0.059h0ZM170.5,57.406a4.214,4.214,0,0,1-1.494-1.017,4.61,4.61,0,0,1-.977-1.625,6.4,6.4,0,0,1-.346-2.182,6.294,6.294,0,0,1,.333-2.111,4.5,4.5,0,0,1,.954-1.6,4.169,4.169,0,0,1,1.5-1.017,5.23,5.23,0,0,1,1.971-.355,6.216,6.216,0,0,1,1.291.117,5.471,5.471,0,0,1,.945.284,4.323,4.323,0,0,1,.68.346q0.279,0.18.5,0.306a0.638,0.638,0,0,0,.315.1,0.455,0.455,0,0,0,.4-0.243l0.5-.792a6.352,6.352,0,0,0-.891-0.679,5.686,5.686,0,0,0-1.04-.513,6.642,6.642,0,0,0-1.219-.324,8.436,8.436,0,0,0-1.422-.113,7.448,7.448,0,0,0-2.732.477,5.785,5.785,0,0,0-3.4,3.429,7.5,7.5,0,0,0-.463,2.691,7.315,7.315,0,0,0,.472,2.673,6.13,6.13,0,0,0,1.319,2.084,5.927,5.927,0,0,0,2.016,1.35,6.7,6.7,0,0,0,2.574.482,12.028,12.028,0,0,0,1.485-.086,8.151,8.151,0,0,0,1.282-.261,6.9,6.9,0,0,0,1.125-.437,7.16,7.16,0,0,0,1.013-.612v-4.95h-3.96v0.99a0.323,0.323,0,0,0,.1.243,0.382,0.382,0,0,0,.275.1h2V57q-0.342.18-.684,0.32a5.609,5.609,0,0,1-.729.238,6.1,6.1,0,0,1-.824.149,8.536,8.536,0,0,1-.958.049A5.024,5.024,0,0,1,170.5,57.406Zm16.182-10.089a4.539,4.539,0,0,0-1.557-.99,5.459,5.459,0,0,0-1.971-.342,4.569,4.569,0,0,0-1.706.3,3.727,3.727,0,0,0-1.246.792,3.433,3.433,0,0,0-1.035,2.457,3.446,3.446,0,0,0,.265,1.436,2.9,2.9,0,0,0,.7.967,3.683,3.683,0,0,0,.985.63,11.435,11.435,0,0,0,1.134.428l1.134,0.36a4.88,4.88,0,0,1,.986.428,2.2,2.2,0,0,1,.7.625,1.616,1.616,0,0,1,.266.959,2.481,2.481,0,0,1-.18.963,2.087,2.087,0,0,1-.518.742,2.349,2.349,0,0,1-.823.481,3.325,3.325,0,0,1-1.107.171,3.484,3.484,0,0,1-1.265-.2,4.64,4.64,0,0,1-.882-0.446,7.182,7.182,0,0,1-.607-0.446,0.716,0.716,0,0,0-.432-0.2,0.413,0.413,0,0,0-.23.068,0.661,0.661,0,0,0-.175.166l-0.5.828a5.349,5.349,0,0,0,1.759,1.228,5.6,5.6,0,0,0,2.282.455,5,5,0,0,0,1.831-.315,3.937,3.937,0,0,0,1.359-.864,3.663,3.663,0,0,0,.842-1.291,4.354,4.354,0,0,0,.288-1.589,3.085,3.085,0,0,0-.266-1.35,2.852,2.852,0,0,0-.7-0.927,3.989,3.989,0,0,0-.99-0.626q-0.554-.247-1.134-0.446t-1.134-.383a5.378,5.378,0,0,1-.99-0.436,2.287,2.287,0,0,1-.7-0.608,1.455,1.455,0,0,1-.265-0.9,2.014,2.014,0,0,1,.153-0.788,1.754,1.754,0,0,1,.454-0.635,2.2,2.2,0,0,1,.752-0.427,3.127,3.127,0,0,1,1.035-.158,3.211,3.211,0,0,1,1.057.153,4.163,4.163,0,0,1,.747.337,5.666,5.666,0,0,1,.513.337,0.624,0.624,0,0,0,.356.153,0.38,0.38,0,0,0,.234-0.067,0.7,0.7,0,0,0,.171-0.2Zm3.591,9.788a14.94,14.94,0,0,1-1.431,3.46,0.749,0.749,0,0,0-.072.171,0.591,0.591,0,0,0-.018.144,0.327,0.327,0,0,0,.063.207,0.634,0.634,0,0,0,.162.144l0.711,0.432a16.475,16.475,0,0,0,1.147-2.052,13.876,13.876,0,0,0,.765-2.043,14.193,14.193,0,0,0,.428-2.065,16.954,16.954,0,0,0,0-4.27,13.87,13.87,0,0,0-1.193-4.1,16.99,16.99,0,0,0-1.147-2.061l-0.711.441a0.633,0.633,0,0,0-.162.144,0.327,0.327,0,0,0-.063.207,0.671,0.671,0,0,0,.09.306,14.326,14.326,0,0,1,1.926,7.2A14.137,14.137,0,0,1,190.277,57.1Z"/>
  <path id="Fish" class="cls-5" d="M363.656,160.529v12.9h1.755v-5.544H370.7V166.46h-5.292v-4.509H371.6v-1.422h-7.947Zm9.927,3.78v9.117h1.6v-9.117h-1.6ZM375.451,161a1.221,1.221,0,0,0-.252-0.369,1.174,1.174,0,0,0-.365-0.248,1.094,1.094,0,0,0-.441-0.09,1.06,1.06,0,0,0-.436.09,1.188,1.188,0,0,0-.36.248,1.158,1.158,0,0,0-.248.369,1.124,1.124,0,0,0-.09.445,1.065,1.065,0,0,0,.09.437,1.2,1.2,0,0,0,.608.607,1.06,1.06,0,0,0,.436.09,1.094,1.094,0,0,0,.441-0.09,1.172,1.172,0,0,0,.365-0.247,1.257,1.257,0,0,0,.252-0.36,1.021,1.021,0,0,0,.094-0.437A1.077,1.077,0,0,0,375.451,161Zm8.536,4.225a3.82,3.82,0,0,0-1.237-.778,4.358,4.358,0,0,0-1.616-.284,4.07,4.07,0,0,0-1.377.216,3.1,3.1,0,0,0-1.017.581,2.461,2.461,0,0,0-.63.846,2.423,2.423,0,0,0-.216,1,2.228,2.228,0,0,0,.2,1,2.1,2.1,0,0,0,.535.688,3.074,3.074,0,0,0,.761.464q0.428,0.184.873,0.328t0.873,0.275a4.358,4.358,0,0,1,.76.306,1.711,1.711,0,0,1,.536.423,0.954,0.954,0,0,1,.2.625,1.482,1.482,0,0,1-.112.576,1.3,1.3,0,0,1-.347.477,1.721,1.721,0,0,1-.585.329,2.5,2.5,0,0,1-.819.121,2.827,2.827,0,0,1-.913-0.126,3.359,3.359,0,0,1-.621-0.279q-0.256-.153-0.437-0.279a0.6,0.6,0,0,0-.342-0.126,0.48,0.48,0,0,0-.261.063,0.549,0.549,0,0,0-.171.18l-0.378.612a4.38,4.38,0,0,0,1.314.8,4.6,4.6,0,0,0,1.728.31,4.437,4.437,0,0,0,1.476-.225,3.211,3.211,0,0,0,1.08-.616,2.543,2.543,0,0,0,.666-0.927,2.981,2.981,0,0,0,.225-1.166,2.023,2.023,0,0,0-.2-0.94,2.062,2.062,0,0,0-.536-0.662,3.151,3.151,0,0,0-.756-0.45q-0.423-.18-0.868-0.328t-0.869-.279a4.668,4.668,0,0,1-.756-0.3,1.757,1.757,0,0,1-.535-0.405,0.862,0.862,0,0,1-.2-0.585,1.122,1.122,0,0,1,.122-0.517,1.256,1.256,0,0,1,.351-0.419,1.747,1.747,0,0,1,.553-0.283,2.39,2.39,0,0,1,.729-0.1,2.811,2.811,0,0,1,.81.1,3.938,3.938,0,0,1,.59.225q0.248,0.121.418,0.22a0.627,0.627,0,0,0,.306.1,0.355,0.355,0,0,0,.333-0.2Zm4.023,8.2v-6.714a4.374,4.374,0,0,1,1.139-.927,2.691,2.691,0,0,1,1.327-.342,1.768,1.768,0,0,1,1.445.572,2.452,2.452,0,0,1,.472,1.606v5.8H394v-5.8a4.759,4.759,0,0,0-.2-1.413,3.1,3.1,0,0,0-.58-1.093,2.551,2.551,0,0,0-.954-0.7,3.294,3.294,0,0,0-1.319-.248,3.471,3.471,0,0,0-1.638.374,4.918,4.918,0,0,0-1.3.994v-5.364h-1.6v13.257h1.6Z"/>
  <path id="Sanger_Sequencing" data-name="Sanger Sequencing" class="cls-5" d="M313.189,200.717a4.539,4.539,0,0,0-1.557-.99,5.459,5.459,0,0,0-1.971-.342,4.563,4.563,0,0,0-1.7.3,3.732,3.732,0,0,0-1.247.792,3.444,3.444,0,0,0-1.035,2.457,3.448,3.448,0,0,0,.266,1.436,2.892,2.892,0,0,0,.7.967,3.688,3.688,0,0,0,.986.63,11.438,11.438,0,0,0,1.134.428l1.134,0.36a4.87,4.87,0,0,1,.985.427,2.2,2.2,0,0,1,.7.626,1.614,1.614,0,0,1,.265.958,2.481,2.481,0,0,1-.18.963,2.087,2.087,0,0,1-.517.743,2.352,2.352,0,0,1-.824.481,3.325,3.325,0,0,1-1.107.171,3.479,3.479,0,0,1-1.264-.2,4.64,4.64,0,0,1-.882-0.446,7.221,7.221,0,0,1-.608-0.445,0.717,0.717,0,0,0-.432-0.2,0.41,0.41,0,0,0-.229.068,0.663,0.663,0,0,0-.176.166l-0.5.828a5.355,5.355,0,0,0,1.76,1.229,5.59,5.59,0,0,0,2.281.454,5,5,0,0,0,1.832-.315,3.937,3.937,0,0,0,1.359-.864,3.659,3.659,0,0,0,.841-1.291,4.357,4.357,0,0,0,.288-1.589,3.085,3.085,0,0,0-.265-1.35,2.852,2.852,0,0,0-.7-0.927,3.987,3.987,0,0,0-.99-0.625q-0.553-.248-1.134-0.446t-1.134-.382a5.378,5.378,0,0,1-.99-0.437,2.286,2.286,0,0,1-.7-0.607,1.457,1.457,0,0,1-.266-0.9,2.011,2.011,0,0,1,.153-0.787,1.758,1.758,0,0,1,.455-0.635,2.2,2.2,0,0,1,.751-0.427,3.127,3.127,0,0,1,1.035-.158,3.217,3.217,0,0,1,1.058.153,4.162,4.162,0,0,1,.747.338,5.674,5.674,0,0,1,.513.337,0.622,0.622,0,0,0,.355.153,0.38,0.38,0,0,0,.234-0.067,0.7,0.7,0,0,0,.171-0.2Zm9.414,5.877a4.535,4.535,0,0,0-.207-1.4,2.973,2.973,0,0,0-.612-1.089,2.787,2.787,0,0,0-1-.7,3.453,3.453,0,0,0-1.359-.252,5.03,5.03,0,0,0-1.935.36,5.206,5.206,0,0,0-1.629,1.089l0.288,0.513a0.655,0.655,0,0,0,.194.212,0.478,0.478,0,0,0,.283.085,0.728,0.728,0,0,0,.419-0.148q0.212-.149.5-0.333a3.73,3.73,0,0,1,.693-0.333,2.849,2.849,0,0,1,.985-0.149,1.65,1.65,0,0,1,1.346.548,2.482,2.482,0,0,1,.454,1.617v0.715a11.826,11.826,0,0,0-2.619.248,6.237,6.237,0,0,0-1.732.637,2.618,2.618,0,0,0-.959.89,2.018,2.018,0,0,0-.3,1.043,2.643,2.643,0,0,0,.2,1.079,2.13,2.13,0,0,0,.544.754,2.257,2.257,0,0,0,.806.447,3.238,3.238,0,0,0,.994.149,4.625,4.625,0,0,0,.95-0.09,3.726,3.726,0,0,0,.805-0.265,4.018,4.018,0,0,0,.72-0.432q0.342-.256.7-0.581l0.18,0.846a0.4,0.4,0,0,0,.189.306,0.849,0.849,0,0,0,.378.072H322.6v-5.832Zm-4.743,4.774a1.245,1.245,0,0,1-.468-0.244,1.187,1.187,0,0,1-.315-0.43,1.526,1.526,0,0,1-.117-0.625,1.157,1.157,0,0,1,.221-0.688,1.757,1.757,0,0,1,.706-0.534,5.267,5.267,0,0,1,1.26-.367,10.8,10.8,0,0,1,1.881-.14v1.881a5.143,5.143,0,0,1-.553.513,3.509,3.509,0,0,1-.594.383,3.059,3.059,0,0,1-.662.243,3.271,3.271,0,0,1-.774.085A2.1,2.1,0,0,1,317.86,211.368Zm8.649,1.058v-6.714a4.374,4.374,0,0,1,1.139-.927,2.691,2.691,0,0,1,1.327-.342,1.768,1.768,0,0,1,1.445.572,2.452,2.452,0,0,1,.472,1.606v5.8h1.6v-5.8a4.759,4.759,0,0,0-.2-1.413,3.1,3.1,0,0,0-.58-1.093,2.551,2.551,0,0,0-.954-0.7,3.294,3.294,0,0,0-1.319-.248,3.451,3.451,0,0,0-1.7.405,5.126,5.126,0,0,0-1.328,1.062l-0.126-.99a0.408,0.408,0,0,0-.432-0.333h-0.954v9.117h1.6Zm10.076-9.063a3.276,3.276,0,0,0-1.094.59,2.675,2.675,0,0,0-.715.927,2.8,2.8,0,0,0-.257,1.21,2.749,2.749,0,0,0,.383,1.463,2.834,2.834,0,0,0,1.057,1,2.37,2.37,0,0,0-.5.333,2.3,2.3,0,0,0-.364.395,1.61,1.61,0,0,0-.221.418,1.265,1.265,0,0,0-.072.409,1.294,1.294,0,0,0,.23.8,1.607,1.607,0,0,0,.616.481,2.931,2.931,0,0,0-1.174.752,1.652,1.652,0,0,0-.428,1.149,1.828,1.828,0,0,0,.248.914,2.313,2.313,0,0,0,.742.77,4.1,4.1,0,0,0,1.247.532,6.906,6.906,0,0,0,1.75.2,5.74,5.74,0,0,0,1.791-.259,4.327,4.327,0,0,0,1.341-.693,3.106,3.106,0,0,0,.842-0.988,2.439,2.439,0,0,0,.292-1.148,1.872,1.872,0,0,0-.261-1.039,1.835,1.835,0,0,0-.693-0.629,3.4,3.4,0,0,0-.981-0.328,6.3,6.3,0,0,0-1.12-.1h-1.121a5.886,5.886,0,0,1-.981-0.074,1.818,1.818,0,0,1-.693-0.247,0.569,0.569,0,0,1-.261-0.507,0.739,0.739,0,0,1,.149-0.419,1.539,1.539,0,0,1,.436-0.4,4.612,4.612,0,0,0,1.206.153,4.35,4.35,0,0,0,1.373-.207,3.191,3.191,0,0,0,1.08-.594,2.744,2.744,0,0,0,.711-0.931,2.807,2.807,0,0,0,.256-1.211,2.772,2.772,0,0,0-.306-1.305l1.035-.144a0.39,0.39,0,0,0,.378-0.378v-0.594h-2.475a3.492,3.492,0,0,0-.94-0.382,4.538,4.538,0,0,0-1.112-.131A4.459,4.459,0,0,0,336.585,203.363Zm4.045,10.2a1.647,1.647,0,0,1-.544.523,2.893,2.893,0,0,1-.869.34,5.176,5.176,0,0,1-1.161.119,5.283,5.283,0,0,1-1.156-.112,2.851,2.851,0,0,1-.815-0.307,1.343,1.343,0,0,1-.481-0.46,1.1,1.1,0,0,1-.158-0.572,1.2,1.2,0,0,1,.32-0.838,2.614,2.614,0,0,1,.832-0.595,3.475,3.475,0,0,0,.927.121h0.954a7.034,7.034,0,0,1,.891.055,3.713,3.713,0,0,1,.747.17,1.22,1.22,0,0,1,.513.326,0.808,0.808,0,0,1,.189.56A1.242,1.242,0,0,1,340.63,213.559Zm-3.5-5.723a1.744,1.744,0,0,1-.621-0.378,1.591,1.591,0,0,1-.382-0.58,2.045,2.045,0,0,1-.131-0.743,1.774,1.774,0,0,1,.509-1.332,2.448,2.448,0,0,1,2.952,0,1.773,1.773,0,0,1,.508,1.332,2.111,2.111,0,0,1-.126.743,1.544,1.544,0,0,1-.378.58,1.735,1.735,0,0,1-.625.378,2.525,2.525,0,0,1-.86.135A2.454,2.454,0,0,1,337.129,207.836Zm8.6-4.324a3.874,3.874,0,0,0-1.341.954,4.2,4.2,0,0,0-.841,1.435,5.312,5.312,0,0,0-.293,1.782,6.2,6.2,0,0,0,.324,2.088,4.3,4.3,0,0,0,.905,1.526,3.822,3.822,0,0,0,1.377.936,4.633,4.633,0,0,0,1.741.319,5.963,5.963,0,0,0,1-.085,5.637,5.637,0,0,0,.977-0.257,4.421,4.421,0,0,0,.886-0.436,3.045,3.045,0,0,0,.711-0.626l-0.45-.585a0.353,0.353,0,0,0-.306-0.153,0.7,0.7,0,0,0-.364.14,5.756,5.756,0,0,1-.527.3,4.936,4.936,0,0,1-.751.3,3.437,3.437,0,0,1-1.04.139,3.091,3.091,0,0,1-1.17-.211,2.38,2.38,0,0,1-.9-0.639,3.076,3.076,0,0,1-.594-1.067,5.033,5.033,0,0,1-.234-1.5h6.066a0.336,0.336,0,0,0,.306-0.126,1.045,1.045,0,0,0,.081-0.5,4.935,4.935,0,0,0-.283-1.732,3.612,3.612,0,0,0-.788-1.278,3.394,3.394,0,0,0-1.2-.792,4.07,4.07,0,0,0-1.512-.275A4.4,4.4,0,0,0,345.733,203.512Zm2.8,1.017a2.012,2.012,0,0,1,.724.522,2.276,2.276,0,0,1,.45.8,3.241,3.241,0,0,1,.153,1.021H344.9a3.154,3.154,0,0,1,.828-1.858A2.772,2.772,0,0,1,348.528,204.529Zm5.98,7.9v-5.8a3.649,3.649,0,0,1,.941-1.413,2.064,2.064,0,0,1,1.4-.486,2.438,2.438,0,0,1,.729.086,1.4,1.4,0,0,0,.387.085,0.271,0.271,0,0,0,.279-0.225l0.207-1.2a2.383,2.383,0,0,0-.567-0.238,2.718,2.718,0,0,0-2.3.45,4.169,4.169,0,0,0-1.157,1.489l-0.108-1.422a0.607,0.607,0,0,0-.135-0.342,0.507,0.507,0,0,0-.36-0.1h-0.918v9.117h1.6Zm16.677-11.709a4.539,4.539,0,0,0-1.557-.99,5.459,5.459,0,0,0-1.971-.342,4.563,4.563,0,0,0-1.7.3,3.732,3.732,0,0,0-1.247.792,3.444,3.444,0,0,0-1.035,2.457,3.448,3.448,0,0,0,.266,1.436,2.892,2.892,0,0,0,.7.967,3.688,3.688,0,0,0,.986.63,11.438,11.438,0,0,0,1.134.428l1.134,0.36a4.87,4.87,0,0,1,.985.427,2.2,2.2,0,0,1,.7.626,1.614,1.614,0,0,1,.265.958,2.481,2.481,0,0,1-.18.963,2.087,2.087,0,0,1-.517.743,2.352,2.352,0,0,1-.824.481,3.325,3.325,0,0,1-1.107.171,3.479,3.479,0,0,1-1.264-.2,4.64,4.64,0,0,1-.882-0.446,7.221,7.221,0,0,1-.608-0.445,0.717,0.717,0,0,0-.432-0.2,0.41,0.41,0,0,0-.229.068,0.663,0.663,0,0,0-.176.166l-0.5.828a5.355,5.355,0,0,0,1.76,1.229,5.59,5.59,0,0,0,2.281.454,5,5,0,0,0,1.832-.315,3.937,3.937,0,0,0,1.359-.864,3.659,3.659,0,0,0,.841-1.291,4.357,4.357,0,0,0,.288-1.589,3.085,3.085,0,0,0-.265-1.35,2.852,2.852,0,0,0-.7-0.927,3.987,3.987,0,0,0-.99-0.625q-0.554-.248-1.134-0.446t-1.134-.382a5.378,5.378,0,0,1-.99-0.437,2.286,2.286,0,0,1-.7-0.607,1.457,1.457,0,0,1-.266-0.9,2.011,2.011,0,0,1,.153-0.787,1.758,1.758,0,0,1,.455-0.635,2.2,2.2,0,0,1,.751-0.427,3.127,3.127,0,0,1,1.035-.158,3.217,3.217,0,0,1,1.058.153,4.162,4.162,0,0,1,.747.338,5.674,5.674,0,0,1,.513.337,0.622,0.622,0,0,0,.355.153,0.38,0.38,0,0,0,.234-0.067,0.7,0.7,0,0,0,.171-0.2Zm4.545,2.795a3.874,3.874,0,0,0-1.341.954,4.2,4.2,0,0,0-.841,1.435,5.312,5.312,0,0,0-.293,1.782,6.2,6.2,0,0,0,.324,2.088,4.3,4.3,0,0,0,.9,1.526,3.822,3.822,0,0,0,1.377.936,4.633,4.633,0,0,0,1.741.319,5.963,5.963,0,0,0,1-.085,5.637,5.637,0,0,0,.977-0.257,4.421,4.421,0,0,0,.886-0.436,3.045,3.045,0,0,0,.711-0.626l-0.45-.585a0.353,0.353,0,0,0-.306-0.153,0.7,0.7,0,0,0-.364.14,5.756,5.756,0,0,1-.527.3,4.936,4.936,0,0,1-.751.3,3.437,3.437,0,0,1-1.04.139,3.091,3.091,0,0,1-1.17-.211,2.38,2.38,0,0,1-.9-0.639,3.076,3.076,0,0,1-.594-1.067,5.033,5.033,0,0,1-.234-1.5h6.066a0.336,0.336,0,0,0,.306-0.126,1.045,1.045,0,0,0,.081-0.5,4.935,4.935,0,0,0-.283-1.732,3.612,3.612,0,0,0-.788-1.278,3.394,3.394,0,0,0-1.2-.792,4.07,4.07,0,0,0-1.512-.275A4.4,4.4,0,0,0,375.73,203.512Zm2.795,1.017a2.012,2.012,0,0,1,.724.522,2.276,2.276,0,0,1,.45.8,3.241,3.241,0,0,1,.153,1.021h-4.959a3.154,3.154,0,0,1,.828-1.858A2.772,2.772,0,0,1,378.525,204.529Zm10.8-1.22a0.408,0.408,0,0,0-.432.333l-0.108.711a3.557,3.557,0,0,0-1.1-.891,3.266,3.266,0,0,0-1.5-.315,3.573,3.573,0,0,0-2.893,1.368,4.577,4.577,0,0,0-.779,1.508,6.287,6.287,0,0,0-.27,1.876,7.506,7.506,0,0,0,.243,2.007,4.223,4.223,0,0,0,.693,1.458,2.95,2.95,0,0,0,1.089.887,3.291,3.291,0,0,0,1.422.3,3.417,3.417,0,0,0,1.679-.405,4.777,4.777,0,0,0,1.309-1.071v4.437h1.6v-12.2H389.32Zm-4.095,7.758a1.767,1.767,0,0,1-.729-0.6,2.935,2.935,0,0,1-.45-1.044,6.6,6.6,0,0,1-.153-1.526,4.246,4.246,0,0,1,.684-2.592,2.308,2.308,0,0,1,1.962-.909,2.736,2.736,0,0,1,1.17.248,2.587,2.587,0,0,1,.963.823v4.41a3.955,3.955,0,0,1-1.084,1.017,2.582,2.582,0,0,1-1.373.36A2.449,2.449,0,0,1,385.225,211.067Zm7.461-7.758v5.814a4.861,4.861,0,0,0,.194,1.413,2.961,2.961,0,0,0,.58,1.089,2.617,2.617,0,0,0,.959.7,3.29,3.29,0,0,0,1.318.247,3.49,3.49,0,0,0,1.692-.4,5.017,5.017,0,0,0,1.332-1.058l0.126,0.981a0.408,0.408,0,0,0,.432.333h0.954v-9.117h-1.6v6.723a4.115,4.115,0,0,1-1.143.927,2.758,2.758,0,0,1-1.323.333,1.776,1.776,0,0,1-1.44-.567,2.419,2.419,0,0,1-.477-1.6v-5.814h-1.6Zm12.042,0.2a3.874,3.874,0,0,0-1.341.954,4.2,4.2,0,0,0-.841,1.435,5.312,5.312,0,0,0-.293,1.782,6.2,6.2,0,0,0,.324,2.088,4.3,4.3,0,0,0,.905,1.526,3.822,3.822,0,0,0,1.377.936,4.633,4.633,0,0,0,1.741.319,5.963,5.963,0,0,0,1-.085,5.637,5.637,0,0,0,.977-0.257,4.421,4.421,0,0,0,.886-0.436,3.045,3.045,0,0,0,.711-0.626l-0.45-.585a0.353,0.353,0,0,0-.306-0.153,0.7,0.7,0,0,0-.364.14,5.756,5.756,0,0,1-.527.3,4.936,4.936,0,0,1-.751.3,3.437,3.437,0,0,1-1.04.139,3.091,3.091,0,0,1-1.17-.211,2.38,2.38,0,0,1-.9-0.639,3.076,3.076,0,0,1-.594-1.067,5.033,5.033,0,0,1-.234-1.5H409.9a0.336,0.336,0,0,0,.306-0.126,1.045,1.045,0,0,0,.081-0.5,4.935,4.935,0,0,0-.283-1.732,3.612,3.612,0,0,0-.788-1.278,3.394,3.394,0,0,0-1.2-.792,4.07,4.07,0,0,0-1.512-.275A4.4,4.4,0,0,0,404.728,203.512Zm2.8,1.017a2.012,2.012,0,0,1,.724.522,2.276,2.276,0,0,1,.45.8,3.241,3.241,0,0,1,.153,1.021h-4.959a3.154,3.154,0,0,1,.828-1.858A2.772,2.772,0,0,1,407.523,204.529Zm5.98,7.9v-6.714a4.374,4.374,0,0,1,1.139-.927,2.691,2.691,0,0,1,1.327-.342,1.768,1.768,0,0,1,1.445.572,2.452,2.452,0,0,1,.472,1.606v5.8h1.6v-5.8a4.759,4.759,0,0,0-.2-1.413,3.1,3.1,0,0,0-.58-1.093,2.551,2.551,0,0,0-.954-0.7,3.294,3.294,0,0,0-1.319-.248,3.451,3.451,0,0,0-1.7.405,5.126,5.126,0,0,0-1.328,1.062l-0.126-.99a0.408,0.408,0,0,0-.432-0.333H411.9v9.117h1.6Zm15.039-8.073a4.048,4.048,0,0,0-1.3-.877,4.331,4.331,0,0,0-1.692-.311,4.535,4.535,0,0,0-1.836.351,3.752,3.752,0,0,0-1.345.977,4.26,4.26,0,0,0-.828,1.489,6,6,0,0,0-.284,1.881,5.915,5.915,0,0,0,.311,1.989,4.336,4.336,0,0,0,.85,1.472,3.622,3.622,0,0,0,1.274.913,3.98,3.98,0,0,0,1.588.315,5.265,5.265,0,0,0,1.881-.337,3.465,3.465,0,0,0,1.485-1.067l-0.45-.585a0.339,0.339,0,0,0-.306-0.153,0.5,0.5,0,0,0-.324.14,4.623,4.623,0,0,1-.414.31,2.934,2.934,0,0,1-.63.311,2.819,2.819,0,0,1-.963.139,2.568,2.568,0,0,1-1.1-.229,2.267,2.267,0,0,1-.833-0.666,3.188,3.188,0,0,1-.531-1.08,5.232,5.232,0,0,1-.189-1.472,5.4,5.4,0,0,1,.176-1.431,3.116,3.116,0,0,1,.522-1.089,2.284,2.284,0,0,1,.859-0.688,3.12,3.12,0,0,1,2.03-.126,3.348,3.348,0,0,1,.589.247,4.271,4.271,0,0,1,.4.248,0.512,0.512,0,0,0,.292.112,0.34,0.34,0,0,0,.207-0.054,0.715,0.715,0,0,0,.144-0.153Zm1.539-1.044v9.117h1.6v-9.117h-1.6ZM431.949,200a1.221,1.221,0,0,0-.252-0.369,1.174,1.174,0,0,0-.365-0.248,1.094,1.094,0,0,0-.441-0.09,1.06,1.06,0,0,0-.436.09,1.188,1.188,0,0,0-.36.248,1.158,1.158,0,0,0-.248.369,1.124,1.124,0,0,0-.09.445,1.065,1.065,0,0,0,.09.437,1.2,1.2,0,0,0,.608.607,1.06,1.06,0,0,0,.436.09,1.094,1.094,0,0,0,.441-0.09,1.172,1.172,0,0,0,.365-0.247,1.257,1.257,0,0,0,.252-0.36,1.021,1.021,0,0,0,.094-0.437A1.077,1.077,0,0,0,431.949,200Zm4.558,12.424v-6.714a4.374,4.374,0,0,1,1.139-.927,2.691,2.691,0,0,1,1.327-.342,1.768,1.768,0,0,1,1.445.572,2.452,2.452,0,0,1,.472,1.606v5.8h1.6v-5.8a4.759,4.759,0,0,0-.2-1.413,3.1,3.1,0,0,0-.58-1.093,2.551,2.551,0,0,0-.954-0.7,3.294,3.294,0,0,0-1.319-.248,3.451,3.451,0,0,0-1.7.405,5.126,5.126,0,0,0-1.328,1.062l-0.126-.99a0.408,0.408,0,0,0-.432-0.333h-0.954v9.117h1.6Zm10.076-9.063a3.276,3.276,0,0,0-1.094.59,2.675,2.675,0,0,0-.715.927,2.8,2.8,0,0,0-.257,1.21,2.749,2.749,0,0,0,.383,1.463,2.834,2.834,0,0,0,1.057,1,2.37,2.37,0,0,0-.5.333,2.3,2.3,0,0,0-.364.395,1.61,1.61,0,0,0-.221.418,1.265,1.265,0,0,0-.072.409,1.294,1.294,0,0,0,.23.8,1.607,1.607,0,0,0,.616.481,2.931,2.931,0,0,0-1.174.752,1.652,1.652,0,0,0-.428,1.149,1.828,1.828,0,0,0,.248.914,2.313,2.313,0,0,0,.742.77,4.1,4.1,0,0,0,1.247.532,6.906,6.906,0,0,0,1.75.2,5.74,5.74,0,0,0,1.791-.259,4.327,4.327,0,0,0,1.341-.693,3.106,3.106,0,0,0,.842-0.988,2.439,2.439,0,0,0,.292-1.148,1.872,1.872,0,0,0-.261-1.039,1.835,1.835,0,0,0-.693-0.629,3.4,3.4,0,0,0-.981-0.328,6.3,6.3,0,0,0-1.12-.1h-1.121a5.886,5.886,0,0,1-.981-0.074,1.818,1.818,0,0,1-.693-0.247,0.569,0.569,0,0,1-.261-0.507,0.739,0.739,0,0,1,.149-0.419,1.539,1.539,0,0,1,.436-0.4,4.612,4.612,0,0,0,1.206.153,4.35,4.35,0,0,0,1.373-.207,3.191,3.191,0,0,0,1.08-.594,2.744,2.744,0,0,0,.711-0.931,2.807,2.807,0,0,0,.256-1.211,2.772,2.772,0,0,0-.306-1.305l1.035-.144a0.39,0.39,0,0,0,.378-0.378v-0.594h-2.475a3.492,3.492,0,0,0-.94-0.382,4.538,4.538,0,0,0-1.112-.131A4.459,4.459,0,0,0,446.583,203.363Zm4.045,10.2a1.647,1.647,0,0,1-.544.523,2.893,2.893,0,0,1-.869.34,5.176,5.176,0,0,1-1.161.119,5.283,5.283,0,0,1-1.156-.112,2.851,2.851,0,0,1-.815-0.307,1.343,1.343,0,0,1-.481-0.46,1.1,1.1,0,0,1-.158-0.572,1.2,1.2,0,0,1,.32-0.838,2.614,2.614,0,0,1,.832-0.595,3.475,3.475,0,0,0,.927.121h0.954a7.034,7.034,0,0,1,.891.055,3.713,3.713,0,0,1,.747.17,1.22,1.22,0,0,1,.513.326,0.808,0.808,0,0,1,.189.56A1.242,1.242,0,0,1,450.628,213.559Zm-3.5-5.723a1.744,1.744,0,0,1-.621-0.378,1.591,1.591,0,0,1-.382-0.58,2.045,2.045,0,0,1-.131-0.743,1.774,1.774,0,0,1,.509-1.332,2.448,2.448,0,0,1,2.952,0,1.773,1.773,0,0,1,.508,1.332,2.111,2.111,0,0,1-.126.743,1.544,1.544,0,0,1-.378.58,1.735,1.735,0,0,1-.625.378,2.525,2.525,0,0,1-.86.135A2.454,2.454,0,0,1,447.127,207.836Z"/>
  <path id="IHC" class="cls-5" d="M366.226,238.529H364.48v12.9h1.746v-12.9Zm14.391,0h-1.755v5.751h-6.948v-5.751h-1.755v12.9h1.755v-5.868h6.948v5.868h1.755v-12.9ZM392.956,248.9a5.711,5.711,0,0,1-.68.527,3.6,3.6,0,0,1-.729.364,4.245,4.245,0,0,1-.85.212,7.168,7.168,0,0,1-1.035.067,4.531,4.531,0,0,1-1.764-.342,3.985,3.985,0,0,1-1.418-.994,4.752,4.752,0,0,1-.945-1.6,6.222,6.222,0,0,1-.346-2.151,6.109,6.109,0,0,1,.346-2.115,4.608,4.608,0,0,1,.968-1.6,4.239,4.239,0,0,1,1.48-1.012,4.913,4.913,0,0,1,1.895-.356,5.385,5.385,0,0,1,1.017.086,4.761,4.761,0,0,1,.774.211,3.707,3.707,0,0,1,.576.27q0.243,0.144.423,0.27c0.12,0.084.223,0.155,0.31,0.212a0.456,0.456,0,0,0,.248.085,0.4,0.4,0,0,0,.234-0.058,0.62,0.62,0,0,0,.144-0.149l0.567-.8a5.878,5.878,0,0,0-4.284-1.638,6.972,6.972,0,0,0-2.633.482,5.937,5.937,0,0,0-2.047,1.354,6.109,6.109,0,0,0-1.328,2.088,7.315,7.315,0,0,0-.472,2.673,7.783,7.783,0,0,0,.441,2.673,6.1,6.1,0,0,0,1.242,2.084,5.543,5.543,0,0,0,1.935,1.35,6.409,6.409,0,0,0,2.529.481,6.549,6.549,0,0,0,2.722-.513,5.519,5.519,0,0,0,1.922-1.431l-0.684-.747a0.361,0.361,0,0,0-.261-0.117,0.457,0.457,0,0,0-.3.135h0Z"/>
  <path id="Flow_Cytometry" data-name="Flow Cytometry" class="cls-5" d="M316.155,275.529v12.9h1.755v-5.544H323.2V281.46H317.91v-4.509H324.1v-1.422h-7.947Zm9.927-.36v13.257h1.6V275.169h-1.6Zm6.709,4.329a3.846,3.846,0,0,0-1.372.945,4.188,4.188,0,0,0-.873,1.481,6.312,6.312,0,0,0,0,3.883,4.193,4.193,0,0,0,.873,1.476,3.8,3.8,0,0,0,1.372.941,5.128,5.128,0,0,0,3.609,0,3.758,3.758,0,0,0,1.368-.941,4.19,4.19,0,0,0,.864-1.476,6.392,6.392,0,0,0,0-3.883,4.186,4.186,0,0,0-.864-1.481,3.8,3.8,0,0,0-1.368-.945A5.056,5.056,0,0,0,332.791,279.5Zm0.617,7.569a2.234,2.234,0,0,1-.842-0.67,2.956,2.956,0,0,1-.5-1.076,6.425,6.425,0,0,1,0-2.9,3,3,0,0,1,.5-1.085,2.218,2.218,0,0,1,.842-0.675,2.8,2.8,0,0,1,1.188-.234,2.337,2.337,0,0,1,2.016.909,5.144,5.144,0,0,1,0,5.063,2.341,2.341,0,0,1-2.016.9A2.8,2.8,0,0,1,333.408,287.067Zm9.261,1.359h1.206a0.376,0.376,0,0,0,.369-0.306l2.043-6.174a3.775,3.775,0,0,0,.117-0.423c0.03-.144.059-0.285,0.09-0.423,0.029,0.138.059,0.278,0.09,0.419a3.133,3.133,0,0,0,.117.418l2.016,6.183a0.344,0.344,0,0,0,.324.306h1.269l2.952-9.117h-1.206a0.477,0.477,0,0,0-.3.095,0.46,0.46,0,0,0-.171.238l-1.782,5.868q-0.081.279-.153,0.6t-0.117.621c-0.049-.2-0.1-0.4-0.149-0.6s-0.11-.411-0.175-0.621l-1.881-5.9a0.458,0.458,0,0,0-.459-0.315h-0.693a0.439,0.439,0,0,0-.284.09,0.474,0.474,0,0,0-.157.225l-1.926,5.9q-0.1.324-.189,0.626t-0.162.607q-0.047-.306-0.108-0.607t-0.135-.626l-1.746-5.868a0.5,0.5,0,0,0-.5-0.333h-1.26ZM367.95,285.9a5.792,5.792,0,0,1-.68.527,3.6,3.6,0,0,1-.729.364,4.245,4.245,0,0,1-.85.212,7.178,7.178,0,0,1-1.035.067,4.528,4.528,0,0,1-1.764-.342,3.976,3.976,0,0,1-1.418-.994,4.752,4.752,0,0,1-.945-1.6,6.222,6.222,0,0,1-.346-2.151,6.109,6.109,0,0,1,.346-2.115,4.608,4.608,0,0,1,.968-1.6,4.239,4.239,0,0,1,1.48-1.012,4.909,4.909,0,0,1,1.9-.356,5.4,5.4,0,0,1,1.017.086,4.818,4.818,0,0,1,.774.211,3.751,3.751,0,0,1,.576.27c0.162,0.1.3,0.186,0.423,0.27s0.223,0.155.31,0.212a0.454,0.454,0,0,0,.248.085,0.4,0.4,0,0,0,.234-0.058,0.64,0.64,0,0,0,.144-0.149l0.567-.8a5.878,5.878,0,0,0-4.284-1.638,6.972,6.972,0,0,0-2.633.482,5.928,5.928,0,0,0-2.047,1.354,6.094,6.094,0,0,0-1.328,2.088,7.315,7.315,0,0,0-.472,2.673,7.783,7.783,0,0,0,.441,2.673,6.073,6.073,0,0,0,1.242,2.084,5.543,5.543,0,0,0,1.935,1.35,6.406,6.406,0,0,0,2.529.481,6.549,6.549,0,0,0,2.722-.513,5.529,5.529,0,0,0,1.922-1.431l-0.684-.747a0.365,0.365,0,0,0-.261-0.117,0.453,0.453,0,0,0-.3.135h0Zm10.71-6.588h-1.278a0.473,0.473,0,0,0-.284.095,0.51,0.51,0,0,0-.184.238l-2.367,5.733c-0.054.138-.1,0.273-0.144,0.4s-0.085.267-.126,0.405c-0.031-.138-0.065-0.273-0.1-0.405a4.151,4.151,0,0,0-.139-0.4l-2.439-5.742a0.658,0.658,0,0,0-.171-0.229,0.476,0.476,0,0,0-.324-0.1h-1.386l3.762,8.586-1.665,3.618H373a0.55,0.55,0,0,0,.373-0.108,0.84,0.84,0,0,0,.2-0.288Zm5.211,9.041a3.006,3.006,0,0,0,1-.608l-0.468-.765a0.278,0.278,0,0,0-.225-0.153,0.3,0.3,0,0,0-.167.068c-0.063.045-.139,0.094-0.229,0.148a1.879,1.879,0,0,1-.32.149,1.273,1.273,0,0,1-.436.067,0.971,0.971,0,0,1-.72-0.279,1.16,1.16,0,0,1-.279-0.855V280.65h2.61v-1.161h-2.61v-3.141h-0.81a0.369,0.369,0,0,0-.252.086,0.331,0.331,0,0,0-.117.22l-0.369,2.817-1.494.189V280.3a0.33,0.33,0,0,0,.1.266,0.355,0.355,0,0,0,.243.085h1.1v5.58a2.406,2.406,0,0,0,.58,1.737,2.2,2.2,0,0,0,1.661.6A3.4,3.4,0,0,0,383.871,288.35Zm4.918-8.852a3.846,3.846,0,0,0-1.372.945,4.188,4.188,0,0,0-.873,1.481,6.312,6.312,0,0,0,0,3.883,4.193,4.193,0,0,0,.873,1.476,3.8,3.8,0,0,0,1.372.941,5.128,5.128,0,0,0,3.609,0,3.758,3.758,0,0,0,1.368-.941,4.19,4.19,0,0,0,.864-1.476,6.392,6.392,0,0,0,0-3.883,4.186,4.186,0,0,0-.864-1.481,3.8,3.8,0,0,0-1.368-.945A5.056,5.056,0,0,0,388.789,279.5Zm0.617,7.569a2.234,2.234,0,0,1-.842-0.67,2.956,2.956,0,0,1-.5-1.076,6.425,6.425,0,0,1,0-2.9,3,3,0,0,1,.5-1.085,2.218,2.218,0,0,1,.842-0.675,2.792,2.792,0,0,1,1.188-.234,2.337,2.337,0,0,1,2.016.909,5.144,5.144,0,0,1,0,5.063,2.341,2.341,0,0,1-2.016.9A2.792,2.792,0,0,1,389.406,287.067Zm9.1,1.359v-6.8a3.589,3.589,0,0,1,.931-0.868,2.036,2.036,0,0,1,1.1-.32,1.568,1.568,0,0,1,1.287.54,2.56,2.56,0,0,1,.441,1.638v5.805h1.6v-5.805a2.633,2.633,0,0,1,.157-0.949,1.923,1.923,0,0,1,.428-0.68,1.807,1.807,0,0,1,.625-0.409,2.038,2.038,0,0,1,.752-0.14,1.682,1.682,0,0,1,1.359.554,2.461,2.461,0,0,1,.468,1.624v5.805h1.6v-5.805a4.83,4.83,0,0,0-.207-1.471,3,3,0,0,0-.6-1.085,2.538,2.538,0,0,0-.954-0.67,3.372,3.372,0,0,0-1.282-.23,3.675,3.675,0,0,0-.887.108,2.939,2.939,0,0,0-.823.342,2.885,2.885,0,0,0-.7.594,2.852,2.852,0,0,0-.5.855,2.894,2.894,0,0,0-.824-1.386,2.159,2.159,0,0,0-1.5-.513,2.658,2.658,0,0,0-1.454.4,4.657,4.657,0,0,0-1.129,1.017l-0.117-.936a0.41,0.41,0,0,0-.432-0.333H396.9v9.117h1.6Zm15.228-8.914a3.855,3.855,0,0,0-1.341.954,4.183,4.183,0,0,0-.842,1.435,5.312,5.312,0,0,0-.292,1.782,6.2,6.2,0,0,0,.324,2.088,4.3,4.3,0,0,0,.9,1.526,3.822,3.822,0,0,0,1.377.936,4.638,4.638,0,0,0,1.742.319,5.981,5.981,0,0,0,1-.085,5.65,5.65,0,0,0,.976-0.257,4.456,4.456,0,0,0,.887-0.436,3.065,3.065,0,0,0,.711-0.626l-0.45-.585a0.354,0.354,0,0,0-.306-0.153,0.7,0.7,0,0,0-.365.14,5.863,5.863,0,0,1-.526.3,4.994,4.994,0,0,1-.752.3,3.435,3.435,0,0,1-1.039.139,3.087,3.087,0,0,1-1.17-.211,2.372,2.372,0,0,1-.9-0.639,3.076,3.076,0,0,1-.594-1.067,5,5,0,0,1-.234-1.5h6.066a0.338,0.338,0,0,0,.306-0.126,1.045,1.045,0,0,0,.081-0.5,4.934,4.934,0,0,0-.284-1.732,3.624,3.624,0,0,0-.787-1.278,3.412,3.412,0,0,0-1.2-.792,4.077,4.077,0,0,0-1.512-.275A4.4,4.4,0,0,0,413.733,279.512Zm2.794,1.017a2.016,2.016,0,0,1,.725.522,2.292,2.292,0,0,1,.45.8,3.27,3.27,0,0,1,.153,1.021H412.9a3.148,3.148,0,0,1,.828-1.858A2.77,2.77,0,0,1,416.527,280.529Zm8.348,7.821a3.006,3.006,0,0,0,1-.608l-0.468-.765a0.278,0.278,0,0,0-.225-0.153,0.3,0.3,0,0,0-.167.068c-0.063.045-.139,0.094-0.229,0.148a1.879,1.879,0,0,1-.32.149,1.273,1.273,0,0,1-.436.067,0.971,0.971,0,0,1-.72-0.279,1.16,1.16,0,0,1-.279-0.855V280.65h2.61v-1.161h-2.61v-3.141h-0.81a0.369,0.369,0,0,0-.252.086,0.331,0.331,0,0,0-.117.22l-0.369,2.817-1.494.189V280.3a0.33,0.33,0,0,0,.1.266,0.355,0.355,0,0,0,.243.085h1.1v5.58a2.406,2.406,0,0,0,.58,1.737,2.2,2.2,0,0,0,1.661.6A3.4,3.4,0,0,0,424.875,288.35Zm4.635,0.076v-5.805a3.648,3.648,0,0,1,.94-1.413,2.066,2.066,0,0,1,1.4-.486,2.447,2.447,0,0,1,.729.086,1.381,1.381,0,0,0,.387.085,0.271,0.271,0,0,0,.279-0.225l0.207-1.2a2.418,2.418,0,0,0-.567-0.238,2.72,2.72,0,0,0-2.3.45,4.156,4.156,0,0,0-1.156,1.489l-0.108-1.422a0.622,0.622,0,0,0-.135-0.342,0.51,0.51,0,0,0-.36-0.1h-0.918v9.117h1.6Zm13.158-9.117H441.39a0.473,0.473,0,0,0-.284.095,0.51,0.51,0,0,0-.184.238l-2.367,5.733c-0.054.138-.1,0.273-0.144,0.4s-0.085.267-.126,0.405c-0.031-.138-0.065-0.273-0.1-0.405a4.151,4.151,0,0,0-.139-0.4l-2.439-5.742a0.658,0.658,0,0,0-.171-0.229,0.476,0.476,0,0,0-.324-0.1h-1.386l3.762,8.586-1.665,3.618h1.188a0.55,0.55,0,0,0,.373-0.108,0.84,0.84,0,0,0,.2-0.288Z"/>
</svg>
