<svg xmlns="http://www.w3.org/2000/svg" width="73" height="73" viewBox="0 0 73 73">
  <defs>
    <style>
      .cls-1 {
        fill: #fff;
        fill-rule: evenodd;
      }
    </style>
  </defs>
  <path id="Icon" class="cls-1" d="M24.886,26.562H23.393a15.173,15.173,0,0,1,1.161-2.319,12.778,12.778,0,0,0,1.991-6.128c0-5.3-2.655-8.116-7.466-8.116C8.13,10,0,18.944,0,30.7c0,10.1,4.646,15.734,13.273,15.734,3.152,0,5.641-.828,7.466-2.65,1.991-1.987,2.821-4.969,2.821-8.944a1.659,1.659,0,0,0-3.318,0c0,3.147-.5,5.3-1.825,6.625-1.161,1.159-2.82,1.657-5.143,1.657-6.636,0-9.955-3.976-9.955-12.422,0-9.937,6.8-17.391,15.761-17.391,2.157,0,4.148.5,4.148,4.638,0,1.491-.829,2.981-1.659,4.638a10.82,10.82,0,0,0-1.825,5.631A1.567,1.567,0,0,0,21.4,29.875h3.484A6.65,6.65,0,0,1,31.523,36.5V61.344a1.659,1.659,0,0,0,3.318,0V36.5A9.975,9.975,0,0,0,24.886,26.562ZM53.92,10c-4.811,0-7.466,2.816-7.466,7.95a12.777,12.777,0,0,0,1.991,6.128c0.5,0.828.829,1.657,1.161,2.319H48.114a9.975,9.975,0,0,0-9.955,9.938V61.179a1.659,1.659,0,0,0,3.318,0V36.5a6.65,6.65,0,0,1,6.636-6.625H51.6a1.566,1.566,0,0,0,1.659-1.656c0-2.153-1-3.81-1.825-5.632a9.813,9.813,0,0,1-1.659-4.638c0-4.14,1.991-4.638,4.148-4.638,8.959,0,15.761,7.453,15.761,17.391q0,12.421-9.955,12.422c-2.323,0-3.982-.5-5.143-1.656-1.327-1.325-1.825-3.478-1.825-6.625A1.566,1.566,0,0,0,51.1,33.188a1.661,1.661,0,0,0-1.659,1.656c0,4.141.83,6.957,2.821,8.944,1.825,1.822,4.313,2.65,7.466,2.65C68.354,46.438,73,40.807,73,30.7,73,18.944,64.871,10,53.92,10Z"/>
</svg>
