<svg id="Layer_1" data-name="Layer 1" xmlns="http://www.w3.org/2000/svg" viewBox="0 0 423.44 163.46"><defs><style>.cls-1{fill:#fff;}</style></defs><title>Prima-logo</title><path class="cls-1" d="M105.71,475.49a1.88,1.88,0,0,1,.49,1.47l-1.92,24.09a1.77,1.77,0,0,1-.7,1.37,2.45,2.45,0,0,1-1.56.51,2,2,0,0,1-1.41-.47,1.6,1.6,0,0,1-.47-1.33l.69-8.75a7.09,7.09,0,0,1-2.7,2.37,8,8,0,0,1-3.68.86A8.42,8.42,0,0,1,90,494.45a7.75,7.75,0,0,1-3-3.36A11.47,11.47,0,0,1,86,486a13.53,13.53,0,0,1,1.19-5.81,9.22,9.22,0,0,1,3.31-3.93,8.76,8.76,0,0,1,4.91-1.39,8,8,0,0,1,4,1,6.47,6.47,0,0,1,2.62,2.78l.12-1.68a2,2,0,0,1,.65-1.47,2.23,2.23,0,0,1,1.51-.53,1.94,1.94,0,0,1,1.43.53ZM99.9,490.28a9.16,9.16,0,0,0,1.56-5.62,7.2,7.2,0,0,0-1.41-4.83,5.69,5.69,0,0,0-8.36.41,9.13,9.13,0,0,0-1.56,5.65,7.1,7.1,0,0,0,1.45,4.77,5.56,5.56,0,0,0,8.32-.37Z" transform="translate(-85.95 -339.48)"/><path class="cls-1" d="M129,475.47a1.92,1.92,0,0,1,.47,1.49l-1.35,16.69a1.79,1.79,0,0,1-.68,1.37,2.36,2.36,0,0,1-1.53.51,2,2,0,0,1-1.37-.47,1.6,1.6,0,0,1-.47-1.33l.12-1.43a6.83,6.83,0,0,1-2.72,2.45,8.26,8.26,0,0,1-3.78.86,6.68,6.68,0,0,1-5-1.78,7.22,7.22,0,0,1-1.72-5.22,10.59,10.59,0,0,1,0-1.1l.86-10.55a2.1,2.1,0,0,1,.7-1.47,2.23,2.23,0,0,1,1.51-.53,2,2,0,0,1,1.47.53A1.77,1.77,0,0,1,116,477l-.86,10.31,0,.74q0,4.25,4,4.25a5,5,0,0,0,3.85-1.51,6.6,6.6,0,0,0,1.64-4.17l.82-9.61a2,2,0,0,1,.65-1.47,2.29,2.29,0,0,1,1.55-.53,2,2,0,0,1,1.45.51Z" transform="translate(-85.95 -339.48)"/><path class="cls-1" d="M151,481.91c0,.52,0,.91,0,1.19l-.82,10.55a1.88,1.88,0,0,1-.59,1.39,2.1,2.1,0,0,1-1.45.49,1.9,1.9,0,0,1-1.43-.55,1.71,1.71,0,0,1-.45-1.41l.08-1.39a6.07,6.07,0,0,1-2.37,2.56,6.85,6.85,0,0,1-3.51.88,7.44,7.44,0,0,1-4.93-1.62,5.15,5.15,0,0,1-1.94-4.15,5.23,5.23,0,0,1,1.19-3.62,7.13,7.13,0,0,1,3.78-1.94,31.56,31.56,0,0,1,7-.61h1.47l.08-1a4.49,4.49,0,0,0-.82-3.42,4.12,4.12,0,0,0-3.19-1.08,12.59,12.59,0,0,0-6,1.8,1.65,1.65,0,0,1-.82.2,1.32,1.32,0,0,1-1-.45,1.53,1.53,0,0,1-.41-1.06,1.91,1.91,0,0,1,1-1.64,12.3,12.3,0,0,1,3.5-1.55,15.05,15.05,0,0,1,4.11-.57q7.57,0,7.57,7ZM145,491a6.13,6.13,0,0,0,1.68-3.89l.08-1.15h-1.14a26.64,26.64,0,0,0-4.74.33,4.68,4.68,0,0,0-2.45,1.06,2.76,2.76,0,0,0-.74,2,2.8,2.8,0,0,0,1,2.27,4.09,4.09,0,0,0,2.72.84A4.82,4.82,0,0,0,145,491Z" transform="translate(-85.95 -339.48)"/><path class="cls-1" d="M156.25,495a1.67,1.67,0,0,1-.47-1.47l2-25.36a1.82,1.82,0,0,1,.69-1.47,2.46,2.46,0,0,1,1.52-.49,2.05,2.05,0,0,1,1.41.49,1.77,1.77,0,0,1,.51,1.47l-2,25.36a2,2,0,0,1-.7,1.49,2.42,2.42,0,0,1-1.51.47,2.1,2.1,0,0,1-1.45-.49Z" transform="translate(-85.95 -339.48)"/><path class="cls-1" d="M166.15,495a1.66,1.66,0,0,1-.47-1.47L167,476.88a1.77,1.77,0,0,1,.69-1.43,2.45,2.45,0,0,1,1.51-.49,2,2,0,0,1,1.43.49,1.76,1.76,0,0,1,.49,1.43l-1.35,16.69a2,2,0,0,1-.7,1.49,2.41,2.41,0,0,1-1.51.47,2.1,2.1,0,0,1-1.45-.49Zm1.74-24.75a2.24,2.24,0,0,1-.7-1.72,2.18,2.18,0,0,1,.7-1.7,2.68,2.68,0,0,1,1.88-.63,2.7,2.7,0,0,1,1.86.63,2.16,2.16,0,0,1,.72,1.7,2.25,2.25,0,0,1-.7,1.72,3,3,0,0,1-3.76,0Z" transform="translate(-85.95 -339.48)"/><path class="cls-1" d="M181.43,487.93a4.64,4.64,0,0,0,0,.74,4.13,4.13,0,0,0,.84,2.8,3,3,0,0,0,2.35,1,7.94,7.94,0,0,0,1-.06,6.63,6.63,0,0,1,.78-.06.91.91,0,0,1,.78.39,1.78,1.78,0,0,1,.29,1.08,1.47,1.47,0,0,1-.8,1.43,6.72,6.72,0,0,1-2.8.41,6,6,0,0,1-6.54-6.55q0-.65,0-1l.74-9.49h-2.41a1.82,1.82,0,0,1-1.27-.41,1.46,1.46,0,0,1-.45-1.15,1.52,1.52,0,0,1,.49-1.21,2.11,2.11,0,0,1,1.43-.43h2.45l.33-4.26a2,2,0,0,1,.7-1.39,2.23,2.23,0,0,1,1.51-.53,2,2,0,0,1,1.47.53,1.72,1.72,0,0,1,.45,1.43l-.33,4.21h4a1.75,1.75,0,0,1,1.23.41,1.41,1.41,0,0,1,.45,1.1q0,1.68-1.88,1.68h-4.09l-.74,9.37Z" transform="translate(-85.95 -339.48)"/><path class="cls-1" d="M207.37,475.12a2,2,0,0,1,1.35.49,1.55,1.55,0,0,1,.57,1.23,1.79,1.79,0,0,1-.25.86L196.4,501.75a2.54,2.54,0,0,1-.8.88,1.82,1.82,0,0,1-1,.31,1.84,1.84,0,0,1-1.23-.45,1.43,1.43,0,0,1-.53-1.15,2.09,2.09,0,0,1,.25-.94l2.82-5.52-6.3-17.26-.12-.61a1.67,1.67,0,0,1,.67-1.33,2.3,2.3,0,0,1,1.5-.55,1.78,1.78,0,0,1,1,.31,1.72,1.72,0,0,1,.65.92l5,14.36,7.32-14.44a1.83,1.83,0,0,1,1.72-1.15Z" transform="translate(-85.95 -339.48)"/><path class="cls-1" d="M226.43,494.43a8.2,8.2,0,0,1-3.35-3.4,10.61,10.61,0,0,1-1.19-5.11,12.91,12.91,0,0,1,1.25-5.85,9.09,9.09,0,0,1,3.52-3.85,10.09,10.09,0,0,1,5.26-1.35,10.35,10.35,0,0,1,5.11,1.21,8.38,8.38,0,0,1,3.35,3.4,10.61,10.61,0,0,1,1.19,5.13,12.82,12.82,0,0,1-1.25,5.83,9.11,9.11,0,0,1-3.52,3.83,10.17,10.17,0,0,1-5.3,1.35,10.39,10.39,0,0,1-5.07-1.19Zm9.45-4.21a9.69,9.69,0,0,0,1.52-5.73,6.92,6.92,0,0,0-1.41-4.68,5.69,5.69,0,0,0-8.41.51,9.69,9.69,0,0,0-1.52,5.73,6.89,6.89,0,0,0,1.41,4.7,5.14,5.14,0,0,0,4.07,1.6,5,5,0,0,0,4.34-2.13Z" transform="translate(-85.95 -339.48)"/><path class="cls-1" d="M253.53,470.95a5.7,5.7,0,0,0-1.25,3.4l-.08,1h4a1.74,1.74,0,0,1,1.25.41,1.45,1.45,0,0,1,.43,1.1q0,1.68-1.88,1.68H252l-1.19,15a1.86,1.86,0,0,1-.68,1.47,2.37,2.37,0,0,1-1.49.49,2.12,2.12,0,0,1-1.43-.49,1.72,1.72,0,0,1-.53-1.47l1.19-15h-2.41a1.81,1.81,0,0,1-1.27-.41,1.41,1.41,0,0,1-.45-1.1,1.57,1.57,0,0,1,.49-1.25,2.11,2.11,0,0,1,1.43-.43h2.46l0-.53q.65-7.85,8.47-8.35l.86,0q2.17-.12,2.17,1.43a1.53,1.53,0,0,1-.45,1.19,2.21,2.21,0,0,1-1.31.49l-1.11.08a4.63,4.63,0,0,0-3.21,1.31Z" transform="translate(-85.95 -339.48)"/><path class="cls-1" d="M270.63,495a1.67,1.67,0,0,1-.47-1.47l2-25.36a1.81,1.81,0,0,1,.69-1.47,2.45,2.45,0,0,1,1.51-.49,2,2,0,0,1,1.41.49,1.77,1.77,0,0,1,.51,1.47l-2,25.36a2,2,0,0,1-.69,1.49,2.42,2.42,0,0,1-1.51.47,2.1,2.1,0,0,1-1.45-.49Z" transform="translate(-85.95 -339.48)"/><path class="cls-1" d="M280.53,495a1.66,1.66,0,0,1-.47-1.47l1.35-16.69a1.78,1.78,0,0,1,.7-1.43,2.45,2.45,0,0,1,1.51-.49,2,2,0,0,1,1.43.49,1.75,1.75,0,0,1,.49,1.43l-1.35,16.69a2,2,0,0,1-.7,1.49,2.42,2.42,0,0,1-1.51.47,2.1,2.1,0,0,1-1.45-.49Zm1.74-24.75a2.24,2.24,0,0,1-.69-1.72,2.19,2.19,0,0,1,.69-1.7,3.08,3.08,0,0,1,3.74,0,2.16,2.16,0,0,1,.71,1.7,2.24,2.24,0,0,1-.69,1.72,3,3,0,0,1-3.77,0Z" transform="translate(-85.95 -339.48)"/><path class="cls-1" d="M298.12,470.95a5.7,5.7,0,0,0-1.25,3.4l-.08,1h4a1.75,1.75,0,0,1,1.25.41,1.46,1.46,0,0,1,.43,1.1q0,1.68-1.88,1.68h-4.09l-1.19,15a1.84,1.84,0,0,1-.68,1.47,2.37,2.37,0,0,1-1.49.49,2.12,2.12,0,0,1-1.43-.49,1.73,1.73,0,0,1-.53-1.47l1.19-15H290a1.81,1.81,0,0,1-1.27-.41,1.41,1.41,0,0,1-.45-1.1,1.57,1.57,0,0,1,.49-1.25,2.11,2.11,0,0,1,1.43-.43h2.45l0-.53q.65-7.85,8.47-8.35l.86,0q2.17-.12,2.17,1.43a1.52,1.52,0,0,1-.45,1.19,2.21,2.21,0,0,1-1.31.49l-1.1.08a4.64,4.64,0,0,0-3.21,1.31Z" transform="translate(-85.95 -339.48)"/><path class="cls-1" d="M321.23,485.62a1.58,1.58,0,0,1-1.17.43H307.34a6.82,6.82,0,0,0,1.56,4.68,5.63,5.63,0,0,0,4.38,1.66,9.39,9.39,0,0,0,5.32-1.64,1.68,1.68,0,0,1,.9-.29,1.16,1.16,0,0,1,.94.45,1.63,1.63,0,0,1,.37,1.06,2,2,0,0,1-.82,1.6,8.67,8.67,0,0,1-3,1.47,13.81,13.81,0,0,1-3.91.57,10.72,10.72,0,0,1-5.15-1.19,8.26,8.26,0,0,1-3.42-3.4,10.47,10.47,0,0,1-1.21-5.11,12.73,12.73,0,0,1,1.25-5.75,9.35,9.35,0,0,1,3.5-3.91,9.69,9.69,0,0,1,5.2-1.39,8,8,0,0,1,6.28,2.43q2.19,2.43,2.19,7.06a1.68,1.68,0,0,1-.43,1.25Zm-11.84-6.24a7.37,7.37,0,0,0-1.88,4.29h10.55a6.19,6.19,0,0,0-1.17-4.29,4.38,4.38,0,0,0-3.54-1.47,5.36,5.36,0,0,0-4,1.47Z" transform="translate(-85.95 -339.48)"/><path class="cls-1" d="M325.59,494.8a2.55,2.55,0,0,1-.74-1.88,2.62,2.62,0,0,1,.74-1.9,2.52,2.52,0,0,1,1.88-.76,2.46,2.46,0,0,1,1.84.76,2.61,2.61,0,0,1,.74,1.9,2.54,2.54,0,0,1-.74,1.88,2.5,2.5,0,0,1-1.84.74,2.55,2.55,0,0,1-1.88-.74Z" transform="translate(-85.95 -339.48)"/><path class="cls-1" d="M354.08,470.95a5.7,5.7,0,0,0-1.25,3.4l-.08,1h4a1.75,1.75,0,0,1,1.25.41,1.46,1.46,0,0,1,.43,1.1q0,1.68-1.88,1.68h-4.09l-1.19,15a1.85,1.85,0,0,1-.67,1.47,2.38,2.38,0,0,1-1.5.49,2.12,2.12,0,0,1-1.43-.49,1.73,1.73,0,0,1-.53-1.47l1.19-15H346a1.82,1.82,0,0,1-1.27-.41,1.41,1.41,0,0,1-.45-1.1,1.57,1.57,0,0,1,.49-1.25,2.11,2.11,0,0,1,1.43-.43h2.45l0-.53q.65-7.85,8.47-8.35l.86,0q2.17-.12,2.17,1.43a1.53,1.53,0,0,1-.45,1.19,2.22,2.22,0,0,1-1.31.49l-1.11.08a4.64,4.64,0,0,0-3.21,1.31Z" transform="translate(-85.95 -339.48)"/><path class="cls-1" d="M363.76,494.43a8.21,8.21,0,0,1-3.35-3.4,10.61,10.61,0,0,1-1.19-5.11,12.88,12.88,0,0,1,1.25-5.85,9.07,9.07,0,0,1,3.52-3.85,10.09,10.09,0,0,1,5.26-1.35,10.35,10.35,0,0,1,5.11,1.21,8.38,8.38,0,0,1,3.36,3.4,10.64,10.64,0,0,1,1.19,5.13,12.82,12.82,0,0,1-1.25,5.83,9.1,9.1,0,0,1-3.52,3.83,10.17,10.17,0,0,1-5.3,1.35,10.4,10.4,0,0,1-5.07-1.19Zm9.45-4.21a9.69,9.69,0,0,0,1.51-5.73,6.92,6.92,0,0,0-1.41-4.68,5.69,5.69,0,0,0-8.41.51,9.69,9.69,0,0,0-1.51,5.73,6.89,6.89,0,0,0,1.41,4.7,5.14,5.14,0,0,0,4.07,1.6,5,5,0,0,0,4.34-2.13Z" transform="translate(-85.95 -339.48)"/><path class="cls-1" d="M396.14,475.29a1.48,1.48,0,0,1,.47,1.19q0,1.88-2,2l-1.11.12a6.77,6.77,0,0,0-4.19,1.64,6,6,0,0,0-1.58,4l-.78,9.33a2,2,0,0,1-.69,1.49,2.43,2.43,0,0,1-1.52.47,2.1,2.1,0,0,1-1.45-.49,1.67,1.67,0,0,1-.47-1.47l1.35-16.73a1.73,1.73,0,0,1,.69-1.39,2.45,2.45,0,0,1,1.51-.49,1.82,1.82,0,0,1,1.31.47,1.7,1.7,0,0,1,.45,1.37l-.12,1.68a7.89,7.89,0,0,1,6.46-3.48l.45,0a1.58,1.58,0,0,1,1.25.33Z" transform="translate(-85.95 -339.48)"/><path class="cls-1" d="M414.83,485.62a1.57,1.57,0,0,1-1.17.43H400.95a6.82,6.82,0,0,0,1.55,4.68,5.63,5.63,0,0,0,4.38,1.66,9.39,9.39,0,0,0,5.32-1.64,1.68,1.68,0,0,1,.9-.29,1.17,1.17,0,0,1,.94.45,1.64,1.64,0,0,1,.37,1.06,2,2,0,0,1-.82,1.6,8.67,8.67,0,0,1-3,1.47,13.79,13.79,0,0,1-3.91.57,10.72,10.72,0,0,1-5.15-1.19,8.27,8.27,0,0,1-3.42-3.4,10.47,10.47,0,0,1-1.21-5.11,12.73,12.73,0,0,1,1.25-5.75,9.34,9.34,0,0,1,3.5-3.91,9.67,9.67,0,0,1,5.19-1.39,8,8,0,0,1,6.28,2.43q2.19,2.43,2.19,7.06a1.68,1.68,0,0,1-.43,1.25ZM403,479.38a7.38,7.38,0,0,0-1.88,4.29h10.55a6.19,6.19,0,0,0-1.17-4.29A4.38,4.38,0,0,0,407,477.9a5.36,5.36,0,0,0-4,1.47Z" transform="translate(-85.95 -339.48)"/><path class="cls-1" d="M447.85,476.62a7.22,7.22,0,0,1,1.62,5.09c0,.57,0,1,0,1.31l-.82,10.55a2,2,0,0,1-.7,1.49,2.41,2.41,0,0,1-1.51.47,2.1,2.1,0,0,1-1.45-.49,1.67,1.67,0,0,1-.47-1.47l.82-10.39a8.31,8.31,0,0,0,0-.94q0-4-3.52-4a4.6,4.6,0,0,0-3.62,1.49,7.39,7.39,0,0,0-1.57,4.4l-.74,9.45a2,2,0,0,1-.69,1.49,2.42,2.42,0,0,1-1.51.47,2.1,2.1,0,0,1-1.45-.49,1.67,1.67,0,0,1-.47-1.47l.82-10.35a8.93,8.93,0,0,0,0-1,4.43,4.43,0,0,0-.88-3,3.41,3.41,0,0,0-2.68-1,4.53,4.53,0,0,0-3.6,1.49,7.49,7.49,0,0,0-1.56,4.4l-.78,9.45a2,2,0,0,1-.69,1.49,2.43,2.43,0,0,1-1.51.47,2.1,2.1,0,0,1-1.45-.49,1.67,1.67,0,0,1-.47-1.47l1.35-16.73a1.72,1.72,0,0,1,.71-1.39,2.54,2.54,0,0,1,1.53-.49,1.87,1.87,0,0,1,1.35.47,1.71,1.71,0,0,1,.45,1.37l-.08,1.31a7.62,7.62,0,0,1,9.9-2.29,5.28,5.28,0,0,1,2.13,2.74,7.4,7.4,0,0,1,2.82-2.72,8.14,8.14,0,0,1,4-1,6.13,6.13,0,0,1,4.72,1.74Z" transform="translate(-85.95 -339.48)"/><path class="cls-1" d="M458.3,494.43a8.18,8.18,0,0,1-3.35-3.4,10.61,10.61,0,0,1-1.19-5.11,12.91,12.91,0,0,1,1.25-5.85,9.08,9.08,0,0,1,3.52-3.85,10.08,10.08,0,0,1,5.26-1.35,10.35,10.35,0,0,1,5.11,1.21,8.38,8.38,0,0,1,3.35,3.4,10.61,10.61,0,0,1,1.19,5.13,12.82,12.82,0,0,1-1.25,5.83,9.11,9.11,0,0,1-3.52,3.83,10.17,10.17,0,0,1-5.3,1.35,10.39,10.39,0,0,1-5.07-1.19Zm9.45-4.21a9.69,9.69,0,0,0,1.51-5.73,6.9,6.9,0,0,0-1.41-4.68,5.69,5.69,0,0,0-8.41.51,9.71,9.71,0,0,0-1.51,5.73,6.9,6.9,0,0,0,1.41,4.7,5.15,5.15,0,0,0,4.07,1.6,5,5,0,0,0,4.34-2.13Z" transform="translate(-85.95 -339.48)"/><path class="cls-1" d="M480.47,495.11a11.67,11.67,0,0,1-3.23-1.37,2,2,0,0,1-1.06-1.72,1.69,1.69,0,0,1,.43-1.15,1.34,1.34,0,0,1,1-.49,1.67,1.67,0,0,1,.9.29,10.93,10.93,0,0,0,6.06,1.8q4.29,0,4.29-2.54a2,2,0,0,0-1.1-1.82,16,16,0,0,0-3.44-1.29,28.44,28.44,0,0,1-3.44-1.19,6.06,6.06,0,0,1-2.25-1.7,4.4,4.4,0,0,1-.94-2.93,5.27,5.27,0,0,1,2.27-4.46,10,10,0,0,1,6.07-1.68,11.67,11.67,0,0,1,3.52.55,8.05,8.05,0,0,1,2.82,1.45,1.81,1.81,0,0,1,.86,1.51,1.66,1.66,0,0,1-.39,1.08,1.24,1.24,0,0,1-1,.47,1.81,1.81,0,0,1-1-.33,8.93,8.93,0,0,0-5-1.6,5.92,5.92,0,0,0-3.15.7,2.27,2.27,0,0,0-1.11,2,2,2,0,0,0,1.08,1.8,16.38,16.38,0,0,0,3.41,1.27,28.64,28.64,0,0,1,3.44,1.19,6.08,6.08,0,0,1,2.25,1.7,4.48,4.48,0,0,1,.94,3,5,5,0,0,1-2.25,4.36,10.61,10.61,0,0,1-6.18,1.58,14.61,14.61,0,0,1-3.84-.51Z" transform="translate(-85.95 -339.48)"/><path class="cls-1" d="M502.69,487.93a4.63,4.63,0,0,0,0,.74,4.13,4.13,0,0,0,.84,2.8,2.94,2.94,0,0,0,2.35,1,7.94,7.94,0,0,0,1-.06,6.67,6.67,0,0,1,.78-.06.91.91,0,0,1,.78.39,1.8,1.8,0,0,1,.29,1.08,1.47,1.47,0,0,1-.8,1.43,6.74,6.74,0,0,1-2.8.41,6,6,0,0,1-6.54-6.55,9.39,9.39,0,0,1,0-1l.74-9.49h-2.41a1.81,1.81,0,0,1-1.27-.41,1.47,1.47,0,0,1-.45-1.15,1.52,1.52,0,0,1,.49-1.21,2.11,2.11,0,0,1,1.43-.43h2.46l.33-4.26a2,2,0,0,1,.7-1.39,2.23,2.23,0,0,1,1.51-.53,2,2,0,0,1,1.47.53,1.7,1.7,0,0,1,.45,1.43l-.33,4.21h4a1.76,1.76,0,0,1,1.23.41,1.41,1.41,0,0,1,.45,1.1q0,1.68-1.88,1.68h-4.09l-.74,9.37Z" transform="translate(-85.95 -339.48)"/><path class="cls-1" d="M169,389.15a33,33,0,0,1-7.42,11.32,34.86,34.86,0,0,1-11.8,7.65,41.78,41.78,0,0,1-15.71,2.79H112.27v42.73H90.11V340.12h44a41.8,41.8,0,0,1,15.71,2.79,34.91,34.91,0,0,1,11.8,7.65A33,33,0,0,1,169,361.89a37.7,37.7,0,0,1,0,27.26m-24-25q-4.39-4.3-12-4.31H112.27V391H133q7.66,0,12-4.22t4.39-11.24A15.15,15.15,0,0,0,145,364.2" transform="translate(-85.95 -339.48)"/><path class="cls-1" d="M226.64,393.21a20.68,20.68,0,0,0-4.78-3.67,13.26,13.26,0,0,0-6.22-1.27,13.9,13.9,0,0,0-4.78.88,11.75,11.75,0,0,0-4.3,2.79,14.59,14.59,0,0,0-3.11,4.78,17.74,17.74,0,0,0-1.19,6.86v50.06H181.52V370.57h20.25v8a24.49,24.49,0,0,1,8.61-6.3,28.45,28.45,0,0,1,12.28-2.63,30.09,30.09,0,0,1,10.68,1.75,25.66,25.66,0,0,1,8.93,6.06l-15.62,15.78Z" transform="translate(-85.95 -339.48)"/><path class="cls-1" d="M275.34,356.38l4.78-16.9h21.36l-4.78,16.9Zm-27.21,97.26,23.51-83.07h20.88L269,453.64Z" transform="translate(-85.95 -339.48)"/><path class="cls-1" d="M401.66,453.64V403.42a18.82,18.82,0,0,0-1.19-7.17,12.05,12.05,0,0,0-7.61-7.17,15,15,0,0,0-9.67,0,13.07,13.07,0,0,0-4.44,2.47,12.36,12.36,0,0,0-3.25,4.54,16.88,16.88,0,0,0-1.27,6.86v50.7H353.34V403.42a18.7,18.7,0,0,0-1.2-7.17,12.34,12.34,0,0,0-3.19-4.63,12.54,12.54,0,0,0-4.46-2.55,15.19,15.19,0,0,0-9.73,0,12.52,12.52,0,0,0-4.47,2.55,13.15,13.15,0,0,0-3.27,4.63,17.68,17.68,0,0,0-1.28,7.17v50.23H305V370.57h20.25v7.65A29.56,29.56,0,0,1,346,369.62a29.56,29.56,0,0,1,12.54,2.55,24.62,24.62,0,0,1,9.5,8,33.05,33.05,0,0,1,11.18-8.05A35.42,35.42,0,0,1,393,369.62a34.17,34.17,0,0,1,11.58,1.91,23.59,23.59,0,0,1,8.86,5.42,28.71,28.71,0,0,1,7.11,10.92,39,39,0,0,1,2,12.68v53.09Z" transform="translate(-85.95 -339.48)"/><path class="cls-1" d="M487.11,453.64v-7.17a27.37,27.37,0,0,1-8.66,6.06,30.33,30.33,0,0,1-11.68,1.91q-13.83,0-21.14-7.33a23.64,23.64,0,0,1-5.09-8.29,29.89,29.89,0,0,1-1.75-10.36,24.93,24.93,0,0,1,1.75-9.33,21,21,0,0,1,5.24-7.65,25.18,25.18,0,0,1,8.82-5.18,36.88,36.88,0,0,1,12.47-1.91h19.55v-4.15q0-6.85-3.59-10t-11.88-3.11a30.58,30.58,0,0,0-5.26.4,18.28,18.28,0,0,0-4.06,1.2,15.11,15.11,0,0,0-3.43,2.07,22.9,22.9,0,0,0-3.19,3.19L442,381.1A31.85,31.85,0,0,1,454.83,372q6.78-2.39,17.14-2.39,17.56,0,26.56,7.34t9,22v54.69Zm-.48-35.08H470.3q-5.55,0-8.56,2.47a8.47,8.47,0,0,0-3,6.94,8.88,8.88,0,0,0,2.93,6.94q2.93,2.63,9,2.63a35.7,35.7,0,0,0,7.29-.64,11.44,11.44,0,0,0,5.71-3.35q3-2.87,3-10.52v-4.46Z" transform="translate(-85.95 -339.48)"/><polygon class="cls-1" points="157.79 52.11 179.22 52.16 200.96 31.09 180.76 31.09 157.79 52.11 157.79 52.11"/><polygon class="cls-1" points="156 114.16 179.9 114.16 185.18 96.2 161.28 96.2 156 114.16 156 114.16"/></svg>