<svg id="USA_Europe" data-name="USA / Europe" xmlns="http://www.w3.org/2000/svg" width="352" height="554" viewBox="0 0 352 554">
  <defs>
    <style>
      .cls-1 {
        fill: #9cf2de;
      }

      .cls-2 {
        fill: #a2eeeb;
      }

      .cls-3 {
        fill: #8fe5ed;
      }

      .cls-4 {
        fill: #7dd3da;
      }

      .cls-5 {
        fill: #555;
        fill-rule: evenodd;
      }
    </style>
  </defs>
  <rect id="Background" class="cls-1" x="1" width="165" height="190"/>
  <rect id="Background-2" data-name="Background" class="cls-1" x="1" y="200" width="165" height="14"/>
  <rect id="Background-3" data-name="Background" class="cls-2" x="1" y="224" width="165" height="13"/>
  <rect id="Background-4" data-name="Background" class="cls-2" x="1" y="247" width="165" height="10"/>
  <rect id="Background-5" data-name="Background" class="cls-2" x="1" y="266" width="165" height="12"/>
  <rect id="Background-6" data-name="Background" class="cls-3" x="1" y="287" width="165" height="30"/>
  <rect id="Background-7" data-name="Background" class="cls-3" x="1" y="326" width="165" height="146"/>
  <rect id="Background-8" data-name="Background" class="cls-4" x="1" y="482" width="165" height="72"/>
  <path id="Others_copy" data-name="Others copy" class="cls-5" d="M190.323,90.86A5.458,5.458,0,0,0,189.171,89a5.168,5.168,0,0,0-1.788-1.212,6.371,6.371,0,0,0-4.612,0A5.18,5.18,0,0,0,180.987,89a5.458,5.458,0,0,0-1.152,1.856,7.053,7.053,0,0,0,0,4.728,5.412,5.412,0,0,0,1.152,1.852,5.158,5.158,0,0,0,1.784,1.2,6.426,6.426,0,0,0,4.612,0,5.146,5.146,0,0,0,1.788-1.2,5.412,5.412,0,0,0,1.152-1.852A7.053,7.053,0,0,0,190.323,90.86Zm-1.472,4.256a4.014,4.014,0,0,1-.816,1.416,3.5,3.5,0,0,1-1.28.888,4.714,4.714,0,0,1-3.352,0,3.539,3.539,0,0,1-1.284-.888,3.977,3.977,0,0,1-.82-1.416,6.372,6.372,0,0,1,0-3.788,3.974,3.974,0,0,1,.82-1.42,3.586,3.586,0,0,1,1.284-.892,4.658,4.658,0,0,1,3.352,0,3.545,3.545,0,0,1,1.28.892,4.011,4.011,0,0,1,.816,1.42A6.372,6.372,0,0,1,188.851,95.116Zm7.536,3.768a2.644,2.644,0,0,0,.888-0.54l-0.416-.68a0.245,0.245,0,0,0-.2-0.136,0.266,0.266,0,0,0-.148.06q-0.084.06-.2,0.132a1.677,1.677,0,0,1-.284.132,1.13,1.13,0,0,1-.388.06,0.866,0.866,0,0,1-.64-0.248,1.036,1.036,0,0,1-.248-0.76V92.04h2.32V91.008h-2.32V88.216h-0.72a0.331,0.331,0,0,0-.224.076,0.3,0.3,0,0,0-.1.2l-0.328,2.5-1.328.168v0.568a0.294,0.294,0,0,0,.088.236,0.319,0.319,0,0,0,.216.076h0.976V97a2.139,2.139,0,0,0,.516,1.544,1.953,1.953,0,0,0,1.476.536A3.016,3.016,0,0,0,196.387,98.884Zm3.9,0.068V92.984a3.89,3.89,0,0,1,1.012-.824,2.394,2.394,0,0,1,1.18-.3,1.57,1.57,0,0,1,1.284.508,2.182,2.182,0,0,1,.42,1.428v5.16H205.6v-5.16a4.242,4.242,0,0,0-.176-1.256,2.746,2.746,0,0,0-.516-0.972,2.27,2.27,0,0,0-.848-0.624,2.927,2.927,0,0,0-1.172-.22,3.087,3.087,0,0,0-1.456.332,4.385,4.385,0,0,0-1.152.884V87.168h-1.424V98.952h1.424Zm9.2-7.924a3.444,3.444,0,0,0-1.192.848,3.734,3.734,0,0,0-.748,1.276,4.732,4.732,0,0,0-.26,1.584,5.513,5.513,0,0,0,.288,1.856,3.814,3.814,0,0,0,.8,1.356,3.4,3.4,0,0,0,1.224.832,4.121,4.121,0,0,0,1.548.284,5.3,5.3,0,0,0,.888-0.076,4.985,4.985,0,0,0,.868-0.228,3.916,3.916,0,0,0,.788-0.388,2.707,2.707,0,0,0,.632-0.556l-0.4-.52a0.314,0.314,0,0,0-.272-0.136,0.619,0.619,0,0,0-.324.124,4.977,4.977,0,0,1-.468.268,4.389,4.389,0,0,1-.668.268,3.05,3.05,0,0,1-.924.124,2.745,2.745,0,0,1-1.04-.188,2.116,2.116,0,0,1-.8-0.568,2.729,2.729,0,0,1-.528-0.948,4.484,4.484,0,0,1-.208-1.336h5.392a0.3,0.3,0,0,0,.272-0.112,0.928,0.928,0,0,0,.072-0.448,4.389,4.389,0,0,0-.252-1.54,3.207,3.207,0,0,0-.7-1.136,3.02,3.02,0,0,0-1.064-.7,3.621,3.621,0,0,0-1.344-.244A3.913,3.913,0,0,0,209.483,91.028Zm2.484,0.9a1.794,1.794,0,0,1,.644.464,2.029,2.029,0,0,1,.4.712,2.875,2.875,0,0,1,.136.908h-4.408a2.8,2.8,0,0,1,.736-1.652A2.466,2.466,0,0,1,211.967,91.932Zm5.316,7.02v-5.16a3.248,3.248,0,0,1,.836-1.256,1.835,1.835,0,0,1,1.244-.432,2.175,2.175,0,0,1,.648.076,1.24,1.24,0,0,0,.344.076,0.24,0.24,0,0,0,.248-0.2l0.184-1.064a2.139,2.139,0,0,0-.5-0.212,2.422,2.422,0,0,0-2.044.4,3.7,3.7,0,0,0-1.028,1.324l-0.1-1.264a0.535,0.535,0,0,0-.12-0.3,0.451,0.451,0,0,0-.32-0.088h-0.816v8.1h1.424Zm9.536-7.288a3.4,3.4,0,0,0-1.1-.692,3.873,3.873,0,0,0-1.436-.252,3.615,3.615,0,0,0-1.224.192,2.758,2.758,0,0,0-.9.516,2.193,2.193,0,0,0-.56.752,2.157,2.157,0,0,0-.192.892,1.978,1.978,0,0,0,.18.884,1.868,1.868,0,0,0,.476.612,2.722,2.722,0,0,0,.676.412q0.379,0.164.776,0.292t0.776,0.244a3.884,3.884,0,0,1,.676.272,1.524,1.524,0,0,1,.476.376,0.849,0.849,0,0,1,.18.556,1.311,1.311,0,0,1-.1.512,1.156,1.156,0,0,1-.308.424,1.53,1.53,0,0,1-.52.292,2.227,2.227,0,0,1-.728.108,2.513,2.513,0,0,1-.812-0.112A2.972,2.972,0,0,1,222.6,97.7q-0.228-.136-0.388-0.248a0.537,0.537,0,0,0-.3-0.112,0.429,0.429,0,0,0-.232.056,0.49,0.49,0,0,0-.152.16l-0.336.544a3.888,3.888,0,0,0,1.168.708,4.1,4.1,0,0,0,1.536.276,3.946,3.946,0,0,0,1.312-.2,2.846,2.846,0,0,0,.96-0.548,2.26,2.26,0,0,0,.592-0.824,2.653,2.653,0,0,0,.2-1.036,1.8,1.8,0,0,0-.18-0.836,1.834,1.834,0,0,0-.476-0.588,2.793,2.793,0,0,0-.672-0.4q-0.377-.16-0.772-0.292t-0.772-.248a4.107,4.107,0,0,1-.672-0.268,1.564,1.564,0,0,1-.476-0.36,0.766,0.766,0,0,1-.18-0.52,1,1,0,0,1,.108-0.46,1.117,1.117,0,0,1,.312-0.372,1.559,1.559,0,0,1,.492-0.252,2.129,2.129,0,0,1,.648-0.092,2.508,2.508,0,0,1,.72.092,3.5,3.5,0,0,1,.524.2q0.22,0.108.372,0.2a0.555,0.555,0,0,0,.272.088,0.316,0.316,0,0,0,.3-0.176Z"/>
  <path id="BRAF_mutation_2-3_" data-name="BRAF mutation 2-3%" class="cls-5" d="M184.139,211.952a5.655,5.655,0,0,0,1.708-.236,3.649,3.649,0,0,0,1.264-.668,2.849,2.849,0,0,0,.784-1.032,3.212,3.212,0,0,0,.268-1.328,2.37,2.37,0,0,0-.64-1.728,3.544,3.544,0,0,0-1.9-.9,3.733,3.733,0,0,0,.948-0.432,2.841,2.841,0,0,0,.672-0.6,2.364,2.364,0,0,0,.4-0.728,2.537,2.537,0,0,0,.132-0.816,3.183,3.183,0,0,0-.236-1.252,2.337,2.337,0,0,0-.728-0.94,3.533,3.533,0,0,0-1.256-.592,7.017,7.017,0,0,0-1.82-.208h-3.656v11.464h4.056Zm-0.032-5.224a2.949,2.949,0,0,1,1.9.516,1.72,1.72,0,0,1,.628,1.4,2.34,2.34,0,0,1-.144.836,1.658,1.658,0,0,1-.452.656,2.121,2.121,0,0,1-.784.428,3.747,3.747,0,0,1-1.14.152h-2.48v-3.992h2.472Zm-2.472-5.016h2.1a3.077,3.077,0,0,1,1.888.472,1.758,1.758,0,0,1,.608,1.48,2.049,2.049,0,0,1-.152.8,1.551,1.551,0,0,1-.468.62,2.3,2.3,0,0,1-.8.4,3.978,3.978,0,0,1-1.136.144h-2.048v-3.912Zm11.328,5.456a1.069,1.069,0,0,1,.48.084,0.867,0.867,0,0,1,.3.276l2.976,4.1a0.677,0.677,0,0,0,.624.328h1.376l-3.344-4.552a1.639,1.639,0,0,0-.512-0.488,4.355,4.355,0,0,0,1.188-.448,3.331,3.331,0,0,0,.888-0.716,2.994,2.994,0,0,0,.556-0.948,3.3,3.3,0,0,0,.192-1.136,3.363,3.363,0,0,0-.248-1.316,2.548,2.548,0,0,0-.764-1,3.6,3.6,0,0,0-1.308-.636,7.109,7.109,0,0,0-1.88-.22h-3.24v11.464h1.544v-4.784h1.176Zm-1.176-5.456h1.7a3.272,3.272,0,0,1,2.012.52,1.827,1.827,0,0,1,.676,1.544,2.343,2.343,0,0,1-.176.92,1.916,1.916,0,0,1-.524.716,2.428,2.428,0,0,1-.864.464,3.934,3.934,0,0,1-1.2.164h-1.624v-4.328Zm13.144-1.224h-1.576l-4.584,11.464h1.2a0.511,0.511,0,0,0,.336-0.112,0.615,0.615,0,0,0,.192-0.256l1.072-2.768h5.144l1.072,2.768a0.641,0.641,0,0,0,.192.264,0.511,0.511,0,0,0,.336.1h1.2ZM203.8,203.04c0.053-.138.108-0.3,0.164-0.484s0.113-.385.172-0.6a8.774,8.774,0,0,0,.344,1.08l1.8,4.664H202Zm7.28-2.552v11.464h1.56v-4.928h4.7V205.76h-4.7v-4.008h5.5v-1.264h-7.064Zm13.2,11.464v-6.04a3.237,3.237,0,0,1,.828-0.772,1.81,1.81,0,0,1,.98-0.284,1.391,1.391,0,0,1,1.144.48,2.274,2.274,0,0,1,.392,1.456v5.16h1.424v-5.16a2.351,2.351,0,0,1,.14-0.844,1.708,1.708,0,0,1,.38-0.6,1.611,1.611,0,0,1,.556-0.364,1.826,1.826,0,0,1,.668-0.124,1.493,1.493,0,0,1,1.208.492,2.187,2.187,0,0,1,.416,1.444v5.16h1.424v-5.16a4.265,4.265,0,0,0-.184-1.308,2.668,2.668,0,0,0-.532-0.964,2.263,2.263,0,0,0-.848-0.6,2.994,2.994,0,0,0-1.14-.2,3.269,3.269,0,0,0-.788.1,2.638,2.638,0,0,0-.732.3,2.6,2.6,0,0,0-.62.528,2.549,2.549,0,0,0-.444.76,2.562,2.562,0,0,0-.732-1.232,1.92,1.92,0,0,0-1.332-.456,2.369,2.369,0,0,0-1.292.352,4.164,4.164,0,0,0-1,.9l-0.1-.832a0.363,0.363,0,0,0-.384-0.3h-0.848v8.1h1.424Zm11.384-8.1v5.168a4.305,4.305,0,0,0,.172,1.256,2.635,2.635,0,0,0,.516.968,2.307,2.307,0,0,0,.852.62,2.921,2.921,0,0,0,1.172.22,3.107,3.107,0,0,0,1.5-.356,4.443,4.443,0,0,0,1.184-.94l0.112,0.872a0.362,0.362,0,0,0,.384.3h0.848v-8.1h-1.424v5.976a3.647,3.647,0,0,1-1.016.824,2.444,2.444,0,0,1-1.176.3,1.578,1.578,0,0,1-1.28-.5,2.147,2.147,0,0,1-.424-1.424v-5.168h-1.424Zm12.72,8.036a2.625,2.625,0,0,0,.888-0.54l-0.416-.68a0.247,0.247,0,0,0-.2-0.136,0.266,0.266,0,0,0-.148.06q-0.084.06-.2,0.132a1.677,1.677,0,0,1-.284.132,1.13,1.13,0,0,1-.388.06,0.864,0.864,0,0,1-.64-0.248,1.034,1.034,0,0,1-.248-0.76V205.04h2.32v-1.032h-2.32v-2.792h-0.72a0.334,0.334,0,0,0-.224.076,0.3,0.3,0,0,0-.1.2l-0.328,2.5-1.328.168v0.568a0.293,0.293,0,0,0,.088.236,0.318,0.318,0,0,0,.216.076h0.976V210a2.138,2.138,0,0,0,.516,1.544,1.951,1.951,0,0,0,1.476.536A3.009,3.009,0,0,0,248.387,211.884Zm8.424-5.116a4.025,4.025,0,0,0-.184-1.248,2.656,2.656,0,0,0-.544-0.968,2.494,2.494,0,0,0-.888-0.624,3.076,3.076,0,0,0-1.208-.224,4.477,4.477,0,0,0-1.72.32,4.643,4.643,0,0,0-1.448.968l0.256,0.456a0.573,0.573,0,0,0,.172.188,0.424,0.424,0,0,0,.252.076,0.645,0.645,0,0,0,.372-0.132c0.125-.088.275-0.186,0.448-0.3a3.337,3.337,0,0,1,.616-0.3,2.533,2.533,0,0,1,.876-0.132,1.466,1.466,0,0,1,1.2.487,2.208,2.208,0,0,1,.4,1.437v0.636a10.493,10.493,0,0,0-2.328.221,5.533,5.533,0,0,0-1.54.566,2.323,2.323,0,0,0-.852.791,1.793,1.793,0,0,0-.264.927,2.348,2.348,0,0,0,.18.959,1.883,1.883,0,0,0,.484.67,2,2,0,0,0,.716.4,2.881,2.881,0,0,0,.884.132,4.13,4.13,0,0,0,.844-0.08,3.3,3.3,0,0,0,.716-0.236,3.583,3.583,0,0,0,.64-0.384q0.3-.228.624-0.516l0.16,0.752a0.354,0.354,0,0,0,.168.272,0.748,0.748,0,0,0,.336.064h0.632v-5.184Zm-4.216,4.244a1.109,1.109,0,0,1-.416-0.217,1.058,1.058,0,0,1-.28-0.383,1.357,1.357,0,0,1-.1-0.555,1.021,1.021,0,0,1,.2-0.611,1.557,1.557,0,0,1,.628-0.475,4.662,4.662,0,0,1,1.12-.326,9.564,9.564,0,0,1,1.672-.125v1.672a4.507,4.507,0,0,1-.492.456,3.056,3.056,0,0,1-.528.34,2.647,2.647,0,0,1-.588.216,2.888,2.888,0,0,1-.688.076A1.912,1.912,0,0,1,252.6,211.012Zm9.792,0.872a2.625,2.625,0,0,0,.888-0.54l-0.416-.68a0.247,0.247,0,0,0-.2-0.136,0.266,0.266,0,0,0-.148.06q-0.084.06-.2,0.132a1.677,1.677,0,0,1-.284.132,1.13,1.13,0,0,1-.388.06,0.864,0.864,0,0,1-.64-0.248,1.034,1.034,0,0,1-.248-0.76V205.04h2.32v-1.032h-2.32v-2.792h-0.72a0.334,0.334,0,0,0-.224.076,0.3,0.3,0,0,0-.1.2l-0.328,2.5-1.328.168v0.568a0.293,0.293,0,0,0,.088.236,0.318,0.318,0,0,0,.216.076h0.976V210a2.138,2.138,0,0,0,.516,1.544,1.951,1.951,0,0,0,1.476.536A3.009,3.009,0,0,0,262.387,211.884Zm2.632-8.036v8.1h1.424v-8.1h-1.424Zm1.66-2.94a1.1,1.1,0,0,0-.224-0.328,1.05,1.05,0,0,0-.324-0.22,0.978,0.978,0,0,0-.392-0.08,0.949,0.949,0,0,0-.388.08,1.069,1.069,0,0,0-.32.22,1.039,1.039,0,0,0-.22.328,1.012,1.012,0,0,0-.08.4,0.949,0.949,0,0,0,.08.388,1.051,1.051,0,0,0,.22.32,1.033,1.033,0,0,0,.32.22,0.933,0.933,0,0,0,.388.08,0.961,0.961,0,0,0,.392-0.08,1.016,1.016,0,0,0,.324-0.22,1.119,1.119,0,0,0,.224-0.32,0.905,0.905,0,0,0,.084-0.388A0.965,0.965,0,0,0,266.679,200.908Zm3.856,3.108a3.441,3.441,0,0,0-1.22.84,3.738,3.738,0,0,0-.776,1.316,5.612,5.612,0,0,0,0,3.452,3.729,3.729,0,0,0,.776,1.312,3.368,3.368,0,0,0,1.22.836,4.552,4.552,0,0,0,3.208,0,3.328,3.328,0,0,0,1.216-.836,3.728,3.728,0,0,0,.768-1.312,5.692,5.692,0,0,0,0-3.452,3.738,3.738,0,0,0-.768-1.316,3.4,3.4,0,0,0-1.216-.84A4.494,4.494,0,0,0,270.535,204.016Zm0.548,6.728a1.98,1.98,0,0,1-.748-0.6,2.623,2.623,0,0,1-.448-0.956,5.1,5.1,0,0,1-.148-1.288,5.156,5.156,0,0,1,.148-1.292,2.678,2.678,0,0,1,.448-0.964,1.98,1.98,0,0,1,.748-0.6,2.5,2.5,0,0,1,1.056-.208,2.078,2.078,0,0,1,1.792.808,4.572,4.572,0,0,1,0,4.5,2.081,2.081,0,0,1-1.792.8A2.484,2.484,0,0,1,271.083,210.744Zm8.2,1.208v-5.968a3.906,3.906,0,0,1,1.012-.824,2.4,2.4,0,0,1,1.18-.3,1.572,1.572,0,0,1,1.284.508,2.182,2.182,0,0,1,.42,1.428v5.16H284.6v-5.16a4.246,4.246,0,0,0-.176-1.256,2.757,2.757,0,0,0-.516-0.972,2.275,2.275,0,0,0-.848-0.624,2.938,2.938,0,0,0-1.172-.22,3.069,3.069,0,0,0-1.508.36,4.556,4.556,0,0,0-1.18.944l-0.112-.88a0.363,0.363,0,0,0-.384-0.3h-0.848v8.1h1.424Zm12.844-11.38a3.478,3.478,0,0,0-1.128.62,3.312,3.312,0,0,0-.812,1.012,4.24,4.24,0,0,0-.432,1.388l0.744,0.128c0.037,0.006.071,0.01,0.1,0.012a0.813,0.813,0,0,0,.084,0,0.511,0.511,0,0,0,.336-0.1,0.639,0.639,0,0,0,.192-0.336,2.1,2.1,0,0,1,.276-0.688,2.138,2.138,0,0,1,1.132-.9,2.427,2.427,0,0,1,.8-0.128,2.585,2.585,0,0,1,.808.124,1.861,1.861,0,0,1,.656.372,1.718,1.718,0,0,1,.44.628,2.26,2.26,0,0,1,.16.884,3.055,3.055,0,0,1-.144.948,3.991,3.991,0,0,1-.412.876,6.48,6.48,0,0,1-.644.86q-0.377.429-.832,0.892l-3.672,3.688a0.836,0.836,0,0,0-.2.3,0.888,0.888,0,0,0-.06.312v0.488h7.648v-0.864a0.476,0.476,0,0,0-.136-0.352,0.5,0.5,0,0,0-.368-0.136h-3.84a4.119,4.119,0,0,0-.632.052,6.173,6.173,0,0,0-.648.14l3.016-3.088q0.48-.488.908-0.956a7.681,7.681,0,0,0,.756-0.968,4.8,4.8,0,0,0,.52-1.044,3.53,3.53,0,0,0,.192-1.184,3.269,3.269,0,0,0-.264-1.344,2.937,2.937,0,0,0-.724-1,3.151,3.151,0,0,0-1.092-.628,4.178,4.178,0,0,0-1.36-.216A4.321,4.321,0,0,0,292.127,200.572Zm6.364,7.188h3.952v-1.208h-3.952v1.208Zm8.788-7.188a3.478,3.478,0,0,0-1.128.62,3.312,3.312,0,0,0-.812,1.012,4.24,4.24,0,0,0-.432,1.388l0.744,0.126,0.1,0.012a0.813,0.813,0,0,0,.084,0,0.505,0.505,0,0,0,.328-0.1,0.639,0.639,0,0,0,.192-0.336,2.551,2.551,0,0,1,.288-0.683,2.082,2.082,0,0,1,.476-0.543,2.163,2.163,0,0,1,.652-0.356,2.427,2.427,0,0,1,.8-0.128,2.6,2.6,0,0,1,.8.12,1.788,1.788,0,0,1,.644.36,1.667,1.667,0,0,1,.428.608,2.207,2.207,0,0,1,.156.864,2.16,2.16,0,0,1-.148.816,1.538,1.538,0,0,1-.476.632,2.422,2.422,0,0,1-.844.416,4.42,4.42,0,0,1-1.244.152v1.04a5.609,5.609,0,0,1,1.468.16,2.323,2.323,0,0,1,.9.44,1.464,1.464,0,0,1,.448.664,2.74,2.74,0,0,1,.124.848,2.059,2.059,0,0,1-.152.76,2.123,2.123,0,0,1-.452.7,2.286,2.286,0,0,1-.752.508,2.619,2.619,0,0,1-1.052.2,2.5,2.5,0,0,1-1-.176,2.323,2.323,0,0,1-.676-0.432,2.218,2.218,0,0,1-.432-0.548c-0.107-.194-0.2-0.369-0.272-0.524-0.011-.026-0.021-0.052-0.032-0.076s-0.021-.046-0.032-0.068a0.436,0.436,0,0,0-.188-0.212,0.585,0.585,0,0,0-.284-0.068,0.847,0.847,0,0,0-.336.072l-0.608.256a7.049,7.049,0,0,0,.488,1.188,3.319,3.319,0,0,0,.736.948,3.233,3.233,0,0,0,1.1.628,4.72,4.72,0,0,0,1.56.228,4.575,4.575,0,0,0,1.484-.236,3.669,3.669,0,0,0,1.212-.68,3.192,3.192,0,0,0,.82-1.076,3.279,3.279,0,0,0,.3-1.424,2.682,2.682,0,0,0-.564-1.744,3.114,3.114,0,0,0-1.684-.992,3.442,3.442,0,0,0,.824-0.36,2.385,2.385,0,0,0,.628-0.548,2.355,2.355,0,0,0,.4-0.752A3.128,3.128,0,0,0,312,203.3a2.887,2.887,0,0,0-.248-1.208,2.684,2.684,0,0,0-.692-0.928,3.133,3.133,0,0,0-1.06-.592,4.2,4.2,0,0,0-1.344-.208A4.321,4.321,0,0,0,307.279,200.572Zm10.872,1.46a2.668,2.668,0,0,0-.536-0.9,2.255,2.255,0,0,0-.808-0.56,2.62,2.62,0,0,0-1-.192,2.581,2.581,0,0,0-1,.192,2.3,2.3,0,0,0-.8.56,2.59,2.59,0,0,0-.536.9,3.623,3.623,0,0,0-.192,1.224,3.529,3.529,0,0,0,.192,1.2,2.536,2.536,0,0,0,.536.9,2.318,2.318,0,0,0,.8.556,2.581,2.581,0,0,0,1,.192,2.506,2.506,0,0,0,.968-0.192,2.359,2.359,0,0,0,.812-0.556,2.7,2.7,0,0,0,.556-0.9,3.276,3.276,0,0,0,.208-1.2A3.548,3.548,0,0,0,318.151,202.032Zm-1.028,2.108a1.63,1.63,0,0,1-.308.592,1.132,1.132,0,0,1-.456.328,1.6,1.6,0,0,1-1.112,0,1.1,1.1,0,0,1-.452-0.328,1.623,1.623,0,0,1-.3-0.592,3.135,3.135,0,0,1-.108-0.884,3.221,3.221,0,0,1,.108-0.9,1.717,1.717,0,0,1,.3-0.6,1.122,1.122,0,0,1,.452-0.34,1.538,1.538,0,0,1,1.112,0,1.154,1.154,0,0,1,.456.34,1.725,1.725,0,0,1,.308.6,3.1,3.1,0,0,1,.112.9A3.019,3.019,0,0,1,317.123,204.14Zm-3.1,7.812h1.056a0.521,0.521,0,0,0,.264-0.064,0.617,0.617,0,0,0,.192-0.168l8.376-11.232h-1.024a0.559,0.559,0,0,0-.308.076,0.929,0.929,0,0,0-.22.212Zm10.472-3.932a2.581,2.581,0,0,0-.536-0.908,2.3,2.3,0,0,0-.808-0.56,2.711,2.711,0,0,0-2,0,2.3,2.3,0,0,0-.8.56,2.581,2.581,0,0,0-.536.908,3.655,3.655,0,0,0-.192,1.228,3.5,3.5,0,0,0,.192,1.2,2.545,2.545,0,0,0,.536.892,2.318,2.318,0,0,0,.8.556,2.581,2.581,0,0,0,1,.192,2.479,2.479,0,0,0,.964-0.192,2.362,2.362,0,0,0,.808-0.556,2.709,2.709,0,0,0,.556-0.892,3.247,3.247,0,0,0,.208-1.2A3.655,3.655,0,0,0,324.491,208.02Zm-1.024,2.108a1.635,1.635,0,0,1-.308.588,1.132,1.132,0,0,1-.456.328,1.6,1.6,0,0,1-1.112,0,1.1,1.1,0,0,1-.452-0.328,1.627,1.627,0,0,1-.3-0.588,3.1,3.1,0,0,1-.108-0.88,3.261,3.261,0,0,1,.108-0.9,1.667,1.667,0,0,1,.3-0.6,1.139,1.139,0,0,1,.452-0.336,1.538,1.538,0,0,1,1.112,0,1.173,1.173,0,0,1,.456.336,1.674,1.674,0,0,1,.308.6,3.139,3.139,0,0,1,.112.9A2.981,2.981,0,0,1,323.467,210.128Z"/>
  <path id="HER2_mutation_2-3_copy" data-name="HER2 mutation 2-3% copy" class="cls-5" d="M189.379,225.488h-1.56V230.6h-6.176v-5.112h-1.56v11.464h1.56v-5.216h6.176v5.216h1.56V225.488Zm2.7,0v11.464h7.064v-1.264h-5.5v-3.912H198.1V230.56h-4.456v-3.808h5.5v-1.264h-7.064Zm11.88,6.68a1.069,1.069,0,0,1,.48.084,0.867,0.867,0,0,1,.3.276l2.976,4.1a0.677,0.677,0,0,0,.624.328h1.376l-3.344-4.552a1.639,1.639,0,0,0-.512-0.488,4.355,4.355,0,0,0,1.188-.448,3.331,3.331,0,0,0,.888-0.716,2.994,2.994,0,0,0,.556-0.948,3.3,3.3,0,0,0,.192-1.136,3.363,3.363,0,0,0-.248-1.316,2.548,2.548,0,0,0-.764-1,3.6,3.6,0,0,0-1.308-.636,7.109,7.109,0,0,0-1.88-.22h-3.24v11.464h1.544v-4.784h1.176Zm-1.176-5.456h1.7a3.272,3.272,0,0,1,2.012.52,1.827,1.827,0,0,1,.676,1.544,2.343,2.343,0,0,1-.176.92,1.916,1.916,0,0,1-.524.716,2.428,2.428,0,0,1-.864.464,3.934,3.934,0,0,1-1.2.164h-1.624v-4.328Zm10.34-1.14a3.478,3.478,0,0,0-1.128.62,3.312,3.312,0,0,0-.812,1.012,4.24,4.24,0,0,0-.432,1.388l0.744,0.128c0.037,0.006.071,0.01,0.1,0.012a0.813,0.813,0,0,0,.084,0,0.511,0.511,0,0,0,.336-0.1,0.639,0.639,0,0,0,.192-0.336,2.1,2.1,0,0,1,.276-0.688,2.138,2.138,0,0,1,1.132-.9,2.427,2.427,0,0,1,.8-0.128,2.585,2.585,0,0,1,.808.124,1.861,1.861,0,0,1,.656.372,1.718,1.718,0,0,1,.44.628,2.26,2.26,0,0,1,.16.884,3.055,3.055,0,0,1-.144.948,3.991,3.991,0,0,1-.412.876,6.48,6.48,0,0,1-.644.86q-0.376.429-.832,0.892l-3.672,3.688a0.836,0.836,0,0,0-.2.3,0.888,0.888,0,0,0-.06.312v0.488h7.648v-0.864a0.476,0.476,0,0,0-.136-0.352,0.5,0.5,0,0,0-.368-0.136h-3.84a4.119,4.119,0,0,0-.632.052,6.173,6.173,0,0,0-.648.14l3.016-3.088q0.48-.488.908-0.956a7.681,7.681,0,0,0,.756-0.968,4.8,4.8,0,0,0,.52-1.044,3.53,3.53,0,0,0,.192-1.184,3.269,3.269,0,0,0-.264-1.344,2.937,2.937,0,0,0-.724-1,3.151,3.151,0,0,0-1.092-.628,4.178,4.178,0,0,0-1.36-.216A4.321,4.321,0,0,0,213.127,225.572Zm11.156,11.38v-6.04a3.237,3.237,0,0,1,.828-0.772,1.81,1.81,0,0,1,.98-0.284,1.391,1.391,0,0,1,1.144.48,2.274,2.274,0,0,1,.392,1.456v5.16h1.424v-5.16a2.351,2.351,0,0,1,.14-0.844,1.708,1.708,0,0,1,.38-0.6,1.611,1.611,0,0,1,.556-0.364,1.826,1.826,0,0,1,.668-0.124,1.493,1.493,0,0,1,1.208.492,2.187,2.187,0,0,1,.416,1.444v5.16h1.424v-5.16a4.265,4.265,0,0,0-.184-1.308,2.668,2.668,0,0,0-.532-0.964,2.263,2.263,0,0,0-.848-0.6,2.994,2.994,0,0,0-1.14-.2,3.269,3.269,0,0,0-.788.1,2.638,2.638,0,0,0-.732.3,2.6,2.6,0,0,0-.62.528,2.549,2.549,0,0,0-.444.76,2.562,2.562,0,0,0-.732-1.232,1.92,1.92,0,0,0-1.332-.456,2.369,2.369,0,0,0-1.292.352,4.164,4.164,0,0,0-1,.9l-0.1-.832a0.363,0.363,0,0,0-.384-0.3h-0.848v8.1h1.424Zm11.384-8.1v5.168a4.305,4.305,0,0,0,.172,1.256,2.635,2.635,0,0,0,.516.968,2.307,2.307,0,0,0,.852.62,2.921,2.921,0,0,0,1.172.22,3.107,3.107,0,0,0,1.5-.356,4.443,4.443,0,0,0,1.184-.94l0.112,0.872a0.362,0.362,0,0,0,.384.3h0.848v-8.1h-1.424v5.976a3.647,3.647,0,0,1-1.016.824,2.444,2.444,0,0,1-1.176.3,1.578,1.578,0,0,1-1.28-.5,2.147,2.147,0,0,1-.424-1.424v-5.168h-1.424Zm12.72,8.036a2.625,2.625,0,0,0,.888-0.54l-0.416-.68a0.247,0.247,0,0,0-.2-0.136,0.266,0.266,0,0,0-.148.06q-0.084.06-.2,0.132a1.677,1.677,0,0,1-.284.132,1.13,1.13,0,0,1-.388.06,0.864,0.864,0,0,1-.64-0.248,1.034,1.034,0,0,1-.248-0.76V230.04h2.32v-1.032h-2.32v-2.792h-0.72a0.334,0.334,0,0,0-.224.076,0.3,0.3,0,0,0-.1.2l-0.328,2.5-1.328.168v0.568a0.293,0.293,0,0,0,.088.236,0.318,0.318,0,0,0,.216.076h0.976V235a2.138,2.138,0,0,0,.516,1.544,1.951,1.951,0,0,0,1.476.536A3.009,3.009,0,0,0,248.387,236.884Zm8.424-5.116a4.025,4.025,0,0,0-.184-1.248,2.656,2.656,0,0,0-.544-0.968,2.494,2.494,0,0,0-.888-0.624,3.076,3.076,0,0,0-1.208-.224,4.477,4.477,0,0,0-1.72.32,4.643,4.643,0,0,0-1.448.968l0.256,0.456a0.573,0.573,0,0,0,.172.188,0.424,0.424,0,0,0,.252.076,0.645,0.645,0,0,0,.372-0.132c0.125-.088.275-0.186,0.448-0.3a3.337,3.337,0,0,1,.616-0.3,2.533,2.533,0,0,1,.876-0.132,1.466,1.466,0,0,1,1.2.487,2.208,2.208,0,0,1,.4,1.437v0.636a10.493,10.493,0,0,0-2.328.221,5.533,5.533,0,0,0-1.54.566,2.323,2.323,0,0,0-.852.791,1.793,1.793,0,0,0-.264.927,2.348,2.348,0,0,0,.18.959,1.883,1.883,0,0,0,.484.67,2,2,0,0,0,.716.4,2.881,2.881,0,0,0,.884.132,4.13,4.13,0,0,0,.844-0.08,3.3,3.3,0,0,0,.716-0.236,3.583,3.583,0,0,0,.64-0.384q0.3-.228.624-0.516l0.16,0.752a0.354,0.354,0,0,0,.168.272,0.748,0.748,0,0,0,.336.064h0.632v-5.184Zm-4.216,4.244a1.109,1.109,0,0,1-.416-0.217,1.058,1.058,0,0,1-.28-0.383,1.357,1.357,0,0,1-.1-0.555,1.021,1.021,0,0,1,.2-0.611,1.557,1.557,0,0,1,.628-0.475,4.662,4.662,0,0,1,1.12-.326,9.564,9.564,0,0,1,1.672-.125v1.672a4.507,4.507,0,0,1-.492.456,3.056,3.056,0,0,1-.528.34,2.647,2.647,0,0,1-.588.216,2.888,2.888,0,0,1-.688.076A1.912,1.912,0,0,1,252.6,236.012Zm9.792,0.872a2.625,2.625,0,0,0,.888-0.54l-0.416-.68a0.247,0.247,0,0,0-.2-0.136,0.266,0.266,0,0,0-.148.06q-0.084.06-.2,0.132a1.677,1.677,0,0,1-.284.132,1.13,1.13,0,0,1-.388.06,0.864,0.864,0,0,1-.64-0.248,1.034,1.034,0,0,1-.248-0.76V230.04h2.32v-1.032h-2.32v-2.792h-0.72a0.334,0.334,0,0,0-.224.076,0.3,0.3,0,0,0-.1.2l-0.328,2.5-1.328.168v0.568a0.293,0.293,0,0,0,.088.236,0.318,0.318,0,0,0,.216.076h0.976V235a2.138,2.138,0,0,0,.516,1.544,1.951,1.951,0,0,0,1.476.536A3.009,3.009,0,0,0,262.387,236.884Zm2.632-8.036v8.1h1.424v-8.1h-1.424Zm1.66-2.94a1.1,1.1,0,0,0-.224-0.328,1.05,1.05,0,0,0-.324-0.22,0.978,0.978,0,0,0-.392-0.08,0.949,0.949,0,0,0-.388.08,1.069,1.069,0,0,0-.32.22,1.039,1.039,0,0,0-.22.328,1.012,1.012,0,0,0-.08.4,0.949,0.949,0,0,0,.08.388,1.051,1.051,0,0,0,.22.32,1.033,1.033,0,0,0,.32.22,0.933,0.933,0,0,0,.388.08,0.961,0.961,0,0,0,.392-0.08,1.016,1.016,0,0,0,.324-0.22,1.119,1.119,0,0,0,.224-0.32,0.905,0.905,0,0,0,.084-0.388A0.965,0.965,0,0,0,266.679,225.908Zm3.856,3.108a3.441,3.441,0,0,0-1.22.84,3.738,3.738,0,0,0-.776,1.316,5.612,5.612,0,0,0,0,3.452,3.729,3.729,0,0,0,.776,1.312,3.368,3.368,0,0,0,1.22.836,4.552,4.552,0,0,0,3.208,0,3.328,3.328,0,0,0,1.216-.836,3.728,3.728,0,0,0,.768-1.312,5.692,5.692,0,0,0,0-3.452,3.738,3.738,0,0,0-.768-1.316,3.4,3.4,0,0,0-1.216-.84A4.494,4.494,0,0,0,270.535,229.016Zm0.548,6.728a1.98,1.98,0,0,1-.748-0.6,2.623,2.623,0,0,1-.448-0.956,5.1,5.1,0,0,1-.148-1.288,5.156,5.156,0,0,1,.148-1.292,2.678,2.678,0,0,1,.448-0.964,1.98,1.98,0,0,1,.748-0.6,2.5,2.5,0,0,1,1.056-.208,2.078,2.078,0,0,1,1.792.808,4.572,4.572,0,0,1,0,4.5,2.081,2.081,0,0,1-1.792.8A2.484,2.484,0,0,1,271.083,235.744Zm8.2,1.208v-5.968a3.906,3.906,0,0,1,1.012-.824,2.4,2.4,0,0,1,1.18-.3,1.572,1.572,0,0,1,1.284.508,2.182,2.182,0,0,1,.42,1.428v5.16H284.6v-5.16a4.246,4.246,0,0,0-.176-1.256,2.757,2.757,0,0,0-.516-0.972,2.275,2.275,0,0,0-.848-0.624,2.938,2.938,0,0,0-1.172-.22,3.069,3.069,0,0,0-1.508.36,4.556,4.556,0,0,0-1.18.944l-0.112-.88a0.363,0.363,0,0,0-.384-0.3h-0.848v8.1h1.424Zm12.844-11.38a3.478,3.478,0,0,0-1.128.62,3.312,3.312,0,0,0-.812,1.012,4.24,4.24,0,0,0-.432,1.388l0.744,0.128c0.037,0.006.071,0.01,0.1,0.012a0.813,0.813,0,0,0,.084,0,0.511,0.511,0,0,0,.336-0.1,0.639,0.639,0,0,0,.192-0.336,2.1,2.1,0,0,1,.276-0.688,2.138,2.138,0,0,1,1.132-.9,2.427,2.427,0,0,1,.8-0.128,2.585,2.585,0,0,1,.808.124,1.861,1.861,0,0,1,.656.372,1.718,1.718,0,0,1,.44.628,2.26,2.26,0,0,1,.16.884,3.055,3.055,0,0,1-.144.948,3.991,3.991,0,0,1-.412.876,6.48,6.48,0,0,1-.644.86q-0.377.429-.832,0.892l-3.672,3.688a0.836,0.836,0,0,0-.2.3,0.888,0.888,0,0,0-.06.312v0.488h7.648v-0.864a0.476,0.476,0,0,0-.136-0.352,0.5,0.5,0,0,0-.368-0.136h-3.84a4.119,4.119,0,0,0-.632.052,6.173,6.173,0,0,0-.648.14l3.016-3.088q0.48-.488.908-0.956a7.681,7.681,0,0,0,.756-0.968,4.8,4.8,0,0,0,.52-1.044,3.53,3.53,0,0,0,.192-1.184,3.269,3.269,0,0,0-.264-1.344,2.937,2.937,0,0,0-.724-1,3.151,3.151,0,0,0-1.092-.628,4.178,4.178,0,0,0-1.36-.216A4.321,4.321,0,0,0,292.127,225.572Zm6.364,7.188h3.952v-1.208h-3.952v1.208Zm8.788-7.188a3.478,3.478,0,0,0-1.128.62,3.312,3.312,0,0,0-.812,1.012,4.24,4.24,0,0,0-.432,1.388l0.744,0.126,0.1,0.012a0.813,0.813,0,0,0,.084,0,0.505,0.505,0,0,0,.328-0.1,0.639,0.639,0,0,0,.192-0.336,2.551,2.551,0,0,1,.288-0.683,2.082,2.082,0,0,1,.476-0.543,2.163,2.163,0,0,1,.652-0.356,2.427,2.427,0,0,1,.8-0.128,2.6,2.6,0,0,1,.8.12,1.788,1.788,0,0,1,.644.36,1.667,1.667,0,0,1,.428.608,2.207,2.207,0,0,1,.156.864,2.16,2.16,0,0,1-.148.816,1.538,1.538,0,0,1-.476.632,2.422,2.422,0,0,1-.844.416,4.42,4.42,0,0,1-1.244.152v1.04a5.609,5.609,0,0,1,1.468.16,2.323,2.323,0,0,1,.9.44,1.464,1.464,0,0,1,.448.664,2.74,2.74,0,0,1,.124.848,2.059,2.059,0,0,1-.152.76,2.123,2.123,0,0,1-.452.7,2.286,2.286,0,0,1-.752.508,2.619,2.619,0,0,1-1.052.2,2.5,2.5,0,0,1-1-.176,2.323,2.323,0,0,1-.676-0.432,2.218,2.218,0,0,1-.432-0.548c-0.107-.194-0.2-0.369-0.272-0.524-0.011-.026-0.021-0.052-0.032-0.076s-0.021-.046-0.032-0.068a0.436,0.436,0,0,0-.188-0.212,0.585,0.585,0,0,0-.284-0.068,0.847,0.847,0,0,0-.336.072l-0.608.256a7.049,7.049,0,0,0,.488,1.188,3.319,3.319,0,0,0,.736.948,3.233,3.233,0,0,0,1.1.628,4.72,4.72,0,0,0,1.56.228,4.575,4.575,0,0,0,1.484-.236,3.669,3.669,0,0,0,1.212-.68,3.192,3.192,0,0,0,.82-1.076,3.279,3.279,0,0,0,.3-1.424,2.682,2.682,0,0,0-.564-1.744,3.114,3.114,0,0,0-1.684-.992,3.442,3.442,0,0,0,.824-0.36,2.385,2.385,0,0,0,.628-0.548,2.355,2.355,0,0,0,.4-0.752A3.128,3.128,0,0,0,312,228.3a2.887,2.887,0,0,0-.248-1.208,2.684,2.684,0,0,0-.692-0.928,3.133,3.133,0,0,0-1.06-.592,4.2,4.2,0,0,0-1.344-.208A4.321,4.321,0,0,0,307.279,225.572Zm10.872,1.46a2.668,2.668,0,0,0-.536-0.9,2.255,2.255,0,0,0-.808-0.56,2.62,2.62,0,0,0-1-.192,2.581,2.581,0,0,0-1,.192,2.3,2.3,0,0,0-.8.56,2.59,2.59,0,0,0-.536.9,3.623,3.623,0,0,0-.192,1.224,3.529,3.529,0,0,0,.192,1.2,2.536,2.536,0,0,0,.536.9,2.318,2.318,0,0,0,.8.556,2.581,2.581,0,0,0,1,.192,2.506,2.506,0,0,0,.968-0.192,2.359,2.359,0,0,0,.812-0.556,2.7,2.7,0,0,0,.556-0.9,3.276,3.276,0,0,0,.208-1.2A3.548,3.548,0,0,0,318.151,227.032Zm-1.028,2.108a1.63,1.63,0,0,1-.308.592,1.132,1.132,0,0,1-.456.328,1.6,1.6,0,0,1-1.112,0,1.1,1.1,0,0,1-.452-0.328,1.623,1.623,0,0,1-.3-0.592,3.135,3.135,0,0,1-.108-0.884,3.221,3.221,0,0,1,.108-0.9,1.717,1.717,0,0,1,.3-0.6,1.122,1.122,0,0,1,.452-0.34,1.538,1.538,0,0,1,1.112,0,1.154,1.154,0,0,1,.456.34,1.725,1.725,0,0,1,.308.6,3.1,3.1,0,0,1,.112.9A3.019,3.019,0,0,1,317.123,229.14Zm-3.1,7.812h1.056a0.521,0.521,0,0,0,.264-0.064,0.617,0.617,0,0,0,.192-0.168l8.376-11.232h-1.024a0.559,0.559,0,0,0-.308.076,0.929,0.929,0,0,0-.22.212Zm10.472-3.932a2.581,2.581,0,0,0-.536-0.908,2.3,2.3,0,0,0-.808-0.56,2.711,2.711,0,0,0-2,0,2.3,2.3,0,0,0-.8.56,2.581,2.581,0,0,0-.536.908,3.655,3.655,0,0,0-.192,1.228,3.5,3.5,0,0,0,.192,1.2,2.545,2.545,0,0,0,.536.892,2.318,2.318,0,0,0,.8.556,2.581,2.581,0,0,0,1,.192,2.479,2.479,0,0,0,.964-0.192,2.362,2.362,0,0,0,.808-0.556,2.709,2.709,0,0,0,.556-0.892,3.247,3.247,0,0,0,.208-1.2A3.655,3.655,0,0,0,324.491,233.02Zm-1.024,2.108a1.635,1.635,0,0,1-.308.588,1.132,1.132,0,0,1-.456.328,1.6,1.6,0,0,1-1.112,0,1.1,1.1,0,0,1-.452-0.328,1.627,1.627,0,0,1-.3-0.588,3.1,3.1,0,0,1-.108-0.88,3.261,3.261,0,0,1,.108-0.9,1.667,1.667,0,0,1,.3-0.6,1.139,1.139,0,0,1,.452-0.336,1.538,1.538,0,0,1,1.112,0,1.173,1.173,0,0,1,.456.336,1.674,1.674,0,0,1,.308.6,3.139,3.139,0,0,1,.112.9A2.981,2.981,0,0,1,323.467,235.128Z"/>
  <path id="RET_fusion_1-2_copy" data-name="RET fusion 1-2% copy" class="cls-5" d="M182.963,252.168a1.069,1.069,0,0,1,.48.084,0.867,0.867,0,0,1,.3.276l2.976,4.1a0.677,0.677,0,0,0,.624.328h1.376l-3.344-4.552a1.639,1.639,0,0,0-.512-0.488,4.355,4.355,0,0,0,1.188-.448,3.331,3.331,0,0,0,.888-0.716,2.994,2.994,0,0,0,.556-0.948,3.3,3.3,0,0,0,.192-1.136,3.363,3.363,0,0,0-.248-1.316,2.548,2.548,0,0,0-.764-1,3.6,3.6,0,0,0-1.308-.636,7.109,7.109,0,0,0-1.88-.22h-3.24v11.464h1.544v-4.784h1.176Zm-1.176-5.456h1.7a3.272,3.272,0,0,1,2.012.52,1.827,1.827,0,0,1,.676,1.544,2.343,2.343,0,0,1-.176.92,1.916,1.916,0,0,1-.524.716,2.428,2.428,0,0,1-.864.464,3.934,3.934,0,0,1-1.2.164h-1.624v-4.328Zm8.3-1.224v11.464h7.064v-1.264h-5.5v-3.912H196.1V250.56h-4.456v-3.808h5.5v-1.264h-7.064Zm7.832,0v1.3h3.72v10.16h1.552v-10.16h3.7v-1.3h-8.976Zm14.7,11.464V250.04h2.3v-1.032h-2.344v-0.744a2.832,2.832,0,0,1,.116-0.872,1.413,1.413,0,0,1,.332-0.568,1.262,1.262,0,0,1,.516-0.312,2.186,2.186,0,0,1,.668-0.1h0.248a1.524,1.524,0,0,0,.36-0.032,0.181,0.181,0,0,0,.136-0.192l0.032-.712a3.088,3.088,0,0,0-1.008-.16,3.259,3.259,0,0,0-1.152.192,2.379,2.379,0,0,0-.876.564,2.506,2.506,0,0,0-.56.912,3.6,3.6,0,0,0-.2,1.236v0.784H209.9v0.584a0.29,0.29,0,0,0,.108.244,0.7,0.7,0,0,0,.276.124l0.9,0.1v6.888h1.432Zm3.056-8.1v5.168a4.305,4.305,0,0,0,.172,1.256,2.635,2.635,0,0,0,.516.968,2.307,2.307,0,0,0,.852.62,2.921,2.921,0,0,0,1.172.22,3.107,3.107,0,0,0,1.5-.356,4.443,4.443,0,0,0,1.184-.94l0.112,0.872a0.362,0.362,0,0,0,.384.3h0.848v-8.1h-1.424v5.976a3.647,3.647,0,0,1-1.016.824,2.444,2.444,0,0,1-1.176.3,1.578,1.578,0,0,1-1.28-.5,2.147,2.147,0,0,1-.424-1.424v-5.168h-1.424Zm14.152,0.816a3.4,3.4,0,0,0-1.1-.692,3.873,3.873,0,0,0-1.436-.252,3.615,3.615,0,0,0-1.224.192,2.758,2.758,0,0,0-.9.516,2.195,2.195,0,0,0-.56.752,2.159,2.159,0,0,0-.192.892,1.976,1.976,0,0,0,.18.884,1.864,1.864,0,0,0,.476.612,2.7,2.7,0,0,0,.676.412q0.379,0.165.776,0.292t0.776,0.244a3.932,3.932,0,0,1,.676.272,1.533,1.533,0,0,1,.476.376,0.85,0.85,0,0,1,.18.556,1.309,1.309,0,0,1-.1.512,1.151,1.151,0,0,1-.308.424,1.527,1.527,0,0,1-.52.292,2.227,2.227,0,0,1-.728.108,2.508,2.508,0,0,1-.812-0.112,2.921,2.921,0,0,1-.552-0.248q-0.228-.135-0.388-0.248a0.542,0.542,0,0,0-.3-0.112,0.431,0.431,0,0,0-.232.056,0.5,0.5,0,0,0-.152.16l-0.336.544a3.888,3.888,0,0,0,1.168.708,4.1,4.1,0,0,0,1.536.276,3.954,3.954,0,0,0,1.312-.2,2.843,2.843,0,0,0,.96-0.548,2.255,2.255,0,0,0,.592-0.824,2.65,2.65,0,0,0,.2-1.036,1.8,1.8,0,0,0-.18-0.836,1.834,1.834,0,0,0-.476-0.588,2.8,2.8,0,0,0-.672-0.4c-0.251-.106-0.508-0.2-0.772-0.292s-0.521-.17-0.772-0.248a4.037,4.037,0,0,1-.672-0.268,1.558,1.558,0,0,1-.476-0.36,0.765,0.765,0,0,1-.18-0.52,1,1,0,0,1,.108-0.46,1.121,1.121,0,0,1,.312-0.372,1.584,1.584,0,0,1,.492-0.252,2.135,2.135,0,0,1,.648-0.092,2.515,2.515,0,0,1,.72.092,3.568,3.568,0,0,1,.524.2c0.147,0.072.271,0.138,0.372,0.2a0.552,0.552,0,0,0,.272.088,0.315,0.315,0,0,0,.3-0.176Zm2.2-.816v8.1h1.424v-8.1h-1.424Zm1.66-2.94a1.1,1.1,0,0,0-.224-0.328,1.05,1.05,0,0,0-.324-0.22,0.978,0.978,0,0,0-.392-0.08,0.949,0.949,0,0,0-.388.08,1.069,1.069,0,0,0-.32.22,1.039,1.039,0,0,0-.22.328,1.012,1.012,0,0,0-.08.4,0.949,0.949,0,0,0,.08.388,1.051,1.051,0,0,0,.22.32,1.033,1.033,0,0,0,.32.22,0.933,0.933,0,0,0,.388.08,0.961,0.961,0,0,0,.392-0.08,1.016,1.016,0,0,0,.324-0.22,1.119,1.119,0,0,0,.224-0.32,0.905,0.905,0,0,0,.084-0.388A0.965,0.965,0,0,0,233.679,245.908Zm3.856,3.108a3.441,3.441,0,0,0-1.22.84,3.738,3.738,0,0,0-.776,1.316,5.612,5.612,0,0,0,0,3.452,3.729,3.729,0,0,0,.776,1.312,3.368,3.368,0,0,0,1.22.836,4.552,4.552,0,0,0,3.208,0,3.328,3.328,0,0,0,1.216-.836,3.728,3.728,0,0,0,.768-1.312,5.692,5.692,0,0,0,0-3.452,3.738,3.738,0,0,0-.768-1.316,3.4,3.4,0,0,0-1.216-.84A4.494,4.494,0,0,0,237.535,249.016Zm0.548,6.728a1.98,1.98,0,0,1-.748-0.6,2.623,2.623,0,0,1-.448-0.956,5.1,5.1,0,0,1-.148-1.288,5.156,5.156,0,0,1,.148-1.292,2.678,2.678,0,0,1,.448-0.964,1.98,1.98,0,0,1,.748-0.6,2.5,2.5,0,0,1,1.056-.208,2.078,2.078,0,0,1,1.792.808,4.572,4.572,0,0,1,0,4.5,2.081,2.081,0,0,1-1.792.8A2.484,2.484,0,0,1,238.083,255.744Zm8.2,1.208v-5.968a3.906,3.906,0,0,1,1.012-.824,2.4,2.4,0,0,1,1.18-.3,1.572,1.572,0,0,1,1.284.508,2.182,2.182,0,0,1,.42,1.428v5.16H251.6v-5.16a4.246,4.246,0,0,0-.176-1.256,2.757,2.757,0,0,0-.516-0.972,2.275,2.275,0,0,0-.848-0.624,2.938,2.938,0,0,0-1.172-.22,3.069,3.069,0,0,0-1.508.36,4.556,4.556,0,0,0-1.18.944l-0.112-.88a0.363,0.363,0,0,0-.384-0.3h-0.848v8.1h1.424Zm11.7,0h6.144v-1.088h-2.256v-10.4h-1.16l-3.408,2.952,0.448,0.616a0.387,0.387,0,0,0,.144.124,0.442,0.442,0,0,0,.216.052,0.45,0.45,0,0,0,.152-0.028,0.527,0.527,0,0,0,.16-0.092l2.048-1.752c-0.016.24-.024,0.478-0.024,0.712v7.816h-2.464v1.088Zm7.5-4.192h3.952v-1.208h-3.952v1.208Zm8.636-7.188a3.478,3.478,0,0,0-1.128.62,3.312,3.312,0,0,0-.812,1.012,4.24,4.24,0,0,0-.432,1.388l0.744,0.128c0.037,0.006.071,0.01,0.1,0.012a0.813,0.813,0,0,0,.084,0,0.511,0.511,0,0,0,.336-0.1,0.639,0.639,0,0,0,.192-0.336,2.1,2.1,0,0,1,.276-0.688,2.138,2.138,0,0,1,1.132-.9,2.427,2.427,0,0,1,.8-0.128,2.585,2.585,0,0,1,.808.124,1.861,1.861,0,0,1,.656.372,1.718,1.718,0,0,1,.44.628,2.26,2.26,0,0,1,.16.884,3.055,3.055,0,0,1-.144.948,3.991,3.991,0,0,1-.412.876,6.48,6.48,0,0,1-.644.86q-0.377.429-.832,0.892l-3.672,3.688a0.836,0.836,0,0,0-.2.3,0.888,0.888,0,0,0-.06.312v0.488h7.648v-0.864a0.476,0.476,0,0,0-.136-0.352,0.5,0.5,0,0,0-.368-0.136h-3.84a4.119,4.119,0,0,0-.632.052,6.173,6.173,0,0,0-.648.14l3.016-3.088q0.48-.488.908-0.956a7.681,7.681,0,0,0,.756-0.968,4.8,4.8,0,0,0,.52-1.044,3.53,3.53,0,0,0,.192-1.184,3.269,3.269,0,0,0-.264-1.344,2.937,2.937,0,0,0-.724-1,3.151,3.151,0,0,0-1.092-.628,4.178,4.178,0,0,0-1.36-.216A4.321,4.321,0,0,0,274.127,245.572Zm11.024,1.46a2.668,2.668,0,0,0-.536-0.9,2.255,2.255,0,0,0-.808-0.56,2.62,2.62,0,0,0-1-.192,2.581,2.581,0,0,0-1,.192,2.3,2.3,0,0,0-.8.56,2.59,2.59,0,0,0-.536.9,3.623,3.623,0,0,0-.192,1.224,3.529,3.529,0,0,0,.192,1.2,2.536,2.536,0,0,0,.536.9,2.318,2.318,0,0,0,.8.556,2.581,2.581,0,0,0,1,.192,2.506,2.506,0,0,0,.968-0.192,2.359,2.359,0,0,0,.812-0.556,2.7,2.7,0,0,0,.556-0.9,3.276,3.276,0,0,0,.208-1.2A3.548,3.548,0,0,0,285.151,247.032Zm-1.028,2.108a1.63,1.63,0,0,1-.308.592,1.132,1.132,0,0,1-.456.328,1.6,1.6,0,0,1-1.112,0,1.1,1.1,0,0,1-.452-0.328,1.623,1.623,0,0,1-.3-0.592,3.135,3.135,0,0,1-.108-0.884,3.221,3.221,0,0,1,.108-0.9,1.717,1.717,0,0,1,.3-0.6,1.122,1.122,0,0,1,.452-0.34,1.538,1.538,0,0,1,1.112,0,1.154,1.154,0,0,1,.456.34,1.725,1.725,0,0,1,.308.6,3.1,3.1,0,0,1,.112.9A3.019,3.019,0,0,1,284.123,249.14Zm-3.1,7.812h1.056a0.521,0.521,0,0,0,.264-0.064,0.617,0.617,0,0,0,.192-0.168l8.376-11.232h-1.024a0.559,0.559,0,0,0-.308.076,0.929,0.929,0,0,0-.22.212Zm10.472-3.932a2.581,2.581,0,0,0-.536-0.908,2.3,2.3,0,0,0-.808-0.56,2.711,2.711,0,0,0-2,0,2.3,2.3,0,0,0-.8.56,2.581,2.581,0,0,0-.536.908,3.655,3.655,0,0,0-.192,1.228,3.5,3.5,0,0,0,.192,1.2,2.545,2.545,0,0,0,.536.892,2.318,2.318,0,0,0,.8.556,2.581,2.581,0,0,0,1,.192,2.479,2.479,0,0,0,.964-0.192,2.362,2.362,0,0,0,.808-0.556,2.709,2.709,0,0,0,.556-0.892,3.247,3.247,0,0,0,.208-1.2A3.655,3.655,0,0,0,291.491,253.02Zm-1.024,2.108a1.635,1.635,0,0,1-.308.588,1.132,1.132,0,0,1-.456.328,1.6,1.6,0,0,1-1.112,0,1.1,1.1,0,0,1-.452-0.328,1.627,1.627,0,0,1-.3-0.588,3.1,3.1,0,0,1-.108-0.88,3.261,3.261,0,0,1,.108-0.9,1.667,1.667,0,0,1,.3-0.6,1.139,1.139,0,0,1,.452-0.336,1.538,1.538,0,0,1,1.112,0,1.173,1.173,0,0,1,.456.336,1.674,1.674,0,0,1,.308.6,3.139,3.139,0,0,1,.112.9A2.981,2.981,0,0,1,290.467,255.128Z"/>
  <path id="ROS1_fusion_1-2_" data-name="ROS1 fusion 1-2%" class="cls-5" d="M182.963,270.168a1.069,1.069,0,0,1,.48.084,0.867,0.867,0,0,1,.3.276l2.976,4.1a0.677,0.677,0,0,0,.624.328h1.376l-3.344-4.552a1.639,1.639,0,0,0-.512-0.488,4.355,4.355,0,0,0,1.188-.448,3.331,3.331,0,0,0,.888-0.716,2.994,2.994,0,0,0,.556-0.948,3.3,3.3,0,0,0,.192-1.136,3.363,3.363,0,0,0-.248-1.316,2.548,2.548,0,0,0-.764-1,3.6,3.6,0,0,0-1.308-.636,7.109,7.109,0,0,0-1.88-.22h-3.24v11.464h1.544v-4.784h1.176Zm-1.176-5.456h1.7a3.272,3.272,0,0,1,2.012.52,1.827,1.827,0,0,1,.676,1.544,2.343,2.343,0,0,1-.176.92,1.916,1.916,0,0,1-.524.716,2.428,2.428,0,0,1-.864.464,3.934,3.934,0,0,1-1.2.164h-1.624v-4.328Zm18.168,2.148A5.46,5.46,0,0,0,198.8,265a5.168,5.168,0,0,0-1.788-1.212,6.371,6.371,0,0,0-4.612,0A5.18,5.18,0,0,0,190.619,265a5.46,5.46,0,0,0-1.152,1.856,7.053,7.053,0,0,0,0,4.728,5.4,5.4,0,0,0,1.152,1.852,5.147,5.147,0,0,0,1.784,1.2,6.426,6.426,0,0,0,4.612,0,5.135,5.135,0,0,0,1.788-1.2,5.4,5.4,0,0,0,1.152-1.852A7.053,7.053,0,0,0,199.955,266.86Zm-1.472,4.256a4,4,0,0,1-.816,1.416,3.494,3.494,0,0,1-1.28.888,4.714,4.714,0,0,1-3.352,0,3.534,3.534,0,0,1-1.284-.888,3.966,3.966,0,0,1-.82-1.416,6.372,6.372,0,0,1,0-3.788,3.976,3.976,0,0,1,.82-1.42,3.593,3.593,0,0,1,1.284-.892,4.658,4.658,0,0,1,3.352,0,3.552,3.552,0,0,1,1.28.892,4.013,4.013,0,0,1,.816,1.42A6.372,6.372,0,0,1,198.483,271.116Zm10.48-6.572a4.043,4.043,0,0,0-1.384-.88,4.867,4.867,0,0,0-1.752-.3,4.057,4.057,0,0,0-1.516.264,3.324,3.324,0,0,0-1.108.7,3.056,3.056,0,0,0-.92,2.184,3.067,3.067,0,0,0,.236,1.276,2.565,2.565,0,0,0,.62.86,3.26,3.26,0,0,0,.876.56,10.082,10.082,0,0,0,1.008.38l1.008,0.32a4.353,4.353,0,0,1,.876.38,1.965,1.965,0,0,1,.62.556,1.442,1.442,0,0,1,.236.852,2.2,2.2,0,0,1-.16.856,1.859,1.859,0,0,1-.46.66,2.085,2.085,0,0,1-.732.428,2.939,2.939,0,0,1-.984.152,3.094,3.094,0,0,1-1.124-.18,4.115,4.115,0,0,1-.784-0.4,6.4,6.4,0,0,1-.54-0.4,0.637,0.637,0,0,0-.384-0.18,0.364,0.364,0,0,0-.2.06,0.61,0.61,0,0,0-.156.148l-0.448.736a4.744,4.744,0,0,0,1.564,1.092,4.963,4.963,0,0,0,2.028.4,4.435,4.435,0,0,0,1.628-.28,3.483,3.483,0,0,0,1.208-.768,3.257,3.257,0,0,0,.748-1.148,3.861,3.861,0,0,0,.256-1.412,2.751,2.751,0,0,0-.236-1.2,2.529,2.529,0,0,0-.624-0.824,3.561,3.561,0,0,0-.88-0.556q-0.492-.219-1.008-0.4l-1.008-.34a4.724,4.724,0,0,1-.88-0.388,2.017,2.017,0,0,1-.624-0.54,1.294,1.294,0,0,1-.236-0.8,1.787,1.787,0,0,1,.136-0.7,1.56,1.56,0,0,1,.4-0.564,1.967,1.967,0,0,1,.668-0.38,2.788,2.788,0,0,1,.92-0.14,2.876,2.876,0,0,1,.94.136,3.737,3.737,0,0,1,.664.3,5.339,5.339,0,0,1,.456.3,0.551,0.551,0,0,0,.316.136,0.338,0.338,0,0,0,.208-0.06,0.625,0.625,0,0,0,.152-0.18Zm3.656,10.408h6.144v-1.088h-2.256v-10.4h-1.16l-3.408,2.952,0.448,0.616a0.387,0.387,0,0,0,.144.124,0.442,0.442,0,0,0,.216.052,0.45,0.45,0,0,0,.152-0.028,0.527,0.527,0,0,0,.16-0.092l2.048-1.752c-0.016.24-.024,0.478-0.024,0.712v7.816h-2.464v1.088Zm12.624,0V268.04h2.3v-1.032H225.2v-0.744a2.832,2.832,0,0,1,.116-0.872,1.413,1.413,0,0,1,.332-0.568,1.262,1.262,0,0,1,.516-0.312,2.186,2.186,0,0,1,.668-0.1h0.248a1.524,1.524,0,0,0,.36-0.032,0.181,0.181,0,0,0,.136-0.192l0.032-.712a3.088,3.088,0,0,0-1.008-.16,3.259,3.259,0,0,0-1.152.192,2.379,2.379,0,0,0-.876.564,2.506,2.506,0,0,0-.56.912,3.6,3.6,0,0,0-.2,1.236v0.784h-1.28v0.584a0.29,0.29,0,0,0,.108.244,0.7,0.7,0,0,0,.276.124l0.9,0.1v6.888h1.432Zm3.056-8.1v5.168a4.305,4.305,0,0,0,.172,1.256,2.635,2.635,0,0,0,.516.968,2.307,2.307,0,0,0,.852.62,2.921,2.921,0,0,0,1.172.22,3.107,3.107,0,0,0,1.5-.356,4.443,4.443,0,0,0,1.184-.94l0.112,0.872a0.362,0.362,0,0,0,.384.3h0.848v-8.1h-1.424v5.976a3.647,3.647,0,0,1-1.016.824,2.444,2.444,0,0,1-1.176.3,1.578,1.578,0,0,1-1.28-.5,2.147,2.147,0,0,1-.424-1.424v-5.168H228.3Zm14.152,0.816a3.4,3.4,0,0,0-1.1-.692,3.873,3.873,0,0,0-1.436-.252,3.615,3.615,0,0,0-1.224.192,2.758,2.758,0,0,0-.9.516,2.195,2.195,0,0,0-.56.752,2.159,2.159,0,0,0-.192.892,1.976,1.976,0,0,0,.18.884,1.864,1.864,0,0,0,.476.612,2.7,2.7,0,0,0,.676.412q0.38,0.165.776,0.292t0.776,0.244a3.932,3.932,0,0,1,.676.272,1.533,1.533,0,0,1,.476.376,0.85,0.85,0,0,1,.18.556,1.309,1.309,0,0,1-.1.512,1.151,1.151,0,0,1-.308.424,1.527,1.527,0,0,1-.52.292,2.227,2.227,0,0,1-.728.108,2.508,2.508,0,0,1-.812-0.112,2.921,2.921,0,0,1-.552-0.248q-0.228-.135-0.388-0.248a0.542,0.542,0,0,0-.3-0.112,0.431,0.431,0,0,0-.232.056,0.5,0.5,0,0,0-.152.16l-0.336.544a3.888,3.888,0,0,0,1.168.708,4.1,4.1,0,0,0,1.536.276,3.954,3.954,0,0,0,1.312-.2,2.843,2.843,0,0,0,.96-0.548,2.255,2.255,0,0,0,.592-0.824,2.65,2.65,0,0,0,.2-1.036,1.8,1.8,0,0,0-.18-0.836,1.834,1.834,0,0,0-.476-0.588,2.8,2.8,0,0,0-.672-0.4c-0.251-.106-0.508-0.2-0.772-0.292s-0.521-.17-0.772-0.248a4.037,4.037,0,0,1-.672-0.268,1.558,1.558,0,0,1-.476-0.36,0.765,0.765,0,0,1-.18-0.52,1,1,0,0,1,.108-0.46,1.121,1.121,0,0,1,.312-0.372,1.584,1.584,0,0,1,.492-0.252,2.135,2.135,0,0,1,.648-0.092,2.515,2.515,0,0,1,.72.092,3.568,3.568,0,0,1,.524.2c0.147,0.072.271,0.138,0.372,0.2a0.552,0.552,0,0,0,.272.088,0.315,0.315,0,0,0,.3-0.176Zm2.2-.816v8.1h1.424v-8.1h-1.424Zm1.66-2.94a1.1,1.1,0,0,0-.224-0.328,1.05,1.05,0,0,0-.324-0.22,0.978,0.978,0,0,0-.392-0.08,0.949,0.949,0,0,0-.388.08,1.069,1.069,0,0,0-.32.22,1.039,1.039,0,0,0-.22.328,1.012,1.012,0,0,0-.08.4,0.949,0.949,0,0,0,.08.388,1.051,1.051,0,0,0,.22.32,1.033,1.033,0,0,0,.32.22,0.933,0.933,0,0,0,.388.08,0.961,0.961,0,0,0,.392-0.08,1.016,1.016,0,0,0,.324-0.22,1.119,1.119,0,0,0,.224-0.32,0.905,0.905,0,0,0,.084-0.388A0.965,0.965,0,0,0,246.311,263.908Zm3.856,3.108a3.441,3.441,0,0,0-1.22.84,3.738,3.738,0,0,0-.776,1.316,5.612,5.612,0,0,0,0,3.452,3.729,3.729,0,0,0,.776,1.312,3.368,3.368,0,0,0,1.22.836,4.552,4.552,0,0,0,3.208,0,3.328,3.328,0,0,0,1.216-.836,3.728,3.728,0,0,0,.768-1.312,5.692,5.692,0,0,0,0-3.452,3.738,3.738,0,0,0-.768-1.316,3.4,3.4,0,0,0-1.216-.84A4.494,4.494,0,0,0,250.167,267.016Zm0.548,6.728a1.98,1.98,0,0,1-.748-0.6,2.623,2.623,0,0,1-.448-0.956,5.1,5.1,0,0,1-.148-1.288,5.156,5.156,0,0,1,.148-1.292,2.678,2.678,0,0,1,.448-0.964,1.98,1.98,0,0,1,.748-0.6,2.5,2.5,0,0,1,1.056-.208,2.078,2.078,0,0,1,1.792.808,4.572,4.572,0,0,1,0,4.5,2.081,2.081,0,0,1-1.792.8A2.484,2.484,0,0,1,250.715,273.744Zm8.2,1.208v-5.968a3.906,3.906,0,0,1,1.012-.824,2.4,2.4,0,0,1,1.18-.3,1.572,1.572,0,0,1,1.284.508,2.182,2.182,0,0,1,.42,1.428v5.16h1.424v-5.16a4.246,4.246,0,0,0-.176-1.256,2.757,2.757,0,0,0-.516-0.972,2.275,2.275,0,0,0-.848-0.624,2.938,2.938,0,0,0-1.172-.22,3.069,3.069,0,0,0-1.508.36,4.556,4.556,0,0,0-1.18.944l-0.112-.88a0.363,0.363,0,0,0-.384-0.3h-0.848v8.1h1.424Zm11.7,0h6.144v-1.088h-2.256v-10.4h-1.16l-3.408,2.952,0.448,0.616a0.387,0.387,0,0,0,.144.124,0.442,0.442,0,0,0,.216.052,0.45,0.45,0,0,0,.152-0.028,0.527,0.527,0,0,0,.16-0.092l2.048-1.752c-0.016.24-.024,0.478-0.024,0.712v7.816h-2.464v1.088Zm7.5-4.192h3.952v-1.208h-3.952v1.208Zm8.636-7.188a3.478,3.478,0,0,0-1.128.62,3.312,3.312,0,0,0-.812,1.012,4.24,4.24,0,0,0-.432,1.388l0.744,0.128c0.037,0.006.071,0.01,0.1,0.012a0.813,0.813,0,0,0,.084,0,0.511,0.511,0,0,0,.336-0.1,0.639,0.639,0,0,0,.192-0.336,2.1,2.1,0,0,1,.276-0.688,2.138,2.138,0,0,1,1.132-.9,2.427,2.427,0,0,1,.8-0.128,2.585,2.585,0,0,1,.808.124,1.861,1.861,0,0,1,.656.372,1.718,1.718,0,0,1,.44.628,2.26,2.26,0,0,1,.16.884,3.055,3.055,0,0,1-.144.948,3.991,3.991,0,0,1-.412.876,6.48,6.48,0,0,1-.644.86q-0.377.429-.832,0.892l-3.672,3.688a0.836,0.836,0,0,0-.2.3,0.888,0.888,0,0,0-.06.312v0.488H291.8v-0.864a0.476,0.476,0,0,0-.136-0.352,0.5,0.5,0,0,0-.368-0.136h-3.84a4.119,4.119,0,0,0-.632.052,6.173,6.173,0,0,0-.648.14L289.2,270.7q0.48-.488.908-0.956a7.681,7.681,0,0,0,.756-0.968,4.8,4.8,0,0,0,.52-1.044,3.53,3.53,0,0,0,.192-1.184,3.269,3.269,0,0,0-.264-1.344,2.937,2.937,0,0,0-.724-1,3.151,3.151,0,0,0-1.092-.628,4.178,4.178,0,0,0-1.36-.216A4.321,4.321,0,0,0,286.759,263.572Zm11.024,1.46a2.668,2.668,0,0,0-.536-0.9,2.255,2.255,0,0,0-.808-0.56,2.62,2.62,0,0,0-1-.192,2.581,2.581,0,0,0-1,.192,2.3,2.3,0,0,0-.8.56,2.59,2.59,0,0,0-.536.9,3.623,3.623,0,0,0-.192,1.224,3.529,3.529,0,0,0,.192,1.2,2.536,2.536,0,0,0,.536.9,2.318,2.318,0,0,0,.8.556,2.581,2.581,0,0,0,1,.192,2.506,2.506,0,0,0,.968-0.192,2.359,2.359,0,0,0,.812-0.556,2.7,2.7,0,0,0,.556-0.9,3.276,3.276,0,0,0,.208-1.2A3.548,3.548,0,0,0,297.783,265.032Zm-1.028,2.108a1.63,1.63,0,0,1-.308.592,1.132,1.132,0,0,1-.456.328,1.6,1.6,0,0,1-1.112,0,1.1,1.1,0,0,1-.452-0.328,1.623,1.623,0,0,1-.3-0.592,3.135,3.135,0,0,1-.108-0.884,3.221,3.221,0,0,1,.108-0.9,1.717,1.717,0,0,1,.3-0.6,1.122,1.122,0,0,1,.452-0.34,1.538,1.538,0,0,1,1.112,0,1.154,1.154,0,0,1,.456.34,1.725,1.725,0,0,1,.308.6,3.1,3.1,0,0,1,.112.9A3.019,3.019,0,0,1,296.755,267.14Zm-3.1,7.812h1.056a0.521,0.521,0,0,0,.264-0.064,0.617,0.617,0,0,0,.192-0.168l8.376-11.232h-1.024a0.559,0.559,0,0,0-.308.076,0.929,0.929,0,0,0-.22.212Zm10.472-3.932a2.581,2.581,0,0,0-.536-0.908,2.3,2.3,0,0,0-.808-0.56,2.711,2.711,0,0,0-2,0,2.3,2.3,0,0,0-.8.56,2.581,2.581,0,0,0-.536.908,3.655,3.655,0,0,0-.192,1.228,3.5,3.5,0,0,0,.192,1.2,2.545,2.545,0,0,0,.536.892,2.318,2.318,0,0,0,.8.556,2.581,2.581,0,0,0,1,.192,2.479,2.479,0,0,0,.964-0.192,2.362,2.362,0,0,0,.808-0.556,2.709,2.709,0,0,0,.556-0.892,3.247,3.247,0,0,0,.208-1.2A3.655,3.655,0,0,0,304.123,271.02Zm-1.024,2.108a1.635,1.635,0,0,1-.308.588,1.132,1.132,0,0,1-.456.328,1.6,1.6,0,0,1-1.112,0,1.1,1.1,0,0,1-.452-0.328,1.627,1.627,0,0,1-.3-0.588,3.1,3.1,0,0,1-.108-0.88,3.261,3.261,0,0,1,.108-0.9,1.667,1.667,0,0,1,.3-0.6,1.139,1.139,0,0,1,.452-0.336,1.538,1.538,0,0,1,1.112,0,1.173,1.173,0,0,1,.456.336,1.674,1.674,0,0,1,.308.6,3.139,3.139,0,0,1,.112.9A2.981,2.981,0,0,1,303.1,273.128Z"/>
  <path id="ALK_fusion_3-6_" data-name="ALK fusion 3-6%" class="cls-5" d="M184.931,295.488h-1.576l-4.584,11.464h1.2a0.511,0.511,0,0,0,.336-0.112,0.615,0.615,0,0,0,.192-0.256l1.072-2.768h5.144l1.072,2.768a0.641,0.641,0,0,0,.192.264,0.511,0.511,0,0,0,.336.1h1.2ZM183.8,298.04c0.053-.138.108-0.3,0.164-0.484s0.113-.385.172-0.6a8.774,8.774,0,0,0,.344,1.08l1.8,4.664H182Zm8.832-2.552h-1.552v11.464H197.6v-1.3h-4.96v-10.16Zm8.152,0h-1.544v11.464h1.544V301.7h0.7a2.259,2.259,0,0,1,.324.02,0.843,0.843,0,0,1,.232.068,0.757,0.757,0,0,1,.176.116c0.051,0.046.1,0.1,0.164,0.164l3.96,4.552c0.043,0.048.085,0.094,0.128,0.136a0.554,0.554,0,0,0,.14.1,0.743,0.743,0,0,0,.18.064,1.159,1.159,0,0,0,.256.024H208.4l-4.56-5.432a3.281,3.281,0,0,0-.352-0.36,1.126,1.126,0,0,0-.392-0.216,1.381,1.381,0,0,0,.316-0.208,3.661,3.661,0,0,0,.316-0.312l4.368-4.936h-1.32a0.918,0.918,0,0,0-.42.084,1.212,1.212,0,0,0-.34.284l-3.816,4.32a0.936,0.936,0,0,1-.34.26,1.261,1.261,0,0,1-.484.076h-0.584v-5.024Zm13.824,11.464V300.04h2.3v-1.032h-2.344v-0.744a2.832,2.832,0,0,1,.116-0.872,1.413,1.413,0,0,1,.332-0.568,1.262,1.262,0,0,1,.516-0.312,2.186,2.186,0,0,1,.668-0.1h0.248a1.524,1.524,0,0,0,.36-0.032,0.181,0.181,0,0,0,.136-0.192l0.032-.712a3.088,3.088,0,0,0-1.008-.16,3.259,3.259,0,0,0-1.152.192,2.379,2.379,0,0,0-.876.564,2.506,2.506,0,0,0-.56.912,3.6,3.6,0,0,0-.2,1.236v0.784H211.9v0.584a0.29,0.29,0,0,0,.108.244,0.7,0.7,0,0,0,.276.124l0.9,0.1v6.888h1.432Zm3.056-8.1v5.168a4.305,4.305,0,0,0,.172,1.256,2.635,2.635,0,0,0,.516.968,2.307,2.307,0,0,0,.852.62,2.921,2.921,0,0,0,1.172.22,3.107,3.107,0,0,0,1.5-.356,4.443,4.443,0,0,0,1.184-.94l0.112,0.872a0.362,0.362,0,0,0,.384.3h0.848v-8.1h-1.424v5.976a3.647,3.647,0,0,1-1.016.824,2.444,2.444,0,0,1-1.176.3,1.578,1.578,0,0,1-1.28-.5,2.147,2.147,0,0,1-.424-1.424v-5.168h-1.424Zm14.152,0.816a3.4,3.4,0,0,0-1.1-.692,3.873,3.873,0,0,0-1.436-.252,3.615,3.615,0,0,0-1.224.192,2.758,2.758,0,0,0-.9.516,2.195,2.195,0,0,0-.56.752,2.159,2.159,0,0,0-.192.892,1.976,1.976,0,0,0,.18.884,1.864,1.864,0,0,0,.476.612,2.7,2.7,0,0,0,.676.412q0.379,0.165.776,0.292t0.776,0.244a3.932,3.932,0,0,1,.676.272,1.533,1.533,0,0,1,.476.376,0.85,0.85,0,0,1,.18.556,1.309,1.309,0,0,1-.1.512,1.151,1.151,0,0,1-.308.424,1.527,1.527,0,0,1-.52.292,2.227,2.227,0,0,1-.728.108,2.508,2.508,0,0,1-.812-0.112,2.921,2.921,0,0,1-.552-0.248q-0.228-.135-0.388-0.248a0.542,0.542,0,0,0-.3-0.112,0.431,0.431,0,0,0-.232.056,0.5,0.5,0,0,0-.152.16l-0.336.544a3.888,3.888,0,0,0,1.168.708,4.1,4.1,0,0,0,1.536.276,3.954,3.954,0,0,0,1.312-.2,2.843,2.843,0,0,0,.96-0.548,2.255,2.255,0,0,0,.592-0.824,2.65,2.65,0,0,0,.2-1.036,1.8,1.8,0,0,0-.18-0.836,1.834,1.834,0,0,0-.476-0.588,2.8,2.8,0,0,0-.672-0.4c-0.251-.106-0.508-0.2-0.772-0.292s-0.521-.17-0.772-0.248a4.037,4.037,0,0,1-.672-0.268,1.558,1.558,0,0,1-.476-0.36,0.765,0.765,0,0,1-.18-0.52,1,1,0,0,1,.108-0.46,1.121,1.121,0,0,1,.312-0.372,1.584,1.584,0,0,1,.492-0.252,2.135,2.135,0,0,1,.648-0.092,2.515,2.515,0,0,1,.72.092,3.568,3.568,0,0,1,.524.2c0.147,0.072.271,0.138,0.372,0.2a0.552,0.552,0,0,0,.272.088,0.315,0.315,0,0,0,.3-0.176Zm2.2-.816v8.1h1.424v-8.1h-1.424Zm1.66-2.94a1.1,1.1,0,0,0-.224-0.328,1.05,1.05,0,0,0-.324-0.22,0.978,0.978,0,0,0-.392-0.08,0.949,0.949,0,0,0-.388.08,1.069,1.069,0,0,0-.32.22,1.039,1.039,0,0,0-.22.328,1.012,1.012,0,0,0-.08.4,0.949,0.949,0,0,0,.08.388,1.051,1.051,0,0,0,.22.32,1.033,1.033,0,0,0,.32.22,0.933,0.933,0,0,0,.388.08,0.961,0.961,0,0,0,.392-0.08,1.016,1.016,0,0,0,.324-0.22,1.119,1.119,0,0,0,.224-0.32,0.905,0.905,0,0,0,.084-0.388A0.965,0.965,0,0,0,235.679,295.908Zm3.856,3.108a3.441,3.441,0,0,0-1.22.84,3.738,3.738,0,0,0-.776,1.316,5.612,5.612,0,0,0,0,3.452,3.729,3.729,0,0,0,.776,1.312,3.368,3.368,0,0,0,1.22.836,4.552,4.552,0,0,0,3.208,0,3.328,3.328,0,0,0,1.216-.836,3.728,3.728,0,0,0,.768-1.312,5.692,5.692,0,0,0,0-3.452,3.738,3.738,0,0,0-.768-1.316,3.4,3.4,0,0,0-1.216-.84A4.494,4.494,0,0,0,239.535,299.016Zm0.548,6.728a1.98,1.98,0,0,1-.748-0.6,2.623,2.623,0,0,1-.448-0.956,5.1,5.1,0,0,1-.148-1.288,5.156,5.156,0,0,1,.148-1.292,2.678,2.678,0,0,1,.448-0.964,1.98,1.98,0,0,1,.748-0.6,2.5,2.5,0,0,1,1.056-.208,2.078,2.078,0,0,1,1.792.808,4.572,4.572,0,0,1,0,4.5,2.081,2.081,0,0,1-1.792.8A2.484,2.484,0,0,1,240.083,305.744Zm8.2,1.208v-5.968a3.906,3.906,0,0,1,1.012-.824,2.4,2.4,0,0,1,1.18-.3,1.572,1.572,0,0,1,1.284.508,2.182,2.182,0,0,1,.42,1.428v5.16H253.6v-5.16a4.246,4.246,0,0,0-.176-1.256,2.757,2.757,0,0,0-.516-0.972,2.275,2.275,0,0,0-.848-0.624,2.938,2.938,0,0,0-1.172-.22,3.069,3.069,0,0,0-1.508.36,4.556,4.556,0,0,0-1.18.944l-0.112-.88a0.363,0.363,0,0,0-.384-0.3h-0.848v8.1h1.424Zm13-11.38a3.478,3.478,0,0,0-1.128.62,3.312,3.312,0,0,0-.812,1.012,4.24,4.24,0,0,0-.432,1.388l0.744,0.126,0.1,0.012a0.813,0.813,0,0,0,.084,0,0.505,0.505,0,0,0,.328-0.1,0.639,0.639,0,0,0,.192-0.336,2.551,2.551,0,0,1,.288-0.683,2.082,2.082,0,0,1,.476-0.543,2.163,2.163,0,0,1,.652-0.356,2.427,2.427,0,0,1,.8-0.128,2.6,2.6,0,0,1,.8.12,1.788,1.788,0,0,1,.644.36,1.667,1.667,0,0,1,.428.608,2.207,2.207,0,0,1,.156.864,2.16,2.16,0,0,1-.148.816,1.538,1.538,0,0,1-.476.632,2.422,2.422,0,0,1-.844.416,4.42,4.42,0,0,1-1.244.152v1.04a5.609,5.609,0,0,1,1.468.16,2.323,2.323,0,0,1,.9.44,1.464,1.464,0,0,1,.448.664,2.74,2.74,0,0,1,.124.848,2.059,2.059,0,0,1-.152.76,2.123,2.123,0,0,1-.452.7,2.286,2.286,0,0,1-.752.508,2.619,2.619,0,0,1-1.052.2,2.5,2.5,0,0,1-1-.176,2.323,2.323,0,0,1-.676-0.432,2.218,2.218,0,0,1-.432-0.548c-0.107-.194-0.2-0.369-0.272-0.524-0.011-.026-0.021-0.052-0.032-0.076s-0.021-.046-0.032-0.068a0.436,0.436,0,0,0-.188-0.212,0.585,0.585,0,0,0-.284-0.068,0.847,0.847,0,0,0-.336.072l-0.608.256a7.049,7.049,0,0,0,.488,1.188,3.319,3.319,0,0,0,.736.948,3.233,3.233,0,0,0,1.1.628,4.72,4.72,0,0,0,1.56.228,4.575,4.575,0,0,0,1.484-.236,3.669,3.669,0,0,0,1.212-.68,3.192,3.192,0,0,0,.82-1.076,3.279,3.279,0,0,0,.3-1.424,2.682,2.682,0,0,0-.564-1.744,3.114,3.114,0,0,0-1.684-.992,3.442,3.442,0,0,0,.824-0.36,2.385,2.385,0,0,0,.628-0.548,2.355,2.355,0,0,0,.4-0.752A3.128,3.128,0,0,0,266,298.3a2.887,2.887,0,0,0-.248-1.208,2.684,2.684,0,0,0-.692-0.928,3.133,3.133,0,0,0-1.06-.592,4.2,4.2,0,0,0-1.344-.208A4.321,4.321,0,0,0,261.279,295.572Zm6.212,7.188h3.952v-1.208h-3.952v1.208Zm9.328-2.676a3.393,3.393,0,0,0-.9.436l3.976-5.032h-1.264a1.013,1.013,0,0,0-.456.1,0.9,0.9,0,0,0-.312.244l-2.9,3.912a8.153,8.153,0,0,0-1.064,1.824,4.356,4.356,0,0,0-.336,1.6,4.626,4.626,0,0,0,.268,1.62,3.444,3.444,0,0,0,.764,1.232,3.376,3.376,0,0,0,1.2.784,4.233,4.233,0,0,0,1.564.276,4.313,4.313,0,0,0,1.6-.288,3.712,3.712,0,0,0,1.244-.792,3.591,3.591,0,0,0,.8-1.184,3.734,3.734,0,0,0,.288-1.472,3.668,3.668,0,0,0-.272-1.452,3.1,3.1,0,0,0-1.816-1.736,3.726,3.726,0,0,0-1.3-.228A3.557,3.557,0,0,0,276.819,300.084Zm-1.716,2.424a2.311,2.311,0,0,1,.5-0.768,2.393,2.393,0,0,1,.788-0.528,2.659,2.659,0,0,1,1.04-.2,2.785,2.785,0,0,1,.984.168,2.111,2.111,0,0,1,1.264,1.252,2.78,2.78,0,0,1,.176,1.012,2.592,2.592,0,0,1-.18.976,2.259,2.259,0,0,1-.512.776,2.335,2.335,0,0,1-.8.512,2.792,2.792,0,0,1-1.04.184,2.674,2.674,0,0,1-1.012-.18,2.089,2.089,0,0,1-.752-0.508,2.19,2.19,0,0,1-.468-0.784,3.019,3.019,0,0,1-.16-1.008A2.45,2.45,0,0,1,275.1,302.508Zm12.048-5.476a2.668,2.668,0,0,0-.536-0.9,2.255,2.255,0,0,0-.808-0.56,2.62,2.62,0,0,0-1-.192,2.581,2.581,0,0,0-1,.192,2.3,2.3,0,0,0-.8.56,2.59,2.59,0,0,0-.536.9,3.623,3.623,0,0,0-.192,1.224,3.529,3.529,0,0,0,.192,1.2,2.536,2.536,0,0,0,.536.9,2.318,2.318,0,0,0,.8.556,2.581,2.581,0,0,0,1,.192,2.506,2.506,0,0,0,.968-0.192,2.359,2.359,0,0,0,.812-0.556,2.7,2.7,0,0,0,.556-0.9,3.276,3.276,0,0,0,.208-1.2A3.548,3.548,0,0,0,287.151,297.032Zm-1.028,2.108a1.63,1.63,0,0,1-.308.592,1.132,1.132,0,0,1-.456.328,1.6,1.6,0,0,1-1.112,0,1.1,1.1,0,0,1-.452-0.328,1.623,1.623,0,0,1-.3-0.592,3.135,3.135,0,0,1-.108-0.884,3.221,3.221,0,0,1,.108-0.9,1.717,1.717,0,0,1,.3-0.6,1.122,1.122,0,0,1,.452-0.34,1.538,1.538,0,0,1,1.112,0,1.154,1.154,0,0,1,.456.34,1.725,1.725,0,0,1,.308.6,3.1,3.1,0,0,1,.112.9A3.019,3.019,0,0,1,286.123,299.14Zm-3.1,7.812h1.056a0.521,0.521,0,0,0,.264-0.064,0.617,0.617,0,0,0,.192-0.168l8.376-11.232h-1.024a0.559,0.559,0,0,0-.308.076,0.929,0.929,0,0,0-.22.212Zm10.472-3.932a2.581,2.581,0,0,0-.536-0.908,2.3,2.3,0,0,0-.808-0.56,2.711,2.711,0,0,0-2,0,2.3,2.3,0,0,0-.8.56,2.581,2.581,0,0,0-.536.908,3.655,3.655,0,0,0-.192,1.228,3.5,3.5,0,0,0,.192,1.2,2.545,2.545,0,0,0,.536.892,2.318,2.318,0,0,0,.8.556,2.581,2.581,0,0,0,1,.192,2.479,2.479,0,0,0,.964-0.192,2.362,2.362,0,0,0,.808-0.556,2.709,2.709,0,0,0,.556-0.892,3.247,3.247,0,0,0,.208-1.2A3.655,3.655,0,0,0,293.491,303.02Zm-1.024,2.108a1.635,1.635,0,0,1-.308.588,1.132,1.132,0,0,1-.456.328,1.6,1.6,0,0,1-1.112,0,1.1,1.1,0,0,1-.452-0.328,1.627,1.627,0,0,1-.3-0.588,3.1,3.1,0,0,1-.108-0.88,3.261,3.261,0,0,1,.108-0.9,1.667,1.667,0,0,1,.3-0.6,1.139,1.139,0,0,1,.452-0.336,1.538,1.538,0,0,1,1.112,0,1.173,1.173,0,0,1,.456.336,1.674,1.674,0,0,1,.308.6,3.139,3.139,0,0,1,.112.9A2.981,2.981,0,0,1,292.467,305.128Z"/>
  <path id="KRAS_mustation_20-30_" data-name="KRAS mustation 20-30%" class="cls-5" d="M181.787,391.488h-1.544v11.464h1.544V397.7h0.7a2.259,2.259,0,0,1,.324.02,0.843,0.843,0,0,1,.232.068,0.757,0.757,0,0,1,.176.116c0.051,0.046.1,0.1,0.164,0.164l3.96,4.552c0.043,0.048.085,0.094,0.128,0.136a0.554,0.554,0,0,0,.14.1,0.743,0.743,0,0,0,.18.064,1.159,1.159,0,0,0,.256.024H189.4l-4.56-5.432a3.281,3.281,0,0,0-.352-0.36,1.126,1.126,0,0,0-.392-0.216,1.381,1.381,0,0,0,.316-0.208,3.661,3.661,0,0,0,.316-0.312l4.368-4.936h-1.32a0.918,0.918,0,0,0-.42.084,1.212,1.212,0,0,0-.34.284l-3.816,4.32a0.936,0.936,0,0,1-.34.26,1.261,1.261,0,0,1-.484.076h-0.584v-5.024Zm12.176,6.68a1.069,1.069,0,0,1,.48.084,0.867,0.867,0,0,1,.3.276l2.976,4.1a0.677,0.677,0,0,0,.624.328h1.376l-3.344-4.552a1.639,1.639,0,0,0-.512-0.488,4.355,4.355,0,0,0,1.188-.448,3.331,3.331,0,0,0,.888-0.716,2.994,2.994,0,0,0,.556-0.948,3.3,3.3,0,0,0,.192-1.136,3.363,3.363,0,0,0-.248-1.316,2.548,2.548,0,0,0-.764-1,3.6,3.6,0,0,0-1.308-.636,7.109,7.109,0,0,0-1.88-.22h-3.24v11.464h1.544v-4.784h1.176Zm-1.176-5.456h1.7a3.272,3.272,0,0,1,2.012.52,1.827,1.827,0,0,1,.676,1.544,2.343,2.343,0,0,1-.176.92,1.916,1.916,0,0,1-.524.716,2.428,2.428,0,0,1-.864.464,3.934,3.934,0,0,1-1.2.164h-1.624v-4.328Zm13.144-1.224h-1.576l-4.584,11.464h1.2a0.511,0.511,0,0,0,.336-0.112,0.615,0.615,0,0,0,.192-0.256l1.072-2.768h5.144l1.072,2.768a0.641,0.641,0,0,0,.192.264,0.511,0.511,0,0,0,.336.1h1.2ZM204.8,394.04c0.053-.138.108-0.3,0.164-0.484s0.113-.385.172-0.6a8.774,8.774,0,0,0,.344,1.08l1.8,4.664H203Zm13.528-1.5a4.043,4.043,0,0,0-1.384-.88,4.867,4.867,0,0,0-1.752-.3,4.057,4.057,0,0,0-1.516.264,3.324,3.324,0,0,0-1.108.7,3.056,3.056,0,0,0-.92,2.184,3.067,3.067,0,0,0,.236,1.276,2.565,2.565,0,0,0,.62.86,3.26,3.26,0,0,0,.876.56,10.082,10.082,0,0,0,1.008.38l1.008,0.32a4.353,4.353,0,0,1,.876.38,1.965,1.965,0,0,1,.62.556,1.442,1.442,0,0,1,.236.852,2.2,2.2,0,0,1-.16.856,1.859,1.859,0,0,1-.46.66,2.085,2.085,0,0,1-.732.428,2.939,2.939,0,0,1-.984.152,3.094,3.094,0,0,1-1.124-.18,4.115,4.115,0,0,1-.784-0.4,6.4,6.4,0,0,1-.54-0.4,0.637,0.637,0,0,0-.384-0.18,0.364,0.364,0,0,0-.2.06,0.61,0.61,0,0,0-.156.148l-0.448.736a4.744,4.744,0,0,0,1.564,1.092,4.963,4.963,0,0,0,2.028.4,4.435,4.435,0,0,0,1.628-.28,3.483,3.483,0,0,0,1.208-.768,3.257,3.257,0,0,0,.748-1.148,3.861,3.861,0,0,0,.256-1.412,2.751,2.751,0,0,0-.236-1.2,2.529,2.529,0,0,0-.624-0.824,3.561,3.561,0,0,0-.88-0.556q-0.492-.219-1.008-0.4l-1.008-.34a4.724,4.724,0,0,1-.88-0.388,2.017,2.017,0,0,1-.624-0.54,1.294,1.294,0,0,1-.236-0.8,1.787,1.787,0,0,1,.136-0.7,1.56,1.56,0,0,1,.4-0.564,1.967,1.967,0,0,1,.668-0.38,2.788,2.788,0,0,1,.92-0.14,2.876,2.876,0,0,1,.94.136,3.737,3.737,0,0,1,.664.3,5.339,5.339,0,0,1,.456.3,0.551,0.551,0,0,0,.316.136,0.338,0.338,0,0,0,.208-0.06,0.625,0.625,0,0,0,.152-0.18Zm6.952,10.408v-6.04a3.237,3.237,0,0,1,.828-0.772,1.81,1.81,0,0,1,.98-0.284,1.391,1.391,0,0,1,1.144.48,2.274,2.274,0,0,1,.392,1.456v5.16h1.424v-5.16a2.351,2.351,0,0,1,.14-0.844,1.708,1.708,0,0,1,.38-0.6,1.611,1.611,0,0,1,.556-0.364,1.826,1.826,0,0,1,.668-0.124,1.493,1.493,0,0,1,1.208.492,2.187,2.187,0,0,1,.416,1.444v5.16h1.424v-5.16a4.265,4.265,0,0,0-.184-1.308,2.668,2.668,0,0,0-.532-0.964,2.263,2.263,0,0,0-.848-0.6,2.994,2.994,0,0,0-1.14-.2,3.269,3.269,0,0,0-.788.1,2.638,2.638,0,0,0-.732.3,2.6,2.6,0,0,0-.62.528,2.549,2.549,0,0,0-.444.76,2.562,2.562,0,0,0-.732-1.232,1.92,1.92,0,0,0-1.332-.456,2.369,2.369,0,0,0-1.292.352,4.164,4.164,0,0,0-1,.9l-0.1-.832a0.363,0.363,0,0,0-.384-0.3h-0.848v8.1h1.424Zm11.384-8.1v5.168a4.305,4.305,0,0,0,.172,1.256,2.635,2.635,0,0,0,.516.968,2.307,2.307,0,0,0,.852.62,2.921,2.921,0,0,0,1.172.22,3.107,3.107,0,0,0,1.5-.356,4.443,4.443,0,0,0,1.184-.94l0.112,0.872a0.362,0.362,0,0,0,.384.3h0.848v-8.1h-1.424v5.976a3.647,3.647,0,0,1-1.016.824,2.444,2.444,0,0,1-1.176.3,1.578,1.578,0,0,1-1.28-.5,2.147,2.147,0,0,1-.424-1.424v-5.168h-1.424Zm14.152,0.816a3.4,3.4,0,0,0-1.1-.692,3.873,3.873,0,0,0-1.436-.252,3.615,3.615,0,0,0-1.224.192,2.758,2.758,0,0,0-.9.516,2.195,2.195,0,0,0-.56.752,2.159,2.159,0,0,0-.192.892,1.976,1.976,0,0,0,.18.884,1.864,1.864,0,0,0,.476.612,2.7,2.7,0,0,0,.676.412q0.379,0.165.776,0.292t0.776,0.244a3.932,3.932,0,0,1,.676.272,1.533,1.533,0,0,1,.476.376,0.85,0.85,0,0,1,.18.556,1.309,1.309,0,0,1-.1.512,1.151,1.151,0,0,1-.308.424,1.527,1.527,0,0,1-.52.292,2.227,2.227,0,0,1-.728.108,2.508,2.508,0,0,1-.812-0.112,2.921,2.921,0,0,1-.552-0.248q-0.228-.135-0.388-0.248a0.542,0.542,0,0,0-.3-0.112,0.431,0.431,0,0,0-.232.056,0.5,0.5,0,0,0-.152.16l-0.336.544a3.888,3.888,0,0,0,1.168.708,4.1,4.1,0,0,0,1.536.276,3.954,3.954,0,0,0,1.312-.2,2.843,2.843,0,0,0,.96-0.548,2.255,2.255,0,0,0,.592-0.824,2.65,2.65,0,0,0,.2-1.036,1.8,1.8,0,0,0-.18-0.836,1.834,1.834,0,0,0-.476-0.588,2.8,2.8,0,0,0-.672-0.4c-0.251-.106-0.508-0.2-0.772-0.292s-0.521-.17-0.772-0.248a4.037,4.037,0,0,1-.672-0.268,1.558,1.558,0,0,1-.476-0.36,0.765,0.765,0,0,1-.18-0.52,1,1,0,0,1,.108-0.46,1.121,1.121,0,0,1,.312-0.372,1.584,1.584,0,0,1,.492-0.252,2.135,2.135,0,0,1,.648-0.092,2.515,2.515,0,0,1,.72.092,3.568,3.568,0,0,1,.524.2c0.147,0.072.271,0.138,0.372,0.2a0.552,0.552,0,0,0,.272.088,0.315,0.315,0,0,0,.3-0.176Zm5.568,7.22a2.625,2.625,0,0,0,.888-0.54l-0.416-.68a0.247,0.247,0,0,0-.2-0.136,0.266,0.266,0,0,0-.148.06q-0.084.06-.2,0.132a1.677,1.677,0,0,1-.284.132,1.13,1.13,0,0,1-.388.06,0.864,0.864,0,0,1-.64-0.248,1.034,1.034,0,0,1-.248-0.76V396.04h2.32v-1.032h-2.32v-2.792h-0.72a0.334,0.334,0,0,0-.224.076,0.3,0.3,0,0,0-.1.2l-0.328,2.5-1.328.168v0.568a0.293,0.293,0,0,0,.088.236,0.318,0.318,0,0,0,.216.076h0.976V401a2.138,2.138,0,0,0,.516,1.544,1.951,1.951,0,0,0,1.476.536A3.009,3.009,0,0,0,256.387,402.884Zm8.424-5.116a4.025,4.025,0,0,0-.184-1.248,2.656,2.656,0,0,0-.544-0.968,2.494,2.494,0,0,0-.888-0.624,3.076,3.076,0,0,0-1.208-.224,4.477,4.477,0,0,0-1.72.32,4.643,4.643,0,0,0-1.448.968l0.256,0.456a0.573,0.573,0,0,0,.172.188,0.424,0.424,0,0,0,.252.076,0.645,0.645,0,0,0,.372-0.132c0.125-.088.275-0.186,0.448-0.3a3.337,3.337,0,0,1,.616-0.3,2.533,2.533,0,0,1,.876-0.132,1.466,1.466,0,0,1,1.2.487,2.208,2.208,0,0,1,.4,1.437v0.636a10.493,10.493,0,0,0-2.328.221,5.533,5.533,0,0,0-1.54.566,2.323,2.323,0,0,0-.852.791,1.793,1.793,0,0,0-.264.927,2.348,2.348,0,0,0,.18.959,1.883,1.883,0,0,0,.484.67,2,2,0,0,0,.716.4,2.881,2.881,0,0,0,.884.132,4.13,4.13,0,0,0,.844-0.08,3.3,3.3,0,0,0,.716-0.236,3.583,3.583,0,0,0,.64-0.384q0.3-.228.624-0.516l0.16,0.752a0.354,0.354,0,0,0,.168.272,0.748,0.748,0,0,0,.336.064h0.632v-5.184Zm-4.216,4.244a1.109,1.109,0,0,1-.416-0.217,1.058,1.058,0,0,1-.28-0.383,1.357,1.357,0,0,1-.1-0.555,1.021,1.021,0,0,1,.2-0.611,1.557,1.557,0,0,1,.628-0.475,4.662,4.662,0,0,1,1.12-.326,9.564,9.564,0,0,1,1.672-.125v1.672a4.507,4.507,0,0,1-.492.456,3.056,3.056,0,0,1-.528.34,2.647,2.647,0,0,1-.588.216,2.888,2.888,0,0,1-.688.076A1.912,1.912,0,0,1,260.6,402.012Zm9.792,0.872a2.625,2.625,0,0,0,.888-0.54l-0.416-.68a0.247,0.247,0,0,0-.2-0.136,0.266,0.266,0,0,0-.148.06q-0.084.06-.2,0.132a1.677,1.677,0,0,1-.284.132,1.13,1.13,0,0,1-.388.06,0.864,0.864,0,0,1-.64-0.248,1.034,1.034,0,0,1-.248-0.76V396.04h2.32v-1.032h-2.32v-2.792h-0.72a0.334,0.334,0,0,0-.224.076,0.3,0.3,0,0,0-.1.2l-0.328,2.5-1.328.168v0.568a0.293,0.293,0,0,0,.088.236,0.318,0.318,0,0,0,.216.076h0.976V401a2.138,2.138,0,0,0,.516,1.544,1.951,1.951,0,0,0,1.476.536A3.009,3.009,0,0,0,270.387,402.884Zm2.632-8.036v8.1h1.424v-8.1h-1.424Zm1.66-2.94a1.1,1.1,0,0,0-.224-0.328,1.05,1.05,0,0,0-.324-0.22,0.978,0.978,0,0,0-.392-0.08,0.949,0.949,0,0,0-.388.08,1.069,1.069,0,0,0-.32.22,1.039,1.039,0,0,0-.22.328,1.012,1.012,0,0,0-.08.4,0.949,0.949,0,0,0,.08.388,1.051,1.051,0,0,0,.22.32,1.033,1.033,0,0,0,.32.22,0.933,0.933,0,0,0,.388.08,0.961,0.961,0,0,0,.392-0.08,1.016,1.016,0,0,0,.324-0.22,1.119,1.119,0,0,0,.224-0.32,0.905,0.905,0,0,0,.084-0.388A0.965,0.965,0,0,0,274.679,391.908Zm3.856,3.108a3.441,3.441,0,0,0-1.22.84,3.738,3.738,0,0,0-.776,1.316,5.612,5.612,0,0,0,0,3.452,3.729,3.729,0,0,0,.776,1.312,3.368,3.368,0,0,0,1.22.836,4.552,4.552,0,0,0,3.208,0,3.328,3.328,0,0,0,1.216-.836,3.728,3.728,0,0,0,.768-1.312,5.692,5.692,0,0,0,0-3.452,3.738,3.738,0,0,0-.768-1.316,3.4,3.4,0,0,0-1.216-.84A4.494,4.494,0,0,0,278.535,395.016Zm0.548,6.728a1.98,1.98,0,0,1-.748-0.6,2.623,2.623,0,0,1-.448-0.956,5.1,5.1,0,0,1-.148-1.288,5.156,5.156,0,0,1,.148-1.292,2.678,2.678,0,0,1,.448-0.964,1.98,1.98,0,0,1,.748-0.6,2.5,2.5,0,0,1,1.056-.208,2.078,2.078,0,0,1,1.792.808,4.572,4.572,0,0,1,0,4.5,2.081,2.081,0,0,1-1.792.8A2.484,2.484,0,0,1,279.083,401.744Zm8.2,1.208v-5.968a3.906,3.906,0,0,1,1.012-.824,2.4,2.4,0,0,1,1.18-.3,1.572,1.572,0,0,1,1.284.508,2.182,2.182,0,0,1,.42,1.428v5.16H292.6v-5.16a4.246,4.246,0,0,0-.176-1.256,2.757,2.757,0,0,0-.516-0.972,2.275,2.275,0,0,0-.848-0.624,2.938,2.938,0,0,0-1.172-.22,3.069,3.069,0,0,0-1.508.36,4.556,4.556,0,0,0-1.18.944l-0.112-.88a0.363,0.363,0,0,0-.384-0.3h-0.848v8.1h1.424Zm12.844-11.38a3.478,3.478,0,0,0-1.128.62,3.312,3.312,0,0,0-.812,1.012,4.24,4.24,0,0,0-.432,1.388l0.744,0.128c0.037,0.006.071,0.01,0.1,0.012a0.813,0.813,0,0,0,.084,0,0.511,0.511,0,0,0,.336-0.1,0.639,0.639,0,0,0,.192-0.336,2.1,2.1,0,0,1,.276-0.688,2.138,2.138,0,0,1,1.132-.9,2.427,2.427,0,0,1,.8-0.128,2.585,2.585,0,0,1,.808.124,1.861,1.861,0,0,1,.656.372,1.718,1.718,0,0,1,.44.628,2.26,2.26,0,0,1,.16.884,3.055,3.055,0,0,1-.144.948,3.991,3.991,0,0,1-.412.876,6.48,6.48,0,0,1-.644.86q-0.377.429-.832,0.892l-3.672,3.688a0.836,0.836,0,0,0-.2.3,0.888,0.888,0,0,0-.06.312v0.488h7.648v-0.864a0.476,0.476,0,0,0-.136-0.352,0.5,0.5,0,0,0-.368-0.136h-3.84a4.119,4.119,0,0,0-.632.052,6.173,6.173,0,0,0-.648.14l3.016-3.088q0.48-.488.908-0.956a7.681,7.681,0,0,0,.756-0.968,4.8,4.8,0,0,0,.52-1.044,3.53,3.53,0,0,0,.192-1.184,3.269,3.269,0,0,0-.264-1.344,2.937,2.937,0,0,0-.724-1,3.151,3.151,0,0,0-1.092-.628,4.178,4.178,0,0,0-1.36-.216A4.321,4.321,0,0,0,300.127,391.572Zm14.04,3.044a5.493,5.493,0,0,0-.884-1.828,3.547,3.547,0,0,0-1.324-1.076,3.978,3.978,0,0,0-3.272,0,3.563,3.563,0,0,0-1.316,1.076,5.433,5.433,0,0,0-.88,1.828,10.771,10.771,0,0,0,0,5.212,5.38,5.38,0,0,0,.88,1.82,3.561,3.561,0,0,0,1.316,1.072,3.978,3.978,0,0,0,3.272,0,3.546,3.546,0,0,0,1.324-1.072,5.44,5.44,0,0,0,.884-1.82A10.642,10.642,0,0,0,314.167,394.616Zm-1.376,4.808a4.42,4.42,0,0,1-.592,1.432,2.232,2.232,0,0,1-.86.78,2.3,2.3,0,0,1-2.032,0,2.2,2.2,0,0,1-.856-0.78,4.489,4.489,0,0,1-.588-1.432,11.13,11.13,0,0,1,0-4.4,4.5,4.5,0,0,1,.588-1.436,2.217,2.217,0,0,1,.856-0.78,2.3,2.3,0,0,1,2.032,0,2.248,2.248,0,0,1,.86.78,4.436,4.436,0,0,1,.592,1.436A11.13,11.13,0,0,1,312.791,399.424Zm2.7-.664h3.952v-1.208h-3.952v1.208Zm8.788-7.188a3.478,3.478,0,0,0-1.128.62,3.312,3.312,0,0,0-.812,1.012,4.24,4.24,0,0,0-.432,1.388l0.744,0.126,0.1,0.012a0.813,0.813,0,0,0,.084,0,0.505,0.505,0,0,0,.328-0.1,0.639,0.639,0,0,0,.192-0.336,2.551,2.551,0,0,1,.288-0.683,2.082,2.082,0,0,1,.476-0.543,2.163,2.163,0,0,1,.652-0.356,2.427,2.427,0,0,1,.8-0.128,2.6,2.6,0,0,1,.8.12,1.788,1.788,0,0,1,.644.36,1.667,1.667,0,0,1,.428.608,2.207,2.207,0,0,1,.156.864,2.16,2.16,0,0,1-.148.816,1.538,1.538,0,0,1-.476.632,2.422,2.422,0,0,1-.844.416,4.42,4.42,0,0,1-1.244.152v1.04a5.609,5.609,0,0,1,1.468.16,2.323,2.323,0,0,1,.9.44,1.464,1.464,0,0,1,.448.664,2.74,2.74,0,0,1,.124.848,2.059,2.059,0,0,1-.152.76,2.123,2.123,0,0,1-.452.7,2.286,2.286,0,0,1-.752.508,2.619,2.619,0,0,1-1.052.2,2.5,2.5,0,0,1-1-.176,2.323,2.323,0,0,1-.676-0.432,2.218,2.218,0,0,1-.432-0.548c-0.107-.194-0.2-0.369-0.272-0.524-0.011-.026-0.021-0.052-0.032-0.076s-0.021-.046-0.032-0.068a0.436,0.436,0,0,0-.188-0.212,0.585,0.585,0,0,0-.284-0.068,0.847,0.847,0,0,0-.336.072l-0.608.256a7.049,7.049,0,0,0,.488,1.188,3.319,3.319,0,0,0,.736.948,3.233,3.233,0,0,0,1.1.628,4.72,4.72,0,0,0,1.56.228,4.575,4.575,0,0,0,1.484-.236,3.669,3.669,0,0,0,1.212-.68,3.192,3.192,0,0,0,.82-1.076,3.279,3.279,0,0,0,.3-1.424,2.682,2.682,0,0,0-.564-1.744,3.114,3.114,0,0,0-1.684-.992,3.442,3.442,0,0,0,.824-0.36,2.385,2.385,0,0,0,.628-0.548,2.355,2.355,0,0,0,.4-0.752A3.128,3.128,0,0,0,329,394.3a2.887,2.887,0,0,0-.248-1.208,2.684,2.684,0,0,0-.692-0.928,3.133,3.133,0,0,0-1.06-.592,4.2,4.2,0,0,0-1.344-.208A4.321,4.321,0,0,0,324.279,391.572Zm13.888,3.044a5.493,5.493,0,0,0-.884-1.828,3.547,3.547,0,0,0-1.324-1.076,3.978,3.978,0,0,0-3.272,0,3.563,3.563,0,0,0-1.316,1.076,5.433,5.433,0,0,0-.88,1.828,10.771,10.771,0,0,0,0,5.212,5.38,5.38,0,0,0,.88,1.82,3.561,3.561,0,0,0,1.316,1.072,3.978,3.978,0,0,0,3.272,0,3.546,3.546,0,0,0,1.324-1.072,5.44,5.44,0,0,0,.884-1.82A10.642,10.642,0,0,0,338.167,394.616Zm-1.376,4.808a4.42,4.42,0,0,1-.592,1.432,2.232,2.232,0,0,1-.86.78,2.3,2.3,0,0,1-2.032,0,2.2,2.2,0,0,1-.856-0.78,4.489,4.489,0,0,1-.588-1.432,11.13,11.13,0,0,1,0-4.4,4.5,4.5,0,0,1,.588-1.436,2.217,2.217,0,0,1,.856-0.78,2.3,2.3,0,0,1,2.032,0,2.248,2.248,0,0,1,.86.78,4.436,4.436,0,0,1,.592,1.436A11.13,11.13,0,0,1,336.791,399.424Zm7.36-6.392a2.668,2.668,0,0,0-.536-0.9,2.255,2.255,0,0,0-.808-0.56,2.62,2.62,0,0,0-1-.192,2.581,2.581,0,0,0-1,.192,2.3,2.3,0,0,0-.8.56,2.59,2.59,0,0,0-.536.9,3.623,3.623,0,0,0-.192,1.224,3.529,3.529,0,0,0,.192,1.2,2.536,2.536,0,0,0,.536.9,2.318,2.318,0,0,0,.8.556,2.581,2.581,0,0,0,1,.192,2.506,2.506,0,0,0,.968-0.192,2.359,2.359,0,0,0,.812-0.556,2.7,2.7,0,0,0,.556-0.9,3.276,3.276,0,0,0,.208-1.2A3.548,3.548,0,0,0,344.151,393.032Zm-1.028,2.108a1.63,1.63,0,0,1-.308.592,1.132,1.132,0,0,1-.456.328,1.6,1.6,0,0,1-1.112,0,1.1,1.1,0,0,1-.452-0.328,1.623,1.623,0,0,1-.3-0.592,3.135,3.135,0,0,1-.108-0.884,3.221,3.221,0,0,1,.108-0.9,1.717,1.717,0,0,1,.3-0.6,1.122,1.122,0,0,1,.452-0.34,1.538,1.538,0,0,1,1.112,0,1.154,1.154,0,0,1,.456.34,1.725,1.725,0,0,1,.308.6,3.1,3.1,0,0,1,.112.9A3.019,3.019,0,0,1,343.123,395.14Zm-3.1,7.812h1.056a0.521,0.521,0,0,0,.264-0.064,0.617,0.617,0,0,0,.192-0.168l8.376-11.232h-1.024a0.559,0.559,0,0,0-.308.076,0.929,0.929,0,0,0-.22.212Zm10.472-3.932a2.581,2.581,0,0,0-.536-0.908,2.3,2.3,0,0,0-.808-0.56,2.711,2.711,0,0,0-2,0,2.3,2.3,0,0,0-.8.56,2.581,2.581,0,0,0-.536.908,3.655,3.655,0,0,0-.192,1.228,3.5,3.5,0,0,0,.192,1.2,2.545,2.545,0,0,0,.536.892,2.318,2.318,0,0,0,.8.556,2.581,2.581,0,0,0,1,.192,2.479,2.479,0,0,0,.964-0.192,2.362,2.362,0,0,0,.808-0.556,2.709,2.709,0,0,0,.556-0.892,3.247,3.247,0,0,0,.208-1.2A3.655,3.655,0,0,0,350.491,399.02Zm-1.024,2.108a1.635,1.635,0,0,1-.308.588,1.132,1.132,0,0,1-.456.328,1.6,1.6,0,0,1-1.112,0,1.1,1.1,0,0,1-.452-0.328,1.627,1.627,0,0,1-.3-0.588,3.1,3.1,0,0,1-.108-0.88,3.261,3.261,0,0,1,.108-0.9,1.667,1.667,0,0,1,.3-0.6,1.139,1.139,0,0,1,.452-0.336,1.538,1.538,0,0,1,1.112,0,1.173,1.173,0,0,1,.456.336,1.674,1.674,0,0,1,.308.6,3.139,3.139,0,0,1,.112.9A2.981,2.981,0,0,1,349.467,401.128Z"/>
  <path id="EGFR_muation_5-15_" data-name="EGFR muation 5-15%" class="cls-5" d="M180.083,512.488v11.464h7.064v-1.264h-5.5v-3.912H186.1V517.56h-4.456v-3.808h5.5v-1.264h-7.064ZM192.5,522.512a3.739,3.739,0,0,1-1.328-.9,4.091,4.091,0,0,1-.868-1.444,5.69,5.69,0,0,1-.308-1.94,5.607,5.607,0,0,1,.3-1.876,4,4,0,0,1,.848-1.424,3.707,3.707,0,0,1,1.336-.9,4.664,4.664,0,0,1,1.752-.316,5.553,5.553,0,0,1,1.148.1,4.965,4.965,0,0,1,.84.252,3.924,3.924,0,0,1,.6.308c0.165,0.107.315,0.2,0.448,0.272a0.564,0.564,0,0,0,.28.088,0.405,0.405,0,0,0,.352-0.216l0.44-.7a5.633,5.633,0,0,0-.792-0.6,5.159,5.159,0,0,0-.924-0.456,5.963,5.963,0,0,0-1.084-.288,7.569,7.569,0,0,0-1.264-.1,6.633,6.633,0,0,0-2.428.424,5.142,5.142,0,0,0-3.024,3.048,6.658,6.658,0,0,0-.412,2.392,6.5,6.5,0,0,0,.42,2.376A5.447,5.447,0,0,0,190,522.452a5.259,5.259,0,0,0,1.792,1.2,5.942,5.942,0,0,0,2.288.428A10.6,10.6,0,0,0,195.4,524a7.3,7.3,0,0,0,1.14-.232,6.088,6.088,0,0,0,1-.388,6.3,6.3,0,0,0,.9-0.544v-4.4h-3.52v0.88a0.286,0.286,0,0,0,.092.216,0.337,0.337,0,0,0,.244.088h1.776v2.528a6.63,6.63,0,0,1-.608.284,4.87,4.87,0,0,1-.648.212,5.3,5.3,0,0,1-.732.132,7.449,7.449,0,0,1-.852.044A4.465,4.465,0,0,1,192.5,522.512Zm8.584-10.024v11.464h1.56v-4.928h4.7V517.76h-4.7v-4.008h5.5v-1.264h-7.064Zm11.88,6.68a1.069,1.069,0,0,1,.48.084,0.867,0.867,0,0,1,.3.276l2.976,4.1a0.677,0.677,0,0,0,.624.328h1.376l-3.344-4.552a1.639,1.639,0,0,0-.512-0.488,4.355,4.355,0,0,0,1.188-.448,3.331,3.331,0,0,0,.888-0.716,2.994,2.994,0,0,0,.556-0.948,3.3,3.3,0,0,0,.192-1.136,3.363,3.363,0,0,0-.248-1.316,2.548,2.548,0,0,0-.764-1,3.6,3.6,0,0,0-1.308-.636,7.109,7.109,0,0,0-1.88-.22h-3.24v11.464h1.544v-4.784h1.176Zm-1.176-5.456h1.7a3.272,3.272,0,0,1,2.012.52,1.827,1.827,0,0,1,.676,1.544,2.343,2.343,0,0,1-.176.92,1.916,1.916,0,0,1-.524.716,2.428,2.428,0,0,1-.864.464,3.934,3.934,0,0,1-1.2.164h-1.624v-4.328Zm12.5,10.24v-6.04a3.237,3.237,0,0,1,.828-0.772,1.81,1.81,0,0,1,.98-0.284,1.391,1.391,0,0,1,1.144.48,2.274,2.274,0,0,1,.392,1.456v5.16h1.424v-5.16a2.351,2.351,0,0,1,.14-0.844,1.708,1.708,0,0,1,.38-0.6,1.611,1.611,0,0,1,.556-0.364,1.826,1.826,0,0,1,.668-0.124,1.493,1.493,0,0,1,1.208.492,2.187,2.187,0,0,1,.416,1.444v5.16h1.424v-5.16a4.265,4.265,0,0,0-.184-1.308,2.668,2.668,0,0,0-.532-0.964,2.263,2.263,0,0,0-.848-0.6,2.994,2.994,0,0,0-1.14-.2,3.269,3.269,0,0,0-.788.1,2.638,2.638,0,0,0-.732.3,2.6,2.6,0,0,0-.62.528,2.549,2.549,0,0,0-.444.76,2.562,2.562,0,0,0-.732-1.232,1.92,1.92,0,0,0-1.332-.456,2.369,2.369,0,0,0-1.292.352,4.164,4.164,0,0,0-1,.9l-0.1-.832a0.363,0.363,0,0,0-.384-0.3h-0.848v8.1h1.424Zm11.384-8.1v5.168a4.305,4.305,0,0,0,.172,1.256,2.635,2.635,0,0,0,.516.968,2.307,2.307,0,0,0,.852.62,2.921,2.921,0,0,0,1.172.22,3.107,3.107,0,0,0,1.5-.356,4.443,4.443,0,0,0,1.184-.94l0.112,0.872a0.362,0.362,0,0,0,.384.3h0.848v-8.1h-1.424v5.976a3.647,3.647,0,0,1-1.016.824,2.444,2.444,0,0,1-1.176.3,1.578,1.578,0,0,1-1.28-.5,2.147,2.147,0,0,1-.424-1.424v-5.168h-1.424Zm15.144,2.92a4.025,4.025,0,0,0-.184-1.248,2.656,2.656,0,0,0-.544-0.968,2.494,2.494,0,0,0-.888-0.624,3.076,3.076,0,0,0-1.208-.224,4.477,4.477,0,0,0-1.72.32,4.643,4.643,0,0,0-1.448.968l0.256,0.456a0.573,0.573,0,0,0,.172.188,0.424,0.424,0,0,0,.252.076,0.645,0.645,0,0,0,.372-0.132c0.125-.088.275-0.186,0.448-0.3a3.337,3.337,0,0,1,.616-0.3,2.533,2.533,0,0,1,.876-0.132,1.466,1.466,0,0,1,1.2.487,2.208,2.208,0,0,1,.4,1.437v0.636a10.493,10.493,0,0,0-2.328.221,5.533,5.533,0,0,0-1.54.566,2.323,2.323,0,0,0-.852.791,1.793,1.793,0,0,0-.264.927,2.348,2.348,0,0,0,.18.959,1.883,1.883,0,0,0,.484.67,2,2,0,0,0,.716.4,2.881,2.881,0,0,0,.884.132,4.13,4.13,0,0,0,.844-0.08,3.3,3.3,0,0,0,.716-0.236,3.583,3.583,0,0,0,.64-0.384q0.3-.228.624-0.516l0.16,0.752a0.354,0.354,0,0,0,.168.272,0.748,0.748,0,0,0,.336.064h0.632v-5.184Zm-4.216,4.244a1.109,1.109,0,0,1-.416-0.217,1.058,1.058,0,0,1-.28-0.383,1.357,1.357,0,0,1-.1-0.555,1.021,1.021,0,0,1,.2-0.611,1.557,1.557,0,0,1,.628-0.475,4.662,4.662,0,0,1,1.12-.326,9.564,9.564,0,0,1,1.672-.125v1.672a4.507,4.507,0,0,1-.492.456,3.056,3.056,0,0,1-.528.34,2.647,2.647,0,0,1-.588.216,2.888,2.888,0,0,1-.688.076A1.912,1.912,0,0,1,246.6,523.012Zm9.792,0.872a2.625,2.625,0,0,0,.888-0.54l-0.416-.68a0.247,0.247,0,0,0-.2-0.136,0.266,0.266,0,0,0-.148.06q-0.084.06-.2,0.132a1.677,1.677,0,0,1-.284.132,1.13,1.13,0,0,1-.388.06,0.864,0.864,0,0,1-.64-0.248,1.034,1.034,0,0,1-.248-0.76V517.04h2.32v-1.032h-2.32v-2.792h-0.72a0.334,0.334,0,0,0-.224.076,0.3,0.3,0,0,0-.1.2l-0.328,2.5-1.328.168v0.568a0.293,0.293,0,0,0,.088.236,0.318,0.318,0,0,0,.216.076h0.976V522a2.138,2.138,0,0,0,.516,1.544,1.951,1.951,0,0,0,1.476.536A3.009,3.009,0,0,0,256.387,523.884Zm2.632-8.036v8.1h1.424v-8.1h-1.424Zm1.66-2.94a1.1,1.1,0,0,0-.224-0.328,1.05,1.05,0,0,0-.324-0.22,0.978,0.978,0,0,0-.392-0.08,0.949,0.949,0,0,0-.388.08,1.069,1.069,0,0,0-.32.22,1.039,1.039,0,0,0-.22.328,1.012,1.012,0,0,0-.08.4,0.949,0.949,0,0,0,.08.388,1.051,1.051,0,0,0,.22.32,1.033,1.033,0,0,0,.32.22,0.933,0.933,0,0,0,.388.08,0.961,0.961,0,0,0,.392-0.08,1.016,1.016,0,0,0,.324-0.22,1.119,1.119,0,0,0,.224-0.32,0.905,0.905,0,0,0,.084-0.388A0.965,0.965,0,0,0,260.679,512.908Zm3.856,3.108a3.441,3.441,0,0,0-1.22.84,3.738,3.738,0,0,0-.776,1.316,5.612,5.612,0,0,0,0,3.452,3.729,3.729,0,0,0,.776,1.312,3.368,3.368,0,0,0,1.22.836,4.552,4.552,0,0,0,3.208,0,3.328,3.328,0,0,0,1.216-.836,3.728,3.728,0,0,0,.768-1.312,5.692,5.692,0,0,0,0-3.452,3.738,3.738,0,0,0-.768-1.316,3.4,3.4,0,0,0-1.216-.84A4.494,4.494,0,0,0,264.535,516.016Zm0.548,6.728a1.98,1.98,0,0,1-.748-0.6,2.623,2.623,0,0,1-.448-0.956,5.1,5.1,0,0,1-.148-1.288,5.156,5.156,0,0,1,.148-1.292,2.678,2.678,0,0,1,.448-0.964,1.98,1.98,0,0,1,.748-0.6,2.5,2.5,0,0,1,1.056-.208,2.078,2.078,0,0,1,1.792.808,4.572,4.572,0,0,1,0,4.5,2.081,2.081,0,0,1-1.792.8A2.484,2.484,0,0,1,265.083,522.744Zm8.2,1.208v-5.968a3.906,3.906,0,0,1,1.012-.824,2.4,2.4,0,0,1,1.18-.3,1.572,1.572,0,0,1,1.284.508,2.182,2.182,0,0,1,.42,1.428v5.16H278.6v-5.16a4.246,4.246,0,0,0-.176-1.256,2.757,2.757,0,0,0-.516-0.972,2.275,2.275,0,0,0-.848-0.624,2.938,2.938,0,0,0-1.172-.22,3.069,3.069,0,0,0-1.508.36,4.556,4.556,0,0,0-1.18.944l-0.112-.88a0.363,0.363,0,0,0-.384-0.3h-0.848v8.1h1.424Zm17.232-11.464h-5.432l-0.928,5.36,0.9,0.264a6.354,6.354,0,0,1,.96-0.232,5.84,5.84,0,0,1,.9-0.072,3.294,3.294,0,0,1,1.1.168,2.175,2.175,0,0,1,.788.472,1.9,1.9,0,0,1,.472.736,2.837,2.837,0,0,1,.156.968,3.167,3.167,0,0,1-.184,1.112,2.445,2.445,0,0,1-.524.852,2.292,2.292,0,0,1-.82.548,2.886,2.886,0,0,1-1.08.192,3.044,3.044,0,0,1-.924-0.124,4.049,4.049,0,0,1-.676-0.276q-0.288-.152-0.492-0.276a0.721,0.721,0,0,0-.356-0.124,0.447,0.447,0,0,0-.384.208l-0.432.608a4.321,4.321,0,0,0,.608.456,5.1,5.1,0,0,0,.744.384,4.847,4.847,0,0,0,.864.268,4.559,4.559,0,0,0,.968.1,4.61,4.61,0,0,0,1.624-.28,3.82,3.82,0,0,0,1.308-.8,3.763,3.763,0,0,0,.876-1.26,4.1,4.1,0,0,0,.32-1.648,3.914,3.914,0,0,0-.236-1.376,3.036,3.036,0,0,0-.7-1.1,3.257,3.257,0,0,0-1.148-.728,4.371,4.371,0,0,0-1.58-.264,7.937,7.937,0,0,0-1.656.192l0.528-3.008h3.6a0.883,0.883,0,0,0,.648-0.2,0.683,0.683,0,0,0,.192-0.5v-0.624Zm1.976,7.272h3.952v-1.208h-3.952v1.208Zm7.5,4.192h6.144v-1.088h-2.256v-10.4h-1.16l-3.408,2.952,0.448,0.616a0.387,0.387,0,0,0,.144.124,0.442,0.442,0,0,0,.216.052,0.45,0.45,0,0,0,.152-0.028,0.527,0.527,0,0,0,.16-0.092l2.048-1.752c-0.016.24-.024,0.478-0.024,0.712v7.816h-2.464v1.088Zm14.528-11.464h-5.432l-0.928,5.36,0.9,0.264a6.354,6.354,0,0,1,.96-0.232,5.84,5.84,0,0,1,.9-0.072,3.294,3.294,0,0,1,1.1.168,2.175,2.175,0,0,1,.788.472,1.9,1.9,0,0,1,.472.736,2.837,2.837,0,0,1,.156.968,3.167,3.167,0,0,1-.184,1.112,2.445,2.445,0,0,1-.524.852,2.292,2.292,0,0,1-.82.548,2.886,2.886,0,0,1-1.08.192,3.044,3.044,0,0,1-.924-0.124,4.049,4.049,0,0,1-.676-0.276q-0.288-.152-0.492-0.276a0.721,0.721,0,0,0-.356-0.124,0.447,0.447,0,0,0-.384.208l-0.432.608a4.321,4.321,0,0,0,.608.456,5.1,5.1,0,0,0,.744.384,4.847,4.847,0,0,0,.864.268,4.559,4.559,0,0,0,.968.1,4.61,4.61,0,0,0,1.624-.28,3.82,3.82,0,0,0,1.308-.8,3.763,3.763,0,0,0,.876-1.26,4.1,4.1,0,0,0,.32-1.648,3.914,3.914,0,0,0-.236-1.376,3.036,3.036,0,0,0-.7-1.1,3.257,3.257,0,0,0-1.148-.728,4.371,4.371,0,0,0-1.58-.264,7.937,7.937,0,0,0-1.656.192l0.528-3.008h3.6a0.883,0.883,0,0,0,.648-0.2,0.683,0.683,0,0,0,.192-0.5v-0.624Zm6.636,1.544a2.668,2.668,0,0,0-.536-0.9,2.255,2.255,0,0,0-.808-0.56,2.62,2.62,0,0,0-1-.192,2.581,2.581,0,0,0-1,.192,2.3,2.3,0,0,0-.8.56,2.59,2.59,0,0,0-.536.9,3.623,3.623,0,0,0-.192,1.224,3.529,3.529,0,0,0,.192,1.2,2.536,2.536,0,0,0,.536.9,2.318,2.318,0,0,0,.8.556,2.581,2.581,0,0,0,1,.192,2.506,2.506,0,0,0,.968-0.192,2.359,2.359,0,0,0,.812-0.556,2.7,2.7,0,0,0,.556-0.9,3.276,3.276,0,0,0,.208-1.2A3.548,3.548,0,0,0,321.151,514.032Zm-1.028,2.108a1.63,1.63,0,0,1-.308.592,1.132,1.132,0,0,1-.456.328,1.6,1.6,0,0,1-1.112,0,1.1,1.1,0,0,1-.452-0.328,1.623,1.623,0,0,1-.3-0.592,3.135,3.135,0,0,1-.108-0.884,3.221,3.221,0,0,1,.108-0.9,1.717,1.717,0,0,1,.3-0.6,1.122,1.122,0,0,1,.452-0.34,1.538,1.538,0,0,1,1.112,0,1.154,1.154,0,0,1,.456.34,1.725,1.725,0,0,1,.308.6,3.1,3.1,0,0,1,.112.9A3.019,3.019,0,0,1,320.123,516.14Zm-3.1,7.812h1.056a0.521,0.521,0,0,0,.264-0.064,0.617,0.617,0,0,0,.192-0.168l8.376-11.232h-1.024a0.559,0.559,0,0,0-.308.076,0.929,0.929,0,0,0-.22.212Zm10.472-3.932a2.581,2.581,0,0,0-.536-0.908,2.3,2.3,0,0,0-.808-0.56,2.711,2.711,0,0,0-2,0,2.3,2.3,0,0,0-.8.56,2.581,2.581,0,0,0-.536.908,3.655,3.655,0,0,0-.192,1.228,3.5,3.5,0,0,0,.192,1.2,2.545,2.545,0,0,0,.536.892,2.318,2.318,0,0,0,.8.556,2.581,2.581,0,0,0,1,.192,2.479,2.479,0,0,0,.964-0.192,2.362,2.362,0,0,0,.808-0.556,2.709,2.709,0,0,0,.556-0.892,3.247,3.247,0,0,0,.208-1.2A3.655,3.655,0,0,0,327.491,520.02Zm-1.024,2.108a1.635,1.635,0,0,1-.308.588,1.132,1.132,0,0,1-.456.328,1.6,1.6,0,0,1-1.112,0,1.1,1.1,0,0,1-.452-0.328,1.627,1.627,0,0,1-.3-0.588,3.1,3.1,0,0,1-.108-0.88,3.261,3.261,0,0,1,.108-0.9,1.667,1.667,0,0,1,.3-0.6,1.139,1.139,0,0,1,.452-0.336,1.538,1.538,0,0,1,1.112,0,1.173,1.173,0,0,1,.456.336,1.674,1.674,0,0,1,.308.6,3.139,3.139,0,0,1,.112.9A2.981,2.981,0,0,1,326.467,522.128Z"/>
  <rect id="Background-9" data-name="Background" class="cls-1" y="10" width="165" height="2.688"/>
</svg>
