<svg id="Graph" xmlns="http://www.w3.org/2000/svg" width="716" height="134" viewBox="0 0 716 134">
  <defs>
    <style>
      .cls-1 {
        fill: #5addbe;
      }

      .cls-1, .cls-2 {
        fill-rule: evenodd;
      }

      .cls-2 {
        fill: #89b7b5;
      }
    </style>
  </defs>
  <path id="Icon" class="cls-1" d="M31.187,12a10.023,10.023,0,1,1-10.1,10.023A10.06,10.06,0,0,1,31.187,12Zm31.158,64.25C59.5,44.5,44.249,38.16,44.249,38.16A28.386,28.386,0,0,0,14,40.567C3.942,49.652,1.62,63.522.03,76.918c-0.8,6.806,9.924,6.726,10.72,0,0.949-8,2.3-16.026,6.3-22.865L17.033,61.77,16.96,98.858v29.425a5.565,5.565,0,0,0,5.617,5.73,5.841,5.841,0,0,0,5.939-5.73V86.225h5.249v42.194c0,6.861,10.719,6.861,10.719,0V98.858L44.94,61.7c0-3.546.009-6.716,0.009-8.921,4.284,6.966,5.7,15.24,6.673,23.474C52.423,82.978,63.149,83.059,62.346,76.253Z"/>
  <path id="Icon-2" data-name="Icon" class="cls-2" d="M103.812,12a10.023,10.023,0,1,1-10.1,10.023A10.06,10.06,0,0,1,103.812,12Zm31.158,64.25c-2.848-31.757-18.1-38.092-18.1-38.092a28.385,28.385,0,0,0-30.249,2.407c-10.058,9.085-12.38,22.955-13.969,36.351-0.8,6.806,9.924,6.726,10.72,0,0.95-8,2.3-16.026,6.3-22.865L89.658,61.77,89.585,98.858v29.425a5.565,5.565,0,0,0,5.617,5.73,5.841,5.841,0,0,0,5.939-5.73V86.225h5.249v42.194c0,6.861,10.72,6.861,10.72,0V98.858L117.564,61.7c0.005-3.546.009-6.716,0.009-8.921,4.284,6.966,5.7,15.24,6.674,23.474C125.048,82.978,135.774,83.059,134.97,76.253Z"/>
  <path id="Icon_copy" data-name="Icon copy" class="cls-1" d="M124.247,76.25c-0.977-8.234-2.39-16.509-6.674-23.474,0,2.2,0,5.374-.009,8.921L117.132,97H106.39V86.225h-5.249V97H89.589l0.069-35.23,0.019-7.718c-4,6.839-5.353,14.87-6.3,22.865-0.8,6.726-11.525,6.806-10.72,0,1.59-13.4,3.912-27.266,13.969-36.35a28.385,28.385,0,0,1,30.249-2.407s15.249,6.335,18.1,38.092C135.774,83.059,125.048,82.978,124.247,76.25Zm-20.435-44.2a10.023,10.023,0,1,1,10.1-10.022A10.06,10.06,0,0,1,103.812,32.048ZM95.466,134c-0.088,0-.175.013-0.264,0.013-0.045,0-.086-0.012-0.131-0.013h0.395Z"/>
  <path id="Icon-3" data-name="Icon" class="cls-2" d="M175.4,12a10.023,10.023,0,1,1-10.1,10.023A10.06,10.06,0,0,1,175.4,12Zm31.158,64.25c-2.848-31.757-18.1-38.092-18.1-38.092a28.385,28.385,0,0,0-30.249,2.407c-10.058,9.085-12.38,22.955-13.969,36.351-0.8,6.806,9.923,6.726,10.72,0,0.949-8,2.3-16.026,6.3-22.865l-0.019,7.718-0.073,37.088v29.425a5.565,5.565,0,0,0,5.617,5.73,5.841,5.841,0,0,0,5.939-5.73V86.225h5.249v42.194c0,6.861,10.72,6.861,10.72,0V98.858L189.151,61.7c0-3.546.009-6.716,0.009-8.921,4.284,6.966,5.7,15.24,6.674,23.474C196.635,82.978,207.361,83.059,206.557,76.253Z"/>
  <path id="Icon-4" data-name="Icon" class="cls-2" d="M248.023,12a10.023,10.023,0,1,1-10.1,10.023A10.06,10.06,0,0,1,248.023,12Zm31.159,64.25c-2.849-31.757-18.1-38.092-18.1-38.092a28.387,28.387,0,0,0-30.25,2.407c-10.057,9.085-12.379,22.955-13.969,36.351-0.8,6.806,9.924,6.726,10.72,0,0.95-8,2.3-16.026,6.3-22.865l-0.02,7.718L233.8,98.858v29.425a5.565,5.565,0,0,0,5.618,5.73,5.84,5.84,0,0,0,5.938-5.73V86.225h5.25v42.194c0,6.861,10.719,6.861,10.719,0V98.858L261.776,61.7c0-3.546.009-6.716,0.009-8.921,4.284,6.966,5.7,15.24,6.673,23.474C269.259,82.978,279.985,83.059,279.182,76.253Z"/>
  <path id="Icon-5" data-name="Icon" class="cls-2" d="M319.61,12a10.023,10.023,0,1,1-10.1,10.023A10.06,10.06,0,0,1,319.61,12Zm31.159,64.25c-2.849-31.757-18.1-38.092-18.1-38.092a28.387,28.387,0,0,0-30.25,2.407c-10.057,9.085-12.379,22.955-13.969,36.351-0.8,6.806,9.924,6.726,10.72,0,0.95-8,2.3-16.026,6.3-22.865l-0.019,7.718-0.074,37.088v29.425a5.565,5.565,0,0,0,5.618,5.73,5.841,5.841,0,0,0,5.939-5.73V86.225h5.249v42.194c0,6.861,10.719,6.861,10.719,0V98.858L333.363,61.7c0-3.546.009-6.716,0.009-8.921,4.284,6.966,5.7,15.24,6.673,23.474C340.846,82.978,351.572,83.059,350.769,76.253Z"/>
  <path id="Icon-6" data-name="Icon" class="cls-2" d="M392.235,12a10.023,10.023,0,1,1-10.1,10.023A10.06,10.06,0,0,1,392.235,12Zm31.158,64.25C420.545,44.5,405.3,38.16,405.3,38.16a28.385,28.385,0,0,0-30.249,2.407c-10.058,9.085-12.38,22.955-13.969,36.351-0.8,6.806,9.923,6.726,10.72,0,0.949-8,2.3-16.026,6.3-22.865l-0.019,7.718-0.073,37.088v29.425a5.565,5.565,0,0,0,5.617,5.73,5.841,5.841,0,0,0,5.939-5.73V86.225h5.249v42.194c0,6.861,10.72,6.861,10.72,0V98.858L405.987,61.7c0-3.546.009-6.716,0.009-8.921,4.284,6.966,5.7,15.24,6.674,23.474C413.471,82.978,424.2,83.059,423.393,76.253Z"/>
  <path id="Icon-7" data-name="Icon" class="cls-2" d="M465.9,12a10.023,10.023,0,1,1-10.1,10.023A10.06,10.06,0,0,1,465.9,12Zm31.158,64.25c-2.848-31.757-18.1-38.092-18.1-38.092a28.385,28.385,0,0,0-30.249,2.407c-10.058,9.085-12.38,22.955-13.969,36.351-0.805,6.806,9.923,6.726,10.72,0,0.949-8,2.3-16.026,6.3-22.865l-0.019,7.718L451.67,98.858v29.425a5.565,5.565,0,0,0,5.617,5.73,5.841,5.841,0,0,0,5.939-5.73V86.225h5.249v42.194c0,6.861,10.72,6.861,10.72,0V98.858L479.649,61.7c0-3.546.009-6.716,0.009-8.921,4.284,6.966,5.7,15.24,6.674,23.474C487.133,82.978,497.859,83.059,497.055,76.253Z"/>
  <path id="Icon-8" data-name="Icon" class="cls-2" d="M538.521,12a10.023,10.023,0,1,1-10.1,10.023A10.061,10.061,0,0,1,538.521,12Zm31.159,64.25c-2.849-31.757-18.1-38.092-18.1-38.092a28.387,28.387,0,0,0-30.25,2.407c-10.057,9.085-12.379,22.955-13.969,36.351-0.8,6.806,9.924,6.726,10.72,0,0.95-8,2.3-16.026,6.3-22.865l-0.019,7.718-0.073,37.088v29.425a5.564,5.564,0,0,0,5.617,5.73,5.841,5.841,0,0,0,5.939-5.73V86.225H541.1v42.194c0,6.861,10.719,6.861,10.719,0V98.858L552.274,61.7c0-3.546.009-6.716,0.009-8.921,4.284,6.966,5.7,15.24,6.673,23.474C559.757,82.978,570.483,83.059,569.68,76.253Z"/>
  <path id="Icon-9" data-name="Icon" class="cls-2" d="M612.183,12a10.023,10.023,0,1,1-10.1,10.023A10.061,10.061,0,0,1,612.183,12Zm31.159,64.25c-2.849-31.757-18.1-38.092-18.1-38.092A28.387,28.387,0,0,0,595,40.567c-10.057,9.085-12.379,22.955-13.969,36.351-0.8,6.806,9.924,6.726,10.72,0,0.95-8,2.305-16.026,6.3-22.865L598.03,61.77l-0.073,37.088v29.425a5.564,5.564,0,0,0,5.617,5.73,5.841,5.841,0,0,0,5.939-5.73V86.225h5.249v42.194c0,6.861,10.719,6.861,10.719,0V98.858L625.936,61.7c0-3.546.009-6.716,0.009-8.921,4.284,6.966,5.7,15.24,6.673,23.474C633.419,82.978,644.145,83.059,643.342,76.253Z"/>
  <path id="Icon-10" data-name="Icon" class="cls-2" d="M684.808,12a10.023,10.023,0,1,1-10.1,10.023A10.06,10.06,0,0,1,684.808,12Zm31.158,64.25c-2.848-31.757-18.1-38.092-18.1-38.092a28.385,28.385,0,0,0-30.249,2.407c-10.058,9.085-12.38,22.955-13.969,36.351-0.8,6.806,9.924,6.726,10.72,0,0.949-8,2.3-16.026,6.3-22.865l-0.019,7.718-0.073,37.088v29.425a5.565,5.565,0,0,0,5.617,5.73,5.841,5.841,0,0,0,5.939-5.73V86.225h5.249v42.194c0,6.861,10.72,6.861,10.72,0V98.858L698.56,61.7c0.005-3.546.009-6.716,0.009-8.921,4.284,6.966,5.7,15.24,6.674,23.474C706.044,82.978,716.77,83.059,715.966,76.253Z"/>
</svg>
