<svg id="Graph" xmlns="http://www.w3.org/2000/svg" width="796" height="464" viewBox="0 0 796 464">
  <defs>
    <style>
      .cls-1 {
        fill: #fff;
      }

      .cls-2, .cls-3 {
        fill: #b7b7b7;
      }

      .cls-3, .cls-4, .cls-5, .cls-6, .cls-7 {
        fill-rule: evenodd;
      }

      .cls-4 {
        fill: #d1d3d5;
      }

      .cls-5 {
        fill: #11a8b5;
      }

      .cls-6 {
        fill: none;
        stroke: #5addbe;
        stroke-linecap: round;
        stroke-width: 10px;
      }

      .cls-7 {
        fill: #707070;
      }
    </style>
  </defs>
  <rect id="Rectangle_599_copy_13" data-name="Rectangle 599 copy 13" class="cls-1" x="83" y="15" width="713" height="350"/>
  <rect class="cls-2" x="81" width="2" height="379"/>
  <rect id="Rectangle_599_copy_5" data-name="Rectangle 599 copy 5" class="cls-2" x="231" y="365" width="2" height="14"/>
  <rect id="Rectangle_599_copy_6" data-name="Rectangle 599 copy 6" class="cls-2" x="381" y="365" width="2" height="14"/>
  <rect id="Rectangle_599_copy_7" data-name="Rectangle 599 copy 7" class="cls-2" x="531" y="365" width="2" height="14"/>
  <rect id="Rectangle_599_copy_8" data-name="Rectangle 599 copy 8" class="cls-2" x="681" y="365" width="2" height="14"/>
  <path id="Rectangle_599_copy" data-name="Rectangle 599 copy" class="cls-3" d="M796,364v2H69v-2H796Z"/>
  <path id="Rectangle_599_copy_2" data-name="Rectangle 599 copy 2" class="cls-4" d="M796,294v2H69v-2H796Z"/>
  <path id="Rectangle_599_copy_3" data-name="Rectangle 599 copy 3" class="cls-4" d="M796,224v2H69v-2H796Z"/>
  <path id="Rectangle_599_copy_4" data-name="Rectangle 599 copy 4" class="cls-4" d="M796,154v2H69v-2H796Z"/>
  <path id="Rectangle_599_copy_14" data-name="Rectangle 599 copy 14" class="cls-4" d="M796,84v2H69V84H796Z"/>
  <path id="Rectangle_599_copy_15" data-name="Rectangle 599 copy 15" class="cls-4" d="M796,14v2H69V14H796Z"/>
  <path id="_0" data-name="0" class="cls-5" d="M86.044,392.169a6.172,6.172,0,0,0-.995-2.057,3.978,3.978,0,0,0-1.489-1.21,4.475,4.475,0,0,0-3.681,0,4,4,0,0,0-1.481,1.21,6.111,6.111,0,0,0-.99,2.057,12.116,12.116,0,0,0,0,5.863,6.062,6.062,0,0,0,.99,2.048,4.017,4.017,0,0,0,1.481,1.206,4.475,4.475,0,0,0,3.681,0,4,4,0,0,0,1.489-1.206,6.122,6.122,0,0,0,.995-2.048A11.971,11.971,0,0,0,86.044,392.169ZM84.5,397.578a4.971,4.971,0,0,1-.666,1.611,2.512,2.512,0,0,1-.968.877,2.589,2.589,0,0,1-2.286,0,2.481,2.481,0,0,1-.963-0.877,5.04,5.04,0,0,1-.662-1.611,12.524,12.524,0,0,1,0-4.955,5.036,5.036,0,0,1,.662-1.615,2.484,2.484,0,0,1,.963-0.878,2.6,2.6,0,0,1,2.286,0,2.515,2.515,0,0,1,.968.878,4.968,4.968,0,0,1,.666,1.615A12.524,12.524,0,0,1,84.5,397.578Z"/>
  <path id="_0.6" data-name="0.6" class="cls-5" d="M46.05,151.169a6.174,6.174,0,0,0-.995-2.057,3.98,3.98,0,0,0-1.489-1.21,4.475,4.475,0,0,0-3.681,0,4,4,0,0,0-1.48,1.21,6.108,6.108,0,0,0-.99,2.057,12.116,12.116,0,0,0,0,5.863,6.058,6.058,0,0,0,.99,2.048,4.016,4.016,0,0,0,1.48,1.206,4.475,4.475,0,0,0,3.681,0,4,4,0,0,0,1.489-1.206,6.124,6.124,0,0,0,.995-2.048A11.971,11.971,0,0,0,46.05,151.169ZM44.5,156.578a4.973,4.973,0,0,1-.666,1.611,2.513,2.513,0,0,1-.968.877,2.589,2.589,0,0,1-2.286,0,2.48,2.48,0,0,1-.963-0.877,5.035,5.035,0,0,1-.661-1.611,12.524,12.524,0,0,1,0-4.955,5.032,5.032,0,0,1,.661-1.615,2.483,2.483,0,0,1,.963-0.878,2.6,2.6,0,0,1,2.286,0,2.516,2.516,0,0,1,.968.878,4.97,4.97,0,0,1,.666,1.615A12.524,12.524,0,0,1,44.5,156.578ZM47.391,160a1.145,1.145,0,0,0,.234.356,1.042,1.042,0,0,0,.356.238,1.174,1.174,0,0,0,.882,0,1.094,1.094,0,0,0,.36-0.238A1.111,1.111,0,0,0,49.461,160a1.133,1.133,0,0,0,.085-0.445,1.146,1.146,0,0,0-.085-0.441,1.1,1.1,0,0,0-.239-0.36,1.157,1.157,0,0,0-.36-0.243,1.117,1.117,0,0,0-1.238.243,1.129,1.129,0,0,0-.234.36,1.142,1.142,0,0,0-.086.441A1.13,1.13,0,0,0,47.391,160Zm7.762-7.182a3.8,3.8,0,0,0-1.017.491l4.473-5.661H57.187a1.131,1.131,0,0,0-.513.112,1,1,0,0,0-.351.275l-3.267,4.4a9.137,9.137,0,0,0-1.2,2.052,4.9,4.9,0,0,0-.378,1.8,5.214,5.214,0,0,0,.3,1.822,3.882,3.882,0,0,0,.86,1.386,3.8,3.8,0,0,0,1.345.882,4.76,4.76,0,0,0,1.76.311,4.852,4.852,0,0,0,1.8-.324,4.173,4.173,0,0,0,1.4-.891,4.048,4.048,0,0,0,.9-1.332,4.2,4.2,0,0,0,.324-1.656,4.124,4.124,0,0,0-.306-1.634,3.482,3.482,0,0,0-2.043-1.953,4.193,4.193,0,0,0-1.467-.256A4,4,0,0,0,55.153,152.82Zm-1.93,2.727a2.578,2.578,0,0,1,.558-0.864,2.676,2.676,0,0,1,.886-0.594,2.979,2.979,0,0,1,1.17-.22,3.13,3.13,0,0,1,1.107.189,2.372,2.372,0,0,1,1.422,1.408,3.12,3.12,0,0,1,.2,1.139,2.918,2.918,0,0,1-.2,1.1,2.548,2.548,0,0,1-.576.873,2.645,2.645,0,0,1-.9.576,3.151,3.151,0,0,1-1.17.207,3.009,3.009,0,0,1-1.139-.2,2.356,2.356,0,0,1-.846-0.571,2.457,2.457,0,0,1-.526-0.882,3.4,3.4,0,0,1-.18-1.134A2.76,2.76,0,0,1,53.223,155.547Z"/>
  <path id="_0.8" data-name="0.8" class="cls-5" d="M46.05,81.169a6.172,6.172,0,0,0-.995-2.056,3.982,3.982,0,0,0-1.489-1.21,4.475,4.475,0,0,0-3.681,0,4,4,0,0,0-1.48,1.21,6.106,6.106,0,0,0-.99,2.057,12.118,12.118,0,0,0,0,5.864,6.055,6.055,0,0,0,.99,2.047,4.016,4.016,0,0,0,1.48,1.206,4.475,4.475,0,0,0,3.681,0,4,4,0,0,0,1.489-1.206,6.121,6.121,0,0,0,.995-2.047A11.973,11.973,0,0,0,46.05,81.169ZM44.5,86.578a4.973,4.973,0,0,1-.666,1.611,2.513,2.513,0,0,1-.968.877,2.593,2.593,0,0,1-2.286,0,2.48,2.48,0,0,1-.963-0.877,5.035,5.035,0,0,1-.661-1.611,12.521,12.521,0,0,1,0-4.954,5.036,5.036,0,0,1,.661-1.615,2.481,2.481,0,0,1,.963-0.878,2.593,2.593,0,0,1,2.286,0,2.515,2.515,0,0,1,.968.878,4.974,4.974,0,0,1,.666,1.615A12.521,12.521,0,0,1,44.5,86.578ZM47.391,90a1.143,1.143,0,0,0,.234.356,1.042,1.042,0,0,0,.356.239,1.18,1.18,0,0,0,.882,0,1.094,1.094,0,0,0,.36-0.239A1.109,1.109,0,0,0,49.461,90a1.192,1.192,0,0,0,0-.886,1.1,1.1,0,0,0-.239-0.36,1.157,1.157,0,0,0-.36-0.243,1.117,1.117,0,0,0-1.238.243,1.13,1.13,0,0,0-.234.36A1.192,1.192,0,0,0,47.391,90Zm10.093,0.432a4.035,4.035,0,0,0,1.372-.733,3.339,3.339,0,0,0,.891-1.157,3.543,3.543,0,0,0,.319-1.525,3.163,3.163,0,0,0-.648-2.047,3.534,3.534,0,0,0-1.854-1.148,3.138,3.138,0,0,0,1.53-1.129,3.068,3.068,0,0,0,.522-1.8,3.191,3.191,0,0,0-1.071-2.412,3.736,3.736,0,0,0-1.233-.72,5.006,5.006,0,0,0-3.19,0,3.744,3.744,0,0,0-1.229.72A3.191,3.191,0,0,0,51.823,80.9a2.93,2.93,0,0,0,2.052,2.925,3.534,3.534,0,0,0-1.854,1.148,3.163,3.163,0,0,0-.648,2.047,3.583,3.583,0,0,0,.315,1.525,3.264,3.264,0,0,0,.891,1.157,4.082,4.082,0,0,0,1.377.733A6.194,6.194,0,0,0,57.484,90.434Zm-2.894-1.2a2.4,2.4,0,0,1-.846-0.495,2.138,2.138,0,0,1-.531-0.765,2.55,2.55,0,0,1-.184-0.986,2.674,2.674,0,0,1,.22-1.139,2.094,2.094,0,0,1,.594-0.769,2.452,2.452,0,0,1,.86-0.436,3.777,3.777,0,0,1,2.034,0,2.454,2.454,0,0,1,.859.436,2.1,2.1,0,0,1,.594.769,2.677,2.677,0,0,1,.221,1.139,2.554,2.554,0,0,1-.184.986,2.143,2.143,0,0,1-.531.765,2.407,2.407,0,0,1-.846.495A3.722,3.722,0,0,1,54.591,89.237Zm0.054-6.21a2,2,0,0,1-.724-0.513,1.973,1.973,0,0,1-.405-0.733,2.916,2.916,0,0,1-.126-0.855,2.39,2.39,0,0,1,.148-0.846,1.952,1.952,0,0,1,.441-0.693,2.061,2.061,0,0,1,.729-0.468,3.083,3.083,0,0,1,2.025,0,2.064,2.064,0,0,1,.729.468,1.955,1.955,0,0,1,.441.693,2.39,2.39,0,0,1,.148.846,2.923,2.923,0,0,1-.126.855,1.979,1.979,0,0,1-.4.733,2,2,0,0,1-.725.513A3.086,3.086,0,0,1,54.645,83.027Z"/>
  <path id="_1.0" data-name="1.0" class="cls-5" d="M39.1,20.547h6.912V19.323H43.471V7.623h-1.3l-3.834,3.321,0.5,0.693a0.442,0.442,0,0,0,.162.139,0.5,0.5,0,0,0,.243.058,0.516,0.516,0,0,0,.171-0.031,0.617,0.617,0,0,0,.18-0.1l2.3-1.971q-0.027.4-.027,0.8v8.793H39.1v1.224ZM47.391,20a1.143,1.143,0,0,0,.234.355,1.042,1.042,0,0,0,.356.238,1.18,1.18,0,0,0,.882,0,1.094,1.094,0,0,0,.36-0.238A1.109,1.109,0,0,0,49.461,20a1.192,1.192,0,0,0,0-.887,1.1,1.1,0,0,0-.239-0.36,1.157,1.157,0,0,0-.36-0.243,1.117,1.117,0,0,0-1.238.243,1.13,1.13,0,0,0-.234.36A1.192,1.192,0,0,0,47.391,20Zm12.654-8.833a6.172,6.172,0,0,0-.995-2.057A3.983,3.983,0,0,0,57.561,7.9a4.475,4.475,0,0,0-3.681,0,4,4,0,0,0-1.48,1.21,6.106,6.106,0,0,0-.99,2.057,10.6,10.6,0,0,0-.36,2.934,10.55,10.55,0,0,0,.36,2.929,6.055,6.055,0,0,0,.99,2.047,4.016,4.016,0,0,0,1.48,1.206,4.475,4.475,0,0,0,3.681,0A4,4,0,0,0,59.05,19.08a6.121,6.121,0,0,0,.995-2.047,10.431,10.431,0,0,0,.364-2.929A10.48,10.48,0,0,0,60.045,11.169ZM58.5,16.578a4.973,4.973,0,0,1-.666,1.611,2.513,2.513,0,0,1-.968.878,2.593,2.593,0,0,1-2.286,0,2.48,2.48,0,0,1-.963-0.878,5.035,5.035,0,0,1-.661-1.611,10.477,10.477,0,0,1-.248-2.475,10.536,10.536,0,0,1,.248-2.479,5.036,5.036,0,0,1,.661-1.616,2.482,2.482,0,0,1,.963-0.878,2.593,2.593,0,0,1,2.286,0,2.515,2.515,0,0,1,.968.878,4.974,4.974,0,0,1,.666,1.616,10.547,10.547,0,0,1,.248,2.48A10.487,10.487,0,0,1,58.5,16.578Z"/>
  <path id="_0.4" data-name="0.4" class="cls-5" d="M46.05,221.169a6.174,6.174,0,0,0-.995-2.057,3.98,3.98,0,0,0-1.489-1.21,4.475,4.475,0,0,0-3.681,0,4,4,0,0,0-1.48,1.21,6.108,6.108,0,0,0-.99,2.057,12.116,12.116,0,0,0,0,5.863,6.058,6.058,0,0,0,.99,2.048,4.016,4.016,0,0,0,1.48,1.206,4.475,4.475,0,0,0,3.681,0,4,4,0,0,0,1.489-1.206,6.124,6.124,0,0,0,.995-2.048A11.971,11.971,0,0,0,46.05,221.169ZM44.5,226.578a4.973,4.973,0,0,1-.666,1.611,2.513,2.513,0,0,1-.968.877,2.589,2.589,0,0,1-2.286,0,2.48,2.48,0,0,1-.963-0.877,5.035,5.035,0,0,1-.661-1.611,12.524,12.524,0,0,1,0-4.955,5.032,5.032,0,0,1,.661-1.615,2.483,2.483,0,0,1,.963-0.878,2.6,2.6,0,0,1,2.286,0,2.516,2.516,0,0,1,.968.878,4.97,4.97,0,0,1,.666,1.615A12.524,12.524,0,0,1,44.5,226.578ZM47.391,230a1.145,1.145,0,0,0,.234.356,1.042,1.042,0,0,0,.356.238,1.174,1.174,0,0,0,.882,0,1.094,1.094,0,0,0,.36-0.238A1.111,1.111,0,0,0,49.461,230a1.133,1.133,0,0,0,.085-0.445,1.146,1.146,0,0,0-.085-0.441,1.1,1.1,0,0,0-.239-0.36,1.157,1.157,0,0,0-.36-0.243,1.117,1.117,0,0,0-1.238.243,1.129,1.129,0,0,0-.234.36,1.142,1.142,0,0,0-.086.441A1.13,1.13,0,0,0,47.391,230ZM58.636,217.65H57.142l-6.273,8.325,0.162,0.819a0.451,0.451,0,0,0,.166.256,0.484,0.484,0,0,0,.311.1h5.715v3.393h1.413v-3.393h1.6a0.333,0.333,0,0,0,.266-0.1,0.359,0.359,0,0,0,.085-0.243v-0.918H58.636V217.65Zm-1.413,8.244H52.606l4.689-6.381a5.319,5.319,0,0,0-.059.558q-0.014.27-.014,0.5v5.319Z"/>
  <path id="_0.2" data-name="0.2" class="cls-5" d="M46.05,291.169a6.174,6.174,0,0,0-.995-2.057,3.98,3.98,0,0,0-1.489-1.21,4.475,4.475,0,0,0-3.681,0,4,4,0,0,0-1.48,1.21,6.108,6.108,0,0,0-.99,2.057,12.116,12.116,0,0,0,0,5.863,6.058,6.058,0,0,0,.99,2.048,4.016,4.016,0,0,0,1.48,1.206,4.475,4.475,0,0,0,3.681,0,4,4,0,0,0,1.489-1.206,6.124,6.124,0,0,0,.995-2.048A11.971,11.971,0,0,0,46.05,291.169ZM44.5,296.578a4.973,4.973,0,0,1-.666,1.611,2.513,2.513,0,0,1-.968.877,2.589,2.589,0,0,1-2.286,0,2.48,2.48,0,0,1-.963-0.877,5.035,5.035,0,0,1-.661-1.611,12.524,12.524,0,0,1,0-4.955,5.032,5.032,0,0,1,.661-1.615,2.483,2.483,0,0,1,.963-0.878,2.6,2.6,0,0,1,2.286,0,2.516,2.516,0,0,1,.968.878,4.97,4.97,0,0,1,.666,1.615A12.524,12.524,0,0,1,44.5,296.578ZM47.391,300a1.145,1.145,0,0,0,.234.356,1.042,1.042,0,0,0,.356.238,1.174,1.174,0,0,0,.882,0,1.094,1.094,0,0,0,.36-0.238A1.111,1.111,0,0,0,49.461,300a1.133,1.133,0,0,0,.085-0.445,1.146,1.146,0,0,0-.085-0.441,1.1,1.1,0,0,0-.239-0.36,1.157,1.157,0,0,0-.36-0.243,1.117,1.117,0,0,0-1.238.243,1.129,1.129,0,0,0-.234.36,1.142,1.142,0,0,0-.086.441A1.13,1.13,0,0,0,47.391,300Zm6.984-12.258a3.9,3.9,0,0,0-1.269.7,3.719,3.719,0,0,0-.913,1.138,4.742,4.742,0,0,0-.486,1.562l0.837,0.144c0.042,0.006.079,0.01,0.113,0.013s0.064,0,.094,0a0.581,0.581,0,0,0,.378-0.117,0.718,0.718,0,0,0,.216-0.378,2.365,2.365,0,0,1,.31-0.774,2.4,2.4,0,0,1,1.273-1.008,2.722,2.722,0,0,1,.9-0.144,2.885,2.885,0,0,1,.909.139,2.085,2.085,0,0,1,.738.419,1.924,1.924,0,0,1,.495.706,2.552,2.552,0,0,1,.18,1,3.433,3.433,0,0,1-.162,1.066,4.516,4.516,0,0,1-.463.986,7.329,7.329,0,0,1-.725.967q-0.423.482-.936,1l-4.131,4.149a0.934,0.934,0,0,0-.22.333,1,1,0,0,0-.068.351v0.549h8.6v-0.972a0.536,0.536,0,0,0-.153-0.4,0.56,0.56,0,0,0-.414-0.153h-4.32a4.537,4.537,0,0,0-.711.058,6.7,6.7,0,0,0-.729.158l3.393-3.474q0.54-.549,1.021-1.076a8.644,8.644,0,0,0,.851-1.089,5.434,5.434,0,0,0,.585-1.174,3.976,3.976,0,0,0,.216-1.332,3.676,3.676,0,0,0-.3-1.512,3.3,3.3,0,0,0-.815-1.13,3.527,3.527,0,0,0-1.228-.706,4.7,4.7,0,0,0-1.53-.243A4.851,4.851,0,0,0,54.375,287.744Z"/>
  <path id="_0.0" data-name="0.0" class="cls-5" d="M46.05,361.169a6.174,6.174,0,0,0-.995-2.057,3.98,3.98,0,0,0-1.489-1.21,4.475,4.475,0,0,0-3.681,0,4,4,0,0,0-1.48,1.21,6.108,6.108,0,0,0-.99,2.057,12.116,12.116,0,0,0,0,5.863,6.058,6.058,0,0,0,.99,2.048,4.016,4.016,0,0,0,1.48,1.206,4.475,4.475,0,0,0,3.681,0,4,4,0,0,0,1.489-1.206,6.124,6.124,0,0,0,.995-2.048A11.971,11.971,0,0,0,46.05,361.169ZM44.5,366.578a4.973,4.973,0,0,1-.666,1.611,2.513,2.513,0,0,1-.968.877,2.589,2.589,0,0,1-2.286,0,2.48,2.48,0,0,1-.963-0.877,5.035,5.035,0,0,1-.661-1.611,12.524,12.524,0,0,1,0-4.955,5.032,5.032,0,0,1,.661-1.615,2.483,2.483,0,0,1,.963-0.878,2.6,2.6,0,0,1,2.286,0,2.516,2.516,0,0,1,.968.878,4.97,4.97,0,0,1,.666,1.615A12.524,12.524,0,0,1,44.5,366.578ZM47.391,370a1.145,1.145,0,0,0,.234.356,1.042,1.042,0,0,0,.356.238,1.174,1.174,0,0,0,.882,0,1.094,1.094,0,0,0,.36-0.238A1.111,1.111,0,0,0,49.461,370a1.133,1.133,0,0,0,.085-0.445,1.146,1.146,0,0,0-.085-0.441,1.1,1.1,0,0,0-.239-0.36,1.157,1.157,0,0,0-.36-0.243,1.117,1.117,0,0,0-1.238.243,1.129,1.129,0,0,0-.234.36,1.142,1.142,0,0,0-.086.441A1.13,1.13,0,0,0,47.391,370Zm12.654-8.833a6.174,6.174,0,0,0-.995-2.057,3.98,3.98,0,0,0-1.489-1.21,4.475,4.475,0,0,0-3.681,0,4,4,0,0,0-1.48,1.21,6.108,6.108,0,0,0-.99,2.057,12.116,12.116,0,0,0,0,5.863,6.058,6.058,0,0,0,.99,2.048,4.016,4.016,0,0,0,1.48,1.206,4.475,4.475,0,0,0,3.681,0,4,4,0,0,0,1.489-1.206,6.124,6.124,0,0,0,.995-2.048A11.971,11.971,0,0,0,60.045,361.169ZM58.5,366.578a4.973,4.973,0,0,1-.666,1.611,2.513,2.513,0,0,1-.968.877,2.589,2.589,0,0,1-2.286,0,2.48,2.48,0,0,1-.963-0.877,5.035,5.035,0,0,1-.661-1.611,12.524,12.524,0,0,1,0-4.955,5.032,5.032,0,0,1,.661-1.615,2.483,2.483,0,0,1,.963-0.878,2.6,2.6,0,0,1,2.286,0,2.516,2.516,0,0,1,.968.878,4.97,4.97,0,0,1,.666,1.615A12.524,12.524,0,0,1,58.5,366.578Z"/>
  <path class="cls-6" d="M86,18c38.66,0,62.333,63.3,100,62,30.948-1.065,54.328,59,104,59s85.23,131,156,131,301.5,3,320,3"/>
  <path id="_0-2" data-name="0" class="cls-5" d="M237.044,392.169a6.191,6.191,0,0,0-.994-2.057,3.988,3.988,0,0,0-1.49-1.21,4.475,4.475,0,0,0-3.681,0,3.989,3.989,0,0,0-1.48,1.21,6.074,6.074,0,0,0-.99,2.057,12.116,12.116,0,0,0,0,5.863,6.025,6.025,0,0,0,.99,2.048,4.007,4.007,0,0,0,1.48,1.206,4.475,4.475,0,0,0,3.681,0,4.005,4.005,0,0,0,1.49-1.206,6.141,6.141,0,0,0,.994-2.048A11.955,11.955,0,0,0,237.044,392.169Zm-1.548,5.409a4.971,4.971,0,0,1-.666,1.611,2.518,2.518,0,0,1-.967.877,2.589,2.589,0,0,1-2.286,0,2.467,2.467,0,0,1-.963-0.877,5.017,5.017,0,0,1-.662-1.611,12.549,12.549,0,0,1,0-4.955,5.014,5.014,0,0,1,.662-1.615,2.47,2.47,0,0,1,.963-0.878,2.6,2.6,0,0,1,2.286,0,2.521,2.521,0,0,1,.967.878,4.968,4.968,0,0,1,.666,1.615A12.5,12.5,0,0,1,235.5,397.578Z"/>
  <path id="_15" data-name="15" class="cls-5" d="M374.092,401.547H381v-1.224h-2.538v-11.7h-1.305l-3.834,3.321,0.5,0.693a0.441,0.441,0,0,0,.162.139,0.5,0.5,0,0,0,.243.059,0.519,0.519,0,0,0,.171-0.032,0.615,0.615,0,0,0,.18-0.1l2.3-1.971q-0.027.405-.027,0.8v8.793h-2.772v1.224Zm16.218-12.9H384.2l-1.044,6.03,1.008,0.3a7.039,7.039,0,0,1,1.08-.261,6.574,6.574,0,0,1,1.008-.081,3.7,3.7,0,0,1,1.242.189,2.447,2.447,0,0,1,.887.531,2.15,2.15,0,0,1,.531.828,3.19,3.19,0,0,1,.175,1.089,3.576,3.576,0,0,1-.207,1.251,2.769,2.769,0,0,1-.589.958,2.6,2.6,0,0,1-.923.617,3.247,3.247,0,0,1-1.215.216,3.423,3.423,0,0,1-1.039-.14,4.671,4.671,0,0,1-.761-0.31q-0.324-.171-0.553-0.311a0.8,0.8,0,0,0-.4-0.139,0.5,0.5,0,0,0-.432.234l-0.486.684a4.839,4.839,0,0,0,.684.513,5.778,5.778,0,0,0,.837.432,5.494,5.494,0,0,0,.972.3,5.4,5.4,0,0,0,2.916-.2,4.326,4.326,0,0,0,1.472-.9,4.263,4.263,0,0,0,.985-1.417,4.6,4.6,0,0,0,.36-1.854,4.414,4.414,0,0,0-.265-1.548,3.421,3.421,0,0,0-.788-1.233,3.66,3.66,0,0,0-1.291-.819,4.919,4.919,0,0,0-1.778-.3,8.935,8.935,0,0,0-1.863.216l0.594-3.384h4.05a1,1,0,0,0,.729-0.221,0.769,0.769,0,0,0,.216-0.562v-0.7Z"/>
  <path id="_20" data-name="20" class="cls-5" d="M528.375,388.744a3.9,3.9,0,0,0-1.269.7,3.722,3.722,0,0,0-.914,1.138,4.747,4.747,0,0,0-.486,1.562l0.837,0.144c0.042,0.006.079,0.01,0.113,0.013s0.064,0,.094,0a0.581,0.581,0,0,0,.378-0.117,0.717,0.717,0,0,0,.216-0.378,2.348,2.348,0,0,1,.311-0.774,2.4,2.4,0,0,1,.54-0.608,2.426,2.426,0,0,1,.733-0.4,2.722,2.722,0,0,1,.9-0.144,2.885,2.885,0,0,1,.909.139,2.083,2.083,0,0,1,.738.419,1.922,1.922,0,0,1,.5.706,2.55,2.55,0,0,1,.18,1,3.433,3.433,0,0,1-.162,1.066,4.555,4.555,0,0,1-.463.986,7.405,7.405,0,0,1-.725.967q-0.423.482-.936,1l-4.131,4.149a0.934,0.934,0,0,0-.22.333,1,1,0,0,0-.068.351v0.549h8.6v-0.972a0.536,0.536,0,0,0-.153-0.4,0.559,0.559,0,0,0-.414-0.153h-4.32a4.539,4.539,0,0,0-.711.058,6.711,6.711,0,0,0-.729.158l3.393-3.474q0.54-.549,1.022-1.076a8.714,8.714,0,0,0,.85-1.089,5.429,5.429,0,0,0,.585-1.174,3.976,3.976,0,0,0,.216-1.332,3.676,3.676,0,0,0-.3-1.512,3.312,3.312,0,0,0-.814-1.13,3.536,3.536,0,0,0-1.229-.706,4.7,4.7,0,0,0-1.53-.243A4.849,4.849,0,0,0,528.375,388.744Zm15.669,3.425a6.173,6.173,0,0,0-1-2.057,3.985,3.985,0,0,0-1.489-1.21,4.351,4.351,0,0,0-1.841-.4,4.3,4.3,0,0,0-1.84.4,4,4,0,0,0-1.481,1.21,6.111,6.111,0,0,0-.99,2.057,12.116,12.116,0,0,0,0,5.863,6.062,6.062,0,0,0,.99,2.048,4.018,4.018,0,0,0,1.481,1.206,4.3,4.3,0,0,0,1.84.4,4.351,4.351,0,0,0,1.841-.4,4,4,0,0,0,1.489-1.206,6.123,6.123,0,0,0,1-2.048A11.987,11.987,0,0,0,544.044,392.169Zm-1.548,5.409a4.993,4.993,0,0,1-.666,1.611,2.514,2.514,0,0,1-.968.877,2.589,2.589,0,0,1-2.286,0,2.481,2.481,0,0,1-.963-0.877,5.017,5.017,0,0,1-.661-1.611,12.5,12.5,0,0,1,0-4.955,5.014,5.014,0,0,1,.661-1.615,2.484,2.484,0,0,1,.963-0.878,2.6,2.6,0,0,1,2.286,0,2.517,2.517,0,0,1,.968.878,4.99,4.99,0,0,1,.666,1.615A12.549,12.549,0,0,1,542.5,397.578Z"/>
  <path id="_25" data-name="25" class="cls-5" d="M676.375,388.744a3.9,3.9,0,0,0-1.269.7,3.722,3.722,0,0,0-.914,1.138,4.747,4.747,0,0,0-.486,1.562l0.837,0.144c0.042,0.006.079,0.01,0.113,0.013s0.064,0,.094,0a0.581,0.581,0,0,0,.378-0.117,0.717,0.717,0,0,0,.216-0.378,2.348,2.348,0,0,1,.311-0.774,2.4,2.4,0,0,1,.54-0.608,2.426,2.426,0,0,1,.733-0.4,2.722,2.722,0,0,1,.9-0.144,2.885,2.885,0,0,1,.909.139,2.083,2.083,0,0,1,.738.419,1.922,1.922,0,0,1,.5.706,2.55,2.55,0,0,1,.18,1,3.433,3.433,0,0,1-.162,1.066,4.555,4.555,0,0,1-.463.986,7.405,7.405,0,0,1-.725.967q-0.423.482-.936,1l-4.131,4.149a0.934,0.934,0,0,0-.22.333,1,1,0,0,0-.068.351v0.549h8.6v-0.972a0.536,0.536,0,0,0-.153-0.4,0.559,0.559,0,0,0-.414-0.153h-4.32a4.539,4.539,0,0,0-.711.058,6.711,6.711,0,0,0-.729.158l3.393-3.474q0.54-.549,1.022-1.076a8.714,8.714,0,0,0,.85-1.089,5.429,5.429,0,0,0,.585-1.174,3.976,3.976,0,0,0,.216-1.332,3.676,3.676,0,0,0-.3-1.512,3.312,3.312,0,0,0-.814-1.13,3.536,3.536,0,0,0-1.229-.706,4.7,4.7,0,0,0-1.53-.243A4.849,4.849,0,0,0,676.375,388.744Zm14.935-.094H685.2l-1.044,6.03,1.008,0.3a7.039,7.039,0,0,1,1.08-.261,6.574,6.574,0,0,1,1.008-.081,3.7,3.7,0,0,1,1.242.189,2.447,2.447,0,0,1,.887.531,2.15,2.15,0,0,1,.531.828,3.19,3.19,0,0,1,.175,1.089,3.576,3.576,0,0,1-.207,1.251,2.769,2.769,0,0,1-.589.958,2.6,2.6,0,0,1-.923.617,3.247,3.247,0,0,1-1.215.216,3.423,3.423,0,0,1-1.039-.14,4.671,4.671,0,0,1-.761-0.31q-0.324-.171-0.553-0.311a0.8,0.8,0,0,0-.4-0.139,0.5,0.5,0,0,0-.432.234l-0.486.684a4.839,4.839,0,0,0,.684.513,5.778,5.778,0,0,0,.837.432,5.494,5.494,0,0,0,.972.3,5.4,5.4,0,0,0,2.916-.2,4.326,4.326,0,0,0,1.472-.9,4.263,4.263,0,0,0,.985-1.417,4.6,4.6,0,0,0,.36-1.854,4.414,4.414,0,0,0-.265-1.548,3.421,3.421,0,0,0-.788-1.233,3.66,3.66,0,0,0-1.291-.819,4.919,4.919,0,0,0-1.778-.3,8.935,8.935,0,0,0-1.863.216l0.594-3.384h4.05a1,1,0,0,0,.729-0.221,0.769,0.769,0,0,0,.216-0.562v-0.7Z"/>
  <path id="Overall_Survival_Probability" data-name="Overall Survival Probability" class="cls-7" d="M4.1,362.78a6.14,6.14,0,0,0-2.088,1.3,5.816,5.816,0,0,0-1.364,2.012,7.166,7.166,0,0,0,0,5.188,5.824,5.824,0,0,0,1.364,2.007,6.14,6.14,0,0,0,2.088,1.3,7.445,7.445,0,0,0,2.659.459,7.444,7.444,0,0,0,2.66-.459,6.089,6.089,0,0,0,2.083-1.3,5.8,5.8,0,0,0,1.354-2.007,7.228,7.228,0,0,0,0-5.188,5.792,5.792,0,0,0-1.354-2.012,6.089,6.089,0,0,0-2.083-1.3,7.444,7.444,0,0,0-2.66-.459A7.445,7.445,0,0,0,4.1,362.78Zm4.788,1.656a4.516,4.516,0,0,1,1.593.918,3.942,3.942,0,0,1,1,1.44,5.3,5.3,0,0,1,0,3.771,3.978,3.978,0,0,1-1,1.445,4.478,4.478,0,0,1-1.593.922,6.513,6.513,0,0,1-2.128.324,6.554,6.554,0,0,1-2.133-.324,4.475,4.475,0,0,1-1.6-.922,4.029,4.029,0,0,1-1-1.445,5.24,5.24,0,0,1,0-3.771,3.993,3.993,0,0,1,1-1.44,4.512,4.512,0,0,1,1.6-.918,6.554,6.554,0,0,1,2.133-.324A6.513,6.513,0,0,1,8.891,364.436Zm4.315-6.453v-1.449l-9.117-3.717v1.251a0.476,0.476,0,0,0,.095.3,0.534,0.534,0,0,0,.239.175l5.868,2.34a5.229,5.229,0,0,0,.648.207q0.324,0.081.639,0.153-0.315.063-.639,0.135a4.578,4.578,0,0,0-.648.2l-5.868,2.313a0.562,0.562,0,0,0-.234.18,0.5,0.5,0,0,0-.1.315V361.7Zm-8.914-8.028a3.875,3.875,0,0,0,.954,1.341,4.2,4.2,0,0,0,1.436.842,5.313,5.313,0,0,0,1.782.292,6.2,6.2,0,0,0,2.088-.324,4.291,4.291,0,0,0,1.525-.9,3.82,3.82,0,0,0,.936-1.377,4.64,4.64,0,0,0,.32-1.742,5.964,5.964,0,0,0-.086-1,5.607,5.607,0,0,0-.256-0.976,4.42,4.42,0,0,0-.437-0.887,3.038,3.038,0,0,0-.625-0.711l-0.585.45a0.353,0.353,0,0,0-.153.306,0.7,0.7,0,0,0,.139.365,5.694,5.694,0,0,1,.3.526,4.943,4.943,0,0,1,.3.752,3.426,3.426,0,0,1,.139,1.039,3.089,3.089,0,0,1-.211,1.17,2.378,2.378,0,0,1-.639.9,3.071,3.071,0,0,1-1.067.594,5.033,5.033,0,0,1-1.5.234V344.78a0.336,0.336,0,0,0-.126-0.306,1.045,1.045,0,0,0-.5-0.081,4.938,4.938,0,0,0-1.733.284,3.611,3.611,0,0,0-1.278.787,3.4,3.4,0,0,0-.792,1.2,4.071,4.071,0,0,0-.275,1.512A4.4,4.4,0,0,0,4.292,349.955Zm1.017-2.794a2.017,2.017,0,0,1,.522-0.725,2.277,2.277,0,0,1,.8-0.45,3.244,3.244,0,0,1,1.021-.153v4.959a3.156,3.156,0,0,1-1.859-.828A2.773,2.773,0,0,1,5.309,347.161Zm7.9-5.981H7.4a3.648,3.648,0,0,1-1.413-.94,2.066,2.066,0,0,1-.486-1.4,2.443,2.443,0,0,1,.085-0.729,1.4,1.4,0,0,0,.086-0.387,0.271,0.271,0,0,0-.225-0.279l-1.2-.207a2.39,2.39,0,0,0-.238.567,2.726,2.726,0,0,0,.45,2.3,4.17,4.17,0,0,0,1.49,1.156l-1.422.108a0.607,0.607,0,0,0-.342.135,0.507,0.507,0,0,0-.1.36v0.918h9.117v-1.6ZM7.374,329.426a4.536,4.536,0,0,0-1.4.207,2.974,2.974,0,0,0-1.089.612,2.788,2.788,0,0,0-.7,1,3.454,3.454,0,0,0-.252,1.359,5.031,5.031,0,0,0,.36,1.935,5.207,5.207,0,0,0,1.089,1.629l0.513-.288a0.648,0.648,0,0,0,.212-0.193,0.481,0.481,0,0,0,.086-0.284,0.726,0.726,0,0,0-.149-0.418q-0.149-.211-0.333-0.5a3.736,3.736,0,0,1-.333-0.693,2.855,2.855,0,0,1-.149-0.986,1.646,1.646,0,0,1,.548-1.345A2.48,2.48,0,0,1,7.388,331H8.1a11.793,11.793,0,0,0,.248,2.619,6.237,6.237,0,0,0,.637,1.733,2.612,2.612,0,0,0,.89.958,2.018,2.018,0,0,0,1.043.3,2.643,2.643,0,0,0,1.079-.2,2.13,2.13,0,0,0,.754-0.545,2.262,2.262,0,0,0,.447-0.805,3.239,3.239,0,0,0,.149-1,4.622,4.622,0,0,0-.09-0.949,3.73,3.73,0,0,0-.265-0.806,4.018,4.018,0,0,0-.432-0.72q-0.256-.342-0.581-0.7l0.846-.18a0.4,0.4,0,0,0,.306-0.189,0.847,0.847,0,0,0,.072-0.378v-0.711H7.374Zm4.774,4.743a1.239,1.239,0,0,1-.244.468,1.182,1.182,0,0,1-.43.315,1.526,1.526,0,0,1-.625.117,1.153,1.153,0,0,1-.688-0.22,1.758,1.758,0,0,1-.534-0.707,5.264,5.264,0,0,1-.367-1.26A10.746,10.746,0,0,1,9.12,331H11a5.13,5.13,0,0,1,.513.554,3.493,3.493,0,0,1,.383.594,3.04,3.04,0,0,1,.243.661,3.265,3.265,0,0,1,.085.774A2.127,2.127,0,0,1,12.148,334.169Zm-12.2-7.227H13.206v-1.6H-0.051v1.6Zm0-5H13.206v-1.6H-0.051v1.6Zm1.548-16.1a4.54,4.54,0,0,0-.99,1.557,5.46,5.46,0,0,0-.342,1.971,4.569,4.569,0,0,0,.3,1.706,3.729,3.729,0,0,0,.792,1.246,3.433,3.433,0,0,0,2.457,1.035,3.446,3.446,0,0,0,1.435-.265,2.9,2.9,0,0,0,.968-0.7,3.682,3.682,0,0,0,.63-0.985,11.413,11.413,0,0,0,.428-1.134l0.36-1.134a4.885,4.885,0,0,1,.428-0.986,2.2,2.2,0,0,1,.626-0.7,1.616,1.616,0,0,1,.958-0.266,2.481,2.481,0,0,1,.963.18,2.087,2.087,0,0,1,.742.518,2.347,2.347,0,0,1,.482.823,3.322,3.322,0,0,1,.171,1.107,3.484,3.484,0,0,1-.2,1.265,4.64,4.64,0,0,1-.445.882,7.182,7.182,0,0,1-.446.607,0.716,0.716,0,0,0-.2.432,0.413,0.413,0,0,0,.067.23,0.662,0.662,0,0,0,.167.175l0.828,0.5a5.347,5.347,0,0,0,1.229-1.759,5.593,5.593,0,0,0,.454-2.282,5,5,0,0,0-.315-1.831,3.934,3.934,0,0,0-.864-1.359,3.662,3.662,0,0,0-1.291-.842,4.354,4.354,0,0,0-1.588-.288,3.085,3.085,0,0,0-1.35.266,2.853,2.853,0,0,0-.927.7,3.991,3.991,0,0,0-.625.99q-0.247.553-.445,1.134t-0.383,1.134a5.369,5.369,0,0,1-.436.99,2.285,2.285,0,0,1-.607.7,1.455,1.455,0,0,1-.9.265,2.014,2.014,0,0,1-.787-0.153,1.754,1.754,0,0,1-.635-0.454,2.2,2.2,0,0,1-.428-0.752,3.129,3.129,0,0,1-.157-1.035,3.212,3.212,0,0,1,.153-1.057,4.176,4.176,0,0,1,.338-0.747,5.688,5.688,0,0,1,.337-0.513,0.624,0.624,0,0,0,.153-0.356,0.38,0.38,0,0,0-.067-0.234,0.7,0.7,0,0,0-.2-0.171Zm2.592-2.5H9.9a4.861,4.861,0,0,0,1.413-.193,2.961,2.961,0,0,0,1.089-.581,2.61,2.61,0,0,0,.7-0.958,3.3,3.3,0,0,0,.248-1.319,3.492,3.492,0,0,0-.4-1.692,5.011,5.011,0,0,0-1.058-1.332l0.981-.126a0.408,0.408,0,0,0,.333-0.432v-0.954H4.089v1.6h6.723a4.113,4.113,0,0,1,.927,1.143,2.757,2.757,0,0,1,.333,1.323,1.776,1.776,0,0,1-.567,1.44,2.419,2.419,0,0,1-1.6.477H4.089v1.6Zm9.117-11.817H7.4a3.648,3.648,0,0,1-1.413-.94,2.066,2.066,0,0,1-.486-1.4,2.443,2.443,0,0,1,.085-0.729,1.4,1.4,0,0,0,.086-0.387,0.271,0.271,0,0,0-.225-0.279l-1.2-.207a2.39,2.39,0,0,0-.238.567,2.726,2.726,0,0,0,.45,2.3,4.17,4.17,0,0,0,1.49,1.156l-1.422.108a0.607,0.607,0,0,0-.342.135,0.507,0.507,0,0,0-.1.36v0.918h9.117v-1.6Zm0-7.965V282.1l-9.117-3.717v1.251a0.478,0.478,0,0,0,.095.3,0.534,0.534,0,0,0,.239.175l5.868,2.34a5.4,5.4,0,0,0,.648.207q0.324,0.081.639,0.153-0.315.063-.639,0.135a4.451,4.451,0,0,0-.648.2l-5.868,2.313a0.562,0.562,0,0,0-.234.18,0.494,0.494,0,0,0-.1.315v1.314Zm-9.117-6.615h9.117v-1.6H4.089v1.6Zm-3.307-1.867a1.222,1.222,0,0,0-.369.252,1.171,1.171,0,0,0-.248.364,1.1,1.1,0,0,0-.09.441,1.066,1.066,0,0,0,.09.437,1.189,1.189,0,0,0,.248.36,1.157,1.157,0,0,0,.369.247,1.126,1.126,0,0,0,.445.09,1.062,1.062,0,0,0,.437-0.09,1.2,1.2,0,0,0,.608-0.607,1.064,1.064,0,0,0,.09-0.437,1.093,1.093,0,0,0-.09-0.441,1.166,1.166,0,0,0-.248-0.364,1.256,1.256,0,0,0-.36-0.252,1.019,1.019,0,0,0-.437-0.1A1.081,1.081,0,0,0,.782,275.071Zm12.424-5.522V268.1l-9.117-3.717v1.251a0.478,0.478,0,0,0,.095.3,0.534,0.534,0,0,0,.239.175l5.868,2.34a5.4,5.4,0,0,0,.648.207q0.324,0.081.639,0.153-0.315.063-.639,0.135a4.451,4.451,0,0,0-.648.2l-5.868,2.313a0.562,0.562,0,0,0-.234.18,0.494,0.494,0,0,0-.1.315v1.314ZM7.374,256.418a4.536,4.536,0,0,0-1.4.207,2.974,2.974,0,0,0-1.089.612,2.788,2.788,0,0,0-.7,1,3.454,3.454,0,0,0-.252,1.359,5.031,5.031,0,0,0,.36,1.935,5.207,5.207,0,0,0,1.089,1.629l0.513-.288a0.648,0.648,0,0,0,.212-0.193,0.481,0.481,0,0,0,.086-0.284,0.726,0.726,0,0,0-.149-0.418q-0.149-.212-0.333-0.5a3.736,3.736,0,0,1-.333-0.693,2.855,2.855,0,0,1-.149-0.986,1.646,1.646,0,0,1,.548-1.345,2.48,2.48,0,0,1,1.616-.455H8.1a11.793,11.793,0,0,0,.248,2.619,6.237,6.237,0,0,0,.637,1.733,2.612,2.612,0,0,0,.89.958,2.018,2.018,0,0,0,1.043.3A2.643,2.643,0,0,0,12,263.4a2.13,2.13,0,0,0,.754-0.545,2.262,2.262,0,0,0,.447-0.805,3.239,3.239,0,0,0,.149-1,4.622,4.622,0,0,0-.09-0.949,3.73,3.73,0,0,0-.265-0.806,4.018,4.018,0,0,0-.432-0.72q-0.256-.342-0.581-0.7l0.846-.18a0.4,0.4,0,0,0,.306-0.189,0.847,0.847,0,0,0,.072-0.378v-0.711H7.374Zm4.774,4.743a1.239,1.239,0,0,1-.244.468,1.182,1.182,0,0,1-.43.315,1.526,1.526,0,0,1-.625.117,1.153,1.153,0,0,1-.688-0.22,1.758,1.758,0,0,1-.534-0.707,5.264,5.264,0,0,1-.367-1.26,10.746,10.746,0,0,1-.14-1.881H11a5.13,5.13,0,0,1,.513.554,3.493,3.493,0,0,1,.383.594,3.04,3.04,0,0,1,.243.661,3.265,3.265,0,0,1,.085.774A2.127,2.127,0,0,1,12.148,261.161Zm-12.2-7.227H13.206v-1.6H-0.051v1.6Zm8.433-13.059a6.477,6.477,0,0,0-.3-2.061,4.282,4.282,0,0,0-.841-1.507,3.544,3.544,0,0,0-1.287-.923,4.2,4.2,0,0,0-1.647-.315,4.436,4.436,0,0,0-1.647.293,3.246,3.246,0,0,0-1.26.886,4.092,4.092,0,0,0-.805,1.5,7.14,7.14,0,0,0-.283,2.128v3.807h12.9v-1.737H8.382v-2.07Zm-6.7,2.07v-2.07a3.318,3.318,0,0,1,.693-2.3,2.475,2.475,0,0,1,1.926-.761,2.906,2.906,0,0,1,1.089.2,2.3,2.3,0,0,1,.85.585,2.7,2.7,0,0,1,.554.959,4.018,4.018,0,0,1,.2,1.318v2.07H1.686Zm11.52-10.431H7.4a3.648,3.648,0,0,1-1.413-.94,2.066,2.066,0,0,1-.486-1.4,2.443,2.443,0,0,1,.085-0.729,1.4,1.4,0,0,0,.086-0.387,0.271,0.271,0,0,0-.225-0.279l-1.2-.207a2.39,2.39,0,0,0-.238.567,2.726,2.726,0,0,0,.45,2.3,4.17,4.17,0,0,0,1.49,1.156L4.53,232.7a0.607,0.607,0,0,0-.342.135,0.507,0.507,0,0,0-.1.36v0.918h9.117v-1.6Zm-8.928-7.285a3.848,3.848,0,0,0,.945,1.372,4.2,4.2,0,0,0,1.481.873,5.808,5.808,0,0,0,1.939.306,5.8,5.8,0,0,0,1.944-.306,4.207,4.207,0,0,0,1.476-.873A3.8,3.8,0,0,0,13,225.229a5.12,5.12,0,0,0,0-3.609,3.755,3.755,0,0,0-.941-1.368,4.189,4.189,0,0,0-1.476-.864,5.876,5.876,0,0,0-1.944-.3,5.887,5.887,0,0,0-1.939.3,4.185,4.185,0,0,0-1.481.864,3.806,3.806,0,0,0-.945,1.368A5.056,5.056,0,0,0,4.278,225.229Zm7.569-.617a2.241,2.241,0,0,1-.67.842,2.952,2.952,0,0,1-1.075.5,5.76,5.76,0,0,1-1.449.166,5.815,5.815,0,0,1-1.453-.166,3,3,0,0,1-1.085-.5,2.227,2.227,0,0,1-.675-0.842,2.8,2.8,0,0,1-.234-1.188,2.336,2.336,0,0,1,.909-2.016,4.227,4.227,0,0,1,2.538-.666,4.188,4.188,0,0,1,2.524.666,2.34,2.34,0,0,1,.9,2.016A2.8,2.8,0,0,1,11.847,224.612Zm1.359-8.586a0.385,0.385,0,0,0-.342-0.414l-0.828-.081a3.4,3.4,0,0,0,.954-1.075,3.05,3.05,0,0,0,.342-1.5,3.6,3.6,0,0,0-1.364-2.893,4.521,4.521,0,0,0-1.5-.779,6.29,6.29,0,0,0-1.876-.27,7.456,7.456,0,0,0-2,.243,4.277,4.277,0,0,0-1.458.693,2.892,2.892,0,0,0-.886,1.089,3.355,3.355,0,0,0-.3,1.431,3.449,3.449,0,0,0,.4,1.679,4.658,4.658,0,0,0,1.058,1.3H-0.051v1.611H13.206v-1.035Zm-7.794-4.014a1.769,1.769,0,0,1,.6-0.729,2.993,2.993,0,0,1,1.049-.454,6.466,6.466,0,0,1,1.53-.158,4.245,4.245,0,0,1,2.592.684,2.307,2.307,0,0,1,.909,1.962,2.772,2.772,0,0,1-.243,1.175,2.51,2.51,0,0,1-.837.958H6.6a3.957,3.957,0,0,1-1.017-1.084,2.583,2.583,0,0,1-.36-1.373A2.425,2.425,0,0,1,5.412,212.012ZM7.374,200.42a4.536,4.536,0,0,0-1.4.207,2.974,2.974,0,0,0-1.089.612,2.788,2.788,0,0,0-.7,1,3.454,3.454,0,0,0-.252,1.359,5.031,5.031,0,0,0,.36,1.935,5.207,5.207,0,0,0,1.089,1.629l0.513-.288A0.648,0.648,0,0,0,6.1,206.68a0.481,0.481,0,0,0,.086-0.284,0.726,0.726,0,0,0-.149-0.418q-0.149-.212-0.333-0.5a3.736,3.736,0,0,1-.333-0.693,2.855,2.855,0,0,1-.149-0.986,1.646,1.646,0,0,1,.548-1.345A2.48,2.48,0,0,1,7.388,202H8.1a11.793,11.793,0,0,0,.248,2.619,6.237,6.237,0,0,0,.637,1.733,2.612,2.612,0,0,0,.89.958,2.018,2.018,0,0,0,1.043.3A2.643,2.643,0,0,0,12,207.4a2.13,2.13,0,0,0,.754-0.545,2.262,2.262,0,0,0,.447-0.8,3.239,3.239,0,0,0,.149-1,4.622,4.622,0,0,0-.09-0.949,3.73,3.73,0,0,0-.265-0.806,4.018,4.018,0,0,0-.432-0.72q-0.256-.342-0.581-0.7l0.846-.18a0.4,0.4,0,0,0,.306-0.189,0.847,0.847,0,0,0,.072-0.378V200.42H7.374Zm4.774,4.743a1.239,1.239,0,0,1-.244.468,1.182,1.182,0,0,1-.43.315,1.526,1.526,0,0,1-.625.117,1.153,1.153,0,0,1-.688-0.22,1.758,1.758,0,0,1-.534-0.707,5.264,5.264,0,0,1-.367-1.26A10.746,10.746,0,0,1,9.12,202H11a5.13,5.13,0,0,1,.513.554,3.493,3.493,0,0,1,.383.594,3.04,3.04,0,0,1,.243.661,3.265,3.265,0,0,1,.085.774A2.127,2.127,0,0,1,12.148,205.163Zm1.058-8.136a0.385,0.385,0,0,0-.342-0.414l-0.828-.081a3.4,3.4,0,0,0,.954-1.075,3.05,3.05,0,0,0,.342-1.5,3.6,3.6,0,0,0-1.364-2.893,4.521,4.521,0,0,0-1.5-.779,6.29,6.29,0,0,0-1.876-.27,7.456,7.456,0,0,0-2,.243,4.277,4.277,0,0,0-1.458.693,2.892,2.892,0,0,0-.886,1.089,3.355,3.355,0,0,0-.3,1.431,3.449,3.449,0,0,0,.4,1.679,4.658,4.658,0,0,0,1.058,1.3H-0.051v1.611H13.206v-1.035Zm-7.794-4.014a1.769,1.769,0,0,1,.6-0.729,2.993,2.993,0,0,1,1.049-.454,6.466,6.466,0,0,1,1.53-.158,4.245,4.245,0,0,1,2.592.684,2.307,2.307,0,0,1,.909,1.962,2.772,2.772,0,0,1-.243,1.175,2.51,2.51,0,0,1-.837.958H6.6a3.957,3.957,0,0,1-1.017-1.084,2.583,2.583,0,0,1-.36-1.373A2.425,2.425,0,0,1,5.412,193.013Zm-1.323-5.076h9.117v-1.6H4.089v1.6ZM0.782,186.07a1.222,1.222,0,0,0-.369.252,1.171,1.171,0,0,0-.248.364,1.1,1.1,0,0,0-.09.441,1.066,1.066,0,0,0,.09.437,1.189,1.189,0,0,0,.248.36,1.157,1.157,0,0,0,.369.247,1.126,1.126,0,0,0,.445.09,1.062,1.062,0,0,0,.437-0.09,1.2,1.2,0,0,0,.608-0.607,1.064,1.064,0,0,0,.09-0.437,1.093,1.093,0,0,0-.09-0.441,1.166,1.166,0,0,0-.248-0.364,1.256,1.256,0,0,0-.36-0.252,1.019,1.019,0,0,0-.437-0.095A1.081,1.081,0,0,0,.782,186.07Zm-0.832-3.137H13.206v-1.6H-0.051v1.6Zm4.14-5h9.117v-1.6H4.089v1.6Zm-3.307-1.867a1.222,1.222,0,0,0-.369.252,1.171,1.171,0,0,0-.248.364,1.1,1.1,0,0,0-.09.441,1.066,1.066,0,0,0,.09.437,1.189,1.189,0,0,0,.248.36,1.157,1.157,0,0,0,.369.247,1.126,1.126,0,0,0,.445.09,1.062,1.062,0,0,0,.437-0.09,1.2,1.2,0,0,0,.608-0.607,1.064,1.064,0,0,0,.09-0.437,1.093,1.093,0,0,0-.09-0.441,1.166,1.166,0,0,0-.248-0.364,1.256,1.256,0,0,0-.36-0.252,1.019,1.019,0,0,0-.437-0.095A1.081,1.081,0,0,0,.782,176.062Zm12.348-6.926a2.981,2.981,0,0,0-.607-1l-0.765.468a0.276,0.276,0,0,0-.153.225,0.3,0.3,0,0,0,.068.167c0.045,0.063.095,0.139,0.149,0.229a1.879,1.879,0,0,1,.149.32,1.268,1.268,0,0,1,.067.436,0.974,0.974,0,0,1-.279.72,1.164,1.164,0,0,1-.855.279H5.43v-2.61H4.269v2.61H1.128v0.81a0.372,0.372,0,0,0,.086.252,0.341,0.341,0,0,0,.22.117l2.817,0.369,0.189,1.494H5.079a0.332,0.332,0,0,0,.266-0.1,0.358,0.358,0,0,0,.085-0.243v-1.1h5.58a2.406,2.406,0,0,0,1.737-.58,2.2,2.2,0,0,0,.6-1.661A3.392,3.392,0,0,0,13.13,169.136Zm-9.04-10.791v1.278a0.475,0.475,0,0,0,.095.284,0.511,0.511,0,0,0,.239.184l5.733,2.367q0.207,0.081.405,0.144l0.4,0.126c-0.138.03-.273,0.065-0.4,0.1a4.17,4.17,0,0,0-.4.139L4.422,165.41a0.648,0.648,0,0,0-.229.171,0.473,0.473,0,0,0-.1.324v1.386l8.586-3.762,3.618,1.665v-1.188a0.548,0.548,0,0,0-.108-0.373,0.84,0.84,0,0,0-.288-0.2Z"/>
  <path id="Time_Months_" data-name="Time (Months)" class="cls-7" d="M75,422.4v1.467h4.185V435.3h1.746v-11.43h4.167V422.4H75Zm12.24,3.78V435.3h1.6v-9.117h-1.6Zm1.867-3.307a1.222,1.222,0,0,0-.252-0.369,1.175,1.175,0,0,0-.365-0.248,1.1,1.1,0,0,0-.441-0.09,1.062,1.062,0,0,0-.436.09,1.187,1.187,0,0,0-.36.248,1.153,1.153,0,0,0-.248.369,1.122,1.122,0,0,0-.09.445,1.063,1.063,0,0,0,.09.437,1.2,1.2,0,0,0,.608.607,1.062,1.062,0,0,0,.436.09,1.1,1.1,0,0,0,.441-0.09,1.172,1.172,0,0,0,.365-0.247,1.259,1.259,0,0,0,.252-0.36,1.022,1.022,0,0,0,.094-0.437A1.078,1.078,0,0,0,89.1,422.877ZM93.663,435.3v-6.8a3.6,3.6,0,0,1,.931-0.868,2.034,2.034,0,0,1,1.1-.32,1.565,1.565,0,0,1,1.287.54,2.555,2.555,0,0,1,.441,1.638V435.3h1.6V429.5a2.631,2.631,0,0,1,.157-0.949,1.921,1.921,0,0,1,.428-0.68,1.808,1.808,0,0,1,.625-0.409,2.042,2.042,0,0,1,.752-0.14,1.68,1.68,0,0,1,1.359.554,2.456,2.456,0,0,1,.468,1.624V435.3h1.6V429.5a4.8,4.8,0,0,0-.207-1.471,2.99,2.99,0,0,0-.6-1.085,2.538,2.538,0,0,0-.954-0.67,3.369,3.369,0,0,0-1.282-.23,3.682,3.682,0,0,0-.887.108,2.951,2.951,0,0,0-.823.342,2.9,2.9,0,0,0-.7.594,2.853,2.853,0,0,0-.5.855,2.887,2.887,0,0,0-.824-1.386,2.159,2.159,0,0,0-1.5-.513,2.658,2.658,0,0,0-1.454.4,4.673,4.673,0,0,0-1.129,1.017l-0.117-.936a0.409,0.409,0,0,0-.432-0.333H92.061V435.3h1.6Zm15.228-8.914a3.874,3.874,0,0,0-1.341.954,4.2,4.2,0,0,0-.842,1.435,5.312,5.312,0,0,0-.292,1.782,6.2,6.2,0,0,0,.324,2.088,4.3,4.3,0,0,0,.9,1.526,3.822,3.822,0,0,0,1.377.936,4.658,4.658,0,0,0,1.742.319,5.963,5.963,0,0,0,1-.085,5.626,5.626,0,0,0,.976-0.257,4.429,4.429,0,0,0,.887-0.436,3.045,3.045,0,0,0,.711-0.626l-0.45-.585a0.353,0.353,0,0,0-.306-0.153,0.7,0.7,0,0,0-.365.14,5.725,5.725,0,0,1-.526.3,4.951,4.951,0,0,1-.752.3,3.43,3.43,0,0,1-1.039.139,3.091,3.091,0,0,1-1.17-.211,2.38,2.38,0,0,1-.9-0.639,3.076,3.076,0,0,1-.594-1.067,5.033,5.033,0,0,1-.234-1.5h6.066a0.336,0.336,0,0,0,.306-0.126,1.045,1.045,0,0,0,.081-0.5,4.934,4.934,0,0,0-.284-1.732,3.61,3.61,0,0,0-.787-1.278,3.394,3.394,0,0,0-1.2-.792,4.07,4.07,0,0,0-1.512-.275A4.4,4.4,0,0,0,108.891,426.387Zm2.794,1.017a2.016,2.016,0,0,1,.725.522,2.276,2.276,0,0,1,.45.8,3.241,3.241,0,0,1,.153,1.021h-4.959a3.154,3.154,0,0,1,.828-1.858A2.77,2.77,0,0,1,111.685,427.4Zm10.152-1.508a14.389,14.389,0,0,1,1.436-3.456,0.671,0.671,0,0,0,.09-0.306,0.327,0.327,0,0,0-.063-0.207,0.633,0.633,0,0,0-.162-0.144l-0.711-.441a17,17,0,0,0-1.148,2.061,13.839,13.839,0,0,0-1.192,4.1,16.958,16.958,0,0,0,0,4.271,14.183,14.183,0,0,0,.427,2.065,13.876,13.876,0,0,0,.765,2.043,16.472,16.472,0,0,0,1.148,2.052l0.711-.432a0.633,0.633,0,0,0,.162-0.144,0.327,0.327,0,0,0,.063-0.207,0.592,0.592,0,0,0-.018-0.144,0.753,0.753,0,0,0-.072-0.171,14.936,14.936,0,0,1-1.431-3.46,14.141,14.141,0,0,1-.5-3.74A14.309,14.309,0,0,1,121.837,425.9Zm9.824,4.743-4.455-7.938a0.518,0.518,0,0,0-.243-0.252,1.119,1.119,0,0,0-.36-0.045h-1.287v12.9h1.53v-9.477c0-.126-0.005-0.264-0.014-0.414s-0.022-.3-0.04-0.459l4.518,8.091a0.694,0.694,0,0,0,.63.405h0.252a0.694,0.694,0,0,0,.63-0.405l4.419-8.064q-0.018.225-.027,0.441t-0.009.405V435.3h1.53V422.4h-1.287a1.119,1.119,0,0,0-.36.045,0.518,0.518,0,0,0-.243.252l-4.365,7.929q-0.126.234-.225,0.464t-0.189.481q-0.09-.243-0.185-0.481a3.352,3.352,0,0,0-.22-0.455h0Zm12.289-4.266a3.846,3.846,0,0,0-1.372.945,4.2,4.2,0,0,0-.873,1.481,6.312,6.312,0,0,0,0,3.883,4.208,4.208,0,0,0,.873,1.476,3.8,3.8,0,0,0,1.372.941,5.128,5.128,0,0,0,3.609,0,3.758,3.758,0,0,0,1.368-.941,4.19,4.19,0,0,0,.864-1.476,6.392,6.392,0,0,0,0-3.883,4.186,4.186,0,0,0-.864-1.481,3.8,3.8,0,0,0-1.368-.945A5.056,5.056,0,0,0,143.95,426.373Zm0.617,7.569a2.241,2.241,0,0,1-.842-0.67,2.956,2.956,0,0,1-.5-1.076,6.425,6.425,0,0,1,0-2.9,3,3,0,0,1,.5-1.085,2.225,2.225,0,0,1,.842-0.675,2.8,2.8,0,0,1,1.188-.234,2.336,2.336,0,0,1,2.016.909,5.144,5.144,0,0,1,0,5.063,2.34,2.34,0,0,1-2.016.9A2.8,2.8,0,0,1,144.567,433.942Zm9.1,1.359v-6.714a4.37,4.37,0,0,1,1.138-.927,2.7,2.7,0,0,1,1.328-.342,1.766,1.766,0,0,1,1.444.572,2.453,2.453,0,0,1,.473,1.606V435.3h1.6V429.5a4.759,4.759,0,0,0-.2-1.413,3.1,3.1,0,0,0-.581-1.093,2.551,2.551,0,0,0-.954-0.7,3.289,3.289,0,0,0-1.318-.248,3.455,3.455,0,0,0-1.7.4,5.122,5.122,0,0,0-1.327,1.062l-0.126-.99a0.408,0.408,0,0,0-.432-0.333h-0.954V435.3h1.6Zm12.366-.076a2.986,2.986,0,0,0,1-.608l-0.468-.765a0.276,0.276,0,0,0-.225-0.153,0.3,0.3,0,0,0-.167.068c-0.063.045-.139,0.094-0.229,0.148a1.879,1.879,0,0,1-.32.149,1.269,1.269,0,0,1-.436.067,0.974,0.974,0,0,1-.72-0.279,1.164,1.164,0,0,1-.279-0.855v-5.472h2.61v-1.161h-2.61v-3.141h-0.81a0.372,0.372,0,0,0-.252.086,0.339,0.339,0,0,0-.117.22l-0.369,2.817-1.494.189v0.639a0.333,0.333,0,0,0,.1.266,0.358,0.358,0,0,0,.243.085h1.1v5.58a2.406,2.406,0,0,0,.58,1.737,2.2,2.2,0,0,0,1.661.6A3.392,3.392,0,0,0,166.032,435.225Zm4.635,0.076v-6.714a4.37,4.37,0,0,1,1.138-.927,2.7,2.7,0,0,1,1.328-.342,1.766,1.766,0,0,1,1.444.572,2.453,2.453,0,0,1,.473,1.606V435.3h1.6V429.5a4.759,4.759,0,0,0-.2-1.413,3.1,3.1,0,0,0-.581-1.093,2.551,2.551,0,0,0-.954-0.7,3.289,3.289,0,0,0-1.318-.248,3.471,3.471,0,0,0-1.638.374,4.918,4.918,0,0,0-1.3.994v-5.364h-1.6V435.3h1.6Zm13.977-8.2a3.824,3.824,0,0,0-1.238-.778,4.353,4.353,0,0,0-1.615-.284,4.07,4.07,0,0,0-1.377.216,3.1,3.1,0,0,0-1.017.581,2.461,2.461,0,0,0-.63.846,2.423,2.423,0,0,0-.216,1,2.229,2.229,0,0,0,.2,1,2.1,2.1,0,0,0,.536.688,3.067,3.067,0,0,0,.76.464q0.427,0.185.873,0.328t0.873,0.275a4.37,4.37,0,0,1,.761.306,1.707,1.707,0,0,1,.535.423,0.954,0.954,0,0,1,.2.625,1.483,1.483,0,0,1-.113.576,1.3,1.3,0,0,1-.346.477,1.721,1.721,0,0,1-.585.329,2.5,2.5,0,0,1-.819.121,2.833,2.833,0,0,1-.914-0.126,3.359,3.359,0,0,1-.621-0.279q-0.256-.153-0.436-0.279a0.6,0.6,0,0,0-.342-0.126,0.48,0.48,0,0,0-.261.063,0.549,0.549,0,0,0-.171.18l-0.378.612a4.38,4.38,0,0,0,1.314.8,4.6,4.6,0,0,0,1.728.31,4.437,4.437,0,0,0,1.476-.225,3.211,3.211,0,0,0,1.08-.616,2.543,2.543,0,0,0,.666-0.927,2.981,2.981,0,0,0,.225-1.166,2.023,2.023,0,0,0-.2-0.94,2.059,2.059,0,0,0-.535-0.662,3.151,3.151,0,0,0-.756-0.45q-0.423-.18-0.869-0.328t-0.868-.279a4.668,4.668,0,0,1-.756-0.3,1.762,1.762,0,0,1-.536-0.405,0.862,0.862,0,0,1-.2-0.585,1.121,1.121,0,0,1,.121-0.517,1.256,1.256,0,0,1,.351-0.419,1.753,1.753,0,0,1,.554-0.283,2.39,2.39,0,0,1,.729-0.1,2.811,2.811,0,0,1,.81.1,3.923,3.923,0,0,1,.589.225q0.248,0.122.419,0.22a0.627,0.627,0,0,0,.306.1,0.355,0.355,0,0,0,.333-0.2Zm3.294,6.278a14.936,14.936,0,0,1-1.431,3.46,0.753,0.753,0,0,0-.072.171,0.592,0.592,0,0,0-.018.144,0.327,0.327,0,0,0,.063.207,0.633,0.633,0,0,0,.162.144l0.711,0.432a16.461,16.461,0,0,0,1.147-2.052,13.876,13.876,0,0,0,.765-2.043,14.186,14.186,0,0,0,.428-2.065,16.958,16.958,0,0,0,0-4.271,13.881,13.881,0,0,0-1.193-4.1,16.99,16.99,0,0,0-1.147-2.061l-0.711.441a0.633,0.633,0,0,0-.162.144,0.327,0.327,0,0,0-.063.207,0.671,0.671,0,0,0,.09.306,14.326,14.326,0,0,1,1.926,7.2A14.141,14.141,0,0,1,187.938,433.38Z"/>
  <path id="_This_is_a_graphical_representation_of_data." data-name="*This is a graphical representation of data." class="cls-3" d="M71.4,452.534v-1.782a1.467,1.467,0,0,0-.144-0.648,1.092,1.092,0,0,0,.225.243,2.992,2.992,0,0,0,.288.2l1.557,0.9,0.4-.675-1.557-.909a1.334,1.334,0,0,0-.3-0.148,1.5,1.5,0,0,0-.311-0.068,1.337,1.337,0,0,0,.311-0.072,1.506,1.506,0,0,0,.3-0.153l1.548-.9-0.4-.675-1.548.891a3.091,3.091,0,0,0-.275.2,1.264,1.264,0,0,0-.221.234,1.561,1.561,0,0,0,.126-0.648v-1.773H70.606v1.782a1.858,1.858,0,0,0,.031.347,1.251,1.251,0,0,0,.112.328,1.539,1.539,0,0,0-.513-0.468l-1.557-.9-0.4.675,1.557,0.909a1.263,1.263,0,0,0,.319.158,1.679,1.679,0,0,0,.338.067,1.544,1.544,0,0,0-.657.216l-1.548.9,0.4,0.675,1.548-.891a1.791,1.791,0,0,0,.477-0.405,1.155,1.155,0,0,0-.085.3,2.228,2.228,0,0,0-.022.324v1.773H71.4Zm3.276-5.13v1.467h4.185V460.3H80.6v-11.43h4.167V447.4h-10.1Zm13.662,12.9v-6.714a4.37,4.37,0,0,1,1.139-.927,2.693,2.693,0,0,1,1.328-.342,1.767,1.767,0,0,1,1.444.572,2.452,2.452,0,0,1,.473,1.606V460.3h1.6V454.5a4.762,4.762,0,0,0-.2-1.413,3.1,3.1,0,0,0-.581-1.093,2.552,2.552,0,0,0-.954-0.7,3.292,3.292,0,0,0-1.318-.248,3.471,3.471,0,0,0-1.638.374,4.918,4.918,0,0,0-1.3.994v-5.364h-1.6V460.3h1.6Zm8.577-9.117V460.3h1.6v-9.117h-1.6Zm1.868-3.307a1.222,1.222,0,0,0-.252-0.369,1.172,1.172,0,0,0-.365-0.248,1.094,1.094,0,0,0-.441-0.09,1.062,1.062,0,0,0-.436.09,1.187,1.187,0,0,0-.36.248,1.155,1.155,0,0,0-.248.369,1.124,1.124,0,0,0-.09.445,1.065,1.065,0,0,0,.09.437,1.2,1.2,0,0,0,.608.607,1.062,1.062,0,0,0,.436.09,1.094,1.094,0,0,0,.441-0.09,1.169,1.169,0,0,0,.365-0.247,1.259,1.259,0,0,0,.252-0.36,1.022,1.022,0,0,0,.094-0.437A1.078,1.078,0,0,0,98.78,447.877Zm8.537,4.225a3.824,3.824,0,0,0-1.238-.778,4.353,4.353,0,0,0-1.615-.284,4.07,4.07,0,0,0-1.377.216,3.1,3.1,0,0,0-1.017.581,2.461,2.461,0,0,0-.63.846,2.423,2.423,0,0,0-.216,1,2.229,2.229,0,0,0,.2,1,2.1,2.1,0,0,0,.536.688,3.067,3.067,0,0,0,.76.464q0.428,0.185.873,0.328t0.873,0.275a4.37,4.37,0,0,1,.761.306,1.707,1.707,0,0,1,.535.423,0.954,0.954,0,0,1,.2.625,1.483,1.483,0,0,1-.113.576,1.3,1.3,0,0,1-.346.477,1.721,1.721,0,0,1-.585.329,2.5,2.5,0,0,1-.819.121,2.833,2.833,0,0,1-.914-0.126,3.359,3.359,0,0,1-.621-0.279q-0.257-.153-0.436-0.279a0.6,0.6,0,0,0-.342-0.126,0.48,0.48,0,0,0-.261.063,0.549,0.549,0,0,0-.171.18l-0.378.612a4.38,4.38,0,0,0,1.314.8,4.6,4.6,0,0,0,1.728.31,4.437,4.437,0,0,0,1.476-.225,3.211,3.211,0,0,0,1.08-.616,2.543,2.543,0,0,0,.666-0.927,2.981,2.981,0,0,0,.225-1.166,2.023,2.023,0,0,0-.2-0.94,2.059,2.059,0,0,0-.535-0.662,3.151,3.151,0,0,0-.756-0.45q-0.423-.18-0.869-0.328t-0.868-.279a4.668,4.668,0,0,1-.756-0.3,1.762,1.762,0,0,1-.536-0.405,0.862,0.862,0,0,1-.2-0.585,1.121,1.121,0,0,1,.121-0.517,1.256,1.256,0,0,1,.351-0.419,1.753,1.753,0,0,1,.554-0.283,2.39,2.39,0,0,1,.729-0.1,2.811,2.811,0,0,1,.81.1,3.923,3.923,0,0,1,.589.225q0.247,0.122.419,0.22a0.627,0.627,0,0,0,.306.1,0.355,0.355,0,0,0,.333-0.2Zm6.6-.918V460.3h1.6v-9.117h-1.6Zm1.867-3.307a1.221,1.221,0,0,0-.252-0.369,1.17,1.17,0,0,0-.364-0.248,1.094,1.094,0,0,0-.441-0.09,1.065,1.065,0,0,0-.437.09,1.188,1.188,0,0,0-.36.248,1.155,1.155,0,0,0-.247.369,1.124,1.124,0,0,0-.09.445,1.065,1.065,0,0,0,.09.437,1.193,1.193,0,0,0,.607.607,1.065,1.065,0,0,0,.437.09,1.094,1.094,0,0,0,.441-0.09,1.167,1.167,0,0,0,.364-0.247,1.257,1.257,0,0,0,.252-0.36,1.022,1.022,0,0,0,.095-0.437A1.078,1.078,0,0,0,115.781,447.877Zm8.537,4.225a3.824,3.824,0,0,0-1.238-.778,4.353,4.353,0,0,0-1.615-.284,4.07,4.07,0,0,0-1.377.216,3.1,3.1,0,0,0-1.017.581,2.461,2.461,0,0,0-.63.846,2.423,2.423,0,0,0-.216,1,2.229,2.229,0,0,0,.2,1,2.1,2.1,0,0,0,.536.688,3.067,3.067,0,0,0,.76.464q0.427,0.185.873,0.328t0.873,0.275a4.37,4.37,0,0,1,.761.306,1.707,1.707,0,0,1,.535.423,0.954,0.954,0,0,1,.2.625,1.483,1.483,0,0,1-.113.576,1.3,1.3,0,0,1-.346.477,1.721,1.721,0,0,1-.585.329,2.5,2.5,0,0,1-.819.121,2.833,2.833,0,0,1-.914-0.126,3.359,3.359,0,0,1-.621-0.279q-0.256-.153-0.436-0.279a0.6,0.6,0,0,0-.342-0.126,0.48,0.48,0,0,0-.261.063,0.549,0.549,0,0,0-.171.18l-0.378.612a4.38,4.38,0,0,0,1.314.8,4.6,4.6,0,0,0,1.728.31,4.437,4.437,0,0,0,1.476-.225,3.211,3.211,0,0,0,1.08-.616,2.543,2.543,0,0,0,.666-0.927,2.981,2.981,0,0,0,.225-1.166,2.023,2.023,0,0,0-.2-0.94,2.059,2.059,0,0,0-.535-0.662,3.151,3.151,0,0,0-.756-0.45q-0.423-.18-0.869-0.328t-0.868-.279a4.668,4.668,0,0,1-.756-0.3,1.762,1.762,0,0,1-.536-0.405,0.862,0.862,0,0,1-.2-0.585,1.121,1.121,0,0,1,.121-0.517,1.256,1.256,0,0,1,.351-0.419,1.753,1.753,0,0,1,.554-0.283,2.39,2.39,0,0,1,.729-0.1,2.811,2.811,0,0,1,.81.1,3.923,3.923,0,0,1,.589.225q0.247,0.122.419,0.22a0.627,0.627,0,0,0,.306.1,0.355,0.355,0,0,0,.333-0.2Zm13.113,2.367a4.535,4.535,0,0,0-.207-1.4,2.973,2.973,0,0,0-.612-1.089,2.787,2.787,0,0,0-1-.7,3.453,3.453,0,0,0-1.359-.252,5.03,5.03,0,0,0-1.935.36,5.206,5.206,0,0,0-1.629,1.089l0.288,0.513a0.651,0.651,0,0,0,.193.212,0.481,0.481,0,0,0,.284.085,0.725,0.725,0,0,0,.418-0.148q0.212-.148.5-0.333a3.73,3.73,0,0,1,.693-0.333,2.855,2.855,0,0,1,.986-0.149,1.648,1.648,0,0,1,1.345.548,2.48,2.48,0,0,1,.455,1.617V455.2a11.826,11.826,0,0,0-2.619.248,6.244,6.244,0,0,0-1.733.637,2.615,2.615,0,0,0-.958.89,2.018,2.018,0,0,0-.3,1.043,2.644,2.644,0,0,0,.2,1.079,2.132,2.132,0,0,0,.545.754,2.253,2.253,0,0,0,.8.447,3.245,3.245,0,0,0,1,.149,4.615,4.615,0,0,0,.949-0.09,3.734,3.734,0,0,0,.806-0.265,4.018,4.018,0,0,0,.72-0.432q0.342-.256.7-0.581l0.18,0.846a0.4,0.4,0,0,0,.189.306,0.849,0.849,0,0,0,.378.072h0.711v-5.832Zm-4.743,4.774A1.245,1.245,0,0,1,132.22,459a1.187,1.187,0,0,1-.315-0.43,1.526,1.526,0,0,1-.117-0.625,1.154,1.154,0,0,1,.22-0.688,1.761,1.761,0,0,1,.707-0.534,5.267,5.267,0,0,1,1.26-.367,10.8,10.8,0,0,1,1.881-.14V458.1a5.15,5.15,0,0,1-.554.513,3.509,3.509,0,0,1-.594.383,3.051,3.051,0,0,1-.661.243,3.271,3.271,0,0,1-.774.085A2.139,2.139,0,0,1,132.688,459.243Zm12.721-8a3.271,3.271,0,0,0-1.093.59,2.678,2.678,0,0,0-.716.927,2.8,2.8,0,0,0-.256,1.21,2.749,2.749,0,0,0,.382,1.463,2.837,2.837,0,0,0,1.058,1,2.37,2.37,0,0,0-.5.333,2.309,2.309,0,0,0-.365.395,1.605,1.605,0,0,0-.22.418,1.265,1.265,0,0,0-.072.409,1.294,1.294,0,0,0,.229.8,1.611,1.611,0,0,0,.617.481,2.935,2.935,0,0,0-1.175.752,1.651,1.651,0,0,0-.427,1.149,1.827,1.827,0,0,0,.247.914,2.317,2.317,0,0,0,.743.77,4.091,4.091,0,0,0,1.246.532,6.915,6.915,0,0,0,1.751.2,5.739,5.739,0,0,0,1.791-.26,4.325,4.325,0,0,0,1.341-.692,3.1,3.1,0,0,0,.841-0.989,2.433,2.433,0,0,0,.293-1.147,1.872,1.872,0,0,0-.261-1.039,1.835,1.835,0,0,0-.693-0.629,3.4,3.4,0,0,0-.981-0.328,6.307,6.307,0,0,0-1.121-.1h-1.12a5.886,5.886,0,0,1-.981-0.074,1.818,1.818,0,0,1-.693-0.247,0.569,0.569,0,0,1-.261-0.507,0.737,0.737,0,0,1,.148-0.419,1.544,1.544,0,0,1,.437-0.4,4.612,4.612,0,0,0,1.206.153,4.344,4.344,0,0,0,1.372-.207,3.191,3.191,0,0,0,1.08-.594,2.744,2.744,0,0,0,.711-0.931,2.808,2.808,0,0,0,.257-1.211,2.772,2.772,0,0,0-.306-1.3l1.035-.144a0.39,0.39,0,0,0,.378-0.378v-0.594h-2.475a3.5,3.5,0,0,0-.941-0.382,4.53,4.53,0,0,0-1.111-.131A4.465,4.465,0,0,0,145.409,451.238Zm4.046,10.2a1.651,1.651,0,0,1-.545.523,2.886,2.886,0,0,1-.868.34,5.848,5.848,0,0,1-2.318.006A2.815,2.815,0,0,1,144.91,462a1.346,1.346,0,0,1-.482-0.46,1.1,1.1,0,0,1-.157-0.572,1.2,1.2,0,0,1,.319-0.838,2.619,2.619,0,0,1,.833-0.6,3.475,3.475,0,0,0,.927.121H147.3a7.034,7.034,0,0,1,.891.055,3.646,3.646,0,0,1,.747.17,1.21,1.21,0,0,1,.513.326,0.808,0.808,0,0,1,.189.56A1.242,1.242,0,0,1,149.455,461.434Zm-3.5-5.723a1.744,1.744,0,0,1-.621-0.378,1.593,1.593,0,0,1-.383-0.58,2.045,2.045,0,0,1-.13-0.743,1.773,1.773,0,0,1,.508-1.332,2.448,2.448,0,0,1,2.952,0,1.774,1.774,0,0,1,.509,1.332,2.111,2.111,0,0,1-.126.743,1.544,1.544,0,0,1-.378.58,1.74,1.74,0,0,1-.626.378,2.519,2.519,0,0,1-.859.135A2.454,2.454,0,0,1,145.954,455.711Zm8.379,4.59V454.5a3.648,3.648,0,0,1,.94-1.413,2.066,2.066,0,0,1,1.4-.486,2.438,2.438,0,0,1,.729.086,1.4,1.4,0,0,0,.387.085,0.271,0.271,0,0,0,.279-0.225l0.207-1.2a2.383,2.383,0,0,0-.567-0.238,2.72,2.72,0,0,0-2.3.45,4.167,4.167,0,0,0-1.156,1.489l-0.108-1.422a0.607,0.607,0,0,0-.135-0.342,0.507,0.507,0,0,0-.36-0.1h-0.918V460.3h1.6Zm11.754-5.832a4.535,4.535,0,0,0-.207-1.4,2.973,2.973,0,0,0-.612-1.089,2.787,2.787,0,0,0-1-.7,3.453,3.453,0,0,0-1.359-.252,5.03,5.03,0,0,0-1.935.36,5.206,5.206,0,0,0-1.629,1.089l0.288,0.513a0.651,0.651,0,0,0,.193.212,0.481,0.481,0,0,0,.284.085,0.725,0.725,0,0,0,.418-0.148q0.212-.148.5-0.333a3.73,3.73,0,0,1,.693-0.333,2.855,2.855,0,0,1,.986-0.149,1.648,1.648,0,0,1,1.345.548,2.48,2.48,0,0,1,.455,1.617V455.2a11.826,11.826,0,0,0-2.619.248,6.244,6.244,0,0,0-1.733.637,2.615,2.615,0,0,0-.958.89,2.018,2.018,0,0,0-.3,1.043,2.644,2.644,0,0,0,.2,1.079,2.132,2.132,0,0,0,.545.754,2.253,2.253,0,0,0,.805.447,3.245,3.245,0,0,0,1,.149,4.615,4.615,0,0,0,.949-0.09,3.734,3.734,0,0,0,.806-0.265,4.018,4.018,0,0,0,.72-0.432q0.342-.256.7-0.581l0.18,0.846a0.4,0.4,0,0,0,.189.306,0.849,0.849,0,0,0,.378.072h0.711v-5.832Zm-4.743,4.774a1.245,1.245,0,0,1-.468-0.244,1.187,1.187,0,0,1-.315-0.43,1.526,1.526,0,0,1-.117-0.625,1.154,1.154,0,0,1,.22-0.688,1.761,1.761,0,0,1,.707-0.534,5.267,5.267,0,0,1,1.26-.367,10.8,10.8,0,0,1,1.881-.14V458.1a5.15,5.15,0,0,1-.554.513,3.509,3.509,0,0,1-.594.383,3.051,3.051,0,0,1-.661.243,3.271,3.271,0,0,1-.774.085A2.139,2.139,0,0,1,161.344,459.243Zm8.649,4.145v-4.032a3.253,3.253,0,0,0,1.057.792,3.4,3.4,0,0,0,1.445.279,3.658,3.658,0,0,0,1.651-.364,3.616,3.616,0,0,0,1.238-1,4.57,4.57,0,0,0,.774-1.5,6.294,6.294,0,0,0,.27-1.877,7.506,7.506,0,0,0-.243-2.007,4.27,4.27,0,0,0-.693-1.462,2.932,2.932,0,0,0-1.089-.891,3.291,3.291,0,0,0-1.422-.3,3.416,3.416,0,0,0-1.733.432,4.865,4.865,0,0,0-1.336,1.143l-0.135-1.08a0.408,0.408,0,0,0-.432-0.333h-0.954v12.2h1.6Zm3.438-10.881a1.77,1.77,0,0,1,.729.6,2.989,2.989,0,0,1,.454,1.048,6.465,6.465,0,0,1,.158,1.53,4.246,4.246,0,0,1-.684,2.592,2.3,2.3,0,0,1-1.953.909,2.772,2.772,0,0,1-1.175-.243,2.575,2.575,0,0,1-.967-0.837V453.7a3.955,3.955,0,0,1,1.084-1.017,2.582,2.582,0,0,1,1.373-.36A2.425,2.425,0,0,1,173.431,452.507Zm6.561,7.794v-6.714a4.37,4.37,0,0,1,1.138-.927,2.7,2.7,0,0,1,1.328-.342,1.766,1.766,0,0,1,1.444.572,2.453,2.453,0,0,1,.473,1.606V460.3h1.6V454.5a4.759,4.759,0,0,0-.2-1.413,3.1,3.1,0,0,0-.581-1.093,2.551,2.551,0,0,0-.954-0.7,3.289,3.289,0,0,0-1.318-.248,3.471,3.471,0,0,0-1.638.374,4.918,4.918,0,0,0-1.3.994v-5.364h-1.6V460.3h1.6Zm8.577-9.117V460.3h1.6v-9.117h-1.6Zm1.867-3.307a1.221,1.221,0,0,0-.252-0.369,1.17,1.17,0,0,0-.364-0.248,1.094,1.094,0,0,0-.441-0.09,1.065,1.065,0,0,0-.437.09,1.188,1.188,0,0,0-.36.248,1.155,1.155,0,0,0-.247.369,1.124,1.124,0,0,0-.09.445,1.065,1.065,0,0,0,.09.437,1.193,1.193,0,0,0,.607.607,1.065,1.065,0,0,0,.437.09,1.094,1.094,0,0,0,.441-0.09,1.167,1.167,0,0,0,.364-0.247,1.257,1.257,0,0,0,.252-0.36,1.022,1.022,0,0,0,.095-0.437A1.078,1.078,0,0,0,190.436,447.877Zm9.6,4.351a4.048,4.048,0,0,0-1.305-.877,4.331,4.331,0,0,0-1.692-.311,4.535,4.535,0,0,0-1.836.351,3.756,3.756,0,0,0-1.346.977,4.26,4.26,0,0,0-.828,1.489,6,6,0,0,0-.283,1.881,5.916,5.916,0,0,0,.31,1.989,4.338,4.338,0,0,0,.851,1.472,3.619,3.619,0,0,0,1.273.913,3.985,3.985,0,0,0,1.589.315,5.265,5.265,0,0,0,1.881-.337,3.465,3.465,0,0,0,1.485-1.067l-0.45-.585a0.339,0.339,0,0,0-.306-0.153,0.5,0.5,0,0,0-.324.14,4.623,4.623,0,0,1-.414.31,2.934,2.934,0,0,1-.63.311,2.819,2.819,0,0,1-.963.139,2.573,2.573,0,0,1-1.1-.229,2.264,2.264,0,0,1-.832-0.666,3.188,3.188,0,0,1-.531-1.08,5.232,5.232,0,0,1-.189-1.472,5.4,5.4,0,0,1,.175-1.431,3.116,3.116,0,0,1,.522-1.089,2.287,2.287,0,0,1,.86-0.688,3.117,3.117,0,0,1,2.029-.126,3.361,3.361,0,0,1,.59.247,4.24,4.24,0,0,1,.4.248,0.514,0.514,0,0,0,.293.112,0.34,0.34,0,0,0,.207-0.054,0.715,0.715,0,0,0,.144-0.153Zm8.055,2.241a4.535,4.535,0,0,0-.207-1.4,2.973,2.973,0,0,0-.612-1.089,2.787,2.787,0,0,0-1-.7,3.453,3.453,0,0,0-1.359-.252,5.03,5.03,0,0,0-1.935.36,5.206,5.206,0,0,0-1.629,1.089l0.288,0.513a0.651,0.651,0,0,0,.193.212,0.481,0.481,0,0,0,.284.085,0.725,0.725,0,0,0,.418-0.148q0.211-.148.5-0.333a3.73,3.73,0,0,1,.693-0.333,2.855,2.855,0,0,1,.986-0.149,1.648,1.648,0,0,1,1.345.548,2.48,2.48,0,0,1,.455,1.617V455.2a11.826,11.826,0,0,0-2.619.248,6.244,6.244,0,0,0-1.733.637,2.615,2.615,0,0,0-.958.89,2.018,2.018,0,0,0-.3,1.043,2.644,2.644,0,0,0,.2,1.079,2.132,2.132,0,0,0,.545.754,2.253,2.253,0,0,0,.805.447,3.245,3.245,0,0,0,1,.149,4.615,4.615,0,0,0,.949-0.09,3.734,3.734,0,0,0,.806-0.265,4.018,4.018,0,0,0,.72-0.432q0.342-.256.7-0.581l0.18,0.846a0.4,0.4,0,0,0,.189.306,0.849,0.849,0,0,0,.378.072h0.711v-5.832Zm-4.743,4.774a1.245,1.245,0,0,1-.468-0.244,1.187,1.187,0,0,1-.315-0.43,1.526,1.526,0,0,1-.117-0.625,1.154,1.154,0,0,1,.22-0.688,1.761,1.761,0,0,1,.707-0.534,5.267,5.267,0,0,1,1.26-.367,10.8,10.8,0,0,1,1.881-.14V458.1a5.15,5.15,0,0,1-.554.513,3.509,3.509,0,0,1-.594.383,3.051,3.051,0,0,1-.661.243,3.271,3.271,0,0,1-.774.085A2.139,2.139,0,0,1,203.347,459.243Zm7.227-12.2V460.3h1.6V447.044h-1.6ZM221,460.3V454.5a3.648,3.648,0,0,1,.94-1.413,2.066,2.066,0,0,1,1.4-.486,2.438,2.438,0,0,1,.729.086,1.4,1.4,0,0,0,.387.085,0.271,0.271,0,0,0,.279-0.225l0.207-1.2a2.383,2.383,0,0,0-.567-0.238,2.72,2.72,0,0,0-2.3.45,4.167,4.167,0,0,0-1.156,1.489l-0.108-1.422a0.607,0.607,0,0,0-.135-0.342,0.507,0.507,0,0,0-.36-0.1h-0.918V460.3H221Zm7.227-8.914a3.874,3.874,0,0,0-1.341.954,4.2,4.2,0,0,0-.842,1.435,5.312,5.312,0,0,0-.292,1.782,6.2,6.2,0,0,0,.324,2.088,4.3,4.3,0,0,0,.9,1.526,3.822,3.822,0,0,0,1.377.936,4.658,4.658,0,0,0,1.742.319,5.963,5.963,0,0,0,1-.085,5.626,5.626,0,0,0,.976-0.257,4.429,4.429,0,0,0,.887-0.436,3.045,3.045,0,0,0,.711-0.626l-0.45-.585a0.353,0.353,0,0,0-.306-0.153,0.7,0.7,0,0,0-.365.14,5.725,5.725,0,0,1-.526.3,4.951,4.951,0,0,1-.752.3,3.43,3.43,0,0,1-1.039.139,3.091,3.091,0,0,1-1.17-.211,2.38,2.38,0,0,1-.9-0.639,3.076,3.076,0,0,1-.594-1.067,5.033,5.033,0,0,1-.234-1.5H233.4a0.336,0.336,0,0,0,.306-0.126,1.045,1.045,0,0,0,.081-0.5,4.934,4.934,0,0,0-.284-1.732,3.61,3.61,0,0,0-.787-1.278,3.394,3.394,0,0,0-1.2-.792,4.07,4.07,0,0,0-1.512-.275A4.4,4.4,0,0,0,228.223,451.387Zm2.794,1.017a2.016,2.016,0,0,1,.725.522,2.276,2.276,0,0,1,.45.8,3.241,3.241,0,0,1,.153,1.021h-4.959a3.154,3.154,0,0,1,.828-1.858A2.77,2.77,0,0,1,231.017,452.4ZM237,463.388v-4.032a3.253,3.253,0,0,0,1.057.792,3.4,3.4,0,0,0,1.445.279,3.658,3.658,0,0,0,1.651-.364,3.616,3.616,0,0,0,1.238-1,4.57,4.57,0,0,0,.774-1.5,6.294,6.294,0,0,0,.27-1.877,7.506,7.506,0,0,0-.243-2.007,4.27,4.27,0,0,0-.693-1.462,2.932,2.932,0,0,0-1.089-.891,3.291,3.291,0,0,0-1.422-.3,3.416,3.416,0,0,0-1.733.432,4.865,4.865,0,0,0-1.336,1.143l-0.135-1.08a0.408,0.408,0,0,0-.432-0.333H235.4v12.2H237Zm3.438-10.881a1.77,1.77,0,0,1,.729.6,2.989,2.989,0,0,1,.454,1.048,6.465,6.465,0,0,1,.158,1.53,4.246,4.246,0,0,1-.684,2.592,2.3,2.3,0,0,1-1.953.909,2.772,2.772,0,0,1-1.175-.243,2.575,2.575,0,0,1-.967-0.837V453.7a3.955,3.955,0,0,1,1.084-1.017,2.582,2.582,0,0,1,1.373-.36A2.425,2.425,0,0,1,240.436,452.507ZM247,460.3V454.5a3.648,3.648,0,0,1,.94-1.413,2.066,2.066,0,0,1,1.4-.486,2.438,2.438,0,0,1,.729.086,1.4,1.4,0,0,0,.387.085,0.271,0.271,0,0,0,.279-0.225l0.207-1.2a2.383,2.383,0,0,0-.567-0.238,2.72,2.72,0,0,0-2.3.45,4.167,4.167,0,0,0-1.156,1.489l-0.108-1.422a0.607,0.607,0,0,0-.135-0.342,0.507,0.507,0,0,0-.36-0.1H245.4V460.3H247Zm7.227-8.914a3.874,3.874,0,0,0-1.341.954,4.2,4.2,0,0,0-.842,1.435,5.312,5.312,0,0,0-.292,1.782,6.2,6.2,0,0,0,.324,2.088,4.3,4.3,0,0,0,.9,1.526,3.822,3.822,0,0,0,1.377.936,4.658,4.658,0,0,0,1.742.319,5.963,5.963,0,0,0,1-.085,5.626,5.626,0,0,0,.976-0.257,4.429,4.429,0,0,0,.887-0.436,3.045,3.045,0,0,0,.711-0.626l-0.45-.585a0.353,0.353,0,0,0-.306-0.153,0.7,0.7,0,0,0-.365.14,5.725,5.725,0,0,1-.526.3,4.951,4.951,0,0,1-.752.3,3.43,3.43,0,0,1-1.039.139,3.091,3.091,0,0,1-1.17-.211,2.38,2.38,0,0,1-.9-0.639,3.076,3.076,0,0,1-.594-1.067,5.033,5.033,0,0,1-.234-1.5H259.4a0.336,0.336,0,0,0,.306-0.126,1.045,1.045,0,0,0,.081-0.5,4.934,4.934,0,0,0-.284-1.732,3.61,3.61,0,0,0-.787-1.278,3.394,3.394,0,0,0-1.2-.792,4.07,4.07,0,0,0-1.512-.275A4.4,4.4,0,0,0,254.224,451.387Zm2.794,1.017a2.016,2.016,0,0,1,.725.522,2.276,2.276,0,0,1,.45.8,3.241,3.241,0,0,1,.153,1.021h-4.959a3.154,3.154,0,0,1,.828-1.858A2.77,2.77,0,0,1,257.018,452.4Zm9.959-.3a3.824,3.824,0,0,0-1.238-.778,4.353,4.353,0,0,0-1.615-.284,4.07,4.07,0,0,0-1.377.216,3.1,3.1,0,0,0-1.017.581,2.461,2.461,0,0,0-.63.846,2.423,2.423,0,0,0-.216,1,2.229,2.229,0,0,0,.2,1,2.1,2.1,0,0,0,.536.688,3.067,3.067,0,0,0,.76.464q0.427,0.185.873,0.328t0.873,0.275a4.37,4.37,0,0,1,.761.306,1.707,1.707,0,0,1,.535.423,0.954,0.954,0,0,1,.2.625,1.483,1.483,0,0,1-.113.576,1.3,1.3,0,0,1-.346.477,1.721,1.721,0,0,1-.585.329,2.5,2.5,0,0,1-.819.121,2.833,2.833,0,0,1-.914-0.126,3.359,3.359,0,0,1-.621-0.279q-0.257-.153-0.436-0.279a0.6,0.6,0,0,0-.342-0.126,0.48,0.48,0,0,0-.261.063,0.549,0.549,0,0,0-.171.18l-0.378.612a4.38,4.38,0,0,0,1.314.8,4.6,4.6,0,0,0,1.728.31,4.437,4.437,0,0,0,1.476-.225,3.211,3.211,0,0,0,1.08-.616,2.543,2.543,0,0,0,.666-0.927,2.981,2.981,0,0,0,.225-1.166,2.023,2.023,0,0,0-.2-0.94,2.059,2.059,0,0,0-.535-0.662,3.151,3.151,0,0,0-.756-0.45q-0.423-.18-0.869-0.328t-0.868-.279a4.668,4.668,0,0,1-.756-0.3,1.762,1.762,0,0,1-.536-0.405,0.862,0.862,0,0,1-.2-0.585,1.121,1.121,0,0,1,.121-0.517,1.256,1.256,0,0,1,.351-0.419,1.753,1.753,0,0,1,.554-0.283,2.39,2.39,0,0,1,.729-0.1,2.811,2.811,0,0,1,.81.1,3.923,3.923,0,0,1,.589.225q0.247,0.122.419,0.22a0.627,0.627,0,0,0,.306.1,0.355,0.355,0,0,0,.333-0.2Zm4.248-.715a3.874,3.874,0,0,0-1.341.954,4.2,4.2,0,0,0-.842,1.435,5.312,5.312,0,0,0-.292,1.782,6.2,6.2,0,0,0,.324,2.088,4.3,4.3,0,0,0,.9,1.526,3.822,3.822,0,0,0,1.377.936,4.658,4.658,0,0,0,1.742.319,5.963,5.963,0,0,0,1-.085,5.626,5.626,0,0,0,.976-0.257,4.429,4.429,0,0,0,.887-0.436,3.045,3.045,0,0,0,.711-0.626l-0.45-.585a0.353,0.353,0,0,0-.306-0.153,0.7,0.7,0,0,0-.365.14,5.725,5.725,0,0,1-.526.3,4.951,4.951,0,0,1-.752.3,3.43,3.43,0,0,1-1.039.139,3.091,3.091,0,0,1-1.17-.211,2.38,2.38,0,0,1-.9-0.639,3.076,3.076,0,0,1-.594-1.067,5.033,5.033,0,0,1-.234-1.5H276.4a0.336,0.336,0,0,0,.306-0.126,1.045,1.045,0,0,0,.081-0.5,4.934,4.934,0,0,0-.284-1.732,3.61,3.61,0,0,0-.787-1.278,3.394,3.394,0,0,0-1.2-.792,4.07,4.07,0,0,0-1.512-.275A4.4,4.4,0,0,0,271.225,451.387Zm2.794,1.017a2.016,2.016,0,0,1,.725.522,2.276,2.276,0,0,1,.45.8,3.241,3.241,0,0,1,.153,1.021h-4.959a3.154,3.154,0,0,1,.828-1.858A2.77,2.77,0,0,1,274.019,452.4ZM280,460.3v-6.714a4.37,4.37,0,0,1,1.138-.927,2.7,2.7,0,0,1,1.328-.342,1.766,1.766,0,0,1,1.444.572,2.453,2.453,0,0,1,.473,1.606V460.3h1.6V454.5a4.759,4.759,0,0,0-.2-1.413,3.1,3.1,0,0,0-.581-1.093,2.551,2.551,0,0,0-.954-0.7,3.289,3.289,0,0,0-1.318-.248,3.455,3.455,0,0,0-1.7.4,5.122,5.122,0,0,0-1.327,1.062l-0.126-.99a0.408,0.408,0,0,0-.432-0.333H278.4V460.3H280Zm12.366-.076a2.986,2.986,0,0,0,1-.608l-0.468-.765a0.276,0.276,0,0,0-.225-0.153,0.3,0.3,0,0,0-.167.068c-0.063.045-.139,0.094-0.229,0.148a1.879,1.879,0,0,1-.32.149,1.269,1.269,0,0,1-.436.067,0.974,0.974,0,0,1-.72-0.279,1.164,1.164,0,0,1-.279-0.855v-5.472h2.61v-1.161h-2.61v-3.141h-0.81a0.372,0.372,0,0,0-.252.086,0.339,0.339,0,0,0-.117.22l-0.369,2.817-1.494.189v0.639a0.333,0.333,0,0,0,.1.266,0.358,0.358,0,0,0,.243.085h1.1v5.58a2.406,2.406,0,0,0,.58,1.737,2.2,2.2,0,0,0,1.661.6A3.392,3.392,0,0,0,292.366,460.225Zm9.729-5.756a4.535,4.535,0,0,0-.207-1.4,2.973,2.973,0,0,0-.612-1.089,2.787,2.787,0,0,0-1-.7,3.453,3.453,0,0,0-1.359-.252,5.03,5.03,0,0,0-1.935.36,5.206,5.206,0,0,0-1.629,1.089l0.288,0.513a0.651,0.651,0,0,0,.193.212,0.481,0.481,0,0,0,.284.085,0.725,0.725,0,0,0,.418-0.148q0.212-.148.5-0.333a3.73,3.73,0,0,1,.693-0.333,2.855,2.855,0,0,1,.986-0.149,1.648,1.648,0,0,1,1.345.548,2.48,2.48,0,0,1,.455,1.617V455.2a11.826,11.826,0,0,0-2.619.248,6.244,6.244,0,0,0-1.733.637,2.615,2.615,0,0,0-.958.89,2.018,2.018,0,0,0-.3,1.043,2.644,2.644,0,0,0,.2,1.079,2.132,2.132,0,0,0,.545.754,2.253,2.253,0,0,0,.8.447,3.245,3.245,0,0,0,1,.149,4.615,4.615,0,0,0,.949-0.09,3.734,3.734,0,0,0,.806-0.265,4.018,4.018,0,0,0,.72-0.432q0.342-.256.7-0.581l0.18,0.846a0.4,0.4,0,0,0,.189.306,0.849,0.849,0,0,0,.378.072H302.1v-5.832Zm-4.743,4.774a1.245,1.245,0,0,1-.468-0.244,1.187,1.187,0,0,1-.315-0.43,1.526,1.526,0,0,1-.117-0.625,1.154,1.154,0,0,1,.22-0.688,1.761,1.761,0,0,1,.707-0.534,5.267,5.267,0,0,1,1.26-.367,10.8,10.8,0,0,1,1.881-.14V458.1a5.15,5.15,0,0,1-.554.513,3.509,3.509,0,0,1-.594.383,3.051,3.051,0,0,1-.661.243,3.271,3.271,0,0,1-.774.085A2.139,2.139,0,0,1,297.352,459.243Zm11.016,0.982a2.986,2.986,0,0,0,1-.608l-0.468-.765a0.276,0.276,0,0,0-.225-0.153,0.3,0.3,0,0,0-.167.068c-0.063.045-.139,0.094-0.229,0.148a1.879,1.879,0,0,1-.32.149,1.269,1.269,0,0,1-.436.067,0.974,0.974,0,0,1-.72-0.279,1.164,1.164,0,0,1-.279-0.855v-5.472h2.61v-1.161h-2.61v-3.141h-0.81a0.372,0.372,0,0,0-.252.086,0.339,0.339,0,0,0-.117.22l-0.369,2.817-1.494.189v0.639a0.333,0.333,0,0,0,.1.266,0.358,0.358,0,0,0,.243.085h1.1v5.58a2.406,2.406,0,0,0,.58,1.737,2.2,2.2,0,0,0,1.661.6A3.392,3.392,0,0,0,308.368,460.225Zm3.213-9.041V460.3h1.6v-9.117h-1.6Zm1.867-3.307a1.221,1.221,0,0,0-.252-0.369,1.17,1.17,0,0,0-.364-0.248,1.094,1.094,0,0,0-.441-0.09,1.065,1.065,0,0,0-.437.09,1.188,1.188,0,0,0-.36.248,1.155,1.155,0,0,0-.247.369,1.124,1.124,0,0,0-.09.445,1.065,1.065,0,0,0,.09.437,1.193,1.193,0,0,0,.607.607,1.065,1.065,0,0,0,.437.09,1.094,1.094,0,0,0,.441-0.09,1.167,1.167,0,0,0,.364-0.247,1.257,1.257,0,0,0,.252-0.36,1.022,1.022,0,0,0,.1-0.437A1.078,1.078,0,0,0,313.448,447.877Zm4.842,3.5a3.846,3.846,0,0,0-1.372.945,4.2,4.2,0,0,0-.873,1.481,6.312,6.312,0,0,0,0,3.883,4.208,4.208,0,0,0,.873,1.476,3.8,3.8,0,0,0,1.372.941,5.128,5.128,0,0,0,3.609,0,3.758,3.758,0,0,0,1.368-.941,4.19,4.19,0,0,0,.864-1.476,6.392,6.392,0,0,0,0-3.883,4.186,4.186,0,0,0-.864-1.481,3.8,3.8,0,0,0-1.368-.945A5.056,5.056,0,0,0,318.29,451.373Zm0.617,7.569a2.241,2.241,0,0,1-.842-0.67,2.956,2.956,0,0,1-.5-1.076,6.425,6.425,0,0,1,0-2.9,3,3,0,0,1,.5-1.085,2.225,2.225,0,0,1,.842-0.675,2.8,2.8,0,0,1,1.188-.234,2.336,2.336,0,0,1,2.016.909,5.144,5.144,0,0,1,0,5.063,2.34,2.34,0,0,1-2.016.9A2.8,2.8,0,0,1,318.907,458.942Zm9.1,1.359v-6.714a4.37,4.37,0,0,1,1.138-.927,2.7,2.7,0,0,1,1.328-.342,1.766,1.766,0,0,1,1.444.572,2.453,2.453,0,0,1,.473,1.606V460.3h1.6V454.5a4.759,4.759,0,0,0-.2-1.413,3.1,3.1,0,0,0-.581-1.093,2.551,2.551,0,0,0-.954-0.7,3.289,3.289,0,0,0-1.318-.248,3.455,3.455,0,0,0-1.7.4,5.122,5.122,0,0,0-1.327,1.062l-0.126-.99a0.408,0.408,0,0,0-.432-0.333H326.4V460.3h1.6Zm14.278-8.928a3.846,3.846,0,0,0-1.372.945,4.2,4.2,0,0,0-.873,1.481,6.312,6.312,0,0,0,0,3.883,4.208,4.208,0,0,0,.873,1.476,3.8,3.8,0,0,0,1.372.941,5.128,5.128,0,0,0,3.609,0,3.758,3.758,0,0,0,1.368-.941,4.19,4.19,0,0,0,.864-1.476,6.392,6.392,0,0,0,0-3.883,4.186,4.186,0,0,0-.864-1.481,3.8,3.8,0,0,0-1.368-.945A5.056,5.056,0,0,0,342.284,451.373Zm0.617,7.569a2.241,2.241,0,0,1-.842-0.67,2.956,2.956,0,0,1-.5-1.076,6.425,6.425,0,0,1,0-2.9,3,3,0,0,1,.5-1.085,2.225,2.225,0,0,1,.842-0.675,2.8,2.8,0,0,1,1.188-.234,2.336,2.336,0,0,1,2.016.909,5.144,5.144,0,0,1,0,5.063,2.34,2.34,0,0,1-2.016.9A2.8,2.8,0,0,1,342.9,458.942Zm9.468,1.359v-7.776h2.583v-1.161h-2.637v-0.837a3.171,3.171,0,0,1,.13-0.981,1.59,1.59,0,0,1,.374-0.639,1.418,1.418,0,0,1,.58-0.351,2.461,2.461,0,0,1,.752-0.108h0.279a1.76,1.76,0,0,0,.4-0.036,0.2,0.2,0,0,0,.153-0.216l0.036-.8a3.457,3.457,0,0,0-1.134-.18,3.67,3.67,0,0,0-1.3.216,2.673,2.673,0,0,0-.986.635,2.819,2.819,0,0,0-.63,1.026,4.059,4.059,0,0,0-.22,1.39v0.882h-1.44v0.657a0.327,0.327,0,0,0,.121.275,0.8,0.8,0,0,0,.311.139l1.008,0.117V460.3h1.611Zm15.4,0V447.044h-1.6V452.1a3.429,3.429,0,0,0-1.062-.8,3.3,3.3,0,0,0-1.431-.284,3.577,3.577,0,0,0-2.894,1.368A4.575,4.575,0,0,0,360,453.9a6.287,6.287,0,0,0-.27,1.876,7.506,7.506,0,0,0,.243,2.007,4.223,4.223,0,0,0,.693,1.458,2.95,2.95,0,0,0,1.089.887,3.291,3.291,0,0,0,1.422.3A3.422,3.422,0,0,0,364.9,460a4.8,4.8,0,0,0,1.337-1.139l0.144,1.107a0.408,0.408,0,0,0,.432.333h0.954Zm-5.049-1.359a1.767,1.767,0,0,1-.729-0.6,2.935,2.935,0,0,1-.45-1.044,6.6,6.6,0,0,1-.153-1.526,4.246,4.246,0,0,1,.684-2.592,2.308,2.308,0,0,1,1.962-.909,2.79,2.79,0,0,1,1.165.239,2.534,2.534,0,0,1,.968.832v4.41a3.958,3.958,0,0,1-1.085,1.017,2.579,2.579,0,0,1-1.372.36A2.449,2.449,0,0,1,362.719,458.942Zm14.373-4.473a4.535,4.535,0,0,0-.207-1.4,2.973,2.973,0,0,0-.612-1.089,2.787,2.787,0,0,0-1-.7,3.453,3.453,0,0,0-1.359-.252,5.03,5.03,0,0,0-1.935.36,5.206,5.206,0,0,0-1.629,1.089l0.288,0.513a0.651,0.651,0,0,0,.193.212,0.481,0.481,0,0,0,.284.085,0.725,0.725,0,0,0,.418-0.148q0.212-.148.5-0.333a3.73,3.73,0,0,1,.693-0.333,2.855,2.855,0,0,1,.986-0.149,1.648,1.648,0,0,1,1.345.548,2.48,2.48,0,0,1,.455,1.617V455.2a11.826,11.826,0,0,0-2.619.248,6.244,6.244,0,0,0-1.733.637,2.615,2.615,0,0,0-.958.89,2.018,2.018,0,0,0-.3,1.043,2.644,2.644,0,0,0,.2,1.079,2.132,2.132,0,0,0,.545.754,2.253,2.253,0,0,0,.805.447,3.245,3.245,0,0,0,1,.149,4.615,4.615,0,0,0,.949-0.09,3.734,3.734,0,0,0,.806-0.265,4.018,4.018,0,0,0,.72-0.432q0.342-.256.7-0.581l0.18,0.846a0.4,0.4,0,0,0,.189.306,0.849,0.849,0,0,0,.378.072h0.711v-5.832Zm-4.743,4.774a1.245,1.245,0,0,1-.468-0.244,1.187,1.187,0,0,1-.315-0.43,1.526,1.526,0,0,1-.117-0.625,1.154,1.154,0,0,1,.22-0.688,1.761,1.761,0,0,1,.707-0.534,5.267,5.267,0,0,1,1.26-.367,10.8,10.8,0,0,1,1.881-.14V458.1a5.15,5.15,0,0,1-.554.513,3.509,3.509,0,0,1-.594.383,3.051,3.051,0,0,1-.661.243,3.271,3.271,0,0,1-.774.085A2.139,2.139,0,0,1,372.349,459.243Zm11.016,0.982a2.986,2.986,0,0,0,1-.608l-0.468-.765a0.276,0.276,0,0,0-.225-0.153,0.3,0.3,0,0,0-.167.068c-0.063.045-.139,0.094-0.229,0.148a1.879,1.879,0,0,1-.32.149,1.269,1.269,0,0,1-.436.067,0.974,0.974,0,0,1-.72-0.279A1.164,1.164,0,0,1,381.52,458v-5.472h2.61v-1.161h-2.61v-3.141h-0.81a0.372,0.372,0,0,0-.252.086,0.339,0.339,0,0,0-.117.22l-0.369,2.817-1.494.189v0.639a0.333,0.333,0,0,0,.1.266,0.358,0.358,0,0,0,.243.085h1.1v5.58a2.406,2.406,0,0,0,.58,1.737,2.2,2.2,0,0,0,1.661.6A3.392,3.392,0,0,0,383.365,460.225Zm9.729-5.756a4.535,4.535,0,0,0-.207-1.4,2.973,2.973,0,0,0-.612-1.089,2.787,2.787,0,0,0-1-.7,3.453,3.453,0,0,0-1.359-.252,5.03,5.03,0,0,0-1.935.36,5.206,5.206,0,0,0-1.629,1.089l0.288,0.513a0.651,0.651,0,0,0,.193.212,0.481,0.481,0,0,0,.284.085,0.725,0.725,0,0,0,.418-0.148q0.212-.148.5-0.333a3.73,3.73,0,0,1,.693-0.333,2.855,2.855,0,0,1,.986-0.149,1.648,1.648,0,0,1,1.345.548,2.48,2.48,0,0,1,.455,1.617V455.2a11.826,11.826,0,0,0-2.619.248,6.244,6.244,0,0,0-1.733.637,2.615,2.615,0,0,0-.958.89,2.018,2.018,0,0,0-.3,1.043,2.644,2.644,0,0,0,.2,1.079,2.132,2.132,0,0,0,.545.754,2.253,2.253,0,0,0,.805.447,3.245,3.245,0,0,0,1,.149,4.615,4.615,0,0,0,.949-0.09,3.734,3.734,0,0,0,.806-0.265,4.018,4.018,0,0,0,.72-0.432q0.342-.256.7-0.581l0.18,0.846a0.4,0.4,0,0,0,.189.306,0.849,0.849,0,0,0,.378.072h0.711v-5.832Zm-4.743,4.774a1.245,1.245,0,0,1-.468-0.244,1.187,1.187,0,0,1-.315-0.43,1.526,1.526,0,0,1-.117-0.625,1.154,1.154,0,0,1,.22-0.688,1.761,1.761,0,0,1,.707-0.534,5.267,5.267,0,0,1,1.26-.367,10.8,10.8,0,0,1,1.881-.14V458.1a5.15,5.15,0,0,1-.554.513,3.509,3.509,0,0,1-.594.383,3.051,3.051,0,0,1-.661.243,3.271,3.271,0,0,1-.774.085A2.139,2.139,0,0,1,388.351,459.243Zm6.61,0.514a1.142,1.142,0,0,0,.234.355,1.048,1.048,0,0,0,.356.239,1.187,1.187,0,0,0,.882,0,1.1,1.1,0,0,0,.6-0.594,1.187,1.187,0,0,0,0-.887,1.092,1.092,0,0,0-.238-0.36,1.154,1.154,0,0,0-.36-0.243,1.119,1.119,0,0,0-1.238.243,1.131,1.131,0,0,0-.234.36A1.2,1.2,0,0,0,394.961,459.757Z"/>
</svg>
