<svg id="_2" data-name="2" xmlns="http://www.w3.org/2000/svg" width="1003" height="401" viewBox="0 0 1003 401">
  <defs>
    <style>
      .cls-1 {
        fill: #7dd3da;
      }

      .cls-1, .cls-5, .cls-6 {
        fill-rule: evenodd;
      }

      .cls-2 {
        fill: #8fe5ed;
      }

      .cls-3 {
        fill: #a2eeeb;
      }

      .cls-4 {
        fill: #9cf2de;
      }

      .cls-5 {
        fill: #555;
      }

      .cls-6 {
        fill: #5addbe;
      }
    </style>
  </defs>
  <path id="Background" class="cls-1" d="M256,169.259H441V401H256V169.259Z"/>
  <rect id="Background-2" data-name="Background" class="cls-2" x="256" y="70.25" width="185" height="89.344"/>
  <rect id="Background-3" data-name="Background" class="cls-3" x="256" y="28.5" width="185" height="32.031"/>
  <rect id="Background-4" data-name="Background" class="cls-4" x="256" y="-2" width="185" height="19.688"/>
  <path id="HNPCC_-_Lynch_Syndrome_MLH1_MSH2_MSH6_PMS2_EPCAM_3_" data-name="HNPCC - Lynch Syndrome, MLH1, MSH2, MSH6, PMS2, EPCAM~3%" class="cls-5" d="M472.764,0.529h-1.755V6.28h-6.948V0.529h-1.755v12.9h1.755V7.558h6.948v5.868h1.755V0.529Zm4.446,0h-0.9v12.9h1.53V4.237q0-.18-0.009-0.4T477.8,3.4l7.461,9.711a0.874,0.874,0,0,0,.275.243,0.747,0.747,0,0,0,.346.072h0.882V0.529h-1.53V9.664q0,0.207.009,0.427t0.036,0.454l-7.47-9.72a0.9,0.9,0,0,0-.256-0.239A0.786,0.786,0,0,0,477.21.529h0ZM494.3,8.6a6.477,6.477,0,0,0,2.061-.3,4.287,4.287,0,0,0,1.508-.841,3.541,3.541,0,0,0,.922-1.287,4.2,4.2,0,0,0,.315-1.647,4.436,4.436,0,0,0-.292-1.647,3.248,3.248,0,0,0-.887-1.26,4.088,4.088,0,0,0-1.5-.806A7.147,7.147,0,0,0,494.3.529h-3.807v12.9h1.737V8.6h2.07Zm-2.07-6.7h2.07a3.321,3.321,0,0,1,2.3.693,2.474,2.474,0,0,1,.76,1.926,2.906,2.906,0,0,1-.2,1.089,2.3,2.3,0,0,1-.585.85,2.7,2.7,0,0,1-.958.554,4.024,4.024,0,0,1-1.319.2h-2.07V1.906ZM510.105,10.9a5.677,5.677,0,0,1-.679.527,3.589,3.589,0,0,1-.729.364,4.249,4.249,0,0,1-.851.211,7.163,7.163,0,0,1-1.035.068,4.53,4.53,0,0,1-1.764-.342,3.98,3.98,0,0,1-1.417-.994,4.748,4.748,0,0,1-.945-1.6,6.221,6.221,0,0,1-.347-2.151,6.109,6.109,0,0,1,.347-2.115,4.606,4.606,0,0,1,.967-1.6,4.246,4.246,0,0,1,1.481-1.013,4.908,4.908,0,0,1,1.894-.356,5.391,5.391,0,0,1,1.017.086,4.773,4.773,0,0,1,.774.212,3.724,3.724,0,0,1,.576.27q0.243,0.144.423,0.27c0.12,0.084.224,0.155,0.311,0.212a0.453,0.453,0,0,0,.247.085,0.4,0.4,0,0,0,.234-0.058,0.616,0.616,0,0,0,.144-0.148l0.567-.8a6.2,6.2,0,0,0-1.831-1.2,6.212,6.212,0,0,0-2.453-.441A6.969,6.969,0,0,0,504.4.867a5.944,5.944,0,0,0-2.048,1.355,6.107,6.107,0,0,0-1.327,2.088,7.316,7.316,0,0,0-.473,2.673A7.783,7.783,0,0,0,501,9.655a6.1,6.1,0,0,0,1.242,2.083,5.54,5.54,0,0,0,1.935,1.35,6.408,6.408,0,0,0,2.529.482,6.554,6.554,0,0,0,2.723-.513,5.516,5.516,0,0,0,1.921-1.431l-0.684-.747a0.362,0.362,0,0,0-.261-0.117,0.457,0.457,0,0,0-.3.135h0Zm12,0a5.677,5.677,0,0,1-.679.527,3.589,3.589,0,0,1-.729.364,4.249,4.249,0,0,1-.851.211,7.163,7.163,0,0,1-1.035.068,4.53,4.53,0,0,1-1.764-.342,3.98,3.98,0,0,1-1.417-.994,4.748,4.748,0,0,1-.945-1.6,6.221,6.221,0,0,1-.347-2.151,6.109,6.109,0,0,1,.347-2.115,4.606,4.606,0,0,1,.967-1.6,4.246,4.246,0,0,1,1.481-1.013,4.908,4.908,0,0,1,1.894-.356,5.391,5.391,0,0,1,1.017.086,4.773,4.773,0,0,1,.774.212,3.724,3.724,0,0,1,.576.27q0.243,0.144.423,0.27c0.12,0.084.224,0.155,0.311,0.212a0.453,0.453,0,0,0,.247.085,0.4,0.4,0,0,0,.234-0.058,0.616,0.616,0,0,0,.144-0.148l0.567-.8a6.2,6.2,0,0,0-1.831-1.2,6.212,6.212,0,0,0-2.453-.441A6.969,6.969,0,0,0,516.4.867a5.944,5.944,0,0,0-2.048,1.355,6.107,6.107,0,0,0-1.327,2.088,7.316,7.316,0,0,0-.473,2.673,7.783,7.783,0,0,0,.441,2.673,6.1,6.1,0,0,0,1.242,2.083,5.54,5.54,0,0,0,1.935,1.35,6.408,6.408,0,0,0,2.529.482,6.554,6.554,0,0,0,2.723-.513,5.516,5.516,0,0,0,1.921-1.431l-0.684-.747a0.362,0.362,0,0,0-.261-0.117,0.457,0.457,0,0,0-.3.135h0Zm6.534-2.187h4.446V7.351h-4.446V8.71Zm12.411-8.181H539.3v12.9h7.326V11.959h-5.58V0.529Zm13.789,3.78h-1.278a0.473,0.473,0,0,0-.284.095,0.511,0.511,0,0,0-.184.239l-2.367,5.733c-0.054.138-.1,0.273-0.144,0.4s-0.085.267-.126,0.405c-0.031-.138-0.065-0.273-0.1-0.405a4.17,4.17,0,0,0-.139-0.4l-2.439-5.742a0.661,0.661,0,0,0-.171-0.229,0.476,0.476,0,0,0-.324-0.1H545.89l3.762,8.586-1.665,3.618h1.188a0.55,0.55,0,0,0,.373-0.108,0.84,0.84,0,0,0,.2-0.288Zm2.844,9.117V6.712a4.356,4.356,0,0,1,1.138-.927,2.692,2.692,0,0,1,1.328-.342,1.765,1.765,0,0,1,1.444.571,2.454,2.454,0,0,1,.473,1.607v5.8h1.6v-5.8a4.792,4.792,0,0,0-.2-1.413,3.118,3.118,0,0,0-.581-1.093,2.553,2.553,0,0,0-.954-0.7,3.294,3.294,0,0,0-1.318-.248,3.452,3.452,0,0,0-1.7.405,5.124,5.124,0,0,0-1.327,1.062l-0.126-.99a0.41,0.41,0,0,0-.432-0.333h-0.954v9.117h1.6Zm15.039-8.073a4.06,4.06,0,0,0-1.305-.878,4.338,4.338,0,0,0-1.692-.311,4.528,4.528,0,0,0-1.836.351,3.747,3.747,0,0,0-1.346.977,4.263,4.263,0,0,0-.828,1.489,6,6,0,0,0-.283,1.881,5.915,5.915,0,0,0,.31,1.989,4.333,4.333,0,0,0,.851,1.472,3.618,3.618,0,0,0,1.273.913,3.982,3.982,0,0,0,1.589.315,5.269,5.269,0,0,0,1.881-.337,3.464,3.464,0,0,0,1.485-1.067l-0.45-.585a0.341,0.341,0,0,0-.306-0.153,0.5,0.5,0,0,0-.324.139,4.726,4.726,0,0,1-.414.31,2.948,2.948,0,0,1-.63.311,2.82,2.82,0,0,1-.963.139,2.57,2.57,0,0,1-1.1-.229,2.255,2.255,0,0,1-.832-0.666,3.168,3.168,0,0,1-.531-1.08,5.227,5.227,0,0,1-.189-1.471,5.4,5.4,0,0,1,.175-1.431,3.117,3.117,0,0,1,.522-1.089,2.289,2.289,0,0,1,.86-0.688,3.126,3.126,0,0,1,2.029-.126,3.366,3.366,0,0,1,.59.248,4.256,4.256,0,0,1,.4.247,0.515,0.515,0,0,0,.293.112,0.342,0.342,0,0,0,.207-0.054,0.766,0.766,0,0,0,.144-0.153Zm2.961,8.073V6.712a4.356,4.356,0,0,1,1.138-.927,2.692,2.692,0,0,1,1.328-.342,1.765,1.765,0,0,1,1.444.571,2.454,2.454,0,0,1,.473,1.607v5.8h1.6v-5.8a4.792,4.792,0,0,0-.2-1.413,3.118,3.118,0,0,0-.581-1.093,2.553,2.553,0,0,0-.954-0.7,3.294,3.294,0,0,0-1.318-.248,3.466,3.466,0,0,0-1.638.373,4.888,4.888,0,0,0-1.3.995V0.169h-1.6V13.426h1.6ZM595.354,1.717A4.55,4.55,0,0,0,593.8.727a5.46,5.46,0,0,0-1.971-.342,4.565,4.565,0,0,0-1.706.3,3.719,3.719,0,0,0-1.246.792,3.433,3.433,0,0,0-1.035,2.457,3.446,3.446,0,0,0,.265,1.435,2.9,2.9,0,0,0,.7.968,3.682,3.682,0,0,0,.985.63,11.413,11.413,0,0,0,1.134.428l1.134,0.36a4.885,4.885,0,0,1,.986.428,2.2,2.2,0,0,1,.7.626,1.616,1.616,0,0,1,.266.958,2.5,2.5,0,0,1-.18.963,2.1,2.1,0,0,1-.518.742,2.347,2.347,0,0,1-.823.482,3.322,3.322,0,0,1-1.107.171,3.48,3.48,0,0,1-1.265-.2,4.64,4.64,0,0,1-.882-0.445,7.182,7.182,0,0,1-.607-0.446,0.716,0.716,0,0,0-.432-0.2,0.411,0.411,0,0,0-.23.067,0.647,0.647,0,0,0-.175.167l-0.5.828a5.347,5.347,0,0,0,1.759,1.229,5.59,5.59,0,0,0,2.282.454,5,5,0,0,0,1.831-.315,3.934,3.934,0,0,0,1.359-.864,3.676,3.676,0,0,0,.842-1.291,4.375,4.375,0,0,0,.288-1.588,3.085,3.085,0,0,0-.266-1.35,2.853,2.853,0,0,0-.7-0.927,3.991,3.991,0,0,0-.99-0.625q-0.553-.247-1.134-0.445t-1.134-.383a5.369,5.369,0,0,1-.99-0.436,2.285,2.285,0,0,1-.7-0.607,1.455,1.455,0,0,1-.265-0.9,2,2,0,0,1,.153-0.787,1.742,1.742,0,0,1,.454-0.635,2.194,2.194,0,0,1,.752-0.428,3.121,3.121,0,0,1,1.035-.157,3.212,3.212,0,0,1,1.057.153,4.176,4.176,0,0,1,.747.338,5.683,5.683,0,0,1,.513.337,0.621,0.621,0,0,0,.356.153,0.384,0.384,0,0,0,.234-0.067,0.713,0.713,0,0,0,.171-0.2ZM605.83,4.309h-1.278a0.473,0.473,0,0,0-.284.095,0.511,0.511,0,0,0-.184.239l-2.367,5.733c-0.054.138-.1,0.273-0.144,0.4s-0.085.267-.127,0.405c-0.03-.138-0.064-0.273-0.1-0.405a4.17,4.17,0,0,0-.139-0.4l-2.439-5.742a0.673,0.673,0,0,0-.171-0.229,0.477,0.477,0,0,0-.325-0.1h-1.385l3.762,8.586-1.665,3.618h1.187a0.551,0.551,0,0,0,.374-0.108,0.84,0.84,0,0,0,.2-0.288Zm2.844,9.117V6.712a4.356,4.356,0,0,1,1.138-.927,2.692,2.692,0,0,1,1.328-.342,1.765,1.765,0,0,1,1.444.571,2.454,2.454,0,0,1,.472,1.607v5.8h1.6v-5.8a4.792,4.792,0,0,0-.2-1.413,3.118,3.118,0,0,0-.581-1.093,2.553,2.553,0,0,0-.954-0.7,3.294,3.294,0,0,0-1.318-.248,3.452,3.452,0,0,0-1.7.405,5.124,5.124,0,0,0-1.327,1.062l-0.126-.99a0.41,0.41,0,0,0-.432-0.333h-0.955v9.117h1.6Zm15.767,0V0.169h-1.6V5.227a3.431,3.431,0,0,0-1.062-.8,3.3,3.3,0,0,0-1.431-.284,3.573,3.573,0,0,0-2.893,1.368,4.6,4.6,0,0,0-.779,1.507A6.324,6.324,0,0,0,616.4,8.9a7.5,7.5,0,0,0,.244,2.007,4.2,4.2,0,0,0,.692,1.458,2.942,2.942,0,0,0,1.09.886,3.283,3.283,0,0,0,1.421.3,3.425,3.425,0,0,0,1.724-.428,4.794,4.794,0,0,0,1.336-1.138l0.144,1.107a0.408,0.408,0,0,0,.432.333h0.954Zm-5.049-1.359a1.774,1.774,0,0,1-.729-0.6,2.935,2.935,0,0,1-.45-1.044A6.59,6.59,0,0,1,618.06,8.9a4.239,4.239,0,0,1,.685-2.592,2.3,2.3,0,0,1,1.961-.909,2.8,2.8,0,0,1,1.166.239,2.534,2.534,0,0,1,.967.832v4.41a3.952,3.952,0,0,1-1.084,1.017,2.58,2.58,0,0,1-1.372.36A2.45,2.45,0,0,1,619.392,12.067Zm9.279,1.359v-5.8a3.65,3.65,0,0,1,.941-1.413,2.064,2.064,0,0,1,1.4-.486,2.442,2.442,0,0,1,.729.085,1.4,1.4,0,0,0,.387.086,0.271,0.271,0,0,0,.279-0.225l0.207-1.2a2.39,2.39,0,0,0-.567-0.239,2.724,2.724,0,0,0-2.3.45,4.172,4.172,0,0,0-1.157,1.49L628.482,4.75a0.607,0.607,0,0,0-.135-0.342,0.507,0.507,0,0,0-.36-0.1h-0.918v9.117h1.6ZM635.957,4.5a3.851,3.851,0,0,0-1.373.945,4.2,4.2,0,0,0-.873,1.481,5.808,5.808,0,0,0-.306,1.939,5.8,5.8,0,0,0,.306,1.944,4.207,4.207,0,0,0,.873,1.476,3.8,3.8,0,0,0,1.373.941,5.12,5.12,0,0,0,3.609,0,3.755,3.755,0,0,0,1.368-.941,4.189,4.189,0,0,0,.864-1.476,5.876,5.876,0,0,0,.3-1.944,5.888,5.888,0,0,0-.3-1.939,4.185,4.185,0,0,0-.864-1.481,3.806,3.806,0,0,0-1.368-.945A5.056,5.056,0,0,0,635.957,4.5Zm0.616,7.569a2.237,2.237,0,0,1-.841-0.671,2.952,2.952,0,0,1-.5-1.075,5.757,5.757,0,0,1-.167-1.449,5.812,5.812,0,0,1,.167-1.453,3,3,0,0,1,.5-1.085,2.224,2.224,0,0,1,.841-0.675,2.8,2.8,0,0,1,1.188-.234,2.336,2.336,0,0,1,2.016.909,4.227,4.227,0,0,1,.666,2.538,4.188,4.188,0,0,1-.666,2.524,2.34,2.34,0,0,1-2.016.9A2.8,2.8,0,0,1,636.573,12.067Zm9.1,1.359V6.631a3.613,3.613,0,0,1,.932-0.868,2.033,2.033,0,0,1,1.1-.319,1.565,1.565,0,0,1,1.287.54,2.554,2.554,0,0,1,.441,1.638v5.8h1.6v-5.8a2.636,2.636,0,0,1,.158-0.95,1.919,1.919,0,0,1,.427-0.679,1.814,1.814,0,0,1,.626-0.409A2.037,2.037,0,0,1,653,5.443,1.68,1.68,0,0,1,654.357,6a2.457,2.457,0,0,1,.468,1.625v5.8h1.6v-5.8a4.8,4.8,0,0,0-.207-1.471,2.987,2.987,0,0,0-.6-1.085,2.54,2.54,0,0,0-.954-0.67,3.374,3.374,0,0,0-1.283-.23,3.673,3.673,0,0,0-.886.108,2.959,2.959,0,0,0-.824.342,2.9,2.9,0,0,0-.7.594,2.856,2.856,0,0,0-.5.855,2.885,2.885,0,0,0-.823-1.386,2.16,2.16,0,0,0-1.5-.513,2.658,2.658,0,0,0-1.453.4,4.681,4.681,0,0,0-1.13,1.017l-0.117-.936a0.409,0.409,0,0,0-.432-0.333H644.07v9.117h1.6ZM660.9,4.512a3.874,3.874,0,0,0-1.341.954,4.2,4.2,0,0,0-.841,1.436,5.313,5.313,0,0,0-.293,1.782,6.2,6.2,0,0,0,.324,2.088,4.293,4.293,0,0,0,.9,1.525,3.82,3.82,0,0,0,1.377.936,4.633,4.633,0,0,0,1.741.319,5.964,5.964,0,0,0,1-.085,5.618,5.618,0,0,0,.977-0.256,4.412,4.412,0,0,0,.886-0.437,3.038,3.038,0,0,0,.711-0.626l-0.45-.585a0.353,0.353,0,0,0-.306-0.153,0.7,0.7,0,0,0-.364.139,5.725,5.725,0,0,1-.527.3,4.928,4.928,0,0,1-.751.3,3.433,3.433,0,0,1-1.04.139,3.089,3.089,0,0,1-1.17-.211,2.378,2.378,0,0,1-.9-0.639,3.071,3.071,0,0,1-.594-1.066,5.033,5.033,0,0,1-.234-1.5h6.066a0.336,0.336,0,0,0,.306-0.126,1.045,1.045,0,0,0,.081-0.5,4.938,4.938,0,0,0-.283-1.733,3.613,3.613,0,0,0-.788-1.278,3.4,3.4,0,0,0-1.2-.792,4.07,4.07,0,0,0-1.512-.275A4.4,4.4,0,0,0,660.9,4.512Zm2.8,1.017a2.013,2.013,0,0,1,.724.522,2.277,2.277,0,0,1,.45.8,3.244,3.244,0,0,1,.153,1.021h-4.959a3.156,3.156,0,0,1,.828-1.859A2.775,2.775,0,0,1,663.7,5.529Zm3.987,7.236a1.046,1.046,0,0,0,.216.351,0.968,0.968,0,0,0,.328.229,1.064,1.064,0,0,0,.423.081h0.117a2.284,2.284,0,0,1-.175.558,3.591,3.591,0,0,1-.266.477,4.378,4.378,0,0,1-.283.383c-0.093.111-.17,0.2-0.23,0.265a0.357,0.357,0,0,0-.126.243,0.333,0.333,0,0,0,.117.252l0.27,0.261a5.162,5.162,0,0,0,.725-0.747,4.945,4.945,0,0,0,.535-0.832,4.5,4.5,0,0,0,.333-0.864,3.246,3.246,0,0,0,.117-0.841,1.661,1.661,0,0,0-.072-0.5,1.24,1.24,0,0,0-.211-0.405,0.963,0.963,0,0,0-.351-0.274,1.208,1.208,0,0,0-.914-0.018,1.013,1.013,0,0,0-.337.22,0.992,0.992,0,0,0-.216.324,1.013,1.013,0,0,0-.077.392A1.251,1.251,0,0,0,667.682,12.765Zm14.98-4-4.455-7.938a0.519,0.519,0,0,0-.243-0.252A1.12,1.12,0,0,0,677.6.529h-1.287v12.9h1.53V3.949c0-.126,0-0.264-0.013-0.414s-0.023-.3-0.041-0.459l4.518,8.091a0.694,0.694,0,0,0,.63.405h0.252a0.694,0.694,0,0,0,.63-0.405L688.242,3.1q-0.018.225-.027,0.441t-0.009.4v9.477h1.53V0.529h-1.287a1.12,1.12,0,0,0-.36.045,0.519,0.519,0,0,0-.243.252l-4.365,7.929q-0.126.234-.225,0.463t-0.189.482q-0.09-.243-0.184-0.482a3.356,3.356,0,0,0-.221-0.454h0Zm12.4-8.235h-1.746v12.9h7.326V11.959h-5.58V0.529Zm17.713,0h-1.756V6.28h-6.948V0.529h-1.755v12.9h1.755V7.558h6.948v5.868h1.756V0.529Zm4.563,12.9h6.911V12.2h-2.538V0.5h-1.3l-3.835,3.321,0.5,0.693a0.437,0.437,0,0,0,.163.139,0.494,0.494,0,0,0,.242.059,0.521,0.521,0,0,0,.172-0.032,0.623,0.623,0,0,0,.179-0.1l2.3-1.971q-0.026.405-.026,0.8V12.2H717.34v1.224Zm8.338-.662a1.046,1.046,0,0,0,.216.351,0.962,0.962,0,0,0,.329.229,1.057,1.057,0,0,0,.423.081h0.116a2.284,2.284,0,0,1-.175.558,3.591,3.591,0,0,1-.266.477,4.378,4.378,0,0,1-.283.383c-0.093.111-.17,0.2-0.23,0.265a0.357,0.357,0,0,0-.126.243,0.333,0.333,0,0,0,.117.252l0.27,0.261a5.11,5.11,0,0,0,.725-0.747,4.945,4.945,0,0,0,.535-0.832,4.566,4.566,0,0,0,.334-0.864,3.287,3.287,0,0,0,.116-0.841,1.661,1.661,0,0,0-.072-0.5,1.24,1.24,0,0,0-.211-0.405,0.963,0.963,0,0,0-.351-0.274,1.206,1.206,0,0,0-.913-0.018,1.007,1.007,0,0,0-.338.22,0.992,0.992,0,0,0-.216.324,1.013,1.013,0,0,0-.077.392A1.251,1.251,0,0,0,725.678,12.765Zm14.981-4L736.2,0.826a0.522,0.522,0,0,0-.242-0.252A1.131,1.131,0,0,0,735.6.529h-1.286v12.9h1.53V3.949c0-.126,0-0.264-0.014-0.414s-0.023-.3-0.041-0.459l4.518,8.091a0.7,0.7,0,0,0,.63.405h0.252a0.694,0.694,0,0,0,.63-0.405L746.238,3.1q-0.018.225-.027,0.441t-0.009.4v9.477h1.53V0.529h-1.287a1.109,1.109,0,0,0-.359.045,0.516,0.516,0,0,0-.244.252l-4.364,7.929q-0.127.234-.226,0.463t-0.188.482c-0.061-.162-0.122-0.322-0.185-0.482a3.474,3.474,0,0,0-.22-0.454h0Zm17.685-7.047a4.554,4.554,0,0,0-1.558-.99,5.456,5.456,0,0,0-1.971-.342,4.563,4.563,0,0,0-1.705.3,3.733,3.733,0,0,0-1.247.792,3.444,3.444,0,0,0-1.035,2.457,3.445,3.445,0,0,0,.266,1.435,2.9,2.9,0,0,0,.7.968,3.666,3.666,0,0,0,.985.63,11.413,11.413,0,0,0,1.134.428l1.134,0.36a4.91,4.91,0,0,1,.986.428,2.2,2.2,0,0,1,.7.626,1.616,1.616,0,0,1,.265.958,2.5,2.5,0,0,1-.179.963,2.1,2.1,0,0,1-.518.742,2.347,2.347,0,0,1-.823.482,3.327,3.327,0,0,1-1.107.171,3.48,3.48,0,0,1-1.265-.2,4.64,4.64,0,0,1-.882-0.445,7.022,7.022,0,0,1-.607-0.446,0.719,0.719,0,0,0-.432-0.2,0.411,0.411,0,0,0-.23.067,0.647,0.647,0,0,0-.175.167l-0.5.828a5.336,5.336,0,0,0,1.759,1.229,5.589,5.589,0,0,0,2.281.454,5,5,0,0,0,1.832-.315,3.934,3.934,0,0,0,1.359-.864,3.676,3.676,0,0,0,.842-1.291,4.374,4.374,0,0,0,.287-1.588,3.086,3.086,0,0,0-.265-1.35,2.853,2.853,0,0,0-.7-0.927,3.991,3.991,0,0,0-.99-0.625q-0.553-.247-1.134-0.445t-1.134-.383a5.369,5.369,0,0,1-.99-0.436,2.285,2.285,0,0,1-.7-0.607,1.455,1.455,0,0,1-.265-0.9,2.014,2.014,0,0,1,.152-0.787,1.756,1.756,0,0,1,.455-0.635,2.2,2.2,0,0,1,.751-0.428,3.129,3.129,0,0,1,1.035-.157,3.218,3.218,0,0,1,1.058.153,4.176,4.176,0,0,1,.747.338,5.683,5.683,0,0,1,.513.337,0.621,0.621,0,0,0,.355.153,0.385,0.385,0,0,0,.235-0.067,0.7,0.7,0,0,0,.17-0.2Zm13.427-1.188h-1.754V6.28h-6.948V0.529h-1.755v12.9h1.755V7.558h6.948v5.868h1.754V0.529Zm5.846,0.095a3.9,3.9,0,0,0-1.269.7,3.707,3.707,0,0,0-.913,1.138,4.722,4.722,0,0,0-.487,1.561l0.837,0.144c0.042,0.006.08,0.011,0.113,0.014s0.064,0,.094,0a0.581,0.581,0,0,0,.378-0.117,0.716,0.716,0,0,0,.216-0.378,2.37,2.37,0,0,1,.311-0.774,2.407,2.407,0,0,1,1.273-1.008,2.724,2.724,0,0,1,.9-0.144,2.886,2.886,0,0,1,.909.139,2.085,2.085,0,0,1,.738.418,1.925,1.925,0,0,1,.5.707,2.547,2.547,0,0,1,.18.994,3.437,3.437,0,0,1-.162,1.067,4.505,4.505,0,0,1-.463.986,7.314,7.314,0,0,1-.725.968q-0.423.482-.935,1l-4.132,4.149a0.935,0.935,0,0,0-.22.333,1,1,0,0,0-.068.351v0.549h8.605V12.454a0.537,0.537,0,0,0-.154-0.4,0.56,0.56,0,0,0-.414-0.153h-4.319a4.556,4.556,0,0,0-.712.059,6.688,6.688,0,0,0-.728.158l3.392-3.474q0.54-.549,1.022-1.075a8.618,8.618,0,0,0,.85-1.089,5.429,5.429,0,0,0,.585-1.174,3.975,3.975,0,0,0,.216-1.332,3.676,3.676,0,0,0-.3-1.512,3.3,3.3,0,0,0-.814-1.13A3.529,3.529,0,0,0,780.69.628a4.7,4.7,0,0,0-1.53-.243A4.851,4.851,0,0,0,777.617.624Zm7.056,12.141a1.046,1.046,0,0,0,.216.351,0.968,0.968,0,0,0,.328.229,1.064,1.064,0,0,0,.423.081h0.117a2.284,2.284,0,0,1-.175.558,3.591,3.591,0,0,1-.266.477,4.378,4.378,0,0,1-.283.383c-0.093.111-.17,0.2-0.23,0.265a0.357,0.357,0,0,0-.126.243,0.333,0.333,0,0,0,.117.252l0.27,0.261a5.162,5.162,0,0,0,.725-0.747,4.945,4.945,0,0,0,.535-0.832,4.5,4.5,0,0,0,.333-0.864,3.246,3.246,0,0,0,.117-0.841,1.661,1.661,0,0,0-.072-0.5,1.24,1.24,0,0,0-.211-0.405,0.963,0.963,0,0,0-.351-0.274,1.208,1.208,0,0,0-.914-0.018,1.013,1.013,0,0,0-.337.22,0.992,0.992,0,0,0-.216.324,1.013,1.013,0,0,0-.077.392A1.251,1.251,0,0,0,784.673,12.765Zm14.981-4L795.2,0.826a0.522,0.522,0,0,0-.242-0.252A1.131,1.131,0,0,0,794.6.529h-1.287v12.9h1.53V3.949c0-.126,0-0.264-0.013-0.414s-0.023-.3-0.041-0.459l4.518,8.091a0.7,0.7,0,0,0,.63.405h0.252a0.694,0.694,0,0,0,.63-0.405L805.233,3.1q-0.018.225-.027,0.441t-0.009.4v9.477h1.53V0.529H805.44a1.109,1.109,0,0,0-.359.045,0.516,0.516,0,0,0-.244.252l-4.364,7.929q-0.127.234-.226,0.463t-0.189.482q-0.09-.243-0.184-0.482a3.474,3.474,0,0,0-.22-0.454h0Zm17.684-7.047a4.54,4.54,0,0,0-1.557-.99A5.46,5.46,0,0,0,813.81.385a4.563,4.563,0,0,0-1.7.3,3.733,3.733,0,0,0-1.247.792,3.444,3.444,0,0,0-1.035,2.457,3.445,3.445,0,0,0,.266,1.435,2.907,2.907,0,0,0,.7.968,3.687,3.687,0,0,0,.986.63,11.413,11.413,0,0,0,1.134.428l1.134,0.36a4.91,4.91,0,0,1,.986.428,2.2,2.2,0,0,1,.7.626,1.616,1.616,0,0,1,.265.958,2.481,2.481,0,0,1-.18.963,2.085,2.085,0,0,1-.517.742,2.343,2.343,0,0,1-.824.482,3.316,3.316,0,0,1-1.106.171,3.48,3.48,0,0,1-1.265-.2,4.64,4.64,0,0,1-.882-0.445,7.022,7.022,0,0,1-.607-0.446,0.718,0.718,0,0,0-.433-0.2,0.41,0.41,0,0,0-.229.067,0.666,0.666,0,0,0-.176.167l-0.5.828a5.351,5.351,0,0,0,1.76,1.229,5.589,5.589,0,0,0,2.281.454,5,5,0,0,0,1.832-.315,3.934,3.934,0,0,0,1.359-.864,3.66,3.66,0,0,0,.841-1.291,4.353,4.353,0,0,0,.288-1.588,3.086,3.086,0,0,0-.265-1.35,2.853,2.853,0,0,0-.7-0.927,3.991,3.991,0,0,0-.99-0.625q-0.554-.247-1.134-0.445T813.4,5.781a5.369,5.369,0,0,1-.99-0.436,2.285,2.285,0,0,1-.7-0.607,1.455,1.455,0,0,1-.265-0.9,2.014,2.014,0,0,1,.152-0.787,1.756,1.756,0,0,1,.455-0.635,2.2,2.2,0,0,1,.751-0.428,3.129,3.129,0,0,1,1.035-.157,3.218,3.218,0,0,1,1.058.153,4.176,4.176,0,0,1,.747.338,5.683,5.683,0,0,1,.513.337,0.621,0.621,0,0,0,.355.153,0.385,0.385,0,0,0,.235-0.067,0.7,0.7,0,0,0,.17-0.2Zm13.428-1.188h-1.754V6.28h-6.948V0.529h-1.756v12.9h1.756V7.558h6.948v5.868h1.754V0.529ZM837.39,5.7a3.8,3.8,0,0,0-1.016.49l4.472-5.661h-1.422a1.132,1.132,0,0,0-.513.113,1,1,0,0,0-.351.274l-3.267,4.4a9.145,9.145,0,0,0-1.2,2.052,4.9,4.9,0,0,0-.378,1.8,5.218,5.218,0,0,0,.3,1.822,3.882,3.882,0,0,0,.859,1.386,3.8,3.8,0,0,0,1.346.882,4.758,4.758,0,0,0,1.759.31,4.852,4.852,0,0,0,1.8-.324,4.174,4.174,0,0,0,1.4-.891,4.045,4.045,0,0,0,.9-1.332,4.184,4.184,0,0,0,.324-1.656,4.12,4.12,0,0,0-.306-1.634,3.475,3.475,0,0,0-2.043-1.953,4.192,4.192,0,0,0-1.467-.256A4,4,0,0,0,837.39,5.7Zm-1.93,2.727a2.58,2.58,0,0,1,.558-0.864,2.677,2.677,0,0,1,.886-0.594,2.98,2.98,0,0,1,1.17-.221,3.13,3.13,0,0,1,1.107.189A2.375,2.375,0,0,1,840.6,8.346a3.116,3.116,0,0,1,.2,1.139,2.917,2.917,0,0,1-.2,1.1,2.545,2.545,0,0,1-.576.873,2.643,2.643,0,0,1-.9.576,3.148,3.148,0,0,1-1.17.207,3.007,3.007,0,0,1-1.138-.2,2.357,2.357,0,0,1-.846-0.572,2.46,2.46,0,0,1-.527-0.882,3.406,3.406,0,0,1-.18-1.134A2.76,2.76,0,0,1,835.46,8.427Zm8.208,4.338a1.046,1.046,0,0,0,.216.351,0.968,0.968,0,0,0,.328.229,1.064,1.064,0,0,0,.423.081h0.117a2.284,2.284,0,0,1-.175.558,3.591,3.591,0,0,1-.266.477,4.378,4.378,0,0,1-.283.383c-0.093.111-.17,0.2-0.23,0.265a0.357,0.357,0,0,0-.126.243,0.333,0.333,0,0,0,.117.252l0.27,0.261a5.162,5.162,0,0,0,.725-0.747,4.945,4.945,0,0,0,.535-0.832,4.5,4.5,0,0,0,.333-0.864,3.246,3.246,0,0,0,.117-0.841,1.661,1.661,0,0,0-.072-0.5,1.24,1.24,0,0,0-.211-0.405,0.963,0.963,0,0,0-.351-0.274,1.208,1.208,0,0,0-.914-0.018,1.013,1.013,0,0,0-.337.22,0.992,0.992,0,0,0-.216.324,1.013,1.013,0,0,0-.077.392A1.251,1.251,0,0,0,843.668,12.765ZM856.29,8.6a6.477,6.477,0,0,0,2.061-.3,4.287,4.287,0,0,0,1.508-.841,3.541,3.541,0,0,0,.922-1.287,4.2,4.2,0,0,0,.315-1.647,4.436,4.436,0,0,0-.292-1.647,3.248,3.248,0,0,0-.887-1.26,4.088,4.088,0,0,0-1.5-.806A7.147,7.147,0,0,0,856.29.529h-3.807v12.9h1.737V8.6h2.07Zm-2.07-6.7h2.07a3.321,3.321,0,0,1,2.3.693,2.474,2.474,0,0,1,.76,1.926,2.906,2.906,0,0,1-.2,1.089,2.3,2.3,0,0,1-.585.85,2.7,2.7,0,0,1-.958.554,4.024,4.024,0,0,1-1.319.2h-2.07V1.906Zm15.427,6.858-4.456-7.938a0.522,0.522,0,0,0-.242-0.252,1.131,1.131,0,0,0-.361-0.045H863.3v12.9h1.53V3.949c0-.126,0-0.264-0.014-0.414s-0.023-.3-0.041-0.459l4.518,8.091a0.7,0.7,0,0,0,.631.405h0.251a0.693,0.693,0,0,0,.63-0.405L875.226,3.1q-0.018.225-.027,0.441t-0.009.4v9.477h1.53V0.529h-1.287a1.109,1.109,0,0,0-.359.045,0.51,0.51,0,0,0-.243.252l-4.365,7.929q-0.128.234-.225,0.463t-0.189.482c-0.061-.162-0.122-0.322-0.185-0.482a3.474,3.474,0,0,0-.22-0.454h0Zm17.685-7.047a4.559,4.559,0,0,0-1.557-.99A5.466,5.466,0,0,0,883.8.385a4.563,4.563,0,0,0-1.705.3,3.733,3.733,0,0,0-1.247.792,3.444,3.444,0,0,0-1.035,2.457,3.445,3.445,0,0,0,.266,1.435,2.9,2.9,0,0,0,.7.968,3.682,3.682,0,0,0,.985.63,11.413,11.413,0,0,0,1.134.428l1.134,0.36a4.91,4.91,0,0,1,.986.428,2.2,2.2,0,0,1,.7.626,1.616,1.616,0,0,1,.266.958,2.5,2.5,0,0,1-.18.963,2.1,2.1,0,0,1-.518.742,2.347,2.347,0,0,1-.823.482,3.322,3.322,0,0,1-1.107.171,3.48,3.48,0,0,1-1.265-.2,4.64,4.64,0,0,1-.882-0.445,7.182,7.182,0,0,1-.607-0.446,0.719,0.719,0,0,0-.432-0.2,0.411,0.411,0,0,0-.23.067,0.647,0.647,0,0,0-.175.167l-0.5.828a5.347,5.347,0,0,0,1.759,1.229,5.589,5.589,0,0,0,2.281.454,5,5,0,0,0,1.832-.315,3.934,3.934,0,0,0,1.359-.864,3.676,3.676,0,0,0,.842-1.291,4.375,4.375,0,0,0,.288-1.588,3.085,3.085,0,0,0-.266-1.35,2.853,2.853,0,0,0-.7-0.927,3.991,3.991,0,0,0-.99-0.625q-0.553-.247-1.134-0.445t-1.134-.383a5.369,5.369,0,0,1-.99-0.436,2.285,2.285,0,0,1-.7-0.607,1.455,1.455,0,0,1-.265-0.9,2,2,0,0,1,.153-0.787,1.742,1.742,0,0,1,.454-0.635,2.2,2.2,0,0,1,.751-0.428,3.131,3.131,0,0,1,1.036-.157,3.212,3.212,0,0,1,1.057.153,4.176,4.176,0,0,1,.747.338,5.683,5.683,0,0,1,.513.337,0.621,0.621,0,0,0,.356.153,0.384,0.384,0,0,0,.234-0.067,0.713,0.713,0,0,0,.171-0.2ZM892.6,0.624a3.9,3.9,0,0,0-1.269.7,3.707,3.707,0,0,0-.913,1.138,4.722,4.722,0,0,0-.487,1.561l0.837,0.144c0.042,0.006.08,0.011,0.113,0.014s0.064,0,.094,0a0.581,0.581,0,0,0,.378-0.117,0.716,0.716,0,0,0,.216-0.378,2.37,2.37,0,0,1,.311-0.774,2.4,2.4,0,0,1,1.274-1.008,2.716,2.716,0,0,1,.9-0.144,2.88,2.88,0,0,1,.908.139,2.1,2.1,0,0,1,.739.418,1.935,1.935,0,0,1,.494.707,2.547,2.547,0,0,1,.18.994,3.436,3.436,0,0,1-.161,1.067,4.51,4.51,0,0,1-.464.986,7.314,7.314,0,0,1-.725.968q-0.423.482-.935,1l-4.132,4.149a0.935,0.935,0,0,0-.22.333,1,1,0,0,0-.067.351v0.549h8.6V12.454a0.537,0.537,0,0,0-.154-0.4,0.56,0.56,0,0,0-.414-0.153h-4.319a4.556,4.556,0,0,0-.712.059,6.688,6.688,0,0,0-.728.158l3.392-3.474q0.541-.549,1.022-1.075a8.618,8.618,0,0,0,.85-1.089,5.384,5.384,0,0,0,.585-1.174,3.95,3.95,0,0,0,.216-1.332,3.676,3.676,0,0,0-.3-1.512,3.3,3.3,0,0,0-.814-1.13,3.529,3.529,0,0,0-1.229-.707,4.7,4.7,0,0,0-1.53-.243A4.851,4.851,0,0,0,892.6.624Zm7.056,12.141a1.046,1.046,0,0,0,.216.351,0.962,0.962,0,0,0,.329.229,1.057,1.057,0,0,0,.423.081h0.116a2.241,2.241,0,0,1-.175.558,3.7,3.7,0,0,1-.265.477,4.59,4.59,0,0,1-.284.383c-0.093.111-.17,0.2-0.229,0.265a0.354,0.354,0,0,0-.127.243,0.331,0.331,0,0,0,.118.252l0.269,0.261a5.11,5.11,0,0,0,.725-0.747,4.945,4.945,0,0,0,.535-0.832,4.566,4.566,0,0,0,.334-0.864,3.287,3.287,0,0,0,.116-0.841,1.661,1.661,0,0,0-.072-0.5,1.24,1.24,0,0,0-.211-0.405,0.963,0.963,0,0,0-.351-0.274,1.206,1.206,0,0,0-.913-0.018,1.007,1.007,0,0,0-.338.22,0.992,0.992,0,0,0-.216.324,1.012,1.012,0,0,0-.076.392A1.251,1.251,0,0,0,899.657,12.765Zm8.636-12.235v12.9h7.946V12h-6.191V7.6h5.012V6.235h-5.012V1.951h6.191V0.529h-7.946ZM922.279,8.6a6.486,6.486,0,0,0,2.061-.3,4.291,4.291,0,0,0,1.507-.841,3.541,3.541,0,0,0,.922-1.287,4.2,4.2,0,0,0,.315-1.647,4.436,4.436,0,0,0-.292-1.647,3.248,3.248,0,0,0-.887-1.26,4.088,4.088,0,0,0-1.5-.806,7.145,7.145,0,0,0-2.128-.284h-3.808v12.9h1.737V8.6h2.071Zm-2.071-6.7h2.071a3.318,3.318,0,0,1,2.3.693,2.474,2.474,0,0,1,.76,1.926,2.906,2.906,0,0,1-.2,1.089,2.3,2.3,0,0,1-.585.85,2.7,2.7,0,0,1-.958.554,4.022,4.022,0,0,1-1.318.2h-2.071V1.906ZM938.082,10.9a5.677,5.677,0,0,1-.679.527,3.589,3.589,0,0,1-.729.364,4.249,4.249,0,0,1-.851.211,7.163,7.163,0,0,1-1.035.068,4.53,4.53,0,0,1-1.764-.342,3.98,3.98,0,0,1-1.417-.994,4.748,4.748,0,0,1-.945-1.6,6.221,6.221,0,0,1-.347-2.151,6.109,6.109,0,0,1,.347-2.115,4.606,4.606,0,0,1,.967-1.6,4.246,4.246,0,0,1,1.481-1.013A4.908,4.908,0,0,1,935,1.9a5.391,5.391,0,0,1,1.017.086,4.773,4.773,0,0,1,.774.212,3.724,3.724,0,0,1,.576.27q0.243,0.144.423,0.27c0.12,0.084.224,0.155,0.311,0.212a0.453,0.453,0,0,0,.247.085,0.4,0.4,0,0,0,.234-0.058,0.616,0.616,0,0,0,.144-0.148l0.567-.8a6.2,6.2,0,0,0-1.831-1.2,6.212,6.212,0,0,0-2.453-.441,6.969,6.969,0,0,0-2.632.482,5.944,5.944,0,0,0-2.048,1.355,6.107,6.107,0,0,0-1.327,2.088,7.316,7.316,0,0,0-.473,2.673,7.783,7.783,0,0,0,.441,2.673,6.1,6.1,0,0,0,1.242,2.083,5.54,5.54,0,0,0,1.935,1.35,6.408,6.408,0,0,0,2.529.482,6.554,6.554,0,0,0,2.723-.513,5.516,5.516,0,0,0,1.921-1.431l-0.684-.747a0.362,0.362,0,0,0-.261-0.117,0.457,0.457,0,0,0-.3.135h0ZM946.74,0.529h-1.773l-5.157,12.9h1.35a0.574,0.574,0,0,0,.378-0.126,0.7,0.7,0,0,0,.216-0.288L942.96,9.9h5.787l1.206,3.114a0.718,0.718,0,0,0,.216.3,0.58,0.58,0,0,0,.378.117h1.35ZM945.471,3.4q0.09-.234.185-0.545t0.193-.679a9.806,9.806,0,0,0,.387,1.215l2.025,5.247h-4.815Zm14.158,5.364-4.456-7.938a0.522,0.522,0,0,0-.242-0.252A1.131,1.131,0,0,0,954.57.529h-1.286v12.9h1.53V3.949c0-.126,0-0.264-0.014-0.414s-0.023-.3-0.041-0.459l4.518,8.091a0.7,0.7,0,0,0,.63.405h0.252a0.693,0.693,0,0,0,.63-0.405L965.208,3.1q-0.018.225-.027,0.441t-0.009.4v9.477h1.53V0.529h-1.287a1.109,1.109,0,0,0-.359.045,0.516,0.516,0,0,0-.244.252l-4.364,7.929q-0.127.234-.225,0.463t-0.189.482c-0.061-.162-0.122-0.322-0.185-0.482a3.474,3.474,0,0,0-.22-0.454h0Zm15.21-1c-0.259-.1-0.53-0.207-0.815-0.324s-0.58-.225-0.887-0.324a2.989,2.989,0,0,0-.926-0.149,2.529,2.529,0,0,0-1.04.2,2.152,2.152,0,0,0-.765.563,2.512,2.512,0,0,0-.477.864,3.513,3.513,0,0,0-.166,1.107h1.295a1.531,1.531,0,0,1,.338-1.017,1.146,1.146,0,0,1,.914-0.378,2,2,0,0,1,.711.149c0.257,0.1.529,0.207,0.814,0.324S974.416,9,974.721,9.1a3.079,3.079,0,0,0,.927.144,2.588,2.588,0,0,0,1.035-.2,2.088,2.088,0,0,0,.77-0.558,2.51,2.51,0,0,0,.477-0.864,3.512,3.512,0,0,0,.166-1.107h-1.3a1.535,1.535,0,0,1-.337,1.013,1.14,1.14,0,0,1-.914.383A2,2,0,0,1,974.839,7.761Zm7.915-7.137a3.9,3.9,0,0,0-1.269.7,3.724,3.724,0,0,0-.914,1.138,4.745,4.745,0,0,0-.486,1.561l0.838,0.142c0.041,0.006.079,0.01,0.112,0.013s0.064,0,.094,0a0.572,0.572,0,0,0,.37-0.117,0.729,0.729,0,0,0,.216-0.378,2.83,2.83,0,0,1,.323-0.769,2.347,2.347,0,0,1,.536-0.611,2.436,2.436,0,0,1,.734-0.4,2.718,2.718,0,0,1,.9-0.144,2.929,2.929,0,0,1,.9.135,2.026,2.026,0,0,1,.725.405,1.879,1.879,0,0,1,.481.684,2.478,2.478,0,0,1,.175.972,2.439,2.439,0,0,1-.166.918,1.736,1.736,0,0,1-.536.711,2.724,2.724,0,0,1-.949.468,5,5,0,0,1-1.4.171V7.4a6.284,6.284,0,0,1,1.652.18,2.6,2.6,0,0,1,1.008.495,1.643,1.643,0,0,1,.5.747,3.092,3.092,0,0,1,.14.954,2.312,2.312,0,0,1-.172.855,2.393,2.393,0,0,1-.508.783,2.578,2.578,0,0,1-.846.572,2.955,2.955,0,0,1-1.184.22,2.831,2.831,0,0,1-1.129-.2,2.608,2.608,0,0,1-.76-0.486,2.476,2.476,0,0,1-.487-0.617q-0.18-.328-0.3-0.59l-0.036-.085-0.037-.076a0.486,0.486,0,0,0-.211-0.238,0.657,0.657,0,0,0-.32-0.076,0.948,0.948,0,0,0-.377.081l-0.685.288a7.98,7.98,0,0,0,.549,1.336,3.759,3.759,0,0,0,.828,1.067,3.648,3.648,0,0,0,1.233.706,5.314,5.314,0,0,0,1.755.257,5.137,5.137,0,0,0,1.67-.265,4.123,4.123,0,0,0,1.363-.765,3.6,3.6,0,0,0,.923-1.21,3.69,3.69,0,0,0,.338-1.6,3.016,3.016,0,0,0-.635-1.962,3.5,3.5,0,0,0-1.894-1.116,3.972,3.972,0,0,0,.927-0.4,2.7,2.7,0,0,0,.706-0.617,2.657,2.657,0,0,0,.45-0.846,3.511,3.511,0,0,0,.157-1.094,3.239,3.239,0,0,0-.279-1.359A3.017,3.017,0,0,0,987,1.285a3.526,3.526,0,0,0-1.193-.666A4.7,4.7,0,0,0,984.3.385,4.853,4.853,0,0,0,982.754.624Zm12.105,1.643a2.992,2.992,0,0,0-.6-1.017,2.53,2.53,0,0,0-.909-0.63A2.949,2.949,0,0,0,992.217.4a2.9,2.9,0,0,0-1.129.216,2.6,2.6,0,0,0-.9.63,2.9,2.9,0,0,0-.6,1.017,4.046,4.046,0,0,0-.216,1.377A3.948,3.948,0,0,0,989.581,5a2.855,2.855,0,0,0,.6,1.008,2.621,2.621,0,0,0,.9.625,2.9,2.9,0,0,0,1.129.216,2.826,2.826,0,0,0,1.09-.216,2.661,2.661,0,0,0,.913-0.625A3.056,3.056,0,0,0,994.846,5a3.717,3.717,0,0,0,.233-1.355A4,4,0,0,0,994.859,2.266ZM993.7,4.638a1.852,1.852,0,0,1-.347.666,1.275,1.275,0,0,1-.513.369,1.8,1.8,0,0,1-1.251,0,1.24,1.24,0,0,1-.508-0.369,1.828,1.828,0,0,1-.338-0.666,3.534,3.534,0,0,1-.121-0.994,3.621,3.621,0,0,1,.121-1.008,1.924,1.924,0,0,1,.338-0.679,1.249,1.249,0,0,1,.508-0.383,1.731,1.731,0,0,1,1.251,0,1.284,1.284,0,0,1,.513.383,1.949,1.949,0,0,1,.347.679,3.533,3.533,0,0,1,.126,1.008A3.448,3.448,0,0,1,993.7,4.638Zm-3.492,8.788H991.4a0.593,0.593,0,0,0,.3-0.072,0.745,0.745,0,0,0,.216-0.189l9.418-12.636h-1.15a0.624,0.624,0,0,0-.344.086,1.007,1.007,0,0,0-.247.239ZM1001.99,9a2.8,2.8,0,0,0-.6-1.021,2.587,2.587,0,0,0-.91-0.63,3.051,3.051,0,0,0-2.255,0,2.582,2.582,0,0,0-.9.63,2.894,2.894,0,0,0-.6,1.021,4.135,4.135,0,0,0-.216,1.381,3.958,3.958,0,0,0,.216,1.35,2.865,2.865,0,0,0,.6,1,2.608,2.608,0,0,0,.9.625,2.9,2.9,0,0,0,1.13.216,2.809,2.809,0,0,0,1.085-.216,2.708,2.708,0,0,0,.91-0.625,2.957,2.957,0,0,0,.62-1,3.579,3.579,0,0,0,.24-1.35A3.962,3.962,0,0,0,1001.99,9Zm-1.15,2.371a1.741,1.741,0,0,1-.35.662,1.252,1.252,0,0,1-.51.369,1.8,1.8,0,0,1-1.251,0,1.24,1.24,0,0,1-.508-0.369,1.831,1.831,0,0,1-.338-0.662,3.486,3.486,0,0,1-.121-0.99,3.67,3.67,0,0,1,.121-1.012,1.873,1.873,0,0,1,.338-0.68,1.264,1.264,0,0,1,.508-0.378,1.731,1.731,0,0,1,1.251,0,1.277,1.277,0,0,1,.51.378,1.78,1.78,0,0,1,.35.68,3.681,3.681,0,0,1,.13,1.012A3.5,3.5,0,0,1,1000.84,11.374Z"/>
  <path id="BRCA2_-_20_" data-name="BRCA2 - 20%" class="cls-5" d="M465.936,120.426a6.388,6.388,0,0,0,1.922-.265,4.116,4.116,0,0,0,1.422-.752,3.2,3.2,0,0,0,.882-1.161,3.622,3.622,0,0,0,.3-1.494,2.665,2.665,0,0,0-.72-1.944,3.977,3.977,0,0,0-2.133-1.017,4.215,4.215,0,0,0,1.067-.486,3.182,3.182,0,0,0,.756-0.675,2.676,2.676,0,0,0,.45-0.819,2.857,2.857,0,0,0,.148-0.918,3.57,3.57,0,0,0-.265-1.408,2.629,2.629,0,0,0-.819-1.058,3.965,3.965,0,0,0-1.413-.666,7.868,7.868,0,0,0-2.048-.234h-4.113v12.9h4.563Zm-0.036-5.877a3.318,3.318,0,0,1,2.138.581,1.934,1.934,0,0,1,.706,1.579,2.637,2.637,0,0,1-.162.941,1.866,1.866,0,0,1-.508.738,2.391,2.391,0,0,1-.882.481,4.245,4.245,0,0,1-1.283.171h-2.79v-4.491H465.9Zm-2.781-5.643h2.367a3.456,3.456,0,0,1,2.124.531,1.976,1.976,0,0,1,.684,1.665,2.3,2.3,0,0,1-.171.9,1.757,1.757,0,0,1-.526.7,2.589,2.589,0,0,1-.9.45,4.473,4.473,0,0,1-1.278.162h-2.3v-4.4Zm13.491,6.138a1.2,1.2,0,0,1,.54.095,0.973,0.973,0,0,1,.333.31l3.348,4.608a0.763,0.763,0,0,0,.7.369h1.548l-3.762-5.121a1.844,1.844,0,0,0-.576-0.549,4.949,4.949,0,0,0,1.337-.5,3.741,3.741,0,0,0,1-.8,3.376,3.376,0,0,0,.625-1.067,3.711,3.711,0,0,0,.216-1.278,3.772,3.772,0,0,0-.279-1.48,2.865,2.865,0,0,0-.859-1.13,4.038,4.038,0,0,0-1.472-.715,7.963,7.963,0,0,0-2.115-.248H473.55v12.9h1.737v-5.382h1.323Zm-1.323-6.138H477.2a3.677,3.677,0,0,1,2.264.585,2.055,2.055,0,0,1,.76,1.737,2.63,2.63,0,0,1-.2,1.035,2.166,2.166,0,0,1-.589.806,2.738,2.738,0,0,1-.972.522,4.452,4.452,0,0,1-1.346.184h-1.827v-4.869Zm18.459,8.991a5.7,5.7,0,0,1-.679.527,3.6,3.6,0,0,1-.729.364,4.255,4.255,0,0,1-.851.212,7.168,7.168,0,0,1-1.035.067,4.531,4.531,0,0,1-1.764-.342,3.981,3.981,0,0,1-1.417-.994,4.752,4.752,0,0,1-.945-1.6,6.222,6.222,0,0,1-.347-2.151,6.109,6.109,0,0,1,.347-2.115,4.606,4.606,0,0,1,.967-1.6,4.243,4.243,0,0,1,1.481-1.012,4.908,4.908,0,0,1,1.894-.356,5.385,5.385,0,0,1,1.017.086,4.761,4.761,0,0,1,.774.211,3.707,3.707,0,0,1,.576.27q0.243,0.144.423,0.27c0.12,0.084.224,0.155,0.311,0.212a0.453,0.453,0,0,0,.247.085,0.4,0.4,0,0,0,.234-0.058,0.62,0.62,0,0,0,.144-0.149l0.567-.8a5.873,5.873,0,0,0-4.284-1.638,6.967,6.967,0,0,0-2.632.482A5.941,5.941,0,0,0,486,109.221a6.107,6.107,0,0,0-1.327,2.088,7.316,7.316,0,0,0-.473,2.673,7.783,7.783,0,0,0,.441,2.673,6.1,6.1,0,0,0,1.242,2.084,5.543,5.543,0,0,0,1.935,1.35,6.409,6.409,0,0,0,2.529.481,6.554,6.554,0,0,0,2.723-.513,5.516,5.516,0,0,0,1.921-1.431l-0.684-.747a0.361,0.361,0,0,0-.261-0.117,0.457,0.457,0,0,0-.3.135h0Zm8.658-10.368h-1.773l-5.157,12.9h1.35a0.575,0.575,0,0,0,.378-0.126,0.7,0.7,0,0,0,.216-0.288l1.206-3.114h5.787l1.206,3.114a0.72,0.72,0,0,0,.216.3,0.581,0.581,0,0,0,.378.117h1.35Zm-1.269,2.871q0.09-.234.185-0.544t0.193-.68a9.806,9.806,0,0,0,.387,1.215l2.025,5.247H499.11Zm10.112-2.776a3.9,3.9,0,0,0-1.269.7,3.726,3.726,0,0,0-.914,1.139,4.741,4.741,0,0,0-.486,1.561l0.837,0.144c0.042,0.006.08,0.011,0.113,0.014s0.064,0,.094,0a0.581,0.581,0,0,0,.378-0.117,0.717,0.717,0,0,0,.216-0.378,2.37,2.37,0,0,1,.311-0.774,2.413,2.413,0,0,1,1.273-1.008,2.722,2.722,0,0,1,.9-0.144,2.885,2.885,0,0,1,.909.14,2.081,2.081,0,0,1,.738.418,1.926,1.926,0,0,1,.5.707,2.545,2.545,0,0,1,.18.994,3.44,3.44,0,0,1-.162,1.067,4.5,4.5,0,0,1-.463.985,7.324,7.324,0,0,1-.725.968q-0.423.481-.936,1l-4.131,4.149a0.934,0.934,0,0,0-.22.333,1,1,0,0,0-.068.351v0.549h8.6v-0.972a0.536,0.536,0,0,0-.153-0.4,0.559,0.559,0,0,0-.414-0.153h-4.32a4.544,4.544,0,0,0-.711.059,6.707,6.707,0,0,0-.729.157l3.393-3.474q0.54-.549,1.022-1.075a8.621,8.621,0,0,0,.85-1.089,5.436,5.436,0,0,0,.585-1.175,3.976,3.976,0,0,0,.216-1.332,3.676,3.676,0,0,0-.3-1.512,3.3,3.3,0,0,0-.814-1.129,3.529,3.529,0,0,0-1.229-.707,4.7,4.7,0,0,0-1.53-.243A4.849,4.849,0,0,0,511.247,107.624Zm11.029,8.086h4.446v-1.359h-4.446v1.359Zm12.965-8.086a3.9,3.9,0,0,0-1.269.7,3.726,3.726,0,0,0-.914,1.139,4.741,4.741,0,0,0-.486,1.561l0.837,0.144c0.042,0.006.08,0.011,0.113,0.014s0.064,0,.094,0a0.581,0.581,0,0,0,.378-0.117,0.717,0.717,0,0,0,.216-0.378,2.37,2.37,0,0,1,.311-0.774,2.413,2.413,0,0,1,1.273-1.008,2.722,2.722,0,0,1,.9-0.144,2.885,2.885,0,0,1,.909.14,2.081,2.081,0,0,1,.738.418,1.926,1.926,0,0,1,.5.707,2.545,2.545,0,0,1,.18.994,3.44,3.44,0,0,1-.162,1.067,4.5,4.5,0,0,1-.463.985,7.324,7.324,0,0,1-.725.968q-0.423.481-.936,1l-4.131,4.149a0.934,0.934,0,0,0-.22.333,1,1,0,0,0-.068.351v0.549h8.6v-0.972a0.536,0.536,0,0,0-.153-0.4,0.559,0.559,0,0,0-.414-0.153h-4.32a4.544,4.544,0,0,0-.711.059,6.707,6.707,0,0,0-.729.157l3.393-3.474q0.54-.549,1.022-1.075a8.621,8.621,0,0,0,.85-1.089,5.436,5.436,0,0,0,.585-1.175,3.976,3.976,0,0,0,.216-1.332,3.676,3.676,0,0,0-.3-1.512,3.3,3.3,0,0,0-.814-1.129,3.529,3.529,0,0,0-1.229-.707,4.7,4.7,0,0,0-1.53-.243A4.849,4.849,0,0,0,535.241,107.624Zm15.669,3.424a6.167,6.167,0,0,0-1-2.056,3.98,3.98,0,0,0-1.489-1.211,4.347,4.347,0,0,0-1.841-.4,4.3,4.3,0,0,0-1.84.4,4,4,0,0,0-1.481,1.211,6.106,6.106,0,0,0-.99,2.056,12.12,12.12,0,0,0,0,5.864,6.056,6.056,0,0,0,.99,2.047,4.018,4.018,0,0,0,1.481,1.206,4.3,4.3,0,0,0,1.84.4,4.347,4.347,0,0,0,1.841-.4,4,4,0,0,0,1.489-1.206,6.117,6.117,0,0,0,1-2.047A11.991,11.991,0,0,0,550.91,111.048Zm-1.548,5.409a4.971,4.971,0,0,1-.666,1.611,2.517,2.517,0,0,1-.968.878,2.6,2.6,0,0,1-2.286,0,2.484,2.484,0,0,1-.963-0.878,5.04,5.04,0,0,1-.661-1.611,12.494,12.494,0,0,1,0-4.954,5.043,5.043,0,0,1,.661-1.616,2.481,2.481,0,0,1,.963-0.877,2.589,2.589,0,0,1,2.286,0,2.514,2.514,0,0,1,.968.877,4.974,4.974,0,0,1,.666,1.616A12.544,12.544,0,0,1,549.362,116.457Zm8.154-7.191a2.991,2.991,0,0,0-.6-1.017,2.529,2.529,0,0,0-.909-0.63,2.949,2.949,0,0,0-1.13-.216,2.9,2.9,0,0,0-1.129.216,2.594,2.594,0,0,0-.9.63,2.9,2.9,0,0,0-.6,1.017,4.07,4.07,0,0,0-.216,1.377,3.976,3.976,0,0,0,.216,1.355,2.858,2.858,0,0,0,.6,1.008,2.621,2.621,0,0,0,.9.625,2.9,2.9,0,0,0,1.129.216,2.821,2.821,0,0,0,1.089-.216,2.656,2.656,0,0,0,.914-0.625A3.039,3.039,0,0,0,557.5,112a3.7,3.7,0,0,0,.234-1.355A4,4,0,0,0,557.516,109.266Zm-1.157,2.372a1.837,1.837,0,0,1-.346.666,1.276,1.276,0,0,1-.513.369,1.8,1.8,0,0,1-1.251,0,1.244,1.244,0,0,1-.509-0.369,1.828,1.828,0,0,1-.337-0.666,3.535,3.535,0,0,1-.122-1,3.618,3.618,0,0,1,.122-1.008,1.919,1.919,0,0,1,.337-0.679,1.252,1.252,0,0,1,.509-0.383,1.731,1.731,0,0,1,1.251,0,1.284,1.284,0,0,1,.513.383,1.928,1.928,0,0,1,.346.679,3.5,3.5,0,0,1,.126,1.008A3.418,3.418,0,0,1,556.359,111.638Zm-3.492,8.788h1.188a0.589,0.589,0,0,0,.3-0.072,0.723,0.723,0,0,0,.216-0.189l9.423-12.636h-1.152a0.622,0.622,0,0,0-.346.086,1.022,1.022,0,0,0-.248.238ZM564.648,116a2.894,2.894,0,0,0-.6-1.022,2.582,2.582,0,0,0-.909-0.63,3.048,3.048,0,0,0-2.254,0,2.594,2.594,0,0,0-.9.63,2.894,2.894,0,0,0-.6,1.022,4.106,4.106,0,0,0-.216,1.381,3.934,3.934,0,0,0,.216,1.35,2.866,2.866,0,0,0,.6,1,2.621,2.621,0,0,0,.9.625,2.9,2.9,0,0,0,1.129.216,2.79,2.79,0,0,0,1.085-.216,2.665,2.665,0,0,0,.909-0.625,3.051,3.051,0,0,0,.625-1,3.66,3.66,0,0,0,.234-1.35A4.106,4.106,0,0,0,564.648,116Zm-1.152,2.371a1.842,1.842,0,0,1-.346.662,1.276,1.276,0,0,1-.513.369,1.8,1.8,0,0,1-1.251,0,1.244,1.244,0,0,1-.509-0.369,1.833,1.833,0,0,1-.337-0.662,3.483,3.483,0,0,1-.122-0.99,3.663,3.663,0,0,1,.122-1.012,1.874,1.874,0,0,1,.337-0.68,1.266,1.266,0,0,1,.509-0.378,1.731,1.731,0,0,1,1.251,0,1.3,1.3,0,0,1,.513.378,1.882,1.882,0,0,1,.346.68,3.541,3.541,0,0,1,.126,1.012A3.368,3.368,0,0,1,563.5,118.374Z"/>
  <path id="BRCA1_-_70_" data-name="BRCA1 - 70%" class="cls-5" d="M465.936,274.426a6.388,6.388,0,0,0,1.922-.265,4.116,4.116,0,0,0,1.422-.752,3.2,3.2,0,0,0,.882-1.161,3.622,3.622,0,0,0,.3-1.494,2.665,2.665,0,0,0-.72-1.944,3.977,3.977,0,0,0-2.133-1.017,4.215,4.215,0,0,0,1.067-.486,3.182,3.182,0,0,0,.756-0.675,2.676,2.676,0,0,0,.45-0.819,2.857,2.857,0,0,0,.148-0.918,3.57,3.57,0,0,0-.265-1.408,2.629,2.629,0,0,0-.819-1.058,3.965,3.965,0,0,0-1.413-.666,7.868,7.868,0,0,0-2.048-.234h-4.113v12.9h4.563Zm-0.036-5.877a3.318,3.318,0,0,1,2.138.581,1.934,1.934,0,0,1,.706,1.579,2.637,2.637,0,0,1-.162.941,1.866,1.866,0,0,1-.508.738,2.391,2.391,0,0,1-.882.481,4.245,4.245,0,0,1-1.283.171h-2.79v-4.491H465.9Zm-2.781-5.643h2.367a3.456,3.456,0,0,1,2.124.531,1.976,1.976,0,0,1,.684,1.665,2.3,2.3,0,0,1-.171.9,1.757,1.757,0,0,1-.526.7,2.589,2.589,0,0,1-.9.45,4.473,4.473,0,0,1-1.278.162h-2.3v-4.4Zm13.491,6.138a1.2,1.2,0,0,1,.54.1,0.973,0.973,0,0,1,.333.31l3.348,4.608a0.763,0.763,0,0,0,.7.369h1.548l-3.762-5.121a1.844,1.844,0,0,0-.576-0.549,4.949,4.949,0,0,0,1.337-.5,3.741,3.741,0,0,0,1-.805,3.376,3.376,0,0,0,.625-1.067,3.711,3.711,0,0,0,.216-1.278,3.772,3.772,0,0,0-.279-1.48,2.865,2.865,0,0,0-.859-1.13,4.038,4.038,0,0,0-1.472-.715,7.963,7.963,0,0,0-2.115-.248H473.55v12.9h1.737v-5.382h1.323Zm-1.323-6.138H477.2a3.677,3.677,0,0,1,2.264.585,2.055,2.055,0,0,1,.76,1.737,2.63,2.63,0,0,1-.2,1.035,2.166,2.166,0,0,1-.589.806,2.738,2.738,0,0,1-.972.522,4.452,4.452,0,0,1-1.346.184h-1.827v-4.869Zm18.459,8.991a5.7,5.7,0,0,1-.679.527,3.6,3.6,0,0,1-.729.364,4.255,4.255,0,0,1-.851.212,7.168,7.168,0,0,1-1.035.067,4.531,4.531,0,0,1-1.764-.342,3.981,3.981,0,0,1-1.417-.994,4.752,4.752,0,0,1-.945-1.6,6.222,6.222,0,0,1-.347-2.151,6.109,6.109,0,0,1,.347-2.115,4.606,4.606,0,0,1,.967-1.6,4.243,4.243,0,0,1,1.481-1.012,4.908,4.908,0,0,1,1.894-.356,5.385,5.385,0,0,1,1.017.086,4.761,4.761,0,0,1,.774.211,3.707,3.707,0,0,1,.576.27q0.243,0.144.423,0.27c0.12,0.084.224,0.155,0.311,0.212a0.453,0.453,0,0,0,.247.085,0.4,0.4,0,0,0,.234-0.058,0.62,0.62,0,0,0,.144-0.149l0.567-.8a5.873,5.873,0,0,0-4.284-1.638,6.967,6.967,0,0,0-2.632.482A5.941,5.941,0,0,0,486,263.221a6.107,6.107,0,0,0-1.327,2.088,7.316,7.316,0,0,0-.473,2.673,7.783,7.783,0,0,0,.441,2.673,6.1,6.1,0,0,0,1.242,2.084,5.543,5.543,0,0,0,1.935,1.35,6.409,6.409,0,0,0,2.529.481,6.554,6.554,0,0,0,2.723-.513,5.516,5.516,0,0,0,1.921-1.431l-0.684-.747a0.361,0.361,0,0,0-.261-0.117,0.457,0.457,0,0,0-.3.135h0Zm8.658-10.368h-1.773l-5.157,12.9h1.35a0.575,0.575,0,0,0,.378-0.126,0.7,0.7,0,0,0,.216-0.288l1.206-3.114h5.787l1.206,3.114a0.72,0.72,0,0,0,.216.3,0.581,0.581,0,0,0,.378.117h1.35Zm-1.269,2.871q0.09-.234.185-0.544t0.193-.68a9.806,9.806,0,0,0,.387,1.215l2.025,5.247H499.11Zm8.829,10.026h6.912V273.2h-2.538V261.5h-1.3l-3.834,3.321,0.5,0.693a0.443,0.443,0,0,0,.162.14,0.5,0.5,0,0,0,.243.058,0.517,0.517,0,0,0,.171-0.031,0.619,0.619,0,0,0,.18-0.1l2.3-1.971q-0.027.4-.027,0.8V273.2h-2.772v1.224Zm12.312-4.716h4.446v-1.359h-4.446v1.359Zm10.089-8.181v1.089a0.416,0.416,0,0,0,.4.4h6.732a2.85,2.85,0,0,0-.274.36q-0.121.189-.239,0.414l-5.418,10.638h1.143a0.865,0.865,0,0,0,.558-0.166,1.2,1.2,0,0,0,.324-0.4l5.337-10.773a2.274,2.274,0,0,0,.14-0.333,1.588,1.588,0,0,0,.067-0.5v-0.72h-8.766Zm18.545,3.519a6.167,6.167,0,0,0-1-2.056,3.98,3.98,0,0,0-1.489-1.211,4.347,4.347,0,0,0-1.841-.4,4.3,4.3,0,0,0-1.84.4,4,4,0,0,0-1.481,1.211,6.106,6.106,0,0,0-.99,2.056,12.12,12.12,0,0,0,0,5.864,6.056,6.056,0,0,0,.99,2.047,4.018,4.018,0,0,0,1.481,1.206,4.3,4.3,0,0,0,1.84.4,4.347,4.347,0,0,0,1.841-.4,4,4,0,0,0,1.489-1.206,6.117,6.117,0,0,0,1-2.047A11.991,11.991,0,0,0,550.91,265.048Zm-1.548,5.409a4.971,4.971,0,0,1-.666,1.611,2.517,2.517,0,0,1-.968.878,2.6,2.6,0,0,1-2.286,0,2.484,2.484,0,0,1-.963-0.878,5.04,5.04,0,0,1-.661-1.611,12.494,12.494,0,0,1,0-4.954,5.043,5.043,0,0,1,.661-1.616,2.481,2.481,0,0,1,.963-0.877,2.589,2.589,0,0,1,2.286,0,2.514,2.514,0,0,1,.968.877,4.974,4.974,0,0,1,.666,1.616A12.544,12.544,0,0,1,549.362,270.457Zm8.154-7.191a2.991,2.991,0,0,0-.6-1.017,2.529,2.529,0,0,0-.909-0.63,2.949,2.949,0,0,0-1.13-.216,2.9,2.9,0,0,0-1.129.216,2.594,2.594,0,0,0-.9.63,2.9,2.9,0,0,0-.6,1.017,4.07,4.07,0,0,0-.216,1.377,3.976,3.976,0,0,0,.216,1.355,2.858,2.858,0,0,0,.6,1.008,2.621,2.621,0,0,0,.9.625,2.9,2.9,0,0,0,1.129.216,2.821,2.821,0,0,0,1.089-.216,2.656,2.656,0,0,0,.914-0.625A3.039,3.039,0,0,0,557.5,266a3.7,3.7,0,0,0,.234-1.355A4,4,0,0,0,557.516,263.266Zm-1.157,2.372a1.837,1.837,0,0,1-.346.666,1.276,1.276,0,0,1-.513.369,1.8,1.8,0,0,1-1.251,0,1.244,1.244,0,0,1-.509-0.369,1.828,1.828,0,0,1-.337-0.666,3.535,3.535,0,0,1-.122-1,3.618,3.618,0,0,1,.122-1.008,1.919,1.919,0,0,1,.337-0.679,1.252,1.252,0,0,1,.509-0.383,1.731,1.731,0,0,1,1.251,0,1.284,1.284,0,0,1,.513.383,1.928,1.928,0,0,1,.346.679,3.5,3.5,0,0,1,.126,1.008A3.418,3.418,0,0,1,556.359,265.638Zm-3.492,8.788h1.188a0.589,0.589,0,0,0,.3-0.072,0.723,0.723,0,0,0,.216-0.189l9.423-12.636h-1.152a0.622,0.622,0,0,0-.346.086,1.022,1.022,0,0,0-.248.238ZM564.648,270a2.894,2.894,0,0,0-.6-1.022,2.582,2.582,0,0,0-.909-0.63,3.048,3.048,0,0,0-2.254,0,2.594,2.594,0,0,0-.9.63,2.894,2.894,0,0,0-.6,1.022,4.106,4.106,0,0,0-.216,1.381,3.934,3.934,0,0,0,.216,1.35,2.866,2.866,0,0,0,.6,1,2.621,2.621,0,0,0,.9.625,2.9,2.9,0,0,0,1.129.216,2.79,2.79,0,0,0,1.085-.216,2.665,2.665,0,0,0,.909-0.625,3.051,3.051,0,0,0,.625-1,3.66,3.66,0,0,0,.234-1.35A4.106,4.106,0,0,0,564.648,270Zm-1.152,2.371a1.842,1.842,0,0,1-.346.662,1.276,1.276,0,0,1-.513.369,1.8,1.8,0,0,1-1.251,0,1.244,1.244,0,0,1-.509-0.369,1.833,1.833,0,0,1-.337-0.662,3.483,3.483,0,0,1-.122-0.99,3.663,3.663,0,0,1,.122-1.012,1.874,1.874,0,0,1,.337-0.68,1.266,1.266,0,0,1,.509-0.378,1.731,1.731,0,0,1,1.251,0,1.3,1.3,0,0,1,.513.378,1.882,1.882,0,0,1,.346.68,3.541,3.541,0,0,1,.126,1.012A3.368,3.368,0,0,1,563.5,272.374Z"/>
  <path id="Other_Genes_RAD51C_RAD50_BRIP1_BARD1_PLAB2_STK11_P53_CH" data-name="Other Genes (RAD51C, RAD50, BRIP1, BARD1, PLAB2, STK11, P53, CH" class="cls-5" d="M473.826,32.323a6.14,6.14,0,0,0-1.3-2.088,5.812,5.812,0,0,0-2.011-1.364,7.168,7.168,0,0,0-5.189,0,5.824,5.824,0,0,0-2.007,1.364,6.14,6.14,0,0,0-1.3,2.088,7.934,7.934,0,0,0,0,5.319,6.088,6.088,0,0,0,1.3,2.084,5.8,5.8,0,0,0,2.007,1.355,7.231,7.231,0,0,0,5.189,0,5.787,5.787,0,0,0,2.011-1.355,6.088,6.088,0,0,0,1.3-2.084A7.934,7.934,0,0,0,473.826,32.323Zm-1.656,4.788a4.516,4.516,0,0,1-.918,1.593,3.934,3.934,0,0,1-1.44,1,5.3,5.3,0,0,1-3.771,0,3.974,3.974,0,0,1-1.444-1,4.48,4.48,0,0,1-.923-1.593,7.168,7.168,0,0,1,0-4.261,4.477,4.477,0,0,1,.923-1.6,4.026,4.026,0,0,1,1.444-1,5.24,5.24,0,0,1,3.771,0,3.985,3.985,0,0,1,1.44,1,4.512,4.512,0,0,1,.918,1.6A7.168,7.168,0,0,1,472.17,37.111Zm7.857,4.239a2.981,2.981,0,0,0,1-.608l-0.468-.765a0.276,0.276,0,0,0-.225-0.153,0.3,0.3,0,0,0-.166.067c-0.063.045-.14,0.095-0.23,0.149a1.867,1.867,0,0,1-.319.148,1.274,1.274,0,0,1-.437.068,0.974,0.974,0,0,1-.72-0.279,1.164,1.164,0,0,1-.279-0.855V33.65h2.61V32.489h-2.61V29.348h-0.81a0.372,0.372,0,0,0-.252.085,0.341,0.341,0,0,0-.117.221l-0.369,2.817-1.494.189V33.3a0.332,0.332,0,0,0,.1.265,0.358,0.358,0,0,0,.243.086h1.1v5.58a2.406,2.406,0,0,0,.581,1.737,2.2,2.2,0,0,0,1.66.6A3.392,3.392,0,0,0,480.027,41.35Zm4.635,0.076V34.712a4.378,4.378,0,0,1,1.139-.927,2.692,2.692,0,0,1,1.327-.342,1.768,1.768,0,0,1,1.445.572,2.454,2.454,0,0,1,.472,1.606v5.805h1.6v-5.8a4.76,4.76,0,0,0-.2-1.413,3.1,3.1,0,0,0-.58-1.093,2.553,2.553,0,0,0-.954-0.7,3.3,3.3,0,0,0-1.319-.247,3.472,3.472,0,0,0-1.638.373,4.922,4.922,0,0,0-1.3.994V28.169h-1.6V41.426h1.6Zm10.224-8.914a3.875,3.875,0,0,0-1.341.954A4.2,4.2,0,0,0,492.7,34.9a5.313,5.313,0,0,0-.293,1.782,6.2,6.2,0,0,0,.324,2.088,4.293,4.293,0,0,0,.9,1.526,3.82,3.82,0,0,0,1.377.936,4.633,4.633,0,0,0,1.741.32,5.964,5.964,0,0,0,1-.086,5.618,5.618,0,0,0,.977-0.257,4.412,4.412,0,0,0,.886-0.436,3.038,3.038,0,0,0,.711-0.626l-0.45-.585a0.353,0.353,0,0,0-.306-0.153,0.7,0.7,0,0,0-.364.139,5.725,5.725,0,0,1-.527.3,4.928,4.928,0,0,1-.751.3,3.433,3.433,0,0,1-1.04.139,3.089,3.089,0,0,1-1.17-.212,2.378,2.378,0,0,1-.9-0.639,3.071,3.071,0,0,1-.594-1.066,5.033,5.033,0,0,1-.234-1.5h6.066a0.336,0.336,0,0,0,.306-0.126,1.044,1.044,0,0,0,.081-0.5,4.938,4.938,0,0,0-.283-1.733,3.614,3.614,0,0,0-.788-1.278,3.4,3.4,0,0,0-1.2-.792,4.072,4.072,0,0,0-1.512-.274A4.4,4.4,0,0,0,494.886,32.512Zm2.795,1.017a2.013,2.013,0,0,1,.724.522,2.277,2.277,0,0,1,.45.8,3.245,3.245,0,0,1,.153,1.022h-4.959a3.156,3.156,0,0,1,.828-1.858A2.775,2.775,0,0,1,497.681,33.529Zm5.98,7.9v-5.8a3.65,3.65,0,0,1,.941-1.413,2.064,2.064,0,0,1,1.4-.486,2.444,2.444,0,0,1,.729.086,1.4,1.4,0,0,0,.387.085,0.27,0.27,0,0,0,.279-0.225l0.207-1.2a2.393,2.393,0,0,0-.567-0.239,2.724,2.724,0,0,0-2.3.45,4.173,4.173,0,0,0-1.157,1.489l-0.108-1.422a0.607,0.607,0,0,0-.135-0.342,0.507,0.507,0,0,0-.36-0.1h-0.918v9.117h1.6Zm13.491-1.62a4.213,4.213,0,0,1-1.494-1.017,4.607,4.607,0,0,1-.976-1.624,6.4,6.4,0,0,1-.347-2.182,6.3,6.3,0,0,1,.333-2.111,4.5,4.5,0,0,1,.954-1.6,4.17,4.17,0,0,1,1.5-1.017A5.232,5.232,0,0,1,519.1,29.9a6.233,6.233,0,0,1,1.292.117,5.489,5.489,0,0,1,.945.284,4.327,4.327,0,0,1,.679.347q0.279,0.18.5,0.306a0.637,0.637,0,0,0,.315.1,0.455,0.455,0,0,0,.4-0.243l0.5-.792a6.359,6.359,0,0,0-.891-0.68,5.689,5.689,0,0,0-1.039-.513,6.669,6.669,0,0,0-1.22-.324,8.447,8.447,0,0,0-1.422-.112,7.444,7.444,0,0,0-2.731.477,5.785,5.785,0,0,0-3.4,3.429,7.5,7.5,0,0,0-.464,2.691,7.316,7.316,0,0,0,.473,2.673,6.127,6.127,0,0,0,1.318,2.084,5.924,5.924,0,0,0,2.016,1.35,6.7,6.7,0,0,0,2.574.481,12.008,12.008,0,0,0,1.485-.085,8.152,8.152,0,0,0,1.283-.261,6.887,6.887,0,0,0,1.125-.436,7.141,7.141,0,0,0,1.012-.612v-4.95h-3.96v0.99a0.323,0.323,0,0,0,.1.243,0.379,0.379,0,0,0,.274.1h2V39.4q-0.342.18-.684,0.319a5.579,5.579,0,0,1-.729.239,6.054,6.054,0,0,1-.823.148,8.531,8.531,0,0,1-.959.05A5.024,5.024,0,0,1,517.152,39.806Zm10.728-7.294a3.875,3.875,0,0,0-1.341.954A4.2,4.2,0,0,0,525.7,34.9a5.313,5.313,0,0,0-.293,1.782,6.2,6.2,0,0,0,.324,2.088,4.293,4.293,0,0,0,.9,1.526,3.82,3.82,0,0,0,1.377.936,4.633,4.633,0,0,0,1.741.32,5.964,5.964,0,0,0,1-.086,5.618,5.618,0,0,0,.977-0.257,4.412,4.412,0,0,0,.886-0.436,3.038,3.038,0,0,0,.711-0.626l-0.45-.585a0.353,0.353,0,0,0-.306-0.153,0.7,0.7,0,0,0-.364.139,5.725,5.725,0,0,1-.527.3,4.928,4.928,0,0,1-.751.3,3.433,3.433,0,0,1-1.04.139,3.089,3.089,0,0,1-1.17-.212,2.378,2.378,0,0,1-.9-0.639,3.071,3.071,0,0,1-.594-1.066,5.033,5.033,0,0,1-.234-1.5h6.066a0.336,0.336,0,0,0,.306-0.126,1.044,1.044,0,0,0,.081-0.5,4.938,4.938,0,0,0-.283-1.733,3.614,3.614,0,0,0-.788-1.278,3.4,3.4,0,0,0-1.2-.792,4.072,4.072,0,0,0-1.512-.274A4.4,4.4,0,0,0,527.88,32.512Zm2.795,1.017a2.013,2.013,0,0,1,.724.522,2.277,2.277,0,0,1,.45.8A3.245,3.245,0,0,1,532,35.873h-4.959a3.156,3.156,0,0,1,.828-1.858A2.775,2.775,0,0,1,530.675,33.529Zm5.98,7.9V34.712a4.378,4.378,0,0,1,1.139-.927,2.692,2.692,0,0,1,1.327-.342,1.768,1.768,0,0,1,1.445.572,2.454,2.454,0,0,1,.472,1.606v5.805h1.6v-5.8a4.76,4.76,0,0,0-.2-1.413,3.1,3.1,0,0,0-.58-1.093,2.553,2.553,0,0,0-.954-0.7,3.3,3.3,0,0,0-1.319-.247,3.451,3.451,0,0,0-1.7.4,5.128,5.128,0,0,0-1.328,1.062l-0.126-.99a0.409,0.409,0,0,0-.432-0.333h-0.954v9.117h1.6Zm10.224-8.914a3.875,3.875,0,0,0-1.341.954A4.2,4.2,0,0,0,544.7,34.9a5.313,5.313,0,0,0-.293,1.782,6.2,6.2,0,0,0,.324,2.088,4.293,4.293,0,0,0,.905,1.526,3.82,3.82,0,0,0,1.377.936,4.633,4.633,0,0,0,1.741.32,5.964,5.964,0,0,0,1-.086,5.618,5.618,0,0,0,.977-0.257,4.412,4.412,0,0,0,.886-0.436,3.038,3.038,0,0,0,.711-0.626l-0.45-.585a0.353,0.353,0,0,0-.306-0.153,0.7,0.7,0,0,0-.364.139,5.725,5.725,0,0,1-.527.3,4.928,4.928,0,0,1-.751.3,3.433,3.433,0,0,1-1.04.139,3.089,3.089,0,0,1-1.17-.212,2.378,2.378,0,0,1-.9-0.639,3.071,3.071,0,0,1-.594-1.066,5.033,5.033,0,0,1-.234-1.5h6.066a0.336,0.336,0,0,0,.306-0.126,1.044,1.044,0,0,0,.081-0.5,4.938,4.938,0,0,0-.283-1.733,3.614,3.614,0,0,0-.788-1.278,3.4,3.4,0,0,0-1.2-.792,4.072,4.072,0,0,0-1.512-.274A4.4,4.4,0,0,0,546.879,32.512Zm2.795,1.017a2.013,2.013,0,0,1,.724.522,2.277,2.277,0,0,1,.45.8A3.245,3.245,0,0,1,551,35.873h-4.959a3.156,3.156,0,0,1,.828-1.858A2.775,2.775,0,0,1,549.674,33.529Zm9.958-.3a3.823,3.823,0,0,0-1.237-.779,4.358,4.358,0,0,0-1.616-.283,4.07,4.07,0,0,0-1.377.216,3.1,3.1,0,0,0-1.017.58,2.462,2.462,0,0,0-.63.846,2.426,2.426,0,0,0-.216,1,2.226,2.226,0,0,0,.2.994,2.1,2.1,0,0,0,.535.689,3.066,3.066,0,0,0,.761.463q0.428,0.185.873,0.328t0.873,0.275a4.366,4.366,0,0,1,.76.306,1.713,1.713,0,0,1,.536.423,0.955,0.955,0,0,1,.2.626,1.482,1.482,0,0,1-.112.576,1.3,1.3,0,0,1-.347.477,1.719,1.719,0,0,1-.585.328,2.5,2.5,0,0,1-.819.122,2.824,2.824,0,0,1-.913-0.126,3.346,3.346,0,0,1-.621-0.279q-0.256-.153-0.437-0.279a0.6,0.6,0,0,0-.342-0.126,0.481,0.481,0,0,0-.261.063,0.551,0.551,0,0,0-.171.18l-0.378.612a4.379,4.379,0,0,0,1.314.8,4.6,4.6,0,0,0,1.728.31,4.437,4.437,0,0,0,1.476-.225,3.21,3.21,0,0,0,1.08-.617,2.543,2.543,0,0,0,.666-0.927,2.978,2.978,0,0,0,.225-1.166,2.025,2.025,0,0,0-.2-0.941,2.06,2.06,0,0,0-.536-0.661,3.155,3.155,0,0,0-.756-0.45q-0.423-.18-0.868-0.328t-0.869-.279a4.65,4.65,0,0,1-.756-0.3,1.754,1.754,0,0,1-.535-0.405,0.862,0.862,0,0,1-.2-0.585,1.125,1.125,0,0,1,.122-0.517,1.256,1.256,0,0,1,.351-0.419,1.752,1.752,0,0,1,.553-0.283,2.393,2.393,0,0,1,.729-0.1,2.816,2.816,0,0,1,.81.1,3.949,3.949,0,0,1,.59.225q0.247,0.121.418,0.22a0.626,0.626,0,0,0,.306.1,0.355,0.355,0,0,0,.333-0.2Zm8.2-1.206a14.389,14.389,0,0,1,1.435-3.456,0.671,0.671,0,0,0,.09-0.306,0.327,0.327,0,0,0-.063-0.207,0.634,0.634,0,0,0-.162-0.144l-0.711-.441a17,17,0,0,0-1.147,2.061,13.87,13.87,0,0,0-1.193,4.1,16.954,16.954,0,0,0,0,4.27,14.193,14.193,0,0,0,.428,2.066,13.872,13.872,0,0,0,.765,2.043,16.461,16.461,0,0,0,1.147,2.052l0.711-.432a0.633,0.633,0,0,0,.162-0.144,0.327,0.327,0,0,0,.063-0.207,0.592,0.592,0,0,0-.018-0.144,0.753,0.753,0,0,0-.072-0.171,14.938,14.938,0,0,1-1.431-3.46,14.136,14.136,0,0,1-.5-3.74A14.311,14.311,0,0,1,567.827,32.021Zm6.718,4.023a1.2,1.2,0,0,1,.54.094,0.975,0.975,0,0,1,.333.311l3.348,4.608a0.763,0.763,0,0,0,.7.369h1.548l-3.762-5.121a1.845,1.845,0,0,0-.576-0.549,4.942,4.942,0,0,0,1.337-.5,3.74,3.74,0,0,0,1-.806,3.374,3.374,0,0,0,.625-1.066,3.711,3.711,0,0,0,.216-1.278,3.775,3.775,0,0,0-.279-1.48,2.864,2.864,0,0,0-.859-1.13,4.042,4.042,0,0,0-1.472-.716,7.968,7.968,0,0,0-2.115-.247h-3.645v12.9h1.737V36.044h1.323Zm-1.323-6.138h1.908a3.678,3.678,0,0,1,2.264.585,2.055,2.055,0,0,1,.76,1.737,2.63,2.63,0,0,1-.2,1.035,2.163,2.163,0,0,1-.589.806,2.736,2.736,0,0,1-.972.522,4.448,4.448,0,0,1-1.346.184h-1.827V29.906Zm15.534-1.377h-1.773l-5.157,12.9h1.35a0.574,0.574,0,0,0,.378-0.126,0.7,0.7,0,0,0,.216-0.288l1.206-3.114h5.787l1.206,3.114a0.718,0.718,0,0,0,.216.3,0.58,0.58,0,0,0,.378.117h1.35ZM587.487,31.4q0.09-.234.185-0.544t0.193-.679a9.806,9.806,0,0,0,.387,1.215l2.025,5.247h-4.815Zm18.531,0.945a5.9,5.9,0,0,0-1.3-2.039,5.748,5.748,0,0,0-2.007-1.314,6.982,6.982,0,0,0-2.592-.463H595.3v12.9h4.824a6.978,6.978,0,0,0,2.592-.463,5.775,5.775,0,0,0,2.007-1.309,5.847,5.847,0,0,0,1.3-2.034A7.8,7.8,0,0,0,606.018,32.345Zm-1.656,4.761a4.428,4.428,0,0,1-.918,1.58,3.938,3.938,0,0,1-1.44.986,4.975,4.975,0,0,1-1.881.342h-3.069V29.942h3.069a4.979,4.979,0,0,1,1.881.342,3.916,3.916,0,0,1,1.44.99,4.477,4.477,0,0,1,.918,1.584A7.124,7.124,0,0,1,604.362,37.106Zm12.177-8.577h-6.111l-1.044,6.03,1.008,0.3a7.05,7.05,0,0,1,1.08-.261,6.574,6.574,0,0,1,1.008-.081,3.7,3.7,0,0,1,1.242.189,2.44,2.44,0,0,1,.887.531,2.139,2.139,0,0,1,.531.828,3.19,3.19,0,0,1,.175,1.089,3.575,3.575,0,0,1-.207,1.251,2.754,2.754,0,0,1-.589.959,2.585,2.585,0,0,1-.923.617,3.247,3.247,0,0,1-1.215.216,3.426,3.426,0,0,1-1.039-.139,4.689,4.689,0,0,1-.761-0.311q-0.324-.171-0.553-0.31a0.805,0.805,0,0,0-.4-0.139,0.5,0.5,0,0,0-.432.234l-0.486.684a4.839,4.839,0,0,0,.684.513,5.778,5.778,0,0,0,.837.432,5.487,5.487,0,0,0,.972.3,5.408,5.408,0,0,0,2.916-.2,4.312,4.312,0,0,0,1.472-.9,4.248,4.248,0,0,0,.985-1.417,4.6,4.6,0,0,0,.36-1.854,4.392,4.392,0,0,0-.265-1.548,3.409,3.409,0,0,0-.788-1.233,3.662,3.662,0,0,0-1.291-.819,4.919,4.919,0,0,0-1.778-.3,8.935,8.935,0,0,0-1.863.216l0.594-3.384h4.05a0.994,0.994,0,0,0,.729-0.22,0.77,0.77,0,0,0,.216-0.562v-0.7Zm3.78,12.9h6.912V40.2h-2.538V28.5h-1.3l-3.834,3.321,0.5,0.693a0.441,0.441,0,0,0,.162.139,0.5,0.5,0,0,0,.243.059,0.515,0.515,0,0,0,.171-0.032,0.612,0.612,0,0,0,.18-0.1l2.3-1.971q-0.027.405-.027,0.8V40.2h-2.772v1.224ZM638.094,38.9a5.677,5.677,0,0,1-.679.526,3.589,3.589,0,0,1-.729.364,4.249,4.249,0,0,1-.851.212,7.163,7.163,0,0,1-1.035.068,4.53,4.53,0,0,1-1.764-.342,3.98,3.98,0,0,1-1.417-.994,4.748,4.748,0,0,1-.945-1.6,6.221,6.221,0,0,1-.347-2.151,6.109,6.109,0,0,1,.347-2.115,4.607,4.607,0,0,1,.967-1.6,4.247,4.247,0,0,1,1.481-1.012,4.91,4.91,0,0,1,1.894-.356,5.4,5.4,0,0,1,1.017.086,4.779,4.779,0,0,1,.774.211,3.726,3.726,0,0,1,.576.27q0.243,0.144.423,0.27c0.12,0.084.224,0.155,0.311,0.211a0.453,0.453,0,0,0,.247.085,0.4,0.4,0,0,0,.234-0.058,0.614,0.614,0,0,0,.144-0.148l0.567-.8a5.873,5.873,0,0,0-4.284-1.638,6.969,6.969,0,0,0-2.632.481,5.945,5.945,0,0,0-2.048,1.355,6.108,6.108,0,0,0-1.327,2.088,7.316,7.316,0,0,0-.473,2.673,7.783,7.783,0,0,0,.441,2.673,6.1,6.1,0,0,0,1.242,2.084,5.54,5.54,0,0,0,1.935,1.35,6.408,6.408,0,0,0,2.529.481,6.554,6.554,0,0,0,2.723-.513,5.516,5.516,0,0,0,1.921-1.431l-0.684-.747a0.362,0.362,0,0,0-.261-0.117,0.457,0.457,0,0,0-.3.135h0Zm2.561,1.867a1.046,1.046,0,0,0,.216.351,0.968,0.968,0,0,0,.328.23,1.064,1.064,0,0,0,.423.081h0.117a2.284,2.284,0,0,1-.175.558,3.591,3.591,0,0,1-.266.477,4.378,4.378,0,0,1-.283.383c-0.093.111-.17,0.2-0.23,0.265a0.357,0.357,0,0,0-.126.243,0.333,0.333,0,0,0,.117.252l0.27,0.261a5.162,5.162,0,0,0,.725-0.747,4.945,4.945,0,0,0,.535-0.832,4.5,4.5,0,0,0,.333-0.864,3.246,3.246,0,0,0,.117-0.841,1.661,1.661,0,0,0-.072-0.5,1.24,1.24,0,0,0-.211-0.4,0.963,0.963,0,0,0-.351-0.275,1.208,1.208,0,0,0-.914-0.018,1.013,1.013,0,0,0-.337.221,0.992,0.992,0,0,0-.216.324,1.013,1.013,0,0,0-.077.392A1.251,1.251,0,0,0,640.655,40.765Zm11.875-4.721a1.2,1.2,0,0,1,.54.094,0.975,0.975,0,0,1,.333.311l3.348,4.608a0.763,0.763,0,0,0,.7.369H659l-3.762-5.121a1.845,1.845,0,0,0-.576-0.549,4.942,4.942,0,0,0,1.337-.5,3.74,3.74,0,0,0,1-.806,3.374,3.374,0,0,0,.625-1.066,3.711,3.711,0,0,0,.216-1.278,3.775,3.775,0,0,0-.279-1.48,2.864,2.864,0,0,0-.859-1.13,4.042,4.042,0,0,0-1.472-.716,7.968,7.968,0,0,0-2.115-.247H649.47v12.9h1.737V36.044h1.323Zm-1.323-6.138h1.908a3.678,3.678,0,0,1,2.264.585,2.055,2.055,0,0,1,.76,1.737,2.63,2.63,0,0,1-.2,1.035,2.163,2.163,0,0,1-.589.806,2.736,2.736,0,0,1-.972.522,4.448,4.448,0,0,1-1.346.184h-1.827V29.906Zm15.534-1.377h-1.773l-5.157,12.9h1.35a0.574,0.574,0,0,0,.378-0.126,0.7,0.7,0,0,0,.216-0.288l1.206-3.114h5.787l1.206,3.114a0.718,0.718,0,0,0,.216.3,0.58,0.58,0,0,0,.378.117h1.35ZM665.472,31.4q0.09-.234.185-0.544t0.193-.679a9.806,9.806,0,0,0,.387,1.215l2.025,5.247h-4.815ZM684,32.345a5.9,5.9,0,0,0-1.3-2.039,5.748,5.748,0,0,0-2.007-1.314,6.982,6.982,0,0,0-2.592-.463h-4.824v12.9h4.824a6.978,6.978,0,0,0,2.592-.463,5.775,5.775,0,0,0,2.007-1.309,5.847,5.847,0,0,0,1.3-2.034A7.8,7.8,0,0,0,684,32.345Zm-1.656,4.761a4.428,4.428,0,0,1-.918,1.58,3.938,3.938,0,0,1-1.44.986,4.975,4.975,0,0,1-1.881.342h-3.069V29.942h3.069a4.979,4.979,0,0,1,1.881.342,3.916,3.916,0,0,1,1.44.99,4.477,4.477,0,0,1,.918,1.584A7.124,7.124,0,0,1,682.347,37.106Zm12.177-8.577h-6.111l-1.044,6.03,1.008,0.3a7.05,7.05,0,0,1,1.08-.261,6.574,6.574,0,0,1,1.008-.081,3.7,3.7,0,0,1,1.242.189,2.44,2.44,0,0,1,.887.531,2.139,2.139,0,0,1,.531.828,3.19,3.19,0,0,1,.175,1.089,3.575,3.575,0,0,1-.207,1.251,2.754,2.754,0,0,1-.589.959,2.585,2.585,0,0,1-.923.617,3.247,3.247,0,0,1-1.215.216,3.426,3.426,0,0,1-1.039-.139,4.689,4.689,0,0,1-.761-0.311q-0.324-.171-0.553-0.31a0.805,0.805,0,0,0-.4-0.139,0.5,0.5,0,0,0-.432.234l-0.486.684a4.839,4.839,0,0,0,.684.513,5.778,5.778,0,0,0,.837.432,5.487,5.487,0,0,0,.972.3,5.408,5.408,0,0,0,2.916-.2,4.312,4.312,0,0,0,1.472-.9,4.248,4.248,0,0,0,.985-1.417,4.6,4.6,0,0,0,.36-1.854,4.392,4.392,0,0,0-.265-1.548,3.409,3.409,0,0,0-.788-1.233,3.662,3.662,0,0,0-1.291-.819,4.919,4.919,0,0,0-1.778-.3,8.935,8.935,0,0,0-1.863.216l0.594-3.384h4.05a0.994,0.994,0,0,0,.729-0.22,0.77,0.77,0,0,0,.216-0.562v-0.7Zm10.733,3.519a6.171,6.171,0,0,0-1-2.056,3.98,3.98,0,0,0-1.489-1.21,4.349,4.349,0,0,0-1.841-.4,4.305,4.305,0,0,0-1.84.4,4,4,0,0,0-1.481,1.21,6.109,6.109,0,0,0-.99,2.057,10.6,10.6,0,0,0-.36,2.934,10.554,10.554,0,0,0,.36,2.929,6.058,6.058,0,0,0,.99,2.047,4.017,4.017,0,0,0,1.481,1.206,4.3,4.3,0,0,0,1.84.4,4.347,4.347,0,0,0,1.841-.4,3.994,3.994,0,0,0,1.489-1.206,6.119,6.119,0,0,0,1-2.047,10.432,10.432,0,0,0,.364-2.929A10.482,10.482,0,0,0,705.257,32.048Zm-1.548,5.409a4.97,4.97,0,0,1-.666,1.611,2.513,2.513,0,0,1-.968.877,2.593,2.593,0,0,1-2.286,0,2.481,2.481,0,0,1-.963-0.877,5.039,5.039,0,0,1-.661-1.611,10.479,10.479,0,0,1-.248-2.475,10.539,10.539,0,0,1,.248-2.48,5.042,5.042,0,0,1,.661-1.616,2.484,2.484,0,0,1,.963-0.878,2.593,2.593,0,0,1,2.286,0,2.517,2.517,0,0,1,.968.878,4.973,4.973,0,0,1,.666,1.616,10.545,10.545,0,0,1,.247,2.48A10.485,10.485,0,0,1,703.709,37.457Zm2.934,3.308a1.046,1.046,0,0,0,.216.351,0.968,0.968,0,0,0,.328.23,1.064,1.064,0,0,0,.423.081h0.117a2.284,2.284,0,0,1-.175.558,3.591,3.591,0,0,1-.266.477,4.378,4.378,0,0,1-.283.383c-0.093.111-.17,0.2-0.23,0.265a0.357,0.357,0,0,0-.126.243,0.333,0.333,0,0,0,.117.252l0.27,0.261a5.162,5.162,0,0,0,.725-0.747,4.945,4.945,0,0,0,.535-0.832,4.5,4.5,0,0,0,.333-0.864,3.246,3.246,0,0,0,.117-0.841,1.661,1.661,0,0,0-.072-0.5,1.24,1.24,0,0,0-.211-0.4,0.963,0.963,0,0,0-.351-0.275,1.208,1.208,0,0,0-.914-0.018,1.013,1.013,0,0,0-.337.221,0.992,0.992,0,0,0-.216.324,1.013,1.013,0,0,0-.077.392A1.251,1.251,0,0,0,706.643,40.765Zm13.2,0.661a6.384,6.384,0,0,0,1.922-.265,4.113,4.113,0,0,0,1.422-.751,3.2,3.2,0,0,0,.882-1.161,3.622,3.622,0,0,0,.3-1.494,2.665,2.665,0,0,0-.72-1.944,3.978,3.978,0,0,0-2.133-1.017,4.215,4.215,0,0,0,1.067-.486,3.182,3.182,0,0,0,.756-0.675,2.675,2.675,0,0,0,.45-0.819,2.856,2.856,0,0,0,.148-0.918,3.573,3.573,0,0,0-.265-1.408,2.628,2.628,0,0,0-.819-1.058,3.967,3.967,0,0,0-1.413-.666,7.872,7.872,0,0,0-2.048-.234h-4.113v12.9h4.563Zm-0.036-5.877a3.318,3.318,0,0,1,2.138.581,1.935,1.935,0,0,1,.706,1.579,2.634,2.634,0,0,1-.162.941,1.865,1.865,0,0,1-.508.738,2.39,2.39,0,0,1-.882.482,4.242,4.242,0,0,1-1.283.171h-2.79V35.549h2.781Zm-2.781-5.643h2.367a3.457,3.457,0,0,1,2.124.531A1.976,1.976,0,0,1,722.2,32.1a2.3,2.3,0,0,1-.171.9,1.757,1.757,0,0,1-.526.7,2.588,2.588,0,0,1-.9.45,4.473,4.473,0,0,1-1.278.162h-2.3v-4.4Zm13.491,6.138a1.2,1.2,0,0,1,.54.094,0.975,0.975,0,0,1,.333.311l3.348,4.608a0.763,0.763,0,0,0,.7.369h1.548l-3.762-5.121a1.845,1.845,0,0,0-.576-0.549,4.942,4.942,0,0,0,1.337-.5,3.74,3.74,0,0,0,1-.806,3.374,3.374,0,0,0,.625-1.066,3.711,3.711,0,0,0,.216-1.278,3.775,3.775,0,0,0-.279-1.48,2.864,2.864,0,0,0-.859-1.13,4.042,4.042,0,0,0-1.472-.716,7.968,7.968,0,0,0-2.115-.247h-3.645v12.9h1.737V36.044h1.323Zm-1.323-6.138H731.1a3.678,3.678,0,0,1,2.264.585,2.055,2.055,0,0,1,.76,1.737,2.63,2.63,0,0,1-.2,1.035,2.163,2.163,0,0,1-.589.806,2.736,2.736,0,0,1-.972.522,4.448,4.448,0,0,1-1.346.184h-1.827V29.906Zm12.15-1.377H739.6v12.9h1.746v-12.9Zm7.92,8.073a6.477,6.477,0,0,0,2.061-.3,4.286,4.286,0,0,0,1.508-.842,3.541,3.541,0,0,0,.922-1.287,4.2,4.2,0,0,0,.315-1.647,4.436,4.436,0,0,0-.292-1.647,3.249,3.249,0,0,0-.887-1.26,4.088,4.088,0,0,0-1.5-.805,7.147,7.147,0,0,0-2.129-.284h-3.807v12.9h1.737V36.6h2.07Zm-2.07-6.7h2.07a3.321,3.321,0,0,1,2.3.693,2.474,2.474,0,0,1,.76,1.926,2.906,2.906,0,0,1-.2,1.089,2.3,2.3,0,0,1-.585.85,2.7,2.7,0,0,1-.958.553,4.023,4.023,0,0,1-1.319.2h-2.07v-5.31Zm10.1,11.52H764.2V40.2h-2.538V28.5h-1.3l-3.834,3.321,0.5,0.693a0.441,0.441,0,0,0,.162.139,0.5,0.5,0,0,0,.243.059,0.515,0.515,0,0,0,.171-0.032,0.612,0.612,0,0,0,.18-0.1l2.3-1.971q-0.027.405-.027,0.8V40.2H757.29v1.224Zm8.339-.661a1.046,1.046,0,0,0,.216.351,0.968,0.968,0,0,0,.328.23,1.064,1.064,0,0,0,.423.081h0.117a2.284,2.284,0,0,1-.175.558,3.591,3.591,0,0,1-.266.477,4.378,4.378,0,0,1-.283.383c-0.093.111-.17,0.2-0.23,0.265a0.357,0.357,0,0,0-.126.243,0.333,0.333,0,0,0,.117.252l0.27,0.261a5.162,5.162,0,0,0,.725-0.747,4.945,4.945,0,0,0,.535-0.832,4.5,4.5,0,0,0,.333-0.864,3.246,3.246,0,0,0,.117-0.841,1.661,1.661,0,0,0-.072-0.5,1.24,1.24,0,0,0-.211-0.4A0.963,0.963,0,0,0,767.1,39.4a1.208,1.208,0,0,0-.914-0.018,1.013,1.013,0,0,0-.337.221,0.992,0.992,0,0,0-.216.324,1.013,1.013,0,0,0-.077.392A1.251,1.251,0,0,0,765.629,40.765Zm13.2,0.661a6.384,6.384,0,0,0,1.922-.265,4.113,4.113,0,0,0,1.422-.751,3.2,3.2,0,0,0,.882-1.161,3.622,3.622,0,0,0,.3-1.494,2.665,2.665,0,0,0-.72-1.944,3.978,3.978,0,0,0-2.133-1.017,4.215,4.215,0,0,0,1.067-.486,3.182,3.182,0,0,0,.756-0.675,2.675,2.675,0,0,0,.45-0.819,2.856,2.856,0,0,0,.148-0.918,3.573,3.573,0,0,0-.265-1.408,2.628,2.628,0,0,0-.819-1.058,3.967,3.967,0,0,0-1.413-.666,7.872,7.872,0,0,0-2.048-.234h-4.113v12.9h4.563Zm-0.036-5.877a3.318,3.318,0,0,1,2.138.581,1.935,1.935,0,0,1,.706,1.579,2.634,2.634,0,0,1-.162.941,1.865,1.865,0,0,1-.508.738,2.39,2.39,0,0,1-.882.482,4.242,4.242,0,0,1-1.283.171h-2.79V35.549h2.781Zm-2.781-5.643h2.367a3.457,3.457,0,0,1,2.124.531,1.976,1.976,0,0,1,.684,1.665,2.3,2.3,0,0,1-.171.9,1.757,1.757,0,0,1-.526.7,2.588,2.588,0,0,1-.9.45,4.473,4.473,0,0,1-1.278.162h-2.3v-4.4Zm15.705-1.377h-1.773l-5.157,12.9h1.35a0.574,0.574,0,0,0,.378-0.126,0.7,0.7,0,0,0,.216-0.288l1.206-3.114h5.787l1.206,3.114a0.718,0.718,0,0,0,.216.3,0.58,0.58,0,0,0,.378.117h1.35ZM790.446,31.4q0.09-.234.185-0.544t0.193-.679a9.806,9.806,0,0,0,.387,1.215l2.025,5.247h-4.815ZM801.5,36.044a1.2,1.2,0,0,1,.54.094,0.975,0.975,0,0,1,.333.311l3.348,4.608a0.763,0.763,0,0,0,.7.369h1.548l-3.762-5.121a1.845,1.845,0,0,0-.576-0.549,4.942,4.942,0,0,0,1.337-.5,3.74,3.74,0,0,0,1-.806,3.374,3.374,0,0,0,.625-1.066,3.711,3.711,0,0,0,.216-1.278,3.775,3.775,0,0,0-.279-1.48,2.864,2.864,0,0,0-.859-1.13,4.042,4.042,0,0,0-1.472-.716,7.968,7.968,0,0,0-2.115-.247h-3.645v12.9h1.737V36.044H801.5Zm-1.323-6.138h1.908a3.678,3.678,0,0,1,2.264.585,2.055,2.055,0,0,1,.76,1.737,2.63,2.63,0,0,1-.2,1.035,2.163,2.163,0,0,1-.589.806,2.736,2.736,0,0,1-.972.522,4.448,4.448,0,0,1-1.346.184h-1.827V29.906Zm20.8,2.439a5.9,5.9,0,0,0-1.3-2.039,5.748,5.748,0,0,0-2.007-1.314,6.982,6.982,0,0,0-2.592-.463h-4.824v12.9h4.824a6.978,6.978,0,0,0,2.592-.463,5.775,5.775,0,0,0,2.007-1.309,5.847,5.847,0,0,0,1.3-2.034A7.8,7.8,0,0,0,820.974,32.345Zm-1.656,4.761a4.428,4.428,0,0,1-.918,1.58,3.938,3.938,0,0,1-1.44.986,4.975,4.975,0,0,1-1.881.342H812.01V29.942h3.069a4.979,4.979,0,0,1,1.881.342,3.916,3.916,0,0,1,1.44.99,4.477,4.477,0,0,1,.918,1.584A7.124,7.124,0,0,1,819.318,37.106Zm5.958,4.32h6.912V40.2H829.65V28.5h-1.3l-3.834,3.321,0.5,0.693a0.441,0.441,0,0,0,.162.139,0.5,0.5,0,0,0,.243.059,0.515,0.515,0,0,0,.171-0.032,0.612,0.612,0,0,0,.18-0.1l2.3-1.971q-0.027.405-.027,0.8V40.2h-2.772v1.224Zm8.339-.661a1.046,1.046,0,0,0,.216.351,0.968,0.968,0,0,0,.328.23,1.064,1.064,0,0,0,.423.081H834.7a2.284,2.284,0,0,1-.175.558,3.591,3.591,0,0,1-.266.477,4.378,4.378,0,0,1-.283.383c-0.093.111-.17,0.2-0.23,0.265a0.357,0.357,0,0,0-.126.243,0.333,0.333,0,0,0,.117.252l0.27,0.261a5.162,5.162,0,0,0,.725-0.747,4.945,4.945,0,0,0,.535-0.832,4.5,4.5,0,0,0,.333-0.864,3.246,3.246,0,0,0,.117-0.841,1.661,1.661,0,0,0-.072-0.5,1.24,1.24,0,0,0-.211-0.4,0.963,0.963,0,0,0-.351-0.275,1.208,1.208,0,0,0-.914-0.018,1.013,1.013,0,0,0-.337.221,0.992,0.992,0,0,0-.216.324,1.013,1.013,0,0,0-.077.392A1.251,1.251,0,0,0,833.615,40.765ZM846.237,36.6a6.477,6.477,0,0,0,2.061-.3,4.286,4.286,0,0,0,1.508-.842,3.541,3.541,0,0,0,.922-1.287,4.2,4.2,0,0,0,.315-1.647,4.436,4.436,0,0,0-.292-1.647,3.249,3.249,0,0,0-.887-1.26,4.088,4.088,0,0,0-1.5-.805,7.147,7.147,0,0,0-2.129-.284H842.43v12.9h1.737V36.6h2.07Zm-2.07-6.7h2.07a3.321,3.321,0,0,1,2.3.693,2.474,2.474,0,0,1,.76,1.926,2.906,2.906,0,0,1-.2,1.089,2.3,2.3,0,0,1-.585.85,2.7,2.7,0,0,1-.958.553,4.023,4.023,0,0,1-1.319.2h-2.07v-5.31Zm10.827-1.377h-1.746v12.9h7.326V39.959h-5.58V28.529Zm12.708,0h-1.773l-5.157,12.9h1.35A0.574,0.574,0,0,0,862.5,41.3a0.7,0.7,0,0,0,.216-0.288l1.206-3.114h5.787l1.206,3.114a0.718,0.718,0,0,0,.216.3,0.58,0.58,0,0,0,.378.117h1.35ZM866.433,31.4q0.09-.234.185-0.544t0.193-.679a9.806,9.806,0,0,0,.387,1.215l2.025,5.247h-4.815Zm12.375,10.026a6.384,6.384,0,0,0,1.922-.265,4.113,4.113,0,0,0,1.422-.751,3.2,3.2,0,0,0,.882-1.161,3.622,3.622,0,0,0,.3-1.494,2.665,2.665,0,0,0-.72-1.944,3.978,3.978,0,0,0-2.133-1.017,4.215,4.215,0,0,0,1.067-.486,3.182,3.182,0,0,0,.756-0.675,2.675,2.675,0,0,0,.45-0.819A2.856,2.856,0,0,0,882.9,31.9a3.573,3.573,0,0,0-.265-1.408,2.628,2.628,0,0,0-.819-1.058,3.967,3.967,0,0,0-1.413-.666,7.872,7.872,0,0,0-2.048-.234h-4.113v12.9h4.563Zm-0.036-5.877a3.318,3.318,0,0,1,2.138.581,1.935,1.935,0,0,1,.706,1.579,2.634,2.634,0,0,1-.162.941,1.865,1.865,0,0,1-.508.738,2.39,2.39,0,0,1-.882.482,4.242,4.242,0,0,1-1.283.171h-2.79V35.549h2.781Zm-2.781-5.643h2.367a3.457,3.457,0,0,1,2.124.531,1.976,1.976,0,0,1,.684,1.665A2.3,2.3,0,0,1,881,33a1.757,1.757,0,0,1-.526.7,2.588,2.588,0,0,1-.9.45,4.473,4.473,0,0,1-1.278.162h-2.3v-4.4Zm12.551-1.282a3.9,3.9,0,0,0-1.269.7,3.725,3.725,0,0,0-.914,1.138,4.745,4.745,0,0,0-.486,1.561l0.837,0.144c0.042,0.006.08,0.011,0.113,0.014s0.064,0,.094,0a0.58,0.58,0,0,0,.378-0.117,0.716,0.716,0,0,0,.216-0.378,2.371,2.371,0,0,1,.311-0.774,2.407,2.407,0,0,1,1.273-1.008,2.725,2.725,0,0,1,.9-0.144,2.888,2.888,0,0,1,.909.139,2.085,2.085,0,0,1,.738.419,1.925,1.925,0,0,1,.495.706,2.548,2.548,0,0,1,.18.994,3.437,3.437,0,0,1-.162,1.067,4.505,4.505,0,0,1-.463.985,7.314,7.314,0,0,1-.725.968q-0.423.482-.936,1L885.9,40.193a0.935,0.935,0,0,0-.22.333,1,1,0,0,0-.068.351v0.549h8.6V40.454a0.536,0.536,0,0,0-.153-0.4,0.56,0.56,0,0,0-.414-0.153h-4.32a4.554,4.554,0,0,0-.711.059,6.757,6.757,0,0,0-.729.157l3.393-3.474q0.54-.549,1.022-1.076a8.614,8.614,0,0,0,.85-1.089,5.428,5.428,0,0,0,.585-1.174,3.975,3.975,0,0,0,.216-1.332,3.676,3.676,0,0,0-.3-1.512,3.3,3.3,0,0,0-.814-1.13,3.53,3.53,0,0,0-1.229-.706,4.7,4.7,0,0,0-1.53-.243A4.852,4.852,0,0,0,888.542,28.624ZM895.6,40.765a1.046,1.046,0,0,0,.216.351,0.968,0.968,0,0,0,.328.23,1.064,1.064,0,0,0,.423.081h0.117a2.284,2.284,0,0,1-.175.558,3.591,3.591,0,0,1-.266.477,4.378,4.378,0,0,1-.283.383c-0.093.111-.17,0.2-0.23,0.265a0.357,0.357,0,0,0-.126.243,0.333,0.333,0,0,0,.117.252l0.27,0.261a5.162,5.162,0,0,0,.725-0.747,4.945,4.945,0,0,0,.535-0.832,4.5,4.5,0,0,0,.333-0.864,3.246,3.246,0,0,0,.117-0.841,1.661,1.661,0,0,0-.072-0.5,1.24,1.24,0,0,0-.211-0.4,0.963,0.963,0,0,0-.351-0.275,1.208,1.208,0,0,0-.914-0.018,1.013,1.013,0,0,0-.337.221,0.992,0.992,0,0,0-.216.324,1.013,1.013,0,0,0-.077.392A1.251,1.251,0,0,0,895.6,40.765Zm15.664-11.048a4.54,4.54,0,0,0-1.557-.99,5.461,5.461,0,0,0-1.971-.342,4.563,4.563,0,0,0-1.705.3,3.733,3.733,0,0,0-1.247.792,3.444,3.444,0,0,0-1.035,2.457,3.445,3.445,0,0,0,.266,1.435,2.893,2.893,0,0,0,.7.968,3.686,3.686,0,0,0,.986.63,11.41,11.41,0,0,0,1.134.427l1.134,0.36a4.876,4.876,0,0,1,.985.427,2.205,2.205,0,0,1,.7.626,1.616,1.616,0,0,1,.265.959,2.481,2.481,0,0,1-.18.963,2.085,2.085,0,0,1-.517.742,2.352,2.352,0,0,1-.824.481,3.322,3.322,0,0,1-1.107.171,3.478,3.478,0,0,1-1.264-.2,4.64,4.64,0,0,1-.882-0.445,7.215,7.215,0,0,1-.608-0.446,0.716,0.716,0,0,0-.432-0.2,0.41,0.41,0,0,0-.229.068,0.666,0.666,0,0,0-.176.166l-0.5.828a5.351,5.351,0,0,0,1.76,1.229,5.589,5.589,0,0,0,2.281.454,5,5,0,0,0,1.832-.315,3.934,3.934,0,0,0,1.359-.864,3.66,3.66,0,0,0,.841-1.291,4.354,4.354,0,0,0,.288-1.589,3.086,3.086,0,0,0-.265-1.35,2.853,2.853,0,0,0-.7-0.927,3.991,3.991,0,0,0-.99-0.625q-0.553-.247-1.134-0.446t-1.134-.383a5.365,5.365,0,0,1-.99-0.437,2.285,2.285,0,0,1-.7-0.607,1.455,1.455,0,0,1-.266-0.9,2.014,2.014,0,0,1,.153-0.788,1.756,1.756,0,0,1,.455-0.634,2.2,2.2,0,0,1,.751-0.428,3.13,3.13,0,0,1,1.035-.157,3.22,3.22,0,0,1,1.058.153,4.177,4.177,0,0,1,.747.337,5.709,5.709,0,0,1,.513.337,0.621,0.621,0,0,0,.355.153,0.38,0.38,0,0,0,.234-0.068,0.7,0.7,0,0,0,.171-0.2Zm1.656-1.188V30H917.1v11.43h1.746V30h4.167V28.529h-10.1Zm14.229,0H925.41v12.9h1.737v-5.9h0.792a2.51,2.51,0,0,1,.365.023,0.923,0.923,0,0,1,.261.076,0.843,0.843,0,0,1,.2.131c0.057,0.051.118,0.112,0.184,0.184l4.455,5.121q0.072,0.081.144,0.153a0.648,0.648,0,0,0,.158.117,0.832,0.832,0,0,0,.2.072,1.3,1.3,0,0,0,.288.027h1.512l-5.13-6.111a3.657,3.657,0,0,0-.4-0.405,1.263,1.263,0,0,0-.441-0.243,1.579,1.579,0,0,0,.356-0.234,4.257,4.257,0,0,0,.355-0.351l4.914-5.553h-1.485a1.032,1.032,0,0,0-.472.095,1.36,1.36,0,0,0-.383.32l-4.293,4.86a1.059,1.059,0,0,1-.382.292,1.428,1.428,0,0,1-.545.086h-0.657V28.529Zm11.1,12.9h6.912V40.2h-2.538V28.5h-1.305l-3.834,3.321,0.5,0.693a0.441,0.441,0,0,0,.162.139,0.5,0.5,0,0,0,.243.059,0.515,0.515,0,0,0,.171-0.032,0.612,0.612,0,0,0,.18-0.1l2.3-1.971q-0.027.405-.027,0.8V40.2h-2.772v1.224Zm10,0h6.912V40.2h-2.538V28.5h-1.3l-3.834,3.321,0.5,0.693a0.441,0.441,0,0,0,.162.139,0.5,0.5,0,0,0,.243.059,0.515,0.515,0,0,0,.171-0.032,0.612,0.612,0,0,0,.18-0.1l2.3-1.971q-0.027.405-.027,0.8V40.2h-2.772v1.224Zm8.339-.661a1.046,1.046,0,0,0,.216.351,0.968,0.968,0,0,0,.328.23,1.064,1.064,0,0,0,.423.081h0.117a2.284,2.284,0,0,1-.175.558,3.591,3.591,0,0,1-.266.477,4.378,4.378,0,0,1-.283.383c-0.093.111-.17,0.2-0.23,0.265a0.357,0.357,0,0,0-.126.243,0.333,0.333,0,0,0,.117.252l0.27,0.261a5.162,5.162,0,0,0,.725-0.747,4.945,4.945,0,0,0,.535-0.832,4.5,4.5,0,0,0,.333-0.864,3.246,3.246,0,0,0,.117-0.841,1.661,1.661,0,0,0-.072-0.5,1.24,1.24,0,0,0-.211-0.4,0.963,0.963,0,0,0-.351-0.275,1.208,1.208,0,0,0-.914-0.018,1.013,1.013,0,0,0-.337.221,0.992,0.992,0,0,0-.216.324,1.013,1.013,0,0,0-.077.392A1.251,1.251,0,0,0,956.582,40.765ZM466.293,58.2a6.479,6.479,0,0,0,2.061-.3,4.288,4.288,0,0,0,1.508-.842,3.542,3.542,0,0,0,.922-1.287,4.2,4.2,0,0,0,.315-1.647,4.436,4.436,0,0,0-.292-1.647,3.247,3.247,0,0,0-.887-1.26,4.086,4.086,0,0,0-1.5-.806,7.147,7.147,0,0,0-2.129-.284h-3.807v12.9h1.737V58.2h2.07Zm-2.07-6.7h2.07a3.32,3.32,0,0,1,2.3.693,2.474,2.474,0,0,1,.76,1.926,2.907,2.907,0,0,1-.2,1.089,2.3,2.3,0,0,1-.585.851,2.7,2.7,0,0,1-.958.553,4.025,4.025,0,0,1-1.319.2h-2.07v-5.31Zm16.317-1.377h-6.111l-1.044,6.03,1.008,0.3a7.039,7.039,0,0,1,1.08-.261,6.574,6.574,0,0,1,1.008-.081,3.7,3.7,0,0,1,1.242.189,2.438,2.438,0,0,1,.887.531,2.139,2.139,0,0,1,.531.828,3.19,3.19,0,0,1,.175,1.089A3.576,3.576,0,0,1,479.109,60a2.756,2.756,0,0,1-.589.959,2.587,2.587,0,0,1-.923.616,3.247,3.247,0,0,1-1.215.216,3.429,3.429,0,0,1-1.039-.139,4.707,4.707,0,0,1-.761-0.31q-0.324-.171-0.553-0.311a0.8,0.8,0,0,0-.4-0.139,0.5,0.5,0,0,0-.432.234l-0.486.684a4.839,4.839,0,0,0,.684.513,5.778,5.778,0,0,0,.837.432,5.5,5.5,0,0,0,.972.3,5.408,5.408,0,0,0,2.916-.2,4.315,4.315,0,0,0,1.472-.9,4.25,4.25,0,0,0,.985-1.417,4.6,4.6,0,0,0,.36-1.854,4.391,4.391,0,0,0-.265-1.548,3.407,3.407,0,0,0-.788-1.233,3.66,3.66,0,0,0-1.291-.819,4.919,4.919,0,0,0-1.778-.3,8.935,8.935,0,0,0-1.863.216l0.594-3.384h4.05a1,1,0,0,0,.729-0.22,0.77,0.77,0,0,0,.216-0.562v-0.7Zm5.234,0.095a3.9,3.9,0,0,0-1.269.7,3.724,3.724,0,0,0-.914,1.139,4.744,4.744,0,0,0-.486,1.562l0.837,0.142,0.113,0.013c0.033,0,.064,0,0.094,0a0.567,0.567,0,0,0,.369-0.117,0.716,0.716,0,0,0,.216-0.378,2.864,2.864,0,0,1,.324-0.769,2.33,2.33,0,0,1,.536-0.611,2.443,2.443,0,0,1,.733-0.4,2.725,2.725,0,0,1,.9-0.144,2.934,2.934,0,0,1,.905.135,2.013,2.013,0,0,1,.724.405,1.869,1.869,0,0,1,.482.684,2.477,2.477,0,0,1,.175.972,2.439,2.439,0,0,1-.166.918,1.736,1.736,0,0,1-.536.711,2.725,2.725,0,0,1-.949.468,5,5,0,0,1-1.4.171V57a6.282,6.282,0,0,1,1.652.18,2.6,2.6,0,0,1,1.008.495,1.643,1.643,0,0,1,.5.747,3.092,3.092,0,0,1,.139.954,2.311,2.311,0,0,1-.171.855,2.393,2.393,0,0,1-.508.783,2.579,2.579,0,0,1-.846.572,2.957,2.957,0,0,1-1.184.221,2.83,2.83,0,0,1-1.129-.2,2.632,2.632,0,0,1-.761-0.486,2.5,2.5,0,0,1-.486-0.617q-0.18-.329-0.306-0.59-0.018-.045-0.036-0.085T484.3,59.75a0.486,0.486,0,0,0-.211-0.239,0.656,0.656,0,0,0-.32-0.076,0.953,0.953,0,0,0-.378.081l-0.684.288a7.987,7.987,0,0,0,.549,1.337,3.762,3.762,0,0,0,.828,1.066,3.64,3.64,0,0,0,1.233.706,5.31,5.31,0,0,0,1.755.257,5.144,5.144,0,0,0,1.67-.266,4.125,4.125,0,0,0,1.363-.765,3.6,3.6,0,0,0,.923-1.21,3.69,3.69,0,0,0,.337-1.6,3.015,3.015,0,0,0-.634-1.962,3.5,3.5,0,0,0-1.895-1.116,3.939,3.939,0,0,0,.927-0.405,2.693,2.693,0,0,0,.707-0.617,2.657,2.657,0,0,0,.45-0.846,3.512,3.512,0,0,0,.157-1.093,3.238,3.238,0,0,0-.279-1.359,3.016,3.016,0,0,0-.778-1.044,3.524,3.524,0,0,0-1.193-.666,4.7,4.7,0,0,0-1.512-.234A4.849,4.849,0,0,0,485.774,50.224Zm6.885,12.141a1.046,1.046,0,0,0,.216.351,0.968,0.968,0,0,0,.328.23,1.064,1.064,0,0,0,.423.081h0.117a2.285,2.285,0,0,1-.175.558,3.6,3.6,0,0,1-.266.477,4.393,4.393,0,0,1-.283.383c-0.093.111-.17,0.2-0.23,0.265a0.356,0.356,0,0,0-.126.243,0.333,0.333,0,0,0,.117.252l0.27,0.261a5.167,5.167,0,0,0,.725-0.747,4.949,4.949,0,0,0,.535-0.832,4.5,4.5,0,0,0,.333-0.864,3.247,3.247,0,0,0,.117-0.842,1.661,1.661,0,0,0-.072-0.5,1.24,1.24,0,0,0-.211-0.405A0.962,0.962,0,0,0,494.126,61a1.208,1.208,0,0,0-.914-0.018,1.011,1.011,0,0,0-.337.221,0.989,0.989,0,0,0-.216.324,1.012,1.012,0,0,0-.077.391A1.251,1.251,0,0,0,492.659,62.365ZM510.087,60.5a5.7,5.7,0,0,1-.679.526,3.6,3.6,0,0,1-.729.364,4.255,4.255,0,0,1-.851.212,7.163,7.163,0,0,1-1.035.068,4.531,4.531,0,0,1-1.764-.342,3.982,3.982,0,0,1-1.417-.995,4.749,4.749,0,0,1-.945-1.6,6.222,6.222,0,0,1-.347-2.151,6.109,6.109,0,0,1,.347-2.115,4.606,4.606,0,0,1,.967-1.6,4.244,4.244,0,0,1,1.481-1.013,4.908,4.908,0,0,1,1.894-.355,5.388,5.388,0,0,1,1.017.086,4.759,4.759,0,0,1,.774.211,3.707,3.707,0,0,1,.576.27q0.243,0.144.423,0.27c0.12,0.084.224,0.154,0.311,0.211a0.454,0.454,0,0,0,.247.086,0.4,0.4,0,0,0,.234-0.059,0.618,0.618,0,0,0,.144-0.148l0.567-.8a5.873,5.873,0,0,0-4.284-1.638,6.967,6.967,0,0,0-2.632.482,5.942,5.942,0,0,0-2.048,1.354,6.107,6.107,0,0,0-1.327,2.088,7.316,7.316,0,0,0-.473,2.673,7.783,7.783,0,0,0,.441,2.673,6.1,6.1,0,0,0,1.242,2.084,5.543,5.543,0,0,0,1.935,1.35,6.409,6.409,0,0,0,2.529.482,6.554,6.554,0,0,0,2.723-.513,5.516,5.516,0,0,0,1.921-1.431l-0.684-.747a0.361,0.361,0,0,0-.261-0.117,0.457,0.457,0,0,0-.3.135h0Zm13.662-10.368h-1.755V55.88h-6.948V50.129h-1.755v12.9h1.755V57.158h6.948v5.868h1.755v-12.9Zm3.546,0v12.9h7.947V61.6H529.05V57.2h5.013V55.835H529.05V51.551h6.192V50.129h-7.947Zm11.916,0h-1.737v12.9h1.737v-5.9H540a2.5,2.5,0,0,1,.365.023,0.92,0.92,0,0,1,.261.077,0.84,0.84,0,0,1,.2.13c0.057,0.051.118,0.112,0.184,0.184l4.455,5.121q0.072,0.081.144,0.153a0.654,0.654,0,0,0,.158.117,0.836,0.836,0,0,0,.2.072,1.3,1.3,0,0,0,.288.027h1.512l-5.13-6.111a3.657,3.657,0,0,0-.4-0.405,1.263,1.263,0,0,0-.441-0.243,1.586,1.586,0,0,0,.356-0.234,4.288,4.288,0,0,0,.355-0.351l4.914-5.553h-1.485a1.032,1.032,0,0,0-.472.095,1.358,1.358,0,0,0-.383.319l-4.293,4.86a1.061,1.061,0,0,1-.382.293,1.43,1.43,0,0,1-.545.085h-0.657V50.129Zm12.38,0.095a3.9,3.9,0,0,0-1.269.7,3.724,3.724,0,0,0-.914,1.139,4.744,4.744,0,0,0-.486,1.562l0.837,0.144,0.113,0.014c0.033,0,.064,0,0.094,0a0.581,0.581,0,0,0,.378-0.117,0.717,0.717,0,0,0,.216-0.378,2.37,2.37,0,0,1,.311-0.774,2.407,2.407,0,0,1,1.273-1.008,2.722,2.722,0,0,1,.9-0.144,2.885,2.885,0,0,1,.909.139,2.082,2.082,0,0,1,.738.419,1.924,1.924,0,0,1,.5.706,2.547,2.547,0,0,1,.18.995,3.437,3.437,0,0,1-.162,1.066,4.505,4.505,0,0,1-.463.986,7.32,7.32,0,0,1-.725.968q-0.423.481-.936,1l-4.131,4.149a0.934,0.934,0,0,0-.22.333,1,1,0,0,0-.068.351v0.549h8.6V62.054a0.536,0.536,0,0,0-.153-0.4,0.559,0.559,0,0,0-.414-0.153h-4.32a4.542,4.542,0,0,0-.711.058,6.709,6.709,0,0,0-.729.158l3.393-3.474q0.54-.549,1.022-1.075a8.621,8.621,0,0,0,.85-1.089,5.433,5.433,0,0,0,.585-1.175A3.976,3.976,0,0,0,557,53.576a3.676,3.676,0,0,0-.3-1.512,3.3,3.3,0,0,0-.814-1.13,3.528,3.528,0,0,0-1.229-.706,4.7,4.7,0,0,0-1.53-.243A4.849,4.849,0,0,0,551.591,50.224Zm7.056,12.141a1.046,1.046,0,0,0,.216.351,0.968,0.968,0,0,0,.328.23,1.064,1.064,0,0,0,.423.081h0.117a2.285,2.285,0,0,1-.175.558,3.6,3.6,0,0,1-.266.477,4.393,4.393,0,0,1-.283.383c-0.093.111-.17,0.2-0.23,0.265a0.356,0.356,0,0,0-.126.243,0.333,0.333,0,0,0,.117.252l0.27,0.261a5.167,5.167,0,0,0,.725-0.747,4.949,4.949,0,0,0,.535-0.832,4.5,4.5,0,0,0,.333-0.864,3.247,3.247,0,0,0,.117-0.842,1.661,1.661,0,0,0-.072-0.5,1.24,1.24,0,0,0-.211-0.405A0.962,0.962,0,0,0,560.114,61a1.208,1.208,0,0,0-.914-0.018,1.011,1.011,0,0,0-.337.221,0.989,0.989,0,0,0-.216.324,1.012,1.012,0,0,0-.077.391A1.251,1.251,0,0,0,558.647,62.365Zm14.98-4-4.455-7.938a0.518,0.518,0,0,0-.243-0.252,1.119,1.119,0,0,0-.36-0.045h-1.287v12.9h1.53V53.549c0-.126,0-0.264-0.013-0.414s-0.023-.3-0.041-0.459l4.518,8.091a0.694,0.694,0,0,0,.63.4h0.252a0.694,0.694,0,0,0,.63-0.4l4.419-8.064q-0.018.225-.027,0.441t-0.009.405v9.477h1.53v-12.9h-1.287a1.119,1.119,0,0,0-.36.045,0.518,0.518,0,0,0-.243.252l-4.365,7.929q-0.126.234-.225,0.463t-0.189.481q-0.09-.243-0.184-0.481a3.351,3.351,0,0,0-.221-0.455h0Zm13.9-.72a1.2,1.2,0,0,1,.54.095,0.975,0.975,0,0,1,.333.31l3.348,4.608a0.763,0.763,0,0,0,.7.369h1.548l-3.762-5.121a1.844,1.844,0,0,0-.576-0.549,4.949,4.949,0,0,0,1.337-.5,3.742,3.742,0,0,0,1-.806,3.374,3.374,0,0,0,.625-1.066,3.711,3.711,0,0,0,.216-1.278,3.775,3.775,0,0,0-.279-1.48,2.864,2.864,0,0,0-.859-1.13,4.039,4.039,0,0,0-1.472-.715,7.964,7.964,0,0,0-2.115-.248h-3.645v12.9H586.2V57.644h1.323ZM586.2,51.506h1.908a3.677,3.677,0,0,1,2.264.585,2.055,2.055,0,0,1,.76,1.737,2.63,2.63,0,0,1-.2,1.035,2.164,2.164,0,0,1-.589.806,2.738,2.738,0,0,1-.972.522,4.451,4.451,0,0,1-1.346.184H586.2V51.506Zm10.08-1.377v12.9h7.947V61.6h-6.192V57.2h5.013V55.835h-5.013V51.551h6.192V50.129H596.28Zm11.016,12.9h6.912V61.8H611.67V50.1h-1.3l-3.834,3.321,0.5,0.693a0.442,0.442,0,0,0,.162.139,0.5,0.5,0,0,0,.243.059,0.518,0.518,0,0,0,.171-0.032,0.617,0.617,0,0,0,.18-0.1l2.3-1.971q-0.027.405-.027,0.8V61.8H607.3v1.224Zm10,0h6.912V61.8h-2.538V50.1h-1.3l-3.834,3.321,0.5,0.693a0.442,0.442,0,0,0,.162.139,0.5,0.5,0,0,0,.243.059,0.518,0.518,0,0,0,.171-0.032,0.617,0.617,0,0,0,.18-0.1l2.3-1.971q-0.027.405-.027,0.8V61.8h-2.772v1.224Zm14.436-12.9h-1.773l-5.157,12.9h1.35a0.575,0.575,0,0,0,.378-0.126,0.7,0.7,0,0,0,.216-0.288l1.206-3.114h5.787l1.206,3.114a0.72,0.72,0,0,0,.216.3,0.581,0.581,0,0,0,.378.117h1.35ZM630.462,53q0.09-.234.185-0.544t0.193-.679a9.806,9.806,0,0,0,.387,1.215l2.025,5.247h-4.815Zm7.169,9.365a1.046,1.046,0,0,0,.216.351,0.968,0.968,0,0,0,.328.23,1.064,1.064,0,0,0,.423.081h0.117a2.285,2.285,0,0,1-.175.558,3.6,3.6,0,0,1-.266.477,4.393,4.393,0,0,1-.283.383c-0.093.111-.17,0.2-0.23,0.265a0.356,0.356,0,0,0-.126.243,0.333,0.333,0,0,0,.117.252l0.27,0.261a5.167,5.167,0,0,0,.725-0.747,4.949,4.949,0,0,0,.535-0.832,4.5,4.5,0,0,0,.333-0.864,3.247,3.247,0,0,0,.117-0.842,1.661,1.661,0,0,0-.072-0.5,1.24,1.24,0,0,0-.211-0.405A0.962,0.962,0,0,0,639.1,61a1.208,1.208,0,0,0-.914-0.018,1.011,1.011,0,0,0-.337.221,0.989,0.989,0,0,0-.216.324,1.012,1.012,0,0,0-.077.391A1.251,1.251,0,0,0,637.631,62.365Zm9.535-12.236h-0.9v12.9h1.53V53.837q0-.18-0.009-0.4T647.76,53l7.461,9.711a0.876,0.876,0,0,0,.275.243,0.748,0.748,0,0,0,.346.072h0.882v-12.9h-1.53v9.135q0,0.207.009,0.427t0.036,0.455l-7.47-9.72a0.9,0.9,0,0,0-.256-0.239,0.786,0.786,0,0,0-.347-0.059h0Zm17.667,12.9a6.387,6.387,0,0,0,1.922-.266,4.115,4.115,0,0,0,1.422-.751,3.2,3.2,0,0,0,.882-1.161,3.622,3.622,0,0,0,.3-1.494,2.665,2.665,0,0,0-.72-1.944,3.977,3.977,0,0,0-2.133-1.017,4.215,4.215,0,0,0,1.067-.486,3.182,3.182,0,0,0,.756-0.675,2.676,2.676,0,0,0,.45-0.819,2.857,2.857,0,0,0,.148-0.918,3.573,3.573,0,0,0-.265-1.408,2.627,2.627,0,0,0-.819-1.057,3.965,3.965,0,0,0-1.413-.666,7.868,7.868,0,0,0-2.048-.234H660.27v12.9h4.563ZM664.8,57.149a3.318,3.318,0,0,1,2.138.581,1.935,1.935,0,0,1,.706,1.579,2.634,2.634,0,0,1-.162.941,1.866,1.866,0,0,1-.508.738,2.391,2.391,0,0,1-.882.482,4.245,4.245,0,0,1-1.283.171h-2.79V57.149H664.8Zm-2.781-5.643h2.367a3.456,3.456,0,0,1,2.124.531,1.976,1.976,0,0,1,.684,1.665,2.3,2.3,0,0,1-.171.9,1.758,1.758,0,0,1-.526.7,2.589,2.589,0,0,1-.9.45,4.473,4.473,0,0,1-1.278.162h-2.3v-4.4Zm11.151-1.377h-0.9v12.9h1.53V53.837q0-.18-0.009-0.4T673.761,53l7.461,9.711a0.876,0.876,0,0,0,.275.243,0.748,0.748,0,0,0,.346.072h0.882v-12.9H681.2v9.135q0,0.207.009,0.427t0.036,0.455l-7.47-9.72a0.9,0.9,0,0,0-.256-0.239,0.786,0.786,0,0,0-.347-0.059h0ZM686.892,61.1a14.94,14.94,0,0,1-1.431,3.461,0.749,0.749,0,0,0-.072.171,0.591,0.591,0,0,0-.018.144,0.327,0.327,0,0,0,.063.207,0.634,0.634,0,0,0,.162.144l0.711,0.432a16.486,16.486,0,0,0,1.148-2.052,13.876,13.876,0,0,0,.765-2.043,14.189,14.189,0,0,0,.427-2.065,16.954,16.954,0,0,0,0-4.27,13.827,13.827,0,0,0-1.192-4.1,17,17,0,0,0-1.148-2.061l-0.711.441a0.633,0.633,0,0,0-.162.144,0.327,0.327,0,0,0-.063.207,0.671,0.671,0,0,0,.09.306,14.3,14.3,0,0,1,1.926,7.2A14.137,14.137,0,0,1,686.892,61.1Zm8.937-3.744q-0.387-.149-0.814-0.324t-0.887-.324a3,3,0,0,0-.927-0.148,2.528,2.528,0,0,0-1.039.2,2.151,2.151,0,0,0-.765.563,2.512,2.512,0,0,0-.477.864,3.512,3.512,0,0,0-.167,1.107h1.3a1.531,1.531,0,0,1,.338-1.017,1.145,1.145,0,0,1,.913-0.378,2,2,0,0,1,.711.148q0.387,0.149.815,0.324t0.886,0.32a3.081,3.081,0,0,0,.927.144,2.589,2.589,0,0,0,1.035-.2,2.1,2.1,0,0,0,.77-0.558,2.512,2.512,0,0,0,.477-0.864,3.512,3.512,0,0,0,.166-1.107h-1.3a1.535,1.535,0,0,1-.337,1.013,1.141,1.141,0,0,1-.914.383A2,2,0,0,1,695.829,57.361Zm4.869-7.232v1.089a0.417,0.417,0,0,0,.4.4h6.732a2.85,2.85,0,0,0-.274.36q-0.122.189-.239,0.414L701.9,63.026h1.143a0.865,0.865,0,0,0,.558-0.167,1.194,1.194,0,0,0,.324-0.4l5.337-10.773a2.274,2.274,0,0,0,.14-0.333,1.588,1.588,0,0,0,.067-0.5v-0.72H700.7Zm15.152,1.737a2.991,2.991,0,0,0-.6-1.017,2.529,2.529,0,0,0-.909-0.63,2.949,2.949,0,0,0-1.13-.216,2.9,2.9,0,0,0-1.129.216,2.594,2.594,0,0,0-.9.63,2.9,2.9,0,0,0-.6,1.017,4.07,4.07,0,0,0-.216,1.377,3.973,3.973,0,0,0,.216,1.355,2.858,2.858,0,0,0,.6,1.008,2.622,2.622,0,0,0,.9.626,2.9,2.9,0,0,0,1.129.216,2.821,2.821,0,0,0,1.089-.216,2.657,2.657,0,0,0,.914-0.626,3.039,3.039,0,0,0,.625-1.008,3.7,3.7,0,0,0,.234-1.355A4,4,0,0,0,715.85,51.866Zm-1.157,2.371a1.837,1.837,0,0,1-.346.666,1.276,1.276,0,0,1-.513.369,1.8,1.8,0,0,1-1.251,0,1.244,1.244,0,0,1-.509-0.369,1.828,1.828,0,0,1-.337-0.666,3.531,3.531,0,0,1-.122-0.994,3.618,3.618,0,0,1,.122-1.008,1.922,1.922,0,0,1,.337-0.679,1.251,1.251,0,0,1,.509-0.383,1.731,1.731,0,0,1,1.251,0,1.283,1.283,0,0,1,.513.383,1.93,1.93,0,0,1,.346.679,3.5,3.5,0,0,1,.126,1.008A3.414,3.414,0,0,1,714.693,54.238ZM711.2,63.026h1.188a0.589,0.589,0,0,0,.3-0.072,0.723,0.723,0,0,0,.216-0.189l9.423-12.636h-1.152a0.622,0.622,0,0,0-.346.086,1.025,1.025,0,0,0-.248.239ZM722.982,58.6a2.892,2.892,0,0,0-.6-1.021,2.582,2.582,0,0,0-.909-0.63,3.048,3.048,0,0,0-2.254,0,2.594,2.594,0,0,0-.9.63,2.892,2.892,0,0,0-.6,1.021,4.109,4.109,0,0,0-.216,1.382,3.934,3.934,0,0,0,.216,1.35,2.864,2.864,0,0,0,.6,1,2.622,2.622,0,0,0,.9.626,2.9,2.9,0,0,0,1.129.216,2.79,2.79,0,0,0,1.085-.216,2.666,2.666,0,0,0,.909-0.626,3.048,3.048,0,0,0,.625-1,3.66,3.66,0,0,0,.234-1.35A4.109,4.109,0,0,0,722.982,58.6Zm-1.152,2.372a1.839,1.839,0,0,1-.346.661,1.276,1.276,0,0,1-.513.369,1.8,1.8,0,0,1-1.251,0,1.244,1.244,0,0,1-.509-0.369,1.83,1.83,0,0,1-.337-0.661,3.483,3.483,0,0,1-.122-0.99,3.667,3.667,0,0,1,.122-1.013,1.872,1.872,0,0,1,.337-0.679,1.266,1.266,0,0,1,.509-0.378,1.731,1.731,0,0,1,1.251,0,1.3,1.3,0,0,1,.513.378,1.879,1.879,0,0,1,.346.679,3.545,3.545,0,0,1,.126,1.013A3.368,3.368,0,0,1,721.83,60.974Z"/>
  <path id="Arrow" class="cls-6" d="M211,275h15v15H211V275Zm14-9,16,16-16,16V266Z"/>
  <rect id="Background-5" data-name="Background" class="cls-4" y="168.719" width="195" height="232.281"/>
  <rect id="Background-6" data-name="Background" class="cls-4" y="110" width="195" height="51"/>
  <path id="_5-10_" data-name="5-10%" class="cls-5" d="M79.392,127.369H73.281l-1.044,6.03,1.008,0.3a7.039,7.039,0,0,1,1.08-.261,6.573,6.573,0,0,1,1.008-.081,3.7,3.7,0,0,1,1.242.189,2.437,2.437,0,0,1,.886.531,2.139,2.139,0,0,1,.531.828,3.19,3.19,0,0,1,.175,1.089,3.576,3.576,0,0,1-.207,1.251,2.747,2.747,0,0,1-.59.958,2.574,2.574,0,0,1-.922.617,3.247,3.247,0,0,1-1.215.216,3.4,3.4,0,0,1-1.04-.14,4.609,4.609,0,0,1-.76-0.31c-0.216-.114-0.4-0.217-0.553-0.311a0.811,0.811,0,0,0-.4-0.139,0.5,0.5,0,0,0-.432.234l-0.486.684a4.839,4.839,0,0,0,.684.513,5.778,5.778,0,0,0,.837.432,5.413,5.413,0,0,0,.972.3,5.4,5.4,0,0,0,2.916-.2,4.3,4.3,0,0,0,1.472-.905,4.24,4.24,0,0,0,.986-1.417,4.605,4.605,0,0,0,.36-1.854,4.394,4.394,0,0,0-.266-1.548,3.407,3.407,0,0,0-.787-1.233,3.663,3.663,0,0,0-1.291-.819,4.916,4.916,0,0,0-1.778-.3,8.934,8.934,0,0,0-1.863.216l0.594-3.384h4.05a0.99,0.99,0,0,0,.729-0.221,0.768,0.768,0,0,0,.216-0.562v-0.7Zm2.1,8.181h4.446v-1.359H81.489v1.359Zm7.686,4.716h6.912v-1.224H93.549v-11.7h-1.3l-3.834,3.321,0.5,0.693a0.432,0.432,0,0,0,.162.139,0.505,0.505,0,0,0,.414.027,0.594,0.594,0,0,0,.18-0.1l2.3-1.971q-0.027.4-.027,0.8v8.793H89.175v1.224Zm16.951-9.378a6.181,6.181,0,0,0-.994-2.057,3.99,3.99,0,0,0-1.49-1.21,4.475,4.475,0,0,0-3.681,0,4.008,4.008,0,0,0-1.481,1.21,6.119,6.119,0,0,0-.99,2.057,12.116,12.116,0,0,0,0,5.863,6.051,6.051,0,0,0,.99,2.048,4.016,4.016,0,0,0,1.481,1.206,4.475,4.475,0,0,0,3.681,0,4,4,0,0,0,1.49-1.206,6.112,6.112,0,0,0,.994-2.048A11.955,11.955,0,0,0,106.126,130.888Zm-1.548,5.409a4.971,4.971,0,0,1-.666,1.611,2.5,2.5,0,0,1-.967.877,2.589,2.589,0,0,1-2.286,0,2.473,2.473,0,0,1-.963-0.877,5.04,5.04,0,0,1-.662-1.611,12.524,12.524,0,0,1,0-4.955,5.046,5.046,0,0,1,.662-1.615,2.492,2.492,0,0,1,.963-0.878,2.6,2.6,0,0,1,2.286,0,2.522,2.522,0,0,1,.967.878,4.977,4.977,0,0,1,.666,1.615A12.5,12.5,0,0,1,104.578,136.3Zm8.154-7.191a2.991,2.991,0,0,0-.6-1.017,2.529,2.529,0,0,0-.909-0.63,2.944,2.944,0,0,0-1.129-.216,2.906,2.906,0,0,0-1.13.216,2.59,2.59,0,0,0-.9.63,2.9,2.9,0,0,0-.6,1.017,4.07,4.07,0,0,0-.216,1.377,3.966,3.966,0,0,0,.216,1.354,2.84,2.84,0,0,0,.6,1.008,2.606,2.606,0,0,0,.9.626,2.906,2.906,0,0,0,1.13.216,2.821,2.821,0,0,0,1.089-.216,2.641,2.641,0,0,0,.913-0.626,3.02,3.02,0,0,0,.626-1.008,3.69,3.69,0,0,0,.234-1.354A3.994,3.994,0,0,0,112.732,129.106Zm-1.156,2.371a1.829,1.829,0,0,1-.347.666,1.266,1.266,0,0,1-.513.369,1.788,1.788,0,0,1-1.251,0,1.232,1.232,0,0,1-.508-0.369,1.821,1.821,0,0,1-.338-0.666,3.526,3.526,0,0,1-.121-0.994,3.621,3.621,0,0,1,.121-1.008,1.934,1.934,0,0,1,.338-0.68,1.256,1.256,0,0,1,.508-0.382,1.731,1.731,0,0,1,1.251,0,1.291,1.291,0,0,1,.513.382,1.943,1.943,0,0,1,.347.68,3.5,3.5,0,0,1,.126,1.008A3.406,3.406,0,0,1,111.576,131.477Zm-3.492,8.789h1.188a0.589,0.589,0,0,0,.3-0.072,0.723,0.723,0,0,0,.216-0.189l9.423-12.636h-1.152a0.634,0.634,0,0,0-.347.085,1.044,1.044,0,0,0-.247.239Zm11.781-4.424a2.89,2.89,0,0,0-.6-1.021,2.582,2.582,0,0,0-.909-0.63,3.051,3.051,0,0,0-2.255,0,2.59,2.59,0,0,0-.9.63,2.89,2.89,0,0,0-.6,1.021,4.112,4.112,0,0,0-.216,1.382,3.934,3.934,0,0,0,.216,1.35,2.853,2.853,0,0,0,.6,1,2.606,2.606,0,0,0,.9.626,2.906,2.906,0,0,0,1.13.216,2.785,2.785,0,0,0,1.084-.216,2.654,2.654,0,0,0,.909-0.626,3.038,3.038,0,0,0,.626-1,3.66,3.66,0,0,0,.234-1.35A4.112,4.112,0,0,0,119.865,135.842Zm-1.152,2.372a1.838,1.838,0,0,1-.347.661,1.266,1.266,0,0,1-.513.369,1.788,1.788,0,0,1-1.251,0,1.232,1.232,0,0,1-.508-0.369,1.829,1.829,0,0,1-.338-0.661,3.486,3.486,0,0,1-.121-0.99,3.674,3.674,0,0,1,.121-1.013,1.87,1.87,0,0,1,.338-0.679,1.263,1.263,0,0,1,.508-0.378,1.731,1.731,0,0,1,1.251,0,1.3,1.3,0,0,1,.513.378,1.878,1.878,0,0,1,.347.679,3.549,3.549,0,0,1,.126,1.013A3.368,3.368,0,0,1,118.713,138.214Z"/>
</svg>
