<svg id="Types_Lung_Cancerby_Histology" data-name="Types Lung Cancerby Histology" xmlns="http://www.w3.org/2000/svg" width="365" height="306" viewBox="0 0 365 306">
  <defs>
    <style>
      .cls-1 {
        fill: #8fe5ed;
      }

      .cls-2 {
        fill: #a2eeeb;
      }

      .cls-3 {
        fill: #9cf2de;
      }

      .cls-4 {
        fill: #555;
        fill-rule: evenodd;
      }
    </style>
  </defs>
  <rect id="Background" class="cls-1" y="174.875" width="165" height="124.625"/>
  <rect id="Background-2" data-name="Background" class="cls-2" y="106.375" width="165" height="61.656"/>
  <rect id="Background-3" data-name="Background" class="cls-2" y="64.906" width="165" height="34.625"/>
  <rect id="Background-4" data-name="Background" class="cls-3" y="46.406" width="165" height="11.688"/>
  <rect id="Background-5" data-name="Background" class="cls-3" width="165" height="40.688"/>
  <path id="Small_Cell_Lung_carcinoma" data-name="Small Cell Lung carcinoma" class="cls-4" d="M185.331,14.544a4.04,4.04,0,0,0-1.384-.88,4.854,4.854,0,0,0-1.752-.3,4.057,4.057,0,0,0-1.516.264,3.321,3.321,0,0,0-1.108.7,3.056,3.056,0,0,0-.92,2.184,3.068,3.068,0,0,0,.236,1.276,2.567,2.567,0,0,0,.62.86,3.274,3.274,0,0,0,.876.56,10.131,10.131,0,0,0,1.008.38l1.008,0.32a4.341,4.341,0,0,1,.876.38,1.955,1.955,0,0,1,.62.556,1.439,1.439,0,0,1,.236.852,2.2,2.2,0,0,1-.16.856,1.859,1.859,0,0,1-.46.66,2.088,2.088,0,0,1-.732.428,2.954,2.954,0,0,1-.984.152,3.094,3.094,0,0,1-1.124-.18,4.115,4.115,0,0,1-.784-0.4,6.4,6.4,0,0,1-.54-0.4,0.637,0.637,0,0,0-.384-0.18,0.364,0.364,0,0,0-.2.06,0.6,0.6,0,0,0-.156.148l-0.448.736a4.75,4.75,0,0,0,1.564,1.092,4.972,4.972,0,0,0,2.028.4,4.441,4.441,0,0,0,1.628-.28,3.5,3.5,0,0,0,1.208-.768,3.259,3.259,0,0,0,.748-1.148,3.863,3.863,0,0,0,.256-1.412,2.748,2.748,0,0,0-.236-1.2,2.527,2.527,0,0,0-.624-0.824,3.555,3.555,0,0,0-.88-0.556q-0.492-.22-1.008-0.4t-1.008-.34a4.777,4.777,0,0,1-.88-0.388,2.022,2.022,0,0,1-.624-0.54,1.3,1.3,0,0,1-.236-0.8,1.784,1.784,0,0,1,.136-0.7,1.56,1.56,0,0,1,.4-0.564,1.957,1.957,0,0,1,.668-0.38,2.783,2.783,0,0,1,.92-0.14,2.86,2.86,0,0,1,.94.136,3.708,3.708,0,0,1,.664.3,5.065,5.065,0,0,1,.456.3,0.552,0.552,0,0,0,.316.136,0.338,0.338,0,0,0,.208-0.06,0.625,0.625,0,0,0,.152-0.18Zm3.952,10.408v-6.04a3.222,3.222,0,0,1,.828-0.772,1.808,1.808,0,0,1,.98-0.284,1.391,1.391,0,0,1,1.144.48,2.273,2.273,0,0,1,.392,1.456v5.16h1.424v-5.16a2.35,2.35,0,0,1,.14-0.844,1.7,1.7,0,0,1,.38-0.6,1.608,1.608,0,0,1,.556-0.364,1.814,1.814,0,0,1,.668-0.124,1.493,1.493,0,0,1,1.208.492,2.186,2.186,0,0,1,.416,1.444v5.16h1.424v-5.16a4.259,4.259,0,0,0-.184-1.308,2.661,2.661,0,0,0-.532-0.964,2.261,2.261,0,0,0-.848-0.6,2.994,2.994,0,0,0-1.14-.2,3.269,3.269,0,0,0-.788.1,2.62,2.62,0,0,0-.732.3,2.592,2.592,0,0,0-.62.528,2.539,2.539,0,0,0-.444.76,2.561,2.561,0,0,0-.732-1.232,1.92,1.92,0,0,0-1.332-.456,2.364,2.364,0,0,0-1.292.352,4.16,4.16,0,0,0-1,.9l-0.1-.832a0.363,0.363,0,0,0-.384-0.3h-0.848v8.1h1.424Zm17.528-5.184a4.023,4.023,0,0,0-.184-1.248,2.649,2.649,0,0,0-.544-0.968,2.479,2.479,0,0,0-.888-0.624,3.072,3.072,0,0,0-1.208-.224,4.473,4.473,0,0,0-1.72.32,4.633,4.633,0,0,0-1.448.968l0.256,0.456a0.581,0.581,0,0,0,.172.188,0.426,0.426,0,0,0,.252.076,0.645,0.645,0,0,0,.372-0.132c0.125-.088.275-0.187,0.448-0.3a3.324,3.324,0,0,1,.616-0.3,2.533,2.533,0,0,1,.876-0.132,1.464,1.464,0,0,1,1.2.487,2.207,2.207,0,0,1,.4,1.437v0.636a10.488,10.488,0,0,0-2.328.221,5.536,5.536,0,0,0-1.54.566,2.323,2.323,0,0,0-.852.791,1.794,1.794,0,0,0-.264.927,2.349,2.349,0,0,0,.18.959,1.888,1.888,0,0,0,.484.67,2.014,2.014,0,0,0,.716.4,2.878,2.878,0,0,0,.884.132,4.109,4.109,0,0,0,.844-0.08,3.315,3.315,0,0,0,.716-0.236,3.583,3.583,0,0,0,.64-0.384q0.3-.228.624-0.516l0.16,0.752a0.355,0.355,0,0,0,.168.272,0.75,0.75,0,0,0,.336.064h0.632V19.768ZM202.6,24.012a1.1,1.1,0,0,1-.416-0.217,1.051,1.051,0,0,1-.28-0.382,1.362,1.362,0,0,1-.1-0.555,1.023,1.023,0,0,1,.2-0.611,1.563,1.563,0,0,1,.628-0.475,4.672,4.672,0,0,1,1.12-.326,9.557,9.557,0,0,1,1.672-.125v1.672a4.547,4.547,0,0,1-.492.456,3.1,3.1,0,0,1-.528.34A2.709,2.709,0,0,1,203.8,24a2.9,2.9,0,0,1-.688.076A1.889,1.889,0,0,1,202.6,24.012Zm6.424-10.844V24.952h1.424V13.168h-1.424Zm4,0V24.952h1.424V13.168h-1.424ZM227.9,22.7a5.081,5.081,0,0,1-.6.468,3.186,3.186,0,0,1-.648.324,3.774,3.774,0,0,1-.756.188,6.37,6.37,0,0,1-.92.06,4.024,4.024,0,0,1-1.568-.3,3.545,3.545,0,0,1-1.26-.884,4.21,4.21,0,0,1-.84-1.42A5.538,5.538,0,0,1,221,19.224a5.439,5.439,0,0,1,.308-1.88,4.09,4.09,0,0,1,.86-1.424,3.777,3.777,0,0,1,1.316-.9,4.366,4.366,0,0,1,1.684-.316,4.794,4.794,0,0,1,.9.076,4.25,4.25,0,0,1,.688.188,3.335,3.335,0,0,1,.512.24q0.216,0.128.376,0.24t0.276,0.188a0.4,0.4,0,0,0,.22.076,0.351,0.351,0,0,0,.208-0.052,0.541,0.541,0,0,0,.128-0.132l0.5-.712a5.223,5.223,0,0,0-3.808-1.456,6.2,6.2,0,0,0-2.34.428,5.283,5.283,0,0,0-1.82,1.2,5.425,5.425,0,0,0-1.18,1.856,6.5,6.5,0,0,0-.42,2.376A6.926,6.926,0,0,0,219.8,21.6a5.413,5.413,0,0,0,1.1,1.852,4.926,4.926,0,0,0,1.72,1.2,5.7,5.7,0,0,0,2.248.428,5.823,5.823,0,0,0,2.42-.456A4.9,4.9,0,0,0,229,23.352l-0.608-.664a0.322,0.322,0,0,0-.232-0.1,0.408,0.408,0,0,0-.264.12h0Zm4.584-5.676a3.444,3.444,0,0,0-1.192.848,3.734,3.734,0,0,0-.748,1.276,4.732,4.732,0,0,0-.26,1.584,5.513,5.513,0,0,0,.288,1.856,3.814,3.814,0,0,0,.8,1.356,3.4,3.4,0,0,0,1.224.832,4.121,4.121,0,0,0,1.548.284,5.3,5.3,0,0,0,.888-0.076,4.985,4.985,0,0,0,.868-0.228,3.916,3.916,0,0,0,.788-0.388,2.707,2.707,0,0,0,.632-0.556l-0.4-.52a0.314,0.314,0,0,0-.272-0.136,0.619,0.619,0,0,0-.324.124,4.977,4.977,0,0,1-.468.268,4.389,4.389,0,0,1-.668.268,3.05,3.05,0,0,1-.924.124,2.745,2.745,0,0,1-1.04-.188,2.116,2.116,0,0,1-.8-0.568,2.729,2.729,0,0,1-.528-0.948,4.484,4.484,0,0,1-.208-1.336h5.392a0.3,0.3,0,0,0,.272-0.112,0.928,0.928,0,0,0,.072-0.448,4.389,4.389,0,0,0-.252-1.54,3.207,3.207,0,0,0-.7-1.136,3.02,3.02,0,0,0-1.064-.7,3.621,3.621,0,0,0-1.344-.244A3.913,3.913,0,0,0,232.483,17.028Zm2.484,0.9a1.794,1.794,0,0,1,.644.464,2.029,2.029,0,0,1,.4.712,2.875,2.875,0,0,1,.136.908h-4.408a2.8,2.8,0,0,1,.736-1.652A2.466,2.466,0,0,1,234.967,17.932Zm4.052-4.764V24.952h1.424V13.168h-1.424Zm4,0V24.952h1.424V13.168h-1.424Zm8.616,0.32h-1.552V24.952H256.6v-1.3h-4.96V13.488Zm6.032,3.36v5.168a4.309,4.309,0,0,0,.172,1.256,2.641,2.641,0,0,0,.516.968,2.316,2.316,0,0,0,.852.62,2.926,2.926,0,0,0,1.172.22,3.1,3.1,0,0,0,1.5-.356,4.459,4.459,0,0,0,1.184-.94l0.112,0.872a0.363,0.363,0,0,0,.384.3h0.848v-8.1h-1.424v5.976a3.65,3.65,0,0,1-1.016.824,2.451,2.451,0,0,1-1.176.3,1.578,1.578,0,0,1-1.28-.5,2.149,2.149,0,0,1-.424-1.424V16.848h-1.424Zm10.616,8.1V18.984a3.89,3.89,0,0,1,1.012-.824,2.394,2.394,0,0,1,1.18-.3,1.57,1.57,0,0,1,1.284.508,2.182,2.182,0,0,1,.42,1.428v5.16H273.6v-5.16a4.242,4.242,0,0,0-.176-1.256,2.746,2.746,0,0,0-.516-0.972,2.27,2.27,0,0,0-.848-0.624,2.927,2.927,0,0,0-1.172-.22,3.069,3.069,0,0,0-1.508.36,4.552,4.552,0,0,0-1.18.944l-0.112-.88a0.363,0.363,0,0,0-.384-0.3h-0.848v8.1h1.424Zm9.068-8.056a2.912,2.912,0,0,0-.972.524,2.381,2.381,0,0,0-.636.824,2.494,2.494,0,0,0-.228,1.076,2.439,2.439,0,0,0,.34,1.3,2.523,2.523,0,0,0,.94.892,2.093,2.093,0,0,0-.772.647,1.439,1.439,0,0,0-.2.371,1.116,1.116,0,0,0-.064.363,1.15,1.15,0,0,0,.2.715,1.433,1.433,0,0,0,.548.427,2.6,2.6,0,0,0-1.044.669,1.469,1.469,0,0,0-.38,1.021,1.623,1.623,0,0,0,.22.813,2.066,2.066,0,0,0,.66.685,3.644,3.644,0,0,0,1.108.473,6.137,6.137,0,0,0,1.556.176,5.1,5.1,0,0,0,1.592-.231,3.841,3.841,0,0,0,1.192-.616,2.754,2.754,0,0,0,.748-0.879,2.169,2.169,0,0,0,.26-1.02A1.662,1.662,0,0,0,282.2,24.2a1.631,1.631,0,0,0-.616-0.559,3.022,3.022,0,0,0-.872-0.291,5.529,5.529,0,0,0-1-.089h-1a5.175,5.175,0,0,1-.872-0.066,1.616,1.616,0,0,1-.616-0.219A0.5,0.5,0,0,1,277,22.528a0.654,0.654,0,0,1,.132-0.372,1.359,1.359,0,0,1,.388-0.356,4.092,4.092,0,0,0,1.072.136,3.86,3.86,0,0,0,1.22-.184,2.828,2.828,0,0,0,.96-0.528A2.443,2.443,0,0,0,281.4,20.4a2.63,2.63,0,0,0-.044-2.236l0.92-.128a0.347,0.347,0,0,0,.336-0.336V17.168h-2.2a3.114,3.114,0,0,0-.836-0.34,4.039,4.039,0,0,0-.988-0.116A3.968,3.968,0,0,0,277.351,16.9Zm3.6,9.063a1.465,1.465,0,0,1-.484.465,2.573,2.573,0,0,1-.772.3,4.572,4.572,0,0,1-1.032.106,4.648,4.648,0,0,1-1.028-.1,2.5,2.5,0,0,1-.724-0.273,1.192,1.192,0,0,1-.428-0.409,0.985,0.985,0,0,1-.14-0.509,1.071,1.071,0,0,1,.284-0.745,2.338,2.338,0,0,1,.74-0.529,3.087,3.087,0,0,0,.824.108h0.848a6.151,6.151,0,0,1,.792.049,3.253,3.253,0,0,1,.664.151,1.082,1.082,0,0,1,.456.29,0.718,0.718,0,0,1,.168.5A1.1,1.1,0,0,1,280.947,25.959Zm-3.112-5.087a1.544,1.544,0,0,1-.552-0.336,1.417,1.417,0,0,1-.34-0.516,1.823,1.823,0,0,1-.116-0.66,1.578,1.578,0,0,1,.452-1.184,2.176,2.176,0,0,1,2.624,0,1.578,1.578,0,0,1,.452,1.184,1.866,1.866,0,0,1-.112.66,1.383,1.383,0,0,1-.336.516,1.545,1.545,0,0,1-.556.336,2.24,2.24,0,0,1-.764.12A2.181,2.181,0,0,1,277.835,20.872Zm14.928-3.1A3.6,3.6,0,0,0,291.6,17a3.85,3.85,0,0,0-1.5-.276,4.033,4.033,0,0,0-1.632.312,3.337,3.337,0,0,0-1.2.868,3.784,3.784,0,0,0-.736,1.324,5.335,5.335,0,0,0-.252,1.672,5.257,5.257,0,0,0,.276,1.768,3.851,3.851,0,0,0,.756,1.308,3.214,3.214,0,0,0,1.132.812,3.54,3.54,0,0,0,1.412.28,4.679,4.679,0,0,0,1.672-.3,3.079,3.079,0,0,0,1.32-.948l-0.4-.52a0.3,0.3,0,0,0-.272-0.136,0.444,0.444,0,0,0-.288.124,4.1,4.1,0,0,1-.368.276,2.594,2.594,0,0,1-.56.276,2.5,2.5,0,0,1-.856.124,2.285,2.285,0,0,1-.98-0.2,2.012,2.012,0,0,1-.74-0.592,2.827,2.827,0,0,1-.472-0.96,4.646,4.646,0,0,1-.168-1.308,4.8,4.8,0,0,1,.156-1.272,2.777,2.777,0,0,1,.464-0.968,2.031,2.031,0,0,1,.764-0.612,2.78,2.78,0,0,1,1.8-.112,3,3,0,0,1,.524.22,3.76,3.76,0,0,1,.356.22,0.455,0.455,0,0,0,.26.1,0.3,0.3,0,0,0,.184-0.048,0.633,0.633,0,0,0,.128-0.136Zm8.048,1.992a4.023,4.023,0,0,0-.184-1.248,2.649,2.649,0,0,0-.544-0.968,2.479,2.479,0,0,0-.888-0.624,3.072,3.072,0,0,0-1.208-.224,4.473,4.473,0,0,0-1.72.32,4.633,4.633,0,0,0-1.448.968l0.256,0.456a0.581,0.581,0,0,0,.172.188,0.426,0.426,0,0,0,.252.076,0.645,0.645,0,0,0,.372-0.132c0.125-.088.275-0.187,0.448-0.3a3.324,3.324,0,0,1,.616-0.3,2.533,2.533,0,0,1,.876-0.132,1.464,1.464,0,0,1,1.2.487,2.207,2.207,0,0,1,.4,1.437v0.636a10.488,10.488,0,0,0-2.328.221,5.536,5.536,0,0,0-1.54.566,2.323,2.323,0,0,0-.852.791,1.794,1.794,0,0,0-.264.927,2.349,2.349,0,0,0,.18.959,1.888,1.888,0,0,0,.484.67,2.014,2.014,0,0,0,.716.4,2.878,2.878,0,0,0,.884.132,4.109,4.109,0,0,0,.844-0.08,3.315,3.315,0,0,0,.716-0.236,3.583,3.583,0,0,0,.64-0.384q0.3-.228.624-0.516l0.16,0.752a0.355,0.355,0,0,0,.168.272,0.75,0.75,0,0,0,.336.064h0.632V19.768ZM296.6,24.012a1.1,1.1,0,0,1-.416-0.217,1.051,1.051,0,0,1-.28-0.382,1.362,1.362,0,0,1-.1-0.555,1.023,1.023,0,0,1,.2-0.611,1.563,1.563,0,0,1,.628-0.475,4.672,4.672,0,0,1,1.12-.326,9.557,9.557,0,0,1,1.672-.125v1.672a4.547,4.547,0,0,1-.492.456,3.1,3.1,0,0,1-.528.34A2.709,2.709,0,0,1,297.8,24a2.9,2.9,0,0,1-.688.076A1.889,1.889,0,0,1,296.6,24.012Zm7.688,0.94v-5.16a3.248,3.248,0,0,1,.836-1.256,1.835,1.835,0,0,1,1.244-.432,2.175,2.175,0,0,1,.648.076,1.24,1.24,0,0,0,.344.076,0.24,0.24,0,0,0,.248-0.2l0.184-1.064a2.139,2.139,0,0,0-.5-0.212,2.422,2.422,0,0,0-2.044.4,3.7,3.7,0,0,0-1.028,1.324l-0.1-1.264a0.535,0.535,0,0,0-.12-0.3,0.451,0.451,0,0,0-.32-0.088h-0.816v8.1h1.424Zm10.48-7.176A3.6,3.6,0,0,0,313.6,17a3.85,3.85,0,0,0-1.5-.276,4.033,4.033,0,0,0-1.632.312,3.337,3.337,0,0,0-1.2.868,3.784,3.784,0,0,0-.736,1.324,5.335,5.335,0,0,0-.252,1.672,5.257,5.257,0,0,0,.276,1.768,3.851,3.851,0,0,0,.756,1.308,3.214,3.214,0,0,0,1.132.812,3.54,3.54,0,0,0,1.412.28,4.679,4.679,0,0,0,1.672-.3,3.079,3.079,0,0,0,1.32-.948l-0.4-.52a0.3,0.3,0,0,0-.272-0.136,0.444,0.444,0,0,0-.288.124,4.1,4.1,0,0,1-.368.276,2.594,2.594,0,0,1-.56.276,2.5,2.5,0,0,1-.856.124,2.285,2.285,0,0,1-.98-0.2,2.012,2.012,0,0,1-.74-0.592,2.827,2.827,0,0,1-.472-0.96,4.646,4.646,0,0,1-.168-1.308,4.8,4.8,0,0,1,.156-1.272,2.777,2.777,0,0,1,.464-0.968,2.031,2.031,0,0,1,.764-0.612,2.78,2.78,0,0,1,1.8-.112,3,3,0,0,1,.524.22,3.76,3.76,0,0,1,.356.22,0.455,0.455,0,0,0,.26.1,0.3,0.3,0,0,0,.184-0.048,0.633,0.633,0,0,0,.128-0.136Zm2.256-.928v8.1h1.424v-8.1h-1.424Zm1.66-2.94a1.093,1.093,0,0,0-.224-0.328,1.036,1.036,0,0,0-.324-0.22,0.975,0.975,0,0,0-.392-0.08,0.945,0.945,0,0,0-.388.08,1.054,1.054,0,0,0-.32.22,1.03,1.03,0,0,0-.22.328,1.007,1.007,0,0,0-.08.4,0.949,0.949,0,0,0,.08.388,1.066,1.066,0,0,0,.54.54,0.942,0.942,0,0,0,.388.08,0.971,0.971,0,0,0,.392-0.08,1.03,1.03,0,0,0,.324-0.22,1.122,1.122,0,0,0,.224-0.32,0.906,0.906,0,0,0,.084-0.388A0.96,0.96,0,0,0,318.679,13.908Zm3.6,11.044V18.984a3.89,3.89,0,0,1,1.012-.824,2.394,2.394,0,0,1,1.18-.3,1.57,1.57,0,0,1,1.284.508,2.182,2.182,0,0,1,.42,1.428v5.16H327.6v-5.16a4.242,4.242,0,0,0-.176-1.256,2.746,2.746,0,0,0-.516-0.972,2.27,2.27,0,0,0-.848-0.624,2.927,2.927,0,0,0-1.172-.22,3.069,3.069,0,0,0-1.508.36,4.552,4.552,0,0,0-1.18.944l-0.112-.88a0.363,0.363,0,0,0-.384-0.3h-0.848v8.1h1.424Zm9.252-7.936a3.425,3.425,0,0,0-1.22.84,3.731,3.731,0,0,0-.776,1.316,5.612,5.612,0,0,0,0,3.452,3.735,3.735,0,0,0,.776,1.312,3.378,3.378,0,0,0,1.22.836,4.552,4.552,0,0,0,3.208,0,3.337,3.337,0,0,0,1.216-.836,3.734,3.734,0,0,0,.768-1.312,5.692,5.692,0,0,0,0-3.452,3.73,3.73,0,0,0-.768-1.316,3.384,3.384,0,0,0-1.216-.84A4.494,4.494,0,0,0,331.535,17.016Zm0.548,6.728a1.987,1.987,0,0,1-.748-0.6,2.629,2.629,0,0,1-.448-0.956,5.7,5.7,0,0,1,0-2.58,2.672,2.672,0,0,1,.448-0.964,1.976,1.976,0,0,1,.748-0.6,2.49,2.49,0,0,1,1.056-.208,2.077,2.077,0,0,1,1.792.808,3.755,3.755,0,0,1,.592,2.256,3.72,3.72,0,0,1-.592,2.244,2.081,2.081,0,0,1-1.792.8A2.487,2.487,0,0,1,332.083,23.744Zm8.2,1.208v-6.04a3.222,3.222,0,0,1,.828-0.772,1.808,1.808,0,0,1,.98-0.284,1.391,1.391,0,0,1,1.144.48,2.273,2.273,0,0,1,.392,1.456v5.16h1.424v-5.16a2.35,2.35,0,0,1,.14-0.844,1.7,1.7,0,0,1,.38-0.6,1.608,1.608,0,0,1,.556-0.364,1.814,1.814,0,0,1,.668-0.124,1.493,1.493,0,0,1,1.208.492,2.186,2.186,0,0,1,.416,1.444v5.16h1.424v-5.16a4.259,4.259,0,0,0-.184-1.308,2.661,2.661,0,0,0-.532-0.964,2.261,2.261,0,0,0-.848-0.6,2.994,2.994,0,0,0-1.14-.2,3.269,3.269,0,0,0-.788.1,2.62,2.62,0,0,0-.732.3,2.592,2.592,0,0,0-.62.528,2.539,2.539,0,0,0-.444.76,2.561,2.561,0,0,0-.732-1.232,1.92,1.92,0,0,0-1.332-.456,2.364,2.364,0,0,0-1.292.352,4.16,4.16,0,0,0-1,.9l-0.1-.832a0.363,0.363,0,0,0-.384-0.3h-0.848v8.1h1.424Zm17.528-5.184a4.023,4.023,0,0,0-.184-1.248,2.649,2.649,0,0,0-.544-0.968,2.479,2.479,0,0,0-.888-0.624,3.072,3.072,0,0,0-1.208-.224,4.473,4.473,0,0,0-1.72.32,4.633,4.633,0,0,0-1.448.968l0.256,0.456a0.581,0.581,0,0,0,.172.188,0.426,0.426,0,0,0,.252.076,0.645,0.645,0,0,0,.372-0.132c0.125-.088.275-0.187,0.448-0.3a3.324,3.324,0,0,1,.616-0.3,2.533,2.533,0,0,1,.876-0.132,1.464,1.464,0,0,1,1.2.487,2.207,2.207,0,0,1,.4,1.437v0.636a10.488,10.488,0,0,0-2.328.221,5.536,5.536,0,0,0-1.54.566,2.323,2.323,0,0,0-.852.791,1.794,1.794,0,0,0-.264.927,2.349,2.349,0,0,0,.18.959,1.888,1.888,0,0,0,.484.67,2.014,2.014,0,0,0,.716.4,2.878,2.878,0,0,0,.884.132,4.109,4.109,0,0,0,.844-0.08,3.315,3.315,0,0,0,.716-0.236,3.583,3.583,0,0,0,.64-0.384q0.3-.228.624-0.516l0.16,0.752a0.355,0.355,0,0,0,.168.272,0.75,0.75,0,0,0,.336.064h0.632V19.768ZM353.6,24.012a1.1,1.1,0,0,1-.416-0.217,1.051,1.051,0,0,1-.28-0.382,1.362,1.362,0,0,1-.1-0.555,1.023,1.023,0,0,1,.2-0.611,1.563,1.563,0,0,1,.628-0.475,4.672,4.672,0,0,1,1.12-.326,9.557,9.557,0,0,1,1.672-.125v1.672a4.547,4.547,0,0,1-.492.456,3.1,3.1,0,0,1-.528.34A2.709,2.709,0,0,1,354.8,24a2.9,2.9,0,0,1-.688.076A1.889,1.889,0,0,1,353.6,24.012Z"/>
  <path id="Other" class="cls-4" d="M189.323,48.86A5.458,5.458,0,0,0,188.171,47a5.168,5.168,0,0,0-1.788-1.212,6.371,6.371,0,0,0-4.612,0A5.18,5.18,0,0,0,179.987,47a5.458,5.458,0,0,0-1.152,1.856,7.053,7.053,0,0,0,0,4.728,5.412,5.412,0,0,0,1.152,1.852,5.158,5.158,0,0,0,1.784,1.2,6.426,6.426,0,0,0,4.612,0,5.146,5.146,0,0,0,1.788-1.2,5.412,5.412,0,0,0,1.152-1.852A7.053,7.053,0,0,0,189.323,48.86Zm-1.472,4.256a4.014,4.014,0,0,1-.816,1.416,3.5,3.5,0,0,1-1.28.888,4.714,4.714,0,0,1-3.352,0,3.539,3.539,0,0,1-1.284-.888,3.977,3.977,0,0,1-.82-1.416,6.372,6.372,0,0,1,0-3.788,3.974,3.974,0,0,1,.82-1.42,3.586,3.586,0,0,1,1.284-.892,4.658,4.658,0,0,1,3.352,0,3.545,3.545,0,0,1,1.28.892,4.011,4.011,0,0,1,.816,1.42A6.372,6.372,0,0,1,187.851,53.116Zm7.536,3.768a2.644,2.644,0,0,0,.888-0.54l-0.416-.68a0.245,0.245,0,0,0-.2-0.136,0.266,0.266,0,0,0-.148.06q-0.084.06-.2,0.132a1.677,1.677,0,0,1-.284.132,1.13,1.13,0,0,1-.388.06,0.866,0.866,0,0,1-.64-0.248,1.036,1.036,0,0,1-.248-0.76V50.04h2.32V49.008h-2.32V46.216h-0.72a0.331,0.331,0,0,0-.224.076,0.3,0.3,0,0,0-.1.2l-0.328,2.5-1.328.168v0.568a0.294,0.294,0,0,0,.088.236,0.319,0.319,0,0,0,.216.076h0.976V55a2.139,2.139,0,0,0,.516,1.544,1.953,1.953,0,0,0,1.476.536A3.016,3.016,0,0,0,195.387,56.884Zm3.9,0.068V50.984a3.89,3.89,0,0,1,1.012-.824,2.394,2.394,0,0,1,1.18-.3,1.57,1.57,0,0,1,1.284.508,2.182,2.182,0,0,1,.42,1.428v5.16H204.6v-5.16a4.242,4.242,0,0,0-.176-1.256,2.746,2.746,0,0,0-.516-0.972,2.27,2.27,0,0,0-.848-0.624,2.927,2.927,0,0,0-1.172-.22,3.087,3.087,0,0,0-1.456.332,4.385,4.385,0,0,0-1.152.884V45.168h-1.424V56.952h1.424Zm9.2-7.924a3.444,3.444,0,0,0-1.192.848,3.734,3.734,0,0,0-.748,1.276,4.732,4.732,0,0,0-.26,1.584,5.513,5.513,0,0,0,.288,1.856,3.814,3.814,0,0,0,.8,1.356,3.4,3.4,0,0,0,1.224.832,4.121,4.121,0,0,0,1.548.284,5.3,5.3,0,0,0,.888-0.076,4.985,4.985,0,0,0,.868-0.228,3.916,3.916,0,0,0,.788-0.388,2.707,2.707,0,0,0,.632-0.556l-0.4-.52a0.314,0.314,0,0,0-.272-0.136,0.619,0.619,0,0,0-.324.124,4.977,4.977,0,0,1-.468.268,4.389,4.389,0,0,1-.668.268,3.05,3.05,0,0,1-.924.124,2.745,2.745,0,0,1-1.04-.188,2.116,2.116,0,0,1-.8-0.568,2.729,2.729,0,0,1-.528-0.948,4.484,4.484,0,0,1-.208-1.336h5.392a0.3,0.3,0,0,0,.272-0.112,0.928,0.928,0,0,0,.072-0.448,4.389,4.389,0,0,0-.252-1.54,3.207,3.207,0,0,0-.7-1.136,3.02,3.02,0,0,0-1.064-.7,3.621,3.621,0,0,0-1.344-.244A3.913,3.913,0,0,0,208.483,49.028Zm2.484,0.9a1.794,1.794,0,0,1,.644.464,2.029,2.029,0,0,1,.4.712,2.875,2.875,0,0,1,.136.908h-4.408a2.8,2.8,0,0,1,.736-1.652A2.466,2.466,0,0,1,210.967,49.932Zm5.316,7.02v-5.16a3.248,3.248,0,0,1,.836-1.256,1.835,1.835,0,0,1,1.244-.432,2.175,2.175,0,0,1,.648.076,1.24,1.24,0,0,0,.344.076,0.24,0.24,0,0,0,.248-0.2l0.184-1.064a2.139,2.139,0,0,0-.5-0.212,2.422,2.422,0,0,0-2.044.4,3.7,3.7,0,0,0-1.028,1.324l-0.1-1.264a0.535,0.535,0,0,0-.12-0.3,0.451,0.451,0,0,0-.32-0.088h-0.816v8.1h1.424Z"/>
  <path id="Large_Cell_Lung_carcinoma" data-name="Large Cell Lung carcinoma" class="cls-4" d="M180.635,78.488h-1.552V89.952H185.6v-1.3h-4.96V78.488Zm12.176,6.28a4.023,4.023,0,0,0-.184-1.248,2.649,2.649,0,0,0-.544-0.968,2.479,2.479,0,0,0-.888-0.624,3.072,3.072,0,0,0-1.208-.224,4.473,4.473,0,0,0-1.72.32,4.633,4.633,0,0,0-1.448.968l0.256,0.456a0.581,0.581,0,0,0,.172.188,0.426,0.426,0,0,0,.252.076,0.645,0.645,0,0,0,.372-0.132c0.125-.088.275-0.187,0.448-0.3a3.324,3.324,0,0,1,.616-0.3,2.533,2.533,0,0,1,.876-0.132,1.464,1.464,0,0,1,1.2.487,2.207,2.207,0,0,1,.4,1.437v0.636a10.488,10.488,0,0,0-2.328.221,5.536,5.536,0,0,0-1.54.566,2.323,2.323,0,0,0-.852.791,1.794,1.794,0,0,0-.264.927,2.349,2.349,0,0,0,.18.959,1.888,1.888,0,0,0,.484.67,2.014,2.014,0,0,0,.716.4,2.878,2.878,0,0,0,.884.132,4.109,4.109,0,0,0,.844-0.08,3.315,3.315,0,0,0,.716-0.236,3.583,3.583,0,0,0,.64-0.384q0.3-.228.624-0.516l0.16,0.752a0.355,0.355,0,0,0,.168.272,0.75,0.75,0,0,0,.336.064h0.632V84.768ZM188.6,89.012a1.1,1.1,0,0,1-.416-0.217,1.051,1.051,0,0,1-.28-0.382,1.362,1.362,0,0,1-.1-0.555,1.023,1.023,0,0,1,.2-0.611,1.563,1.563,0,0,1,.628-0.475,4.672,4.672,0,0,1,1.12-.326,9.557,9.557,0,0,1,1.672-.125v1.672a4.547,4.547,0,0,1-.492.456,3.1,3.1,0,0,1-.528.34A2.709,2.709,0,0,1,189.8,89a2.9,2.9,0,0,1-.688.076A1.889,1.889,0,0,1,188.6,89.012Zm7.688,0.94v-5.16a3.248,3.248,0,0,1,.836-1.256,1.835,1.835,0,0,1,1.244-.432,2.175,2.175,0,0,1,.648.076,1.24,1.24,0,0,0,.344.076,0.24,0.24,0,0,0,.248-0.2l0.184-1.064a2.139,2.139,0,0,0-.5-0.212,2.422,2.422,0,0,0-2.044.4,3.7,3.7,0,0,0-1.028,1.324l-0.1-1.264a0.535,0.535,0,0,0-.12-0.3,0.451,0.451,0,0,0-.32-0.088h-0.816v8.1h1.424Zm6.068-8.056a2.912,2.912,0,0,0-.972.524,2.381,2.381,0,0,0-.636.824,2.494,2.494,0,0,0-.228,1.076,2.439,2.439,0,0,0,.34,1.3,2.523,2.523,0,0,0,.94.892,2.093,2.093,0,0,0-.772.647,1.439,1.439,0,0,0-.2.371,1.116,1.116,0,0,0-.064.363,1.15,1.15,0,0,0,.2.715,1.433,1.433,0,0,0,.548.427,2.6,2.6,0,0,0-1.044.669,1.469,1.469,0,0,0-.38,1.021,1.623,1.623,0,0,0,.22.813,2.066,2.066,0,0,0,.66.685,3.644,3.644,0,0,0,1.108.472,6.137,6.137,0,0,0,1.556.176,5.1,5.1,0,0,0,1.592-.231,3.841,3.841,0,0,0,1.192-.616,2.754,2.754,0,0,0,.748-0.879,2.169,2.169,0,0,0,.26-1.02A1.662,1.662,0,0,0,207.2,89.2a1.631,1.631,0,0,0-.616-0.559,3.022,3.022,0,0,0-.872-0.291,5.529,5.529,0,0,0-1-.089h-1a5.175,5.175,0,0,1-.872-0.066,1.616,1.616,0,0,1-.616-0.219A0.5,0.5,0,0,1,202,87.528a0.654,0.654,0,0,1,.132-0.372,1.359,1.359,0,0,1,.388-0.356,4.092,4.092,0,0,0,1.072.136,3.86,3.86,0,0,0,1.22-.184,2.828,2.828,0,0,0,.96-0.528A2.443,2.443,0,0,0,206.4,85.4a2.63,2.63,0,0,0-.044-2.236l0.92-.128a0.347,0.347,0,0,0,.336-0.336V82.168h-2.2a3.114,3.114,0,0,0-.836-0.34,4.039,4.039,0,0,0-.988-0.116A3.968,3.968,0,0,0,202.351,81.9Zm3.6,9.063a1.465,1.465,0,0,1-.484.465,2.573,2.573,0,0,1-.772.3,4.572,4.572,0,0,1-1.032.106,4.648,4.648,0,0,1-1.028-.1,2.5,2.5,0,0,1-.724-0.272,1.192,1.192,0,0,1-.428-0.409,0.985,0.985,0,0,1-.14-0.509,1.071,1.071,0,0,1,.284-0.745,2.338,2.338,0,0,1,.74-0.529,3.087,3.087,0,0,0,.824.108h0.848a6.151,6.151,0,0,1,.792.049,3.253,3.253,0,0,1,.664.151,1.082,1.082,0,0,1,.456.29,0.718,0.718,0,0,1,.168.5A1.1,1.1,0,0,1,205.947,90.959Zm-3.112-5.087a1.544,1.544,0,0,1-.552-0.336,1.417,1.417,0,0,1-.34-0.516,1.823,1.823,0,0,1-.116-0.66,1.578,1.578,0,0,1,.452-1.184,2.176,2.176,0,0,1,2.624,0,1.578,1.578,0,0,1,.452,1.184,1.866,1.866,0,0,1-.112.66,1.383,1.383,0,0,1-.336.516,1.545,1.545,0,0,1-.556.336,2.24,2.24,0,0,1-.764.12A2.181,2.181,0,0,1,202.835,85.872Zm7.648-3.844a3.444,3.444,0,0,0-1.192.848,3.734,3.734,0,0,0-.748,1.276,4.732,4.732,0,0,0-.26,1.584,5.513,5.513,0,0,0,.288,1.856,3.814,3.814,0,0,0,.8,1.356,3.4,3.4,0,0,0,1.224.832,4.121,4.121,0,0,0,1.548.284,5.3,5.3,0,0,0,.888-0.076,4.985,4.985,0,0,0,.868-0.228,3.916,3.916,0,0,0,.788-0.388,2.707,2.707,0,0,0,.632-0.556l-0.4-.52a0.314,0.314,0,0,0-.272-0.136,0.619,0.619,0,0,0-.324.124,4.977,4.977,0,0,1-.468.268,4.389,4.389,0,0,1-.668.268,3.05,3.05,0,0,1-.924.124,2.745,2.745,0,0,1-1.04-.188,2.116,2.116,0,0,1-.8-0.568,2.729,2.729,0,0,1-.528-0.948,4.484,4.484,0,0,1-.208-1.336h5.392a0.3,0.3,0,0,0,.272-0.112,0.928,0.928,0,0,0,.072-0.448,4.389,4.389,0,0,0-.252-1.54,3.207,3.207,0,0,0-.7-1.136,3.02,3.02,0,0,0-1.064-.7,3.621,3.621,0,0,0-1.344-.244A3.913,3.913,0,0,0,210.483,82.028Zm2.484,0.9a1.794,1.794,0,0,1,.644.464,2.029,2.029,0,0,1,.4.712,2.875,2.875,0,0,1,.136.908h-4.408a2.8,2.8,0,0,1,.736-1.652A2.466,2.466,0,0,1,212.967,82.932ZM227.9,87.7a5.081,5.081,0,0,1-.6.468,3.186,3.186,0,0,1-.648.324,3.774,3.774,0,0,1-.756.188,6.37,6.37,0,0,1-.92.06,4.024,4.024,0,0,1-1.568-.3,3.545,3.545,0,0,1-1.26-.884,4.21,4.21,0,0,1-.84-1.42A5.538,5.538,0,0,1,221,84.224a5.439,5.439,0,0,1,.308-1.88,4.09,4.09,0,0,1,.86-1.424,3.777,3.777,0,0,1,1.316-.9,4.366,4.366,0,0,1,1.684-.316,4.794,4.794,0,0,1,.9.076,4.25,4.25,0,0,1,.688.188,3.335,3.335,0,0,1,.512.24q0.216,0.128.376,0.24t0.276,0.188a0.4,0.4,0,0,0,.22.076,0.351,0.351,0,0,0,.208-0.052,0.541,0.541,0,0,0,.128-0.132l0.5-.712a5.223,5.223,0,0,0-3.808-1.456,6.2,6.2,0,0,0-2.34.428,5.283,5.283,0,0,0-1.82,1.2,5.425,5.425,0,0,0-1.18,1.856,6.5,6.5,0,0,0-.42,2.376A6.926,6.926,0,0,0,219.8,86.6a5.413,5.413,0,0,0,1.1,1.852,4.926,4.926,0,0,0,1.72,1.2,5.7,5.7,0,0,0,2.248.428,5.823,5.823,0,0,0,2.42-.456A4.9,4.9,0,0,0,229,88.352l-0.608-.664a0.322,0.322,0,0,0-.232-0.1,0.408,0.408,0,0,0-.264.12h0Zm4.584-5.676a3.444,3.444,0,0,0-1.192.848,3.734,3.734,0,0,0-.748,1.276,4.732,4.732,0,0,0-.26,1.584,5.513,5.513,0,0,0,.288,1.856,3.814,3.814,0,0,0,.8,1.356,3.4,3.4,0,0,0,1.224.832,4.121,4.121,0,0,0,1.548.284,5.3,5.3,0,0,0,.888-0.076,4.985,4.985,0,0,0,.868-0.228,3.916,3.916,0,0,0,.788-0.388,2.707,2.707,0,0,0,.632-0.556l-0.4-.52a0.314,0.314,0,0,0-.272-0.136,0.619,0.619,0,0,0-.324.124,4.977,4.977,0,0,1-.468.268,4.389,4.389,0,0,1-.668.268,3.05,3.05,0,0,1-.924.124,2.745,2.745,0,0,1-1.04-.188,2.116,2.116,0,0,1-.8-0.568,2.729,2.729,0,0,1-.528-0.948,4.484,4.484,0,0,1-.208-1.336h5.392a0.3,0.3,0,0,0,.272-0.112,0.928,0.928,0,0,0,.072-0.448,4.389,4.389,0,0,0-.252-1.54,3.207,3.207,0,0,0-.7-1.136,3.02,3.02,0,0,0-1.064-.7,3.621,3.621,0,0,0-1.344-.244A3.913,3.913,0,0,0,232.483,82.028Zm2.484,0.9a1.794,1.794,0,0,1,.644.464,2.029,2.029,0,0,1,.4.712,2.875,2.875,0,0,1,.136.908h-4.408a2.8,2.8,0,0,1,.736-1.652A2.466,2.466,0,0,1,234.967,82.932Zm4.052-4.764V89.952h1.424V78.168h-1.424Zm4,0V89.952h1.424V78.168h-1.424Zm8.616,0.32h-1.552V89.952H256.6v-1.3h-4.96V78.488Zm6.032,3.36v5.168a4.309,4.309,0,0,0,.172,1.256,2.641,2.641,0,0,0,.516.968,2.316,2.316,0,0,0,.852.62,2.926,2.926,0,0,0,1.172.22,3.1,3.1,0,0,0,1.5-.356,4.459,4.459,0,0,0,1.184-.94l0.112,0.872a0.363,0.363,0,0,0,.384.3h0.848v-8.1h-1.424v5.976a3.65,3.65,0,0,1-1.016.824,2.451,2.451,0,0,1-1.176.3,1.578,1.578,0,0,1-1.28-.5,2.149,2.149,0,0,1-.424-1.424V81.848h-1.424Zm10.616,8.1V83.984a3.89,3.89,0,0,1,1.012-.824,2.394,2.394,0,0,1,1.18-.3,1.57,1.57,0,0,1,1.284.508,2.182,2.182,0,0,1,.42,1.428v5.16H273.6v-5.16a4.242,4.242,0,0,0-.176-1.256,2.746,2.746,0,0,0-.516-0.972,2.27,2.27,0,0,0-.848-0.624,2.927,2.927,0,0,0-1.172-.22,3.069,3.069,0,0,0-1.508.36,4.552,4.552,0,0,0-1.18.944l-0.112-.88a0.363,0.363,0,0,0-.384-0.3h-0.848v8.1h1.424Zm9.068-8.056a2.912,2.912,0,0,0-.972.524,2.381,2.381,0,0,0-.636.824,2.494,2.494,0,0,0-.228,1.076,2.439,2.439,0,0,0,.34,1.3,2.523,2.523,0,0,0,.94.892,2.093,2.093,0,0,0-.772.647,1.439,1.439,0,0,0-.2.371,1.116,1.116,0,0,0-.064.363,1.15,1.15,0,0,0,.2.715,1.433,1.433,0,0,0,.548.427,2.6,2.6,0,0,0-1.044.669,1.469,1.469,0,0,0-.38,1.021,1.623,1.623,0,0,0,.22.813,2.066,2.066,0,0,0,.66.685,3.644,3.644,0,0,0,1.108.472,6.137,6.137,0,0,0,1.556.176,5.1,5.1,0,0,0,1.592-.231,3.841,3.841,0,0,0,1.192-.616,2.754,2.754,0,0,0,.748-0.879,2.169,2.169,0,0,0,.26-1.02A1.662,1.662,0,0,0,282.2,89.2a1.631,1.631,0,0,0-.616-0.559,3.022,3.022,0,0,0-.872-0.291,5.529,5.529,0,0,0-1-.089h-1a5.175,5.175,0,0,1-.872-0.066,1.616,1.616,0,0,1-.616-0.219A0.5,0.5,0,0,1,277,87.528a0.654,0.654,0,0,1,.132-0.372,1.359,1.359,0,0,1,.388-0.356,4.092,4.092,0,0,0,1.072.136,3.86,3.86,0,0,0,1.22-.184,2.828,2.828,0,0,0,.96-0.528A2.443,2.443,0,0,0,281.4,85.4a2.63,2.63,0,0,0-.044-2.236l0.92-.128a0.347,0.347,0,0,0,.336-0.336V82.168h-2.2a3.114,3.114,0,0,0-.836-0.34,4.039,4.039,0,0,0-.988-0.116A3.968,3.968,0,0,0,277.351,81.9Zm3.6,9.063a1.465,1.465,0,0,1-.484.465,2.573,2.573,0,0,1-.772.3,4.572,4.572,0,0,1-1.032.106,4.648,4.648,0,0,1-1.028-.1,2.5,2.5,0,0,1-.724-0.272,1.192,1.192,0,0,1-.428-0.409,0.985,0.985,0,0,1-.14-0.509,1.071,1.071,0,0,1,.284-0.745,2.338,2.338,0,0,1,.74-0.529,3.087,3.087,0,0,0,.824.108h0.848a6.151,6.151,0,0,1,.792.049,3.253,3.253,0,0,1,.664.151,1.082,1.082,0,0,1,.456.29,0.718,0.718,0,0,1,.168.5A1.1,1.1,0,0,1,280.947,90.959Zm-3.112-5.087a1.544,1.544,0,0,1-.552-0.336,1.417,1.417,0,0,1-.34-0.516,1.823,1.823,0,0,1-.116-0.66,1.578,1.578,0,0,1,.452-1.184,2.176,2.176,0,0,1,2.624,0,1.578,1.578,0,0,1,.452,1.184,1.866,1.866,0,0,1-.112.66,1.383,1.383,0,0,1-.336.516,1.545,1.545,0,0,1-.556.336,2.24,2.24,0,0,1-.764.12A2.181,2.181,0,0,1,277.835,85.872Zm14.928-3.1A3.6,3.6,0,0,0,291.6,82a3.85,3.85,0,0,0-1.5-.276,4.033,4.033,0,0,0-1.632.312,3.337,3.337,0,0,0-1.2.868,3.784,3.784,0,0,0-.736,1.324,5.335,5.335,0,0,0-.252,1.672,5.257,5.257,0,0,0,.276,1.768,3.851,3.851,0,0,0,.756,1.308,3.214,3.214,0,0,0,1.132.812,3.54,3.54,0,0,0,1.412.28,4.679,4.679,0,0,0,1.672-.3,3.079,3.079,0,0,0,1.32-.948l-0.4-.52a0.3,0.3,0,0,0-.272-0.136,0.444,0.444,0,0,0-.288.124,4.1,4.1,0,0,1-.368.276,2.594,2.594,0,0,1-.56.276,2.5,2.5,0,0,1-.856.124,2.285,2.285,0,0,1-.98-0.2,2.012,2.012,0,0,1-.74-0.592,2.827,2.827,0,0,1-.472-0.96,4.646,4.646,0,0,1-.168-1.308,4.8,4.8,0,0,1,.156-1.272,2.777,2.777,0,0,1,.464-0.968,2.031,2.031,0,0,1,.764-0.612,2.78,2.78,0,0,1,1.8-.112,3,3,0,0,1,.524.22,3.76,3.76,0,0,1,.356.22,0.455,0.455,0,0,0,.26.1,0.3,0.3,0,0,0,.184-0.048,0.633,0.633,0,0,0,.128-0.136Zm8.048,1.992a4.023,4.023,0,0,0-.184-1.248,2.649,2.649,0,0,0-.544-0.968,2.479,2.479,0,0,0-.888-0.624,3.072,3.072,0,0,0-1.208-.224,4.473,4.473,0,0,0-1.72.32,4.633,4.633,0,0,0-1.448.968l0.256,0.456a0.581,0.581,0,0,0,.172.188,0.426,0.426,0,0,0,.252.076,0.645,0.645,0,0,0,.372-0.132c0.125-.088.275-0.187,0.448-0.3a3.324,3.324,0,0,1,.616-0.3,2.533,2.533,0,0,1,.876-0.132,1.464,1.464,0,0,1,1.2.487,2.207,2.207,0,0,1,.4,1.437v0.636a10.488,10.488,0,0,0-2.328.221,5.536,5.536,0,0,0-1.54.566,2.323,2.323,0,0,0-.852.791,1.794,1.794,0,0,0-.264.927,2.349,2.349,0,0,0,.18.959,1.888,1.888,0,0,0,.484.67,2.014,2.014,0,0,0,.716.4,2.878,2.878,0,0,0,.884.132,4.109,4.109,0,0,0,.844-0.08,3.315,3.315,0,0,0,.716-0.236,3.583,3.583,0,0,0,.64-0.384q0.3-.228.624-0.516l0.16,0.752a0.355,0.355,0,0,0,.168.272,0.75,0.75,0,0,0,.336.064h0.632V84.768ZM296.6,89.012a1.1,1.1,0,0,1-.416-0.217,1.051,1.051,0,0,1-.28-0.382,1.362,1.362,0,0,1-.1-0.555,1.023,1.023,0,0,1,.2-0.611,1.563,1.563,0,0,1,.628-0.475,4.672,4.672,0,0,1,1.12-.326,9.557,9.557,0,0,1,1.672-.125v1.672a4.547,4.547,0,0,1-.492.456,3.1,3.1,0,0,1-.528.34A2.709,2.709,0,0,1,297.8,89a2.9,2.9,0,0,1-.688.076A1.889,1.889,0,0,1,296.6,89.012Zm7.688,0.94v-5.16a3.248,3.248,0,0,1,.836-1.256,1.835,1.835,0,0,1,1.244-.432,2.175,2.175,0,0,1,.648.076,1.24,1.24,0,0,0,.344.076,0.24,0.24,0,0,0,.248-0.2l0.184-1.064a2.139,2.139,0,0,0-.5-0.212,2.422,2.422,0,0,0-2.044.4,3.7,3.7,0,0,0-1.028,1.324l-0.1-1.264a0.535,0.535,0,0,0-.12-0.3,0.451,0.451,0,0,0-.32-0.088h-0.816v8.1h1.424Zm10.48-7.176A3.6,3.6,0,0,0,313.6,82a3.85,3.85,0,0,0-1.5-.276,4.033,4.033,0,0,0-1.632.312,3.337,3.337,0,0,0-1.2.868,3.784,3.784,0,0,0-.736,1.324,5.335,5.335,0,0,0-.252,1.672,5.257,5.257,0,0,0,.276,1.768,3.851,3.851,0,0,0,.756,1.308,3.214,3.214,0,0,0,1.132.812,3.54,3.54,0,0,0,1.412.28,4.679,4.679,0,0,0,1.672-.3,3.079,3.079,0,0,0,1.32-.948l-0.4-.52a0.3,0.3,0,0,0-.272-0.136,0.444,0.444,0,0,0-.288.124,4.1,4.1,0,0,1-.368.276,2.594,2.594,0,0,1-.56.276,2.5,2.5,0,0,1-.856.124,2.285,2.285,0,0,1-.98-0.2,2.012,2.012,0,0,1-.74-0.592,2.827,2.827,0,0,1-.472-0.96,4.646,4.646,0,0,1-.168-1.308,4.8,4.8,0,0,1,.156-1.272,2.777,2.777,0,0,1,.464-0.968,2.031,2.031,0,0,1,.764-0.612,2.78,2.78,0,0,1,1.8-.112,3,3,0,0,1,.524.22,3.76,3.76,0,0,1,.356.22,0.455,0.455,0,0,0,.26.1,0.3,0.3,0,0,0,.184-0.048,0.633,0.633,0,0,0,.128-0.136Zm2.256-.928v8.1h1.424v-8.1h-1.424Zm1.66-2.94a1.093,1.093,0,0,0-.224-0.328,1.036,1.036,0,0,0-.324-0.22,0.975,0.975,0,0,0-.392-0.08,0.945,0.945,0,0,0-.388.08,1.054,1.054,0,0,0-.32.22,1.03,1.03,0,0,0-.22.328,1.007,1.007,0,0,0-.08.4,0.949,0.949,0,0,0,.08.388,1.066,1.066,0,0,0,.54.54,0.942,0.942,0,0,0,.388.08,0.971,0.971,0,0,0,.392-0.08,1.03,1.03,0,0,0,.324-0.22,1.122,1.122,0,0,0,.224-0.32,0.906,0.906,0,0,0,.084-0.388A0.96,0.96,0,0,0,318.679,78.908Zm3.6,11.044V83.984a3.89,3.89,0,0,1,1.012-.824,2.394,2.394,0,0,1,1.18-.3,1.57,1.57,0,0,1,1.284.508,2.182,2.182,0,0,1,.42,1.428v5.16H327.6v-5.16a4.242,4.242,0,0,0-.176-1.256,2.746,2.746,0,0,0-.516-0.972,2.27,2.27,0,0,0-.848-0.624,2.927,2.927,0,0,0-1.172-.22,3.069,3.069,0,0,0-1.508.36,4.552,4.552,0,0,0-1.18.944l-0.112-.88a0.363,0.363,0,0,0-.384-0.3h-0.848v8.1h1.424Zm9.252-7.936a3.425,3.425,0,0,0-1.22.84,3.731,3.731,0,0,0-.776,1.316,5.612,5.612,0,0,0,0,3.452,3.735,3.735,0,0,0,.776,1.312,3.378,3.378,0,0,0,1.22.836,4.552,4.552,0,0,0,3.208,0,3.337,3.337,0,0,0,1.216-.836,3.734,3.734,0,0,0,.768-1.312,5.692,5.692,0,0,0,0-3.452,3.73,3.73,0,0,0-.768-1.316,3.384,3.384,0,0,0-1.216-.84A4.494,4.494,0,0,0,331.535,82.016Zm0.548,6.728a1.987,1.987,0,0,1-.748-0.6,2.629,2.629,0,0,1-.448-0.956,5.7,5.7,0,0,1,0-2.58,2.672,2.672,0,0,1,.448-0.964,1.976,1.976,0,0,1,.748-0.6,2.49,2.49,0,0,1,1.056-.208,2.077,2.077,0,0,1,1.792.808,4.572,4.572,0,0,1,0,4.5,2.081,2.081,0,0,1-1.792.8A2.487,2.487,0,0,1,332.083,88.744Zm8.2,1.208v-6.04a3.222,3.222,0,0,1,.828-0.772,1.808,1.808,0,0,1,.98-0.284,1.391,1.391,0,0,1,1.144.48,2.273,2.273,0,0,1,.392,1.456v5.16h1.424v-5.16a2.35,2.35,0,0,1,.14-0.844,1.7,1.7,0,0,1,.38-0.6,1.608,1.608,0,0,1,.556-0.364,1.814,1.814,0,0,1,.668-0.124,1.493,1.493,0,0,1,1.208.492,2.186,2.186,0,0,1,.416,1.444v5.16h1.424v-5.16a4.259,4.259,0,0,0-.184-1.308,2.661,2.661,0,0,0-.532-0.964,2.261,2.261,0,0,0-.848-0.6,2.994,2.994,0,0,0-1.14-.2,3.269,3.269,0,0,0-.788.1,2.62,2.62,0,0,0-.732.3,2.592,2.592,0,0,0-.62.528,2.539,2.539,0,0,0-.444.76,2.561,2.561,0,0,0-.732-1.232,1.92,1.92,0,0,0-1.332-.456,2.364,2.364,0,0,0-1.292.352,4.16,4.16,0,0,0-1,.9l-0.1-.832a0.363,0.363,0,0,0-.384-0.3h-0.848v8.1h1.424Zm17.528-5.184a4.023,4.023,0,0,0-.184-1.248,2.649,2.649,0,0,0-.544-0.968,2.479,2.479,0,0,0-.888-0.624,3.072,3.072,0,0,0-1.208-.224,4.473,4.473,0,0,0-1.72.32,4.633,4.633,0,0,0-1.448.968l0.256,0.456a0.581,0.581,0,0,0,.172.188,0.426,0.426,0,0,0,.252.076,0.645,0.645,0,0,0,.372-0.132c0.125-.088.275-0.187,0.448-0.3a3.324,3.324,0,0,1,.616-0.3,2.533,2.533,0,0,1,.876-0.132,1.464,1.464,0,0,1,1.2.487,2.207,2.207,0,0,1,.4,1.437v0.636a10.488,10.488,0,0,0-2.328.221,5.536,5.536,0,0,0-1.54.566,2.323,2.323,0,0,0-.852.791,1.794,1.794,0,0,0-.264.927,2.349,2.349,0,0,0,.18.959,1.888,1.888,0,0,0,.484.67,2.014,2.014,0,0,0,.716.4,2.878,2.878,0,0,0,.884.132,4.109,4.109,0,0,0,.844-0.08,3.315,3.315,0,0,0,.716-0.236,3.583,3.583,0,0,0,.64-0.384q0.3-.228.624-0.516l0.16,0.752a0.355,0.355,0,0,0,.168.272,0.75,0.75,0,0,0,.336.064h0.632V84.768ZM353.6,89.012a1.1,1.1,0,0,1-.416-0.217,1.051,1.051,0,0,1-.28-0.382,1.362,1.362,0,0,1-.1-0.555,1.023,1.023,0,0,1,.2-0.611,1.563,1.563,0,0,1,.628-0.475,4.672,4.672,0,0,1,1.12-.326,9.557,9.557,0,0,1,1.672-.125v1.672a4.547,4.547,0,0,1-.492.456,3.1,3.1,0,0,1-.528.34A2.709,2.709,0,0,1,354.8,89a2.9,2.9,0,0,1-.688.076A1.889,1.889,0,0,1,353.6,89.012Z"/>
  <path id="Squamaous_cellcarcinoma" data-name="Squamaous cellcarcinoma" class="cls-4" d="M185.331,129.544a4.043,4.043,0,0,0-1.384-.88,4.867,4.867,0,0,0-1.752-.3,4.057,4.057,0,0,0-1.516.264,3.324,3.324,0,0,0-1.108.7,3.056,3.056,0,0,0-.92,2.184,3.067,3.067,0,0,0,.236,1.276,2.565,2.565,0,0,0,.62.86,3.26,3.26,0,0,0,.876.56,10.082,10.082,0,0,0,1.008.38l1.008,0.32a4.353,4.353,0,0,1,.876.38,1.965,1.965,0,0,1,.62.556,1.442,1.442,0,0,1,.236.852,2.2,2.2,0,0,1-.16.856,1.859,1.859,0,0,1-.46.66,2.085,2.085,0,0,1-.732.428,2.939,2.939,0,0,1-.984.152,3.094,3.094,0,0,1-1.124-.18,4.115,4.115,0,0,1-.784-0.4,6.4,6.4,0,0,1-.54-0.4,0.637,0.637,0,0,0-.384-0.18,0.364,0.364,0,0,0-.2.06,0.61,0.61,0,0,0-.156.148l-0.448.736a4.744,4.744,0,0,0,1.564,1.092,4.963,4.963,0,0,0,2.028.4,4.435,4.435,0,0,0,1.628-.28,3.483,3.483,0,0,0,1.208-.768,3.257,3.257,0,0,0,.748-1.148,3.861,3.861,0,0,0,.256-1.412,2.751,2.751,0,0,0-.236-1.2,2.529,2.529,0,0,0-.624-0.824,3.561,3.561,0,0,0-.88-0.556q-0.492-.219-1.008-0.4l-1.008-.34a4.724,4.724,0,0,1-.88-0.388,2.017,2.017,0,0,1-.624-0.54,1.294,1.294,0,0,1-.236-0.8,1.787,1.787,0,0,1,.136-0.7,1.56,1.56,0,0,1,.4-0.564,1.967,1.967,0,0,1,.668-0.38,2.788,2.788,0,0,1,.92-0.14,2.876,2.876,0,0,1,.94.136,3.737,3.737,0,0,1,.664.3,5.339,5.339,0,0,1,.456.3,0.551,0.551,0,0,0,.316.136,0.338,0.338,0,0,0,.208-0.06,0.625,0.625,0,0,0,.152-0.18Zm8.232,2.3a0.363,0.363,0,0,0-.384.3l-0.1.632a3.177,3.177,0,0,0-.98-0.792,2.907,2.907,0,0,0-1.332-.28,3.174,3.174,0,0,0-2.572,1.216,4.082,4.082,0,0,0-.692,1.34,5.6,5.6,0,0,0-.24,1.668,6.671,6.671,0,0,0,.216,1.784,3.736,3.736,0,0,0,.616,1.3,2.611,2.611,0,0,0,.968.788,2.922,2.922,0,0,0,1.264.268,3.036,3.036,0,0,0,1.492-.36,4.232,4.232,0,0,0,1.164-.952V142.7h1.424V131.848h-0.848Zm-3.64,6.9a1.569,1.569,0,0,1-.648-0.532,2.61,2.61,0,0,1-.4-0.928,5.84,5.84,0,0,1-.136-1.356,3.777,3.777,0,0,1,.608-2.3,2.053,2.053,0,0,1,1.744-.808,2.441,2.441,0,0,1,1.04.22,2.3,2.3,0,0,1,.856.732v3.92a3.5,3.5,0,0,1-.964.9,2.287,2.287,0,0,1-1.22.32A2.175,2.175,0,0,1,189.923,138.744Zm6.744-6.9v5.168a4.305,4.305,0,0,0,.172,1.256,2.635,2.635,0,0,0,.516.968,2.307,2.307,0,0,0,.852.62,2.921,2.921,0,0,0,1.172.22,3.107,3.107,0,0,0,1.5-.356,4.443,4.443,0,0,0,1.184-.94l0.112,0.872a0.362,0.362,0,0,0,.384.3h0.848v-8.1h-1.424v5.976a3.647,3.647,0,0,1-1.016.824,2.444,2.444,0,0,1-1.176.3,1.578,1.578,0,0,1-1.28-.5,2.147,2.147,0,0,1-.424-1.424v-5.168h-1.424Zm15.144,2.92a4.025,4.025,0,0,0-.184-1.248,2.656,2.656,0,0,0-.544-0.968,2.494,2.494,0,0,0-.888-0.624,3.076,3.076,0,0,0-1.208-.224,4.477,4.477,0,0,0-1.72.32,4.643,4.643,0,0,0-1.448.968l0.256,0.456a0.573,0.573,0,0,0,.172.188,0.424,0.424,0,0,0,.252.076,0.645,0.645,0,0,0,.372-0.132c0.125-.088.275-0.186,0.448-0.3a3.337,3.337,0,0,1,.616-0.3,2.533,2.533,0,0,1,.876-0.132,1.466,1.466,0,0,1,1.2.487,2.208,2.208,0,0,1,.4,1.437v0.636a10.493,10.493,0,0,0-2.328.221,5.533,5.533,0,0,0-1.54.566,2.323,2.323,0,0,0-.852.791,1.793,1.793,0,0,0-.264.927,2.348,2.348,0,0,0,.18.959,1.883,1.883,0,0,0,.484.67,2,2,0,0,0,.716.4,2.881,2.881,0,0,0,.884.132,4.13,4.13,0,0,0,.844-0.08,3.3,3.3,0,0,0,.716-0.236,3.583,3.583,0,0,0,.64-0.384q0.3-.228.624-0.516l0.16,0.752a0.354,0.354,0,0,0,.168.272,0.748,0.748,0,0,0,.336.064h0.632v-5.184Zm-4.216,4.244a1.109,1.109,0,0,1-.416-0.217,1.058,1.058,0,0,1-.28-0.383,1.357,1.357,0,0,1-.1-0.555,1.021,1.021,0,0,1,.2-0.611,1.557,1.557,0,0,1,.628-0.475,4.662,4.662,0,0,1,1.12-.326,9.564,9.564,0,0,1,1.672-.125v1.672a4.507,4.507,0,0,1-.492.456,3.056,3.056,0,0,1-.528.34,2.647,2.647,0,0,1-.588.216,2.888,2.888,0,0,1-.688.076A1.912,1.912,0,0,1,207.6,139.012Zm7.688,0.94v-6.04a3.237,3.237,0,0,1,.828-0.772,1.81,1.81,0,0,1,.98-0.284,1.391,1.391,0,0,1,1.144.48,2.274,2.274,0,0,1,.392,1.456v5.16h1.424v-5.16a2.351,2.351,0,0,1,.14-0.844,1.708,1.708,0,0,1,.38-0.6,1.611,1.611,0,0,1,.556-0.364,1.826,1.826,0,0,1,.668-0.124,1.493,1.493,0,0,1,1.208.492,2.187,2.187,0,0,1,.416,1.444v5.16h1.424v-5.16a4.265,4.265,0,0,0-.184-1.308,2.668,2.668,0,0,0-.532-0.964,2.263,2.263,0,0,0-.848-0.6,2.994,2.994,0,0,0-1.14-.2,3.269,3.269,0,0,0-.788.1,2.638,2.638,0,0,0-.732.3,2.6,2.6,0,0,0-.62.528,2.549,2.549,0,0,0-.444.76,2.562,2.562,0,0,0-.732-1.232,1.92,1.92,0,0,0-1.332-.456,2.369,2.369,0,0,0-1.292.352,4.164,4.164,0,0,0-1,.9l-0.1-.832a0.363,0.363,0,0,0-.384-0.3h-0.848v8.1h1.424Zm17.528-5.184a4.025,4.025,0,0,0-.184-1.248,2.656,2.656,0,0,0-.544-0.968,2.494,2.494,0,0,0-.888-0.624,3.076,3.076,0,0,0-1.208-.224,4.477,4.477,0,0,0-1.72.32,4.643,4.643,0,0,0-1.448.968l0.256,0.456a0.573,0.573,0,0,0,.172.188,0.424,0.424,0,0,0,.252.076,0.645,0.645,0,0,0,.372-0.132c0.125-.088.275-0.186,0.448-0.3a3.337,3.337,0,0,1,.616-0.3,2.533,2.533,0,0,1,.876-0.132,1.466,1.466,0,0,1,1.2.487,2.208,2.208,0,0,1,.4,1.437v0.636a10.493,10.493,0,0,0-2.328.221,5.533,5.533,0,0,0-1.54.566,2.323,2.323,0,0,0-.852.791,1.793,1.793,0,0,0-.264.927,2.348,2.348,0,0,0,.18.959,1.883,1.883,0,0,0,.484.67,2,2,0,0,0,.716.4,2.881,2.881,0,0,0,.884.132,4.13,4.13,0,0,0,.844-0.08,3.3,3.3,0,0,0,.716-0.236,3.583,3.583,0,0,0,.64-0.384q0.3-.228.624-0.516l0.16,0.752a0.354,0.354,0,0,0,.168.272,0.748,0.748,0,0,0,.336.064h0.632v-5.184Zm-4.216,4.244a1.109,1.109,0,0,1-.416-0.217,1.058,1.058,0,0,1-.28-0.383,1.357,1.357,0,0,1-.1-0.555,1.021,1.021,0,0,1,.2-0.611,1.557,1.557,0,0,1,.628-0.475,4.662,4.662,0,0,1,1.12-.326,9.564,9.564,0,0,1,1.672-.125v1.672a4.507,4.507,0,0,1-.492.456,3.056,3.056,0,0,1-.528.34,2.647,2.647,0,0,1-.588.216,2.888,2.888,0,0,1-.688.076A1.912,1.912,0,0,1,228.6,139.012Zm7.94-7a3.441,3.441,0,0,0-1.22.84,3.738,3.738,0,0,0-.776,1.316,5.612,5.612,0,0,0,0,3.452,3.729,3.729,0,0,0,.776,1.312,3.368,3.368,0,0,0,1.22.836,4.552,4.552,0,0,0,3.208,0,3.328,3.328,0,0,0,1.216-.836,3.728,3.728,0,0,0,.768-1.312,5.692,5.692,0,0,0,0-3.452,3.738,3.738,0,0,0-.768-1.316,3.4,3.4,0,0,0-1.216-.84A4.494,4.494,0,0,0,236.535,132.016Zm0.548,6.728a1.98,1.98,0,0,1-.748-0.6,2.623,2.623,0,0,1-.448-0.956,5.1,5.1,0,0,1-.148-1.288,5.156,5.156,0,0,1,.148-1.292,2.678,2.678,0,0,1,.448-0.964,1.98,1.98,0,0,1,.748-0.6,2.5,2.5,0,0,1,1.056-.208,2.078,2.078,0,0,1,1.792.808,4.572,4.572,0,0,1,0,4.5,2.081,2.081,0,0,1-1.792.8A2.484,2.484,0,0,1,237.083,138.744Zm6.584-6.9v5.168a4.305,4.305,0,0,0,.172,1.256,2.635,2.635,0,0,0,.516.968,2.307,2.307,0,0,0,.852.62,2.921,2.921,0,0,0,1.172.22,3.107,3.107,0,0,0,1.5-.356,4.443,4.443,0,0,0,1.184-.94l0.112,0.872a0.362,0.362,0,0,0,.384.3h0.848v-8.1h-1.424v5.976a3.647,3.647,0,0,1-1.016.824,2.444,2.444,0,0,1-1.176.3,1.578,1.578,0,0,1-1.28-.5,2.147,2.147,0,0,1-.424-1.424v-5.168h-1.424Zm14.152,0.816a3.4,3.4,0,0,0-1.1-.692,3.873,3.873,0,0,0-1.436-.252,3.615,3.615,0,0,0-1.224.192,2.758,2.758,0,0,0-.9.516,2.195,2.195,0,0,0-.56.752,2.159,2.159,0,0,0-.192.892,1.976,1.976,0,0,0,.18.884,1.864,1.864,0,0,0,.476.612,2.7,2.7,0,0,0,.676.412q0.379,0.165.776,0.292t0.776,0.244a3.932,3.932,0,0,1,.676.272,1.533,1.533,0,0,1,.476.376,0.85,0.85,0,0,1,.18.556,1.309,1.309,0,0,1-.1.512,1.151,1.151,0,0,1-.308.424,1.527,1.527,0,0,1-.52.292,2.227,2.227,0,0,1-.728.108,2.508,2.508,0,0,1-.812-0.112,2.921,2.921,0,0,1-.552-0.248q-0.228-.135-0.388-0.248a0.542,0.542,0,0,0-.3-0.112,0.431,0.431,0,0,0-.232.056,0.5,0.5,0,0,0-.152.16l-0.336.544a3.888,3.888,0,0,0,1.168.708,4.1,4.1,0,0,0,1.536.276,3.954,3.954,0,0,0,1.312-.2,2.843,2.843,0,0,0,.96-0.548,2.255,2.255,0,0,0,.592-0.824,2.65,2.65,0,0,0,.2-1.036,1.8,1.8,0,0,0-.18-0.836,1.834,1.834,0,0,0-.476-0.588,2.8,2.8,0,0,0-.672-0.4c-0.251-.106-0.508-0.2-0.772-0.292s-0.521-.17-0.772-0.248a4.037,4.037,0,0,1-.672-0.268,1.558,1.558,0,0,1-.476-0.36,0.765,0.765,0,0,1-.18-0.52,1,1,0,0,1,.108-0.46,1.121,1.121,0,0,1,.312-0.372,1.584,1.584,0,0,1,.492-0.252,2.135,2.135,0,0,1,.648-0.092,2.515,2.515,0,0,1,.72.092,3.568,3.568,0,0,1,.524.2c0.147,0.072.271,0.138,0.372,0.2a0.552,0.552,0,0,0,.272.088,0.315,0.315,0,0,0,.3-0.176Zm10.944,0.112a3.6,3.6,0,0,0-1.16-.78,3.85,3.85,0,0,0-1.5-.276,4.033,4.033,0,0,0-1.632.312,3.344,3.344,0,0,0-1.2.868,3.786,3.786,0,0,0-.736,1.324,5.338,5.338,0,0,0-.252,1.672,5.254,5.254,0,0,0,.276,1.768,3.84,3.84,0,0,0,.756,1.308,3.2,3.2,0,0,0,1.132.812,3.534,3.534,0,0,0,1.412.28,4.679,4.679,0,0,0,1.672-.3,3.079,3.079,0,0,0,1.32-.948l-0.4-.52a0.3,0.3,0,0,0-.272-0.136,0.447,0.447,0,0,0-.288.124,4.026,4.026,0,0,1-.368.276,2.54,2.54,0,0,1-.56.276,2.5,2.5,0,0,1-.856.124,2.285,2.285,0,0,1-.98-0.2,2.01,2.01,0,0,1-.74-0.592,2.816,2.816,0,0,1-.472-0.96,4.644,4.644,0,0,1-.168-1.308,4.806,4.806,0,0,1,.156-1.272,2.784,2.784,0,0,1,.464-0.968,2.043,2.043,0,0,1,.764-0.612,2.464,2.464,0,0,1,1.048-.212,2.491,2.491,0,0,1,.756.1,3.017,3.017,0,0,1,.524.22,3.888,3.888,0,0,1,.356.22,0.454,0.454,0,0,0,.26.1,0.3,0.3,0,0,0,.184-0.048,0.628,0.628,0,0,0,.128-0.136Zm3.72-.748a3.452,3.452,0,0,0-1.192.848,3.74,3.74,0,0,0-.748,1.276,4.733,4.733,0,0,0-.26,1.584,5.51,5.51,0,0,0,.288,1.856,3.811,3.811,0,0,0,.8,1.356,3.385,3.385,0,0,0,1.224.832,4.127,4.127,0,0,0,1.548.284,5.273,5.273,0,0,0,.888-0.076,4.881,4.881,0,0,0,.868-0.228,3.874,3.874,0,0,0,.788-0.388,2.689,2.689,0,0,0,.632-0.556l-0.4-.52a0.315,0.315,0,0,0-.272-0.136,0.624,0.624,0,0,0-.324.124,4.933,4.933,0,0,1-.468.268,4.328,4.328,0,0,1-.668.268,3.044,3.044,0,0,1-.924.124,2.733,2.733,0,0,1-1.04-.188,2.107,2.107,0,0,1-.8-0.568,2.726,2.726,0,0,1-.528-0.948,4.481,4.481,0,0,1-.208-1.336h5.392a0.3,0.3,0,0,0,.272-0.112,0.927,0.927,0,0,0,.072-0.448,4.39,4.39,0,0,0-.252-1.54,3.214,3.214,0,0,0-.7-1.136,3.03,3.03,0,0,0-1.064-.7,3.634,3.634,0,0,0-1.344-.244A3.916,3.916,0,0,0,272.483,132.028Zm2.484,0.9a1.8,1.8,0,0,1,.644.464,2.034,2.034,0,0,1,.4.712,2.878,2.878,0,0,1,.136.908h-4.408a2.805,2.805,0,0,1,.736-1.652A2.466,2.466,0,0,1,274.967,132.932Zm4.052-4.764v11.784h1.424V128.168h-1.424Zm4,0v11.784h1.424V128.168h-1.424Zm9.744,4.608a3.6,3.6,0,0,0-1.16-.78,3.85,3.85,0,0,0-1.5-.276,4.033,4.033,0,0,0-1.632.312,3.344,3.344,0,0,0-1.2.868,3.786,3.786,0,0,0-.736,1.324,5.338,5.338,0,0,0-.252,1.672,5.254,5.254,0,0,0,.276,1.768,3.84,3.84,0,0,0,.756,1.308,3.2,3.2,0,0,0,1.132.812,3.534,3.534,0,0,0,1.412.28,4.679,4.679,0,0,0,1.672-.3,3.079,3.079,0,0,0,1.32-.948l-0.4-.52a0.3,0.3,0,0,0-.272-0.136,0.447,0.447,0,0,0-.288.124,4.026,4.026,0,0,1-.368.276,2.54,2.54,0,0,1-.56.276,2.5,2.5,0,0,1-.856.124,2.285,2.285,0,0,1-.98-0.2,2.01,2.01,0,0,1-.74-0.592,2.816,2.816,0,0,1-.472-0.96,4.644,4.644,0,0,1-.168-1.308,4.806,4.806,0,0,1,.156-1.272,2.784,2.784,0,0,1,.464-0.968,2.043,2.043,0,0,1,.764-0.612,2.464,2.464,0,0,1,1.048-.212,2.491,2.491,0,0,1,.756.1,3.017,3.017,0,0,1,.524.22,3.888,3.888,0,0,1,.356.22,0.454,0.454,0,0,0,.26.1,0.3,0.3,0,0,0,.184-0.048,0.628,0.628,0,0,0,.128-0.136Zm8.048,1.992a4.025,4.025,0,0,0-.184-1.248,2.656,2.656,0,0,0-.544-0.968,2.494,2.494,0,0,0-.888-0.624,3.076,3.076,0,0,0-1.208-.224,4.477,4.477,0,0,0-1.72.32,4.643,4.643,0,0,0-1.448.968l0.256,0.456a0.573,0.573,0,0,0,.172.188,0.424,0.424,0,0,0,.252.076,0.645,0.645,0,0,0,.372-0.132c0.125-.088.275-0.186,0.448-0.3a3.337,3.337,0,0,1,.616-0.3,2.533,2.533,0,0,1,.876-0.132,1.466,1.466,0,0,1,1.2.487,2.208,2.208,0,0,1,.4,1.437v0.636a10.493,10.493,0,0,0-2.328.221,5.533,5.533,0,0,0-1.54.566,2.323,2.323,0,0,0-.852.791,1.793,1.793,0,0,0-.264.927,2.348,2.348,0,0,0,.18.959,1.883,1.883,0,0,0,.484.67,2,2,0,0,0,.716.4,2.881,2.881,0,0,0,.884.132,4.13,4.13,0,0,0,.844-0.08,3.3,3.3,0,0,0,.716-0.236,3.583,3.583,0,0,0,.64-0.384q0.3-.228.624-0.516l0.16,0.752a0.354,0.354,0,0,0,.168.272,0.748,0.748,0,0,0,.336.064h0.632v-5.184Zm-4.216,4.244a1.109,1.109,0,0,1-.416-0.217,1.058,1.058,0,0,1-.28-0.383,1.357,1.357,0,0,1-.1-0.555,1.021,1.021,0,0,1,.2-0.611,1.557,1.557,0,0,1,.628-0.475,4.662,4.662,0,0,1,1.12-.326,9.564,9.564,0,0,1,1.672-.125v1.672a4.507,4.507,0,0,1-.492.456,3.056,3.056,0,0,1-.528.34,2.647,2.647,0,0,1-.588.216,2.888,2.888,0,0,1-.688.076A1.912,1.912,0,0,1,296.6,139.012Zm7.688,0.94v-5.16a3.249,3.249,0,0,1,.836-1.256,1.835,1.835,0,0,1,1.244-.432,2.195,2.195,0,0,1,.648.076,1.232,1.232,0,0,0,.344.076,0.24,0.24,0,0,0,.248-0.2l0.184-1.064a2.173,2.173,0,0,0-.5-0.212,2.422,2.422,0,0,0-2.044.4,3.712,3.712,0,0,0-1.028,1.324l-0.1-1.264a0.536,0.536,0,0,0-.12-0.3,0.454,0.454,0,0,0-.32-0.088h-0.816v8.1h1.424Zm10.48-7.176a3.6,3.6,0,0,0-1.16-.78,3.85,3.85,0,0,0-1.5-.276,4.033,4.033,0,0,0-1.632.312,3.344,3.344,0,0,0-1.2.868,3.786,3.786,0,0,0-.736,1.324,5.338,5.338,0,0,0-.252,1.672,5.254,5.254,0,0,0,.276,1.768,3.84,3.84,0,0,0,.756,1.308,3.2,3.2,0,0,0,1.132.812,3.534,3.534,0,0,0,1.412.28,4.679,4.679,0,0,0,1.672-.3,3.079,3.079,0,0,0,1.32-.948l-0.4-.52a0.3,0.3,0,0,0-.272-0.136,0.447,0.447,0,0,0-.288.124,4.026,4.026,0,0,1-.368.276,2.54,2.54,0,0,1-.56.276,2.5,2.5,0,0,1-.856.124,2.285,2.285,0,0,1-.98-0.2,2.01,2.01,0,0,1-.74-0.592,2.816,2.816,0,0,1-.472-0.96,4.644,4.644,0,0,1-.168-1.308,4.806,4.806,0,0,1,.156-1.272,2.784,2.784,0,0,1,.464-0.968,2.043,2.043,0,0,1,.764-0.612,2.464,2.464,0,0,1,1.048-.212,2.491,2.491,0,0,1,.756.1,3.017,3.017,0,0,1,.524.22,3.888,3.888,0,0,1,.356.22,0.454,0.454,0,0,0,.26.1,0.3,0.3,0,0,0,.184-0.048,0.628,0.628,0,0,0,.128-0.136Zm2.256-.928v8.1h1.424v-8.1h-1.424Zm1.66-2.94a1.1,1.1,0,0,0-.224-0.328,1.05,1.05,0,0,0-.324-0.22,0.978,0.978,0,0,0-.392-0.08,0.949,0.949,0,0,0-.388.08,1.069,1.069,0,0,0-.32.22,1.039,1.039,0,0,0-.22.328,1.012,1.012,0,0,0-.08.4,0.949,0.949,0,0,0,.08.388,1.051,1.051,0,0,0,.22.32,1.033,1.033,0,0,0,.32.22,0.933,0.933,0,0,0,.388.08,0.961,0.961,0,0,0,.392-0.08,1.016,1.016,0,0,0,.324-0.22,1.119,1.119,0,0,0,.224-0.32,0.905,0.905,0,0,0,.084-0.388A0.965,0.965,0,0,0,318.679,128.908Zm3.6,11.044v-5.968a3.906,3.906,0,0,1,1.012-.824,2.4,2.4,0,0,1,1.18-.3,1.572,1.572,0,0,1,1.284.508,2.182,2.182,0,0,1,.42,1.428v5.16H327.6v-5.16a4.246,4.246,0,0,0-.176-1.256,2.757,2.757,0,0,0-.516-0.972,2.275,2.275,0,0,0-.848-0.624,2.938,2.938,0,0,0-1.172-.22,3.069,3.069,0,0,0-1.508.36,4.556,4.556,0,0,0-1.18.944l-0.112-.88a0.363,0.363,0,0,0-.384-0.3h-0.848v8.1h1.424Zm9.252-7.936a3.441,3.441,0,0,0-1.22.84,3.738,3.738,0,0,0-.776,1.316,5.612,5.612,0,0,0,0,3.452,3.729,3.729,0,0,0,.776,1.312,3.368,3.368,0,0,0,1.22.836,4.552,4.552,0,0,0,3.208,0,3.328,3.328,0,0,0,1.216-.836,3.728,3.728,0,0,0,.768-1.312,5.692,5.692,0,0,0,0-3.452,3.738,3.738,0,0,0-.768-1.316,3.4,3.4,0,0,0-1.216-.84A4.494,4.494,0,0,0,331.535,132.016Zm0.548,6.728a1.98,1.98,0,0,1-.748-0.6,2.623,2.623,0,0,1-.448-0.956,5.1,5.1,0,0,1-.148-1.288,5.156,5.156,0,0,1,.148-1.292,2.678,2.678,0,0,1,.448-0.964,1.98,1.98,0,0,1,.748-0.6,2.5,2.5,0,0,1,1.056-.208,2.078,2.078,0,0,1,1.792.808,4.572,4.572,0,0,1,0,4.5,2.081,2.081,0,0,1-1.792.8A2.484,2.484,0,0,1,332.083,138.744Zm8.2,1.208v-6.04a3.237,3.237,0,0,1,.828-0.772,1.81,1.81,0,0,1,.98-0.284,1.391,1.391,0,0,1,1.144.48,2.274,2.274,0,0,1,.392,1.456v5.16h1.424v-5.16a2.351,2.351,0,0,1,.14-0.844,1.708,1.708,0,0,1,.38-0.6,1.611,1.611,0,0,1,.556-0.364,1.826,1.826,0,0,1,.668-0.124,1.493,1.493,0,0,1,1.208.492,2.187,2.187,0,0,1,.416,1.444v5.16h1.424v-5.16a4.265,4.265,0,0,0-.184-1.308,2.668,2.668,0,0,0-.532-0.964,2.263,2.263,0,0,0-.848-0.6,2.994,2.994,0,0,0-1.14-.2,3.269,3.269,0,0,0-.788.1,2.638,2.638,0,0,0-.732.3,2.6,2.6,0,0,0-.62.528,2.549,2.549,0,0,0-.444.76,2.562,2.562,0,0,0-.732-1.232,1.92,1.92,0,0,0-1.332-.456,2.369,2.369,0,0,0-1.292.352,4.164,4.164,0,0,0-1,.9l-0.1-.832a0.363,0.363,0,0,0-.384-0.3h-0.848v8.1h1.424Zm17.528-5.184a4.025,4.025,0,0,0-.184-1.248,2.656,2.656,0,0,0-.544-0.968,2.494,2.494,0,0,0-.888-0.624,3.076,3.076,0,0,0-1.208-.224,4.477,4.477,0,0,0-1.72.32,4.643,4.643,0,0,0-1.448.968l0.256,0.456a0.573,0.573,0,0,0,.172.188,0.424,0.424,0,0,0,.252.076,0.645,0.645,0,0,0,.372-0.132c0.125-.088.275-0.186,0.448-0.3a3.337,3.337,0,0,1,.616-0.3,2.533,2.533,0,0,1,.876-0.132,1.466,1.466,0,0,1,1.2.487,2.208,2.208,0,0,1,.4,1.437v0.636a10.493,10.493,0,0,0-2.328.221,5.533,5.533,0,0,0-1.54.566,2.323,2.323,0,0,0-.852.791,1.793,1.793,0,0,0-.264.927,2.348,2.348,0,0,0,.18.959,1.883,1.883,0,0,0,.484.67,2,2,0,0,0,.716.4,2.881,2.881,0,0,0,.884.132,4.13,4.13,0,0,0,.844-0.08,3.3,3.3,0,0,0,.716-0.236,3.583,3.583,0,0,0,.64-0.384q0.3-.228.624-0.516l0.16,0.752a0.354,0.354,0,0,0,.168.272,0.748,0.748,0,0,0,.336.064h0.632v-5.184Zm-4.216,4.244a1.109,1.109,0,0,1-.416-0.217,1.058,1.058,0,0,1-.28-0.383,1.357,1.357,0,0,1-.1-0.555,1.021,1.021,0,0,1,.2-0.611,1.557,1.557,0,0,1,.628-0.475,4.662,4.662,0,0,1,1.12-.326,9.564,9.564,0,0,1,1.672-.125v1.672a4.507,4.507,0,0,1-.492.456,3.056,3.056,0,0,1-.528.34,2.647,2.647,0,0,1-.588.216,2.888,2.888,0,0,1-.688.076A1.912,1.912,0,0,1,353.6,139.012Z"/>
  <path id="Adenocar_cinoma" data-name="Adenocar cinoma" class="cls-4" d="M183.931,229.488h-1.576l-4.584,11.464h1.2a0.511,0.511,0,0,0,.336-0.112,0.615,0.615,0,0,0,.192-0.256l1.072-2.768h5.144l1.072,2.768a0.641,0.641,0,0,0,.192.264,0.511,0.511,0,0,0,.336.1h1.2ZM182.8,232.04c0.053-.138.108-0.3,0.164-0.484s0.113-.385.172-0.6a8.774,8.774,0,0,0,.344,1.08l1.8,4.664H181Zm13.608,8.912V229.168h-1.424v4.5a3.046,3.046,0,0,0-.944-0.708,2.932,2.932,0,0,0-1.272-.252,3.174,3.174,0,0,0-2.572,1.216,4.082,4.082,0,0,0-.692,1.34,5.6,5.6,0,0,0-.24,1.668,6.671,6.671,0,0,0,.216,1.784,3.736,3.736,0,0,0,.616,1.3,2.611,2.611,0,0,0,.968.788,2.922,2.922,0,0,0,1.264.268,3.036,3.036,0,0,0,1.532-.38,4.259,4.259,0,0,0,1.188-1.012l0.128,0.984a0.362,0.362,0,0,0,.384.3h0.848Zm-4.488-1.208a1.569,1.569,0,0,1-.648-0.532,2.61,2.61,0,0,1-.4-0.928,5.84,5.84,0,0,1-.136-1.356,3.777,3.777,0,0,1,.608-2.3,2.053,2.053,0,0,1,1.744-.808,2.486,2.486,0,0,1,1.036.212,2.257,2.257,0,0,1,.86.74v3.92a3.5,3.5,0,0,1-.964.9,2.287,2.287,0,0,1-1.22.32A2.175,2.175,0,0,1,191.923,239.744Zm8.56-6.716a3.452,3.452,0,0,0-1.192.848,3.74,3.74,0,0,0-.748,1.276,4.733,4.733,0,0,0-.26,1.584,5.51,5.51,0,0,0,.288,1.856,3.811,3.811,0,0,0,.8,1.356,3.385,3.385,0,0,0,1.224.832,4.127,4.127,0,0,0,1.548.284,5.273,5.273,0,0,0,.888-0.076,4.881,4.881,0,0,0,.868-0.228,3.874,3.874,0,0,0,.788-0.388,2.689,2.689,0,0,0,.632-0.556l-0.4-.52a0.315,0.315,0,0,0-.272-0.136,0.624,0.624,0,0,0-.324.124,4.933,4.933,0,0,1-.468.268,4.328,4.328,0,0,1-.668.268,3.044,3.044,0,0,1-.924.124,2.733,2.733,0,0,1-1.04-.188,2.107,2.107,0,0,1-.8-0.568,2.726,2.726,0,0,1-.528-0.948,4.481,4.481,0,0,1-.208-1.336h5.392a0.3,0.3,0,0,0,.272-0.112,0.927,0.927,0,0,0,.072-0.448,4.39,4.39,0,0,0-.252-1.54,3.214,3.214,0,0,0-.7-1.136,3.03,3.03,0,0,0-1.064-.7,3.634,3.634,0,0,0-1.344-.244A3.916,3.916,0,0,0,200.483,233.028Zm2.484,0.9a1.8,1.8,0,0,1,.644.464,2.034,2.034,0,0,1,.4.712,2.878,2.878,0,0,1,.136.908h-4.408a2.805,2.805,0,0,1,.736-1.652A2.466,2.466,0,0,1,202.967,233.932Zm5.316,7.02v-5.968a3.906,3.906,0,0,1,1.012-.824,2.4,2.4,0,0,1,1.18-.3,1.572,1.572,0,0,1,1.284.508,2.182,2.182,0,0,1,.42,1.428v5.16H213.6v-5.16a4.246,4.246,0,0,0-.176-1.256,2.757,2.757,0,0,0-.516-0.972,2.275,2.275,0,0,0-.848-0.624,2.938,2.938,0,0,0-1.172-.22,3.069,3.069,0,0,0-1.508.36,4.556,4.556,0,0,0-1.18.944l-0.112-.88a0.363,0.363,0,0,0-.384-0.3h-0.848v8.1h1.424Zm9.252-7.936a3.441,3.441,0,0,0-1.22.84,3.738,3.738,0,0,0-.776,1.316,5.612,5.612,0,0,0,0,3.452,3.729,3.729,0,0,0,.776,1.312,3.368,3.368,0,0,0,1.22.836,4.552,4.552,0,0,0,3.208,0,3.328,3.328,0,0,0,1.216-.836,3.728,3.728,0,0,0,.768-1.312,5.692,5.692,0,0,0,0-3.452,3.738,3.738,0,0,0-.768-1.316,3.4,3.4,0,0,0-1.216-.84A4.494,4.494,0,0,0,217.535,233.016Zm0.548,6.728a1.98,1.98,0,0,1-.748-0.6,2.623,2.623,0,0,1-.448-0.956,5.1,5.1,0,0,1-.148-1.288,5.156,5.156,0,0,1,.148-1.292,2.678,2.678,0,0,1,.448-0.964,1.98,1.98,0,0,1,.748-0.6,2.5,2.5,0,0,1,1.056-.208,2.078,2.078,0,0,1,1.792.808,4.572,4.572,0,0,1,0,4.5,2.081,2.081,0,0,1-1.792.8A2.484,2.484,0,0,1,218.083,239.744Zm12.68-5.968a3.6,3.6,0,0,0-1.16-.78,3.85,3.85,0,0,0-1.5-.276,4.033,4.033,0,0,0-1.632.312,3.344,3.344,0,0,0-1.2.868,3.786,3.786,0,0,0-.736,1.324,5.338,5.338,0,0,0-.252,1.672,5.254,5.254,0,0,0,.276,1.768,3.84,3.84,0,0,0,.756,1.308,3.2,3.2,0,0,0,1.132.812,3.534,3.534,0,0,0,1.412.28,4.679,4.679,0,0,0,1.672-.3,3.079,3.079,0,0,0,1.32-.948l-0.4-.52a0.3,0.3,0,0,0-.272-0.136,0.447,0.447,0,0,0-.288.124,4.026,4.026,0,0,1-.368.276,2.54,2.54,0,0,1-.56.276,2.5,2.5,0,0,1-.856.124,2.285,2.285,0,0,1-.98-0.2,2.01,2.01,0,0,1-.74-0.592,2.816,2.816,0,0,1-.472-0.96,4.644,4.644,0,0,1-.168-1.308,4.806,4.806,0,0,1,.156-1.272,2.784,2.784,0,0,1,.464-0.968,2.043,2.043,0,0,1,.764-0.612,2.464,2.464,0,0,1,1.048-.212,2.491,2.491,0,0,1,.756.1,3.017,3.017,0,0,1,.524.22,3.888,3.888,0,0,1,.356.22,0.454,0.454,0,0,0,.26.1,0.3,0.3,0,0,0,.184-0.048,0.628,0.628,0,0,0,.128-0.136Zm8.048,1.992a4.025,4.025,0,0,0-.184-1.248,2.656,2.656,0,0,0-.544-0.968,2.494,2.494,0,0,0-.888-0.624,3.076,3.076,0,0,0-1.208-.224,4.477,4.477,0,0,0-1.72.32,4.643,4.643,0,0,0-1.448.968l0.256,0.456a0.573,0.573,0,0,0,.172.188,0.424,0.424,0,0,0,.252.076,0.645,0.645,0,0,0,.372-0.132c0.125-.088.275-0.186,0.448-0.3a3.337,3.337,0,0,1,.616-0.3,2.533,2.533,0,0,1,.876-0.132,1.466,1.466,0,0,1,1.2.487,2.208,2.208,0,0,1,.4,1.437v0.636a10.493,10.493,0,0,0-2.328.221,5.533,5.533,0,0,0-1.54.566,2.323,2.323,0,0,0-.852.791,1.793,1.793,0,0,0-.264.927,2.348,2.348,0,0,0,.18.959,1.883,1.883,0,0,0,.484.67,2,2,0,0,0,.716.4,2.881,2.881,0,0,0,.884.132,4.13,4.13,0,0,0,.844-0.08,3.3,3.3,0,0,0,.716-0.236,3.583,3.583,0,0,0,.64-0.384q0.3-.228.624-0.516l0.16,0.752a0.354,0.354,0,0,0,.168.272,0.748,0.748,0,0,0,.336.064h0.632v-5.184Zm-4.216,4.244a1.109,1.109,0,0,1-.416-0.217,1.058,1.058,0,0,1-.28-0.383,1.357,1.357,0,0,1-.1-0.555,1.021,1.021,0,0,1,.2-0.611,1.557,1.557,0,0,1,.628-0.475,4.662,4.662,0,0,1,1.12-.326,9.564,9.564,0,0,1,1.672-.125v1.672a4.507,4.507,0,0,1-.492.456,3.056,3.056,0,0,1-.528.34,2.647,2.647,0,0,1-.588.216,2.888,2.888,0,0,1-.688.076A1.912,1.912,0,0,1,234.6,240.012Zm7.688,0.94v-5.16a3.249,3.249,0,0,1,.836-1.256,1.835,1.835,0,0,1,1.244-.432,2.195,2.195,0,0,1,.648.076,1.232,1.232,0,0,0,.344.076,0.24,0.24,0,0,0,.248-0.2l0.184-1.064a2.173,2.173,0,0,0-.5-0.212,2.422,2.422,0,0,0-2.044.4,3.712,3.712,0,0,0-1.028,1.324l-0.1-1.264a0.536,0.536,0,0,0-.12-0.3,0.454,0.454,0,0,0-.32-0.088h-0.816v8.1h1.424Zm13.48-7.176a3.6,3.6,0,0,0-1.16-.78,3.85,3.85,0,0,0-1.5-.276,4.033,4.033,0,0,0-1.632.312,3.344,3.344,0,0,0-1.2.868,3.786,3.786,0,0,0-.736,1.324,5.338,5.338,0,0,0-.252,1.672,5.254,5.254,0,0,0,.276,1.768,3.84,3.84,0,0,0,.756,1.308,3.2,3.2,0,0,0,1.132.812,3.534,3.534,0,0,0,1.412.28,4.679,4.679,0,0,0,1.672-.3,3.079,3.079,0,0,0,1.32-.948l-0.4-.52a0.3,0.3,0,0,0-.272-0.136,0.447,0.447,0,0,0-.288.124,4.026,4.026,0,0,1-.368.276,2.54,2.54,0,0,1-.56.276,2.5,2.5,0,0,1-.856.124,2.285,2.285,0,0,1-.98-0.2,2.01,2.01,0,0,1-.74-0.592,2.816,2.816,0,0,1-.472-0.96,4.644,4.644,0,0,1-.168-1.308,4.806,4.806,0,0,1,.156-1.272,2.784,2.784,0,0,1,.464-0.968,2.043,2.043,0,0,1,.764-0.612,2.464,2.464,0,0,1,1.048-.212,2.491,2.491,0,0,1,.756.1,3.017,3.017,0,0,1,.524.22,3.888,3.888,0,0,1,.356.22,0.454,0.454,0,0,0,.26.1,0.3,0.3,0,0,0,.184-0.048,0.628,0.628,0,0,0,.128-0.136Zm2.256-.928v8.1h1.424v-8.1h-1.424Zm1.66-2.94a1.1,1.1,0,0,0-.224-0.328,1.05,1.05,0,0,0-.324-0.22,0.978,0.978,0,0,0-.392-0.08,0.949,0.949,0,0,0-.388.08,1.069,1.069,0,0,0-.32.22,1.039,1.039,0,0,0-.22.328,1.012,1.012,0,0,0-.08.4,0.949,0.949,0,0,0,.08.388,1.051,1.051,0,0,0,.22.32,1.033,1.033,0,0,0,.32.22,0.933,0.933,0,0,0,.388.08,0.961,0.961,0,0,0,.392-0.08,1.016,1.016,0,0,0,.324-0.22,1.119,1.119,0,0,0,.224-0.32,0.905,0.905,0,0,0,.084-0.388A0.965,0.965,0,0,0,259.679,229.908Zm3.6,11.044v-5.968a3.906,3.906,0,0,1,1.012-.824,2.4,2.4,0,0,1,1.18-.3,1.572,1.572,0,0,1,1.284.508,2.182,2.182,0,0,1,.42,1.428v5.16H268.6v-5.16a4.246,4.246,0,0,0-.176-1.256,2.757,2.757,0,0,0-.516-0.972,2.275,2.275,0,0,0-.848-0.624,2.938,2.938,0,0,0-1.172-.22,3.069,3.069,0,0,0-1.508.36,4.556,4.556,0,0,0-1.18.944l-0.112-.88a0.363,0.363,0,0,0-.384-0.3h-0.848v8.1h1.424Zm9.252-7.936a3.441,3.441,0,0,0-1.22.84,3.738,3.738,0,0,0-.776,1.316,5.612,5.612,0,0,0,0,3.452,3.729,3.729,0,0,0,.776,1.312,3.368,3.368,0,0,0,1.22.836,4.552,4.552,0,0,0,3.208,0,3.328,3.328,0,0,0,1.216-.836,3.728,3.728,0,0,0,.768-1.312,5.692,5.692,0,0,0,0-3.452,3.738,3.738,0,0,0-.768-1.316,3.4,3.4,0,0,0-1.216-.84A4.494,4.494,0,0,0,272.535,233.016Zm0.548,6.728a1.98,1.98,0,0,1-.748-0.6,2.623,2.623,0,0,1-.448-0.956,5.1,5.1,0,0,1-.148-1.288,5.156,5.156,0,0,1,.148-1.292,2.678,2.678,0,0,1,.448-0.964,1.98,1.98,0,0,1,.748-0.6,2.5,2.5,0,0,1,1.056-.208,2.078,2.078,0,0,1,1.792.808,4.572,4.572,0,0,1,0,4.5,2.081,2.081,0,0,1-1.792.8A2.484,2.484,0,0,1,273.083,239.744Zm8.2,1.208v-6.04a3.237,3.237,0,0,1,.828-0.772,1.81,1.81,0,0,1,.98-0.284,1.391,1.391,0,0,1,1.144.48,2.274,2.274,0,0,1,.392,1.456v5.16h1.424v-5.16a2.351,2.351,0,0,1,.14-0.844,1.708,1.708,0,0,1,.38-0.6,1.611,1.611,0,0,1,.556-0.364,1.826,1.826,0,0,1,.668-0.124,1.493,1.493,0,0,1,1.208.492,2.187,2.187,0,0,1,.416,1.444v5.16h1.424v-5.16a4.265,4.265,0,0,0-.184-1.308,2.668,2.668,0,0,0-.532-0.964,2.263,2.263,0,0,0-.848-0.6,2.994,2.994,0,0,0-1.14-.2,3.269,3.269,0,0,0-.788.1,2.638,2.638,0,0,0-.732.3,2.6,2.6,0,0,0-.62.528,2.549,2.549,0,0,0-.444.76,2.562,2.562,0,0,0-.732-1.232,1.92,1.92,0,0,0-1.332-.456,2.369,2.369,0,0,0-1.292.352,4.164,4.164,0,0,0-1,.9l-0.1-.832a0.363,0.363,0,0,0-.384-0.3h-0.848v8.1h1.424Zm17.528-5.184a4.025,4.025,0,0,0-.184-1.248,2.656,2.656,0,0,0-.544-0.968,2.494,2.494,0,0,0-.888-0.624,3.076,3.076,0,0,0-1.208-.224,4.477,4.477,0,0,0-1.72.32,4.643,4.643,0,0,0-1.448.968l0.256,0.456a0.573,0.573,0,0,0,.172.188,0.424,0.424,0,0,0,.252.076,0.645,0.645,0,0,0,.372-0.132c0.125-.088.275-0.186,0.448-0.3a3.337,3.337,0,0,1,.616-0.3,2.533,2.533,0,0,1,.876-0.132,1.466,1.466,0,0,1,1.2.487,2.208,2.208,0,0,1,.4,1.437v0.636a10.493,10.493,0,0,0-2.328.221,5.533,5.533,0,0,0-1.54.566,2.323,2.323,0,0,0-.852.791,1.793,1.793,0,0,0-.264.927,2.348,2.348,0,0,0,.18.959,1.883,1.883,0,0,0,.484.67,2,2,0,0,0,.716.4,2.881,2.881,0,0,0,.884.132,4.13,4.13,0,0,0,.844-0.08,3.3,3.3,0,0,0,.716-0.236,3.583,3.583,0,0,0,.64-0.384q0.3-.228.624-0.516l0.16,0.752a0.354,0.354,0,0,0,.168.272,0.748,0.748,0,0,0,.336.064h0.632v-5.184Zm-4.216,4.244a1.109,1.109,0,0,1-.416-0.217,1.058,1.058,0,0,1-.28-0.383,1.357,1.357,0,0,1-.1-0.555,1.021,1.021,0,0,1,.2-0.611,1.557,1.557,0,0,1,.628-0.475,4.662,4.662,0,0,1,1.12-.326,9.564,9.564,0,0,1,1.672-.125v1.672a4.507,4.507,0,0,1-.492.456,3.056,3.056,0,0,1-.528.34,2.647,2.647,0,0,1-.588.216,2.888,2.888,0,0,1-.688.076A1.912,1.912,0,0,1,294.6,240.012Z"/>
</svg>
