<svg xmlns="http://www.w3.org/2000/svg" width="462" height="90" viewBox="0 0 462 90">
  <defs>
    <style>
      .cls-1 {
        fill: #5addbe;
      }

      .cls-1, .cls-2 {
        fill-rule: evenodd;
      }

      .cls-2 {
        fill: #89b7b5;
      }
    </style>
  </defs>
  <path id="WILL_DEVELOP_BREAST_CANCER" data-name="WILL DEVELOP BREAST CANCER" class="cls-1" d="M28.364,67.8a1.592,1.592,0,0,0-.975.3,1.281,1.281,0,0,0-.51.69L23.5,81.059q-0.12.48-.232,1.043t-0.233,1.192q-0.135-.63-0.285-1.192t-0.33-1.043l-3.915-12.27a1.682,1.682,0,0,0-.547-0.713,1.54,1.54,0,0,0-.953-0.277h-1.32a1.535,1.535,0,0,0-.968.307,1.429,1.429,0,0,0-.518.683l-3.93,12.27q-0.18.51-.33,1.095t-0.285,1.26q-0.12-.66-0.247-1.252t-0.248-1.1L5.789,68.789a1.232,1.232,0,0,0-.518-0.72,1.709,1.709,0,0,0-.982-0.27H0.509L7.244,89.564h4.08l4.5-14.235q0.1-.3.21-0.66t0.2-.765q0.09,0.405.2,0.765t0.21,0.66l4.455,14.235h4.065L31.9,67.8h-3.54Zm10.785,0h-4.53V89.564h4.53V67.8Zm8.97,18.1V67.8h-4.5V89.564H56.534V85.9H48.119Zm16.005,0V67.8h-4.5V89.564H72.539V85.9H64.124Zm36.322-11.595a10.067,10.067,0,0,0-2.265-3.442,10.3,10.3,0,0,0-3.517-2.257,12.338,12.338,0,0,0-4.56-.81h-8.37V89.564H90.1a12.338,12.338,0,0,0,4.56-.81,10.36,10.36,0,0,0,3.517-2.25,9.969,9.969,0,0,0,2.265-3.442A12.326,12.326,0,0,0,100.446,74.309Zm-4.267,7.455a6.558,6.558,0,0,1-1.29,2.318,5.514,5.514,0,0,1-2.047,1.455,7.065,7.065,0,0,1-2.737.5h-3.84V71.324H90.1a6.981,6.981,0,0,1,2.737.51,5.634,5.634,0,0,1,2.047,1.455,6.483,6.483,0,0,1,1.29,2.31A10.783,10.783,0,0,1,96.179,81.764Zm22.41-10.44V67.8h-13.86V89.564h13.86V86.039h-9.33V80.324h7.26V76.919h-7.26V71.324h9.33Zm18.54-3.525a1.474,1.474,0,0,0-.953.307,1.691,1.691,0,0,0-.532.683l-4.68,12.54q-0.27.705-.5,1.537t-0.427,1.748q-0.225-.915-0.488-1.748t-0.532-1.537l-4.71-12.54a1.684,1.684,0,0,0-.548-0.713A1.538,1.538,0,0,0,122.8,67.8h-3.63l8.76,21.765h4.08l8.76-21.765h-3.645Zm19.455,3.525V67.8h-13.86V89.564h13.86V86.039h-9.33V80.324h7.26V76.919h-7.26V71.324h9.33Zm7.635,14.58V67.8h-4.5V89.564h12.915V85.9h-8.415Zm31.073-11.632a10.267,10.267,0,0,0-5.783-5.865,12.691,12.691,0,0,0-9.12,0,10.56,10.56,0,0,0-3.525,2.332,10.313,10.313,0,0,0-2.272,3.517,12.573,12.573,0,0,0,0,8.843,10.3,10.3,0,0,0,2.272,3.525,10.556,10.556,0,0,0,3.525,2.332,12.691,12.691,0,0,0,9.12,0,10.475,10.475,0,0,0,3.518-2.332,10.367,10.367,0,0,0,2.265-3.525A12.546,12.546,0,0,0,195.292,74.271Zm-4.253,7.485a6.439,6.439,0,0,1-1.3,2.3,5.629,5.629,0,0,1-2.055,1.448,7.73,7.73,0,0,1-5.483,0,5.6,5.6,0,0,1-2.062-1.448,6.426,6.426,0,0,1-1.3-2.3,10.731,10.731,0,0,1,0-6.15,6.507,6.507,0,0,1,1.3-2.31,5.562,5.562,0,0,1,2.062-1.455,7.73,7.73,0,0,1,5.483,0,5.594,5.594,0,0,1,2.055,1.455,6.521,6.521,0,0,1,1.3,2.31A10.731,10.731,0,0,1,191.039,81.756Zm12.525-3.127v-7.41h2.85a5.762,5.762,0,0,1,1.815.255,3.392,3.392,0,0,1,1.268.727,2.949,2.949,0,0,1,.75,1.14,4.222,4.222,0,0,1,.247,1.478,3.857,3.857,0,0,1-.982,2.79,4.135,4.135,0,0,1-3.1,1.02h-2.85Zm-4.5-10.83V89.564h4.5V82.079h2.85a12.174,12.174,0,0,0,3.8-.532,7.4,7.4,0,0,0,2.685-1.493,6.008,6.008,0,0,0,1.59-2.3,7.966,7.966,0,0,0,.525-2.94,7.663,7.663,0,0,0-.5-2.805,5.759,5.759,0,0,0-1.553-2.227,7.35,7.35,0,0,0-2.677-1.463,12.648,12.648,0,0,0-3.863-.525h-7.35Zm29.67,18.315V80.159h3.825a6.485,6.485,0,0,1,1.718.195,2.97,2.97,0,0,1,1.132.563,2.118,2.118,0,0,1,.63.892,3.387,3.387,0,0,1,.2,1.185,4.108,4.108,0,0,1-.165,1.163,2.385,2.385,0,0,1-.585,1,2.979,2.979,0,0,1-1.117.7,5.11,5.11,0,0,1-1.778.263h-3.855Zm3.225-14.895a7.427,7.427,0,0,1,1.635.157,2.917,2.917,0,0,1,1.14.5,2.044,2.044,0,0,1,.668.915,3.882,3.882,0,0,1,.217,1.38,3.191,3.191,0,0,1-.262,1.358,2.238,2.238,0,0,1-.758.907,3.358,3.358,0,0,1-1.23.5,8.065,8.065,0,0,1-1.68.157h-2.955v-5.88h3.225Zm-7.725-3.42V89.564h8.43a11.034,11.034,0,0,0,3.428-.488,7.318,7.318,0,0,0,2.512-1.357,5.8,5.8,0,0,0,1.553-2.055,6.183,6.183,0,0,0,.532-2.565,4.426,4.426,0,0,0-1.065-3.075,6.217,6.217,0,0,0-3.285-1.71,7.167,7.167,0,0,0,1.71-.84,5,5,0,0,0,1.178-1.1,4.291,4.291,0,0,0,.675-1.3,4.759,4.759,0,0,0,.217-1.44,6.224,6.224,0,0,0-.45-2.415,4.466,4.466,0,0,0-1.432-1.838,7.1,7.1,0,0,0-2.535-1.17,14.751,14.751,0,0,0-3.743-.412h-7.725Zm24.5,10.3V71.219h2.34a4.816,4.816,0,0,1,3.128.855,2.949,2.949,0,0,1,1.027,2.4,4.183,4.183,0,0,1-.24,1.44,2.97,2.97,0,0,1-.75,1.148,3.548,3.548,0,0,1-1.305.765,5.744,5.744,0,0,1-1.89.278h-2.31Zm7.785,3.63a3.963,3.963,0,0,0-.675-0.8,4.351,4.351,0,0,0-.81-0.578,7.435,7.435,0,0,0,1.95-.99,6.428,6.428,0,0,0,1.44-1.41,6.036,6.036,0,0,0,.893-1.763,6.72,6.72,0,0,0,.307-2.047,6.638,6.638,0,0,0-.48-2.558,5.029,5.029,0,0,0-1.515-2,7.5,7.5,0,0,0-2.655-1.312,14.058,14.058,0,0,0-3.9-.472h-6.84V89.564h4.5v-8.3h1.53a1.832,1.832,0,0,1,.908.18,1.749,1.749,0,0,1,.562.57l4.14,6.675a1.766,1.766,0,0,0,1.65.87h4.065Zm21.57-10.41V67.8h-13.86V89.564h13.86V86.039h-9.33V80.324h7.26V76.919h-7.26V71.324h9.33Zm8.16,9.975,2.34-6.63q0.21-.525.443-1.237t0.442-1.552q0.21,0.825.443,1.53t0.442,1.23l2.355,6.66h-6.465Zm5.535-13.5h-4.605l-8.5,21.765h3.525a1.441,1.441,0,0,0,.945-0.308,1.71,1.71,0,0,0,.525-0.683l1.47-4.155h8.67l1.47,4.155a1.672,1.672,0,0,0,.548.713,1.536,1.536,0,0,0,.952.278h3.5Zm23.34,2.055a8.154,8.154,0,0,0-2.827-1.687,10.585,10.585,0,0,0-3.638-.608,8.37,8.37,0,0,0-3.112.54,7.06,7.06,0,0,0-2.288,1.425,6.023,6.023,0,0,0-1.89,4.38,6.577,6.577,0,0,0,.428,2.535,5.252,5.252,0,0,0,1.117,1.71,5.61,5.61,0,0,0,1.575,1.11,14.861,14.861,0,0,0,1.815.72q0.93,0.3,1.815.547a8.864,8.864,0,0,1,1.575.593,3.446,3.446,0,0,1,1.118.855,2.009,2.009,0,0,1,.427,1.335,2.634,2.634,0,0,1-.862,2.145,3.7,3.7,0,0,1-2.438.72,5.112,5.112,0,0,1-1.852-.3,8.336,8.336,0,0,1-1.358-.66q-0.585-.36-1.035-0.66a1.556,1.556,0,0,0-.855-0.3,1.114,1.114,0,0,0-.57.157,1.336,1.336,0,0,0-.435.4l-1.32,2.13a7.871,7.871,0,0,0,1.47,1.17,10.9,10.9,0,0,0,1.793.9,11.877,11.877,0,0,0,1.98.585,10.27,10.27,0,0,0,2.062.21,8.94,8.94,0,0,0,3.248-.555,6.912,6.912,0,0,0,2.407-1.523,6.6,6.6,0,0,0,1.493-2.265,7.44,7.44,0,0,0,.517-2.782,5.644,5.644,0,0,0-.427-2.317,5.021,5.021,0,0,0-1.125-1.612,6.4,6.4,0,0,0-1.583-1.1,16.033,16.033,0,0,0-1.815-.757q-0.93-.322-1.815-0.593a10.427,10.427,0,0,1-1.582-.615,3.714,3.714,0,0,1-1.125-.818,1.71,1.71,0,0,1-.428-1.192,2.329,2.329,0,0,1,.78-1.823,3.417,3.417,0,0,1,2.34-.7,4.653,4.653,0,0,1,1.545.233,8.674,8.674,0,0,1,1.17.5q0.51,0.27.893,0.5a1.385,1.385,0,0,0,.712.233,0.938,0.938,0,0,0,.563-0.157,1.705,1.705,0,0,0,.427-0.5Zm19.5-2.055H317.384v3.63h6.36V89.564h4.515V71.429h6.36V67.8Zm23.116,16.5a1.822,1.822,0,0,0-.345.225,6.221,6.221,0,0,1-.953.72,5.1,5.1,0,0,1-1,.465,5.741,5.741,0,0,1-1.155.255,11.621,11.621,0,0,1-1.387.075,6.058,6.058,0,0,1-2.423-.487,5.618,5.618,0,0,1-1.98-1.433,6.865,6.865,0,0,1-1.335-2.317,9.314,9.314,0,0,1-.487-3.127,9.9,9.9,0,0,1,.45-3.105,6.6,6.6,0,0,1,1.267-2.3,5.437,5.437,0,0,1,1.958-1.433,6.216,6.216,0,0,1,2.505-.5,6.832,6.832,0,0,1,2.032.255,6.528,6.528,0,0,1,1.335.57q0.533,0.315.9,0.57a1.273,1.273,0,0,0,.728.255,0.965,0.965,0,0,0,.57-0.15,1.425,1.425,0,0,0,.345-0.345l1.515-2.07a9.618,9.618,0,0,0-1.418-1.163,9.235,9.235,0,0,0-1.717-.907,11.052,11.052,0,0,0-2-.585,11.823,11.823,0,0,0-2.272-.21,12.009,12.009,0,0,0-3.023.368,10.336,10.336,0,0,0-2.617,1.065,9.8,9.8,0,0,0-2.153,1.688,10.408,10.408,0,0,0-1.627,2.22,10.856,10.856,0,0,0-1.028,2.692,13.789,13.789,0,0,0,.383,7.538,10.267,10.267,0,0,0,2.1,3.525,9.492,9.492,0,0,0,3.315,2.318,11.085,11.085,0,0,0,4.4.832,11.4,11.4,0,0,0,4.657-.87,8.5,8.5,0,0,0,3.278-2.55l-1.785-1.905a0.835,0.835,0,0,0-.63-0.27A0.857,0.857,0,0,0,357.735,84.3Zm10.59-3,2.34-6.63q0.208-.525.442-1.237t0.443-1.552q0.209,0.825.442,1.53t0.443,1.23l2.355,6.66h-6.465Zm5.535-13.5h-4.605l-8.5,21.765h3.525a1.444,1.444,0,0,0,.945-0.308,1.729,1.729,0,0,0,.525-0.683l1.47-4.155h8.67l1.47,4.155a1.678,1.678,0,0,0,.547.713,1.539,1.539,0,0,0,.953.278h3.5Zm25.11,0v12.45c0,0.32.009,0.658,0.03,1.012s0.049,0.723.09,1.1L388.17,68.5a3.151,3.151,0,0,0-.33-0.36,1.474,1.474,0,0,0-.315-0.218,1.1,1.1,0,0,0-.368-0.105,4.506,4.506,0,0,0-.487-0.022H384.3V89.564h3.975V76.979q0-.435-0.023-0.945T388.185,75L399.03,88.8a2.128,2.128,0,0,0,.705.593,2.034,2.034,0,0,0,.885.172h2.325V67.8H398.97Zm22.755,16.5a1.822,1.822,0,0,0-.345.225,6.221,6.221,0,0,1-.953.72,5.1,5.1,0,0,1-1,.465,5.741,5.741,0,0,1-1.155.255,11.621,11.621,0,0,1-1.387.075,6.058,6.058,0,0,1-2.423-.487,5.618,5.618,0,0,1-1.98-1.433,6.865,6.865,0,0,1-1.335-2.317,9.314,9.314,0,0,1-.487-3.127,9.9,9.9,0,0,1,.45-3.105,6.6,6.6,0,0,1,1.267-2.3,5.437,5.437,0,0,1,1.958-1.433,6.216,6.216,0,0,1,2.5-.5,6.832,6.832,0,0,1,2.032.255,6.528,6.528,0,0,1,1.335.57q0.533,0.315.9,0.57a1.273,1.273,0,0,0,.728.255,0.965,0.965,0,0,0,.57-0.15,1.425,1.425,0,0,0,.345-0.345l1.515-2.07a9.618,9.618,0,0,0-1.418-1.163,9.235,9.235,0,0,0-1.717-.907,11.052,11.052,0,0,0-2-.585,11.823,11.823,0,0,0-2.272-.21,12.009,12.009,0,0,0-3.023.368,10.336,10.336,0,0,0-2.617,1.065,9.8,9.8,0,0,0-2.153,1.688,10.408,10.408,0,0,0-1.627,2.22,10.856,10.856,0,0,0-1.028,2.692,13.789,13.789,0,0,0,.383,7.538,10.267,10.267,0,0,0,2.1,3.525,9.492,9.492,0,0,0,3.315,2.318,11.085,11.085,0,0,0,4.4.832,11.4,11.4,0,0,0,4.657-.87,8.5,8.5,0,0,0,3.278-2.55l-1.785-1.905a0.835,0.835,0,0,0-.63-0.27A0.857,0.857,0,0,0,421.725,84.3ZM441.15,71.324V67.8H427.29V89.564h13.86V86.039h-9.33V80.324h7.26V76.919h-7.26V71.324h9.33Zm7.635,6.78V71.219h2.34a4.815,4.815,0,0,1,3.127.855,2.95,2.95,0,0,1,1.028,2.4,4.207,4.207,0,0,1-.24,1.44,2.993,2.993,0,0,1-.75,1.148,3.564,3.564,0,0,1-1.305.765,5.752,5.752,0,0,1-1.89.278h-2.31Zm7.785,3.63a4.029,4.029,0,0,0-.675-0.8,4.418,4.418,0,0,0-.81-0.578,7.451,7.451,0,0,0,1.95-.99,6.428,6.428,0,0,0,1.44-1.41,6.033,6.033,0,0,0,.892-1.763,7.012,7.012,0,0,0-.172-4.605,5.038,5.038,0,0,0-1.515-2,7.5,7.5,0,0,0-2.655-1.312,14.063,14.063,0,0,0-3.9-.472h-6.84V89.564h4.5v-8.3h1.53a1.83,1.83,0,0,1,.907.18,1.761,1.761,0,0,1,.563.57l4.14,6.675a1.764,1.764,0,0,0,1.65.87h4.065Z"/>
  <path id="_1_IN_8_WOMEN" data-name="1 IN 8 WOMEN" class="cls-2" d="M79.328,30.692V0.716H73.88l-10.7,9.072L65.264,12.6a1.944,1.944,0,0,0,.48.42,2.053,2.053,0,0,0,.72.288,2.1,2.1,0,0,0,.864-0.012,2.408,2.408,0,0,0,.936-0.456l4.56-3.792q-0.048.672-.072,1.32t-0.024,1.272V30.692H65.816v4.872H85.352V30.692H79.328ZM110.479,0.74h-7.248V35.564h7.248V0.74Zm30.767,0V20.66q0,0.768.048,1.62t0.144,1.764L123.966,1.868a4.9,4.9,0,0,0-.528-0.576,2.28,2.28,0,0,0-.5-0.348,1.737,1.737,0,0,0-.588-0.168,7.206,7.206,0,0,0-.78-0.036h-3.792V35.564h6.36V15.428q0-.7-0.036-1.512T123.99,12.26l17.352,22.08a3.421,3.421,0,0,0,1.128.948,3.26,3.26,0,0,0,1.416.276h3.72V0.74h-6.36Zm32.94,29.736a4.678,4.678,0,0,1-1.692-1.116,4.55,4.55,0,0,1-1.008-1.68,6.358,6.358,0,0,1-.336-2.1,5.67,5.67,0,0,1,1.332-4.02,6.577,6.577,0,0,1,8.184,0A5.67,5.67,0,0,1,182,25.58a6.411,6.411,0,0,1-.336,2.1,4.6,4.6,0,0,1-1.008,1.68,4.713,4.713,0,0,1-1.692,1.116A7.192,7.192,0,0,1,174.186,30.476Zm4.488-24.84a4.1,4.1,0,0,1,1.44,1.02,4.038,4.038,0,0,1,.828,1.476,5.842,5.842,0,0,1,.264,1.752,8.351,8.351,0,0,1-.216,1.908,4.48,4.48,0,0,1-.744,1.644,3.767,3.767,0,0,1-1.416,1.152,6.107,6.107,0,0,1-4.512,0,3.736,3.736,0,0,1-1.416-1.152,4.448,4.448,0,0,1-.744-1.644,8.351,8.351,0,0,1-.216-1.908,5.779,5.779,0,0,1,.264-1.752,3.981,3.981,0,0,1,.828-1.476,4.065,4.065,0,0,1,1.44-1.02A5.934,5.934,0,0,1,178.674,5.636Zm7.776,8.76a8.586,8.586,0,0,0,1.212-4.632,8.593,8.593,0,0,0-.816-3.732,8.921,8.921,0,0,0-2.292-2.976,10.99,10.99,0,0,0-3.516-1.98,14.2,14.2,0,0,0-8.928,0,10.969,10.969,0,0,0-3.516,1.98A8.9,8.9,0,0,0,166.3,6.032a8.564,8.564,0,0,0-.816,3.732A8.569,8.569,0,0,0,166.7,14.4a7.9,7.9,0,0,0,3.684,3.024,8.616,8.616,0,0,0-4.608,3.18,8.871,8.871,0,0,0-1.44,5.1,9.821,9.821,0,0,0,.888,4.224,9.193,9.193,0,0,0,2.5,3.228,11.568,11.568,0,0,0,3.864,2.064,17.388,17.388,0,0,0,9.984,0,11.607,11.607,0,0,0,3.864-2.064,9.239,9.239,0,0,0,2.5-3.228,9.851,9.851,0,0,0,.888-4.224,8.871,8.871,0,0,0-1.44-5.1,8.616,8.616,0,0,0-4.608-3.18A7.92,7.92,0,0,0,186.45,14.4ZM246.557,0.74a2.546,2.546,0,0,0-1.56.48,2.046,2.046,0,0,0-.816,1.1l-5.4,19.632q-0.194.768-.372,1.668t-0.372,1.908q-0.216-1.008-.456-1.908t-0.528-1.668L230.789,2.324a2.7,2.7,0,0,0-.876-1.14A2.464,2.464,0,0,0,228.389.74h-2.112a2.452,2.452,0,0,0-1.548.492,2.273,2.273,0,0,0-.828,1.092l-6.288,19.632q-0.288.816-.528,1.752t-0.456,2.016q-0.194-1.056-.4-2t-0.4-1.764l-5.4-19.632a1.978,1.978,0,0,0-.828-1.152A2.736,2.736,0,0,0,208.037.74h-6.048l10.776,34.824h6.528l7.2-22.776q0.167-.48.336-1.056c0.111-.384.216-0.792,0.312-1.224,0.1,0.432.2,0.84,0.312,1.224s0.223,0.736.336,1.056l7.128,22.776h6.5l10.8-34.824h-5.664ZM287.705,11.1a16.43,16.43,0,0,0-9.252-9.384,20.306,20.306,0,0,0-14.592,0,16.876,16.876,0,0,0-5.64,3.732,16.5,16.5,0,0,0-3.636,5.628A19.077,19.077,0,0,0,253.3,18.14a19.169,19.169,0,0,0,1.284,7.08,16.469,16.469,0,0,0,3.636,5.64,16.869,16.869,0,0,0,5.64,3.732,20.306,20.306,0,0,0,14.592,0,16.757,16.757,0,0,0,5.628-3.732,16.589,16.589,0,0,0,3.624-5.64,19.189,19.189,0,0,0,1.284-7.08A19.031,19.031,0,0,0,287.705,11.1Zm-6.8,11.976a10.3,10.3,0,0,1-2.076,3.684,9,9,0,0,1-3.288,2.316,12.365,12.365,0,0,1-8.772,0,8.964,8.964,0,0,1-3.3-2.316,10.28,10.28,0,0,1-2.076-3.684,15.641,15.641,0,0,1-.72-4.932,15.56,15.56,0,0,1,.72-4.908,10.409,10.409,0,0,1,2.076-3.7,8.906,8.906,0,0,1,3.3-2.328,12.365,12.365,0,0,1,8.772,0,8.944,8.944,0,0,1,3.288,2.328,10.424,10.424,0,0,1,2.076,3.7,15.56,15.56,0,0,1,.72,4.908A15.641,15.641,0,0,1,280.9,23.072ZM327.2,0.74q-0.48,0-.828.024a2.108,2.108,0,0,0-.624.132,1.593,1.593,0,0,0-.516.336,2.467,2.467,0,0,0-.456.636l-9.672,18.5q-0.456.84-.852,1.752T313.492,24q-0.36-.936-0.756-1.824t-0.852-1.728L302.14,1.868a2.665,2.665,0,0,0-.444-0.636,1.468,1.468,0,0,0-.5-0.336,2.135,2.135,0,0,0-.636-0.132Q300.2,0.74,299.74.74h-5.472V35.564h6.36V14.18q0-.672-0.048-1.452t-0.12-1.62l10.008,18.96a2.682,2.682,0,0,0,2.52,1.56H314a2.672,2.672,0,0,0,2.52-1.56l9.96-18.888q-0.1.792-.132,1.56t-0.036,1.44V35.564h6.36V0.74H327.2Zm34.92,5.64V0.74H339.94V35.564h22.176v-5.64H347.188V20.78H358.8V15.332H347.188V6.38h14.928Zm28.847-5.64V20.66q0,0.768.048,1.62t0.144,1.764L373.683,1.868a4.9,4.9,0,0,0-.528-0.576,2.28,2.28,0,0,0-.5-0.348,1.737,1.737,0,0,0-.588-0.168,7.206,7.206,0,0,0-.78-0.036h-3.792V35.564h6.36V15.428q0-.7-0.036-1.512t-0.108-1.656l17.352,22.08a3.421,3.421,0,0,0,1.128.948,3.26,3.26,0,0,0,1.416.276h3.72V0.74h-6.36Z"/>
</svg>
