<svg xmlns="http://www.w3.org/2000/svg" width="558" height="127" viewBox="0 0 558 127">
  <defs>
    <style>
      .cls-1 {
        fill: #89b7b5;
      }

      .cls-1, .cls-2 {
        fill-rule: evenodd;
      }

      .cls-2 {
        fill: #5addbe;
      }
    </style>
  </defs>
  <path id="Icon" class="cls-1" d="M126.474,82.537L111.4,40.119a0.74,0.74,0,0,1-.252-0.511,1.12,1.12,0,0,1,1.257-1.278,1.076,1.076,0,0,1,1,1.022l10.3,27.342q1.255,2.812,5.527,2.811,1.507,0,2.135-2.3A14.863,14.863,0,0,0,132,64.139l-10.551-26.32a11.9,11.9,0,0,0-4.522-8.177,14.163,14.163,0,0,0-9.3-3.322H94.318a14.322,14.322,0,0,0-9.42,3.45A13.121,13.121,0,0,0,80,37.818L70.2,64.394q-0.5.766,0.251,2.939t2.261,2.171q4.773,0,5.527-2.555l10.049-27.6a0.988,0.988,0,0,1,1-.767,0.9,0.9,0,0,1,1,1.023v0.255L75.477,82.537v3.321a3.762,3.762,0,0,0,1.256,1.789,3.7,3.7,0,0,0,1.758,1.278h9.546v32.964a4.763,4.763,0,0,0,1.633,3.577A5.2,5.2,0,0,0,93.313,127a4.778,4.778,0,0,0,3.517-1.533,4.943,4.943,0,0,0,1.507-3.577V87.648q0-.255,1.382-0.384a13.668,13.668,0,0,1,2.638,0q1.256,0.129,1.256.384v33.986a5.386,5.386,0,0,0,1.507,3.7,4.827,4.827,0,0,0,7.286,0,5.386,5.386,0,0,0,1.507-3.7V88.925h9.8a2.659,2.659,0,0,0,1.759-1.278,3.937,3.937,0,0,0,1.005-1.789V82.537ZM90.047,10.86a10.547,10.547,0,0,0,3.14,7.667,10.49,10.49,0,0,0,15.073,0,10.545,10.545,0,0,0,3.14-7.667,10.543,10.543,0,0,0-3.14-7.666,10.488,10.488,0,0,0-15.073,0A10.545,10.545,0,0,0,90.047,10.86Z"/>
  <path id="Icon-2" data-name="Icon" class="cls-1" d="M56.474,82.537L41.4,40.119a0.741,0.741,0,0,1-.251-0.511,1.12,1.12,0,0,1,1.256-1.278,1.077,1.077,0,0,1,1,1.022l10.3,27.342q1.256,2.812,5.527,2.811,1.507,0,2.135-2.3A14.894,14.894,0,0,0,62,64.139L51.449,37.818a11.9,11.9,0,0,0-4.522-8.177,14.165,14.165,0,0,0-9.3-3.322H24.318a14.322,14.322,0,0,0-9.42,3.45A13.12,13.12,0,0,0,10,37.818L0.2,64.394q-0.5.766,0.251,2.939t2.261,2.171q4.773,0,5.527-2.555l10.049-27.6a0.988,0.988,0,0,1,1-.767,0.9,0.9,0,0,1,1,1.023v0.255L5.477,82.537v3.321a3.762,3.762,0,0,0,1.256,1.789,3.7,3.7,0,0,0,1.758,1.278h9.546v32.964a4.762,4.762,0,0,0,1.633,3.577A5.2,5.2,0,0,0,23.313,127a4.778,4.778,0,0,0,3.517-1.533,4.943,4.943,0,0,0,1.507-3.577V87.648q0-.255,1.382-0.384a13.666,13.666,0,0,1,2.638,0q1.256,0.129,1.256.384v33.986a5.383,5.383,0,0,0,1.507,3.7,4.827,4.827,0,0,0,7.285,0,5.383,5.383,0,0,0,1.507-3.7V88.925h9.8a2.659,2.659,0,0,0,1.758-1.278,3.938,3.938,0,0,0,1-1.789V82.537ZM20.047,10.86a10.547,10.547,0,0,0,3.14,7.667,10.49,10.49,0,0,0,15.073,0A10.547,10.547,0,0,0,41.4,10.86a10.545,10.545,0,0,0-3.14-7.666,10.488,10.488,0,0,0-15.073,0A10.545,10.545,0,0,0,20.047,10.86Z"/>
  <path id="Icon-3" data-name="Icon" class="cls-1" d="M197.474,82.537L182.4,40.119a0.74,0.74,0,0,1-.252-0.511,1.12,1.12,0,0,1,1.257-1.278,1.076,1.076,0,0,1,1,1.022l10.3,27.342q1.255,2.812,5.527,2.811,1.506,0,2.135-2.3A14.863,14.863,0,0,0,203,64.139l-10.551-26.32a11.9,11.9,0,0,0-4.522-8.177,14.165,14.165,0,0,0-9.295-3.322H165.318a14.322,14.322,0,0,0-9.421,3.45,13.125,13.125,0,0,0-4.9,8.049l-9.8,26.576q-0.5.766,0.252,2.939t2.261,2.171q4.773,0,5.526-2.555l10.049-27.6a0.987,0.987,0,0,1,1-.767,0.9,0.9,0,0,1,1,1.023v0.255L146.477,82.537v3.321a3.759,3.759,0,0,0,1.256,1.789,3.7,3.7,0,0,0,1.758,1.278h9.547v32.964a4.764,4.764,0,0,0,1.632,3.577A5.2,5.2,0,0,0,164.313,127a4.778,4.778,0,0,0,3.517-1.533,4.942,4.942,0,0,0,1.507-3.577V87.648q0-.255,1.382-0.384a13.669,13.669,0,0,1,2.638,0q1.255,0.129,1.256.384v33.986a5.386,5.386,0,0,0,1.507,3.7,4.827,4.827,0,0,0,7.286,0,5.386,5.386,0,0,0,1.507-3.7V88.925h9.8a2.659,2.659,0,0,0,1.759-1.278,3.937,3.937,0,0,0,1-1.789V82.537ZM161.047,10.86a10.549,10.549,0,0,0,3.14,7.667,10.49,10.49,0,0,0,15.073,0,10.545,10.545,0,0,0,3.14-7.667,10.543,10.543,0,0,0-3.14-7.666,10.488,10.488,0,0,0-15.073,0A10.547,10.547,0,0,0,161.047,10.86Z"/>
  <path id="Icon-4" data-name="Icon" class="cls-1" d="M269.474,82.537L254.4,40.119a0.74,0.74,0,0,1-.252-0.511,1.12,1.12,0,0,1,1.257-1.278,1.076,1.076,0,0,1,1,1.022l10.3,27.342q1.256,2.812,5.527,2.811,1.507,0,2.135-2.3A14.863,14.863,0,0,0,275,64.139l-10.551-26.32a11.9,11.9,0,0,0-4.522-8.177,14.165,14.165,0,0,0-9.3-3.322H237.318a14.32,14.32,0,0,0-9.421,3.45,13.125,13.125,0,0,0-4.9,8.049l-9.8,26.576q-0.5.766,0.252,2.939t2.26,2.171q4.773,0,5.527-2.555l10.049-27.6a0.987,0.987,0,0,1,1-.767,0.9,0.9,0,0,1,1,1.023v0.255L218.477,82.537v3.321a3.759,3.759,0,0,0,1.256,1.789,3.7,3.7,0,0,0,1.758,1.278h9.547v32.964a4.761,4.761,0,0,0,1.633,3.577A5.192,5.192,0,0,0,236.313,127a4.778,4.778,0,0,0,3.517-1.533,4.942,4.942,0,0,0,1.507-3.577V87.648q0-.255,1.382-0.384a13.669,13.669,0,0,1,2.638,0q1.255,0.129,1.256.384v33.986a5.386,5.386,0,0,0,1.507,3.7,4.827,4.827,0,0,0,7.286,0,5.386,5.386,0,0,0,1.507-3.7V88.925h9.8a2.659,2.659,0,0,0,1.759-1.278,3.937,3.937,0,0,0,1-1.789V82.537ZM233.047,10.86a10.546,10.546,0,0,0,3.141,7.667,10.489,10.489,0,0,0,15.072,0,10.545,10.545,0,0,0,3.14-7.667,10.543,10.543,0,0,0-3.14-7.666,10.487,10.487,0,0,0-15.072,0A10.544,10.544,0,0,0,233.047,10.86Z"/>
  <path id="Icon-5" data-name="Icon" class="cls-2" d="M340.474,82.537L325.4,40.119a0.74,0.74,0,0,1-.252-0.511,1.12,1.12,0,0,1,1.257-1.278,1.076,1.076,0,0,1,1,1.022l10.3,27.342q1.256,2.812,5.527,2.811,1.507,0,2.135-2.3A14.863,14.863,0,0,0,346,64.139l-10.551-26.32a11.9,11.9,0,0,0-4.522-8.177,14.165,14.165,0,0,0-9.3-3.322H308.318a14.322,14.322,0,0,0-9.421,3.45,13.125,13.125,0,0,0-4.9,8.049l-9.8,26.576q-0.5.766,0.252,2.939t2.261,2.171q4.773,0,5.526-2.555l10.049-27.6a0.987,0.987,0,0,1,1-.767,0.9,0.9,0,0,1,1,1.023v0.255L289.477,82.537v3.321a3.759,3.759,0,0,0,1.256,1.789,3.7,3.7,0,0,0,1.758,1.278h9.547v32.964a4.764,4.764,0,0,0,1.632,3.577A5.2,5.2,0,0,0,307.313,127a4.778,4.778,0,0,0,3.517-1.533,4.942,4.942,0,0,0,1.507-3.577V87.648q0-.255,1.382-0.384a13.669,13.669,0,0,1,2.638,0q1.255,0.129,1.256.384v33.986a5.386,5.386,0,0,0,1.507,3.7,4.827,4.827,0,0,0,7.286,0,5.386,5.386,0,0,0,1.507-3.7V88.925h9.8a2.659,2.659,0,0,0,1.759-1.278,3.937,3.937,0,0,0,1-1.789V82.537ZM304.047,10.86a10.546,10.546,0,0,0,3.141,7.667,10.489,10.489,0,0,0,15.072,0,10.545,10.545,0,0,0,3.14-7.667,10.543,10.543,0,0,0-3.14-7.666,10.487,10.487,0,0,0-15.072,0A10.544,10.544,0,0,0,304.047,10.86Z"/>
  <path id="Icon-6" data-name="Icon" class="cls-1" d="M411.474,82.537L396.4,40.119a0.74,0.74,0,0,1-.252-0.511,1.12,1.12,0,0,1,1.257-1.278,1.076,1.076,0,0,1,1,1.022l10.3,27.342q1.256,2.812,5.527,2.811,1.507,0,2.135-2.3A14.863,14.863,0,0,0,417,64.139l-10.551-26.32a11.9,11.9,0,0,0-4.522-8.177,14.163,14.163,0,0,0-9.3-3.322H379.318a14.322,14.322,0,0,0-9.421,3.45,13.125,13.125,0,0,0-4.9,8.049l-9.8,26.576q-0.5.766,0.252,2.939t2.26,2.171q4.773,0,5.527-2.555l10.049-27.6a0.987,0.987,0,0,1,1-.767,0.9,0.9,0,0,1,1,1.023v0.255L360.477,82.537v3.321a3.759,3.759,0,0,0,1.256,1.789,3.7,3.7,0,0,0,1.758,1.278h9.547v32.964a4.761,4.761,0,0,0,1.633,3.577A5.192,5.192,0,0,0,378.313,127a4.778,4.778,0,0,0,3.517-1.533,4.942,4.942,0,0,0,1.507-3.577V87.648q0-.255,1.382-0.384a13.669,13.669,0,0,1,2.638,0q1.255,0.129,1.256.384v33.986a5.386,5.386,0,0,0,1.507,3.7,4.827,4.827,0,0,0,7.286,0,5.386,5.386,0,0,0,1.507-3.7V88.925h9.8a2.659,2.659,0,0,0,1.759-1.278,3.937,3.937,0,0,0,1-1.789V82.537ZM375.047,10.86a10.546,10.546,0,0,0,3.141,7.667,10.489,10.489,0,0,0,15.072,0,10.545,10.545,0,0,0,3.14-7.667,10.543,10.543,0,0,0-3.14-7.666,10.487,10.487,0,0,0-15.072,0A10.544,10.544,0,0,0,375.047,10.86Z"/>
  <path id="Icon-7" data-name="Icon" class="cls-1" d="M482.474,82.537L467.4,40.119a0.74,0.74,0,0,1-.252-0.511,1.12,1.12,0,0,1,1.257-1.278,1.076,1.076,0,0,1,1,1.022l10.3,27.342q1.256,2.812,5.527,2.811,1.506,0,2.135-2.3A14.863,14.863,0,0,0,488,64.139l-10.551-26.32a11.9,11.9,0,0,0-4.522-8.177,14.165,14.165,0,0,0-9.3-3.322H450.318a14.322,14.322,0,0,0-9.421,3.45,13.125,13.125,0,0,0-4.9,8.049l-9.8,26.576q-0.5.766,0.252,2.939t2.261,2.171q4.773,0,5.526-2.555l10.049-27.6a0.987,0.987,0,0,1,1-.767,0.9,0.9,0,0,1,1,1.023v0.255L431.477,82.537v3.321a3.759,3.759,0,0,0,1.256,1.789,3.7,3.7,0,0,0,1.758,1.278h9.547v32.964a4.764,4.764,0,0,0,1.632,3.577A5.2,5.2,0,0,0,449.313,127a4.778,4.778,0,0,0,3.517-1.533,4.942,4.942,0,0,0,1.507-3.577V87.648q0-.255,1.382-0.384a13.669,13.669,0,0,1,2.638,0q1.255,0.129,1.256.384v33.986a5.386,5.386,0,0,0,1.507,3.7,4.827,4.827,0,0,0,7.286,0,5.386,5.386,0,0,0,1.507-3.7V88.925h9.8a2.659,2.659,0,0,0,1.759-1.278,3.937,3.937,0,0,0,1-1.789V82.537ZM446.047,10.86a10.549,10.549,0,0,0,3.14,7.667,10.49,10.49,0,0,0,15.073,0,10.545,10.545,0,0,0,3.14-7.667,10.543,10.543,0,0,0-3.14-7.666,10.488,10.488,0,0,0-15.073,0A10.547,10.547,0,0,0,446.047,10.86Z"/>
  <path id="Icon-8" data-name="Icon" class="cls-1" d="M552.474,82.537L537.4,40.119a0.74,0.74,0,0,1-.252-0.511,1.12,1.12,0,0,1,1.257-1.278,1.076,1.076,0,0,1,1,1.022l10.3,27.342q1.255,2.812,5.527,2.811,1.508,0,2.135-2.3A14.863,14.863,0,0,0,558,64.139l-10.551-26.32a11.9,11.9,0,0,0-4.522-8.177,14.163,14.163,0,0,0-9.3-3.322H520.318a14.322,14.322,0,0,0-9.421,3.45,13.125,13.125,0,0,0-4.9,8.049l-9.8,26.576q-0.5.766,0.252,2.939t2.261,2.171q4.773,0,5.526-2.555l10.049-27.6a0.987,0.987,0,0,1,1-.767,0.9,0.9,0,0,1,1,1.023v0.255L501.477,82.537v3.321a3.759,3.759,0,0,0,1.256,1.789,3.7,3.7,0,0,0,1.758,1.278h9.547v32.964a4.761,4.761,0,0,0,1.633,3.577A5.192,5.192,0,0,0,519.313,127a4.778,4.778,0,0,0,3.517-1.533,4.942,4.942,0,0,0,1.507-3.577V87.648q0-.255,1.382-0.384a13.669,13.669,0,0,1,2.638,0q1.255,0.129,1.256.384v33.986a5.383,5.383,0,0,0,1.508,3.7,4.826,4.826,0,0,0,7.285,0,5.386,5.386,0,0,0,1.507-3.7V88.925h9.8a2.659,2.659,0,0,0,1.759-1.278,3.937,3.937,0,0,0,1-1.789V82.537ZM516.047,10.86a10.546,10.546,0,0,0,3.141,7.667,10.489,10.489,0,0,0,15.072,0,10.545,10.545,0,0,0,3.14-7.667,10.543,10.543,0,0,0-3.14-7.666,10.487,10.487,0,0,0-15.072,0A10.544,10.544,0,0,0,516.047,10.86Z"/>
</svg>
